<svg version="1" xmlns="http://www.w3.org/2000/svg" width="933.333" height="933.333" viewBox="0 0 700.000000 700.000000"><path d="M301 48.5c-16.2 4.2-27.7 18.1-28.4 34.2-1 25.5 21.3 44.3 45.7 38.7 27.7-6.5 38.2-38.7 20-61.1-8.1-10.1-24.3-15.2-37.3-11.8zM77.9 140.9C66.7 143.2 55 153.1 51 163.8c-12 31.9 19.8 61.8 51.1 47.9 1.9-.9 5.8-3.6 8.7-6.2 18.3-16.5 16.3-45.3-4.3-58.9-3.1-2.1-7-4.2-8.8-4.7-4.4-1.3-15.4-1.9-19.8-1zM522.5 142.2c-7.1 2.4-10.7 4.7-15.9 10.2-22.4 23.7-4.7 63 28.2 62.7 28.8-.3 46.1-31.6 31.5-56.8-4.3-7.5-13.7-14.7-21.8-16.8-6.4-1.6-16-1.4-22 .7zM305.7 259.6c-.1.1-3.2.5-6.9.8-36.2 3.7-70.1 22.1-91.1 49.6-7 9.2-11.8 17.8-18.7 33.5-1.9 4.4-5.9 20.2-7.5 29.5-1.1 6.1-1.4 36.2-.5 43.5 1.8 14.4 2.4 16.8 6.5 30.5 2.7 8.8 9.2 21.8 16 32 20 30.1 52.2 49.7 91 55.7 7.8 1.1 35.5 1.1 43-.2 28.1-4.6 47.4-14.1 65.6-32.6l10.7-10.7-.1 20.7-.1 20.6 23.7.3 23.7.2V262h-24.4c-18.6 0-24.5.3-24.8 1.2-.2.7-.3 9.8-.2 20.1l.2 18.9-7.7-8c-4.2-4.4-9.4-9.2-11.6-10.8-2.2-1.6-4.6-3.4-5.2-4.1-.7-.6-6.3-3.6-12.5-6.7-18.4-9-34.6-12.8-57.1-13.1-6.4-.1-11.8-.1-12 .1zm31.3 43.9c17.9 2.8 36 11.8 48.3 23.9 13.7 13.4 23.8 35.5 26.2 56.6.6 6.2.8 22.5.1 25.5-.2 1.1-.7 4.2-1 7-3.2 23.7-17.6 47.5-36.9 60.7-7.8 5.3-18.9 10.4-28.4 13-11.5 3.1-36.3 3.2-48.1 0-33.1-8.7-57-33.7-65.1-68.3-3.9-16.9-2.9-41.1 2.5-57.6 10.9-33.4 36.3-55.2 70.6-60.6 8.6-1.4 23.9-1.5 31.8-.2zM62.3 397.5V533h24.3c18.5 0 24.3-.3 24.6-1.3.2-.6.3-61.5.3-135.2l-.1-134-24.5-.3-24.6-.2v135.5zM618.6 365.1c-10.4 2.5-20.2 10.3-25.1 19.9-12.5 24.7 5.6 54.1 33.5 54.3 33.2.1 50-40.7 26.3-64.1-8.6-8.5-23.4-12.8-34.7-10.1zM525.4 589.6c-2.7.7-5.2 1.3-5.5 1.4-.4 0-3.4 1.8-6.7 4-15.5 10.4-21.1 32-12.5 48.1 6.3 11.7 18.7 19.8 31.1 20.4 24.9 1.1 43.6-20.7 39-45.4-3.7-19.9-25.7-33.7-45.4-28.5z"/></svg>