<?xml version="1.0" encoding="utf-8"?>
<!-- Generator: Adobe Illustrator 24.0.2, SVG Export Plug-In . SVG Version: 6.00 Build 0)  -->
<svg version="1.1" id="Layer_1" xmlns="http://www.w3.org/2000/svg" xmlns:xlink="http://www.w3.org/1999/xlink" x="0px" y="0px"
	 viewBox="0 0 60 60" style="enable-background:new 0 0 60 60;" xml:space="preserve">
<style type="text/css">
	.st0{fill:none;stroke:#173F72;stroke-miterlimit:10;}
</style>
<path class="st0" d="M27.04,23.92c0-3.86,2.14-7.31,5.48-9.61c-1.82-0.39-3.73-0.61-5.71-0.61c-12.01,0-21.75,7.76-21.75,17.33
	c0,4.67,2.31,8.91,6.08,12.02C9.59,45.47,7.42,47.49,5,48.64c1.31,0.16,2.8,0,3.97-0.04c2.91-0.09,5.67-0.84,8.28-1.99
	c2.88,1.13,6.13,1.76,9.56,1.76c10.01,0,18.43-5.39,20.97-12.73c-1.74,0.55-3.57,0.82-5.46,0.82C33.9,36.46,27.04,30.84,27.04,23.92
	z M52.07,31.39c2.34-1.94,3.78-4.57,3.78-7.47c0-5.95-6.05-10.77-13.52-10.77s-13.52,4.82-13.52,10.77
	c0,5.95,6.05,10.77,13.52,10.77c2.13,0,4.15-0.39,5.94-1.1c1.63,0.71,3.34,1.18,5.15,1.24c0.73,0.03,1.66,0.12,2.47,0.03
	C54.38,34.15,53.04,32.9,52.07,31.39z"/>
</svg>
