<?xml version="1.0" encoding="utf-8"?>
<!-- Generator: Adobe Illustrator 22.1.0, SVG Export Plug-In . SVG Version: 6.00 Build 0)  -->
<svg version="1.1" id="Layer_1" xmlns="http://www.w3.org/2000/svg" xmlns:xlink="http://www.w3.org/1999/xlink" x="0px" y="0px"
	 viewBox="0 0 45 45" style="enable-background:new 0 0 45 45;" xml:space="preserve">
<style type="text/css">
	.st0{fill:#CE1126;}
	.st1{fill:#F9D616;}
</style>
<g>
	<g>
		<g>
			<path class="st0" d="M45,14.1c0-5.6,0-8.4-2.8-11.3S36.6,0,30.9,0H14.1C8.4,0,5.6,0,2.8,2.8S0,8.4,0,14.1v8.4h45V14.1z"/>
			<path d="M0,22.5v8.4c0,5.6,0,8.4,2.8,11.3S8.4,45,14.1,45h16.9c5.6,0,8.4,0,11.3-2.8S45,36.6,45,30.9v-8.4H0z"/>
		</g>
		<g>
			<polygon class="st1" points="16.4,16.3 19.1,16.3 20,13.7 20.9,16.3 23.6,16.3 21.4,18 22.2,20.6 20,19 17.8,20.6 18.6,18 			"/>
			<path class="st1" d="M27.3,31.2l1-1.2l1.7,1.5c0,0,0.9,0.8,1.2,1.3c0.5,0.8-0.1,1.7-0.8,1.2c-0.4-0.3-0.4-0.9-1-1.5
				c-0.4-0.4-0.8-0.8-2-1.1C27.4,31.4,27.3,31.2,27.3,31.2z"/>
			<path class="st1" d="M30.3,22c0.1-0.7,0.1-1.4,0-2.1L29.5,20c-0.1-0.6-0.2-1.3-0.4-1.9l0.8-0.2c-0.2-0.7-0.5-1.3-0.8-1.9
				l-0.7,0.4c-0.3-0.6-0.7-1.1-1.1-1.6l0.6-0.5c-0.4-0.5-0.9-1-1.5-1.5l-0.5,0.7c-0.5-0.4-1-0.8-1.6-1.1l0.4-0.8
				c-0.6-0.3-1.3-0.6-1.9-0.8l-0.3,0.8c-0.6-0.2-1.2-0.3-1.8-0.4l-0.2,1.8c4,0.4,7.1,3.8,7.1,7.9c0,2.4-1.1,4.6-2.8,6.1l2.2,1.5
				c0.3-0.3,0.6-0.6,0.8-0.9l-0.6-0.5c0.4-0.5,0.8-1,1.1-1.6l0.7,0.4c0.3-0.6,0.6-1.3,0.8-1.9l-0.8-0.2c0.2-0.6,0.3-1.2,0.4-1.9
				L30.3,22z"/>
			<path class="st1" d="M22.3,28.5c-0.8,0.3-1.7,0.4-2.6,0.4c-1.9,0-3.6-0.7-5-1.8l-1.2,1.4c0.5,0.4,1,0.8,1.6,1.1l-0.4,0.8
				c0.6,0.3,1.3,0.6,1.9,0.8l0.2-0.8c0.6,0.2,1.2,0.3,1.9,0.4l-0.1,0.8c0.7,0.1,1.4,0.1,2.1,0l-0.1-0.8c0.6-0.1,1.3-0.2,1.9-0.4
				l0.2,0.8c0.3-0.1,0.7-0.2,1-0.3l-0.4-1.7L22.3,28.5z"/>
			<path class="st1" d="M27.2,31c0,0-4.8-2.9-8.2-4.8c-2.1-1.2-4.4-3.4-2.8-6.6C17,22.2,28.1,30,28.1,30L27.2,31z"/>
			<g>
				<path d="M27.2,29.9c-2.9-2.8-7-4.4-9.8-7.7l0,0c0,0,0,0,0-0.1l0,0c0,0,0,0,0.1,0l0,0C20.3,25.4,24.3,27.1,27.2,29.9L27.2,29.9
					C27.3,29.9,27.3,29.9,27.2,29.9L27.2,29.9C27.2,29.9,27.2,29.9,27.2,29.9L27.2,29.9C27.2,29.9,27.2,29.9,27.2,29.9L27.2,29.9z"
					/>
			</g>
			<path d="M29,31c0,0.1-0.1,0.2-0.2,0.2c-0.1,0-0.2-0.1-0.2-0.2c0-0.1,0.1-0.2,0.2-0.2C28.9,30.8,29,30.9,29,31z"/>
			<path d="M30,31.9c0,0.1-0.1,0.2-0.2,0.2c-0.1,0-0.2-0.1-0.2-0.2c0-0.1,0.1-0.2,0.2-0.2C29.9,31.7,30,31.8,30,31.9z"/>
			<path d="M30.8,32.8c0,0.1-0.1,0.2-0.2,0.2c-0.1,0-0.2-0.1-0.2-0.2c0-0.1,0.1-0.2,0.2-0.2C30.8,32.6,30.8,32.7,30.8,32.8z"/>
		</g>
	</g>
</g>
</svg>
