<?xml version="1.0" encoding="utf-8"?>
<!-- Generator: Adobe Illustrator 22.1.0, SVG Export Plug-In . SVG Version: 6.00 Build 0)  -->
<svg version="1.1" id="Layer_1" xmlns="http://www.w3.org/2000/svg" xmlns:xlink="http://www.w3.org/1999/xlink" x="0px" y="0px"
	 viewBox="0 0 45 45" style="enable-background:new 0 0 45 45;" xml:space="preserve">
<style type="text/css">
	.st0{fill:#75AADB;}
	.st1{fill:#FFFFFF;}
	.st2{fill:#843511;}
	.st3{fill:#FCBF49;}
</style>
<g>
	<g>
		<g>
			<path class="st0" d="M2.8,42.2C5.6,45,8.4,45,14.1,45h16.9c5.6,0,8.4,0,11.3-2.8S45,36.6,45,30.9H0C0,36.6,0,39.4,2.8,42.2z"/>
			<path class="st0" d="M42.2,2.8C39.4,0,36.6,0,30.9,0H14.1C8.4,0,5.6,0,2.8,2.8S0,8.4,0,14.1l0,0h45C45,8.4,45,5.6,42.2,2.8z"/>
			<rect y="14.1" class="st1" width="45" height="16.9"/>
		</g>
		<g>
			<path class="st2" d="M22.4,14.9c0-0.1,0.2-0.1,0.2,0c0,0.1,0,0.2,0,0.3c0.1,1.4,0.1,2.8,0.2,4.2c0.1-0.3,0.1-0.6,0.2-0.9
				c0-0.4,0.1-0.7,0.3-1c0.1-0.3,0.3-0.6,0.3-0.9c0-0.2,0-0.4,0-0.6c0-0.3,0.1-0.6,0.3-0.8c0.1-0.1,0.2-0.2,0.3-0.2
				c0.1,0,0.1,0.1,0.1,0.1c-0.1,0.1-0.1,0.2-0.2,0.3c-0.1,0.1-0.1,0.3-0.1,0.4c0,0.3,0.1,0.5,0.1,0.8c0,0.3-0.1,0.6-0.2,0.9
				c-0.1,0.2-0.2,0.3-0.2,0.5c-0.1,0.5,0,0.9-0.1,1.4c0.6-1.3,1.2-2.6,1.8-3.9c0-0.1,0.1-0.2,0.2-0.1c0.1,0,0.1,0.1,0.1,0.2
				c-0.5,1.4-1,2.8-1.5,4.2c0.3-0.4,0.5-0.9,0.8-1.3c0.2-0.3,0.5-0.5,0.7-0.7c0.1-0.2,0.3-0.3,0.4-0.5c0.1-0.2,0.2-0.5,0.3-0.7
				c0.1-0.2,0.3-0.3,0.6-0.4c0.1,0,0.2,0,0.2,0.1c-0.1,0.1-0.2,0.1-0.3,0.2c-0.2,0.2-0.2,0.4-0.3,0.6c-0.1,0.3-0.2,0.7-0.5,1
				c-0.2,0.2-0.4,0.3-0.5,0.6c-0.3,0.4-0.5,0.9-0.8,1.4c1-1,2.1-1.9,3.1-2.8c0.1-0.1,0.1-0.2,0.2-0.2c0.1,0,0.1,0.1,0.1,0.1
				c0,0.1-0.1,0.2-0.2,0.2c-1,1-1.9,2.1-2.9,3.1c0.4-0.2,0.7-0.5,1-0.7c0.2-0.2,0.5-0.3,0.7-0.3c0.3-0.1,0.6-0.2,0.9-0.5
				c0.2-0.2,0.4-0.4,0.6-0.6c0.2-0.1,0.4-0.2,0.7-0.2c0.1,0,0.2,0.1,0.2,0.2c0,0.1-0.1,0.1-0.2,0.1c-0.2,0-0.4,0.1-0.5,0.2
				c-0.2,0.2-0.3,0.4-0.5,0.6c-0.2,0.2-0.5,0.4-0.9,0.5c-0.2,0.1-0.4,0.1-0.5,0.3c-0.4,0.3-0.7,0.6-1.1,0.9c1.3-0.5,2.7-1,4.1-1.5
				c0.1,0,0.2,0,0.2,0.1c0,0.1-0.1,0.1-0.1,0.2c-1.3,0.6-2.7,1.2-4,1.9c0.4,0,0.7-0.2,1-0.3c0.3-0.1,0.6-0.1,1-0.1
				c0.3,0,0.7,0,1-0.1c0.2-0.1,0.5-0.2,0.7-0.3c0.2,0,0.4,0,0.6,0c0.1,0,0.2,0.1,0.2,0.2c0,0.1,0,0.1-0.1,0.1
				c-0.1,0-0.2-0.1-0.3-0.1c-0.1,0-0.3,0-0.4,0.1c-0.3,0.1-0.5,0.3-0.8,0.4c-0.3,0.1-0.6,0.1-0.9,0.1c-0.2,0-0.4,0-0.6,0
				c-0.4,0.1-0.9,0.3-1.3,0.4c0.7,0,1.3,0,2,0.1c0.8,0,1.6,0.1,2.4,0.1c0.1,0,0.2,0,0.2,0.1c0,0.1-0.1,0.1-0.2,0.1
				c-1.5,0.1-3,0.1-4.4,0.2c0.3,0.1,0.6,0.1,1,0.2c0.3,0,0.7,0.1,1,0.3c0.3,0.2,0.6,0.3,0.9,0.3c0.3,0,0.6,0,0.9,0
				c0.2,0,0.4,0.1,0.5,0.3c0.1,0.1,0.1,0.1,0.1,0.2c0,0.1,0,0.1-0.1,0.1c-0.1-0.1-0.2-0.2-0.3-0.2c-0.2-0.1-0.4,0-0.6,0
				c-0.4,0-0.7,0-1.1-0.1c-0.2-0.1-0.4-0.2-0.7-0.3c-0.5-0.1-1.1-0.1-1.6-0.2c1.3,0.6,2.6,1.2,3.8,1.8c0.1,0,0.2,0.1,0.2,0.2
				c0,0.1-0.1,0.2-0.2,0.1c-1.4-0.5-2.8-1-4.2-1.5c0.3,0.3,0.6,0.4,0.9,0.6c0.3,0.2,0.5,0.4,0.7,0.6c0.2,0.2,0.4,0.5,0.7,0.6
				c0.2,0.1,0.4,0.2,0.6,0.2c0.3,0.1,0.5,0.3,0.6,0.6c0,0.1,0.1,0.2,0,0.3c0,0.1-0.1,0.1-0.2,0c-0.1-0.1-0.1-0.2-0.2-0.3
				c-0.2-0.1-0.4-0.2-0.6-0.2c-0.3-0.1-0.7-0.2-1-0.5c-0.2-0.2-0.3-0.4-0.6-0.5c-0.4-0.3-1-0.5-1.4-0.8c1,1.1,2,2.1,3,3.2
				c0.1,0.1,0.1,0.2,0,0.2c-0.1,0.1-0.2,0-0.2,0c-0.9-0.9-1.9-1.7-2.8-2.6c-0.1-0.1-0.3-0.3-0.4-0.4c0.2,0.4,0.5,0.6,0.7,0.9
				c0.2,0.2,0.3,0.5,0.4,0.8c0.1,0.3,0.2,0.6,0.4,0.8c0.1,0.2,0.3,0.3,0.4,0.4c0.2,0.2,0.3,0.5,0.4,0.7c0,0.1,0,0.2-0.1,0.3
				c0,0-0.1,0-0.1,0c0-0.1,0-0.3-0.1-0.4c-0.1-0.2-0.3-0.3-0.4-0.4c-0.3-0.2-0.5-0.5-0.7-0.8c-0.1-0.2-0.2-0.5-0.3-0.8
				c-0.3-0.5-0.7-0.8-1-1.2c0.5,1.4,1,2.7,1.5,4.1c0,0.1,0,0.2-0.1,0.2c-0.1,0-0.1-0.1-0.2-0.1c-0.6-1.2-1.1-2.4-1.7-3.6
				c-0.1-0.1-0.1-0.2-0.2-0.4c0,0.4,0.2,0.7,0.3,1c0.1,0.3,0.1,0.6,0.1,0.9c0,0.3,0,0.6,0,1c0.1,0.2,0.1,0.4,0.2,0.6
				c0.1,0.3,0.1,0.6,0,0.9c0,0.1-0.1,0.2-0.2,0.2c-0.1,0-0.1,0-0.1-0.1c0-0.1,0.1-0.2,0.1-0.4c0-0.2-0.1-0.4-0.2-0.6
				c-0.2-0.3-0.3-0.7-0.3-1c0-0.3,0-0.5,0-0.8c-0.1-0.5-0.4-1-0.5-1.5c0,1.4-0.1,2.9-0.2,4.3c0,0.1,0,0.2-0.1,0.2
				c-0.1,0-0.1-0.1-0.1-0.2c-0.1-1.5-0.1-2.9-0.2-4.4c-0.1,0.3-0.1,0.6-0.1,0.9c0,0.4-0.1,0.7-0.3,1c-0.2,0.3-0.3,0.6-0.3,0.9
				c0,0.3,0,0.6-0.1,1c-0.1,0.2-0.2,0.4-0.4,0.5c-0.1,0-0.2,0-0.2-0.1c0.1-0.1,0.2-0.2,0.2-0.3c0.1-0.2,0.1-0.3,0-0.5
				c0-0.4-0.1-0.8,0-1.2c0.1-0.3,0.2-0.5,0.3-0.8c0.1-0.5,0.1-1,0.1-1.5c-0.6,1.3-1.2,2.6-1.8,3.9c0,0.1-0.1,0.2-0.2,0.2
				c-0.1,0-0.1-0.1-0.1-0.2c0.5-1.4,1-2.8,1.5-4.1c-0.3,0.3-0.4,0.8-0.7,1.2c-0.1,0.2-0.3,0.4-0.5,0.5c-0.3,0.2-0.5,0.5-0.6,0.8
				c-0.1,0.2-0.2,0.5-0.3,0.7c-0.1,0.2-0.3,0.3-0.5,0.4c-0.1,0-0.2,0-0.2-0.1c0-0.1,0.1-0.1,0.2-0.1c0.2-0.1,0.3-0.2,0.3-0.4
				c0.1-0.4,0.2-0.7,0.4-1c0.1-0.2,0.3-0.4,0.5-0.6c0.4-0.4,0.6-1.1,0.9-1.6c-1,0.9-2,1.9-3.1,2.9c-0.1,0.1-0.1,0.1-0.2,0.2
				c-0.1,0-0.2-0.1-0.1-0.1c0-0.1,0.1-0.2,0.2-0.2c0.8-0.9,1.7-1.8,2.5-2.7c0.1-0.2,0.3-0.3,0.4-0.5c-0.4,0.2-0.7,0.5-1.1,0.8
				c-0.2,0.1-0.4,0.2-0.7,0.3c-0.3,0.1-0.6,0.3-0.9,0.5c-0.2,0.2-0.3,0.4-0.5,0.5c-0.2,0.1-0.4,0.2-0.6,0.2c-0.1,0-0.2,0-0.3-0.1
				c0,0,0-0.1,0-0.1c0.1,0,0.3,0,0.4-0.1c0.2-0.1,0.3-0.2,0.4-0.3c0.2-0.2,0.4-0.5,0.7-0.7c0.2-0.2,0.5-0.3,0.7-0.3
				c0.6-0.2,0.9-0.7,1.4-1.1c-1.3,0.5-2.6,1-3.9,1.4c-0.1,0-0.2,0.1-0.3,0.1c-0.1,0-0.1-0.1-0.1-0.1c0-0.1,0.1-0.1,0.1-0.1
				c1.3-0.6,2.7-1.2,4-1.8c-0.4,0-0.8,0.2-1.3,0.3c-0.5,0.1-1.1-0.1-1.6,0.1c-0.3,0.1-0.6,0.2-0.8,0.3c-0.3,0.1-0.5,0.1-0.8-0.1
				c-0.1,0-0.2-0.1-0.1-0.2c0.1,0,0.1,0,0.2,0c0.1,0.1,0.3,0.1,0.5,0c0.2-0.1,0.4-0.2,0.5-0.3c0.3-0.1,0.6-0.2,0.9-0.3
				c0.2,0,0.5,0,0.7,0c0.6-0.1,1-0.3,1.6-0.5c-1.4,0-2.9-0.1-4.3-0.2c-0.1,0-0.2,0-0.2,0c-0.1,0-0.1-0.1,0-0.2c0,0,0.1,0,0.1,0
				c1.5-0.1,2.9-0.1,4.4-0.2C19,22,18.5,22.1,18.1,22c-0.4-0.1-0.7-0.3-1.1-0.4c-0.2-0.1-0.4-0.1-0.6-0.1c-0.2,0-0.5,0-0.7,0
				c-0.2-0.1-0.4-0.2-0.6-0.4c0-0.1,0-0.2,0.1-0.2c0.1,0.1,0.2,0.1,0.3,0.2c0.1,0.1,0.3,0.1,0.4,0.1c0.3,0,0.6-0.1,0.8-0.1
				c0.3,0,0.6,0.1,0.9,0.2c0.2,0.1,0.4,0.2,0.6,0.2c0.5,0.1,0.9,0,1.4,0.1c-1.3-0.6-2.6-1.2-3.9-1.8c-0.1,0-0.1-0.1-0.2-0.1
				c0-0.1,0-0.1,0.1-0.1c0.1,0,0.2,0.1,0.3,0.1c1.3,0.5,2.6,1,3.9,1.5c-0.3-0.3-0.8-0.4-1.2-0.7c-0.2-0.1-0.3-0.3-0.5-0.5
				c-0.2-0.2-0.5-0.5-0.8-0.6c-0.3-0.1-0.6-0.2-0.8-0.4c-0.2-0.1-0.3-0.3-0.4-0.6c0-0.1,0-0.2,0.1-0.2c0.1,0.1,0.1,0.2,0.2,0.3
				c0.2,0.2,0.4,0.2,0.6,0.3c0.3,0.1,0.7,0.2,1,0.5c0.2,0.2,0.4,0.4,0.6,0.6c0.4,0.3,1,0.5,1.4,0.8c-1-1-1.9-2.1-2.9-3.1
				c0-0.1-0.1-0.1-0.1-0.2c0-0.1,0.1-0.1,0.2-0.1c0.1,0,0.2,0.1,0.2,0.2c1,1,2.1,1.9,3.1,2.9c-0.2-0.4-0.5-0.7-0.8-1.1
				c-0.1-0.2-0.2-0.4-0.3-0.7c-0.1-0.3-0.3-0.6-0.5-0.9c-0.2-0.2-0.4-0.3-0.5-0.6c-0.1-0.2-0.2-0.4-0.2-0.7c0-0.1,0.1-0.2,0.2-0.2
				c0.1,0,0.1,0.1,0.1,0.2c0,0.2,0.1,0.4,0.2,0.5c0.3,0.2,0.6,0.4,0.8,0.7c0.2,0.2,0.3,0.5,0.4,0.8c0.2,0.6,0.8,1,1.1,1.5
				c-0.5-1.3-1-2.7-1.5-4c0-0.1,0-0.1,0-0.2c0-0.1,0.1-0.1,0.2-0.1c0.1,0.1,0.1,0.2,0.2,0.2c0.6,1.3,1.2,2.6,1.8,3.9
				c0-0.5-0.2-0.9-0.3-1.3c-0.1-0.5,0.1-1-0.1-1.5c-0.1-0.3-0.2-0.5-0.3-0.8c-0.1-0.3-0.1-0.6,0.1-0.8c0-0.1,0.2-0.1,0.2,0
				c0,0.1-0.1,0.2-0.1,0.3c0,0.1,0,0.3,0.1,0.4c0.1,0.3,0.3,0.5,0.4,0.8c0.1,0.3,0.1,0.6,0.1,0.9c0,0.2,0,0.5,0.1,0.7
				c0.1,0.4,0.3,0.8,0.4,1.3c0-1.4,0.1-2.9,0.2-4.3C22.4,15,22.4,15,22.4,14.9L22.4,14.9z"/>
			<path class="st3" d="M22.4,15c0-0.1,0-0.1,0.1-0.1c0,0,0,0.1,0,0.1c0.1,1.5,0.1,2.9,0.2,4.4c-0.1,0-0.1,0-0.2,0
				c0-0.7,0-1.3-0.1-2c0,0.7-0.1,1.3-0.1,2c0,0-0.1,0-0.2,0C22.3,18,22.4,16.5,22.4,15L22.4,15z"/>
			<path class="st3" d="M21.1,15.1c0,0,0.1-0.1,0.1-0.1c0,0.1-0.1,0.3-0.1,0.4c0,0.2,0.1,0.4,0.2,0.5c0.2,0.3,0.3,0.6,0.4,1
				c0,0.3,0,0.5,0,0.8c0.1,0.6,0.4,1.1,0.5,1.6c-0.1,0-0.1,0-0.2,0c-0.1-0.5-0.4-0.9-0.4-1.4c0-0.2,0-0.3,0-0.5
				c-0.1,0.2,0,0.5,0,0.7c0.1,0.4,0.3,0.9,0.3,1.3c0,0-0.1,0-0.1,0c0-0.5-0.3-0.9-0.3-1.4c0-0.2,0-0.5,0-0.7c0-0.3,0-0.7-0.1-1
				C21.1,16.2,21,16,21,15.8C20.9,15.6,20.9,15.3,21.1,15.1L21.1,15.1z"/>
			<path class="st3" d="M24,15.2c0,0,0.1,0,0.1,0c-0.1,0.1-0.2,0.2-0.2,0.4c-0.1,0.2,0,0.4,0,0.6c0,0.3,0,0.7-0.1,1
				c-0.1,0.3-0.2,0.5-0.3,0.7c-0.2,0.5-0.1,1.1-0.2,1.7c-0.1,0-0.1,0-0.2,0c0.1-0.5,0-1,0.1-1.5c0-0.2,0.1-0.3,0.2-0.5
				c-0.2,0.2-0.2,0.4-0.3,0.6c-0.1,0.4-0.1,0.9-0.2,1.3c0,0-0.1,0-0.1,0c0.1-0.4,0.1-0.7,0.2-1.1c0-0.3,0.1-0.6,0.3-0.8
				c0.2-0.3,0.3-0.6,0.3-1c0-0.3,0-0.6,0-0.9C23.7,15.5,23.8,15.3,24,15.2L24,15.2z"/>
			<path class="st3" d="M19.6,15.5c0.1,0,0.1,0,0.1,0.1c0.6,1.3,1.2,2.7,1.8,4c0,0-0.1,0-0.1,0c-0.3-0.6-0.5-1.2-0.8-1.7
				c0,0.1,0.1,0.3,0.1,0.4c0.2,0.5,0.3,0.9,0.5,1.4c0,0-0.1,0-0.1,0.1c-0.5-1.4-1-2.7-1.5-4.1C19.6,15.6,19.6,15.5,19.6,15.5
				L19.6,15.5z"/>
			<path class="st3" d="M25.4,15.5c0.1,0,0.1,0.1,0.1,0.1c-0.5,1.4-1,2.8-1.5,4.1c0,0-0.1,0-0.1-0.1c0.2-0.5,0.3-0.9,0.5-1.4
				c0-0.1,0.1-0.3,0.1-0.4c-0.3,0.6-0.5,1.2-0.8,1.7c0,0-0.1,0-0.1-0.1c0.5-1.2,1.1-2.4,1.6-3.6C25.2,15.8,25.2,15.7,25.4,15.5
				L25.4,15.5z"/>
			<path class="st3" d="M18.4,16.2c0,0,0-0.1,0.1-0.1c0,0.2,0,0.3,0.1,0.5c0.1,0.1,0.2,0.3,0.3,0.4c0.3,0.2,0.6,0.5,0.8,0.8
				c0.1,0.2,0.2,0.5,0.3,0.7c0.3,0.5,0.8,0.9,1.1,1.3c0,0-0.1,0.1-0.1,0.1c-0.3-0.4-0.7-0.7-1-1.1c-0.1-0.2-0.2-0.3-0.2-0.5
				c0,0.3,0.2,0.5,0.4,0.8c0.2,0.3,0.5,0.6,0.7,1c0,0-0.1,0.1-0.1,0.1c-0.2-0.4-0.6-0.7-0.8-1.1c-0.1-0.2-0.2-0.4-0.3-0.6
				c-0.1-0.3-0.3-0.7-0.5-0.9c-0.2-0.2-0.4-0.3-0.5-0.5C18.4,16.7,18.3,16.5,18.4,16.2L18.4,16.2z"/>
			<path class="st3" d="M26.2,16.7c0.1-0.2,0.3-0.3,0.5-0.4c0.1,0,0.1,0,0.2,0c-0.1,0.1-0.2,0.1-0.3,0.2c-0.2,0.2-0.2,0.4-0.3,0.6
				c-0.1,0.3-0.2,0.7-0.4,0.9c-0.2,0.2-0.4,0.4-0.6,0.6c-0.3,0.4-0.5,1-0.8,1.5c0,0-0.1-0.1-0.1-0.1c0.2-0.4,0.4-0.8,0.6-1.2
				c0.1-0.2,0.3-0.4,0.4-0.5c-0.3,0.1-0.4,0.3-0.6,0.6c-0.2,0.4-0.4,0.7-0.6,1c0,0-0.1,0-0.1-0.1c0.3-0.4,0.5-0.9,0.8-1.3
				c0.1-0.2,0.3-0.3,0.5-0.5c0.2-0.2,0.4-0.4,0.5-0.7C26,17.1,26,16.9,26.2,16.7L26.2,16.7z"/>
			<path class="st3" d="M17.1,17.2c0-0.1,0.1-0.1,0.1,0c1.1,1,2.2,2,3.2,3c0,0-0.1,0.1-0.1,0.1c-0.5-0.4-0.9-0.9-1.4-1.3
				c0.4,0.5,0.9,0.9,1.3,1.4c0,0-0.1,0.1-0.1,0.1c-1-1-1.9-2.1-2.9-3.1C17.3,17.3,17.2,17.3,17.1,17.2L17.1,17.2z"/>
			<path class="st3" d="M27.7,17.2c0,0,0.1-0.1,0.1-0.1C27.9,17.2,27.8,17.2,27.7,17.2c-0.9,1.2-1.9,2.2-2.9,3.3
				c0,0-0.1-0.1-0.1-0.1c0.4-0.5,0.9-0.9,1.3-1.4c-0.5,0.4-0.9,0.9-1.4,1.3c0,0-0.1-0.1-0.1-0.1C25.6,19.2,26.7,18.2,27.7,17.2
				L27.7,17.2z"/>
			<path class="st3" d="M16.3,18.2c0.1,0.1,0.1,0.3,0.2,0.4c0.2,0.2,0.4,0.2,0.6,0.3c0.3,0.1,0.7,0.2,0.9,0.4
				c0.2,0.2,0.4,0.4,0.6,0.6c0.4,0.3,1,0.5,1.5,0.8c0,0-0.1,0.1-0.1,0.1c-0.4-0.3-0.8-0.4-1.2-0.6c-0.2-0.1-0.4-0.3-0.5-0.4
				c0.1,0.3,0.4,0.5,0.7,0.6c0.3,0.2,0.7,0.3,0.9,0.6c0,0,0,0.1-0.1,0.1c-0.4-0.3-0.8-0.5-1.2-0.8c-0.2-0.1-0.4-0.3-0.5-0.5
				c-0.2-0.2-0.5-0.5-0.8-0.6c-0.2-0.1-0.5-0.2-0.7-0.3c-0.2-0.1-0.3-0.3-0.4-0.5C16.3,18.3,16.3,18.2,16.3,18.2L16.3,18.2z"/>
			<path class="st3" d="M28.1,18.5c0.2-0.1,0.4-0.2,0.6-0.1c0,0,0.1,0,0.1,0.1c-0.1,0-0.3,0-0.4,0.1c-0.1,0.1-0.2,0.2-0.3,0.3
				c-0.2,0.2-0.4,0.4-0.6,0.6c-0.2,0.2-0.5,0.3-0.7,0.4c-0.3,0.1-0.6,0.3-0.9,0.5c-0.3,0.2-0.5,0.5-0.8,0.6c0,0-0.1-0.1-0.1-0.1
				c0.4-0.2,0.7-0.6,1-0.9c0.2-0.2,0.4-0.3,0.6-0.3c-0.2,0-0.4,0.1-0.6,0.3c-0.4,0.3-0.7,0.6-1.1,0.8c0,0-0.1-0.1-0.1-0.1
				c0.4-0.2,0.7-0.6,1.1-0.8c0.2-0.1,0.4-0.2,0.6-0.3c0.3-0.1,0.7-0.3,0.9-0.5C27.8,18.9,27.9,18.6,28.1,18.5L28.1,18.5z"/>
			<path class="st3" d="M22.3,19.5c0.6,0,1.2,0.1,1.8,0.4c0.6,0.4,1.1,1,1.3,1.8c0.2,0.7,0.1,1.6-0.3,2.2c-0.3,0.6-0.8,1.1-1.5,1.3
				c-0.7,0.3-1.6,0.3-2.4,0c-0.6-0.3-1.2-0.8-1.5-1.4c-0.4-0.7-0.5-1.4-0.3-2.2c0.2-0.7,0.6-1.3,1.2-1.8
				C21.2,19.7,21.8,19.5,22.3,19.5L22.3,19.5z"/>
			<path class="st3" d="M15.5,19.6c0.1,0,0.2,0,0.2,0c1.3,0.5,2.7,1,4,1.5c0,0,0,0.1-0.1,0.1c-0.5-0.2-1.1-0.4-1.6-0.6
				c-0.1,0-0.1,0-0.2-0.1c0.6,0.3,1.2,0.5,1.7,0.8c0,0,0,0.1-0.1,0.1c-1.3-0.6-2.7-1.2-4-1.8C15.5,19.7,15.5,19.7,15.5,19.6
				L15.5,19.6z"/>
			<path class="st3" d="M29.4,19.6c0,0,0.1,0,0.1,0c0,0.1-0.1,0.1-0.1,0.1c-1.3,0.6-2.6,1.2-4,1.8c0,0,0-0.1,0-0.1
				c0.6-0.3,1.2-0.5,1.7-0.8c-0.1,0-0.3,0.1-0.4,0.1c-0.5,0.2-0.9,0.3-1.4,0.5c0,0,0-0.1-0.1-0.1C26.6,20.6,28,20.1,29.4,19.6
				L29.4,19.6z"/>
			<path class="st3" d="M15.1,20.9c0.1,0.1,0.2,0.2,0.4,0.3c0.2,0.1,0.4,0,0.6,0c0.3,0,0.7,0,1,0.1c0.2,0.1,0.5,0.2,0.7,0.3
				c0.5,0.2,1.1,0.1,1.7,0.2c0,0.1,0,0.1,0,0.2c-0.5-0.1-1,0-1.5-0.1c-0.2,0-0.3-0.1-0.5-0.2c0.2,0.2,0.4,0.2,0.7,0.3
				c0.4,0.1,0.8,0.1,1.2,0.2c0,0.1,0,0.1,0,0.1C19,22,18.5,22,18,21.9c-0.3-0.1-0.7-0.3-1-0.4c-0.3-0.1-0.6-0.1-0.8-0.1
				c-0.3,0-0.6,0-0.9-0.2C15.2,21.1,15.1,21,15.1,20.9L15.1,20.9z"/>
			<path class="st3" d="M28.5,21.2c0.2-0.1,0.5-0.2,0.7-0.3c0.2,0,0.5,0,0.6,0.1c0,0,0.1,0.1,0.1,0.1c-0.2,0-0.3-0.1-0.5-0.1
				c-0.2,0-0.3,0.1-0.5,0.2c-0.3,0.1-0.6,0.3-0.9,0.4c-0.3,0.1-0.5,0-0.8,0c-0.6,0-1.2,0.4-1.8,0.5c0-0.1,0-0.1,0-0.2
				c0.5-0.1,1-0.4,1.4-0.4c0.2,0,0.3,0,0.5,0c-0.2,0-0.5,0-0.7,0c-0.4,0.1-0.9,0.3-1.3,0.3c0-0.1,0-0.1,0-0.1c0.4,0,0.7-0.2,1.1-0.3
				c0.3-0.1,0.6-0.1,0.9-0.1C27.8,21.4,28.2,21.4,28.5,21.2L28.5,21.2z"/>
			<path class="st3" d="M15.2,22.4c1.4-0.1,2.8-0.1,4.3-0.2c0,0,0,0.1,0,0.1c-0.7,0-1.3,0-2,0.1c0.7,0,1.3,0.1,2,0.1
				c0,0,0,0.1,0,0.1c-1.5-0.1-2.9-0.1-4.4-0.2c0,0-0.1,0-0.1-0.1C15,22.4,15.1,22.4,15.2,22.4L15.2,22.4z"/>
			<path class="st3" d="M25.6,22.3c1.4,0.1,2.8,0.1,4.2,0.2c0.1,0,0.2,0,0.2,0c0,0,0.1,0,0,0.1c0,0-0.1,0-0.1,0
				c-1.5,0.1-2.9,0.1-4.4,0.2c0,0,0-0.1,0-0.1c0.6,0,1.3,0,1.9-0.1c-0.6,0-1.3-0.1-1.9-0.1C25.6,22.4,25.6,22.3,25.6,22.3L25.6,22.3
				z"/>
			<path class="st3" d="M17.7,23.3c0.6,0,1.2-0.4,1.8-0.5c0,0.1,0,0.1,0,0.2c-0.5,0.1-1,0.4-1.5,0.5c-0.1,0-0.3,0-0.4,0
				c0.2,0.1,0.5,0,0.7,0c0.4-0.1,0.8-0.3,1.3-0.3c0,0,0,0.1,0,0.1c-0.5,0-0.9,0.3-1.4,0.3c-0.2,0-0.5,0-0.7,0c-0.4,0-0.7,0-1,0.1
				C16.2,23.9,16,24,15.7,24c-0.2,0-0.4,0-0.6-0.1c0,0,0-0.1-0.1-0.1c0.2,0,0.3,0.1,0.5,0.1c0.2,0,0.3-0.1,0.5-0.2
				c0.3-0.1,0.6-0.3,0.9-0.3C17.1,23.3,17.4,23.3,17.7,23.3L17.7,23.3z"/>
			<path class="st3" d="M25.5,23c0,0,0-0.1,0-0.1c0.4,0.1,0.8,0.1,1.2,0.2c0.2,0,0.5,0.1,0.7,0.2c0.3,0.2,0.7,0.3,1,0.3
				c0.3,0,0.6,0,0.8,0c0.2,0.1,0.4,0.1,0.5,0.3c0,0,0,0.1,0,0.1c-0.1-0.1-0.2-0.2-0.4-0.2c-0.1-0.1-0.3,0-0.4,0
				c-0.3,0-0.6,0.1-0.9,0c-0.3,0-0.5-0.1-0.8-0.2c-0.3-0.1-0.5-0.2-0.8-0.2c-0.4,0-0.8,0-1.2-0.1c0-0.1,0-0.1,0-0.2
				c0.4,0.1,0.9,0.1,1.3,0.1c0.2,0,0.4,0.1,0.6,0.2c-0.2-0.2-0.4-0.2-0.6-0.3C26.4,23.2,25.9,23.2,25.5,23L25.5,23z"/>
			<path class="st3" d="M19.2,23.7c0.1-0.1,0.3-0.1,0.4-0.2c0,0,0,0.1,0.1,0.1c-0.6,0.3-1.2,0.5-1.7,0.8c0.1,0,0.3-0.1,0.4-0.1
				c0.5-0.2,0.9-0.4,1.4-0.5c0,0,0,0.1,0.1,0.1c-1.3,0.5-2.7,1-4,1.5c-0.1,0-0.2,0.1-0.2,0c0-0.1,0.1-0.1,0.1-0.1
				C16.8,24.8,18,24.2,19.2,23.7L19.2,23.7z"/>
			<path class="st3" d="M25.4,23.6c0,0,0-0.1,0.1-0.1c1.3,0.6,2.7,1.2,4,1.8c0,0,0.1,0.1,0.1,0.1c0,0-0.1,0-0.1,0
				c-1.4-0.5-2.7-1-4.1-1.5c0,0,0-0.2,0.1-0.1c0.5,0.2,1.1,0.4,1.6,0.6c0,0,0.1,0,0.2,0C26.5,24.1,25.9,23.9,25.4,23.6L25.4,23.6z"
				/>
			<path class="st3" d="M18.5,25c0.5-0.3,0.8-0.7,1.3-1c0,0,0,0.1,0.1,0.1c-0.4,0.3-0.7,0.7-1.1,1c-0.2,0.1-0.3,0.2-0.5,0.2
				c0.3,0,0.5-0.1,0.7-0.3c0.3-0.3,0.6-0.5,1-0.7c0,0,0.1,0.1,0.1,0.1c-0.4,0.2-0.7,0.6-1.1,0.8c-0.2,0.1-0.4,0.2-0.6,0.3
				c-0.3,0.1-0.7,0.3-0.9,0.5c-0.2,0.2-0.3,0.4-0.5,0.5c-0.2,0.1-0.4,0.2-0.6,0.1c0,0-0.1,0-0.1-0.1c0.2,0,0.3,0,0.5-0.1
				c0.1-0.1,0.3-0.2,0.4-0.3c0.2-0.3,0.5-0.6,0.8-0.7C18,25.2,18.3,25.2,18.5,25L18.5,25z"/>
			<path class="st3" d="M25.1,24.1c0,0,0-0.1,0.1-0.1c0.4,0.3,0.9,0.5,1.3,0.8c0.2,0.2,0.4,0.4,0.6,0.7c0.2,0.2,0.4,0.3,0.6,0.4
				c0.2,0.1,0.5,0.1,0.7,0.3c0.2,0.1,0.3,0.3,0.4,0.5c0,0.1,0,0.1,0,0.2c-0.1-0.1-0.1-0.2-0.2-0.3c-0.1-0.1-0.3-0.2-0.4-0.2
				c-0.3-0.1-0.6-0.2-0.9-0.3c-0.2-0.1-0.4-0.3-0.5-0.5c-0.2-0.2-0.4-0.3-0.6-0.5c-0.4-0.2-0.8-0.3-1.1-0.6c0,0,0.1-0.1,0.1-0.1
				c0.4,0.3,0.8,0.4,1.2,0.6c0.2,0.1,0.4,0.3,0.5,0.4c-0.1-0.2-0.3-0.4-0.5-0.5C25.8,24.6,25.4,24.4,25.1,24.1L25.1,24.1z"/>
			<path class="st3" d="M17.2,27.7c1-1.1,2-2.2,3-3.2c0,0,0.1,0.1,0.1,0.1c-0.3,0.4-0.7,0.7-1,1.1c-0.1,0.1-0.2,0.2-0.2,0.3
				c0.1-0.1,0.2-0.2,0.3-0.2c0.4-0.3,0.7-0.7,1.1-1c0,0,0.1,0.1,0.1,0.1c-1,1-2.1,1.9-3.1,2.9c-0.1,0.1-0.1,0.1-0.2,0.2
				C17.1,27.9,17.1,27.8,17.2,27.7L17.2,27.7z"/>
			<path class="st3" d="M24.7,24.6c0,0,0.1-0.1,0.1-0.1c1,1.1,2,2.1,3,3.2c0,0,0.1,0.1,0.1,0.1c-0.1,0-0.1,0-0.1-0.1
				c-1.1-1-2.1-2-3.2-3c0,0,0.1-0.1,0.1-0.1c0.4,0.3,0.7,0.7,1.1,1c0.1,0.1,0.1,0.1,0.2,0.2C25.6,25.5,25.1,25.1,24.7,24.6
				L24.7,24.6z"/>
			<path class="st3" d="M19.8,26.4c0.3-0.4,0.5-1,0.8-1.5c0,0,0.1,0.1,0.1,0.1c-0.3,0.4-0.4,0.8-0.6,1.2c-0.1,0.2-0.3,0.4-0.4,0.5
				c0.2-0.1,0.4-0.3,0.5-0.5c0.2-0.4,0.4-0.8,0.7-1.1c0,0,0.1,0,0.1,0.1c-0.3,0.4-0.5,0.9-0.8,1.3c-0.2,0.2-0.4,0.4-0.6,0.6
				c-0.2,0.2-0.3,0.4-0.4,0.6c-0.1,0.2-0.2,0.5-0.3,0.7c-0.1,0.2-0.3,0.3-0.5,0.4c-0.1,0-0.1,0-0.2,0c0.1-0.1,0.2-0.1,0.3-0.2
				c0.2-0.2,0.2-0.4,0.3-0.6c0.1-0.3,0.2-0.7,0.5-0.9C19.4,26.7,19.6,26.6,19.8,26.4L19.8,26.4z"/>
			<path class="st3" d="M24.3,25c0,0,0.1-0.1,0.1-0.1c0.2,0.3,0.4,0.6,0.7,0.9c0.2,0.2,0.3,0.5,0.4,0.7c0.1,0.3,0.2,0.6,0.4,0.9
				c0.1,0.2,0.3,0.3,0.4,0.4c0.2,0.2,0.3,0.4,0.4,0.7c0,0.1,0,0.3-0.1,0.3c0-0.2,0-0.3-0.1-0.5c-0.1-0.2-0.3-0.3-0.4-0.4
				c-0.3-0.2-0.5-0.5-0.7-0.8c-0.1-0.2-0.2-0.5-0.3-0.7c-0.3-0.5-0.7-0.8-1-1.3c0,0,0.1-0.1,0.1-0.1c0.2,0.4,0.6,0.7,0.9,1
				c0.1,0.2,0.3,0.4,0.3,0.6c0-0.4-0.3-0.7-0.6-1C24.6,25.5,24.4,25.3,24.3,25L24.3,25z"/>
			<path class="st3" d="M20.5,26.9c0.2-0.5,0.4-1.1,0.6-1.7c0,0,0.1,0,0.1,0.1c-0.2,0.5-0.4,1.1-0.6,1.6c0,0.1,0,0.1,0,0.2
				c0.3-0.6,0.5-1.2,0.8-1.7c0,0,0.1,0,0.1,0c-0.6,1.3-1.2,2.7-1.8,4c0,0.1-0.1,0.1-0.1,0.1c0,0,0-0.1,0-0.1
				C19.9,28.5,20.2,27.7,20.5,26.9L20.5,26.9z"/>
			<path class="st3" d="M23.7,25.3c0,0,0.1,0,0.1-0.1c0.5,1.3,1,2.7,1.5,4c0,0.1,0.1,0.2,0,0.2c-0.1,0-0.1,0-0.1-0.1
				c-0.6-1.2-1.1-2.5-1.7-3.7c0-0.1-0.1-0.2-0.1-0.3c0,0,0.1,0,0.1-0.1c0.3,0.6,0.5,1.2,0.8,1.7c0-0.1-0.1-0.3-0.1-0.4
				C24.1,26.2,23.9,25.8,23.7,25.3L23.7,25.3z"/>
			<path class="st3" d="M21.7,25.5c0.1,0,0.1,0,0.2,0c-0.1,0.4-0.1,0.9-0.1,1.3c0,0.2-0.1,0.4-0.2,0.6c0.1-0.2,0.2-0.4,0.2-0.6
				c0.1-0.4,0.1-0.9,0.2-1.3c0,0,0.1,0,0.1,0C22,26,22,26.5,21.9,27c-0.1,0.3-0.3,0.6-0.4,1c-0.1,0.3-0.1,0.6-0.1,0.8
				c0,0.3,0,0.6-0.2,0.8c-0.1,0.1-0.2,0.2-0.3,0.2c0.1-0.1,0.2-0.2,0.2-0.4c0.1-0.1,0.1-0.3,0-0.4c0-0.3-0.1-0.6,0-0.9
				c0-0.3,0.1-0.5,0.2-0.8c0.1-0.2,0.2-0.5,0.2-0.8C21.6,26.3,21.6,25.9,21.7,25.5L21.7,25.5z"/>
			<path class="st3" d="M23.2,25.5c0,0,0.1,0,0.1,0c0,0.4,0.2,0.7,0.3,1c0.1,0.3,0.1,0.6,0.1,0.9c0,0.3,0,0.7,0.1,1
				c0.1,0.3,0.3,0.5,0.3,0.8c0,0.2,0,0.4-0.1,0.6c0,0-0.1,0-0.1,0.1c0-0.2,0.1-0.4,0.1-0.6c-0.1-0.2-0.2-0.4-0.3-0.6
				c-0.1-0.3-0.2-0.5-0.2-0.8c0-0.2,0-0.5,0-0.7c-0.1-0.6-0.4-1.1-0.5-1.6c0.1,0,0.1,0,0.2,0c0.1,0.5,0.4,0.9,0.4,1.4
				c0,0.2,0,0.3,0,0.5c0.1-0.2,0-0.5,0-0.7C23.4,26.3,23.2,25.9,23.2,25.5L23.2,25.5z"/>
			<path class="st3" d="M22.3,25.6c0,0,0.1,0,0.2,0c0,0.7,0,1.3,0.1,2c0-0.7,0.1-1.3,0.1-2c0,0,0.1,0,0.2,0
				c-0.1,1.4-0.1,2.8-0.2,4.3c0,0.1,0,0.2,0,0.2c0,0,0,0-0.1,0c0-0.1,0-0.2,0-0.2C22.4,28.4,22.3,27,22.3,25.6L22.3,25.6z"/>
			<path class="st2" d="M22.1,22c-0.1,0-0.4,0.2-0.6,0.2c-0.1,0-0.6-0.1-0.6-0.1C21.6,22.7,22.1,22,22.1,22z M21.7,22.1
				c0.1,0,0.1,0,0.3-0.1c0,0-0.1-0.1-0.2-0.2c-0.2-0.1-0.4-0.1-0.5-0.1c-0.1,0-0.4,0.1-0.4,0.3c0,0,0.4,0.2,0.6,0.2
				C21.4,22.2,21.6,22.2,21.7,22.1z M21.6,21.8c0.1,0,0.3,0.2,0.3,0.2s-0.2,0.1-0.3,0.1C21.6,22.1,21.6,21.9,21.6,21.8z M20.9,21.9
				c0-0.1,0.2-0.2,0.3-0.2h0c0,0.1,0,0.3,0,0.4C21.2,22.1,20.9,21.9,20.9,21.9z M22.1,21.9C22.1,21.9,22.1,21.9,22.1,21.9
				C22.1,21.9,22.1,21.9,22.1,21.9z M21.7,21.2c0.2,0,0.6,0.1,0.7,0.6c0.1,0.5-0.2,1-0.2,1l0.1,0c0.2-0.4,0.3-1.2,0.1-1.5
				c-0.3-0.2-0.6-0.3-0.7-0.3c-0.1,0-0.3,0-0.5,0.1c-0.2,0.1-0.6,0.5-0.6,0.5C20.8,21.3,21.5,21.2,21.7,21.2z M22.5,23.8
				C22.5,23.8,22.5,23.8,22.5,23.8L22.5,23.8c0,0-0.5,0-0.6,0c0.2,0.1,0.6,0.1,0.6,0.1c0,0,0,0,0,0l0,0c0,0,0.4,0,0.6-0.1
				C23.1,23.8,22.5,23.8,22.5,23.8L22.5,23.8L22.5,23.8z M22.2,23c-0.1,0-0.3,0.3-0.3-0.2c0,0-0.1,0.2,0,0.3c0,0,0,0.1,0.1,0.1
				c0.1,0,0.2-0.1,0.3,0c0.1,0,0.2,0,0.3,0l0,0c0,0,0,0,0,0l0,0l0,0c0,0,0.2,0,0.3,0c0.1,0,0.2,0,0.3,0c0.1,0,0.1,0,0.1-0.1
				c0.1-0.1-0.1-0.3-0.1-0.3c0,0.5-0.3,0.2-0.3,0.2c-0.1,0.2-0.3,0.2-0.3,0.2l0,0c0,0,0,0,0,0C22.5,23.2,22.3,23.2,22.2,23z
				 M21.7,21.6c0,0,0.1,0.1,0.2,0.1c0.1,0.1,0.2,0.1,0.2,0.1c0,0,0.1,0,0.1,0s-0.2-0.1-0.3-0.2c-0.1-0.1-0.3-0.2-0.5-0.2
				c-0.1,0-0.4,0.1-0.6,0.1c-0.1,0.1-0.3,0.3-0.3,0.3s0.5-0.3,0.7-0.3C21.5,21.6,21.7,21.6,21.7,21.6z M22.9,22.8c0,0-0.4-0.5-0.2-1
				c0.1-0.5,0.5-0.6,0.7-0.6c0.2,0,0.8,0.1,1.2,0.4c0,0-0.3-0.4-0.6-0.5c-0.2-0.1-0.4-0.1-0.5-0.1c-0.1,0-0.4,0.1-0.7,0.3
				c-0.3,0.2-0.2,1.1,0.1,1.5L22.9,22.8z M23.8,21.7c-0.1,0-0.4-0.1-0.5,0.1C23.1,21.9,23,22,23,22c0.2,0.1,0.2,0.1,0.3,0.1
				c0.1,0,0.3,0,0.3,0c0.2,0,0.6-0.2,0.6-0.2C24.1,21.8,23.9,21.7,23.8,21.7z M23.1,22c0,0,0.2-0.2,0.3-0.2c0,0.1,0,0.3,0,0.4
				C23.4,22.1,23.1,22,23.1,22z M23.8,22.1c0.1,0,0-0.3,0-0.4h0c0.1,0,0.2,0.1,0.3,0.2C24.1,21.9,23.8,22.1,23.8,22.1z M22.8,23.5
				c-0.2,0-0.1,0-0.3,0c-0.2,0-0.2-0.1-0.3,0c-0.2,0-0.4,0.3-0.4,0.3s0.4-0.2,0.4-0.2c0,0,0.3,0,0.3,0l0,0c0,0,0,0,0,0l0,0l0,0
				C22.5,23.7,22.8,23.6,22.8,23.5c0,0.1,0.4,0.3,0.4,0.3S23,23.6,22.8,23.5z M23.5,22.2c-0.3,0-0.5-0.2-0.6-0.2
				c0,0,0.5,0.6,1.3,0.1C24.2,22.1,23.7,22.3,23.5,22.2z M23.2,23.9c-0.2,0-0.3,0.1-0.4,0.2c-0.2,0.1-0.3,0.1-0.3,0.1v0v0
				c0,0,0,0,0,0v0c0,0-0.1,0-0.3-0.1c-0.1-0.1-0.2-0.2-0.4-0.2c0.2,0.1,0.3,0.2,0.4,0.3c0.1,0,0.2,0.1,0.3,0.1
				c-0.1,0-0.2,0.1-0.3,0.1c-0.1,0.1-0.1,0.3-0.1,0.3s0.1-0.2,0.2-0.2c0.1-0.1,0.2-0.1,0.2-0.1l0,0c0,0,0,0,0,0l0,0l0,0
				c0,0,0.2,0,0.2,0.1c0.1,0.1,0.2,0.2,0.2,0.2s0-0.2-0.1-0.3c-0.1,0-0.2-0.1-0.3-0.1c0.1,0,0.2,0,0.3-0.1
				C22.9,24.1,23,24,23.2,23.9z M24.1,21.6c-0.1-0.1-0.4-0.1-0.6-0.1s-0.3,0.1-0.5,0.2c-0.1,0.1-0.3,0.2-0.3,0.2s0.1,0,0.1,0
				c0,0,0.2-0.1,0.2-0.1c0.1-0.1,0.2-0.1,0.2-0.1s0.1-0.1,0.4,0c0.2,0,0.7,0.3,0.7,0.3S24.2,21.7,24.1,21.6z M22.9,21.9
				C22.9,21.9,22.9,21.9,22.9,21.9C22.9,21.9,22.9,21.9,22.9,21.9z"/>
		</g>
	</g>
</g>
</svg>
