<?xml version="1.0" encoding="utf-8"?>
<!-- Generator: Adobe Illustrator 22.1.0, SVG Export Plug-In . SVG Version: 6.00 Build 0)  -->
<svg version="1.1" id="Layer_1" xmlns="http://www.w3.org/2000/svg" xmlns:xlink="http://www.w3.org/1999/xlink" x="0px" y="0px"
	 viewBox="0 0 45 45" style="enable-background:new 0 0 45 45;" xml:space="preserve">
<style type="text/css">
	.st0{fill:#004990;}
	.st1{fill:#EF3E42;}
	.st2{fill:#FFFFFF;}
</style>
<g>
	<g>
		<path class="st0" d="M45,30.9V14.1c0-5.6,0-8.4-2.8-11.3S36.6,0,30.9,0H14.1C8.4,0,5.6,0,2.8,2.8S0,8.4,0,14.1v16.9
			c0,5.6,0,8.4,2.8,11.3S8.4,45,14.1,45h16.9c5.6,0,8.4,0,11.3-2.8S45,36.6,45,30.9z"/>
		<path class="st0" d="M1,5.4C0.6,6.2,0.4,7,0.3,7.9h4.4L1,5.4z"/>
		<polygon class="st0" points="0,14.6 0,17.8 4.7,14.6 		"/>
		<polygon class="st0" points="0.7,22.5 10.3,22.5 10.3,16.1 		"/>
		<polygon class="st0" points="30.5,19.9 30.5,14.6 22.6,14.6 		"/>
		<path class="st0" d="M10.3,0C7.5,0.2,5.5,0.6,3.7,2l6.6,4.4V0z"/>
		<polygon class="st0" points="26.6,0 17,0 17,6.4 		"/>
		<polygon class="st0" points="17,22.5 26.6,22.5 17,16.1 		"/>
		<polygon class="st0" points="30.5,7.9 30.5,2.6 22.6,7.9 		"/>
		<path class="st1" d="M14.1,0h-2.4v0C12.4,0,13.2,0,14.1,0z"/>
		<polygon class="st1" points="18.8,14.6 30.5,22.4 30.5,20.7 21.4,14.6 		"/>
		<polygon class="st1" points="27.8,0 17,7.2 17,7.9 18.7,7.9 30.5,0 30.5,0 		"/>
		<polygon class="st1" points="8.5,14.6 0,20.3 0,22.1 10.3,15.2 10.3,14.6 		"/>
		<path class="st1" d="M2.1,3.6C1.8,4,1.5,4.4,1.3,4.8l4.6,3.1h2.7L2.1,3.6z"/>
		<polygon class="st2" points="13.6,28.6 14.7,31.8 17.8,30.6 15.9,33.4 18.8,35.1 15.5,35.4 15.9,38.7 13.6,36.3 11.3,38.7 
			11.8,35.4 8.4,35.1 11.3,33.4 9.5,30.6 12.6,31.8 		"/>
		<polygon class="st2" points="39,17.2 39.5,18.7 41,18.2 40.1,19.5 41.5,20.4 39.9,20.5 40.1,22.1 39,20.9 37.8,22.1 38,20.5 
			36.4,20.4 37.8,19.5 36.9,18.2 38.4,18.7 		"/>
		<path class="st1" d="M15.6,9.3V0v0h-1.5c-0.9,0-1.7,0-2.4,0v9.3H1H0.1C0,10.4,0,11.7,0,13.2h11.7v9.3h3.9v-9.3h14.9v0V9.3H15.6z"
			/>
		<g>
			<path class="st2" d="M0,13.2c0,0.3,0,0.6,0,0.8v0.6h3.7h1L0,17.8v2.5l8.5-5.7h1.8v0.6L0,22.1v0.4h0.7l9.6-6.4v1.1v5.3h1.4v-7.3
				v-1.9H6.8H0z"/>
			<path class="st2" d="M10.3,6.4L3.7,2C3.4,2.3,3.1,2.5,2.8,2.8C2.6,3.1,2.3,3.3,2.1,3.6l6.5,4.3H5.9L1.3,4.8C1.2,5,1.1,5.2,1,5.4
				l3.7,2.5H0.3C0.2,8.3,0.1,8.8,0.1,9.3h6.7h4.9V7.4V0c-0.5,0-1,0-1.4,0V6.4z"/>
			<polygon class="st2" points="30.5,14.6 30.5,13.2 20.5,13.2 15.6,13.2 15.6,15.2 15.6,22.5 17,22.5 17,16.1 26.6,22.5 30.5,22.5 
				30.5,22.4 18.8,14.6 21.4,14.6 30.5,20.7 30.5,19.9 22.6,14.6 24.8,14.6 			"/>
			<polygon class="st2" points="20.5,9.3 30.5,9.3 30.5,7.9 23.7,7.9 23.8,7.9 22.6,7.9 30.5,2.6 30.5,0 18.7,7.9 18.7,7.9 17,7.9 
				17,7.2 27.8,0 26.6,0 17,6.4 17,6.1 17,0 15.6,0 15.6,7.4 15.6,9.3 20.5,9.3 			"/>
		</g>
	</g>
</g>
</svg>
