<?xml version="1.0" encoding="utf-8"?>
<!-- Generator: Adobe Illustrator 22.1.0, SVG Export Plug-In . SVG Version: 6.00 Build 0)  -->
<svg version="1.1" id="Layer_1" xmlns="http://www.w3.org/2000/svg" xmlns:xlink="http://www.w3.org/1999/xlink" x="0px" y="0px"
	 viewBox="0 0 45 45" style="enable-background:new 0 0 45 45;" xml:space="preserve">
<style type="text/css">
	.st0{fill:#FFFFFF;}
	.st1{fill:#CE1126;}
</style>
<g>
	<g>
		<path class="st0" d="M0,14.1v16.9c0,5.6,0,8.4,2.8,11.3c2.4,2.4,4.8,2.7,8.9,2.8L22,40.5L11.7,36L22,31.5L11.7,27L22,22.5L11.7,18
			L22,13.5L11.7,9L22,4.5L11.7,0C7.6,0.1,5.2,0.4,2.8,2.8C0,5.6,0,8.4,0,14.1z"/>
		<path class="st1" d="M45,30.9V14.1c0-5.6,0-8.4-2.8-11.3S36.6,0,30.9,0H14.1c-0.9,0-1.6,0-2.4,0L22,4.5L11.7,9L22,13.5L11.7,18
			L22,22.5L11.7,27L22,31.5L11.7,36L22,40.5L11.7,45c0.7,0,1.5,0,2.4,0h16.9c5.6,0,8.4,0,11.3-2.8S45,36.6,45,30.9z"/>
	</g>
</g>
</svg>
