<?xml version="1.0" encoding="utf-8"?>
<!-- Generator: Adobe Illustrator 22.1.0, SVG Export Plug-In . SVG Version: 6.00 Build 0)  -->
<svg version="1.1" id="Layer_1" xmlns="http://www.w3.org/2000/svg" xmlns:xlink="http://www.w3.org/1999/xlink" x="0px" y="0px"
	 viewBox="0 0 45 45" style="enable-background:new 0 0 45 45;" xml:space="preserve">
<style type="text/css">
	.st0{fill:#00267F;}
	.st1{fill:#FFC726;}
</style>
<g>
	<g>
		<g>
			<path class="st0" d="M2.8,2.8C0,5.6,0,8.4,0,14.1v16.9c0,5.6,0,8.4,2.8,11.3S8.4,45,14.1,45V0C8.4,0,5.6,0,2.8,2.8z"/>
			<path class="st0" d="M42.2,42.2C45,39.4,45,36.6,45,30.9V14.1c0-5.6,0-8.4-2.8-11.3S36.6,0,30.9,0l0,0v45
				C36.6,45,39.4,45,42.2,42.2z"/>
			<rect x="14.1" class="st1" width="16.9" height="45"/>
		</g>
		<path d="M21.6,31.2v-4.9l-3.2,0.4c0,0-1.4-7.6-3.4-10.4c-0.1-0.1,0-0.2,0.1-0.2c1.4,0.3,2.9,1,3.9,2c0.1,0.1-0.6-0.2-0.7-0.2
			c-0.6-0.1,1.5,6.9,1.5,6.9l1.9-0.3V18c-0.4,0-1.1,0.1-1.5,0.2c1.3-1.3,2.4-4.5,2.4-4.5s1.2,3.2,2.4,4.5c-0.4-0.1-1.1-0.2-1.5-0.2
			v6.6l1.9,0.3c0,0,2.1-7,1.5-6.9c-0.1,0-0.8,0.3-0.7,0.2c1-1,2.5-1.7,3.9-2c0.1,0,0.2,0,0.1,0.2c-2,2.8-3.4,10.4-3.4,10.4l-3.2-0.4
			v4.9H21.6z"/>
	</g>
</g>
</svg>
