<?xml version="1.0" encoding="utf-8"?>
<!-- Generator: Adobe Illustrator 22.1.0, SVG Export Plug-In . SVG Version: 6.00 Build 0)  -->
<svg version="1.1" id="Layer_1" xmlns="http://www.w3.org/2000/svg" xmlns:xlink="http://www.w3.org/1999/xlink" x="0px" y="0px"
	 viewBox="0 0 45 45" style="enable-background:new 0 0 45 45;" xml:space="preserve">
<style type="text/css">
	.st0{fill:#FCD116;}
	.st1{fill:#008751;}
	.st2{fill:#E8112D;}
</style>
<g>
	<g>
		<path class="st0" d="M42.2,2.8C39.4,0,36.6,0,30.9,0h-8.4v22.5H45v-8.4C45,8.4,45,5.6,42.2,2.8z"/>
		<path class="st1" d="M14.1,0C8.4,0,5.6,0,2.8,2.8C0,5.6,0,8.4,0,14.1v8.4v8.4c0,5.6,0,8.4,2.8,11.3C5.6,45,8.4,45,14.1,45h8.4
			V22.5V0H14.1z"/>
		<path class="st2" d="M22.5,45h8.4c5.6,0,8.4,0,11.3-2.8C45,39.4,45,36.6,45,30.9v-8.4H22.5V45z"/>
	</g>
</g>
</svg>
