<?xml version="1.0" encoding="utf-8"?>
<!-- Generator: Adobe Illustrator 22.1.0, SVG Export Plug-In . SVG Version: 6.00 Build 0)  -->
<svg version="1.1" id="Layer_1" xmlns="http://www.w3.org/2000/svg" xmlns:xlink="http://www.w3.org/1999/xlink" x="0px" y="0px"
	 viewBox="0 0 45.4 45.4" style="enable-background:new 0 0 45.4 45.4;" xml:space="preserve">
<style type="text/css">
	.st0{fill:#01247D;}
	.st1{fill:#FFFFFF;}
	.st2{fill:#CF142B;}
	.st3{fill:#E2B117;}
</style>
<g>
	<path class="st0" d="M42.6,3.2C39.8,0.4,37,0.4,31.3,0.4H20v0.5v0.8v1.9v2.8v0.3v1.5v4.1v1.5v0.3v0.8v1.9v2.8V20h-6.4h-1.5H8H6.5
		H0.4v11.3c0,5.6,0,8.4,2.8,11.3c2.8,2.8,5.6,2.8,11.3,2.8h16.9c5.6,0,8.4,0,11.3-2.8c2.8-2.8,2.8-5.6,2.8-11.3V14.4
		C45.4,8.8,45.4,6,42.6,3.2z"/>
	<path class="st0" d="M6.5,1C5.4,1.4,4.4,2,3.4,3l3.2,2.1V1z"/>
	<path class="st0" d="M0.4,13.7c0,0.1,0,0.1,0,0.2l0.3-0.2H0.4z"/>
	<polygon class="st0" points="20,6.6 20,6.3 19.5,6.6 	"/>
	<polygon class="st0" points="6.5,15.3 0.4,19.4 0.4,20 6.5,20 	"/>
	<path class="st0" d="M13.6,0.4v4.7L20,0.9V0.4h-5.5C14.2,0.4,13.9,0.4,13.6,0.4z"/>
	<polygon class="st0" points="13.6,20 20,20 20,19.5 13.6,15.3 	"/>
	<polygon class="st0" points="20,14.1 20,13.7 19.5,13.7 	"/>
	<path class="st1" d="M0.4,12.3H0v1.5h0.4C0.4,13.2,0.4,12.7,0.4,12.3z"/>
	<polygon class="st1" points="0.4,18.5 0,18.7 0,19.7 0.4,19.4 	"/>
	<path class="st1" d="M8,12.3H2.9H0.4c0,0.5,0,1,0,1.5h0.3l-0.3,0.2c0,0.2,0,0.3,0,0.5v2.2l4.3-2.9h1.8v0.6l-6.1,4.1v0.9l6.1-4.1V20
		H8v-5.7V12.3z"/>
	<polygon class="st2" points="15.5,13.7 20,16.7 20,14.9 18.3,13.7 	"/>
	<polygon class="st2" points="13.6,6.6 15.4,6.6 20,3.6 20,1.7 13.6,5.9 	"/>
	<polygon class="st2" points="6.5,13.7 4.7,13.7 0.4,16.6 0.4,18.5 6.5,14.4 	"/>
	<path class="st2" d="M4.8,6.6L1.9,4.7C1.6,5.2,1.4,5.7,1.2,6.1L2,6.6H4.8z"/>
	<path class="st2" d="M12.2,8.1v-2V0.4c-1.6,0-3,0.1-4.1,0.3v5.4v2H2.9H0.7c-0.2,1.2-0.3,2.5-0.3,4.1h2.5H8v2V20h4.1v-5.7v-1v-1h5.1
		H20V8.1h-2.7H12.2z"/>
	<path class="st1" d="M8,0.7V0H6.5v1C7,0.9,7.5,0.8,8,0.7z"/>
	<path class="st1" d="M8,8.1v-2V0.7C7.5,0.8,7,0.9,6.5,1v4.1L3.4,3C3.3,3.1,3.3,3.1,3.2,3.2c-0.5,0.5-0.9,1-1.3,1.6l2.8,1.9H2
		L1.2,6.1C1,6.8,0.8,7.4,0.7,8.1h2.2H8z"/>
	<path class="st1" d="M13.6,0.4V0h-1.5v0.4C12.6,0.4,13.1,0.4,13.6,0.4z"/>
	<path class="st1" d="M13.6,0.4c-0.5,0-1,0-1.5,0v5.7v2h5.1H20V6.6h-0.5L20,6.3V3.6l-4.6,3.1h-1.8V5.9L20,1.7V0.9l-6.4,4.2V0.4z"/>
	<polygon class="st1" points="12.2,12.3 12.2,13.3 12.2,14.3 12.2,20 13.6,20 13.6,15.3 20,19.5 20,16.7 15.5,13.7 18.3,13.7 
		20,14.9 20,14.1 19.5,13.7 20,13.7 20,12.3 17.3,12.3 	"/>
</g>
<g>
	<g>
		<path class="st3" d="M1,63c666.7,0,1333.3,0,2000,0c0,333.3,0,666.7,0,1000c-666.7,0-1333.3,0-2000,0C1,729.7,1,396.3,1,63z
			 M1704.2,493.5c0-58.7,0-117.3,0-176c0-7.7,0-7.8-7.7-7.7c-50.8,0.3-101.6,0.7-152.4,1c-77.8,0.4-155.6,0.7-233.4,1
			c-0.8,0-1.7,0.1-2.5,0c-3.2-0.2-4.4,1.5-4.4,4.6c-0.2,10-0.7,20-0.8,30c-0.4,75-0.7,149.9-1,224.9c-0.1,30.8,0,61.7-0.3,92.5
			c-0.1,15.1,4.7,28.4,13.6,40.4c12,16.2,27.6,28.4,44,39.6c44.6,30.4,93,54,140.7,78.9c1.7,0.9,4.7,0.8,6.4-0.2
			c34.4-18,69-35.7,102.8-54.7c27.9-15.7,54.7-33.3,76.3-57.4c11.8-13.2,19.1-27.9,18.9-46.4
			C1703.9,607.1,1704.2,550.3,1704.2,493.5z M1768.3,784.6c0-6.5-0.4-12.6-6-15.6c-11.2-6-19.3-15.1-27.3-24.5
			c-5.7-6.7-11.7-13.2-18-19.3c-5-4.8-11.2-4.6-16.6-0.8c-5,3.5-10.2,7.4-13.6,12.3c-7.2,10.3-16.1,18.5-25.7,26.4
			c-44.2,36.4-94.4,58.2-151.7,62.6c-32.1,2.4-62.6-3.8-91.7-17.5c-39.9-18.9-73.6-45.8-104.1-77.3c-4.1-4.3-10.5-6.8-16.2-9
			c-4.4-1.6-8.1,0.7-10.6,5.2c-2.4,4.3-5.2,8.7-8.7,12c-11.1,10.6-22.7,20.5-33.8,31.1c-8.2,7.8-9.3,18.8-2,27.5
			c4.8,5.8,10.9,10.7,17,15.1c6,4.3,10.2,3.3,15.7-1.8c2.7-2.5,5.2-5.2,7.8-7.7c5.2-5.2,5.3-5.3,11-0.4c26.9,23,56.2,42.2,88.1,57.4
			c44.9,21.5,91.9,32.8,142.1,29.3c22.5-1.6,44.2-6.1,65.3-13.6c47.3-16.7,88.8-43.1,126.2-76.3c3.5-3.1,6.1-2.7,8.2,1.6
			c1,1.9,1.1,4.4,2.4,6c1.9,2.3,4.3,5.4,6.8,5.8C1752,815.6,1768.9,801.2,1768.3,784.6z"/>
		<path class="st3" d="M1704.2,493.5c0,56.8-0.3,113.7,0.2,170.5c0.2,18.5-7.1,33.2-18.9,46.4c-21.7,24.1-48.4,41.7-76.3,57.4
			c-33.8,19-68.4,36.6-102.8,54.7c-1.7,0.9-4.7,1-6.4,0.2c-47.7-24.9-96.1-48.6-140.7-78.9c-16.4-11.2-32-23.4-44-39.6
			c-8.9-12-13.7-25.3-13.6-40.4c0.3-30.8,0.1-61.7,0.3-92.5c0.3-75,0.6-149.9,1-224.9c0.1-10,0.6-20,0.8-30c0.1-3.1,1.2-4.7,4.4-4.6
			c0.8,0,1.7,0,2.5,0c77.8-0.3,155.6-0.6,233.4-1c50.8-0.3,101.6-0.7,152.4-1c7.7,0,7.7,0,7.7,7.7
			C1704.2,376.2,1704.2,434.8,1704.2,493.5z M1700.8,494.4c0-57.8,0-115.7,0-173.5c0-7.9,0-7.9-8.1-7.8
			c-36.8,0.3-73.6,0.6-110.4,0.9c-60.8,0.4-121.6,0.7-182.4,1c-29,0.1-58,0.2-87,0.1c-4.3,0-5.9,1.3-5.9,5.7c-0.1,23-0.6,46-0.7,69
			c-0.4,91.1-0.7,182.3-1.1,273.4c-0.1,15.6,5.1,29,14.7,41c11.2,14.1,25.1,25.3,39.8,35.4c44.2,30.4,92.3,53.9,139.7,78.7
			c2.2,1.1,6,0.8,8.3-0.4c34.3-18.1,68.8-35.9,102.7-54.9c25-14,48.9-30.1,68.9-50.9c12.9-13.4,22-28.3,21.8-48.2
			C1700.5,607.4,1700.8,550.9,1700.8,494.4z"/>
		<path class="st3" d="M1768.3,784.6c0.7,16.5-16.2,31-35.4,28.2c-2.5-0.4-4.9-3.5-6.8-5.8c-1.3-1.6-1.4-4.1-2.4-6
			c-2.1-4.2-4.7-4.7-8.2-1.6c-37.4,33.2-78.9,59.6-126.2,76.3c-21.1,7.5-42.8,12-65.3,13.6c-50.2,3.6-97.2-7.8-142.1-29.3
			c-31.9-15.2-61.2-34.5-88.1-57.4c-5.7-4.9-5.8-4.8-11,0.4c-2.6,2.6-5.1,5.3-7.8,7.7c-5.5,5.1-9.7,6-15.7,1.8
			c-6.2-4.4-12.2-9.3-17-15.1c-7.2-8.7-6.2-19.7,2-27.5c11.1-10.5,22.7-20.5,33.8-31.1c3.5-3.4,6.3-7.7,8.7-12
			c2.5-4.5,6.2-6.8,10.6-5.2c5.8,2.2,12.1,4.7,16.2,9c30.5,31.5,64.3,58.5,104.1,77.3c29.1,13.8,59.6,20,91.7,17.5
			c57.3-4.4,107.5-26.2,151.7-62.6c9.5-7.8,18.5-16.1,25.7-26.4c3.4-4.9,8.6-8.7,13.6-12.3c5.4-3.8,11.6-4,16.6,0.8
			c6.3,6.1,12.3,12.6,18,19.3c8,9.4,16.1,18.6,27.3,24.5C1767.9,772.1,1768.3,778.2,1768.3,784.6z M1255.8,764.1
			c2.6,1.3,4.5,2,6.1,3.1c1.6,1.1,2.9,2.7,4.3,4.1c17.4,17.7,35,35.2,55.4,49.5c49.5,34.6,102.4,60.3,163.7,65.1
			c21.7,1.7,43.2,1.2,64.6-2.8c33.8-6.3,65.1-19.2,94.7-36.3c29.4-17,56.8-36.6,80.3-61.5c7.2-7.7,15.1-14.7,23.1-22.5
			c0.4,0.9,0.3,0.4,0,0c-8.5-9.6-17.1-19.1-25.6-28.7c-10.7-11.9-18.1-12-29.5-0.3c-1.2,1.2-2.3,2.5-3.3,3.8c-2.3,3-4.2,6.4-6.8,9.2
			c-21.8,23-47.3,40.9-75.6,54.9c-31.4,15.6-64.5,24.5-99.6,26.8c-21.5,1.4-42.3-0.7-62.6-7c-52.5-16.4-94.6-48.7-132.3-87.6
			c-3.9-4-9.4-6.6-14.6-9.2c-3-1.5-6.2-0.6-8,2.9c-5.7,11-14.8,19.1-23.9,27.3C1262.9,758,1259.5,760.9,1255.8,764.1z M1747.6,786.2
			c-3,0.6-4.8,0.5-6.1,1.2c-3.7,2-8.5,3.7-10.4,6.9c-2,3.4-1.7,8.6-1.2,12.8c0.2,1.4,4.3,3.5,6.4,3.3c16-1.5,25.9-7.7,29.1-24.3
			c1.1-5.6-1.8-12.8-5.6-15c-9-5.2-16.4-3.1-22.1,6.9C1740.6,780.4,1743.5,782.8,1747.6,786.2z M1268.3,777.1
			c-2.8-2.5-5-4.3-7.1-6.2c-3.7-3.4-7.9-3.4-12.1-1.5c-5.4,2.5-9.8,12.5-8.3,18.4c2.4,9.4,9.3,15.1,16.7,20.3c8,5.6,9.5,5.5,16.7-1
			c4.5-4,5-9.4,0.4-13.3c-3.1-2.6-7-4.2-10.7-6.1c-1.7-0.9-3.5-1.3-5.9-2.2C1261.7,782.6,1264.4,780.3,1268.3,777.1z M1281.4,799
			c3.8-2,4.5-3.8,1.4-6.6c-3.2-2.9-6.3-5.9-9.1-9.1c-3.1-3.5-5.4-2.9-8,1.1C1272.7,787.5,1279.2,790.9,1281.4,799z M1719.7,792.9
			c3.2,2.3,4.4,3.2,4.7,3.4c5-4.7,9.4-8.8,14.1-13.1c-1.9-2.8-4.1-3.2-7.3,0.1C1728,786.5,1724.1,789.2,1719.7,792.9z"/>
		<path class="st3" d="M1700.8,494.4c0,56.5-0.3,113,0.2,169.5c0.2,19.8-8.9,34.8-21.8,48.2c-20.1,20.9-43.9,36.9-68.9,50.9
			c-33.8,19-68.3,36.8-102.7,54.9c-2.3,1.2-6.1,1.5-8.3,0.4c-47.3-24.8-95.5-48.3-139.7-78.7c-14.7-10.1-28.6-21.3-39.8-35.4
			c-9.5-12-14.8-25.4-14.7-41c0.5-91.1,0.7-182.3,1.1-273.4c0.1-23,0.6-46,0.7-69c0-4.4,1.6-5.7,5.9-5.7c29,0.1,58,0,87-0.1
			c60.8-0.3,121.6-0.6,182.4-1c36.8-0.2,73.6-0.6,110.4-0.9c8.1-0.1,8.1,0,8.1,7.8C1700.8,378.8,1700.8,436.6,1700.8,494.4z
			 M1377.9,404l0.2,0.3c1.7,3.2,4,3,6.4,0.9c2.6-2.2,2.9-4.8,0.6-7.3c-2.2-2.5-5.1-2.6-7.4-0.3
			C1375.8,399.4,1374.5,401.9,1377.9,404z M1623.3,473.9c3.7-1.2,3.9-3.8,2.2-6.5c-1.7-2.8-4.9-3.5-7.2-1.4
			c-1.4,1.3-2.3,4.6-1.6,6.3c0.9,2.3,3.2,5,6.4,1.9L1623.3,473.9z M1528.5,395.9c3-2.4,5.8-4.3,8.1-6.7c4-4.1,7.9-8.3,11.4-12.9
			c1.1-1.4,1.6-5,0.7-6c-3.1-3.3-3.2-7-3.6-11c-1.2-11.4-6.6-24.5-21.6-26.2c-1.6-0.2-3.3-1.5-4.6-2.6c-4.1-3.5-7.1-3.9-10.9,0
			c-2.9,3-6,0.5-8.5,1.3c-2.7,0.8-4.4,4.8-7.2,6c-5.7,2.4-7.2,7.3-3,12c5.2,5.7,5,10.3-0.3,16.4c-0.9,1-1.1,3.1-1,4.6
			c0.2,3.2,1.7,6.4,1.2,9.4c-0.6,4.2,0.5,6.8,4.4,8.2c1.9,0.7,3.9,1.1,5.6,2.1c1.4,0.8,3.4,2.4,3.3,3.5c-0.1,1.6-1.6,3.8-3,4.4
			c-10.6,4.1-17.1,12.9-22.9,21.4c-4.6,6.7-5.9,15.7-8.5,23.7c-0.4,1.3-0.2,3,0,4.5c1.7,9.8-0.4,18.4-7.9,25.4
			c-3.1,2.9-5.9,6.4-8.4,9.9c-10,13.9-19.9,27.9-29.6,42c-1.3,1.8-2,4.2-2.3,6.5c-1.3,8.7-0.3,17.2,4.5,25.2
			c-4.1,2.2-5.9,5.2-4.2,9.9c0.3,0.9-0.6,2.5-1.3,3.5c-3.8,5.3-15.6,7-23.6,3.1c0.9-2.2,2.4-4.4,2.7-6.7c0.5-2.9,0.3-6,0.1-9.1
			c-0.2-2.5-1.3-5-1.1-7.4c0.5-5.6-2-9.7-6.8-10.9c-1.8,3.6-3.3,7.3-5.3,10.6c-2.7,4.3-3.5,8.3-0.6,13c2.3,3.6,2.6,8-0.4,11.2
			c-3.7,4-1.6,6.8,1.4,9.2c2.3,1.8,5.4,2.4,8,3.8c4,2.2,7.9,4.6,11.7,7.2c0.6,0.4,0.8,2.2,0.5,3.1c-1.5,4.5,0.6,5.7,4.6,5.7
			c9-0.1,18-0.1,27,0c4.3,0,8.2,0,5.7-6.2c-0.2-0.6,0.4-2,1-2.4c2.2-1.5,4.5-2.9,6.8-4c0.7-0.3,2.1-0.1,2.6,0.5
			c3.2,3.2,5.8,2.3,8.5-2c-0.6,5-1.1,8.7-1.6,12.5c-1.5,12.7-3.2,25.4-4.2,38.2c-0.2,2.9,1.5,6,2.5,9c0.8,2.1,2.9,4,3,6.1
			c0.3,11.8,0.4,23.7,0.1,35.5c-0.1,3.7-1.5,7.4-2.4,11c-1,4.1-3.5,8.5-2.8,12.3c0.8,4.6,0.9,8.7-0.2,13.2c-1.1,4.6,1.1,7.8,5.8,8.8
			c1.4,0.3,2.8,0.4,4.1,0.6c-1.3,1.4-3.1,1.6-4.1,2.6c-1.1,1.1-2.6,3.1-2.2,4.3c1.6,6.1,6.5,8.4,12.2,5.8
			c6.8-3.1,13.3-6.8,20.1-10.1c1.8-0.9,4.1-1.9,6-1.6c6.9,1.2,10.5-0.8,12.3-7.6c1,7.3,2.7,10.5,7.6,10.3c6.3-0.2,9.8,2.7,12.4,7.8
			c0.6,1.3,1.9,2.3,3,3.3c4.6,4.2,10.2,4.4,14.1-0.3c3.3-4,6.8-8.7,7.9-13.6c1-4.8,3.3-7.2,7.1-8.8c2.1-0.9,4.5-0.9,6.8-1.1
			c7.6-0.6,9.7-2.8,7.2-9.8c-2.7-7.6-3.9-15-1.5-22.9c0.4-1.2,0.4-2.7,0-4c-4.1-14.5-6.4-29.7-13.9-43.1c-0.7-1.3-0.9-3-0.9-4.6
			c-0.1-2.4,0.6-4.9,0.1-7.2c-4-18.2-8.2-36.4-12.4-54.6c-1.7-7.3-2.7-14.8-5.2-21.8c-2.5-7.1-2.7-13.8,0.7-20.1
			c7-13,14.9-25.6,22-38.5c2.1-3.8,3.6-8.3,3.7-12.5c0.6-23.3-7.8-45.1-12.7-67.4c-7.2-9.8-12.2-22.1-26.8-23.8
			C1529,396.6,1528.5,395.9,1528.5,395.9z M1408.2,448.2c4.2,4.3,7,4.7,8.4,1c1.5-4.3,4.6-6.2,8.1-8.2c1.7-1,3.8-2.2,4.5-3.8
			c1-2.6,2.2-6.3,1.1-8.2c-1-1.8-5.2-2.7-7.7-2.3c-4,0.6-8.2,2.1-11.7,4.2c-4.7,3-9.6,3.2-14.8,3c-6.3-0.2-9.8-4.6-9.3-10.9
			c0.1-1.9-1.2-4.6-2.7-5.7c-1.3-0.9-4.5-0.7-5.7,0.3c-1.5,1.2-2.5,4-2.3,5.9c0.3,3.7-2,9.6-5.4,9.9c-6.2,0.5-12.4,0.1-19.3,0.1
			c0.7-2.2,0.8-3.5,1.4-4.6c2.8-4.9,4.1-9.7,0.4-15c-0.8-1.2-0.3-3.5-0.1-5.2c0.7-5.5-1.4-9-6.6-10.8c-1.8,3.7-3.3,7.6-5.5,10.9
			c-2.8,4.2-3.5,7.9-0.5,12.4c2.6,3.9,2.7,8.5-0.6,12.1c-3,3.4-1.8,6.2,0.9,8c3,2.1,7,2.9,10.3,4.7c3.6,2,7,4.2,10.1,6.8
			c0.8,0.7-0.4,3.5,0.2,4.9c0.6,1.5,2.2,3.7,3.4,3.8c10.5,0.3,21,0.3,31.5,0.2c2.7,0,4.3-1.5,3.3-4.2c-1.3-3.4,0.2-4.8,3.1-6
			C1404.4,451,1406.1,449.5,1408.2,448.2z M1348.1,329c-2.2,4.1-4,7.9-6.2,11.5c-2.3,3.9-3.1,7.4-0.6,11.6c2.6,4.3,2.4,8.6-0.8,13
			c-0.9,1.3-0.8,5.1,0.3,5.9c3.3,2.5,7.4,4,11,6.2c3.7,2.2,7.4,4.4,10.6,7.1c0.9,0.8-0.4,3.7,0.1,5.5c0.3,1.2,1.8,3,2.8,3
			c10.8,0.2,21.6,0.3,32.4,0c1,0,2.4-2.4,2.9-3.9c0.4-1-0.4-2.5-0.7-3.8c1.8-1,3.6-1.6,5-2.7c2.6-1.9,4.8-3.1,7.8-0.3
			c0.6,0.5,3.8-1.1,5.3-2.4c2.6-2.1,4.7-4.8,7.1-7.1c1.6-1.5,4-2.4,4.9-4.1c1.2-2.4,2.7-6.1,1.7-7.9c-1-1.8-5.2-3.3-7.5-2.8
			c-5,1.1-10,2.9-14.3,5.5c-5.5,3.4-11,1.6-16.4,1.1c-3.3-0.2-5.9-6.3-5.8-9.5c0-2.2-0.9-5-2.4-6.4c-1.1-1-4.6-1-5.7,0
			c-1.5,1.4-2.4,4.2-2.3,6.4c0.1,3.6-2.3,9.3-5.7,9.6c-6.2,0.5-12.4,0.1-19.2,0.1c0.7-2,0.9-3.3,1.5-4.4c2.7-4.9,4.2-9.7,0.2-14.9
			c-0.7-0.9-0.5-2.9-0.2-4.2C1355.1,334.9,1353.7,332,1348.1,329z M1651.1,721.2c4,4.5,6.6,5,8.1,1.1c1.5-4,4.4-6,7.8-7.9
			c1.9-1,4.1-2.3,4.9-4c1.1-2.5,2.1-6,1-8.1c-0.8-1.7-5-3-7.1-2.4c-5.4,1.4-10.3,4.7-15.8,5.9c-5,1.1-10.6,1.5-15.4,0.3
			c-2.8-0.7-6.3-4-5.3-8.9c0.4-2-0.6-5-2.1-6.4c-1-1-4.7-1.1-5.7-0.1c-1.6,1.6-2.7,4.4-2.7,6.7c0,3.6-2.1,9-5.4,9.3
			c-6.3,0.5-12.7,0.1-20,0.1c1.4-3,3-5.2,3.4-7.5c0.5-3.3,0.1-6.7-0.1-10c-0.1-2.3-1.2-4.7-0.8-6.8c0.8-5.3-1.7-9.6-6.7-11
			c-1.8,3.6-3.2,7.4-5.3,10.6c-2.9,4.3-3.2,8-0.8,12.9c1.4,2.9,1.3,7.7-0.1,10.7c-2.3,5.1-2.4,8,2.6,10.7c2.4,1.3,5.4,1.7,7.9,3
			c3.4,1.9,6.9,3.9,9.7,6.6c1.1,1.1,0.2,4,1,5.9c0.6,1.3,2.3,3.1,3.5,3.1c10.5,0.3,21,0.3,31.5,0c1.1,0,3.3-2.8,3-3.6
			c-1.6-4.1,0.8-5.3,3.7-6.6C1647.6,723.8,1649.2,722.5,1651.1,721.2z M1586.2,467c-1.8,3.5-3.3,7.2-5.4,10.5
			c-2.8,4.3-3.7,8.2-0.6,12.9c2.4,3.7,2.7,8.3-0.5,11.6c-3.5,3.6-1.8,6.4,0.8,8.4c3,2.2,6.9,2.9,10.2,4.8c3.6,2,7,4.2,10.1,6.8
			c0.8,0.7-0.3,3.5,0.3,4.9c0.7,1.4,2.4,3.3,3.7,3.3c10.3,0.5,20.6,0.6,30.9,0.8c3.1,0.1,4.1-1.7,3.3-4.6c-0.3-1.2-0.6-2.5-0.8-3.5
			c3.5-2,6.6-3.8,9.7-5.6c4.9,4.8,6.2,4.4,9.4-1.5c1-1.9,3.1-3.3,4.8-4.8c2.1-1.7,5.1-2.6,6.3-4.7c1.4-2.4,2.2-6.1,1.3-8.5
			c-0.6-1.5-4.9-2.9-7.1-2.4c-5.1,1.2-9.8,4.2-14.9,5.4c-5,1.2-10.4,1.7-15.5,1.5c-3.1-0.1-6-6.4-6-9.5c0-2.2-0.7-5.1-2.3-6.4
			c-1.3-1.1-4.9-1.1-6.2,0c-1.5,1.2-2.1,4.2-2,6.4c0.1,3.3-2.7,9.5-5.9,9.7c-6.2,0.4-12.4,0.1-19.3,0.1c1.4-3.4,3-5.9,3.4-8.6
			c0.4-2.9-0.2-6-0.4-9c-0.2-2.3-1.2-4.7-0.8-6.8C1593.7,472.6,1591.6,468.7,1586.2,467z M1340.2,599.4c-2.1,4-3.7,7.8-5.9,11.3
			c-2.5,3.9-3.1,7.4-0.8,11.6c2.1,3.8,3.5,8.5-0.2,12.1c-3.3,3.3-2.1,6,0.5,7.9c3.1,2.3,6.8,4,10.5,5.2c6.1,2,9.8,6.3,10.7,12.2
			c0.2,1.3,2.5,3.2,3.8,3.2c10,0.3,20,0.2,30,0.2c3.6,0,4.8-1.7,3.9-5.1c-0.2-0.9-0.3-1.9-0.4-2.5c3.4-2.1,6.5-4,9.6-5.9
			c3.9,4.3,5.9,4.3,8.5,0.9c2.3-3,5.3-5.5,8.1-8.2c1.5-1.5,3.8-2.6,4.7-4.3c1-2.2,1.8-5.4,0.9-7.3c-0.7-1.6-4.3-3.1-6.2-2.6
			c-5.4,1.3-11,2.9-15.8,5.6c-5.6,3.2-11.2,1.8-16.4,0.6c-3.1-0.7-6.9-3.7-5.5-9.1c0.5-1.8-0.9-4.9-2.5-6.2c-1.2-1-4.7-0.9-5.8,0.2
			c-1.5,1.4-2.8,4.5-2.3,6.3c1.5,5.1-2.1,8.4-4.9,8.9c-6.3,1.1-12.9,0.4-19.9,0.4c0.6-1.7,0.9-2.9,1.4-3.9
			c2.6-5.1,4.6-10.1,0.1-15.3c-0.6-0.7-0.3-2.5,0-3.7C1347.8,605.2,1346.1,601.9,1340.2,599.4z M1591.6,330.3
			c-2.1,4.1-3.7,7.8-5.9,11.3c-2.5,4-3.4,7.6-0.4,12c2.5,3.7,2.3,8-0.3,11.8c-2.7,4-2.5,6.9,1.6,9.4c2.8,1.7,6.3,2.2,9.1,3.8
			c3.6,2,7.1,4.2,10.1,7c0.9,0.8-0.4,3.8,0.3,5.4c0.6,1.4,2.5,3.1,3.9,3.1c10.2,0.3,20.3,0.1,30.5,0.2c3.2,0,4.5-1.2,3.8-4.6
			c-0.3-1.3,0.7-4.2,1.4-4.3c3.3-0.4,5.1-6.3,9.5-2.5c2.7,2.3,4.6,1,6.6-1.5c2.1-2.8,4.8-5.2,7.3-7.6c1.7-1.6,4.2-2.6,5.2-4.5
			c1.1-2.1,1.9-5.5,1-7.3c-0.9-1.7-4.5-3.2-6.6-2.9c-4.4,0.7-9.1,1.8-12.6,4.3c-5.6,3.9-11.3,3.1-17.1,2.7c-3.7-0.2-7.7-5.6-7.7-8.9
			c0-2.5-0.8-5.3-2.1-7.4c-0.6-0.9-4.6-1.1-5.3-0.2c-1.5,2-1.8,4.9-2.8,7.3c-1.4,3-2.6,7.8-4.7,8.3c-6.2,1.5-12.9,2.9-19.9,0.1
			c0.6-1.8,0.9-3.5,1.7-4.8c2.6-4.5,3.5-8.8-0.1-13.4c-0.9-1.1-0.3-3.5-0.1-5.2C1598.8,335.8,1596.9,332.6,1591.6,330.3z
			 M1403.2,721c2.8,2.6,6.1,5.1,8.2,0.5c1.9-4.2,5.1-6.3,8.7-8.5c1.7-1,3.6-2.3,4.3-4c0.9-2.2,1.6-5.3,0.8-7.4
			c-0.5-1.4-3.9-2.9-5.7-2.6c-4.5,0.8-9.6,1.5-13.2,4.1c-5.6,4-11.3,3.1-17.1,2.8c-4.5-0.2-8.2-5.3-7.8-9.4c0.2-2.1-0.6-5.2-2.1-6.4
			c-1.3-1.1-4.9-1.1-6.2,0c-1.5,1.2-2.4,4.2-2.2,6.4c0.4,4.6-2.5,9-7,9.5c-3.3,0.3-6.6,0.7-9.9,0.7c-2.5,0-5-0.8-8.1-1.3
			c1.5-3.2,2.9-5.4,3.3-7.8c0.5-2.8,0.2-5.7-0.1-8.6c-0.2-2.5-1.3-5-1.1-7.4c0.5-5.6-1.8-9.5-6.6-11c-2.2,4.2-4.1,8.3-6.4,12.2
			c-2.1,3.7-2.5,6.9-0.1,10.7c2.7,4.3,2.8,8.6-0.7,12.9c-0.9,1.2-1.1,4.3-0.3,5.2c2.1,2.4,4.8,4.9,7.7,5.7c5,1.3,9.3,3.6,12.8,7.1
			c1.1,1.1,2,3.3,1.8,4.8c-0.7,3.6,0.6,5,4.1,5c10.2,0,20.3,0,30.5,0c3.1,0,4.1-1.3,3.5-4.4c-0.3-1.4,0.2-3.6,1.3-4.5
			C1397.7,723.6,1400.4,722.5,1403.2,721z M1593.9,570.6c1-2.6,1.3-4,2.1-5.2c2.8-4.8,4-9.4,0.1-14.3c-0.8-1.1-0.2-3.5,0-5.2
			c0.7-5.4-1.3-8.9-6.3-10.9c-2.1,4-4,7.9-6.3,11.7c-2.4,3.9-2.8,7.5-0.3,11.6c2.5,3.9,2.7,8.5-0.5,12.1c-2.5,2.8-1.8,5,0.1,6.9
			c1.9,1.9,4.4,3.9,7,4.5c5.1,1.2,9.3,3.4,12.7,7.2c1.1,1.2,1.3,3.2,2,4.7c0.7,1.5,1.4,4.3,2.2,4.3c10.8,0.5,21.6,0.8,32.4,0.9
			c3,0,4.1-1.8,3.2-4.7c-0.3-1.1-0.5-2.2-0.7-3.2c3.4-2,6.5-3.9,9.5-5.7c4.8,4.4,6.5,4.3,9,0.2c1.6-2.5,3.9-4.6,6.1-6.6
			c1.6-1.5,3.6-2.4,5.2-3.9c2.5-2.5,4.6-5.9,2-8.8c-1.7-1.9-5.6-3-8.2-2.5c-4.7,0.9-8.9,3.8-13.5,4.9c-5.2,1.2-10.6,2-15.9,1.9
			c-3.5,0-6.4-6.1-6.3-9.6c0.1-2.2-0.8-5-2.3-6.5c-1-1-4.6-1.1-5.7-0.1c-1.5,1.4-2.5,4.2-2.5,6.4c0.1,3.8-2.4,9.6-5.9,9.9
			C1607.3,570.9,1601.1,570.6,1593.9,570.6z M1650.9,448.3c5.2,4.7,6.4,4.4,9.6-1.8c0.9-1.6,2.5-3,4.1-4.1c2-1.5,4.4-2.5,6.3-4.1
			c3-2.4,4.3-5.7,2.5-9.3c-1.7-3.5-5.2-3.6-8.3-2.6c-4.7,1.5-9.1,4.2-13.9,5.4c-5,1.2-10.3,1.8-15.5,1.7c-3.4-0.1-6.2-6.2-6.2-9.8
			c0-2.2-1-4.9-2.5-6.3c-1.1-1-4.6-1-5.8,0c-1.5,1.4-2.7,4.4-2.3,6.3c1.1,5.1-2.2,8.9-5.2,9.5c-6.2,1.3-12.9,0.4-20,0.4
			c1.3-3.1,2.9-5.3,3.2-7.6c0.5-3.3,0.1-6.7-0.1-10c-0.1-2.3-1.1-4.6-0.8-6.8c0.8-5.5-1.9-9.8-6.7-10.7c-1.9,3.7-3.5,7.3-5.6,10.6
			c-2.7,4.2-3.3,7.9-0.5,12.5c2.6,4.2,2.7,8.8-1.4,12.8c-0.8,0.8-1.1,3.6-0.4,4.3c2.3,2.4,4.9,5.5,7.9,6.3c5.2,1.4,9.7,3.3,13.2,7.2
			c1,1.1,2,3,1.8,4.3c-0.9,4.1,0.9,5,4.4,5.1c9.8,0.1,19.6,0.4,29.4,0.7c3.6,0.1,4.9-1.4,3.9-4.9c-0.3-1.1-0.6-2.2-0.9-3.2
			C1644.6,451.9,1647.8,450.1,1650.9,448.3z M1397.9,521.6c1.5-0.8,2.6-1.2,3.6-1.8c3.2-1.8,6.2-4.9,10.1-0.8
			c0.3,0.3,3.2-1.2,4.5-2.4c2.6-2.3,4.9-5,7.5-7.4c1.7-1.6,4.2-2.7,5.1-4.6c1.1-2.3,2.1-5.8,1.1-7.6c-1.1-1.8-4.9-3.1-7.1-2.7
			c-4.2,0.7-8.5,2.2-12.1,4.4c-5.2,3.3-10.7,3.3-16.3,3c-5-0.3-8.6-5.5-8.1-10.4c0.2-2-0.9-4.7-2.4-6c-1.2-1-4.6-1.2-5.8-0.2
			c-1.6,1.3-2.7,4.1-2.6,6.3c0.1,3.9-2.3,9.8-5.7,10.1c-6.2,0.5-12.4,0.1-19.5,0.1c1.6-3.7,3.3-6.3,3.7-9.1c0.5-2.7-0.3-5.7-0.6-8.5
			c-0.2-2.3-1.2-4.7-0.8-6.8c0.9-5.2-1.7-9.8-6.5-11c-1.9,3.6-3.6,7.2-5.7,10.5c-2.7,4.2-2.7,7.9-0.9,12.7c1.3,3.4,1.4,8.7-0.5,11.6
			c-2.4,3.7-1.8,6.2,0.8,8.1c3.1,2.3,6.9,3.8,10.7,5c5.6,1.7,9.9,6.7,10.4,12.2c0.1,1.1,2.4,2.8,3.8,2.9c10.1,0.4,20.3,0.4,30.5,0.6
			c3.1,0.1,4.3-1.4,3.7-4.4C1398.6,524.2,1398.3,523.1,1397.9,521.6z M1641.3,658.6c1.4-0.7,2.9-1.4,4.3-2.3
			c2.8-1.9,5.4-3.7,8.7-0.4c0.5,0.5,3.6-1.1,4.9-2.3c2.5-2.2,4.6-4.9,7-7.2c1.7-1.6,4.2-2.6,5.3-4.4c1.2-2.2,2.5-5.9,1.5-7.5
			c-1.2-1.9-5-3.3-7.4-3c-4,0.5-8.2,2-11.6,4.2c-5.3,3.3-10.9,3.6-16.8,3.2c-5-0.3-8.6-5.6-8.1-10.5c0.2-2-0.8-4.7-2.2-5.9
			c-1.3-1-4.6-1.2-5.8-0.3c-1.6,1.3-2.7,4.1-2.7,6.2c0.1,3.9-2.2,9.9-5.6,10.1c-6.2,0.5-12.5,0.1-19.6,0.1c1-2.4,1.6-4.1,2.4-5.7
			c2.3-4.5,3.6-8.9-0.2-13.5c-0.8-0.9-0.5-3.1-0.2-4.6c1.4-5.8-0.6-9.7-6.7-12c-0.7,2-1.2,4.1-2.1,6c-0.9,1.9-2.2,3.7-3.4,5.5
			c-2.6,3.8-2.8,7.5-0.5,11.7c2.2,4,2.8,8.6-0.4,12.1c-3,3.2-1.9,5.8,0.4,7.6c3.1,2.3,7.1,3.4,10.5,5.3c3.5,2,7.1,4.2,10.1,6.8
			c1,0.9,0,3.8,0.7,5.4c0.6,1.3,2.5,2.8,3.9,2.8c9,0.3,18,0.1,27,0.1C1642.3,666.2,1642.3,666.2,1641.3,658.6z M1382.5,324.9
			c-2.5,3.2-5.3,5.4-5,7c0.4,2.1,3.2,3.8,5,5.7c1.8-1.9,4.6-3.6,5-5.7C1387.8,330.4,1385,328.2,1382.5,324.9z M1376.3,681
			c2.4-3.6,4.9-5.8,4.9-7.9c0-1.6-3.1-4.3-5.1-4.6c-3-0.4-5.6,2-5,5.3C1371.6,676,1373.9,677.7,1376.3,681z M1626.4,326
			c-2.5,3.2-5.3,5.3-5,7c0.3,2.1,3.1,3.8,4.8,5.7c1.8-1.8,4.7-3.5,5.1-5.6C1631.6,331.6,1628.8,329.4,1626.4,326z M1630.6,538.8
			c0-0.7-0.1-1.5-0.1-2.2c-2-1.2-4-3.2-6.1-3.5c-3.2-0.4-5.8,1.9-5,5.1c0.5,2,3.3,4.8,5.1,4.8
			C1626.5,543.1,1628.6,540.4,1630.6,538.8z M1625.2,395.1c-0.8,0-1.5,0-2.3,0c-1.3,1.9-3.9,4.1-3.6,5.6c0.5,2.1,3.2,3.8,5,5.6
			c1.7-1.7,4.7-3.4,4.9-5.2C1629.2,399.2,1626.6,397.1,1625.2,395.1z M1625,600.1c-0.8,0-1.5,0-2.3,0c-1.5,2-4.1,4.1-4,6.1
			c0.1,1.8,3.5,5,4.9,4.7c2.1-0.4,4.6-3.1,5.1-5.2C1629,604.2,1626.3,602,1625,600.1z M1388.1,468.7c-3.3-2.2-5.2-4.3-7.3-4.6
			c-3.2-0.5-5.8,2.1-5.2,5.1c0.4,2,3.4,4.6,5.5,4.9C1382.8,474.3,1384.8,471.4,1388.1,468.7z M1630.2,675.1c0-0.7-0.1-1.5-0.1-2.2
			c-2-1.3-3.9-3.3-6-3.6c-3.2-0.4-5.8,2-4.9,5.2c0.5,2,3.2,4.8,5,4.8C1626.1,679.4,1628.2,676.6,1630.2,675.1z M1374.1,608.7
			c0.7,0,1.4-0.1,2.1-0.1c1.3-2,3.4-3.9,3.7-6.1c0.3-3.1-2.1-5.7-5.2-5c-1.9,0.4-4.6,3.3-4.6,5
			C1370,604.6,1372.6,606.6,1374.1,608.7z"/>
		<path class="st3" d="M1255.8,764.1c3.7-3.3,7.1-6.1,10.4-9.1c9.1-8.1,18.2-16.2,23.9-27.3c1.8-3.5,5-4.4,8-2.9
			c5.1,2.6,10.7,5.2,14.6,9.2c37.8,38.8,79.8,71.2,132.3,87.6c20.3,6.4,41.1,8.4,62.6,7c35.1-2.2,68.2-11.2,99.6-26.8
			c28.3-14,53.9-31.9,75.6-54.9c2.6-2.8,4.5-6.1,6.8-9.2c1-1.3,2.1-2.6,3.3-3.8c11.4-11.7,18.8-11.6,29.5,0.3
			c8.5,9.5,17.1,19.1,25.6,28.7c0.3,0.3,0.4,0.8,0,0c-8,7.7-15.9,14.8-23.1,22.5c-23.4,24.8-50.9,44.4-80.3,61.5
			c-29.6,17.2-60.9,30-94.7,36.3c-21.4,4-43,4.5-64.6,2.8c-61.3-4.8-114.2-30.5-163.7-65.1c-20.5-14.3-38-31.8-55.4-49.5
			c-1.4-1.4-2.7-3-4.3-4.1C1260.3,766.1,1258.4,765.4,1255.8,764.1z M1443.3,841c0.4,0,0.9,0,1.3,0c1.3-3.6,2.7-7.2,3.7-10
			c-3.5-1.8-6.1-3.1-8.8-4.5c-2.3-1.2-4.6-2.8-7-3.8c-10.2-4-22-0.5-27.5,8c-5.9,9-5.1,19.5,2,27.1c6.1,6.4,14.2,8.2,22.6,9.4
			c4.1,0.6,6.4-0.8,7.8-5c1-3.1,3.3-5.7,5.3-8.8c-3.9-1.3-8.6-2.9-12.3-4.2c-1.4,4.6-2.5,8.5-3.9,12.3c-0.3,0.9-2,1.8-3.1,1.9
			c-6.4,0.1-11.8-5.1-12.2-11.6c-0.4-8.6,2.6-16.1,7.8-22.7c3.2-4.2,9.2-5.4,14-3.5C1439.9,828.4,1442.2,834.3,1443.3,841z
			 M1668.6,784.7c-0.3,0.2-0.5,0.4-0.8,0.6c0.3,2.4,0.8,4.9,0.7,7.3c-0.1,1.2-1.2,2.7-2.3,3.5c-0.4,0.3-2.3-0.9-3.1-1.8
			c-2.2-2.5-4-5.3-6.1-7.8c-1.8-2.1-1.2-3.4,0.8-4.9c5.3-4.2,10.9-6.2,17.5-1.9c-1.5-2.9-2.9-5.3-4.8-7.3c-0.7-0.7-2.9-1-3.7-0.4
			c-8,5.8-15.9,11.9-23.1,17.3c11.6,9,18.4,21.2,26.6,33.1c7.2-5.4,15.2-11.4,23-17.5c0.8-0.6,1.3-2.5,0.9-3.4
			c-1.3-2.8-3.1-5.4-4.6-8.1c0.6,7.3-1.6,12.8-7.3,16.9c-3.2,2.3-5.7,2.2-8-1.1c-1.5-2.2-3.3-4.2-4.7-6.4c-0.7-1.1-1.5-3.2-1-3.8
			c0.8-0.9,2.7-1.5,4-1.2c2.3,0.5,4.5,1.6,8.3,3.1C1676,794.5,1672.3,789.6,1668.6,784.7z M1609.6,813c4.6,8.5,9.4,17,13.8,25.7
			c1.5,2.9,1.8,6.3,2.8,9.9c4.2-2.3,8.9-4.9,13.3-7.3c-2.1-1.9-4.5-3.1-5.6-5c-4.7-8.2-9-16.7-13.7-24.9c-1.9-3.3-0.9-5.6,2.3-5.8
			c3.7-0.2,7.5,1,10.9,1.5c-1.6-7.7-3.7-8.7-10.9-4.7c-6.8,3.8-13.8,7.4-20.7,11c-6.1,3.2-6.2,7.4-0.3,11.3
			C1601.6,817.2,1602.8,815.3,1609.6,813z M1535.8,864.5c-0.4-0.1-0.7-0.2-1.1-0.3c-0.4,0.7-0.8,1.3-1.1,2
			c-3.5,8.5-5.9,9.9-15.1,9.7c-3.5-0.1-5.1-1.5-5.3-5.1c-0.2-4.8-0.8-9.6-0.9-14.4c-0.2-6.4,0-12.8,0-19.2c-4.1,0-9.2,0-13.2,0
			c0.9,3,2.2,5.7,2.5,8.5c0.6,4.4,0.8,8.9,0.9,13.4c0.1,6.5,0,13.1,0,18.9c9.3,0,19.4,0.1,29.5-0.1c1,0,2.7-1.6,2.9-2.7
			C1535.5,871.7,1535.6,868.1,1535.8,864.5z M1596.4,862.5c-5.5-6.1-10.6-11.7-15.6-17.4c-5-5.7-9.9-11.5-15.9-18.5
			c-2.5,16.7-4.7,31.9-7.1,47.5c2.9-0.9,6.3-1.9,9.6-2.9c0.3-0.5,0.5-0.9,0.8-1.4c-5.3,0.8-6.1-1.7-6.2-5.5
			c-0.1-4.1,2.6-4.9,5.6-5.8c1.9-0.5,3.9-0.9,5.8-1.7c4.2-1.7,5.9,1.5,7.4,4.1c0.9,1.5,0.6,3.7,0.9,6
			C1586.2,865.6,1591.5,864,1596.4,862.5z M1334.5,805.2c2-9.3,3.6-17.1,5.5-24.8c0.4-1.8,2.3-3.2,3.8-5.1
			c-3.6-2.5-7.5-5.4-11.4-8.1c-3.3,15.7-6.4,30.7-9.8,47.2c15-8.4,28.5-16.1,42.3-23.9c-2.3-1.7-4.8-3.5-6.5-4.7
			c-1.3,2.6-1.8,5.7-3.5,6.9C1348.8,796.9,1342.2,800.5,1334.5,805.2z M1466.6,833.1c0.5,2.9,1.5,5.5,1.2,7.9
			c-0.8,7.4-1.8,14.8-3.2,22.2c-0.8,4.1-2.4,7.9-3.7,11.9c4.1,0.6,9.3,1.4,14,2c-0.2-3.6-0.8-6.7-0.5-9.7c0.9-7.7,2.5-15.4,3.5-23.1
			c0.5-3.7,1.3-6.9,5.3-8.8C1477.4,834.7,1471.6,833.8,1466.6,833.1z M1372.9,843.7c6.8-13,11.6-26,21.4-36.6c-3.8-2.1-8.3-4.5-13-7
			c0.5,6.8-13.8,33.1-20.3,37.1C1365.3,839.5,1369.3,841.7,1372.9,843.7z"/>
		<path class="st3" d="M1747.6,786.2c-4.1-3.4-7-5.8-9.8-8.2c5.8-9.9,13.2-12.1,22.1-6.9c3.8,2.2,6.6,9.4,5.6,15
			c-3.2,16.6-13.1,22.7-29.1,24.3c-2.1,0.2-6.3-1.9-6.4-3.3c-0.5-4.2-0.8-9.4,1.2-12.8c1.9-3.2,6.7-4.8,10.4-6.9
			C1742.9,786.7,1744.6,786.8,1747.6,786.2z"/>
		<path class="st3" d="M1268.3,777.1c-3.9,3.2-6.6,5.5-10.1,8.4c2.4,0.9,4.2,1.3,5.9,2.2c3.7,1.9,7.6,3.5,10.7,6.1
			c4.5,3.9,4.1,9.3-0.4,13.3c-7.2,6.5-8.7,6.7-16.7,1c-7.4-5.2-14.3-11-16.7-20.3c-1.5-6,2.9-16,8.3-18.4c4.2-1.9,8.4-1.9,12.1,1.5
			C1263.3,772.8,1265.5,774.6,1268.3,777.1z"/>
		<path class="st3" d="M1281.4,799c-2.2-8.1-8.7-11.5-15.7-14.5c2.6-4,4.9-4.6,8-1.1c2.8,3.2,5.9,6.2,9.1,9.1
			C1285.9,795.1,1285.2,797,1281.4,799z"/>
		<path class="st3" d="M1719.7,792.9c4.4-3.6,8.3-6.3,11.5-9.6c3.2-3.3,5.4-2.9,7.3-0.1c-4.6,4.3-9.1,8.4-14.1,13.1
			C1724.1,796.1,1722.9,795.2,1719.7,792.9z"/>
		<path class="st3" d="M1528.5,395.9c0,0,0.5,0.6,1,0.7c14.5,1.7,19.5,14,26.8,23.8c5,22.3,13.3,44.1,12.7,67.4
			c-0.1,4.2-1.6,8.8-3.7,12.5c-7.1,13-15,25.5-22,38.5c-3.4,6.3-3.2,13-0.7,20.1c2.5,7,3.5,14.5,5.2,21.8
			c4.2,18.2,8.4,36.4,12.4,54.6c0.5,2.3-0.2,4.8-0.1,7.2c0.1,1.6,0.2,3.3,0.9,4.6c7.5,13.5,9.8,28.6,13.9,43.1c0.3,1.2,0.4,2.7,0,4
			c-2.4,7.9-1.2,15.3,1.5,22.9c2.5,7,0.4,9.2-7.2,9.8c-2.3,0.2-4.7,0.2-6.8,1.1c-3.8,1.6-6,4-7.1,8.8c-1.1,4.9-4.6,9.6-7.9,13.6
			c-3.9,4.8-9.5,4.6-14.1,0.3c-1.1-1-2.3-2.1-3-3.3c-2.6-5.2-6-8-12.4-7.8c-4.9,0.1-6.7-3.1-7.6-10.3c-1.7,6.8-5.4,8.9-12.3,7.6
			c-1.9-0.3-4.2,0.7-6,1.6c-6.7,3.3-13.3,7-20.1,10.1c-5.7,2.6-10.7,0.3-12.2-5.8c-0.3-1.2,1.1-3.2,2.2-4.3c1-1,2.8-1.2,4.1-2.6
			c-1.4-0.2-2.8-0.3-4.1-0.6c-4.6-1-6.9-4.2-5.8-8.8c1.1-4.4,1-8.6,0.2-13.2c-0.7-3.8,1.8-8.2,2.8-12.3c0.9-3.7,2.3-7.3,2.4-11
			c0.3-11.8,0.2-23.7-0.1-35.5c-0.1-2-2.2-4-3-6.1c-1.1-2.9-2.8-6.1-2.5-9c1.1-12.8,2.8-25.5,4.2-38.2c0.4-3.8,0.9-7.6,1.6-12.5
			c-2.8,4.2-5.4,5.2-8.5,2c-0.5-0.5-1.9-0.8-2.6-0.5c-2.4,1.2-4.7,2.5-6.8,4c-0.6,0.4-1.3,1.8-1,2.4c2.5,6.2-1.4,6.2-5.7,6.2
			c-9-0.1-18-0.1-27,0c-4,0-6.2-1.1-4.6-5.7c0.3-0.9,0.1-2.7-0.5-3.1c-3.8-2.6-7.7-4.9-11.7-7.2c-2.6-1.4-5.7-2-8-3.8
			c-3-2.3-5-5.1-1.4-9.2c3-3.3,2.7-7.7,0.4-11.2c-3-4.7-2.1-8.7,0.6-13c2-3.3,3.5-7,5.3-10.6c4.8,1.2,7.3,5.3,6.8,10.9
			c-0.2,2.4,0.9,4.9,1.1,7.4c0.2,3,0.4,6.1-0.1,9.1c-0.4,2.3-1.8,4.5-2.7,6.7c8,3.9,19.8,2.2,23.6-3.1c0.7-1,1.6-2.6,1.3-3.5
			c-1.7-4.7,0.1-7.7,4.2-9.9c-4.8-8-5.8-16.5-4.5-25.2c0.3-2.2,1-4.6,2.3-6.5c9.8-14.1,19.6-28.1,29.6-42c2.5-3.5,5.3-6.9,8.4-9.9
			c7.5-7.1,9.6-15.6,7.9-25.4c-0.2-1.5-0.5-3.1,0-4.5c2.6-8,4-17,8.5-23.7c5.8-8.5,12.4-17.4,22.9-21.4c1.4-0.6,2.9-2.8,3-4.4
			c0.1-1.1-1.9-2.7-3.3-3.5c-1.7-1-3.7-1.4-5.6-2.1c-3.9-1.4-5-4-4.4-8.2c0.4-3-1-6.3-1.2-9.4c-0.1-1.5,0.1-3.6,1-4.6
			c5.3-6.1,5.5-10.6,0.3-16.4c-4.3-4.7-2.7-9.6,3-12c2.8-1.1,4.4-5.1,7.2-6c2.5-0.8,5.6,1.8,8.5-1.3c3.8-3.9,6.8-3.5,10.9,0
			c1.3,1.1,3,2.5,4.6,2.6c15,1.7,20.4,14.8,21.6,26.2c0.4,4,0.4,7.8,3.6,11c0.9,1,0.4,4.5-0.7,6c-3.5,4.5-7.4,8.8-11.4,12.9
			C1534.3,391.6,1531.5,393.5,1528.5,395.9z M1541,736.9c0.4,0.7,0.7,1.7,1.3,2.1c1.3,0.9,2.7,1.4,4.1,2.1c0.3-0.8,1-2.3,0.7-2.5
			c-1.4-1-3-1.7-4.6-2.4c-0.3-0.1-0.9,0.2-1.4,0.4c1.1-2.2,2.1-4.4,3.9-7.9c-2.6,1.2-3.8,1.8-5.1,2.4c1.4-1.1,2.7-3,4.2-3.2
			c3.1-0.3,6.3,0.4,9.4,0.5c2.1,0,5.2,0.3,6-0.8c2.2-3.2,5.1-2.7,8-2.8c8.7-0.3,8.6-0.4,6.5-9c-1.2-4.9-1.8-9.9-2.2-14.9
			c-0.5-5.9,0.7-12.1-0.8-17.6c-3.8-13.7-5.8-28.1-13.9-40.1c0.9-2.8,1.6-5.5,1-8c-2.3-11.1-4.5-22.2-7.6-33.1
			c-4.4-15.6-4.9-32.2-12.4-47c-0.4-0.7-0.5-1.7-0.3-2.4c1.5-5.6,2.2-11.6,4.8-16.6c6.9-13,14.8-25.6,22.1-38.4
			c1.4-2.4,2.8-5.3,2.6-7.8c-0.8-10.3-1.6-20.6-3.6-30.6c-2.2-10.9-5.6-21.5-8.8-32.2c-1.2-4.2-2.6-8.4-4.7-12.2
			c-2.1-3.5-5.5-6.2-8-9.6c-4.8-6.3-10.5-7.6-17.4-4c0.4-1.2,1.4-2.6,1.1-3.7c-1.1-4.1-2.8-8.1-4-12.2c-0.9-2.8-3.2-5-1.9-8.7
			c1-2.8,0.1-6.3-0.2-9.4c0-0.6-1-1.5-1.7-1.6c-5-0.7-5-4.4-4.3-7.9c0.9-5.2-2.9-8.4-6.1-8.7c-4.2-0.4-8.7,2.1-13.1,3.4
			c-0.3,0.1-0.4,1.3-0.3,1.9c1.9,6.2-1,10.5-5.9,14.5c2,1,3.5,1.8,5.1,2.6c-0.8,1-1.6,2-2.6,3.3c1.6,0.8,2.8,1.4,4.1,2.1
			c-6.4,5.7-5.8,8.2,2,11c1.2,0.4,2.5,0.9,3.8,1c3.5,0.4,4.2,2.5,3.8,5.7c-0.5,3.3-0.6,6.6-0.8,9.8c-4.5-4.2-6.4-4.6-11-0.1
			c-3.5,3.5-6,8.1-9,12.1c-0.5-0.3-1.3-0.9-1.5-0.8c-4.8,3.5-7.2,8.5-8.1,14.3c0,0.3,1.1,0.8,1.7,1.2c-0.4,0.9-0.7,1.9-1.3,2.6
			c-5.5,5.9-6.4,12.5-2.9,19.7c-0.6,1.1-1.6,2.2-1.7,3.4c-0.4,6.6-2.7,12-7.6,16.8c-4.5,4.4-8.5,9.4-12.2,14.5
			c-9,12.4-17.5,25.1-26.4,37.6c-3.1,4.4-3.3,8.9-2.1,13.8c-1.6,5.6,0.2,10.3,3.9,16.1c0.5-2.7,0.8-4.1,1-5.5c0.6,1.6,1.3,3.2,2,5
			c1-0.5,2-1,2.9-1.6c-0.4,3.8-0.6,7.6-1.1,11.3c-0.7,5.5,2.9,9.2,8.2,10.4c9.3,2.1,16-3.9,23.9-6.5c1.9-8,3.8-16.1,5.7-24.1
			c-3.9-2.5-2.1-5.9-1.2-8.9c3-11.2,6.4-22.4,9.3-33.7c1.1-4.3,1.5-8.8,2.2-13c-8.5,7-16.4,13.7-24.6,20.2
			c-4.1,3.3-8.8,6.1-12.7,9.6c-1.3,1.2-2.2,4.1-1.7,5.8c3.5,11.3-1.8,19.9-7.7,28.5c1.1-2.9,1.9-6,3.2-8.8c3-6.8,5.4-13.6,1.6-21
			c-0.5-1,0.5-3.3,1.5-4.3c1.9-2,4.3-3.6,6.5-5.4c10.5-8.9,21-17.7,31.4-26.7c1.3-1.1,2.9-2.9,3-4.4c0.1-8.1-0.3-16.2-0.5-24.3
			c0.8,1.3,2.2,2.5,2.3,3.8c1.2,15,0.4,29.8-3.7,44.4c-2.8,9.9-5.4,19.9-8.3,29.8c-0.9,3.2-1.2,5.7,3,6c-1.7,7.8-3.9,15-4.8,22.4
			c-3.3,25-6.2,50.1-9.1,75.1c-0.9,7.5-0.6,7.6,5.4,8.3c-0.1,2.5-0.4,4.9-0.4,7.4c-0.1,11.3-0.2,22.7,0,34
			c0.1,5.8-0.7,11.2-3.6,16.3c-1.2,2-2.3,5.1-1.5,7c1.9,5,1.5,9.6,0.2,14.6c-1.1,4.2,1.2,6.8,5.6,6.5c2.9-0.2,5.8-1.4,8.7-2.2
			c3.3-0.9,6.5-1.9,9.1-2.6c0.1,2.6,0.2,4.5,0.3,6.3c-4.9-3.8-6.8-3.8-13.9,1.2c2.7,1.8,5.2,3.6,8.6,5.9c-4.4,0.9-7,1.3-9.5,2.1
			c-0.8,0.2-1.1,1.6-1.7,2.5c0.9,0.4,2.2,1.4,2.8,1.1c8.9-4.4,17.7-9,26.5-13.6c0.1-0.1,0-0.6,0-2c-2.1,1.2-3.8,2.4-5.6,2.9
			c-2,0.6-4.1,0.4-6.2,0.6c2.8-1.5,5.5-3,9.3-5c-2.8-1.1-4.3-1.7-5.7-2.3c5.4-1,9,1.8,12.2,5.5c2.9,3.3,5.3,1.5,7.6-0.5
			c2.8-2.3,1.5-4.2-0.7-6.1c-0.5-0.4-0.7-1.3-1.1-2c5.7-0.7,8.7,1.5,8.7,5.3c0,2,0.7,4.8,2.1,5.9c3.5,2.8,7.9,2.4,11.8,0.4
			c0.9-0.4,0.4-3.4,0.6-5.3c0.1-0.4,0.4-0.8,0.9-1.6c0.6,0.8,1.1,1.4,1.5,2c-1.8,6.6-1.1,12.4,4.7,17c3.9,3.1,7.8,3.8,10.9-0.1
			c3.3-4.2,5.9-9.1,8.2-14c2-4.2-0.9-5.2-4.5-5.4c2.6,2.8,3.3,5.3,0.6,8.3c-2.5,2.8-4.7,6-7,9c0.3-6.5-1.6-8-7.9-5.9
			C1537,739.8,1539,738.4,1541,736.9z M1542.4,374.3c-0.3-0.2-0.5-0.3-0.8-0.5c0.4-2.9,0.5-5.7,1.1-8.5c2.8-13.9-6.7-27.8-20.4-29.9
			c-1.6-0.3-3.4-1.2-4.5-2.4c-2.9-3.4-5.6-3.3-9-0.6c-4.6,3.6-11,3.5-15.6,7.7c-1.5,1.4-4.8,1.5-3.9,4.3c0.6,1.8,3,4.1,4.8,4.3
			c3,0.3,6.3-0.5,9.2-1.4c5.2-1.7,8.4,1.4,11.2,4.6c1.1,1.3,1,4,0.8,6.1c-0.3,3.2,0,5.5,3.7,6.3c2.2,0.5,4,1.5,2.9,4.6
			c-1.5,4.1,1.2,7.9,5.7,8.9c3,0.7,5.9,1.9,8.9,2.7c1.5,0.4,3.8,0.8,4.5,0.1c2.3-2.6,4.2-5.6,5.9-8.6c0.3-0.5-0.6-1.8-1.1-3
			C1544.1,371.6,1543.3,372.9,1542.4,374.3z M1396.6,577.2c1.9,11,8.2,16.5,17.8,16.5c6.1,0,12.3,0.2,18.4-0.1
			c6.9-0.3,13.6-1.2,18.5-7c4-4.6,8.3-9,12.3-13.5c0.4-0.5,0.4-1.4,0.9-3.3c-4.8,2.3-8.7,4-12.5,5.9c-6.5,3.3-16.6,1.7-21.6-3.5
			c-4.2-4.3-7.6-4.3-10.9,0.8c-2.1,3.2-4.5,4.4-8.2,4.2C1406.6,577.1,1401.9,577.2,1396.6,577.2z M1393.7,542.9
			c-0.6,0.1-1.3,0.2-1.9,0.2c-2,3.2-4.2,6.4-5.9,9.8c-0.9,1.7-1.5,3.9-1.2,5.6c1.1,5.4,2.6,10.8,4.2,17.1c0.7-0.4,2.6-1,3.8-2.3
			c1.1-1.1,1.4-3,2.2-4.4c2.4-4.3,4-8.3-0.1-12.7c-0.9-1-0.2-3.4-0.3-5.1C1394.3,548.3,1394,545.6,1393.7,542.9z M1440.8,600.7
			c0.3-0.7,0.6-1.5,0.9-2.2c-1.9-1.1-3.8-3-5.7-3.1c-8-0.3-16-0.2-24-0.1c-1.2,0-2.7,0.7-3.5,1.5c-1.5,1.7-1.4,3.7,1.4,3.7
			C1420.2,600.8,1430.5,600.7,1440.8,600.7z M1539.1,383.1c-4.6-1.3-8.8-2.5-13-3.5c-1-0.2-2.9-0.1-3,0.3c-0.4,1.1-0.5,2.7,0.1,3.7
			c1.3,2.1,3.2,3.8,4.5,5.9c2.2,3.5,4.2,2.4,6.3,0C1535.4,387.7,1536.8,385.9,1539.1,383.1z M1384,578.3c3.1,5.3,7.5,6.5,12.6,7.2
			C1394.8,577.1,1393.1,576,1384,578.3z M1430.6,563.5c-2.8-1.9-4.3-3.6-5.7-3.6c-1.2,0-2.3,2.2-3.4,3.4c1.2,1.1,2.3,2.9,3.7,3.1
			C1426.4,566.6,1427.8,565.1,1430.6,563.5z M1462.2,582.5c-0.3-0.4-0.6-0.8-0.8-1.1c-1.8,1.9-3.8,3.6-5.3,5.7
			c-0.4,0.6,0.4,2.1,0.7,3.3c0.9-0.6,2-1,2.5-1.8C1460.4,586.6,1461.2,584.5,1462.2,582.5z M1462,740.5c0.1,0.8,0.2,1.6,0.3,2.3
			c3.1-0.4,6.2-0.8,9.3-1.2c-0.1-0.8-0.2-1.5-0.3-2.3C1468.2,739.7,1465.1,740.1,1462,740.5z"/>
		<path class="st3" d="M1408.2,448.2c-2.1,1.3-3.8,2.8-5.7,3.6c-2.9,1.2-4.4,2.6-3.1,6c1,2.7-0.6,4.2-3.3,4.2
			c-10.5,0-21,0.1-31.5-0.2c-1.2,0-2.8-2.2-3.4-3.8c-0.6-1.5,0.6-4.2-0.2-4.9c-3.1-2.6-6.6-4.9-10.1-6.8c-3.3-1.8-7.2-2.6-10.3-4.7
			c-2.7-1.8-3.9-4.6-0.9-8c3.2-3.6,3.1-8.2,0.6-12.1c-3-4.5-2.3-8.2,0.5-12.4c2.2-3.4,3.7-7.3,5.5-10.9c5.2,1.8,7.3,5.3,6.6,10.8
			c-0.2,1.7-0.7,4.1,0.1,5.2c3.7,5.2,2.4,10-0.4,15c-0.6,1.1-0.8,2.4-1.4,4.6c6.9,0,13.1,0.4,19.3-0.1c3.4-0.3,5.7-6.2,5.4-9.9
			c-0.2-2,0.8-4.7,2.3-5.9c1.2-1,4.4-1.2,5.7-0.3c1.5,1.1,2.9,3.8,2.7,5.7c-0.5,6.3,3,10.7,9.3,10.9c5.2,0.2,10.1-0.1,14.8-3
			c3.5-2.2,7.6-3.6,11.7-4.2c2.5-0.4,6.6,0.6,7.7,2.3c1.1,1.9,0,5.6-1.1,8.2c-0.7,1.6-2.8,2.8-4.5,3.8c-3.5,2-6.6,4-8.1,8.2
			C1415.2,452.9,1412.4,452.5,1408.2,448.2z M1412.9,449.4c0.8-0.7,1.5-1.2,2.1-1.9c2.4-2.5,4.8-5.1,7.3-7.6c1.2-1.1,3.1-1.7,3.9-3
			c1.3-2.1,1.9-4.5,2.8-6.8c-2.3-0.5-4.8-1.9-6.8-1.4c-4.6,1.3-8.8,4.2-13.4,5.3c-5.2,1.3-10.7,2-16.1,1.7c-2.3-0.1-4.5-3.4-6.5-5.4
			c-3.7-3.7-7.5-3.9-10.2,0.9c-2.6,4.4-5.9,5.2-10.3,5c-4.3-0.2-8.7-0.1-13.3-0.1c2.7,11.2,8.5,15.8,18.3,15.7c4.2,0,8.4-0.4,12.5,0
			c13,1.3,23.6-1.8,30.2-14.3c1.3-2.4,4.9-3.7,7.6-5.2c1.2-0.6,2.9-0.1,4.4-0.1c0.2,0.5,0.4,1.1,0.7,1.6c-3,2.1-6.1,4.2-9.1,6.3
			C1412.3,443.5,1411.2,445.8,1412.9,449.4z M1344.9,433.5c-0.1,0,1.3,0.4,2.4-0.1c3.5-1.5,6.4-12.9,4.9-16.4
			c-1.1-2.5-1.4-5.4-1.5-8.2c-0.1-2.8,0.7-5.6-2.9-7.1c-2.3,3.9-4.8,7.4-6.6,11.3c-0.7,1.5-0.4,3.8,0,5.7
			C1342.2,423.3,1343.5,427.8,1344.9,433.5z M1397.6,459.8c-0.9-4.8-3.2-5.8-6.4-5.7c-7.3,0-14.6,0-21.9,0.1c-0.8,0-1.9-0.1-2.4,0.3
			c-1.2,0.9-2.2,2.1-3.3,3.2c1.3,0.7,2.5,2,3.8,2.1c5.3,0.2,10.6,0.1,15.9,0.1C1387.8,459.8,1392.4,459.8,1397.6,459.8z
			 M1340.3,437.5c2.7,4.8,6.9,6,11.9,6.3C1350.9,435.8,1348.4,434.4,1340.3,437.5z M1376.2,421.9c2.1,1.7,3.6,3.7,4.6,3.4
			c1.4-0.3,2.5-2.2,3.7-3.5c-1.2-1.1-2.3-3-3.5-3.2C1379.9,418.6,1378.5,420.3,1376.2,421.9z"/>
		<path class="st3" d="M1348.1,329c5.6,3,7.1,5.9,5.9,12.1c-0.3,1.4-0.5,3.3,0.2,4.2c4,5.1,2.5,9.9-0.2,14.9
			c-0.6,1.1-0.9,2.4-1.5,4.4c6.8,0,13,0.3,19.2-0.1c3.4-0.3,5.8-6,5.7-9.6c-0.1-2.2,0.8-5,2.3-6.4c1.1-1,4.6-1,5.7,0
			c1.5,1.4,2.4,4.2,2.4,6.4c0,3.2,2.6,9.2,5.8,9.5c5.4,0.4,10.9,2.3,16.4-1.1c4.3-2.7,9.4-4.5,14.3-5.5c2.3-0.5,6.5,1,7.5,2.8
			c1,1.8-0.4,5.5-1.7,7.9c-0.9,1.7-3.3,2.6-4.9,4.1c-2.4,2.3-4.5,5-7.1,7.1c-1.5,1.3-4.8,2.9-5.3,2.4c-3-2.8-5.2-1.6-7.8,0.3
			c-1.4,1.1-3.2,1.7-5,2.7c0.3,1.4,1.1,2.8,0.7,3.8c-0.5,1.5-1.9,3.9-2.9,3.9c-10.8,0.3-21.6,0.3-32.4,0c-1,0-2.5-1.8-2.8-3
			c-0.4-1.8,0.8-4.7-0.1-5.5c-3.2-2.8-6.9-4.9-10.6-7.1c-3.6-2.1-7.7-3.7-11-6.2c-1.1-0.8-1.3-4.6-0.3-5.9c3.2-4.4,3.3-8.7,0.8-13
			c-2.5-4.2-1.7-7.8,0.6-11.6C1344,336.9,1345.9,333.1,1348.1,329z M1425.9,362.5c0.4,0.7,0.8,1.3,1.2,2c-1.7,1.6-3.4,3.2-5.2,4.7
			c-2.6,2.3-5.5,4.3-7.9,6.8c-0.8,0.8-0.3,2.7-0.4,4.2c1-0.8,2.2-1.4,3.1-2.3c1.9-1.9,3.6-4.2,5.6-6c1.7-1.5,4.4-2.2,5.7-4
			c1.3-1.7,1.5-4.3,2.2-6.5c-2.1-0.5-4.5-2-6.2-1.5c-4.9,1.5-9.7,3.5-14.3,5.8c-7.2,3.5-16.6,2.1-21.9-3.8c-3.8-4.2-7.1-4.2-10.5,1
			c-2.4,3.6-5.1,4.7-9.1,4.5c-4.7-0.3-9.4-0.1-14.3-0.1c2.1,10.6,8.1,15.7,17.4,15.8c5.8,0,11.7-0.5,17.5,0.1
			c10.8,1,18.8-2.8,24.3-12.2c1.1-1.8,2.6-3.7,4.4-4.7C1420,364.6,1423,363.7,1425.9,362.5z M1349.2,332.7
			c-2.4,3.9-4.9,7.4-6.7,11.2c-0.8,1.6-0.3,4,0,6c0.6,4,1.5,7.9,2.3,11.8c0.2,0.9,0.2,2.3,0.7,2.6c0.9,0.4,2.4,0.5,3.3,0.1
			c4-1.9,6.3-12.9,4.2-16.8c-1-1.9-1.4-4.6-0.9-6.7C1352.9,337.3,1352.5,334.8,1349.2,332.7z M1397.9,390.3c0.3-0.6,0.6-1.2,0.9-1.8
			c-1.7-1.1-3.3-3.1-5-3.2c-8.3-0.3-16.6-0.2-24.8-0.1c-3,0-4.4,1.6-4.2,5.1C1376,390.3,1387,390.3,1397.9,390.3z M1353.7,375.3
			c-1.7-8.5-4.2-9.9-12.1-6.8C1343.9,373.9,1348.8,374.3,1353.7,375.3z M1382.6,348.1c-1.5,2.3-3.2,3.8-3.1,5.1
			c0.1,1.2,2,2.3,3.1,3.5c1.2-1.1,3.2-2.2,3.3-3.4C1386,351.9,1384.2,350.5,1382.6,348.1z"/>
		<path class="st3" d="M1651.1,721.2c-2,1.3-3.5,2.7-5.3,3.4c-3,1.3-5.3,2.6-3.7,6.6c0.3,0.8-1.9,3.6-3,3.6c-10.5,0.3-21,0.3-31.5,0
			c-1.2,0-2.9-1.8-3.5-3.1c-0.8-1.8,0.1-4.8-1-5.9c-2.8-2.6-6.3-4.7-9.7-6.6c-2.4-1.3-5.4-1.7-7.9-3c-5-2.7-4.9-5.6-2.6-10.7
			c1.4-3,1.5-7.8,0.1-10.7c-2.4-4.9-2.1-8.6,0.8-12.9c2.2-3.2,3.6-7,5.3-10.6c5.1,1.4,7.5,5.6,6.7,11c-0.3,2.2,0.7,4.5,0.8,6.8
			c0.2,3.3,0.6,6.7,0.1,10c-0.3,2.3-1.9,4.4-3.4,7.5c7.3,0,13.7,0.3,20-0.1c3.3-0.3,5.4-5.7,5.4-9.3c0-2.3,1.1-5.1,2.7-6.7
			c1-1,4.7-1,5.7,0.1c1.5,1.5,2.5,4.4,2.1,6.4c-1,5,2.5,8.2,5.3,8.9c4.8,1.2,10.4,0.8,15.4-0.3c5.4-1.2,10.4-4.5,15.8-5.9
			c2.1-0.6,6.3,0.8,7.1,2.4c1,2.1,0.1,5.6-1,8.1c-0.8,1.7-3.1,3-4.9,4c-3.4,1.9-6.2,3.9-7.8,7.9
			C1657.7,726.2,1655.1,725.7,1651.1,721.2z M1655.8,722.4c0.8-0.7,1.5-1.2,2.1-1.9c2.5-2.5,4.8-5.1,7.3-7.6c1.2-1.1,3.1-1.7,3.9-3
			c1.1-2,1.6-4.4,2.3-6.6c-2.2-0.5-4.7-2-6.6-1.4c-4.7,1.4-9.3,3.6-13.8,5.7c-7.2,3.4-16.4,1.9-21.6-3.6c-4.6-4.8-7.6-4.8-11,0.9
			c-2.1,3.4-4.5,4.4-8.2,4.2c-4.7-0.2-9.5,0-14.3,0c0.5,9.2,6.6,15.5,14.6,15.7c8.5,0.2,17,0,25.5-0.1c7,0,12.5-3,16.3-9
			c1.4-2.2,2.9-4.5,4.8-6.4c3-3,6.6-5.1,11.4-3.2c-2.6,2.9-5.6,5-8.6,7.1C1655,716.7,1654,718.7,1655.8,722.4z M1592.3,674.8
			c-0.6,0.1-1.1,0.1-1.7,0.2c-2.1,3.4-4.4,6.6-6.2,10.1c-0.8,1.5-1.2,3.6-0.9,5.2c1.1,5.4,2.6,10.6,4.1,16.8c1-0.5,3.5-0.9,4-2.1
			c1.8-4.5,6.8-8.6,3.5-14.2c-1.9-3.1-2.4-5.9-1.6-9.4C1593.9,679.4,1592.8,677,1592.3,674.8z M1640.2,732.7
			c-0.6-4.7-3.1-5.6-6.2-5.6c-6.3,0-12.6,0-18.9,0c-2.1,0-4.4,0-6.4,0.6c-0.9,0.3-1.7,1.9-2,3c-0.1,0.4,1.5,1.8,2.4,1.8
			C1619.3,732.7,1629.5,732.7,1640.2,732.7z M1594.1,718c-0.4-9.1-4-11-12.3-6.8C1586.5,713.8,1590.3,715.9,1594.1,718z M1629,694.8
			c-2.3-1.6-4-3.4-5-3.1c-1.4,0.4-2.4,2.4-3.6,3.8c1.3,1,2.5,2.9,3.9,2.9C1625.5,698.4,1626.8,696.5,1629,694.8z"/>
		<path class="st3" d="M1586.2,467c5.3,1.7,7.5,5.6,6.6,11.2c-0.3,2.2,0.6,4.5,0.8,6.8c0.3,3,0.9,6.1,0.4,9c-0.4,2.7-2,5.2-3.4,8.6
			c6.9,0,13.1,0.3,19.3-0.1c3.2-0.2,6.1-6.3,5.9-9.7c-0.1-2.2,0.6-5.1,2-6.4c1.3-1.1,4.9-1.1,6.2,0c1.5,1.3,2.3,4.2,2.3,6.4
			c0,3.2,2.8,9.4,6,9.5c5.2,0.2,10.5-0.3,15.5-1.5c5.1-1.2,9.8-4.2,14.9-5.4c2.2-0.5,6.5,0.9,7.1,2.4c0.9,2.4,0.1,6.1-1.3,8.5
			c-1.2,2.1-4.3,3-6.3,4.7c-1.8,1.4-3.8,2.9-4.8,4.8c-3.2,5.9-4.6,6.2-9.4,1.5c-3.1,1.8-6.2,3.6-9.7,5.6c0.2,1,0.5,2.2,0.8,3.5
			c0.7,2.9-0.2,4.6-3.3,4.6c-10.3-0.2-20.6-0.3-30.9-0.8c-1.3-0.1-3.1-1.9-3.7-3.3c-0.7-1.4,0.5-4.2-0.3-4.9
			c-3.1-2.6-6.6-4.8-10.1-6.8c-3.3-1.8-7.3-2.6-10.2-4.8c-2.7-1.9-4.3-4.8-0.8-8.4c3.2-3.3,3-7.9,0.5-11.6
			c-3.1-4.7-2.1-8.6,0.6-12.9C1582.9,474.2,1584.4,470.6,1586.2,467z M1651.8,517.7c0.5,0.2,1.1,0.5,1.6,0.7c1.4-2.3,2.5-5,4.4-6.8
			c2.1-2,5.1-3.1,7.5-4.9c2.5-1.9,4.9-4.6,2.8-7.5c-1.1-1.4-4.9-1.9-7-1.3c-4.4,1.3-8.7,3.3-12.8,5.5c-7,3.6-16.7,2.2-22-3.5
			c-4.4-4.7-7-4.7-10.7,0.8c-2.4,3.5-5.1,4.7-9.1,4.5c-4.5-0.2-9.1-0.1-13.8-0.1c1.5,9.9,7.9,15.7,16.2,15.7
			c8.2,0,16.3-0.1,24.5-0.1c5.1,0,9.5-1.7,12.8-5.6c2.4-2.8,4.5-5.8,6.7-8.6c3.6-4.4,8.1-6.1,13.4-4.1c-3.5,2.5-6.6,4.5-9.4,6.9
			C1654.4,511.5,1650.3,513.3,1651.8,517.7z M1584.6,502.6c0.3,0,1.9,0.2,3.1-0.4c3.5-1.9,5.8-13.1,4.2-16.7c-1-2.2-0.9-4.9-1.3-7.3
			c-0.4-2.7-0.8-5.4-1.2-8c-3.7,3.8-6.1,7.3-8,11.2c-0.8,1.6-0.7,3.9-0.4,5.7C1581.8,491.9,1583.1,496.7,1584.6,502.6z
			 M1636.7,528.7c0.3-5.2-2.7-6.4-6.2-6.4c-7.6,0.1-15.2,0.5-22.8,0.8c-0.5,0-1.1,0-1.4,0.3c-1,1-1.8,2.1-2.8,3.2
			c1.1,0.7,2.2,2,3.3,2C1616.6,528.8,1626.3,528.7,1636.7,528.7z M1580.3,505.7c2.4,5.3,6.5,7.4,11.7,6.2
			C1590.4,504.8,1589.6,504.3,1580.3,505.7z M1620.9,486c-1.6,2.3-3.5,3.9-3.2,4.9c0.4,1.4,2.4,2.5,3.7,3.7c1.1-1.3,2.9-2.5,3-3.8
			C1624.4,489.5,1622.6,488.2,1620.9,486z"/>
		<path class="st3" d="M1340.2,599.4c5.9,2.5,7.6,5.8,6,12.3c-0.3,1.2-0.6,3,0,3.7c4.5,5.2,2.5,10.2-0.1,15.3
			c-0.5,1-0.8,2.1-1.4,3.9c7,0,13.6,0.8,19.9-0.4c2.8-0.5,6.4-3.8,4.9-8.9c-0.5-1.8,0.8-4.9,2.3-6.3c1.1-1,4.6-1.2,5.8-0.2
			c1.5,1.3,3,4.4,2.5,6.2c-1.4,5.4,2.4,8.4,5.5,9.1c5.2,1.1,10.8,2.6,16.4-0.6c4.8-2.7,10.4-4.3,15.8-5.6c1.9-0.4,5.5,1.1,6.2,2.6
			c0.9,2,0.1,5.1-0.9,7.3c-0.8,1.8-3.1,2.9-4.7,4.3c-2.8,2.7-5.8,5.2-8.1,8.2c-2.6,3.4-4.6,3.3-8.5-0.9c-3.1,1.9-6.2,3.8-9.6,5.9
			c0.1,0.6,0.2,1.6,0.4,2.5c0.9,3.4-0.3,5.1-3.9,5.1c-10,0-20,0.1-30-0.2c-1.4,0-3.6-1.9-3.8-3.2c-0.8-5.9-4.6-10.2-10.7-12.2
			c-3.7-1.2-7.4-2.9-10.5-5.2c-2.6-1.9-3.8-4.7-0.5-7.9c3.7-3.6,2.2-8.2,0.2-12.1c-2.3-4.3-1.7-7.8,0.8-11.6
			C1336.5,607.2,1338.2,603.4,1340.2,599.4z M1418.7,633.6c0.3,0.5,0.6,1,1,1.6c-2.4,1.8-4.9,3.5-7.2,5.4c-2.4,2-4.8,4-6.9,6.4
			c-0.5,0.6,0.2,2.2,0.3,3.4c0.9-0.5,2.5-0.9,2.6-1.6c1.2-4.4,4.8-6.1,8.3-8.1c1.7-1,3.5-2.3,4.4-3.9c0.9-1.5,1.3-3.9,0.6-5.4
			c-0.5-1-3.2-1.8-4.7-1.5c-3.5,0.7-7.3,1.6-10.3,3.5c-5.6,3.4-11.4,4.1-17.7,3.9c-3.6-0.1-6.2-0.9-8.4-4.1
			c-3.9-5.5-8.2-5.4-11.8,0.2c-1.9,3-4.1,3.9-7.4,3.8c-4-0.2-8-0.3-12,0.1c-1.1,0.1-3,2.1-2.9,3.1c0.7,6.3,8.5,13.1,15,13.2
			c7.3,0.1,14.6,0.2,21.9,0c8.6-0.2,16-2.9,20.4-11c0.9-1.6,2.1-3,3.3-4.4C1410.5,634.9,1414.2,633.2,1418.7,633.6z M1338.4,635.7
			c0.8-0.4,3.2-0.8,3.8-2c2.2-4.7,6.7-9.2,3.5-14.8c-1.7-3.1-2.3-5.6-1.3-8.9c0.8-2.8,0.4-5.6-2.9-6.9c-2.1,3.3-4.3,6.2-5.8,9.5
			c-0.9,1.9-1.3,4.5-0.9,6.6C1335.6,624.4,1337,629.3,1338.4,635.7z M1356.6,658.6c0.3,0.7,0.7,1.5,1,2.2c9.4,0,18.9,0.1,28.3-0.1
			c1.5,0,3-1.5,4.6-2.3c-1.5-1.1-3-2.9-4.5-3c-8-0.3-16-0.3-23.9,0C1360.2,655.5,1358.4,657.5,1356.6,658.6z M1334.2,638.1
			c1.4,4.8,5,7,11.7,6.9C1344.6,637,1342.4,635.7,1334.2,638.1z M1375.2,618.3c-1.7,2.1-3.5,3.3-3.5,4.6c0,1.2,1.8,2.5,2.8,3.7
			c1.3-1.1,3.4-2,3.8-3.4C1378.5,622.3,1376.7,620.6,1375.2,618.3z"/>
		<path class="st3" d="M1591.6,330.3c5.3,2.3,7.1,5.5,6.4,11.2c-0.2,1.7-0.8,4.1,0.1,5.2c3.6,4.6,2.7,8.9,0.1,13.4
			c-0.8,1.4-1.1,3-1.7,4.8c7,2.8,13.7,1.4,19.9-0.1c2.1-0.5,3.3-5.3,4.7-8.3c1.1-2.4,1.3-5.3,2.8-7.3c0.7-0.9,4.6-0.7,5.3,0.2
			c1.4,2,2.1,4.9,2.1,7.4c0,3.2,4,8.6,7.7,8.9c5.9,0.4,11.6,1.2,17.1-2.7c3.5-2.5,8.3-3.6,12.6-4.3c2.1-0.3,5.6,1.2,6.6,2.9
			c1,1.8,0.1,5.2-1,7.3c-1,1.9-3.5,2.9-5.2,4.5c-2.5,2.4-5.2,4.8-7.3,7.6c-2,2.6-3.9,3.9-6.6,1.5c-4.4-3.8-6.2,2.1-9.5,2.5
			c-0.7,0.1-1.6,2.9-1.4,4.3c0.7,3.5-0.6,4.7-3.8,4.6c-10.2,0-20.3,0.1-30.5-0.2c-1.4,0-3.3-1.8-3.9-3.1c-0.7-1.6,0.6-4.5-0.3-5.4
			c-3-2.7-6.5-5-10.1-7c-2.9-1.6-6.4-2.1-9.1-3.8c-4.1-2.5-4.3-5.4-1.6-9.4c2.5-3.8,2.8-8.1,0.3-11.8c-3-4.4-2.1-7.9,0.4-12
			C1587.9,338.1,1589.5,334.4,1591.6,330.3z M1669.8,363.6c0.4,0.8,0.8,1.5,1.2,2.3c-2.3,1.8-4.5,3.6-6.8,5.5
			c-2.3,1.9-4.7,3.7-6.7,5.9c-0.7,0.7-0.1,2.6-0.1,3.9c1-0.7,2.2-1.3,3.1-2.2c1.8-1.8,3.2-4,5.1-5.7c2-1.7,4.8-2.6,6.5-4.5
			c1.3-1.5,1.4-4.1,2-6.2c-2.1-0.6-4.5-2.1-6.2-1.6c-4.9,1.4-9.7,3.5-14.3,5.7c-7,3.4-16.8,2.1-22-3.4c-3.9-4.1-7.3-4.3-10.2,0.3
			c-2.7,4.2-6,5.1-10.5,4.8c-4.3-0.3-8.7-0.1-13.3-0.1c2.7,11.4,8.8,16.5,18.8,16.5c5.7,0,11.3,0.1,17,0c9.5-0.1,17.6-2.8,22.7-11.7
			c1.3-2.3,3.2-4.4,5.3-5.8C1663.8,365.5,1666.9,364.8,1669.8,363.6z M1594.9,333.8c-0.7,0.1-1.3,0.1-2,0.2c-2,3.2-4.5,6.3-5.8,9.7
			c-0.9,2.4-0.4,5.5-0.1,8.3c0.4,3.5,1.1,7,1.8,10.5c0.3,1.4,0.9,2.7,1.4,4c1.3-0.8,3-1.3,3.8-2.4c1.4-2,2-4.5,3.2-6.7
			c1.8-3.3,1.6-6.1-0.6-9.2c-1.1-1.6-0.6-4.2-0.8-6.4C1595.4,339.1,1595.2,336.5,1594.9,333.8z M1641.8,391.2
			c0.3-0.6,0.6-1.2,0.9-1.8c-1.9-1.1-3.8-2.9-5.8-3c-7.8-0.3-15.7-0.1-23.5-0.1c-2.9,0-4.7,1.2-4.7,5
			C1619.9,391.2,1630.9,391.2,1641.8,391.2z M1585.2,369.5c3,5.2,7.4,6.4,12.6,6.9C1595.2,367.7,1593.4,366.7,1585.2,369.5z
			 M1631.2,354.6c-2.2-1.9-3.7-4.1-4.7-3.9c-1.5,0.3-2.6,2.2-3.9,3.5c1.2,1.1,2.3,2.9,3.6,3.2C1627.4,357.6,1628.9,356,1631.2,354.6
			z"/>
		<path class="st3" d="M1403.2,721c-2.8,1.5-5.5,2.6-7.7,4.3c-1,0.8-1.5,3-1.3,4.5c0.6,3.1-0.4,4.4-3.5,4.4c-10.2,0-20.3,0-30.5,0
			c-3.5,0-4.7-1.4-4.1-5c0.3-1.5-0.6-3.7-1.8-4.8c-3.6-3.5-7.8-5.8-12.8-7.1c-2.9-0.8-5.6-3.3-7.7-5.7c-0.9-1-0.7-4.1,0.3-5.2
			c3.5-4.3,3.4-8.7,0.7-12.9c-2.4-3.8-2.1-7,0.1-10.7c2.3-3.9,4.2-8.1,6.4-12.2c4.8,1.4,7.1,5.3,6.6,11c-0.2,2.4,0.9,4.9,1.1,7.4
			c0.2,2.9,0.6,5.8,0.1,8.6c-0.4,2.4-1.9,4.5-3.3,7.8c3.1,0.5,5.6,1.3,8.1,1.3c3.3,0.1,6.6-0.4,9.9-0.7c4.5-0.4,7.4-4.9,7-9.5
			c-0.2-2.1,0.7-5.1,2.2-6.4c1.3-1.1,4.9-1,6.2,0c1.5,1.2,2.2,4.2,2.1,6.4c-0.3,4,3.3,9.1,7.8,9.4c5.9,0.3,11.5,1.2,17.1-2.8
			c3.6-2.5,8.6-3.3,13.2-4.1c1.8-0.3,5.2,1.1,5.7,2.6c0.8,2.1,0.1,5.1-0.8,7.4c-0.7,1.7-2.7,3-4.3,4c-3.6,2.2-6.7,4.3-8.7,8.5
			C1409.3,726.1,1406.1,723.6,1403.2,721z M1348.9,715.8c4.2,4.2,8,9,14.8,8.9c7-0.1,14,0,21,0c8.8-0.1,16.2-3,21-11.1
			c1.5-2.5,3.6-4.8,5.9-6.7c2.5-2,5.5-3.5,9.7-1.2c-2.7,2.1-4.9,3.8-7,5.6c-2.4,2-4.8,4-7,6.3c-0.6,0.7-0.1,2.3-0.2,3.5
			c1-0.5,2.8-0.9,3-1.6c0.9-4.4,4.5-5.8,7.8-7.8c1.7-1,3.6-2.1,4.7-3.6c1-1.5,1.9-4.3,1.1-5.3c-1-1.3-3.8-2.3-5.4-1.9
			c-4.9,1.4-9.8,3.3-14.3,5.6c-7,3.5-17.5,2.1-22.6-3.4c-3.7-4-6.8-4.3-9.9,0.1c-3,4.3-6.7,5.3-11.5,5c-4-0.3-8.1-0.1-12.6-0.1
			c0.6,3.2,1,5.2,1.4,7.3c-0.6-0.7-1.5-1.3-1.9-2.1c-2.8-5.7-5.2-6.6-11.1-4C1337.8,714.6,1343.2,717.2,1348.9,715.8z M1339.9,706.5
			c0.6-0.3,2.5-0.8,3.7-1.9c1.1-1.1,1.4-3,2.2-4.4c2.6-4.3,3.5-8.3,0-12.8c-0.9-1.2-0.4-3.7-0.2-5.6c0.3-3,0.4-5.8-2.5-8.1
			c-2.3,3.8-4.7,7.1-6.4,10.6c-0.9,1.8-1.3,4.2-0.9,6.1C1336.8,695.4,1338.3,700.5,1339.9,706.5z M1391.8,731.8
			c0.3-0.8,0.6-1.7,0.9-2.5c-2.1-1-4.1-2.6-6.3-2.9c-3.6-0.5-7.3-0.2-11-0.2c-4.3,0-8.7-0.2-13,0.2c-1.4,0.1-2.5,2.1-3.8,3.2
			c1.3,0.7,2.5,1.8,3.8,2c2.5,0.3,5,0.1,7.5,0.1C1377.3,731.8,1384.5,731.8,1391.8,731.8z M1376.7,699.2c1.4-2.3,3-3.8,2.7-4.9
			c-0.3-1.3-2.1-2.4-3.2-3.6c-1.2,1.3-3.1,2.5-3.4,4C1372.6,695.6,1374.7,697,1376.7,699.2z"/>
		<path class="st3" d="M1593.9,570.6c7.2,0,13.3,0.3,19.4-0.1c3.5-0.3,6-6,5.9-9.9c-0.1-2.2,0.9-5,2.5-6.4c1.1-1,4.6-0.9,5.7,0.1
			c1.5,1.5,2.3,4.3,2.3,6.5c-0.1,3.5,2.8,9.6,6.3,9.6c5.3,0.1,10.8-0.7,15.9-1.9c4.6-1.1,8.9-4,13.5-4.9c2.6-0.5,6.5,0.6,8.2,2.5
			c2.6,2.9,0.5,6.3-2,8.8c-1.5,1.5-3.6,2.4-5.2,3.9c-2.2,2.1-4.5,4.1-6.1,6.6c-2.5,4.1-4.2,4.2-9-0.2c-3.1,1.8-6.2,3.7-9.5,5.7
			c0.2,1,0.4,2.1,0.7,3.2c0.9,2.9-0.3,4.8-3.2,4.7c-10.8-0.1-21.6-0.4-32.4-0.9c-0.8,0-1.5-2.8-2.2-4.3c-0.7-1.6-0.9-3.5-2-4.7
			c-3.4-3.8-7.7-6-12.7-7.2c-2.6-0.6-5.1-2.6-7-4.5c-1.9-1.9-2.7-4.1-0.1-6.9c3.2-3.6,3-8.2,0.5-12.1c-2.6-4.1-2.1-7.7,0.3-11.6
			c2.3-3.8,4.2-7.8,6.3-11.7c5,2.1,7.1,5.6,6.3,10.9c-0.2,1.7-0.9,4.1,0,5.2c3.9,5,2.7,9.6-0.1,14.3
			C1595.3,566.6,1594.9,568.1,1593.9,570.6z M1596.8,579.8c0.7,0.7,1.6,1.2,2.2,2c3.6,5.3,8.6,7.5,15,7.1c5.6-0.3,11.3-0.5,17,0
			c10.6,0.9,18.4-2.8,23.8-12c1.2-2.1,3-4.1,5.1-5.4c2.4-1.5,5.4-2,8.1-2.9c0.4,0.8,0.8,1.5,1.2,2.3c-2.8,2.1-5.7,4-8.3,6.3
			c-2.2,1.9-4.2,4.2-6,6.4c-0.3,0.4,0.5,1.7,0.8,2.5c0.8-0.4,2.3-0.6,2.4-1.1c1.2-5.8,6.8-6.8,10.3-10.1c1.9-1.8,4.3-5.2,3.8-7.1
			c-1.1-3.8-5.2-2.9-8.1-1.8c-4.2,1.5-8.2,3.5-12.3,5.5c-7.6,3.6-16.4,2.1-21.9-3.9c-3.9-4.2-7.3-4.2-10.5,0.8c-2.2,3.5-4.9,5-9,4.8
			c-4.7-0.3-9.4-0.1-14.3-0.1c0.4,2.9,0.6,4.7,0.9,6.4c-5.5-7-6.8-7.6-12.7-5.2C1586,579.1,1591.4,581.4,1596.8,579.8z
			 M1588.5,570.6c0.5-0.2,2.6-0.5,3.3-1.6c1.8-2.9,3.4-6.1,4.4-9.4c0.5-1.5,0.1-3.8-0.8-5.1c-2-2.8-2.9-5.4-1.4-8.7
			c1.3-3,0.1-5.3-2.9-7.1c-2.3,3.7-4.6,6.9-6.4,10.4c-0.8,1.6-1.2,3.9-0.8,5.6C1585.1,559.6,1586.7,564.4,1588.5,570.6z
			 M1640.4,596.7c-0.3-4.8-2.6-6.3-5.9-6.4c-7.1-0.1-14.3-0.2-21.4,0c-1.8,0.1-4,1-5.3,2.2c-1.7,1.6-2,4,1.3,4
			C1619.3,596.8,1629.6,596.7,1640.4,596.7z M1629.6,558.6c-2.6-1.6-4.1-3.2-5.2-3c-1.3,0.2-3.3,2.1-3.2,3.2c0,1.2,1.9,3.4,3,3.4
			C1625.5,562.2,1626.9,560.5,1629.6,558.6z"/>
		<path class="st3" d="M1650.9,448.3c-3.2,1.8-6.3,3.6-9.7,5.5c0.3,1,0.6,2.1,0.9,3.2c1,3.5-0.4,5-3.9,4.9
			c-9.8-0.3-19.6-0.5-29.4-0.7c-3.6-0.1-5.3-1-4.4-5.1c0.3-1.3-0.8-3.2-1.8-4.3c-3.5-3.9-8.1-5.9-13.2-7.2c-3-0.8-5.6-3.8-7.9-6.3
			c-0.7-0.7-0.5-3.5,0.4-4.3c4-4,3.9-8.5,1.4-12.8c-2.8-4.6-2.1-8.3,0.5-12.5c2.1-3.3,3.7-6.9,5.6-10.6c4.8,0.8,7.5,5.1,6.7,10.7
			c-0.3,2.2,0.7,4.6,0.8,6.8c0.2,3.3,0.5,6.8,0.1,10c-0.3,2.4-1.9,4.6-3.2,7.6c7.1,0,13.8,0.9,20-0.4c3-0.6,6.4-4.4,5.2-9.5
			c-0.4-1.9,0.8-4.9,2.3-6.3c1.1-1,4.6-1,5.8,0c1.5,1.4,2.5,4.2,2.5,6.3c0,3.6,2.8,9.8,6.2,9.8c5.2,0.1,10.5-0.5,15.5-1.7
			c4.8-1.2,9.2-3.9,13.9-5.4c3.1-1,6.6-0.8,8.3,2.6c1.8,3.6,0.5,6.9-2.5,9.3c-1.9,1.6-4.3,2.6-6.3,4.1c-1.5,1.2-3.2,2.5-4.1,4.1
			C1657.3,452.7,1656.2,453.1,1650.9,448.3z M1655.7,450.5c2.4-3.6,3.6-6.4,5.6-8.3c2.1-2,5-3.2,7.5-4.8c0.1-0.1,0.3-0.2,0.4-0.3
			c0.7-2.4,1.4-4.7,2.2-7.1c-2.1-0.5-4.5-1.9-6.3-1.3c-4.9,1.5-9.6,3.6-14.3,5.8c-7.2,3.4-16.4,1.9-21.5-3.8
			c-3.9-4.4-6.9-4.6-10,0.2c-2.9,4.5-6.4,5.6-11.3,5.3c-4-0.3-8.1-0.1-12.3-0.1c1.5,9.9,7.9,15.7,16.3,15.7c7.8,0,15.6-0.1,23.5,0
			c5.8,0,10.8-2.1,14.6-6.5c2.3-2.6,4.1-5.6,6.4-8.3c3.6-4.3,8-5.7,12.8-3.5c-3.4,2.5-6.6,4.4-9.3,6.9
			C1657.3,442.6,1653.1,444.3,1655.7,450.5z M1587.4,433.7c1.7,0.8,4-0.1,4.9-3.2c1.3-4.5,6.1-8.2,2.6-13.8c-1.2-2-1.5-4.9-1.4-7.3
			c0.1-3.2,0.7-6.2-2.7-8.2c-2.2,3.6-4.5,6.9-6.2,10.4c-0.9,1.8-1.2,4.2-0.8,6.1C1584.7,422.8,1586,427.8,1587.4,433.7z
			 M1640.1,459.7c-0.5-5-2.8-6.4-6.4-6.4c-7.1,0-14.3-0.1-21.4,0c-1.5,0-3.2,0.7-4.5,1.6c-0.7,0.5-1.3,2.1-1,3
			c0.2,0.8,1.6,1.7,2.5,1.7C1619.3,459.8,1629.4,459.7,1640.1,459.7z M1583.4,437c2.1,4.8,6.5,7,11.5,5.9
			C1593.5,435.8,1591.2,434.7,1583.4,437z M1624.2,426.9c1.5-2.2,3.3-3.6,3.1-4.8c-0.1-1.3-2-2.4-3.1-3.6c-1.3,1.2-3.2,2.3-3.5,3.7
			C1620.5,423.2,1622.5,424.7,1624.2,426.9z"/>
		<path class="st3" d="M1397.9,521.6c0.4,1.5,0.7,2.6,0.9,3.7c0.5,3-0.6,4.4-3.7,4.4c-10.2-0.2-20.3-0.2-30.5-0.6
			c-1.4-0.1-3.7-1.8-3.8-2.9c-0.5-5.5-4.9-10.6-10.4-12.2c-3.7-1.1-7.5-2.7-10.7-5c-2.6-1.9-3.2-4.3-0.8-8.1
			c1.9-2.8,1.8-8.1,0.5-11.6c-1.8-4.8-1.8-8.5,0.9-12.7c2.1-3.3,3.8-6.9,5.7-10.5c4.8,1.2,7.4,5.7,6.5,11c-0.4,2.2,0.6,4.5,0.8,6.8
			c0.3,2.8,1,5.8,0.6,8.5c-0.5,2.8-2.2,5.4-3.7,9.1c7,0,13.3,0.4,19.5-0.1c3.5-0.3,5.9-6.2,5.7-10.1c-0.1-2.1,1-4.9,2.6-6.3
			c1.1-1,4.5-0.8,5.8,0.2c1.5,1.2,2.5,4,2.4,6c-0.5,4.9,3.1,10.2,8.1,10.4c5.6,0.3,11.1,0.3,16.3-3c3.6-2.2,7.9-3.7,12.1-4.4
			c2.3-0.4,6.1,0.9,7.1,2.7c1,1.7,0,5.3-1.1,7.6c-1,1.9-3.4,3-5.1,4.6c-2.5,2.4-4.8,5.1-7.5,7.4c-1.3,1.1-4.2,2.7-4.5,2.4
			c-3.9-4.1-6.9-1-10.1,0.8C1400.5,520.4,1399.5,520.9,1397.9,521.6z M1423.8,499.4c0.4,0.8,0.8,1.7,1.2,2.5
			c-2.9,2.1-5.9,4.1-8.6,6.3c-2,1.7-3.8,3.7-5.3,5.7c-0.4,0.5,0.5,1.9,0.8,2.9c0.7-0.2,2-0.4,2-0.7c1.2-6.2,7.3-7.2,11.1-10.7
			c1.8-1.7,2.2-5,3.2-7.6c-2.5-0.5-5.2-1.8-7.3-1.2c-4.4,1.2-8.6,3.4-12.8,5.4c-8,3.8-16.4,2.5-22.4-3.6c-4.2-4.3-7.3-4.3-10.4,0.8
			c-2.4,3.8-5.4,4.9-9.6,4.7c-4.4-0.2-8.9,0-13.4,0c0.5,8.9,7.1,15.6,14.9,15.7c8.2,0.1,16.3,0,24.5,0c7,0.1,12.5-2.8,16.6-8.5
			c2.1-3,4.3-6.1,7.1-8.3C1417.8,501.2,1421,500.6,1423.8,499.4z M1348.8,468.9c-0.5,0.1-1,0.2-1.5,0.3c-2.3,3.8-4.6,7.6-6.7,11.5
			c-0.6,1.2-1,3-0.7,4.3c1.3,5.3,2.9,10.5,4.5,16.5c0,0,1.4,0.3,2.4-0.2c3.8-1.9,6.9-13.2,4.4-16.6c-1.9-2.6-1.9-4.8-1.2-7.8
			C1350.6,474.4,1349.3,471.6,1348.8,468.9z M1363.1,527.7c10.5,0,20.7,0,31-0.1c0.8,0,2.2-0.9,2.2-1.4c0.1-1-0.4-2.4-1.1-3
			c-1.3-0.9-2.9-1.8-4.5-1.8c-7.5-0.2-14.9-0.2-22.4,0C1365.1,521.4,1362.9,522.9,1363.1,527.7z M1350.8,512.5
			c0.3-0.5,0.6-1.1,0.9-1.6c-1.8-7.1-5-8.6-13.2-4.7C1343.2,508.6,1347,510.5,1350.8,512.5z M1385.7,489.7c-2.3-1.5-3.7-3.2-4.9-3.1
			c-1.2,0.1-2.3,2-3.5,3.1c1.2,1.2,2.3,3.2,3.7,3.5C1382.1,493.4,1383.6,491.4,1385.7,489.7z"/>
		<path class="st3" d="M1641.3,658.6c1.1,7.7,1.1,7.7-6.5,7.7c-9,0-18,0.1-27-0.1c-1.4,0-3.3-1.5-3.9-2.8c-0.8-1.6,0.3-4.5-0.7-5.4
			c-3-2.7-6.5-4.8-10.1-6.8c-3.4-1.9-7.4-3-10.5-5.3c-2.4-1.8-3.4-4.4-0.4-7.6c3.2-3.5,2.6-8.2,0.4-12.1c-2.3-4.2-2.1-7.9,0.5-11.7
			c1.2-1.8,2.5-3.6,3.4-5.5c0.9-1.9,1.4-4,2.1-6c6.1,2.3,8.1,6.2,6.7,12c-0.4,1.5-0.6,3.7,0.2,4.6c3.8,4.6,2.5,8.9,0.2,13.5
			c-0.8,1.6-1.4,3.2-2.4,5.7c7.1,0,13.4,0.4,19.6-0.1c3.4-0.3,5.7-6.2,5.6-10.1c-0.1-2.1,1.1-4.9,2.7-6.2c1.2-1,4.5-0.8,5.8,0.3
			c1.5,1.2,2.5,4,2.2,5.9c-0.5,4.9,3.1,10.2,8.1,10.5c5.8,0.4,11.4,0.1,16.8-3.2c3.4-2.2,7.6-3.7,11.6-4.2c2.4-0.3,6.2,1.1,7.4,3
			c1,1.6-0.3,5.3-1.5,7.5c-1,1.9-3.6,2.8-5.3,4.4c-2.4,2.3-4.5,5-7,7.2c-1.4,1.2-4.5,2.8-4.9,2.3c-3.3-3.3-5.9-1.5-8.7,0.4
			C1644.2,657.2,1642.6,657.8,1641.3,658.6z M1666.9,636.5c0.4,0.8,0.8,1.7,1.2,2.5c-2.7,2-5.6,3.9-8.2,6.1c-2,1.7-3.9,3.6-5.5,5.6
			c-0.4,0.6,0.4,2.2,0.7,3.3c0.8-0.6,1.8-1,2.5-1.7c2.5-2.5,4.9-5.1,7.4-7.5c1.1-1,2.9-1.4,3.6-2.6c1.3-2.1,1.9-4.6,2.9-6.9
			c-2.2-0.6-4.7-2.2-6.6-1.7c-4.4,1.2-8.7,3.2-12.9,5.2c-8.7,4.2-16.6,3.2-23.4-3.5c-4.1-4-7.1-3.9-10.1,1c-2.3,3.8-5.3,5.1-9.5,4.9
			c-4.5-0.2-9.1-0.1-13.8-0.1c1.7,10.3,7.8,15.7,16.7,15.7c7.5,0,15-0.1,22.5,0c7.2,0.1,12.9-2.6,17.1-8.5c2.1-3,4.3-6.1,7.1-8.3
			C1660.8,638.2,1664,637.6,1666.9,636.5z M1587.5,638.7c0.9-0.5,3.3-1.1,4-2.5c2.2-4.6,6.5-9.1,2.8-14.7c-1.8-2.6-2.3-4.8-1.1-7.8
			c1.3-3.2,0.2-5.9-2.8-7.7c-2.1,3.4-4.3,6.4-5.8,9.6c-1,2.1-1.7,4.7-1.3,6.9C1584.2,627.7,1585.8,632.5,1587.5,638.7z
			 M1622.3,664.7c4.6,0,9.3,0.1,13.9-0.1c1,0,2.8-0.7,2.9-1.2c0.1-1.1-0.3-2.7-1.2-3.4c-1-0.9-2.6-1.6-4-1.7
			c-7.5-0.2-14.9-0.1-22.4,0c-1.3,0-2.8,0.4-3.7,1.1c-1,0.9-1.3,2.5-1.9,3.7c1.1,0.5,2.2,1.4,3.4,1.4
			C1613.7,664.8,1618,664.7,1622.3,664.7z M1593.7,649.5c0.3-0.5,0.6-1,0.9-1.6c-1.7-7.2-4.6-8.6-13.3-4.9
			C1586.2,645.5,1590,647.5,1593.7,649.5z M1628.7,626.6c-2.3-1.5-3.7-3.1-5-3c-1.2,0.1-2.3,2-3.4,3.1c1.2,1.2,2.4,3.2,3.8,3.4
			C1625.2,630.4,1626.6,628.4,1628.7,626.6z"/>
		<path class="st3" d="M1382.5,324.9c2.5,3.3,5.3,5.4,5,7c-0.4,2.1-3.2,3.8-5,5.7c-1.8-1.9-4.6-3.6-5-5.7
			C1377.2,330.4,1380.1,328.2,1382.5,324.9z M1382.5,327.9c-1.5,2.2-3.1,3.5-2.9,4.5c0.2,1.2,1.9,2.5,3.1,2.9
			c0.6,0.2,2.5-1.8,2.6-2.8C1385.4,331.3,1384,330.1,1382.5,327.9z"/>
		<path class="st3" d="M1623,474.1c-3.2,3.1-5.5,0.4-6.4-1.9c-0.6-1.7,0.2-5,1.6-6.3c2.3-2.1,5.4-1.3,7.2,1.4
			c1.7,2.8,1.6,5.4-2.2,6.5c0.3-2.2,2.5-5-1.2-6.2c-1.1-0.3-3.6,0.8-3.9,1.7C1617.2,473.3,1620.6,473.3,1623,474.1z"/>
		<path class="st3" d="M1376.3,681c-2.5-3.3-4.7-5-5.1-7.2c-0.7-3.3,2-5.7,5-5.3c2,0.3,5.1,3,5.1,4.6
			C1381.3,675.3,1378.8,677.4,1376.3,681z M1376.3,669.2c-1.4,2.1-2.8,3.2-2.8,4.5c0,0.9,1.8,2.9,2.5,2.7c1.3-0.3,3.1-1.6,3.3-2.7
			C1379.4,672.7,1377.8,671.3,1376.3,669.2z"/>
		<path class="st3" d="M1626.4,326c2.4,3.3,5.2,5.5,4.9,7.1c-0.4,2.1-3.3,3.7-5.1,5.6c-1.7-1.9-4.5-3.6-4.8-5.7
			C1621.1,331.4,1623.9,329.3,1626.4,326z M1625.9,337.9c1.7-2.1,3.4-3.3,3.3-4.3c-0.1-1.1-1.8-2.5-3.1-3c-0.6-0.2-2.6,1.6-2.6,2.6
			C1623.4,334.4,1624.7,335.7,1625.9,337.9z"/>
		<path class="st3" d="M1630.6,538.8c-2,1.5-4.1,4.2-6.1,4.3c-1.8,0-4.6-2.8-5.1-4.8c-0.8-3.2,1.9-5.5,5-5.1
			c2.1,0.3,4.1,2.3,6.1,3.5C1630.6,537.4,1630.6,538.1,1630.6,538.8z M1624.7,542.7c1.3-2.2,2.8-3.6,2.6-4.7c-0.1-1-2-2.3-3.3-2.5
			c-0.7-0.1-2.5,1.9-2.4,2.8C1621.8,539.5,1623.2,540.7,1624.7,542.7z"/>
		<path class="st3" d="M1625.2,395.1c1.4,2,4.1,4.1,3.9,6c-0.1,1.9-3.1,3.5-4.9,5.2c-1.8-1.9-4.5-3.5-5-5.6
			c-0.3-1.5,2.3-3.7,3.6-5.6C1623.6,395.1,1624.4,395.1,1625.2,395.1z M1624.2,405.5c1.4-1.9,3-3.2,2.9-4.3c0-1-2-2.8-3-2.7
			c-1.1,0.1-2.9,1.8-3,2.9C1621,402.4,1622.7,403.7,1624.2,405.5z"/>
		<path class="st3" d="M1377.9,404c-3.4-2.1-2.1-4.6-0.1-6.5c2.3-2.3,5.1-2.2,7.4,0.3c2.3,2.5,1.9,5.1-0.6,7.3
			c-2.4,2.1-4.7,2.3-6.4-0.9c2.5,0.1,5.7,1.2,6.2-2.8c0.1-0.9-1.5-2.9-2.5-3C1377.7,398,1378.4,401.6,1377.9,404z"/>
		<path class="st3" d="M1625,600.1c1.3,1.9,4.1,4.1,3.7,5.6c-0.5,2.1-3.1,4.8-5.1,5.2c-1.4,0.3-4.8-2.9-4.9-4.7
			c-0.1-2,2.6-4.1,4-6.1C1623.5,600.1,1624.2,600.1,1625,600.1z M1623.8,610.7c1.3-2.2,2.8-3.6,2.6-4.7c-0.2-1.1-2-2-3.1-3
			c-1,1.1-2.7,2.3-2.7,3.4C1620.6,607.5,1622.3,608.7,1623.8,610.7z"/>
		<path class="st3" d="M1388.1,468.7c-3.3,2.6-5.3,5.5-7,5.3c-2.1-0.3-5-2.8-5.5-4.9c-0.7-3,1.9-5.6,5.2-5.1
			C1382.9,464.4,1384.7,466.5,1388.1,468.7z M1380.9,464.6c-1.6,2-3.3,3.2-3.2,4.3c0.1,1.2,1.7,2.4,2.7,3.5c1.1-1,2.9-1.9,3.1-3.1
			C1383.6,468.2,1382.1,466.8,1380.9,464.6z"/>
		<path class="st3" d="M1630.2,675.1c-2,1.5-4,4.2-6,4.2c-1.8,0-4.5-2.8-5-4.8c-0.9-3.2,1.7-5.6,4.9-5.2c2.1,0.3,4,2.3,6,3.6
			C1630.1,673.6,1630.1,674.4,1630.2,675.1z M1624,678.7c1.6-1.9,3.3-3.1,3.2-4.2c-0.1-1.1-1.9-2.9-3-2.9c-1,0-2.9,1.7-3.1,2.8
			C1621,675.5,1622.6,676.8,1624,678.7z"/>
		<path class="st3" d="M1374.1,608.7c-1.5-2.1-4-4.1-4.1-6.2c0-1.7,2.7-4.6,4.6-5c3.1-0.7,5.6,1.9,5.2,5c-0.2,2.1-2.4,4.1-3.7,6.1
			C1375.5,608.6,1374.8,608.6,1374.1,608.7z M1379.4,602.3c-2.2-1.3-3.6-2.8-4.6-2.7c-1.2,0.2-2.1,2-3.2,3.1c1.2,1,2.3,2.6,3.5,2.7
			C1376.2,605.5,1377.4,603.8,1379.4,602.3z"/>
		<path class="st3" d="M1443.3,841c-1.1-6.7-3.4-12.6-10.3-15.3c-4.8-1.9-10.7-0.7-14,3.5c-5.2,6.6-8.2,14.1-7.8,22.7
			c0.3,6.5,5.8,11.7,12.2,11.6c1.1,0,2.7-1,3.1-1.9c1.4-3.7,2.5-7.7,3.9-12.3c3.7,1.3,8.5,2.9,12.3,4.2c-1.9,3.1-4.3,5.7-5.3,8.8
			c-1.4,4.2-3.7,5.6-7.8,5c-8.4-1.2-16.5-2.9-22.6-9.4c-7.1-7.5-7.9-18.1-2-27.1c5.5-8.5,17.3-12,27.5-8c2.5,1,4.7,2.5,7,3.8
			c2.6,1.4,5.3,2.7,8.8,4.5c-1,2.8-2.4,6.4-3.7,10C1444.2,841,1443.7,841,1443.3,841z"/>
		<path class="st3" d="M1668.6,784.7c3.7,4.9,7.4,9.8,12,15.9c-3.8-1.5-6-2.6-8.3-3.1c-1.3-0.3-3.2,0.3-4,1.2
			c-0.5,0.6,0.3,2.7,1,3.8c1.4,2.2,3.2,4.2,4.7,6.4c2.3,3.4,4.8,3.4,8,1.1c5.8-4.1,7.9-9.6,7.3-16.9c1.6,2.7,3.4,5.3,4.6,8.1
			c0.4,0.8-0.1,2.8-0.9,3.4c-7.8,6.1-15.8,12.1-23,17.5c-8.2-11.9-15-24.1-26.6-33.1c7.2-5.4,15.1-11.5,23.1-17.3
			c0.8-0.6,3-0.3,3.7,0.4c1.9,2,3.3,4.4,4.8,7.3c-6.6-4.3-12.2-2.3-17.5,1.9c-1.9,1.5-2.5,2.9-0.8,4.9c2.1,2.5,4,5.3,6.1,7.8
			c0.8,0.9,2.6,2.1,3.1,1.8c1.1-0.7,2.2-2.2,2.3-3.5c0.2-2.4-0.4-4.8-0.7-7.3C1668.1,785.1,1668.3,784.9,1668.6,784.7z"/>
		<path class="st3" d="M1609.6,813c-6.8,2.4-8.1,4.3-8,11.7c-5.9-3.9-5.8-8.1,0.3-11.3c6.9-3.7,13.9-7.3,20.7-11
			c7.2-4,9.3-3,10.9,4.7c-3.4-0.5-7.2-1.7-10.9-1.5c-3.2,0.2-4.1,2.5-2.3,5.8c4.7,8.2,9,16.7,13.7,24.9c1.1,1.9,3.4,3.2,5.6,5
			c-4.4,2.4-9.1,5-13.3,7.3c-1-3.6-1.3-7-2.8-9.9C1619.1,829.9,1614.2,821.5,1609.6,813z"/>
		<path class="st3" d="M1535.8,864.5c-0.2,3.6-0.3,7.2-0.8,10.8c-0.2,1.1-1.9,2.7-2.9,2.7c-10.1,0.2-20.2,0.1-29.5,0.1
			c0-5.8,0.1-12.4,0-18.9c-0.1-4.5-0.3-9-0.9-13.4c-0.4-2.8-1.6-5.5-2.5-8.5c3.9,0,9,0,13.2,0c0,6.4-0.1,12.8,0,19.2
			c0.1,4.8,0.7,9.6,0.9,14.4c0.1,3.5,1.7,5,5.3,5.1c9.3,0.2,11.6-1.2,15.1-9.7c0.3-0.7,0.7-1.4,1.1-2
			C1535.1,864.3,1535.5,864.4,1535.8,864.5z"/>
		<path class="st3" d="M1596.4,862.5c-4.9,1.5-10.2,3.1-14.6,4.4c-0.3-2.3,0-4.5-0.9-6c-1.6-2.6-3.3-5.7-7.4-4.1
			c-1.8,0.7-3.8,1.1-5.8,1.7c-3,0.8-5.7,1.6-5.6,5.8c0.1,3.7,0.9,6.3,6.2,5.5c-0.3,0.5-0.5,0.9-0.8,1.4c-3.4,1-6.7,2-9.6,2.9
			c2.3-15.5,4.6-30.8,7.1-47.5c6,7,10.9,12.8,15.9,18.5C1585.9,850.7,1591,856.3,1596.4,862.5z M1566.4,843.2
			c-0.6,0.1-1.1,0.2-1.7,0.3c-0.2,4.2-0.5,8.3-0.7,12.5c3.1-0.6,6.3-1.2,9.4-1.8c0.2,0,0.4-0.5,0.9-1.3
			C1571.7,849.7,1569.1,846.4,1566.4,843.2z"/>
		<path class="st3" d="M1334.5,805.2c7.7-4.7,14.3-8.3,20.4-12.5c1.8-1.2,2.3-4.3,3.5-6.9c1.7,1.3,4.2,3.1,6.5,4.7
			c-13.8,7.8-27.4,15.5-42.3,23.9c3.4-16.5,6.5-31.5,9.8-47.2c3.9,2.8,7.8,5.6,11.4,8.1c-1.5,1.9-3.3,3.3-3.8,5.1
			C1338.1,788.1,1336.5,795.9,1334.5,805.2z"/>
		<path class="st3" d="M1466.6,833.1c5,0.8,10.8,1.6,16.6,2.5c-4,1.9-4.8,5-5.3,8.8c-1,7.7-2.5,15.4-3.5,23.1
			c-0.4,3,0.3,6.1,0.5,9.7c-4.7-0.7-9.9-1.4-14-2c1.3-4,3-7.9,3.7-11.9c1.4-7.3,2.4-14.7,3.2-22.2
			C1468.1,838.6,1467.1,836,1466.6,833.1z"/>
		<path class="st3" d="M1372.9,843.7c-3.6-2-7.6-4.2-11.9-6.5c6.4-4,20.8-30.3,20.3-37.1c4.7,2.5,9.2,4.9,13,7
			C1384.5,817.7,1379.7,830.7,1372.9,843.7z"/>
		<path class="st3" d="M1530.1,732.3c-0.5-0.6-0.9-1.2-1.5-2c-0.5,0.8-0.8,1.2-0.9,1.6c-0.2,1.8,0.2,4.8-0.6,5.3
			c-3.8,1.9-8.2,2.4-11.8-0.4c-1.4-1.1-2.1-3.9-2.1-5.9c0-3.8-3-5.9-8.7-5.3c0.4,0.8,0.6,1.6,1.1,2c2.2,1.9,3.5,3.8,0.7,6.1
			c-2.4,2-4.8,3.8-7.6,0.5c-3.2-3.7-6.8-6.6-12.2-5.5c1.5,0.6,2.9,1.2,5.7,2.3c-3.7,2-6.5,3.5-9.3,5c-0.3-0.3-0.6-0.6-0.9-0.8
			c-0.1-1.9-0.2-3.7-0.3-6.3c-2.6,0.8-5.9,1.7-9.1,2.6c-2.9,0.8-5.7,1.9-8.7,2.2c-4.4,0.3-6.7-2.4-5.6-6.5c1.3-4.9,1.8-9.6-0.2-14.6
			c-0.7-1.9,0.4-5,1.5-7c2.9-5.1,3.7-10.5,3.6-16.3c-0.2-11.3-0.1-22.6,0-34c0-2.5,0.3-4.9,0.4-7.4c-6-0.7-6.3-0.8-5.4-8.3
			c2.9-25.1,5.8-50.1,9.1-75.1c1-7.4,3.1-14.6,4.8-22.4c-4.3-0.3-4-2.7-3-6c2.9-9.9,5.5-19.9,8.3-29.8c4.1-14.6,4.9-29.4,3.7-44.4
			c-0.1-1.3-1.5-2.5-2.3-3.8c-2.3-1.6-4.5-3.2-6.8-4.8c-3.5-7.2-2.6-13.8,2.9-19.7c0.6-0.7,0.9-1.8,1.3-2.6
			c5.4-3.4,6.3-9.3,7.9-14.7c3-4.1,5.4-8.6,9-12.1c4.6-4.6,6.5-4.2,11,0.1c3.3,3.7,7.3,4.2,11.6,2.3c3.2-1.5,6.2-3.5,9.4-5.3
			c7-3.6,12.7-2.2,17.4,4c2.5,3.3,5.9,6,8,9.6c2.2,3.7,3.5,8,4.7,12.2c3.1,10.7,6.6,21.3,8.8,32.2c2,10.1,2.8,20.4,3.6,30.6
			c0.2,2.5-1.3,5.5-2.6,7.8c-7.3,12.8-15.2,25.4-22.1,38.4c-2.6,5-3.3,11-4.8,16.6c-0.2,0.7,0,1.7,0.3,2.4c7.5,14.8,8,31.4,12.4,47
			c3,10.9,5.3,22,7.6,33.1c0.5,2.5-0.1,5.3-1,8c8.1,12,10.1,26.4,13.9,40.1c1.5,5.5,0.3,11.8,0.8,17.6c0.4,5,1,10.1,2.2,14.9
			c2.1,8.6,2.2,8.7-6.5,9c-2.9,0.1-5.8-0.4-8,2.8c-0.8,1.1-4,0.8-6,0.8c-3.1,0-6.3-0.8-9.4-0.5c-1.5,0.2-2.8,2.1-4.2,3.2
			C1537.1,735.6,1533.8,735.6,1530.1,732.3z M1533.2,572.1c1.7-1.6,3.8-3,4.8-4.9c0.7-1.4,0.4-3.7-0.4-5.2c-0.4-0.7-3-0.8-4.2-0.3
			c-1.6,0.7-2.8,2.3-4.1,3.5c-1.9,1.4-3.9,2.8-6,4.3c-0.7-0.8-1.7-1.9-3.3-3.6C1522.3,573.4,1528,575.7,1533.2,572.1z M1542.9,467.7
			c-3.5,5.6-4.1,11.2-2.1,17.1c0.2,0.6,0,1.3-0.1,2c-0.9,8.9-1.8,17.8-2.7,26.8c3.9-6.1,6.3-12.6,9.4-18.7
			C1552.7,484.4,1549.6,475.7,1542.9,467.7z M1502.1,590.8c0.2,0,0.4-0.1,0.7-0.1c0-10.2,0-20.4,0-30.6c-0.2,0-0.4,0-0.7,0
			C1502.1,570.3,1502.1,580.5,1502.1,590.8z M1501.9,598.2c-0.2,0.1-0.4,0.1-0.6,0.2c0,6.8,0,13.6,0,20.4c0.2,0,0.4,0,0.6,0
			C1501.9,611.9,1501.9,605,1501.9,598.2z"/>
		<path class="st3" d="M1432.1,553c5.9-8.6,11.2-17.3,7.7-28.5c-0.5-1.6,0.4-4.6,1.7-5.8c4-3.5,8.6-6.3,12.7-9.6
			c8.1-6.5,16.1-13.3,24.6-20.2c-0.7,4.2-1.1,8.7-2.2,13c-2.9,11.3-6.2,22.4-9.3,33.7c-0.8,3.1-2.7,6.5,1.2,8.9
			c-1.9,8-3.8,16.1-5.7,24.1c-7.8,2.6-14.5,8.6-23.9,6.5c-5.3-1.2-8.9-4.9-8.2-10.4c0.5-3.7,0.7-7.5,1.1-11.3
			C1431.9,553.4,1432.1,553,1432.1,553z"/>
		<path class="st3" d="M1472,453.3c2.3,1.6,4.5,3.2,6.8,4.8c0.2,8.1,0.6,16.2,0.5,24.3c0,1.5-1.6,3.3-3,4.4
			c-10.4,9-20.9,17.8-31.4,26.7c-2.2,1.8-4.6,3.4-6.5,5.4c-1,1.1-2,3.3-1.5,4.3c3.8,7.4,1.4,14.2-1.6,21c-1.3,2.9-2.1,5.9-3.2,8.8
			c0,0-0.2,0.3-0.2,0.3c-1,0.5-1.9,1-2.9,1.6c-0.7-1.8-1.3-3.4-2-5c-1.6-3.5-3.3-7.1-4.9-10.6c-1.2-4.9-1-9.4,2.1-13.8
			c8.9-12.5,17.5-25.1,26.4-37.6c3.7-5.1,7.7-10.1,12.2-14.5c4.9-4.7,7.2-10.2,7.6-16.8C1470.4,455.5,1471.4,454.4,1472,453.3z"/>
		<path class="st3" d="M1525,401.2c-3.1,1.8-6.1,3.8-9.4,5.3c-4.3,2-8.3,1.4-11.6-2.3c0.3-3.3,0.4-6.6,0.9-9.8
			c0.4-3.2-0.2-5.2-3.8-5.7c-1.3-0.2-2.6-0.6-3.8-1c-7.8-2.7-8.3-5.3-2-11c-1.3-0.7-2.5-1.3-4.1-2.1c1-1.3,1.8-2.2,2.6-3.3
			c-1.6-0.8-3.1-1.6-5.1-2.6c4.9-4,7.8-8.3,5.9-14.5c-0.2-0.6,0-1.8,0.3-1.9c4.3-1.4,8.8-3.8,13.1-3.4c3.2,0.3,7,3.5,6.1,8.7
			c-0.6,3.5-0.7,7.2,4.3,7.9c0.7,0.1,1.6,1,1.7,1.6c0.3,3.1,1.1,6.6,0.2,9.4c-1.3,3.7,1,5.9,1.9,8.7c1.3,4.1,2.9,8.1,4,12.2
			C1526.4,398.5,1525.4,399.9,1525,401.2z"/>
		<path class="st3" d="M1542.4,374.3c0.8-1.3,1.7-2.6,3.5-5.4c0.5,1.3,1.4,2.5,1.1,3c-1.8,3-3.6,6-5.9,8.6c-0.7,0.7-3,0.3-4.5-0.1
			c-3-0.7-5.9-2-8.9-2.7c-4.5-1.1-7.1-4.8-5.7-8.9c1.1-3.1-0.7-4.1-2.9-4.6c-3.7-0.8-4.1-3.1-3.7-6.3c0.2-2,0.3-4.8-0.8-6.1
			c-2.8-3.2-6-6.3-11.2-4.6c-2.9,1-6.2,1.8-9.2,1.4c-1.8-0.2-4.2-2.5-4.8-4.3c-0.9-2.8,2.4-2.9,3.9-4.3c4.6-4.2,11-4.1,15.6-7.7
			c3.4-2.7,6-2.8,9,0.6c1.1,1.2,2.9,2.2,4.5,2.4c13.7,2.2,23.1,16.1,20.4,29.9c-0.6,2.8-0.7,5.7-1.1,8.5
			C1541.9,374,1542.2,374.1,1542.4,374.3z M1528.4,350.9c-5.6-0.2-9.5-2.8-10.7-9c0.1,3,0.4,6.4,2.2,7.4c4.6,2.6,8.3,5.8,10.6,10.5
			c0,0.1,0.6-0.2,0.8-0.2C1530.4,357,1529.6,354.4,1528.4,350.9z"/>
		<path class="st3" d="M1396.6,577.2c5.2,0,10-0.2,14.8,0.1c3.7,0.2,6.2-1,8.2-4.2c3.3-5.1,6.7-5.1,10.9-0.8
			c5,5.2,15.1,6.8,21.6,3.5c3.8-1.9,7.7-3.6,12.5-5.9c-0.5,1.9-0.4,2.8-0.9,3.3c-4.1,4.5-8.4,8.9-12.3,13.5c-5,5.8-11.7,6.6-18.5,7
			c-6.1,0.3-12.3,0.1-18.4,0.1C1404.8,593.7,1398.5,588.2,1396.6,577.2z"/>
		<path class="st3" d="M1393.7,542.9c0.3,2.7,0.6,5.4,0.8,8.1c0.1,1.7-0.6,4.2,0.3,5.1c4.1,4.4,2.5,8.5,0.1,12.7
			c-0.8,1.4-1.1,3.3-2.2,4.4c-1.2,1.2-3.1,1.9-3.8,2.3c-1.6-6.3-3.2-11.6-4.2-17.1c-0.3-1.8,0.3-4,1.2-5.6c1.7-3.4,3.9-6.5,5.9-9.8
			C1392.4,543,1393.1,543,1393.7,542.9z"/>
		<path class="st3" d="M1530.1,732.3c3.7,3.3,7,3.3,9.9-1.1c1.2-0.6,2.5-1.2,5.1-2.4c-1.7,3.5-2.8,5.7-3.9,7.9l-0.2,0.3
			c-2,1.4-4,2.9-6,4.3c-0.3,6.1,2.9,8.5,7.9,5.9c2.3-3,4.5-6.2,7-9c2.8-3.1,2-5.6-0.6-8.3c3.6,0.1,6.5,1.2,4.5,5.4
			c-2.3,4.9-4.8,9.8-8.2,14c-3.1,3.9-7,3.3-10.9,0.1C1529,744.7,1528.3,738.9,1530.1,732.3z"/>
		<path class="st3" d="M1440.8,600.7c-10.3,0-20.5,0.1-30.8-0.1c-2.8,0-2.9-2-1.4-3.7c0.7-0.9,2.3-1.5,3.5-1.5c8-0.1,16-0.3,24,0.1
			c1.9,0.1,3.8,2,5.7,3.1C1441.4,599.2,1441.1,600,1440.8,600.7z"/>
		<path class="st3" d="M1482,735.1c0.3,0.3,0.6,0.6,0.9,0.8c2.1-0.2,4.2-0.1,6.2-0.6c1.8-0.5,3.5-1.8,5.6-2.9c0,1.3,0.1,1.9,0,2
			c-8.8,4.6-17.6,9.2-26.5,13.6c-0.6,0.3-1.8-0.7-2.8-1.1c0.6-0.9,0.9-2.3,1.7-2.5c2.5-0.8,5.1-1.2,9.5-2.1
			c-3.4-2.4-5.9-4.1-8.6-5.9C1475.2,731.4,1477.2,731.3,1482,735.1z"/>
		<path class="st3" d="M1539.1,383.1c-2.3,2.8-3.7,4.6-5.2,6.3c-2,2.4-4,3.5-6.3,0c-1.3-2.1-3.3-3.8-4.5-5.9
			c-0.6-0.9-0.5-2.6-0.1-3.7c0.2-0.4,2.1-0.6,3-0.3C1530.4,380.6,1534.6,381.8,1539.1,383.1z"/>
		<path class="st3" d="M1484.1,416.3c-1.6,5.5-2.5,11.3-7.9,14.7c-0.6-0.4-1.8-0.9-1.7-1.2c0.9-5.8,3.3-10.7,8.1-14.3
			C1482.8,415.3,1483.6,416,1484.1,416.3z"/>
		<path class="st3" d="M1384,578.3c9.1-2.2,10.9-1.2,12.6,7.2C1391.5,584.8,1387,583.5,1384,578.3z"/>
		<path class="st3" d="M1542.9,747.1c-5,2.6-8.2,0.2-7.9-5.9C1541.3,739.2,1543.3,740.7,1542.9,747.1z"/>
		<path class="st3" d="M1422,539.3c1.6,3.5,3.3,7.1,4.9,10.6c-0.3,1.4-0.5,2.7-1,5.5C1422.3,549.6,1420.4,544.9,1422,539.3z"/>
		<path class="st3" d="M1430.6,563.5c-2.8,1.6-4.3,3.1-5.4,2.9c-1.4-0.2-2.5-2-3.7-3.1c1.1-1.2,2.2-3.4,3.4-3.4
			C1426.3,559.9,1427.8,561.6,1430.6,563.5z"/>
		<path class="st3" d="M1462.2,582.5c-0.9,2-1.8,4.1-2.9,6c-0.5,0.8-1.7,1.2-2.5,1.8c-0.3-1.1-1.1-2.7-0.7-3.3
			c1.5-2.1,3.5-3.8,5.3-5.7C1461.6,581.7,1461.9,582.1,1462.2,582.5z"/>
		<path class="st3" d="M1462,740.5c3.1-0.4,6.2-0.8,9.3-1.1c0.1,0.8,0.2,1.5,0.3,2.3c-3.1,0.4-6.2,0.8-9.3,1.2
			C1462.2,742,1462.1,741.3,1462,740.5z"/>
		<path class="st3" d="M1541.2,736.6c0.5-0.1,1.1-0.5,1.4-0.4c1.6,0.7,3.2,1.4,4.6,2.4c0.2,0.1-0.5,1.6-0.7,2.5
			c-1.4-0.7-2.8-1.2-4.1-2.1c-0.6-0.4-0.9-1.4-1.3-2.1C1541,736.9,1541.2,736.6,1541.2,736.6z"/>
		<path class="st3" d="M1412.9,449.4c-1.7-3.7-0.6-5.9,4.1-9.1c3-2.1,6.1-4.2,9.1-6.3c-0.2-0.5-0.4-1.1-0.7-1.6
			c-1.5,0-3.2-0.5-4.4,0.1c-2.7,1.4-6.4,2.7-7.6,5.2c-6.6,12.5-17.2,15.6-30.2,14.3c-4.1-0.4-8.3,0-12.5,0
			c-9.8,0-15.5-4.6-18.3-15.7c4.6,0,9-0.2,13.3,0.1c4.5,0.2,7.8-0.6,10.3-5c2.7-4.7,6.5-4.6,10.2-0.9c2,2,4.2,5.3,6.5,5.4
			c5.3,0.3,10.9-0.4,16.1-1.7c4.6-1.1,8.8-4,13.4-5.3c2-0.6,4.5,0.8,6.8,1.4c-0.9,2.3-1.5,4.8-2.8,6.8c-0.8,1.3-2.7,1.9-3.9,3
			c-2.5,2.4-4.9,5.1-7.3,7.6C1414.4,448.2,1413.6,448.8,1412.9,449.4z"/>
		<path class="st3" d="M1344.9,433.5c-1.5-5.7-2.8-10.2-3.8-14.9c-0.4-1.8-0.7-4.1,0-5.7c1.8-3.8,4.3-7.4,6.6-11.3
			c3.6,1.5,2.8,4.4,2.9,7.1c0.1,2.8,0.4,5.7,1.5,8.2c1.5,3.5-1.4,14.9-4.9,16.4C1346.3,433.9,1344.8,433.5,1344.9,433.5z"/>
		<path class="st3" d="M1397.6,459.8c-5.2,0-9.7,0-14.3,0c-5.3,0-10.6,0.1-15.9-0.1c-1.3-0.1-2.5-1.3-3.8-2.1
			c1.1-1.1,2.1-2.3,3.3-3.2c0.6-0.4,1.6-0.3,2.4-0.3c7.3,0,14.6,0,21.9-0.1C1394.3,454,1396.7,454.9,1397.6,459.8z"/>
		<path class="st3" d="M1340.3,437.5c8.1-3.2,10.7-1.8,11.9,6.3C1347.2,443.5,1343,442.4,1340.3,437.5z"/>
		<path class="st3" d="M1376.2,421.9c2.2-1.6,3.6-3.3,4.8-3.2c1.3,0.1,2.4,2,3.5,3.2c-1.2,1.2-2.3,3.2-3.7,3.5
			C1379.9,425.5,1378.4,423.6,1376.2,421.9z"/>
		<path class="st3" d="M1425.9,362.5c-2.9,1.2-5.9,2-8.5,3.6c-1.8,1.1-3.3,2.9-4.4,4.7c-5.5,9.4-13.5,13.1-24.3,12.2
			c-5.8-0.5-11.7,0-17.5-0.1c-9.3,0-15.3-5.2-17.4-15.8c4.9,0,9.6-0.2,14.3,0.1c4,0.2,6.8-0.9,9.1-4.5c3.4-5.2,6.7-5.2,10.5-1
			c5.3,5.9,14.7,7.3,21.9,3.8c4.6-2.3,9.4-4.3,14.3-5.8c1.8-0.5,4.1,0.9,6.2,1.5c-0.7,2.2-0.9,4.8-2.2,6.5c-1.3,1.7-3.9,2.4-5.7,4
			c-2,1.8-3.7,4.1-5.6,6c-0.9,0.9-2.1,1.6-3.1,2.3c0.1-1.4-0.4-3.4,0.4-4.2c2.4-2.5,5.3-4.5,7.9-6.8c1.8-1.5,3.4-3.1,5.2-4.7
			C1426.6,363.8,1426.3,363.2,1425.9,362.5z"/>
		<path class="st3" d="M1349.2,332.7c3.3,2.1,3.7,4.6,2.9,8.1c-0.5,2.1-0.1,4.8,0.9,6.7c2.1,3.9-0.2,14.9-4.2,16.8
			c-0.9,0.4-2.3,0.4-3.3-0.1c-0.5-0.2-0.5-1.7-0.7-2.6c-0.8-3.9-1.7-7.8-2.3-11.8c-0.3-2-0.8-4.3,0-6
			C1344.3,340.1,1346.8,336.6,1349.2,332.7z"/>
		<path class="st3" d="M1397.9,390.3c-11,0-21.9,0-33.1,0c-0.2-3.5,1.3-5.1,4.2-5.1c8.3-0.1,16.6-0.2,24.8,0.1
			c1.7,0.1,3.3,2.1,5,3.2C1398.6,389.1,1398.3,389.7,1397.9,390.3z"/>
		<path class="st3" d="M1353.7,375.3c-4.9-0.9-9.8-1.3-12.1-6.8C1349.5,365.4,1351.9,366.8,1353.7,375.3z"/>
		<path class="st3" d="M1382.6,348.1c1.6,2.4,3.4,3.8,3.3,5.2c-0.1,1.2-2.1,2.3-3.3,3.4c-1.1-1.2-3-2.3-3.1-3.5
			C1379.4,351.8,1381,350.4,1382.6,348.1z"/>
		<path class="st3" d="M1655.8,722.4c-1.7-3.7-0.7-5.8,4.1-9.1c3-2.1,6-4.2,8.6-7.1c-4.9-1.9-8.4,0.2-11.4,3.2
			c-1.9,1.9-3.4,4.1-4.8,6.4c-3.8,6-9.2,8.9-16.3,9c-8.5,0.1-17,0.2-25.5,0.1c-8-0.2-14.1-6.5-14.6-15.7c4.8,0,9.5-0.2,14.3,0
			c3.7,0.2,6.1-0.8,8.2-4.2c3.5-5.7,6.4-5.8,11-0.9c5.3,5.5,14.4,6.9,21.6,3.6c4.5-2.1,9-4.3,13.8-5.7c1.9-0.6,4.4,0.9,6.6,1.4
			c-0.7,2.2-1.1,4.6-2.3,6.6c-0.8,1.3-2.7,1.9-3.9,3c-2.5,2.4-4.9,5.1-7.3,7.6C1657.3,721.2,1656.6,721.8,1655.8,722.4z"/>
		<path class="st3" d="M1592.3,674.8c0.4,2.2,1.6,4.6,1.2,6.7c-0.7,3.5-0.2,6.3,1.6,9.4c3.3,5.5-1.7,9.6-3.5,14.2
			c-0.5,1.2-3,1.6-4,2.1c-1.5-6.2-3-11.4-4.1-16.8c-0.3-1.6,0.1-3.7,0.9-5.2c1.8-3.5,4.1-6.8,6.2-10.1
			C1591.2,674.9,1591.7,674.8,1592.3,674.8z"/>
		<path class="st3" d="M1640.2,732.7c-10.7,0-20.9,0-31.1-0.1c-0.8,0-2.5-1.4-2.4-1.8c0.3-1.1,1.1-2.7,2-3c2-0.6,4.2-0.6,6.4-0.6
			c6.3-0.1,12.6,0,18.9,0C1637.1,727.1,1639.6,728,1640.2,732.7z"/>
		<path class="st3" d="M1594.1,718c-3.8-2.1-7.6-4.3-12.3-6.8C1590.1,707,1593.7,708.9,1594.1,718z"/>
		<path class="st3" d="M1629,694.8c-2.2,1.7-3.5,3.6-4.7,3.5c-1.3,0-2.6-1.9-3.9-2.9c1.2-1.3,2.1-3.3,3.6-3.8
			C1625,691.4,1626.7,693.3,1629,694.8z"/>
		<path class="st3" d="M1651.8,517.7c-1.5-4.4,2.6-6.1,5.2-8.4c2.8-2.4,5.9-4.4,9.4-6.9c-5.3-2-9.9-0.3-13.4,4.1
			c-2.3,2.9-4.4,5.9-6.7,8.6c-3.3,3.9-7.7,5.6-12.8,5.6c-8.2,0-16.3,0.1-24.5,0.1c-8.3,0-14.7-5.9-16.2-15.7c4.7,0,9.2-0.2,13.8,0.1
			c4,0.2,6.8-1,9.1-4.5c3.6-5.4,6.3-5.4,10.7-0.8c5.3,5.7,15,7.1,22,3.5c4.1-2.1,8.4-4.2,12.8-5.5c2.1-0.6,6-0.1,7,1.3
			c2.1,2.9-0.3,5.7-2.8,7.5c-2.4,1.8-5.4,2.9-7.5,4.9c-1.9,1.8-3,4.5-4.4,6.8C1652.9,518.1,1652.4,517.9,1651.8,517.7z"/>
		<path class="st3" d="M1584.6,502.6c-1.4-5.9-2.7-10.7-3.7-15.6c-0.4-1.8-0.4-4.1,0.4-5.7c1.9-3.8,4.3-7.3,8-11.2
			c0.4,2.7,0.8,5.4,1.2,8c0.4,2.5,0.3,5.2,1.3,7.3c1.7,3.6-0.7,14.8-4.2,16.7C1586.5,502.9,1584.9,502.6,1584.6,502.6z"/>
		<path class="st3" d="M1636.7,528.7c-10.4,0-20.1,0.1-29.9-0.1c-1.1,0-2.2-1.3-3.3-2c0.9-1.1,1.8-2.2,2.8-3.2
			c0.3-0.3,0.9-0.3,1.4-0.3c7.6-0.3,15.2-0.7,22.8-0.8C1634,522.3,1637,523.6,1636.7,528.7z"/>
		<path class="st3" d="M1580.3,505.7c9.3-1.4,10.2-0.9,11.7,6.2C1586.8,513.1,1582.6,511,1580.3,505.7z"/>
		<path class="st3" d="M1620.9,486c1.7,2.2,3.5,3.6,3.4,4.8c-0.1,1.3-1.9,2.5-3,3.8c-1.3-1.2-3.3-2.2-3.7-3.7
			C1617.4,489.9,1619.3,488.3,1620.9,486z"/>
		<path class="st3" d="M1418.7,633.6c-4.5-0.4-8.2,1.3-11.3,4.7c-1.2,1.4-2.4,2.8-3.3,4.4c-4.4,8.2-11.8,10.8-20.4,11
			c-7.3,0.2-14.6,0.2-21.9,0c-6.5-0.1-14.3-6.9-15-13.2c-0.1-0.9,1.8-3,2.9-3.1c4-0.4,8-0.3,12-0.1c3.3,0.1,5.5-0.8,7.4-3.8
			c3.6-5.7,7.9-5.8,11.8-0.2c2.2,3.1,4.8,4,8.4,4.1c6.3,0.2,12.1-0.5,17.7-3.9c3-1.9,6.8-2.7,10.3-3.5c1.5-0.3,4.2,0.4,4.7,1.5
			c0.7,1.4,0.3,3.9-0.6,5.4c-0.9,1.6-2.7,2.9-4.4,3.9c-3.5,2-7.1,3.6-8.3,8.1c-0.2,0.7-1.7,1-2.6,1.6c-0.1-1.2-0.8-2.8-0.3-3.4
			c2.1-2.3,4.5-4.4,6.9-6.4c2.3-1.9,4.8-3.6,7.2-5.4C1419.3,634.6,1419,634.1,1418.7,633.6z"/>
		<path class="st3" d="M1338.4,635.7c-1.5-6.4-2.9-11.4-3.7-16.5c-0.3-2.1,0-4.7,0.9-6.6c1.5-3.3,3.8-6.2,5.8-9.5
			c3.4,1.4,3.7,4.2,2.9,6.9c-1,3.3-0.4,5.8,1.3,8.9c3.2,5.6-1.4,10.1-3.5,14.8C1341.7,634.9,1339.3,635.3,1338.4,635.7z"/>
		<path class="st3" d="M1356.6,658.6c1.8-1.1,3.6-3.1,5.5-3.2c8-0.4,16-0.3,23.9,0c1.5,0.1,3,2,4.5,3c-1.5,0.8-3,2.3-4.6,2.3
			c-9.4,0.2-18.9,0.1-28.3,0.1C1357.2,660.1,1356.9,659.3,1356.6,658.6z"/>
		<path class="st3" d="M1334.2,638.1c8.3-2.4,10.4-1.1,11.7,6.9C1339.2,645.1,1335.5,642.9,1334.2,638.1z"/>
		<path class="st3" d="M1375.2,618.3c1.5,2.3,3.4,4,3.1,4.9c-0.4,1.4-2.5,2.3-3.8,3.4c-1-1.2-2.8-2.5-2.8-3.7
			C1371.7,621.6,1373.5,620.4,1375.2,618.3z"/>
		<path class="st3" d="M1669.8,363.6c-2.9,1.2-6,1.9-8.5,3.6c-2.1,1.4-4,3.6-5.3,5.8c-5,9-13.2,11.6-22.7,11.7c-5.7,0.1-11.3,0-17,0
			c-10,0-16.1-5.1-18.8-16.5c4.6,0,9-0.2,13.3,0.1c4.5,0.3,7.8-0.7,10.5-4.8c2.9-4.6,6.3-4.3,10.2-0.3c5.3,5.5,15,6.8,22,3.4
			c4.6-2.2,9.4-4.3,14.3-5.7c1.8-0.5,4.1,1,6.2,1.6c-0.6,2.1-0.7,4.7-2,6.2c-1.7,1.9-4.5,2.8-6.5,4.5c-1.9,1.7-3.3,3.9-5.1,5.7
			c-0.9,0.9-2.1,1.5-3.1,2.2c0-1.3-0.6-3.2,0.1-3.9c2-2.2,4.4-4,6.7-5.9c2.2-1.9,4.5-3.6,6.8-5.5
			C1670.6,365.1,1670.2,364.4,1669.8,363.6z"/>
		<path class="st3" d="M1594.9,333.8c0.3,2.7,0.5,5.3,0.8,8c0.2,2.2-0.2,4.8,0.8,6.4c2.2,3.2,2.4,6,0.6,9.2
			c-1.2,2.2-1.9,4.7-3.2,6.7c-0.8,1.1-2.5,1.7-3.8,2.4c-0.5-1.3-1.1-2.7-1.4-4c-0.7-3.5-1.4-7-1.8-10.5c-0.3-2.7-0.8-5.8,0.1-8.3
			c1.3-3.5,3.8-6.5,5.8-9.7C1593.6,333.9,1594.2,333.9,1594.9,333.8z"/>
		<path class="st3" d="M1641.8,391.2c-11,0-21.9,0-33.1,0c0-3.7,1.8-4.9,4.7-5c7.8,0,15.7-0.2,23.5,0.1c2,0.1,3.9,2,5.8,3
			C1642.4,390,1642.1,390.6,1641.8,391.2z"/>
		<path class="st3" d="M1585.2,369.5c8.2-2.8,10-1.8,12.6,6.9C1592.6,375.9,1588.2,374.6,1585.2,369.5z"/>
		<path class="st3" d="M1631.2,354.6c-2.3,1.4-3.8,3-4.9,2.8c-1.4-0.3-2.4-2.1-3.6-3.2c1.3-1.2,2.4-3.1,3.9-3.5
			C1627.5,350.6,1629,352.7,1631.2,354.6z"/>
		<path class="st3" d="M1348.8,715.5c-0.4-2.1-0.8-4.1-1.4-7.3c4.5,0,8.6-0.2,12.6,0.1c4.8,0.3,8.5-0.7,11.5-5
			c3.1-4.4,6.1-4.1,9.9-0.1c5.1,5.5,15.6,6.8,22.6,3.4c4.6-2.3,9.4-4.1,14.3-5.6c1.6-0.5,4.5,0.6,5.4,1.9c0.7,1-0.2,3.8-1.1,5.3
			c-1,1.6-3,2.6-4.7,3.6c-3.3,2-6.9,3.4-7.8,7.8c-0.1,0.7-2,1.1-3,1.6c0-1.2-0.4-2.9,0.2-3.5c2.1-2.3,4.6-4.3,7-6.3
			c2.1-1.8,4.3-3.5,7-5.6c-4.3-2.3-7.3-0.8-9.7,1.2c-2.3,1.8-4.4,4.2-5.9,6.7c-4.8,8-12.2,10.9-21,11.1c-7,0.1-14-0.1-21,0
			c-6.8,0.1-10.6-4.7-14.8-8.9L1348.8,715.5z"/>
		<path class="st3" d="M1339.9,706.5c-1.6-6-3.1-11-4.1-16.2c-0.4-1.9,0.1-4.3,0.9-6.1c1.7-3.5,4-6.8,6.4-10.6
			c2.9,2.3,2.9,5.1,2.5,8.1c-0.2,1.9-0.7,4.4,0.2,5.6c3.5,4.5,2.6,8.5,0,12.8c-0.9,1.4-1.1,3.3-2.2,4.4
			C1342.4,705.7,1340.5,706.2,1339.9,706.5z"/>
		<path class="st3" d="M1391.8,731.8c-7.3,0-14.5,0-21.8,0c-2.5,0-5,0.2-7.5-0.1c-1.3-0.2-2.6-1.3-3.8-2c1.3-1.1,2.4-3.1,3.8-3.2
			c4.3-0.4,8.6-0.2,13-0.2c3.7,0,7.4-0.3,11,0.2c2.2,0.3,4.2,1.9,6.3,2.9C1392.4,730.1,1392.1,731,1391.8,731.8z"/>
		<path class="st3" d="M1348.9,715.8c-5.7,1.4-11-1.2-13.1-6.4c5.9-2.6,8.3-1.7,11.1,4c0.4,0.8,1.3,1.4,1.9,2.1
			C1348.8,715.5,1348.9,715.8,1348.9,715.8z"/>
		<path class="st3" d="M1376.7,699.2c-2-2.2-4.1-3.6-3.9-4.5c0.4-1.5,2.2-2.7,3.4-4c1.1,1.2,2.9,2.2,3.2,3.6
			C1379.7,695.4,1378.1,696.9,1376.7,699.2z"/>
		<path class="st3" d="M1596.7,579.5c-0.2-1.8-0.5-3.5-0.9-6.4c4.9,0,9.6-0.2,14.3,0.1c4.1,0.2,6.7-1.3,9-4.8c3.2-5,6.6-5,10.5-0.8
			c5.6,6,14.3,7.5,21.9,3.9c4-1.9,8.1-4,12.3-5.5c2.9-1,7-2,8.1,1.8c0.6,1.9-1.8,5.3-3.8,7.1c-3.5,3.3-9.1,4.3-10.3,10.1
			c-0.1,0.5-1.6,0.7-2.4,1.1c-0.3-0.9-1.1-2.1-0.8-2.5c1.8-2.3,3.8-4.5,6-6.4c2.6-2.3,5.5-4.2,8.3-6.3c-0.4-0.8-0.8-1.5-1.2-2.3
			c-2.7,0.9-5.7,1.5-8.1,2.9c-2,1.2-3.9,3.3-5.1,5.4c-5.4,9.3-13.2,12.9-23.8,12c-5.6-0.5-11.3-0.3-17,0c-6.4,0.4-11.3-1.8-15-7.1
			c-0.5-0.8-1.4-1.3-2.2-2L1596.7,579.5z"/>
		<path class="st3" d="M1588.5,570.6c-1.8-6.1-3.4-11-4.6-15.9c-0.4-1.7,0-4,0.8-5.6c1.8-3.5,4.1-6.8,6.4-10.4
			c3,1.8,4.2,4.1,2.9,7.1c-1.4,3.4-0.6,5.9,1.4,8.7c0.9,1.3,1.3,3.6,0.8,5.1c-1.1,3.3-2.6,6.5-4.4,9.4
			C1591.1,570,1589,570.3,1588.5,570.6z"/>
		<path class="st3" d="M1640.4,596.7c-10.8,0-21.1,0.1-31.3-0.1c-3.3-0.1-3-2.4-1.3-4c1.3-1.2,3.5-2.2,5.3-2.2
			c7.1-0.2,14.3-0.2,21.4,0C1637.8,590.4,1640.1,591.9,1640.4,596.7z"/>
		<path class="st3" d="M1596.8,579.8c-5.4,1.6-10.8-0.7-12.8-5.5c5.9-2.4,7.2-1.8,12.7,5.2C1596.7,579.5,1596.8,579.8,1596.8,579.8z
			"/>
		<path class="st3" d="M1629.6,558.6c-2.6,1.9-4,3.6-5.4,3.6c-1.1,0-3-2.2-3-3.4c0-1.1,1.9-3,3.2-3.2
			C1625.5,555.4,1626.9,557,1629.6,558.6z"/>
		<path class="st3" d="M1655.7,450.5c-2.6-6.1,1.6-7.9,4.2-10.1c2.8-2.4,5.9-4.4,9.3-6.9c-4.8-2.2-9.2-0.9-12.8,3.5
			c-2.2,2.7-4.1,5.7-6.4,8.3c-3.8,4.4-8.7,6.5-14.6,6.5c-7.8,0-15.6,0-23.5,0c-8.3,0-14.7-5.8-16.3-15.7c4.2,0,8.2-0.2,12.3,0.1
			c4.9,0.4,8.4-0.8,11.3-5.3c3.1-4.8,6.2-4.5,10-0.2c5.1,5.7,14.3,7.2,21.5,3.8c4.6-2.2,9.4-4.3,14.3-5.8c1.8-0.6,4.2,0.8,6.3,1.3
			c-0.7,2.4-1.4,4.7-2.2,7.1c0,0.1-0.2,0.3-0.4,0.3c-2.5,1.6-5.4,2.8-7.5,4.8C1659.3,444.1,1658,446.9,1655.7,450.5z"/>
		<path class="st3" d="M1587.4,433.7c-1.4-5.9-2.8-10.9-3.6-15.9c-0.3-2,0-4.3,0.8-6.1c1.7-3.5,4-6.8,6.2-10.4c3.4,2,2.8,5,2.7,8.2
			c-0.1,2.4,0.1,5.3,1.4,7.3c3.5,5.6-1.3,9.3-2.6,13.8C1591.4,433.6,1589.2,434.4,1587.4,433.7z"/>
		<path class="st3" d="M1640.1,459.7c-10.7,0-20.8,0-30.9-0.1c-0.9,0-2.3-0.9-2.5-1.7c-0.2-0.9,0.3-2.5,1-3c1.3-0.9,3-1.6,4.5-1.6
			c7.1-0.2,14.3-0.1,21.4,0C1637.2,453.3,1639.6,454.7,1640.1,459.7z"/>
		<path class="st3" d="M1583.4,437c7.8-2.3,10-1.2,11.5,5.9C1589.9,444.1,1585.5,441.8,1583.4,437z"/>
		<path class="st3" d="M1624.2,426.9c-1.7-2.2-3.7-3.7-3.5-4.7c0.3-1.4,2.3-2.5,3.5-3.7c1.1,1.2,3,2.3,3.1,3.6
			C1627.5,423.3,1625.7,424.7,1624.2,426.9z"/>
		<path class="st3" d="M1423.8,499.4c-2.8,1.1-6.1,1.7-8.4,3.5c-2.8,2.2-5,5.3-7.1,8.3c-4.1,5.7-9.5,8.6-16.6,8.5
			c-8.2-0.1-16.3,0.1-24.5,0c-7.8-0.1-14.4-6.8-14.9-15.7c4.5,0,8.9-0.2,13.4,0c4.2,0.2,7.2-0.9,9.6-4.7c3.1-5.1,6.2-5.1,10.4-0.8
			c6,6.1,14.4,7.4,22.4,3.6c4.2-2,8.4-4.2,12.8-5.4c2.2-0.6,4.9,0.7,7.3,1.2c-1,2.6-1.4,5.9-3.2,7.6c-3.7,3.5-9.8,4.5-11.1,10.7
			c-0.1,0.4-1.3,0.5-2,0.7c-0.3-1-1.2-2.4-0.8-2.9c1.6-2.1,3.3-4.1,5.3-5.7c2.7-2.3,5.7-4.2,8.6-6.3
			C1424.7,501.1,1424.3,500.3,1423.8,499.4z"/>
		<path class="st3" d="M1348.8,468.9c0.5,2.6,1.9,5.5,1.3,7.8c-0.7,3-0.6,5.2,1.2,7.8c2.5,3.4-0.7,14.7-4.4,16.6
			c-1,0.5-2.5,0.2-2.4,0.2c-1.7-6-3.3-11.2-4.5-16.5c-0.3-1.3,0-3,0.7-4.3c2.1-3.9,4.4-7.7,6.7-11.5
			C1347.8,469.1,1348.3,469,1348.8,468.9z"/>
		<path class="st3" d="M1363.1,527.7c-0.2-4.8,2.1-6.3,5.2-6.3c7.5-0.1,14.9-0.1,22.4,0c1.5,0,3.2,0.9,4.5,1.8c0.8,0.5,1.2,2,1.1,3
			c0,0.5-1.4,1.4-2.2,1.4C1383.8,527.7,1373.6,527.7,1363.1,527.7z"/>
		<path class="st3" d="M1350.8,512.5c-3.8-2-7.6-3.9-12.3-6.3c8.2-3.9,11.4-2.4,13.2,4.7C1351.4,511.4,1351.1,511.9,1350.8,512.5z"
			/>
		<path class="st3" d="M1385.7,489.7c-2.2,1.7-3.7,3.7-4.7,3.5c-1.4-0.3-2.5-2.3-3.7-3.5c1.2-1.1,2.3-3,3.5-3.1
			C1382.1,486.6,1383.5,488.2,1385.7,489.7z"/>
		<path class="st3" d="M1666.9,636.5c-2.8,1.1-6.1,1.7-8.3,3.5c-2.8,2.2-5,5.3-7.1,8.3c-4.2,5.9-9.9,8.6-17.1,8.5
			c-7.5-0.1-15,0-22.5,0c-8.9,0-15-5.4-16.7-15.7c4.7,0,9.2-0.2,13.8,0.1c4.2,0.2,7.2-1,9.5-4.9c3-4.9,6-5,10.1-1
			c6.8,6.6,14.7,7.7,23.4,3.5c4.2-2,8.5-4,12.9-5.2c1.9-0.5,4.4,1.1,6.6,1.7c-0.9,2.3-1.6,4.8-2.9,6.9c-0.7,1.2-2.6,1.5-3.6,2.6
			c-2.5,2.4-4.9,5-7.4,7.5c-0.7,0.7-1.7,1.2-2.5,1.7c-0.3-1.1-1.1-2.7-0.7-3.3c1.6-2.1,3.5-4,5.5-5.6c2.6-2.2,5.5-4.1,8.2-6.1
			C1667.6,638.1,1667.2,637.3,1666.9,636.5z"/>
		<path class="st3" d="M1587.5,638.7c-1.7-6.2-3.3-11.1-4.2-16.1c-0.4-2.2,0.3-4.8,1.3-6.9c1.5-3.3,3.7-6.2,5.8-9.6
			c3,1.7,4.1,4.4,2.8,7.7c-1.2,3-0.6,5.1,1.1,7.8c3.7,5.5-0.6,10.1-2.8,14.7C1590.8,637.6,1588.4,638.2,1587.5,638.7z"/>
		<path class="st3" d="M1622.3,664.7c-4.3,0-8.6,0.1-12.9-0.1c-1.1,0-2.2-0.9-3.4-1.4c0.6-1.3,0.9-2.9,1.9-3.7
			c0.9-0.8,2.4-1.1,3.7-1.1c7.5-0.1,14.9-0.1,22.4,0c1.4,0,2.9,0.7,4,1.7c0.8,0.7,1.3,2.3,1.2,3.4c-0.1,0.5-1.8,1.2-2.9,1.2
			C1631.6,664.8,1627,664.7,1622.3,664.7z"/>
		<path class="st3" d="M1593.7,649.5c-3.8-2-7.6-4-12.4-6.5c8.7-3.6,11.6-2.2,13.3,4.9C1594.3,648.5,1594,649,1593.7,649.5z"/>
		<path class="st3" d="M1628.7,626.6c-2.1,1.8-3.6,3.8-4.6,3.6c-1.4-0.3-2.5-2.2-3.8-3.4c1.1-1.1,2.2-3,3.4-3.1
			C1625,623.5,1626.4,625.1,1628.7,626.6z"/>
		<path class="st3" d="M1382.5,327.9c1.5,2.2,2.9,3.4,2.8,4.6c0,1-1.9,3-2.6,2.8c-1.3-0.3-2.9-1.7-3.1-2.9
			C1379.5,331.4,1381,330.1,1382.5,327.9z"/>
		<path class="st3" d="M1623,474.1c-2.5-0.7-5.8-0.8-4.7-4.7c0.3-0.9,2.8-2,3.9-1.7c3.7,1.2,1.5,4,1.2,6.2
			C1623.3,473.9,1623,474.1,1623,474.1z"/>
		<path class="st3" d="M1376.3,669.2c1.4,2.1,3.1,3.4,2.9,4.5c-0.2,1.1-2,2.4-3.3,2.7c-0.6,0.1-2.5-1.8-2.5-2.7
			C1373.6,672.5,1374.9,671.3,1376.3,669.2z"/>
		<path class="st3" d="M1625.9,337.9c-1.2-2.2-2.5-3.5-2.4-4.7c0.1-1,2-2.8,2.6-2.6c1.3,0.4,3,1.8,3.1,3
			C1629.3,334.6,1627.6,335.9,1625.9,337.9z"/>
		<path class="st3" d="M1624.7,542.7c-1.5-2-2.9-3.1-3.1-4.4c-0.1-0.9,1.7-2.9,2.4-2.8c1.2,0.1,3.1,1.5,3.3,2.5
			C1627.5,539.1,1626,540.5,1624.7,542.7z"/>
		<path class="st3" d="M1624.2,405.5c-1.5-1.8-3.2-3-3.1-4.1c0.1-1.1,1.8-2.8,3-2.9c1-0.1,3,1.7,3,2.7
			C1627.2,402.3,1625.6,403.5,1624.2,405.5z"/>
		<path class="st3" d="M1377.9,404c0.6-2.4-0.2-5.9,4-5.5c1,0.1,2.6,2,2.5,3c-0.5,4-3.6,2.9-6.2,2.8
			C1378.1,404.3,1377.9,404,1377.9,404z"/>
		<path class="st3" d="M1623.8,610.7c-1.5-2-3.2-3.2-3.2-4.3c0-1.2,1.7-2.3,2.7-3.4c1.1,1,2.9,1.9,3.1,3
			C1626.6,607.1,1625.1,608.5,1623.8,610.7z"/>
		<path class="st3" d="M1380.9,464.6c1.3,2.2,2.8,3.6,2.6,4.7c-0.2,1.2-2,2.1-3.1,3.1c-1-1.2-2.6-2.3-2.7-3.5
			C1377.6,467.8,1379.3,466.6,1380.9,464.6z"/>
		<path class="st3" d="M1624,678.7c-1.4-1.9-3-3.2-2.9-4.3c0.1-1.1,2-2.9,3.1-2.8c1.1,0.1,3,1.8,3,2.9
			C1627.3,675.6,1625.5,676.8,1624,678.7z"/>
		<path class="st3" d="M1379.4,602.3c-2,1.5-3.2,3.2-4.3,3.1c-1.2-0.1-2.3-1.7-3.5-2.7c1-1.1,2-2.9,3.2-3.1
			C1375.8,599.5,1377.2,601,1379.4,602.3z"/>
		<path class="st3" d="M1566.4,843.2c2.7,3.3,5.3,6.5,7.9,9.6c-0.5,0.8-0.7,1.3-0.9,1.3c-3.1,0.6-6.3,1.2-9.4,1.8
			c0.2-4.2,0.5-8.3,0.7-12.5C1565.3,843.3,1565.8,843.3,1566.4,843.2z"/>
		<path class="st3" d="M1542.9,467.7c6.7,8,9.8,16.7,4.5,27.1c-3.1,6.2-5.5,12.7-9.4,18.7c0.9-8.9,1.8-17.8,2.7-26.8
			c0.1-0.7,0.3-1.4,0.1-2C1538.8,478.9,1539.4,473.2,1542.9,467.7z M1542.6,473.3c-0.6,9.6-1.1,19.2-1.7,28.8c0.4,0,0.8,0.1,1.3,0.1
			C1545.4,492.8,1553,483.8,1542.6,473.3z"/>
		<path class="st3" d="M1529.3,565.2c1.4-1.2,2.5-2.8,4.1-3.5c1.2-0.5,3.9-0.4,4.2,0.3c0.8,1.5,1.1,3.8,0.4,5.2
			c-1,1.9-3.2,3.3-4.8,4.9c-2,0-4,0-6.6,0C1527.6,569.4,1528.5,567.3,1529.3,565.2z"/>
		<path class="st3" d="M1502.1,590.8c0-10.2,0-20.5,0-30.7c0.2,0,0.4,0,0.7,0c0,10.2,0,20.4,0,30.6
			C1502.5,590.7,1502.3,590.7,1502.1,590.8z"/>
		<path class="st3" d="M1529.3,565.2c-0.8,2.1-1.6,4.2-2.7,7c2.6,0,4.6,0,6.6,0c-5.2,3.6-10.8,1.3-13.3-6.3c1.6,1.8,2.6,2.9,3.3,3.6
			C1525.4,567.9,1527.3,566.5,1529.3,565.2z"/>
		<path class="st3" d="M1501.9,598.2c0,6.8,0,13.7,0,20.5c-0.2,0-0.4,0-0.6,0c0-6.8,0-13.6,0-20.4
			C1501.5,598.3,1501.7,598.2,1501.9,598.2z"/>
		<path class="st3" d="M1528.4,350.9c1.1,3.4,2,6.1,2.9,8.7c-0.2,0.1-0.8,0.3-0.8,0.2c-2.3-4.7-6-7.9-10.6-10.5
			c-1.7-1-2.1-4.5-2.2-7.4C1518.9,348.2,1522.9,350.8,1528.4,350.9z"/>
		<path class="st3" d="M1542.6,473.3c10.4,10.5,2.7,19.5-0.4,28.9c-0.4,0-0.8-0.1-1.3-0.1C1541.5,492.5,1542.1,482.9,1542.6,473.3z"
			/>
	</g>
</g>
</svg>
