<?xml version="1.0" encoding="utf-8"?>
<!-- Generator: Adobe Illustrator 22.1.0, SVG Export Plug-In . SVG Version: 6.00 Build 0)  -->
<svg version="1.1" id="Layer_1" xmlns="http://www.w3.org/2000/svg" xmlns:xlink="http://www.w3.org/1999/xlink" x="0px" y="0px"
	 viewBox="0 0 45 45" style="enable-background:new 0 0 45 45;" xml:space="preserve">
<style type="text/css">
	.st0{fill:#00923E;}
	.st1{fill:#F8C100;}
	.st2{fill:#28166F;}
	.st3{fill:#FFFFFF;}
</style>
<g>
	<g>
		<g>
			<path class="st0" d="M45,30.9c0,5.6,0,8.4-2.8,11.3C39.4,45,36.6,45,30.9,45H14.1c-5.6,0-8.4,0-11.3-2.8C0,39.4,0,36.6,0,30.9
				V14.1C0,8.4,0,5.6,2.8,2.8C5.6,0,8.4,0,14.1,0h16.9c5.6,0,8.4,0,11.2,2.8C45,5.6,45,8.4,45,14.1V30.9z"/>
		</g>
		<g>
			<polygon class="st1" points="2.5,22.5 22.5,35.3 42.5,22.5 22.5,9.7 			"/>
			<g>
				<path class="st2" d="M22.5,13.9c4.7,0,8.6,3.8,8.6,8.6c0,4.7-3.8,8.6-8.6,8.6c-4.7,0-8.6-3.8-8.6-8.6
					C13.9,17.8,17.8,13.9,22.5,13.9z"/>
				<path class="st3" d="M31,23.4c-3.8-3-8.5-4.7-13.7-4.5c-0.9,0-1.8,0.1-2.7,0.3c-0.2,0.4-0.3,0.9-0.4,1.3c1-0.2,2.1-0.3,3.2-0.4
					c5.1-0.2,9.8,1.6,13.4,4.7C30.9,24.3,31,23.8,31,23.4z"/>
				<g>
					<path class="st0" d="M14.9,19.7c0-0.1,0-0.2,0-0.2c0,0,0-0.1,0.1-0.1c0,0,0.1-0.1,0.1-0.1c0,0,0.1,0,0.2-0.1
						c0.1,0,0.2,0,0.3,0.1c0.1,0.1,0.1,0.2,0.2,0.3c0,0.1,0,0.2-0.1,0.3C15.5,20,15.4,20,15.3,20c-0.1,0-0.2,0-0.3-0.1
						C14.9,19.9,14.9,19.8,14.9,19.7z M15,19.6c0,0.1,0,0.2,0.1,0.2c0,0,0.1,0.1,0.2,0c0.1,0,0.1,0,0.2-0.1c0-0.1,0-0.1,0-0.2
						c0-0.1,0-0.2-0.1-0.2c0,0-0.1-0.1-0.2,0c-0.1,0-0.1,0-0.2,0.1C15,19.5,15,19.5,15,19.6z"/>
					<path class="st0" d="M16,19.9L16,19.1l0.4,0c0.1,0,0.2,0,0.2,0c0,0,0.1,0,0.1,0.1c0,0,0,0.1,0,0.1c0,0.1,0,0.1,0,0.2
						c0,0-0.1,0.1-0.2,0.1c0,0,0.1,0,0.1,0.1c0,0,0.1,0.1,0.1,0.1l0.1,0.2l-0.2,0l-0.1-0.2c0-0.1-0.1-0.1-0.1-0.1c0,0,0,0-0.1,0
						c0,0,0,0-0.1,0l0,0l0,0.3L16,19.9z M16.2,19.4l0.1,0c0.1,0,0.1,0,0.2,0c0,0,0,0,0,0c0,0,0,0,0-0.1c0,0,0-0.1,0-0.1
						c0,0,0,0-0.1,0c0,0-0.1,0-0.1,0l-0.1,0L16.2,19.4z"/>
					<path class="st0" d="M17.1,19l0.3,0c0.1,0,0.1,0,0.2,0c0,0,0.1,0,0.1,0.1c0,0,0.1,0.1,0.1,0.1c0,0.1,0,0.1,0,0.2
						c0,0.1,0,0.1,0,0.2c0,0.1,0,0.1-0.1,0.2c0,0-0.1,0.1-0.1,0.1c0,0-0.1,0-0.2,0l-0.3,0L17.1,19z M17.2,19.1l0,0.6l0.1,0
						c0,0,0.1,0,0.1,0c0,0,0,0,0.1,0c0,0,0,0,0-0.1c0,0,0-0.1,0-0.2c0-0.1,0-0.1,0-0.1c0,0,0-0.1,0-0.1c0,0,0,0-0.1,0
						C17.4,19.1,17.4,19.1,17.2,19.1L17.2,19.1z"/>
					<path class="st0" d="M18.1,19.8l0-0.8l0.6,0l0,0.1l-0.5,0l0,0.2l0.4,0l0,0.1l-0.4,0l0,0.2l0.5,0v0.1L18.1,19.8z"/>
					<path class="st0" d="M19.1,19.8l0.1-0.8l0.3,0l0.1,0.6l0.2-0.6l0.3,0l-0.1,0.8l-0.2,0l0-0.7l-0.2,0.6l-0.2,0l-0.1-0.7l0,0.7
						L19.1,19.8z"/>
					<path class="st0" d="M20.8,20l0.1-0.8l0.6,0.1l0,0.1L21,19.3l0,0.2l0.4,0.1l0,0.1L21,19.7l0,0.2l0.5,0.1l0,0.1L20.8,20z"/>
					<path class="st0" d="M22.2,20.3l0.2-0.8l0.3,0.1c0.1,0,0.2,0,0.2,0.1c0,0,0.1,0.1,0.1,0.1c0,0,0,0.1,0,0.2c0,0.1,0,0.1-0.1,0.1
						c0,0-0.1,0.1-0.1,0.1c0,0-0.1,0-0.1,0c0,0-0.1,0-0.2,0l-0.1,0l-0.1,0.3L22.2,20.3z M22.5,19.6l-0.1,0.2l0.1,0
						c0.1,0,0.1,0,0.1,0c0,0,0,0,0.1,0c0,0,0,0,0-0.1c0,0,0-0.1,0-0.1c0,0,0,0-0.1-0.1C22.7,19.7,22.7,19.6,22.5,19.6L22.5,19.6z"/>
					<path class="st0" d="M23.2,20.5l0.2-0.8l0.3,0.1c0.1,0,0.1,0,0.2,0.1c0,0,0.1,0.1,0.1,0.1c0,0,0,0.1,0,0.1c0,0.1,0,0.1-0.1,0.1
						c0,0-0.1,0-0.2,0c0,0,0.1,0.1,0.1,0.1c0,0,0,0.1,0.1,0.2l0.1,0.2l-0.2-0.1l-0.1-0.2c0-0.1,0-0.1-0.1-0.1c0,0,0,0,0,0
						c0,0,0,0-0.1,0l0,0l-0.1,0.3L23.2,20.5z M23.5,20.1l0.1,0c0.1,0,0.1,0,0.2,0c0,0,0,0,0.1,0c0,0,0,0,0-0.1c0,0,0-0.1,0-0.1
						c0,0,0,0-0.1,0c0,0-0.1,0-0.1,0l-0.1,0L23.5,20.1z"/>
					<path class="st0" d="M24.3,20.4c0-0.1,0.1-0.1,0.1-0.2c0,0,0.1-0.1,0.1-0.1c0,0,0.1,0,0.1,0c0.1,0,0.1,0,0.2,0
						c0.1,0,0.2,0.1,0.2,0.2c0,0.1,0,0.2,0,0.3c0,0.1-0.1,0.2-0.2,0.3c-0.1,0-0.2,0.1-0.3,0c-0.1,0-0.2-0.1-0.2-0.2
						C24.2,20.6,24.2,20.5,24.3,20.4z M24.4,20.4c0,0.1,0,0.2,0,0.2c0,0.1,0.1,0.1,0.1,0.1c0.1,0,0.1,0,0.2,0c0.1,0,0.1-0.1,0.1-0.2
						c0-0.1,0-0.2,0-0.2c0-0.1-0.1-0.1-0.1-0.1c-0.1,0-0.1,0-0.2,0C24.5,20.3,24.5,20.3,24.4,20.4z"/>
					<path class="st0" d="M25.7,21l0.1-0.1l0.3,0.1l-0.1,0.3c0,0-0.1,0-0.2,0c-0.1,0-0.1,0-0.2,0c-0.1,0-0.1-0.1-0.2-0.1
						c0-0.1-0.1-0.1-0.1-0.2c0-0.1,0-0.2,0-0.2c0-0.1,0.1-0.1,0.1-0.2c0.1-0.1,0.1-0.1,0.2-0.1c0.1,0,0.1,0,0.2,0
						c0.1,0,0.2,0.1,0.2,0.2c0,0.1,0,0.1,0,0.2l-0.2,0c0,0,0-0.1,0-0.1c0,0-0.1-0.1-0.1-0.1c-0.1,0-0.1,0-0.2,0
						c-0.1,0-0.1,0.1-0.1,0.2c0,0.1,0,0.2,0,0.2c0,0.1,0.1,0.1,0.1,0.1c0,0,0.1,0,0.1,0c0,0,0.1,0,0.1,0l0-0.1L25.7,21z"/>
					<path class="st0" d="M26.2,21.6l0.4-0.8l0.3,0.2c0.1,0,0.1,0.1,0.2,0.1c0,0,0,0.1,0.1,0.1c0,0,0,0.1,0,0.1
						c0,0.1-0.1,0.1-0.1,0.1c-0.1,0-0.1,0-0.2,0c0,0,0,0.1,0.1,0.1c0,0,0,0.1,0,0.2l0,0.2l-0.2-0.1l0-0.2c0-0.1,0-0.1,0-0.2
						c0,0,0,0,0-0.1c0,0,0,0-0.1,0l0,0l-0.2,0.3L26.2,21.6z M26.6,21.2l0.1,0.1c0.1,0,0.1,0.1,0.1,0.1c0,0,0,0,0.1,0c0,0,0,0,0,0
						c0,0,0,0,0-0.1c0,0,0,0,0-0.1c0,0,0,0-0.1-0.1L26.7,21L26.6,21.2z"/>
					<path class="st0" d="M27.2,22l0.4-0.7l0.5,0.3L28,21.7l-0.4-0.2l-0.1,0.2l0.4,0.2L27.8,22l-0.4-0.2L27.4,22l0.4,0.2l-0.1,0.1
						L27.2,22z"/>
					<path class="st0" d="M28.1,22.2l0.1,0.1c0,0.1,0,0.1,0,0.1c0,0,0,0.1,0.1,0.1c0,0,0.1,0,0.1,0c0,0,0.1,0,0.1,0c0,0,0,0,0-0.1
						c0,0,0,0,0-0.1c0,0,0-0.1-0.1-0.1c-0.1-0.1-0.1-0.1-0.1-0.2c0-0.1,0-0.1,0-0.2c0,0,0.1-0.1,0.1-0.1c0,0,0.1,0,0.1,0
						c0,0,0.1,0,0.2,0.1c0.1,0.1,0.1,0.1,0.2,0.2c0,0.1,0,0.1,0,0.2l-0.1-0.1c0,0,0-0.1,0-0.1c0,0,0-0.1-0.1-0.1c0,0-0.1,0-0.1,0
						c0,0,0,0,0,0c0,0,0,0,0,0.1c0,0,0,0.1,0.1,0.1c0.1,0.1,0.1,0.1,0.1,0.1c0,0,0,0.1,0,0.1c0,0,0,0.1,0,0.1c0,0-0.1,0.1-0.1,0.1
						c0,0-0.1,0-0.1,0c0,0-0.1,0-0.2-0.1c-0.1-0.1-0.1-0.1-0.2-0.2C28.1,22.4,28.1,22.3,28.1,22.2z"/>
					<path class="st0" d="M28.9,22.8l0.1,0.1c0,0.1,0,0.1,0,0.1c0,0,0,0.1,0.1,0.1c0,0,0.1,0,0.1,0c0,0,0.1,0,0.1,0c0,0,0,0,0,0
						c0,0,0,0,0-0.1c0,0,0,0-0.1-0.1c-0.1-0.1-0.1-0.1-0.1-0.2c0-0.1,0-0.1,0-0.2c0,0,0.1-0.1,0.1-0.1c0,0,0.1,0,0.1,0
						c0,0,0.1,0,0.2,0.1c0.1,0.1,0.1,0.1,0.2,0.2c0,0.1,0,0.1,0,0.2l-0.1-0.1c0,0,0-0.1,0-0.1c0,0,0-0.1-0.1-0.1c0,0-0.1,0-0.1,0
						c0,0,0,0-0.1,0c0,0,0,0,0,0.1c0,0,0,0.1,0.1,0.1c0.1,0.1,0.1,0.1,0.1,0.2c0,0,0,0.1,0,0.1c0,0,0,0.1,0,0.1c0,0-0.1,0.1-0.1,0.1
						c0,0-0.1,0-0.1,0c-0.1,0-0.1,0-0.2-0.1c-0.1-0.1-0.1-0.1-0.2-0.2C28.9,22.9,28.9,22.8,28.9,22.8z"/>
					<path class="st0" d="M29.8,23.2c0.1-0.1,0.1-0.1,0.2-0.1c0,0,0.1,0,0.1,0c0,0,0.1,0,0.1,0c0.1,0,0.1,0,0.2,0.1
						c0.1,0.1,0.2,0.2,0.2,0.3c0,0.1,0,0.2-0.1,0.3c-0.1,0.1-0.2,0.2-0.3,0.2c-0.1,0-0.2,0-0.3-0.1c-0.1-0.1-0.2-0.2-0.2-0.3
						C29.7,23.4,29.8,23.3,29.8,23.2z M30,23.3c-0.1,0.1-0.1,0.1-0.1,0.2c0,0.1,0,0.1,0.1,0.2c0.1,0,0.1,0.1,0.2,0
						c0.1,0,0.1-0.1,0.2-0.1c0.1-0.1,0.1-0.1,0.1-0.2c0-0.1,0-0.1-0.1-0.2c-0.1,0-0.1-0.1-0.2,0C30.1,23.2,30,23.2,30,23.3z"/>
				</g>
				<polygon class="st3" points="25.2,19.2 25.3,19.5 25.6,19.5 25.4,19.6 25.4,19.9 25.2,19.7 25,19.9 25.1,19.6 24.9,19.5 
					25.1,19.5 				"/>
				<polygon class="st3" points="22.5,26.2 22.6,26.4 22.9,26.4 22.7,26.6 22.7,26.8 22.5,26.7 22.3,26.8 22.4,26.6 22.2,26.4 
					22.5,26.4 				"/>
				<polygon class="st3" points="28.6,25.3 28.7,25.6 29,25.6 28.8,25.7 28.8,26 28.6,25.8 28.4,26 28.5,25.7 28.3,25.6 28.5,25.6 
									"/>
				<polygon class="st3" points="29.8,25.5 29.9,25.7 30,25.7 29.9,25.8 30,25.9 29.8,25.8 29.7,25.9 29.7,25.8 29.6,25.7 
					29.8,25.7 				"/>
				<polygon class="st3" points="29,26.1 29,26.4 29.3,26.4 29.1,26.5 29.2,26.7 29,26.6 28.8,26.7 28.9,26.5 28.7,26.4 28.9,26.4 
									"/>
				<polygon class="st3" points="28.4,26.9 28.5,27.1 28.7,27.1 28.5,27.2 28.6,27.4 28.4,27.3 28.3,27.4 28.3,27.2 28.1,27.1 
					28.4,27.1 				"/>
				<polygon class="st3" points="27.7,27.4 27.8,27.5 28,27.5 27.8,27.6 27.9,27.8 27.7,27.7 27.6,27.8 27.7,27.6 27.5,27.5 
					27.7,27.5 				"/>
				<polygon class="st3" points="26.8,27.2 26.9,27.4 27.1,27.4 26.9,27.4 27,27.6 26.8,27.5 26.7,27.6 26.8,27.4 26.6,27.4 
					26.8,27.4 				"/>
				<polygon class="st3" points="25.9,27.5 25.9,27.7 26.1,27.7 26,27.8 26,27.9 25.9,27.8 25.7,27.9 25.8,27.8 25.6,27.7 
					25.8,27.7 				"/>
				<polygon class="st3" points="26.9,28.9 26.9,29.1 27.1,29.1 26.9,29.2 27,29.3 26.9,29.2 26.7,29.3 26.8,29.2 26.6,29.1 
					26.8,29.1 				"/>
				<polygon class="st3" points="25.1,28.2 25.2,28.4 25.4,28.4 25.2,28.5 25.3,28.7 25.1,28.6 24.9,28.7 25,28.5 24.8,28.4 
					25,28.4 				"/>
				<polygon class="st3" points="24.4,27.3 24.5,27.4 24.7,27.4 24.5,27.5 24.6,27.7 24.4,27.6 24.3,27.7 24.3,27.5 24.2,27.4 
					24.4,27.4 				"/>
				<polygon class="st3" points="26.9,28 27,28.2 27.2,28.2 27,28.3 27.1,28.5 26.9,28.4 26.7,28.5 26.8,28.3 26.6,28.2 26.8,28.2 
									"/>
				<polygon class="st3" points="22.5,29.3 22.5,29.4 22.6,29.4 22.6,29.5 22.6,29.5 22.5,29.5 22.5,29.5 22.5,29.5 22.4,29.4 
					22.5,29.4 				"/>
				<polygon class="st3" points="24.8,21.9 24.9,22 25,22 24.9,22.1 25,22.3 24.8,22.2 24.7,22.3 24.7,22.1 24.6,22 24.7,22 				"/>
				<polygon class="st3" points="22.5,23.7 22.6,23.9 22.8,23.9 22.6,24 22.7,24.2 22.5,24.1 22.4,24.2 22.4,24 22.3,23.9 
					22.5,23.9 				"/>
				<polygon class="st3" points="23.5,24.5 23.6,24.7 23.8,24.7 23.6,24.8 23.7,25 23.5,24.9 23.4,25 23.4,24.8 23.3,24.7 
					23.5,24.7 				"/>
				<polygon class="st3" points="21.7,24.6 21.7,24.7 21.9,24.7 21.7,24.8 21.8,25 21.7,24.9 21.5,25 21.6,24.8 21.4,24.7 
					21.6,24.7 				"/>
				<polygon class="st3" points="22.1,25.3 22.1,25.4 22.2,25.4 22.1,25.4 22.2,25.5 22.1,25.5 22,25.5 22,25.4 21.9,25.4 22,25.4 
									"/>
				<polygon class="st3" points="15.4,20.7 15.5,21 15.7,21 15.5,21.1 15.6,21.4 15.4,21.2 15.2,21.4 15.3,21.1 15.1,21 15.3,21 
									"/>
				<polygon class="st3" points="19.2,22.7 19.2,22.9 19.4,22.9 19.3,23 19.3,23.2 19.2,23.1 19,23.2 19.1,23 18.9,22.9 19.1,22.9 
									"/>
				<polygon class="st3" points="16.2,24.4 16.3,24.6 16.5,24.6 16.3,24.8 16.4,25 16.2,24.9 16,25 16.1,24.8 15.9,24.6 16.1,24.6 
									"/>
				<polygon class="st3" points="17,24 17.1,24.1 17.2,24.1 17.1,24.2 17.1,24.3 17,24.3 16.9,24.3 17,24.2 16.9,24.1 17,24.1 				
					"/>
				<polygon class="st3" points="18,25.3 18.1,25.5 18.3,25.5 18.1,25.6 18.2,25.8 18,25.7 17.8,25.8 17.9,25.6 17.7,25.5 
					17.9,25.5 				"/>
				<polygon class="st3" points="19,26.9 19.1,27.1 19.4,27.1 19.2,27.3 19.2,27.5 19,27.4 18.8,27.5 18.9,27.3 18.7,27.1 
					18.9,27.1 				"/>
				<polygon class="st3" points="17.7,26.2 17.8,26.4 18,26.4 17.8,26.5 17.9,26.7 17.7,26.6 17.5,26.7 17.6,26.5 17.4,26.4 
					17.7,26.4 				"/>
				<polygon class="st3" points="15.1,25.3 15.2,25.4 15.3,25.4 15.2,25.5 15.2,25.7 15.1,25.6 15,25.7 15,25.5 14.9,25.4 
					15.1,25.4 				"/>
			</g>
		</g>
	</g>
</g>
</svg>
