<?xml version="1.0" encoding="utf-8"?>
<!-- Generator: Adobe Illustrator 22.1.0, SVG Export Plug-In . SVG Version: 6.00 Build 0)  -->
<svg version="1.1" id="Layer_1" xmlns="http://www.w3.org/2000/svg" xmlns:xlink="http://www.w3.org/1999/xlink" x="0px" y="0px"
	 viewBox="0 0 45 45" style="enable-background:new 0 0 45 45;" xml:space="preserve">
<style type="text/css">
	.st0{fill:#E31937;}
	.st1{fill:#FFFFFF;}
</style>
<g>
	<g>
		<g>
			<path class="st0" d="M33.8,45c3.8-0.1,6.1-0.5,8.4-2.8C45,39.4,45,36.6,45,30.9V14.1c0-5.6,0-8.4-2.8-11.3
				c-2.3-2.3-4.6-2.7-8.4-2.8V45z"/>
			<path class="st1" d="M30.9,0h-8.4h-8.4c-1,0-2,0-2.8,0v45c0.9,0,1.8,0,2.8,0h8.4h8.4c1,0,2,0,2.8,0V0C32.9,0,32,0,30.9,0z"/>
			<path class="st0" d="M11.3,45c-3.8-0.1-6.1-0.5-8.4-2.8C0,39.4,0,36.6,0,30.9V14.1C0,8.4,0,5.6,2.8,2.8C5.1,0.5,7.4,0.1,11.3,0
				V45z"/>
		</g>
		<path class="st0" d="M22.5,33.5h0.4l-0.1-5.1c0-0.2,0.2-0.3,0.4-0.3c1.6,0.2,3.1,0.4,4.7,0.6l-0.4-1.4c-0.1-0.2,0-0.5,0.2-0.7
			l4.7-4l-1-0.5c-0.4-0.2-0.3-0.4-0.2-1l0.7-2.7L29.1,19c-0.3,0-0.4-0.1-0.5-0.3l-0.4-1.3l-2.1,2.5c-0.3,0.4-0.9,0.4-0.7-0.5
			l0.9-5.1l-1.2,0.7c-0.3,0.2-0.7,0.2-0.9-0.1l-1.7-3.3l-1.7,3.3c-0.2,0.4-0.5,0.3-0.9,0.1l-1.2-0.7l0.9,5.1
			c0.2,0.9-0.4,0.9-0.7,0.5l-2.2-2.5l-0.3,1.3c0,0.2-0.2,0.3-0.5,0.3l-2.7-0.6l0.7,2.7c0.2,0.6,0.3,0.9-0.2,1l-1,0.5l4.7,4
			c0.2,0.1,0.3,0.4,0.2,0.7l-0.4,1.4c1.6-0.2,3.1-0.4,4.7-0.6c0.1,0,0.4,0.1,0.4,0.3l-0.1,5.1H22.5z"/>
	</g>
</g>
</svg>
