<?xml version="1.0" encoding="utf-8"?>
<!-- Generator: Adobe Illustrator 22.1.0, SVG Export Plug-In . SVG Version: 6.00 Build 0)  -->
<svg version="1.1" id="Layer_1" xmlns="http://www.w3.org/2000/svg" xmlns:xlink="http://www.w3.org/1999/xlink" x="0px" y="0px"
	 viewBox="0 0 45 45" style="enable-background:new 0 0 45 45;" xml:space="preserve">
<style type="text/css">
	.st0{fill:#FFFFFF;}
	.st1{fill:#D42E12;}
	.st2{fill:#0035AD;}
</style>
<g>
	<g>
		<g>
			<path class="st0" d="M22.5,22.5H45v-8.4c0-5.6,0-8.4-2.8-11.3C39.6,0.2,37,0,32.2,0h-9.7V22.5z"/>
			<path class="st1" d="M45,30.9v-8.4H22.5H0v8.4c0,5.6,0,8.4,2.8,11.2C5.6,45,8.4,45,14.1,45h16.9c5.6,0,8.4,0,11.3-2.8
				C45,39.4,45,36.6,45,30.9z"/>
			<path class="st2" d="M22.5,0L22.5,0l-8.4,0C8.4,0,5.6,0,2.8,2.8S0,8.4,0,14.1v8.4h22.5V0z"/>
		</g>
		<polygon class="st0" points="11.2,6.2 12.5,10.1 16.6,10.1 13.3,12.4 14.6,16.3 11.2,13.9 7.9,16.3 9.2,12.4 5.9,10.1 10,10.1 		
			"/>
	</g>
</g>
</svg>
