<?xml version="1.0" encoding="utf-8"?>
<!-- Generator: Adobe Illustrator 22.1.0, SVG Export Plug-In . SVG Version: 6.00 Build 0)  -->
<svg version="1.1" id="Layer_1" xmlns="http://www.w3.org/2000/svg" xmlns:xlink="http://www.w3.org/1999/xlink" x="0px" y="0px"
	 viewBox="0 0 45 45" style="enable-background:new 0 0 45 45;" xml:space="preserve">
<style type="text/css">
	.st0{fill:#DE2910;}
	.st1{fill:#FFDE00;}
</style>
<g>
	<g>
		<g>
			<path class="st0" d="M45,30.9c0,5.6,0,8.4-2.8,11.3C39.4,45,36.6,45,30.9,45H14.1c-5.6,0-8.4,0-11.3-2.8C0,39.4,0,36.6,0,30.9
				V14.1C0,8.4,0,5.6,2.8,2.8S8.4,0,14.1,0h16.9c5.6,0,8.4,0,11.3,2.8S45,8.4,45,14.1V30.9z"/>
		</g>
		<g>
			<g>
				<polygon class="st1" points="11.6,5.6 13,9.9 17.5,9.9 13.8,12.6 15.3,17 11.6,14.3 7.8,17 9.3,12.6 5.6,9.9 10.1,9.9 				"/>
			</g>
			<polygon class="st1" points="23.5,3.3 23.4,4.8 24.8,5.4 23.3,5.7 23.2,7.2 22.4,6 21,6.3 21.9,5.2 21.1,3.9 22.5,4.5 			"/>
			<polygon class="st1" points="28.6,8.2 28,9.5 29,10.6 27.5,10.3 26.8,11.7 26.6,10.2 25.1,10 26.5,9.3 26.2,7.8 27.3,8.9 			"/>
			<polygon class="st1" points="27.1,14.3 27.6,15.7 29.1,15.7 27.8,16.6 28.3,18 27.1,17.2 25.9,18 26.3,16.6 25.1,15.7 26.6,15.7 
							"/>
			<polygon class="st1" points="23.5,18.9 23.4,20.4 24.8,21 23.3,21.3 23.2,22.8 22.4,21.6 21,21.9 21.9,20.8 21.1,19.5 22.5,20 
							"/>
		</g>
	</g>
</g>
</svg>
