<?xml version="1.0" encoding="utf-8"?>
<!-- Generator: Adobe Illustrator 22.1.0, SVG Export Plug-In . SVG Version: 6.00 Build 0)  -->
<svg version="1.1" id="Layer_1" xmlns="http://www.w3.org/2000/svg" xmlns:xlink="http://www.w3.org/1999/xlink" x="0px" y="0px"
	 viewBox="0 0 45 45" style="enable-background:new 0 0 45 45;" xml:space="preserve">
<style type="text/css">
	.st0{fill:#FCD116;}
	.st1{fill:#003893;}
	.st2{fill:#CE1126;}
</style>
<g>
	<g>
		<path class="st0" d="M45,14.1c0-5.6,0-8.4-2.8-11.3C39.4,0,36.6,0,30.9,0H14.1C8.4,0,5.6,0,2.8,2.8C0,5.6,0,8.4,0,14.1v8.4h45
			V14.1z"/>
		<path class="st1" d="M45,30.9v-8.4H0v8.4c0,1,0,2,0,2.8h45C45,32.9,45,32,45,30.9z"/>
		<path class="st2" d="M0,33.8c0.1,3.8,0.5,6.1,2.8,8.4C5.6,45,8.4,45,14.1,45h16.9c5.6,0,8.4,0,11.2-2.8c2.3-2.3,2.7-4.6,2.8-8.4H0
			z"/>
	</g>
</g>
</svg>
