<?xml version="1.0" encoding="utf-8"?>
<!-- Generator: Adobe Illustrator 22.1.0, SVG Export Plug-In . SVG Version: 6.00 Build 0)  -->
<svg version="1.1" id="Layer_1" xmlns="http://www.w3.org/2000/svg" xmlns:xlink="http://www.w3.org/1999/xlink" x="0px" y="0px"
	 viewBox="0 0 22 22" style="enable-background:new 0 0 22 22;" xml:space="preserve">
<style type="text/css">
	.st0{fill:#FFFFFF;}
	.st1{fill:#002B7F;}
	.st2{fill:#CE1126;}
</style>
<g>
	<g>
		<path class="st0" d="M22,6.9c0-1.3,0-2.4-0.2-3.2H0.2C0,4.5,0,5.5,0,6.9v0.5h22V6.9z"/>
		<path class="st1" d="M20.6,1.4C19.3,0,17.9,0,15.1,0H6.9C4.1,0,2.8,0,1.4,1.4c-0.7,0.7-1,1.4-1.2,2.3h21.7
			C21.7,2.8,21.3,2.1,20.6,1.4z"/>
		<path class="st0" d="M0,15.1c0,1.3,0,2.4,0.2,3.2h21.7c0.2-0.8,0.2-1.9,0.2-3.2v-0.5H0V15.1z"/>
		<path class="st1" d="M1.4,20.6C2.8,22,4.1,22,6.9,22h8.3c2.8,0,4.1,0,5.5-1.4c0.7-0.7,1-1.4,1.2-2.3H0.2
			C0.3,19.2,0.7,19.9,1.4,20.6z"/>
		<polygon class="st2" points="0,7.3 0,11 0,14.7 22,14.7 22,11 22,7.3 		"/>
	</g>
</g>
</svg>
