<?xml version="1.0" encoding="utf-8"?>
<!-- Generator: Adobe Illustrator 22.1.0, SVG Export Plug-In . SVG Version: 6.00 Build 0)  -->
<svg version="1.1" id="Layer_1" xmlns="http://www.w3.org/2000/svg" xmlns:xlink="http://www.w3.org/1999/xlink" x="0px" y="0px"
	 viewBox="0 0 45 45" style="enable-background:new 0 0 45 45;" xml:space="preserve">
<style type="text/css">
	.st0{fill:#00209F;}
	.st1{fill:#D61517;}
	.st2{fill:#FFFFFF;}
	.st3{fill:#D61516;}
	.st4{fill:#393E90;}
	.st5{fill:#8E3836;}
	.st6{fill:#544B20;}
	.st7{fill:#F9F704;}
	.st8{fill:#3B75D9;}
	.st9{fill:#FEC502;}
	.st10{fill:#FAFC12;}
	.st11{fill:#F8F604;}
	.st12{fill:#31120A;}
	.st13{fill:#502D17;}
	.st14{fill:#FEFEFE;}
</style>
<g>
	<g>
		<g>
			<path class="st0" d="M2.8,42.2C5.6,45,8.4,45,14.1,45h16.9c5.6,0,8.4,0,11.3-2.8C45,39.4,45,36.6,45,30.9H0
				C0,36.6,0,39.4,2.8,42.2z"/>
			<path class="st1" d="M42.2,2.8C39.4,0,36.6,0,30.9,0H14.1C8.4,0,5.6,0,2.8,2.8C0,5.6,0,8.4,0,14.1l0,0h45C45,8.4,45,5.6,42.2,2.8
				z"/>
			<rect y="14.1" class="st2" width="45" height="16.9"/>
		</g>
		<g>
			<g>
				<path class="st3" d="M22.5,33.8L22.5,33.8c-1.4-0.1-2.7-0.4-3.7-0.8l0,0c-1.3-0.6-2.5-1.4-3.4-2.4l0,0c-0.6-0.6-1-1.3-1.4-2l0,0
					c-0.4-0.8-0.7-1.7-0.8-2.6l0,0c0-0.2,0-0.4,0-0.6l0,0c0-0.1,0-0.2,0-0.2l0,0l0-10.5v-0.5h0.5h8.7h8.7h0.4v0.1h-0.1h0.1v-0.1h0.1
					v0.5l0,10.5c0,0,0,0.1,0,0.2l0,0c0,0.2,0,0.4,0,0.6l0,0c-0.1,0.9-0.4,1.8-0.8,2.6l0,0c-0.4,0.7-0.8,1.4-1.4,2l0,0
					c-0.9,1-2.1,1.9-3.4,2.4l0,0C25.2,33.5,23.9,33.8,22.5,33.8L22.5,33.8L22.5,33.8L22.5,33.8L22.5,33.8z M13.5,14.6v10.5
					c0,0,0,0.1,0,0.2l0,0c0,0.2,0,0.4,0,0.6l0,0c0.1,0.9,0.4,1.7,0.7,2.5l0,0c0.3,0.7,0.8,1.4,1.3,2l0,0c0.9,1,2,1.8,3.3,2.4l0,0
					c1,0.4,2.3,0.7,3.6,0.8l0,0h0h0c1.3-0.1,2.6-0.4,3.6-0.8l0,0c1.3-0.6,2.4-1.4,3.3-2.4l0,0c0.5-0.6,1-1.3,1.3-2l0,0
					c0.4-0.8,0.6-1.6,0.7-2.5l0,0c0-0.2,0-0.4,0-0.6l0,0c0-0.1,0-0.2,0-0.2l0,0l0-10.5l0-0.3h-0.3h-8.7h-8.7h-0.3V14.6L13.5,14.6z"
					/>
				<path class="st3" d="M22.5,33.5L22.5,33.5c-1.3-0.1-2.6-0.4-3.6-0.8c-1.2-0.6-2.4-1.4-3.3-2.4c-0.5-0.6-1-1.3-1.3-1.9
					c-0.4-0.8-0.6-1.6-0.7-2.5c0-0.3,0-0.8,0-0.8l0-10.5v-0.2h0.2h8.7h8.7h0.2v0.2l0,10.5c0,0,0,0.5,0,0.8c-0.1,0.9-0.4,1.7-0.7,2.5
					c-0.3,0.7-0.8,1.3-1.3,1.9c-0.9,1-2,1.8-3.3,2.4C25.1,33.2,23.8,33.5,22.5,33.5L22.5,33.5L22.5,33.5z"/>
				<g>
					<rect x="24.2" y="14.7" class="st2" width="3.4" height="3.7"/>
					<rect x="20.8" y="18.4" class="st2" width="3.4" height="3.7"/>
					<rect x="27.7" y="18.4" class="st2" width="3.4" height="3.7"/>
					<rect x="13.9" y="18.4" class="st2" width="3.4" height="3.7"/>
					<rect x="20.8" y="25.8" class="st2" width="3.4" height="3.7"/>
					<path class="st2" d="M27.7,29.5h1.9c0.3-0.4,0.5-0.8,0.7-1.2c0.4-0.7,0.6-1.5,0.7-2.4c0,0,0-0.1,0-0.1h-3.4V29.5z"/>
					<path class="st2" d="M17.3,25.8h-3.4c0,0,0,0.1,0,0.1c0.1,0.8,0.3,1.6,0.7,2.4c0.2,0.4,0.5,0.8,0.7,1.2h1.9V25.8z"/>
					<rect x="17.3" y="14.7" class="st2" width="3.4" height="3.7"/>
					<rect x="24.2" y="22.1" class="st2" width="3.4" height="3.7"/>
					<rect x="17.3" y="22.1" class="st2" width="3.4" height="3.7"/>
					<path class="st2" d="M24.2,29.5V33c0.6-0.1,1.2-0.3,1.7-0.5c0.6-0.3,1.2-0.6,1.7-1v-1.9H24.2z"/>
					<path class="st2" d="M17.3,29.5v1.9c0.5,0.4,1.1,0.7,1.7,1c0.5,0.2,1.1,0.4,1.7,0.5v-3.5H17.3z"/>
				</g>
				<path class="st2" d="M31.2,14.6l0,10.5c0,0,0,0.5,0,0.8c-0.1,0.8-0.3,1.7-0.7,2.4c-0.3,0.7-0.8,1.3-1.3,1.9
					c-0.9,1-2,1.8-3.2,2.3c-1,0.5-2.4,0.7-3.5,0.8C21.4,33.3,20,33,19,32.6c-1.2-0.5-2.3-1.3-3.2-2.3c-0.5-0.6-1-1.2-1.3-1.9
					c-0.4-0.8-0.6-1.6-0.7-2.4c0-0.3,0-0.8,0-0.8l0-10.5h8.7H31.2z M31.6,14.2h-0.4h-8.7h-8.7h-0.4v0.4l0,10.5c0,0.1,0,0.6,0,0.8
					c0.1,0.9,0.4,1.8,0.8,2.6c0.3,0.7,0.8,1.4,1.4,2c0.9,1,2.1,1.8,3.3,2.4c1,0.5,2.3,0.7,3.6,0.8h0h0c1.3-0.1,2.6-0.4,3.6-0.8
					c1.3-0.6,2.4-1.4,3.3-2.4c0.6-0.6,1-1.3,1.4-2c0.4-0.8,0.6-1.7,0.8-2.6c0-0.3,0-0.8,0-0.8l0-10.5V14.2L31.6,14.2z"/>
			</g>
			<g>
				<g>
					<path class="st1" d="M32.3,6.1L32.3,6.1c-0.1,0-0.2,0.1-0.5,0.2c-0.4,0.2-1,0.4-1.5,0.6c-0.3,0.1-0.5,0.2-0.7,0.3
						c-0.1,0-0.2,0.1-0.2,0.1c0,0,0,0,0,0l0,0c-0.1-0.1-0.6-0.7-1.1-1.2c-0.2-0.3-0.5-0.5-0.6-0.7c-0.1-0.1-0.2-0.2-0.2-0.2
						c0,0,0,0-0.1-0.1c0,0,0,0,0,0c0,0,0,0,0,0c0,0,0,0,0,0l0,0l0,0l0,0l-2.6,1.6l-2.4-1.9l-2.3,1.8l-2.7-1.5l-1.9,2.3l-2.9-1.2
						L11,9l2.3,4.7l0.1,0c2.8-1,5.9-1.5,9-1.5c0,0,0,0,0.1,0c3,0,6.1,0.5,9.1,1.6l0.1,0L34,9L32.3,6.1z"/>
					<path class="st2" d="M13.4,13.6c2.8-1,5.9-1.5,9-1.6c3.1,0,6.2,0.5,9.2,1.6L33.9,9l-1.6-2.8c0,0-2.9,1.2-2.9,1.2
						c0,0-2-2.2-2-2.2l-2.6,1.6l-2.4-1.8l-2.3,1.8l-2.7-1.5l-1.9,2.3l-2.9-1.2L11.1,9L13.4,13.6z"/>
					<g>
						<g>
							<path class="st4" d="M27.3,5.6L27.3,5.6c0.7,0.7,1.3,1.4,2,2.1v0l0,0c0,0.1,0,0.2-0.1,0.2c-0.4,1.5-0.8,2.9-1.2,4.4
								c-0.4-0.1-0.9-0.2-1.3-0.2c-0.8-0.1-1.5-0.2-2.3-0.3v0c0.1-1.6,0.3-3.2,0.4-4.8C25.6,6.6,26.5,6.1,27.3,5.6L27.3,5.6z"/>
							<path class="st3" d="M26.2,7.9c0.1,0,0.2,0,0.3,0c0,0,0.1,0,0.1,0c0,0,0.1,0,0.1,0.1c0,0,0.1,0,0.1,0C26.9,7.9,26.9,8,27,8
								c0.1,0,0.1,0,0.2,0c0.1,0,0.2,0,0.2,0c0,0,0.1,0,0.1,0c0,0,0.1,0,0.1,0c0,0,0,0,0,0.1c-0.1,0.1-0.1,0.1-0.2,0.1
								c-0.1,0-0.1,0-0.2,0.1c-0.1,0-0.2,0-0.2,0c0,0-0.1,0-0.1,0c0,0,0,0,0,0c0.1,0,0.1,0,0.2,0.1c0.1,0,0.1,0.1,0.2,0.1
								c0.1,0,0.1,0,0.2,0c0.1,0,0.2,0,0.3,0c0,0,0.1,0,0.1,0c0,0,0.1,0,0.1,0c0,0,0,0,0,0.1c-0.1,0.1-0.2,0.1-0.4,0.2
								c-0.1,0-0.3,0-0.4,0c-0.2,0-0.3,0-0.5-0.1c-0.1,0-0.1-0.1-0.2-0.1c-0.1,0-0.2-0.1-0.3-0.1c-0.1,0-0.2,0-0.2,0
								c-0.2-0.1-0.3-0.2-0.5-0.3C25.7,8.1,25.7,8,25.8,8C25.9,7.9,26.1,7.9,26.2,7.9L26.2,7.9z"/>
							<path class="st5" d="M26.2,7.9C26.2,7.9,26.3,7.9,26.2,7.9c0.1,0,0.1,0.1,0.1,0.1c0,0,0,0.1,0,0.1c0,0,0,0,0,0
								c0,0,0-0.1,0-0.1C26.3,7.9,26.2,7.9,26.2,7.9L26.2,7.9z"/>
							<path class="st5" d="M26.6,8.2c0-0.1,0-0.2,0-0.3c0,0,0,0,0.1,0C26.7,8,26.7,8,26.6,8.2C26.7,8.1,26.7,8.1,26.6,8.2L26.6,8.2
								z"/>
							<path class="st5" d="M25.7,8C25.7,8,25.8,8,25.7,8c0.1,0,0.2,0,0.2,0c0,0,0,0,0,0.1c0,0-0.1,0-0.1-0.1
								C25.8,8.1,25.8,8.1,25.7,8L25.7,8z"/>
							<path class="st5" d="M27,8C27,8,27,8,27,8C27,8.1,27,8.2,27,8.2c0,0,0,0,0,0C27,8.2,27,8.1,27,8L27,8z"/>
							<path class="st5" d="M27.3,8.1C27.3,8.1,27.4,8.1,27.3,8.1c0,0,0,0.1,0,0.1c0,0,0,0-0.1,0C27.3,8.1,27.3,8.1,27.3,8.1
								L27.3,8.1z"/>
							<path class="st6" d="M25,8.2C25,8.2,25,8.1,25,8.2c0.2,0,0.3,0,0.4,0.1c0,0,0,0,0.1-0.1c0,0,0.1-0.1,0.1-0.1
								c0.2,0.1,0.3,0.2,0.5,0.3c0,0,0,0,0,0c0.1,0,0.2,0,0.4,0c0,0.1-0.1,0.1-0.1,0.2c-0.1,0.1-0.2,0.1-0.3,0.2
								c0.1,0.1,0.1,0.2,0.2,0.3c0,0,0.1,0,0.1,0.1c0,0,0.1,0,0.1,0c0.1,0,0.1,0,0.2,0c0,0,0.1,0,0.1,0c0,0,0.1,0,0.1,0
								c0.1,0,0.1,0,0.2,0c0,0,0,0,0.1,0c0,0,0.1,0,0.1,0c0,0,0.1,0,0.1,0c0,0,0.1,0,0.1,0c0,0,0.1,0,0.1,0c0,0,0.1,0,0.1,0
								c0.1,0,0.1,0,0.2,0c0,0,0.1,0,0.1,0c0,0,0.1,0,0.1,0c0,0,0.1-0.1,0.1-0.1c0,0,0,0,0.1,0c0,0,0,0,0.1,0c0,0,0,0.1,0,0.1
								c0,0.1,0,0.1,0,0.2c0,0.1-0.1,0.1-0.1,0.2c0,0,0,0,0,0.1c0,0,0,0.1,0,0.1c0,0,0,0,0,0.1c0,0-0.1,0.1-0.1,0.2c0,0,0,0.1,0,0.1
								c0,0.1,0,0.1,0,0.2c0,0,0,0,0,0.1c0,0,0,0,0,0.1c0,0.1,0,0.1,0,0.2c0,0,0,0,0,0c0,0.1,0,0.1,0,0.2c0,0,0,0,0,0
								c-0.1,0.1-0.2,0.1-0.2,0.2c0,0,0,0,0,0.1c0,0,0,0.1,0,0.2c-0.1,0-0.1,0.1-0.2,0.1c-0.1,0-0.2-0.1-0.3-0.1c0,0,0,0,0-0.1
								c0-0.1,0.1-0.1,0.1-0.2c0,0,0-0.1,0-0.1c0-0.1,0-0.2,0-0.2c0,0,0,0,0,0c0-0.1-0.1-0.1-0.2-0.1c-0.1,0.1-0.2,0.2-0.2,0.2
								c0,0,0,0-0.1,0.1c0,0,0,0.1,0,0.1c0,0-0.1,0-0.1,0.1c0,0,0,0.1,0,0.1c-0.1,0-0.2,0-0.3-0.1c0,0,0-0.1,0.1-0.1
								c0,0,0-0.1,0-0.1c0,0,0,0,0-0.1c0.1-0.1,0.1-0.2,0.2-0.3c-0.1,0-0.1,0-0.2,0c0,0-0.1,0-0.1-0.1c0,0-0.1,0.1-0.1,0.1
								c0,0,0,0-0.1,0c0,0-0.1,0.1-0.1,0.1c0,0-0.1,0-0.1,0c0,0.1-0.1,0.2-0.1,0.2c0,0-0.1,0.1-0.1,0.1c0,0,0,0.1,0,0.1
								c0,0.1,0,0.1,0,0.2c0,0-0.1,0-0.1,0.1c0,0,0,0-0.1,0.1c0,0,0,0,0,0c0,0,0,0-0.1,0c-0.1,0-0.1,0-0.2-0.1c0-0.1,0-0.2,0.1-0.2
								c0,0,0.1-0.1,0.1-0.1c0-0.1,0-0.2,0-0.3c0-0.1,0.1-0.2,0.1-0.3c0,0-0.1,0-0.1,0c0,0-0.1,0-0.1,0c0,0,0,0,0,0
								c-0.1,0.1-0.1,0.2-0.2,0.3c0,0,0,0,0,0.1c0,0,0,0.1,0,0.1c0,0,0,0,0,0.1c-0.1,0-0.2-0.1-0.3-0.1c0-0.1,0-0.1,0-0.2
								c0-0.1,0.1-0.1,0.1-0.2c0-0.1,0.1-0.2,0.1-0.2c0-0.1,0-0.1,0-0.2c0,0,0-0.1,0-0.1c0-0.1,0-0.2,0-0.2c0,0-0.1,0-0.1,0
								c0,0,0-0.1,0-0.1c0,0,0,0,0.1-0.1c0,0-0.1,0-0.1,0c0,0,0-0.1,0-0.1c0.1-0.1,0.2-0.2,0.2-0.2c0,0-0.1,0-0.1,0c0,0,0,0,0,0
								c0,0,0,0,0-0.1c0,0-0.1,0-0.1,0c0,0,0-0.1,0-0.1c-0.1,0-0.2,0-0.3,0c0,0-0.1,0-0.1-0.1c0,0,0-0.1,0-0.1
								c0-0.1,0.1-0.1,0.1-0.2c0-0.1,0.1-0.1,0.1-0.2c-0.1,0-0.1-0.1-0.2-0.2C25,8.3,25,8.2,25,8.2L25,8.2z"/>
							<path class="st7" d="M25,8.2C25,8.2,25,8.2,25,8.2c0.2,0,0.3,0,0.4,0.1c0.1-0.1,0.1-0.1,0.2-0.1c0,0,0,0,0.1,0
								c0.2,0.1,0.3,0.2,0.5,0.3c0.1,0,0.2,0,0.4,0c0,0.1-0.1,0.1-0.1,0.2c-0.1,0.1-0.2,0.1-0.3,0.1c0.1,0.1,0.2,0.3,0.3,0.4
								c0,0,0.1,0,0.1,0c0.1,0,0.1,0,0.2,0c0,0,0.1,0,0.1,0c0.1,0,0.2,0,0.2,0c0,0,0.1,0,0.1,0c0,0,0.1,0,0.1,0c0,0,0,0,0.1,0
								c0,0,0.1,0,0.1,0c0,0,0.1,0,0.1,0c0,0,0.1,0,0.1,0c0.1,0,0.1,0,0.2,0c0.1,0,0.1,0,0.2,0c0,0,0.1,0,0.1,0c0,0,0.1-0.1,0.1-0.1
								c0,0,0,0,0.1,0c0,0,0,0,0,0.1c0,0.1,0,0.1,0,0.2c0,0,0,0.1,0,0.1c0,0-0.1,0.1-0.1,0.1c0,0,0,0.1,0,0.1c0,0,0,0.1,0,0.1
								c-0.1,0.1-0.1,0.2-0.2,0.3c0,0.1,0,0.2,0,0.2c0,0,0,0,0,0.1c0,0,0,0,0,0c0,0,0,0.1,0,0.1c0,0,0,0,0,0.1c0,0,0,0,0,0
								c0,0.1,0,0.1,0,0.2c-0.1,0.1-0.2,0.1-0.3,0.2c0,0,0,0,0,0.1c0,0.1,0,0.1,0,0.2c-0.1,0-0.1,0.1-0.2,0.1
								c-0.1,0-0.2-0.1-0.2-0.1c0,0,0,0,0-0.1c0-0.1,0.1-0.1,0.1-0.2c0,0,0-0.1,0-0.1c0-0.1,0-0.2,0-0.3c0,0,0,0,0-0.1
								c0-0.1-0.1-0.1-0.2-0.1c-0.1,0.1-0.2,0.2-0.2,0.3c0,0,0,0-0.1,0.1c0,0,0,0.1,0,0.1c0,0-0.1,0-0.1,0.1c0,0,0,0.1,0,0.1
								c-0.1,0-0.2,0-0.2-0.1c0,0,0.1-0.1,0.1-0.1c0,0,0-0.1,0-0.1c0.1-0.1,0.1-0.2,0.2-0.3c-0.1,0-0.1,0-0.2,0c0,0,0,0-0.1,0
								c0,0,0,0,0,0c0,0-0.1,0.1-0.2,0.1c0,0,0,0,0-0.1c0,0-0.1,0.1-0.1,0.1c0,0-0.1,0-0.1,0c0,0.1-0.1,0.2-0.1,0.2
								c0,0.1-0.1,0.1-0.1,0.2c0,0.1,0,0.2,0,0.3c0,0-0.1,0-0.1,0.1c0,0,0,0,0,0c-0.1,0-0.2,0-0.2-0.1c0-0.1,0-0.1,0.1-0.2
								c0,0,0-0.1,0.1-0.1c0,0,0,0,0-0.1c0-0.1,0-0.2,0-0.3c0-0.1,0.1-0.2,0.1-0.3c0,0-0.1-0.1-0.1-0.1c-0.1,0-0.1,0-0.2,0.1
								c-0.1,0.1-0.1,0.2-0.2,0.4c0,0,0,0.1,0,0.1c0,0,0,0.1-0.1,0.1c-0.1,0-0.2,0-0.3-0.1c0-0.1,0-0.1,0.1-0.2c0,0,0.1-0.1,0.1-0.1
								c0,0,0-0.1,0.1-0.1c0,0,0,0,0.1-0.1c0-0.1,0-0.1,0-0.2c0,0,0,0,0-0.1c0-0.1,0-0.1,0-0.2c0,0,0-0.1,0-0.1c0,0-0.1,0-0.1,0
								c0,0,0-0.1,0-0.1c0,0,0-0.1,0.1-0.1c0,0,0,0-0.1,0c0,0,0,0,0,0c0,0,0-0.1,0.1-0.1c0.1-0.1,0.2-0.2,0.2-0.3c0,0-0.1,0-0.1,0
								c0,0,0-0.1,0-0.1c0,0-0.1,0-0.1,0c0,0,0-0.1,0-0.1c-0.1,0-0.2,0-0.3,0c0,0-0.1,0-0.1,0c0,0,0-0.1,0-0.1
								c0-0.1,0.1-0.1,0.1-0.2c0-0.1,0.1-0.2,0.1-0.3c-0.1,0-0.1-0.1-0.2-0.2C25,8.3,25,8.3,25,8.2L25,8.2z"/>
							<path class="st5" d="M26.5,8.1c0,0,0.1,0.1,0.1,0.1c0,0.1,0,0.1-0.1,0.1c0,0,0-0.1,0-0.1C26.5,8.2,26.5,8.2,26.5,8.1
								L26.5,8.1z"/>
							<path class="st5" d="M26,8.2c0.1,0,0.1,0,0.1,0.1c0,0,0,0.1,0,0.1c0,0,0,0,0,0C26.1,8.4,26.1,8.3,26,8.2
								C26.1,8.2,26,8.2,26,8.2L26,8.2z"/>
							<path class="st5" d="M26.9,8.3C27,8.3,27,8.3,26.9,8.3c0,0.1,0.1,0.1,0,0.2c0,0,0,0,0,0.1c0,0,0,0-0.1,0c0,0,0,0,0,0
								C27,8.5,27,8.4,26.9,8.3L26.9,8.3z"/>
							<path class="st5" d="M27.3,8.4C27.3,8.4,27.3,8.4,27.3,8.4c0.1,0.1,0.1,0.1,0.1,0.1c0,0,0,0.1,0,0.1c0,0,0,0-0.1,0
								c0,0,0-0.1,0-0.1C27.3,8.5,27.3,8.5,27.3,8.4L27.3,8.4z"/>
							<path class="st5" d="M27.6,8.5C27.6,8.5,27.7,8.5,27.6,8.5c0.1,0,0.1,0.1,0.1,0.1c0,0,0,0-0.1,0C27.6,8.6,27.6,8.5,27.6,8.5
								L27.6,8.5z"/>
							<path class="st6" d="M26,8.6c0.1,0,0.2,0,0.3,0c0,0-0.1,0.1-0.1,0.1c0,0-0.1,0-0.1,0c0,0,0,0-0.1,0c-0.1,0-0.1,0-0.1-0.1
								C25.9,8.6,26,8.6,26,8.6L26,8.6z"/>
							<path class="st6" d="M25.4,8.6c0.1,0,0.1,0,0.2,0c0.1,0,0.1,0,0.2,0c0,0-0.1,0-0.1,0.1c0,0,0,0-0.1,0c0,0-0.1,0-0.1,0
								C25.5,8.7,25.5,8.6,25.4,8.6L25.4,8.6z"/>
							<path class="st6" d="M28.3,9.1c0,0,0,0.2,0,0.2c0,0-0.1,0-0.1,0c0,0,0,0,0-0.1C28.1,9.1,28.3,9.1,28.3,9.1z"/>
							<path class="st6" d="M27.4,9.5C27.4,9.4,27.4,9.5,27.4,9.5c0.1,0.1,0.1,0.2,0.1,0.3c0,0,0,0,0,0.1c0,0,0,0,0,0
								c0-0.1,0-0.1,0-0.2C27.4,9.6,27.4,9.5,27.4,9.5L27.4,9.5z"/>
							<path class="st6" d="M25.6,9.5C25.6,9.4,25.6,9.5,25.6,9.5c0.1,0.1,0.1,0.2,0.1,0.3c0,0,0,0,0,0.1c0,0,0,0,0,0
								c0-0.1,0-0.1,0-0.2C25.6,9.6,25.6,9.5,25.6,9.5L25.6,9.5z"/>
							<path class="st6" d="M25.9,10.1C25.9,10.1,25.9,10.1,25.9,10.1c0.1,0.1,0.1,0.2,0.1,0.3c0,0,0,0,0,0.1c0,0,0,0,0,0
								c0-0.1,0-0.1,0-0.2C25.9,10.2,25.9,10.2,25.9,10.1L25.9,10.1z"/>
							<path class="st6" d="M27.5,10C27.6,10,27.6,10,27.5,10c0.1,0.1,0.1,0.2,0.1,0.3c0,0,0,0,0,0.1s0,0,0,0c0-0.1,0-0.1,0-0.2
								C27.6,10.1,27.5,10.1,27.5,10L27.5,10z"/>
							<path class="st6" d="M26.2,9.5C26.2,9.5,26.2,9.5,26.2,9.5c0.1,0.1,0.1,0.1,0.1,0.2c0,0,0,0,0,0.1c0,0,0,0-0.1,0
								C26.2,9.7,26.2,9.7,26.2,9.5C26.2,9.6,26.2,9.5,26.2,9.5L26.2,9.5z"/>
							<path class="st6" d="M27,9.4C27,9.4,27,9.4,27,9.4c0.1,0.1,0.1,0.1,0.1,0.2c0,0,0,0,0,0.1c0,0,0,0-0.1,0
								C27,9.6,27,9.5,27,9.4C27,9.4,27,9.4,27,9.4L27,9.4z"/>
							<path class="st6" d="M26.6,9.4C26.6,9.4,26.6,9.4,26.6,9.4c0.1,0.1,0.1,0.1,0.1,0.2c0,0,0,0,0,0.1c0,0,0,0-0.1,0
								C26.6,9.6,26.6,9.6,26.6,9.4C26.6,9.5,26.6,9.4,26.6,9.4L26.6,9.4z"/>
							<path class="st6" d="M27.7,9.6C27.7,9.6,27.7,9.6,27.7,9.6C27.7,9.6,27.7,9.7,27.7,9.6c0.1,0.1,0.1,0.2,0.1,0.2
								c0,0.1,0.1,0.1,0.2,0.2c0,0,0,0,0,0c-0.1,0-0.1,0-0.2,0c0,0,0,0-0.1,0c0-0.1,0-0.1,0-0.2C27.7,9.8,27.7,9.7,27.7,9.6
								L27.7,9.6z"/>
							<path class="st6" d="M27,9.7C27,9.7,27,9.7,27,9.7c0,0.1,0,0.2,0,0.3c0,0,0,0.1-0.1,0.1c0,0,0,0,0,0c0-0.1,0-0.1,0-0.2
								C26.9,9.9,27,9.8,27,9.7L27,9.7z"/>
							<path class="st6" d="M26.5,9.8C26.5,9.8,26.5,9.8,26.5,9.8c0,0.1,0,0.2,0,0.3c0,0,0,0.1-0.1,0.1c0,0,0,0,0,0
								c0-0.1,0-0.1,0-0.2C26.5,10,26.5,9.9,26.5,9.8L26.5,9.8z"/>
							<path class="st3" d="M25,11c0.1,0,0.2,0,0.3,0.1c0,0,0,0.1,0,0.1c0,0,0,0.1-0.1,0.1c0,0-0.1,0-0.1,0c-0.1,0-0.2,0-0.2,0
								c0,0,0-0.1,0-0.1C24.9,11.1,24.9,11,25,11L25,11z"/>
							<path class="st3" d="M26.5,11.1c0,0,0.1-0.1,0.1-0.1c0.1,0,0.2,0,0.3,0.1c0,0,0,0.1,0,0.1c0,0,0,0,0,0.1c0,0-0.1,0-0.1,0
								c-0.1,0-0.2,0-0.2,0C26.5,11.2,26.5,11.2,26.5,11.1L26.5,11.1z"/>
							<path class="st3" d="M27.2,11.4c0.1,0,0.1-0.1,0.1-0.1c0.1,0,0.2,0.1,0.3,0.1c0,0,0,0.1,0,0.1c0,0.1-0.1,0.1-0.2,0.1
								c-0.1,0-0.2,0-0.3,0C27.2,11.5,27.2,11.4,27.2,11.4L27.2,11.4z"/>
							<path class="st3" d="M25.5,11.4c0,0,0.1-0.1,0.1-0.1c0.1,0,0.1,0,0.2,0c0,0,0,0,0.1,0c0,0.1,0,0.1-0.1,0.1c0,0-0.1,0-0.1,0
								c-0.1,0-0.2,0-0.2,0C25.5,11.5,25.5,11.5,25.5,11.4L25.5,11.4z"/>
						</g>
						<g>
							<path class="st4" d="M17.5,5.6L17.5,5.6c0.1,0.1,0.2,0.1,0.4,0.2c0.7,0.4,1.5,0.8,2.2,1.3c0,0,0,0,0,0c-0.6,0-1.2,0-1.8,0.1
								c-0.3,0-0.6,0.1-0.9,0.1c-0.6,0.1-1.3,0.4-1.7,0.6C15.7,7.8,16.9,6.3,17.5,5.6L17.5,5.6z"/>
							<path class="st3" d="M18.3,7.1C18.9,7,19.5,7,20.1,7c0,0,0,0,0,0c0,0.4,0.1,0.8,0.1,1.2c-0.1,0-0.2,0-0.2,0
								c-0.1,0-0.3,0-0.4,0c-0.3,0-0.6,0-0.9,0.1c-0.3,0-0.7,0.1-1,0.1c-0.4,0.1-0.7,0.1-1.1,0.2c-0.2,0.1-0.4,0.1-0.7,0.2
								c-0.1-0.3-0.1-0.5-0.2-0.8c0,0,0,0,0,0c0-0.1,0-0.2-0.1-0.2c0.5-0.3,1.1-0.5,1.7-0.6C17.7,7.2,18,7.1,18.3,7.1L18.3,7.1z"/>
							<path class="st4" d="M19.6,8.2c0.1,0,0.3,0,0.4,0c0.1,0,0.2,0,0.2,0c0,0.1,0,0.1,0,0.2c0,0.3,0.1,0.6,0.1,1
								c-0.8,0-1.5,0-2.3,0.1c-0.6,0.1-1.2,0.2-1.8,0.4c0,0,0,0,0,0c0.1,0.3,0.2,0.6,0.2,0.9v0c0,0,0,0,0-0.1
								c-0.2-0.6-0.3-1.2-0.5-1.9c0.2-0.1,0.4-0.2,0.7-0.2c0.3-0.1,0.7-0.2,1.1-0.2c0.3-0.1,0.7-0.1,1-0.1C19,8.3,19.3,8.3,19.6,8.2
								L19.6,8.2z"/>
							<path class="st3" d="M18.1,9.5c0.8-0.1,1.5-0.1,2.3-0.1c0,0,0,0,0,0c0,0.4,0.1,0.8,0.1,1.2l0,0c-0.6,0-1.2,0.1-1.7,0.2
								c-0.7,0.1-1.4,0.2-2.1,0.4h0c0-0.1-0.1-0.2-0.1-0.3c0,0,0,0,0,0l0,0v0c-0.1-0.3-0.2-0.6-0.2-0.9c0,0,0,0,0,0
								C16.8,9.7,17.4,9.5,18.1,9.5L18.1,9.5z"/>
							<path class="st4" d="M18.7,10.8c0.6-0.1,1.2-0.1,1.7-0.2c0,0.4,0.1,0.8,0.1,1.2v0c-0.8,0.1-1.6,0.1-2.3,0.3
								c-0.5,0.1-0.9,0.2-1.4,0.2c-0.1-0.5-0.3-1-0.4-1.5c0,0,0,0,0,0c0,0.1,0.1,0.2,0.1,0.3h0C17.3,11,18,10.9,18.7,10.8L18.7,10.8
								z"/>
						</g>
						<g>
							<path class="st8" d="M12.7,6.6L12.7,6.6c1,0.4,1.9,0.8,2.9,1.2c0.4,1.5,0.8,3,1.2,4.5v0c-0.4,0.1-0.7,0.2-1.1,0.3
								c-0.4,0.1-0.7,0.2-1.1,0.3c-0.4,0.1-0.8,0.3-1.2,0.4c-0.7-1.5-1.4-2.9-2.1-4.4v0C11.8,8.2,12.3,7.4,12.7,6.6L12.7,6.6z"/>
							<path class="st2" d="M15.6,10c0,0,0.1-0.1,0.1-0.1c0.1,0.3,0.1,0.6,0,0.9c-0.1,0.2-0.2,0.4-0.4,0.6c-0.1,0.1-0.2,0.2-0.3,0.2
								c-0.1,0-0.1,0.1-0.2,0.1c-0.3,0.1-0.6,0.1-0.9,0.1c-0.2,0-0.5-0.2-0.7-0.3c-0.1-0.1-0.3-0.3-0.4-0.4c0.3,0.1,0.6,0.1,1,0.1
								c0.3,0,0.5-0.1,0.7-0.1c0.2-0.1,0.4-0.2,0.6-0.4C15.4,10.4,15.5,10.2,15.6,10L15.6,10z"/>
							<g>
								<polygon class="st9" points="14.2,7.9 14.1,8.5 14.5,8.8 14,9.1 13.9,9.6 13.5,9.3 13,9.5 13,9 12.5,8.6 13.1,8.3 13.2,7.8 
									13.6,8.1 								"/>
								<polygon class="st10" points="14.1,8 14.1,8.5 13.5,8.7 								"/>
								<polygon class="st10" points="13.2,7.8 13.6,8.1 13.5,8.7 								"/>
								<polygon class="st10" points="13,9.5 13.5,9.3 13.5,8.7 								"/>
								<polygon class="st10" points="12.6,8.6 13,8.9 13.5,8.7 								"/>
								<polygon class="st10" points="14.5,8.8 14,9 13.9,9.5 13.5,8.7 								"/>
							</g>
						</g>
						<g>
							<path class="st8" d="M22.4,5.3L22.4,5.3c0.8,0.6,1.5,1.2,2.3,1.8v0c-0.1,1.6-0.3,3.2-0.4,4.8h-0.1c-0.5,0-0.9,0-1.4,0
								c-0.7,0-1.5,0-2.2,0c-0.1-1.6-0.3-3.2-0.4-4.8v0C20.9,6.5,21.7,5.9,22.4,5.3L22.4,5.3z"/>
							<g>
								<g>
									<path class="st6" d="M21.3,7.3c0.1,0,0.1,0.1,0.2,0.1c0,0.1,0,0.1,0,0.2c0,0,0.1,0,0.1,0c0,0,0-0.1,0-0.1c0,0,0,0,0,0
										c0,0,0.1,0,0.1,0c0,0,0,0,0.1-0.1c0,0,0.1,0,0.1,0c0,0,0,0.1,0,0.1c0,0.1-0.1,0.1-0.1,0.2c0,0,0,0.1,0,0.1c0,0,0.1,0,0.1,0
										c0,0.1,0,0.1,0,0.2c0.1,0.1,0.1,0.1,0.2,0.2c0,0,0,0.1,0,0.1c0,0,0,0.1,0.1,0.1c0,0,0,0.1,0,0.1c0,0-0.1,0-0.1,0
										c0,0.1,0,0.1,0,0.2c0,0-0.1,0-0.1,0c0,0.1,0,0.1,0,0.2c-0.1,0-0.1,0-0.2,0c0,0,0,0.1,0,0.1c0,0,0,0.1-0.1,0.1
										c-0.1,0-0.3,0-0.4,0c-0.1,0-0.1,0-0.1,0c-0.1,0-0.1,0-0.2,0c0,0,0,0,0-0.1C21,9,21,9,20.9,9c0,0,0,0-0.1,0
										c-0.1,0-0.1,0-0.2,0c0,0,0-0.1,0-0.1c0,0-0.1,0-0.1,0c0,0,0-0.1,0-0.1c0,0,0-0.1,0-0.1c0,0,0-0.1,0-0.1c0,0,0,0-0.1-0.1
										c0-0.1,0.1-0.1,0.1-0.2c0,0,0.1,0,0.1,0c0-0.1,0-0.2,0-0.2c0,0,0.1,0,0.1,0c0,0,0-0.1,0-0.1c0-0.1-0.1-0.1-0.2-0.2
										c0,0,0-0.1,0-0.1c0,0,0.1,0,0.1,0c0,0,0.1,0,0.1,0c0,0,0,0,0,0c0,0,0,0.1,0.1,0.1c0,0,0,0,0.1,0c0,0,0-0.1,0-0.1
										C21.2,7.4,21.3,7.4,21.3,7.3L21.3,7.3z"/>
									<path class="st11" d="M21.3,7.4C21.3,7.4,21.3,7.4,21.3,7.4C21.3,7.4,21.3,7.4,21.3,7.4C21.4,7.4,21.4,7.4,21.3,7.4
										c0.1,0.1,0.1,0.1,0.2,0.1c0,0,0,0.1,0,0.1c0,0-0.1,0-0.1,0c0,0,0,0,0-0.1c0,0,0,0-0.1,0c0,0,0,0,0,0.1c0,0-0.1,0-0.1,0
										c0,0,0,0,0-0.1C21.2,7.5,21.3,7.5,21.3,7.4C21.3,7.4,21.3,7.4,21.3,7.4L21.3,7.4z"/>
									<path class="st11" d="M21.7,7.6c0.1-0.1,0.2-0.1,0.3-0.2c0,0,0,0,0,0c0,0-0.1,0.1-0.1,0.1c0,0,0,0,0,0c0,0,0,0.1,0,0.1
										c0,0,0,0,0,0c0,0-0.1,0-0.1,0c-0.2,0-0.4,0-0.6,0c0,0-0.1,0-0.1,0c0,0,0,0-0.1,0c0,0,0-0.1,0-0.1c-0.1-0.1-0.1-0.1-0.2-0.2
										c0,0,0-0.1,0-0.1c0.1,0.1,0.1,0.1,0.2,0.2c0,0,0.1,0,0.1,0c0,0,0,0,0,0c0,0,0.1,0,0.1,0c0.1,0,0.2,0,0.3,0
										C21.5,7.6,21.6,7.6,21.7,7.6C21.7,7.6,21.7,7.6,21.7,7.6L21.7,7.6z"/>
									<path class="st11" d="M21.1,7.9c0.2-0.1,0.3-0.1,0.5-0.1c0,0,0.1,0,0.1,0c0,0,0.1,0.1,0.1,0.1c0,0,0,0.1,0,0.1
										c0,0-0.1,0-0.1,0c0,0-0.1,0-0.1,0c-0.1,0-0.1,0-0.2,0c0,0,0-0.1,0-0.1c0,0,0.1,0,0.1-0.1c-0.1,0-0.1,0-0.2,0c0,0,0,0-0.1,0
										c0,0,0.1,0,0.1,0.1c0,0,0,0.1,0,0.1c-0.1,0-0.2,0-0.3,0c0,0,0,0,0-0.1c0,0,0,0,0-0.1C21,7.9,21,7.9,21.1,7.9L21.1,7.9z"/>
									<path class="st11" d="M21.7,8.2c0,0,0.1-0.1,0.1-0.1c0,0,0,0,0,0c0,0.1,0,0.2,0,0.3c0,0-0.1,0-0.1,0c0,0.1,0,0.1,0,0.2
										c0,0-0.1,0.1-0.1,0.1c-0.1,0-0.1,0-0.2,0c0,0,0-0.1,0-0.1c0,0,0.1,0,0.1-0.1c0,0,0,0,0-0.1c0,0-0.1,0-0.1,0
										c0,0-0.1,0-0.1,0c0,0-0.1,0-0.1,0c0,0,0,0,0.1,0.1c0,0,0.1,0,0.1,0c0,0,0,0.1,0,0.1c0,0-0.1,0-0.1,0.1c0,0,0,0,0,0
										c0,0,0-0.1,0-0.1c0,0-0.1,0-0.1-0.1c0,0,0-0.1,0-0.1c0,0-0.1,0-0.1,0c0,0,0,0,0-0.1c0,0,0,0,0,0c0-0.1,0-0.1,0-0.2
										c0,0,0,0,0.1,0c0,0,0,0.1,0,0.1c0,0,0.1,0.1,0.1,0.1c0,0,0,0,0.1,0c0,0,0,0,0,0c0-0.1,0-0.1,0.1-0.2c0,0,0.1,0,0.1,0
										c0,0.1,0.1,0.1,0.1,0.2c0,0,0,0,0.1,0C21.6,8.3,21.7,8.2,21.7,8.2L21.7,8.2z"/>
									<path class="st11" d="M22,8.3c0.1,0,0.1,0,0.2,0c0,0.1,0.1,0.1,0.1,0.1c0,0,0,0,0,0.1c0,0,0,0-0.1,0c0,0,0-0.1-0.1-0.1
										c0,0,0,0,0,0c0,0,0,0.1,0.1,0.1c0,0.1,0,0.1,0,0.2c0,0-0.1,0-0.1,0c0,0,0-0.1,0-0.1c0,0,0,0,0,0c0,0,0,0.1,0,0.1
										c0,0.1,0,0.1,0,0.2c0,0-0.1,0-0.1,0c0,0,0-0.1-0.1-0.1c0,0,0,0,0,0c0-0.1,0-0.1,0-0.2c0,0,0,0,0,0
										C21.9,8.4,21.9,8.3,22,8.3L22,8.3z"/>
									<path class="st11" d="M20.6,8.4c0,0,0.1,0,0.1,0c0,0,0,0.1,0,0.2c-0.1,0.1-0.1,0.1-0.2,0.2c0,0,0,0,0,0c0,0,0,0,0,0
										c0,0,0,0,0-0.1C20.6,8.6,20.6,8.6,20.6,8.4C20.6,8.5,20.6,8.4,20.6,8.4L20.6,8.4z"/>
									<path class="st11" d="M20.7,8.8c0-0.1,0-0.1,0.1-0.2c0,0,0,0,0,0c0,0.1,0,0.2,0,0.3c0,0-0.1,0-0.1,0
										C20.7,8.8,20.7,8.8,20.7,8.8L20.7,8.8z"/>
									<path class="st11" d="M21.3,8.7c0,0,0.1,0,0.1-0.1c0.1,0,0.1,0,0.2,0c0,0,0,0.1,0,0.1c0,0,0,0-0.1,0.1c0,0-0.1,0-0.1,0
										C21.3,8.9,21.3,8.8,21.3,8.7C21.3,8.8,21.3,8.8,21.3,8.7L21.3,8.7z"/>
									<path class="st11" d="M21.6,8.8c0,0,0.1-0.1,0.1-0.1c0,0,0,0.1,0.1,0.1c0,0,0,0,0,0c0,0,0,0.1,0,0.1c0,0,0,0,0,0.1
										c0,0,0,0-0.1-0.1c0,0,0,0,0,0C21.7,8.9,21.6,8.9,21.6,8.8L21.6,8.8z"/>
									<path class="st11" d="M20.9,8.8c0,0,0.1,0,0.1,0c0,0.1,0,0.1,0,0.2c0,0,0,0,0,0c0,0,0,0,0,0C21,9,21,9,20.9,8.9
										C20.9,8.9,20.9,8.8,20.9,8.8L20.9,8.8z"/>
									<path class="st11" d="M21.5,9C21.5,9,21.5,9,21.5,9c0.1,0,0.1,0,0.1,0.1c-0.1,0-0.1,0-0.2,0C21.4,9.1,21.4,9,21.5,9L21.5,9
										z"/>
									<path class="st11" d="M21.3,9C21.3,9,21.3,9,21.3,9c0.1,0,0.1,0,0.1,0.1C21.4,9.1,21.4,9.1,21.3,9
										C21.3,9.1,21.3,9.1,21.3,9C21.3,9.1,21.3,9,21.3,9L21.3,9z"/>
									<path class="st11" d="M21.2,8.2C21.2,8.2,21.2,8.2,21.2,8.2c-0.1,0-0.1,0-0.1,0C21.1,8.2,21.1,8.2,21.2,8.2
										C21.2,8.2,21.2,8.2,21.2,8.2z"/>
									<path class="st11" d="M21.6,8.2C21.6,8.2,21.6,8.2,21.6,8.2c-0.1,0-0.1,0-0.1,0C21.5,8.2,21.5,8.2,21.6,8.2
										C21.6,8.2,21.6,8.2,21.6,8.2z"/>
								</g>
								<g>
									<path class="st6" d="M23.4,7.3c0.1,0,0.1,0.1,0.2,0.1c0,0.1,0,0.1,0,0.2c0,0,0.1,0,0.1,0c0,0,0-0.1,0-0.1c0,0,0,0,0,0
										c0,0,0.1,0,0.1,0c0,0,0,0,0.1-0.1c0,0,0.1,0,0.1,0c0,0,0,0.1,0,0.1c0,0.1-0.1,0.1-0.1,0.2c0,0,0,0.1,0,0.1c0,0,0.1,0,0.1,0
										c0,0.1,0,0.1,0,0.2c0.1,0.1,0.1,0.1,0.2,0.2c0,0,0,0.1,0,0.1c0,0,0,0.1,0.1,0.1c0,0,0,0.1,0,0.1c0,0-0.1,0-0.1,0
										c0,0.1,0,0.1,0,0.2c0,0-0.1,0-0.1,0c0,0.1,0,0.1,0,0.2c-0.1,0-0.1,0-0.2,0c0,0,0,0.1,0,0.1c0,0,0,0.1-0.1,0.1
										c-0.1,0-0.3,0-0.4,0c-0.1,0-0.1,0-0.1,0c-0.1,0-0.1,0-0.2,0c0,0,0,0,0-0.1c0,0-0.1,0-0.1-0.1c0,0,0,0-0.1,0
										c-0.1,0-0.1,0-0.2,0c0,0,0-0.1,0-0.1c0,0-0.1,0-0.1,0c0,0,0-0.1,0-0.1c0,0,0-0.1-0.1-0.1c0,0,0-0.1,0-0.1c0,0,0,0-0.1-0.1
										c0-0.1,0.1-0.1,0.1-0.2c0,0,0.1,0,0.1,0c0-0.1,0-0.2,0-0.2c0,0,0.1,0,0.1,0c0,0,0-0.1,0-0.1c-0.1-0.1-0.1-0.1-0.2-0.2
										c0,0,0-0.1,0-0.1c0,0,0.1,0,0.1,0c0,0,0.1,0,0.1,0c0,0,0,0,0,0c0,0,0,0.1,0.1,0.1c0,0,0,0,0.1,0c0,0,0-0.1,0-0.1
										C23.3,7.4,23.4,7.4,23.4,7.3L23.4,7.3z"/>
									<path class="st11" d="M23.4,7.4C23.4,7.4,23.4,7.4,23.4,7.4C23.4,7.4,23.4,7.4,23.4,7.4C23.5,7.4,23.5,7.4,23.4,7.4
										c0.1,0.1,0.1,0.1,0.2,0.1c0,0,0,0.1,0,0.1c0,0-0.1,0-0.1,0c0,0,0,0,0-0.1c0,0,0,0-0.1,0c0,0,0,0,0,0.1c0,0-0.1,0-0.1,0
										c0,0,0,0,0-0.1C23.3,7.5,23.3,7.5,23.4,7.4C23.4,7.4,23.4,7.4,23.4,7.4L23.4,7.4z"/>
									<path class="st11" d="M23.8,7.6c0.1-0.1,0.2-0.1,0.3-0.2c0,0,0,0,0,0c0,0-0.1,0.1-0.1,0.1c0,0,0,0,0,0c0,0,0,0.1,0,0.1
										c0,0,0,0,0,0c0,0-0.1,0-0.1,0c-0.2,0-0.4,0-0.6,0c0,0-0.1,0-0.1,0c0,0,0,0-0.1,0c0,0,0-0.1,0-0.1c-0.1-0.1-0.1-0.1-0.2-0.2
										c0,0,0-0.1,0-0.1C22.9,7.5,23,7.6,23,7.6c0,0,0.1,0,0.1,0c0,0,0,0,0,0c0,0,0.1,0,0.1,0c0.1,0,0.2,0,0.3,0
										C23.6,7.6,23.7,7.6,23.8,7.6C23.8,7.6,23.8,7.6,23.8,7.6L23.8,7.6z"/>
									<path class="st11" d="M23.2,7.9c0.2-0.1,0.3-0.1,0.5-0.1c0,0,0.1,0,0.1,0c0,0,0.1,0.1,0.1,0.1c0,0,0,0.1,0,0.1
										c0,0-0.1,0-0.1,0c0,0-0.1,0-0.1,0c-0.1,0-0.1,0-0.2,0c0,0,0-0.1,0-0.1c0,0,0.1,0,0.1-0.1c-0.1,0-0.1,0-0.2,0c0,0,0,0-0.1,0
										c0,0,0.1,0,0.1,0.1c0,0,0,0.1,0,0.1c-0.1,0-0.2,0-0.3,0c0,0,0,0,0-0.1c0,0,0,0,0-0.1C23.1,7.9,23.1,7.9,23.2,7.9L23.2,7.9z
										"/>
									<path class="st11" d="M23.8,8.2c0,0,0.1-0.1,0.1-0.1c0,0,0,0,0,0c0,0.1,0,0.2,0,0.3c0,0-0.1,0-0.1,0c0,0.1,0,0.1,0,0.2
										c0,0-0.1,0.1-0.1,0.1c-0.1,0-0.1,0-0.2,0c0,0,0-0.1,0-0.1c0,0,0.1,0,0.1-0.1c0,0,0,0,0-0.1c0,0-0.1,0-0.1,0
										c0,0-0.1,0-0.1,0c0,0-0.1,0-0.1,0c0,0,0,0,0.1,0.1c0,0,0.1,0,0.1,0c0,0,0,0.1,0,0.1c0,0-0.1,0-0.1,0.1c0,0,0,0,0,0
										c0,0,0-0.1,0-0.1c0,0-0.1,0-0.1-0.1c0,0,0-0.1,0-0.1c0,0-0.1,0-0.1,0c0,0,0,0,0-0.1c0,0,0,0,0,0c0-0.1,0-0.1,0-0.2
										c0,0,0,0,0.1,0c0,0,0,0.1,0,0.1c0,0,0.1,0.1,0.1,0.1c0,0,0,0,0.1,0c0,0,0,0,0,0c0-0.1,0-0.1,0.1-0.2c0,0,0.1,0,0.1,0
										c0,0.1,0.1,0.1,0.1,0.2c0,0,0,0,0.1,0C23.7,8.3,23.8,8.2,23.8,8.2L23.8,8.2z"/>
									<path class="st11" d="M24.1,8.3c0.1,0,0.1,0,0.2,0c0,0.1,0,0.1,0.1,0.1c0,0,0,0,0,0.1c0,0,0,0-0.1,0c0,0,0-0.1-0.1-0.1
										c0,0,0,0,0,0c0,0,0,0.1,0.1,0.1c0,0.1,0,0.1,0,0.2c0,0-0.1,0-0.1,0c0,0,0-0.1,0-0.1c0,0,0,0,0,0c0,0,0,0.1,0,0.1
										c0,0.1,0,0.1,0,0.2c0,0-0.1,0-0.1,0c0,0-0.1-0.1-0.1-0.1c0,0,0,0,0,0c0-0.1,0-0.1,0-0.2c0,0,0,0,0,0
										C24,8.4,24,8.3,24.1,8.3L24.1,8.3z"/>
									<path class="st11" d="M22.7,8.4c0,0,0.1,0,0.1,0c0,0,0,0.1,0,0.2c-0.1,0.1-0.1,0.1-0.2,0.2c0,0,0,0,0,0c0,0,0,0,0,0
										c0,0,0,0,0-0.1C22.7,8.6,22.7,8.6,22.7,8.4C22.7,8.5,22.7,8.4,22.7,8.4L22.7,8.4z"/>
									<path class="st11" d="M22.8,8.8c0-0.1,0-0.1,0.1-0.2c0,0,0,0,0,0c0,0.1,0,0.2,0,0.3c0,0-0.1,0-0.1,0
										C22.8,8.8,22.8,8.8,22.8,8.8L22.8,8.8z"/>
									<path class="st11" d="M23.4,8.7c0,0,0.1,0,0.1-0.1c0.1,0,0.1,0,0.2,0c0,0,0,0.1,0,0.1c0,0,0,0-0.1,0.1c0,0-0.1,0-0.1,0
										C23.4,8.9,23.4,8.8,23.4,8.7C23.4,8.8,23.4,8.8,23.4,8.7L23.4,8.7z"/>
									<path class="st11" d="M23.7,8.8c0,0,0.1-0.1,0.1-0.1c0,0,0,0.1,0.1,0.1c0,0,0,0,0,0c0,0,0,0.1,0,0.1c0,0,0,0,0,0.1
										c0,0,0,0-0.1-0.1c0,0,0,0,0,0C23.7,8.9,23.7,8.9,23.7,8.8L23.7,8.8z"/>
									<path class="st11" d="M23,8.8c0,0,0.1,0,0.1,0c0,0.1,0,0.1,0,0.2c0,0,0,0,0,0c0,0,0,0,0,0c0,0-0.1-0.1-0.1-0.1
										C23,8.9,23,8.8,23,8.8L23,8.8z"/>
									<path class="st11" d="M23.6,9C23.6,9,23.6,9,23.6,9c0.1,0,0.1,0,0.1,0.1c-0.1,0-0.1,0-0.2,0C23.5,9.1,23.5,9,23.6,9L23.6,9
										z"/>
									<path class="st11" d="M23.4,9C23.4,9,23.4,9,23.4,9c0.1,0,0.1,0,0.1,0.1C23.5,9.1,23.5,9.1,23.4,9
										C23.4,9.1,23.4,9.1,23.4,9C23.4,9.1,23.4,9,23.4,9L23.4,9z"/>
									<path class="st11" d="M23.3,8.2C23.3,8.2,23.3,8.2,23.3,8.2c-0.1,0-0.1,0-0.1,0C23.2,8.2,23.2,8.2,23.3,8.2
										C23.3,8.2,23.3,8.2,23.3,8.2z"/>
									<path class="st11" d="M23.7,8.2C23.7,8.2,23.7,8.2,23.7,8.2c-0.1,0-0.1,0-0.1,0C23.6,8.2,23.6,8.2,23.7,8.2
										C23.7,8.2,23.7,8.2,23.7,8.2z"/>
								</g>
								<g>
									<path class="st6" d="M22.4,9.1c0.1,0,0.1,0.1,0.2,0.1c0,0.1,0,0.1,0,0.1c0,0,0.1,0,0.1,0c0,0,0-0.1,0-0.1c0,0,0,0,0,0
										c0,0,0.1,0,0.1,0c0,0,0,0,0.1-0.1c0,0,0.1,0,0.1,0c0,0,0,0.1,0,0.1c0,0.1-0.1,0.1-0.1,0.2c0,0,0,0.1,0,0.1
										c0,0,0.1,0,0.1,0.1c0,0.1,0,0.2,0,0.2c0.1,0.1,0.1,0.1,0.2,0.2c0,0,0,0.1,0,0.1c0,0,0,0.1,0.1,0.1c0,0,0,0.1,0,0.1
										c0,0-0.1,0-0.1,0c0,0.1,0,0.1,0,0.2c0,0-0.1,0-0.1,0c0,0.1,0,0.1,0,0.2c-0.1,0-0.1,0-0.2,0c0,0,0,0.1,0,0.1
										c0,0,0,0.1-0.1,0.1c-0.1,0-0.3,0-0.4,0c-0.1,0-0.1,0-0.2,0c-0.1,0-0.1,0-0.2,0c0,0,0,0,0-0.1c0,0-0.1,0-0.1-0.1
										c0,0,0,0-0.1,0c-0.1,0-0.1,0-0.2,0c0,0,0-0.1,0-0.1c0,0-0.1,0-0.1,0c0,0,0-0.1,0-0.1c0,0,0-0.1-0.1-0.1c0,0,0-0.1,0-0.1
										c0,0,0,0-0.1-0.1c0-0.1,0.1-0.1,0.1-0.2c0,0,0.1,0,0.1,0c0-0.1,0-0.2,0-0.2c0,0,0.1,0,0.1,0c0,0,0-0.1,0-0.1
										c-0.1-0.1-0.1-0.1-0.2-0.2c0,0,0-0.1,0-0.1c0,0,0.1,0,0.1,0c0,0,0.1,0,0.1,0c0,0,0,0,0,0c0,0,0,0.1,0.1,0.1c0,0,0,0,0.1,0
										c0,0,0-0.1,0-0.1C22.3,9.2,22.3,9.2,22.4,9.1L22.4,9.1z"/>
									<path class="st11" d="M22.4,9.2C22.4,9.2,22.4,9.2,22.4,9.2C22.4,9.2,22.4,9.2,22.4,9.2C22.4,9.2,22.4,9.3,22.4,9.2
										c0.1,0.1,0.1,0.1,0.2,0.1c0,0,0,0.1,0,0.1c0,0-0.1,0-0.1,0C22.4,9.3,22.4,9.3,22.4,9.2C22.4,9.3,22.4,9.3,22.4,9.2
										c0,0.1,0,0.1,0,0.2c0,0-0.1,0-0.1,0c0,0,0,0,0-0.1C22.3,9.3,22.3,9.3,22.4,9.2C22.3,9.3,22.4,9.2,22.4,9.2L22.4,9.2z"/>
									<path class="st11" d="M22.7,9.4c0.1-0.1,0.2-0.1,0.3-0.2c0,0,0,0,0,0c0,0.1-0.1,0.1-0.1,0.1c0,0,0,0,0,0c0,0,0,0.1,0,0.1
										c0,0,0,0,0,0c0,0-0.1,0-0.1,0c-0.2,0-0.4,0-0.6,0c0,0-0.1,0-0.1,0c0,0,0,0-0.1,0c0,0,0-0.1,0-0.1c-0.1-0.1-0.1-0.1-0.2-0.2
										c0,0,0-0.1,0-0.1c0.1,0.1,0.1,0.1,0.2,0.2c0,0,0.1,0,0.1,0c0,0,0,0,0,0c0,0,0.1,0,0.1,0c0.1,0,0.2,0,0.3,0
										C22.6,9.4,22.7,9.4,22.7,9.4C22.7,9.4,22.7,9.4,22.7,9.4L22.7,9.4z"/>
									<path class="st11" d="M22.1,9.7c0.2-0.1,0.3-0.1,0.5-0.1c0,0,0.1,0,0.1,0c0,0,0.1,0.1,0.1,0.1c0,0,0,0.1,0,0.1
										c0,0-0.1,0-0.1,0c0,0-0.1,0-0.1,0c-0.1,0-0.1,0-0.2,0c0,0,0-0.1,0-0.1c0,0,0.1,0,0.1-0.1c-0.1,0-0.1,0-0.2,0c0,0,0,0-0.1,0
										c0,0,0.1,0,0.1,0c0,0,0,0.1,0,0.1c-0.1,0-0.2,0-0.3,0c0,0,0,0,0-0.1c0,0,0,0,0-0.1C22,9.7,22.1,9.7,22.1,9.7L22.1,9.7z"/>
									<path class="st11" d="M22.7,10c0,0,0.1-0.1,0.1-0.1c0,0,0,0,0,0c0,0.1,0,0.2,0,0.3c0,0-0.1,0-0.1,0c0,0.1,0,0.1,0,0.2
										c0,0-0.1,0.1-0.1,0.1c-0.1,0-0.1,0-0.2,0c0,0,0-0.1,0-0.1c0,0,0.1,0,0.1-0.1c0,0,0,0,0-0.1c0,0-0.1,0-0.1,0
										c0,0-0.1,0-0.1,0c0,0-0.1,0-0.1,0c0,0,0,0,0.1,0.1c0,0,0.1,0,0.1,0c0,0,0,0.1,0,0.1c0,0-0.1,0-0.1,0.1c0,0,0,0,0,0
										c0,0,0-0.1,0-0.1c0,0-0.1,0-0.1-0.1c0,0,0,0,0-0.1c0,0-0.1,0-0.1,0c0,0,0,0,0-0.1c0,0,0,0,0,0c0-0.1,0-0.1,0-0.2
										c0,0,0,0,0,0c0,0,0,0.1,0.1,0.1c0,0,0.1,0.1,0.1,0.1c0,0,0,0,0.1,0c0,0,0,0,0,0c0-0.1,0-0.1,0.1-0.2c0,0,0.1,0,0.1,0
										c0,0.1,0.1,0.1,0.1,0.2c0,0,0,0,0.1,0C22.7,10.1,22.7,10,22.7,10L22.7,10z"/>
									<path class="st11" d="M23,10.1c0.1,0,0.1,0,0.2,0c0,0,0,0.1,0.1,0.1c0,0,0,0,0,0.1c0,0,0,0-0.1,0c0,0,0-0.1-0.1-0.1
										c0,0,0,0,0,0c0,0,0,0.1,0.1,0.1c0,0.1,0,0.1,0,0.2c0,0-0.1,0-0.1,0c0,0,0-0.1,0-0.1c0,0,0,0,0,0c0,0,0,0.1,0,0.1
										c0,0.1,0,0.1,0,0.2c0,0-0.1,0-0.1,0c0,0-0.1-0.1-0.1-0.1c0,0,0,0,0,0c0-0.1,0-0.1,0-0.2c0,0,0,0,0,0
										C23,10.2,23,10.2,23,10.1L23,10.1z"/>
									<path class="st11" d="M21.7,10.2c0,0,0.1,0,0.1,0c0,0,0,0.1,0,0.2c-0.1,0.1-0.1,0.1-0.2,0.2c0,0,0,0,0,0c0,0,0,0,0,0
										c0,0,0,0,0,0C21.7,10.4,21.7,10.4,21.7,10.2C21.7,10.3,21.7,10.3,21.7,10.2L21.7,10.2z"/>
									<path class="st11" d="M21.8,10.6c0-0.1,0-0.1,0.1-0.2c0,0,0,0,0,0c0,0.1,0,0.2,0,0.3c0,0-0.1,0-0.1,0
										C21.8,10.7,21.8,10.6,21.8,10.6L21.8,10.6z"/>
									<path class="st11" d="M22.3,10.6c0,0,0.1,0,0.1-0.1c0.1,0,0.1,0,0.2,0c0,0,0,0.1,0,0.1c0,0,0,0-0.1,0.1c0,0-0.1,0-0.1,0
										C22.4,10.7,22.4,10.7,22.3,10.6C22.3,10.6,22.3,10.6,22.3,10.6L22.3,10.6z"/>
									<path class="st11" d="M22.7,10.7c0.1,0,0.1-0.1,0.1-0.1c0,0,0,0.1,0.1,0.1c0,0,0,0,0,0c0,0,0,0.1,0,0.1c0,0,0,0,0,0.1
										c0,0,0,0-0.1-0.1c0,0,0,0,0,0C22.7,10.7,22.7,10.7,22.7,10.7L22.7,10.7z"/>
									<path class="st11" d="M22,10.6c0,0,0.1,0,0.1,0c0,0.1,0,0.1,0,0.2c0,0,0,0,0,0c0,0,0,0,0,0c0,0-0.1-0.1-0.1-0.1
										C22,10.7,22,10.7,22,10.6L22,10.6z"/>
									<path class="st11" d="M22.5,10.8C22.5,10.8,22.6,10.8,22.5,10.8c0.1,0,0.1,0,0.1,0.1c-0.1,0-0.1,0-0.2,0
										C22.5,10.9,22.5,10.9,22.5,10.8L22.5,10.8z"/>
									<path class="st11" d="M22.3,10.9C22.4,10.9,22.4,10.8,22.3,10.9c0.1,0,0.1,0,0.1,0.1C22.4,10.9,22.4,10.9,22.3,10.9
										C22.4,10.9,22.3,10.9,22.3,10.9C22.3,10.9,22.3,10.9,22.3,10.9L22.3,10.9z"/>
									<path class="st11" d="M22.3,10C22.3,10,22.3,10.1,22.3,10c-0.1,0-0.1,0-0.1,0C22.2,10,22.2,10,22.3,10
										C22.3,10,22.3,10,22.3,10z"/>
									<path class="st11" d="M22.7,10C22.7,10,22.7,10.1,22.7,10c-0.1,0-0.1,0-0.1,0C22.6,10,22.6,10,22.7,10
										C22.7,10,22.7,10,22.7,10z"/>
								</g>
							</g>
						</g>
						<g>
							<path class="st3" d="M28.8,9.8c0.5,0.1,1,0.2,1.4,0.4c0.6,0.2,1.1,0.3,1.6,0.5c0.3,0.1,0.5,0.2,0.8,0.3
								c-0.1,0.3-0.3,0.5-0.4,0.8c-0.1,0.2-0.2,0.3-0.2,0.5c-0.6-0.2-1.2-0.5-1.9-0.7c-0.6-0.2-1.1-0.4-1.7-0.5c0,0-0.1,0-0.1,0
								c0,0,0,0,0-0.1c0-0.1,0.1-0.2,0.1-0.3c0,0,0,0,0,0c0,0,0,0,0-0.1C28.6,10.4,28.7,10.1,28.8,9.8L28.8,9.8z"/>
							<path class="st2" d="M28.2,11.6l0.1-0.5c0,0,1.1,0.2,2,0.5c0.9,0.3,1.7,0.7,1.7,0.7l-0.2,0.5L28.2,11.6z"/>
							<path class="st2" d="M28.8,9.8l0.1-0.5c0,0,1.1,0.2,2,0.5c0.9,0.3,2,0.8,2,0.8L32.6,11L28.8,9.8z"/>
							<path class="st8" d="M29.3,7.7c0,0,1.9-0.8,2.8-1.1c0.5,0.8,0.9,1.6,1.4,2.3c0,0,0.1,0.1,0.1,0.1v0c0,0,0,0.1-0.1,0.1
								c-0.2,0.5-0.4,0.9-0.7,1.4c-0.5-0.2-1.1-0.5-1.6-0.6c-0.8-0.3-1.6-0.5-2.3-0.6L29.3,7.7z"/>
							<path class="st8" d="M28.2,11.6c0,0,0.9,0.3,1.3,0.4c0.3,0.1,0.6,0.2,0.9,0.3c0.5,0.1,1.4,0.5,1.4,0.5s-0.1,0.2-0.3,0.7h0
								c-0.1-0.1-0.3-0.1-0.4-0.2c-0.5-0.2-0.9-0.3-1.4-0.5c-0.5-0.2-1.1-0.3-1.6-0.4v0C28.1,12,28.2,11.6,28.2,11.6z"/>
							<polygon class="st9" points="31.8,7.6 31.9,8.2 32.4,8.4 32,8.7 32,9.3 31.6,9.1 31.1,9.5 31,9 30.4,8.8 30.9,8.4 30.8,7.8 
								31.3,8 							"/>
							<polygon class="st10" points="31.8,7.7 31.8,8.2 31.4,8.6 							"/>
							<polygon class="st10" points="30.8,7.8 31.3,8 31.4,8.6 							"/>
							<polygon class="st10" points="31.2,9.5 31.5,9.1 31.4,8.6 							"/>
							<polygon class="st10" points="30.5,8.8 31,8.9 31.4,8.6 							"/>
							<polygon class="st10" points="32.4,8.4 32,8.7 32,9.3 31.4,8.6 							"/>
							<path class="st12" d="M29.1,10.2c0.1,0,0.2,0,0.4,0c0,0,0,0.1,0,0.1c0.1,0,0.1,0.1,0.2,0.1c0.1,0.1,0.2,0.1,0.3,0.1
								c0,0,0,0,0,0c0.2,0,0.5,0,0.7,0.1c0.1,0,0.2,0.1,0.3,0.1c0.1,0,0.1,0.1,0.2,0.2c0,0,0,0,0,0c0.3,0.1,0.6,0.1,0.9,0.1
								c0.1,0,0.1,0,0.2,0c0,0,0,0,0,0.1c0,0.1-0.1,0.1-0.1,0.1c-0.1,0-0.2,0-0.4,0c-0.1,0-0.2,0-0.3-0.1c-0.1,0-0.1,0-0.2,0
								c0,0,0,0.1,0,0.1c0,0.1,0.1,0.1,0.2,0.2c0,0,0,0,0.1,0c0,0.1,0,0.2,0,0.3c0,0,0,0-0.1,0.1c0,0-0.1,0-0.1-0.1c0,0,0-0.1,0-0.1
								c0,0,0-0.1,0-0.1c0,0,0-0.1-0.1-0.1c0,0,0,0-0.1,0c-0.1,0-0.2,0-0.3-0.1c0,0-0.1,0-0.1-0.1c0,0,0,0,0,0
								c0,0.1-0.1,0.1-0.1,0.1c0,0-0.1,0-0.1,0c-0.1,0-0.1,0-0.1,0c-0.1,0-0.2,0-0.3-0.1c0,0,0-0.1,0-0.1c0,0,0.1,0,0.1,0
								c0,0,0.1,0,0.1,0c0,0,0.1,0,0.1,0c0,0,0-0.1,0-0.1c-0.1,0-0.2,0-0.3-0.1c-0.1,0-0.2-0.1-0.3-0.1c0,0-0.1,0-0.1,0
								c-0.2,0-0.3,0-0.5,0c0,0-0.1,0-0.1,0c-0.1,0-0.1,0-0.2,0c0,0-0.1,0-0.1,0c0,0,0,0,0,0c0,0,0,0,0-0.1c0.1,0,0.3,0,0.4-0.1
								c0,0,0-0.1,0-0.1c-0.1,0-0.2,0-0.2,0c-0.1,0-0.1,0-0.2,0c0,0-0.1,0-0.1-0.1c0,0,0,0,0,0c0,0,0-0.1,0-0.1c0,0,0.1,0,0.1,0
								c0.1,0,0.1,0,0.2,0c0.1,0,0.1,0,0.2,0c0,0,0-0.1,0-0.1c0,0,0-0.1,0-0.1c-0.1,0-0.2,0-0.3,0c0,0-0.1,0-0.1-0.1
								c0,0,0-0.1,0-0.1C28.9,10.4,28.9,10.4,29.1,10.2C29,10.3,29,10.3,29.1,10.2L29.1,10.2z"/>
							<path class="st13" d="M29.1,10.3c0.1,0,0.2,0,0.3,0c0,0,0,0.1,0,0.1c0.1,0,0.1,0.1,0.2,0.1c0.1,0,0.2,0.1,0.3,0.1
								c0,0,0,0,0.1,0c0.2,0,0.5,0,0.7,0.1c0.1,0,0.2,0,0.2,0.1c0.1,0,0.2,0.1,0.3,0.2c0,0,0,0,0,0.1c0.3,0.1,0.6,0.1,1,0.1
								c0,0,0.1,0,0.1,0c0,0,0,0,0,0c0,0,0,0.1-0.1,0.1c-0.1,0.1-0.2,0.1-0.3,0.1c-0.1,0-0.3,0-0.4-0.1c-0.1,0-0.1,0-0.2,0
								c0,0,0,0.1,0,0.1c0.1,0.1,0.1,0.2,0.2,0.2c0,0.1,0,0.2,0,0.2c0,0,0,0.1,0,0.1c0,0,0,0-0.1,0.1c0,0,0,0-0.1,0c0,0,0-0.1,0-0.1
								c0,0,0-0.1,0-0.1c0,0,0-0.1-0.1-0.1c0,0-0.1,0-0.1,0c-0.1,0-0.2-0.1-0.3-0.1c0,0-0.1,0-0.1,0c0,0.1-0.1,0.1-0.1,0.1
								c-0.1,0-0.1,0-0.2,0c-0.1,0-0.2,0-0.3-0.1c0,0,0,0,0,0c0,0,0.1,0,0.1,0c0.1,0,0.2,0,0.2,0c0,0,0-0.1,0-0.1c0.1,0,0.2,0,0.2,0
								c0-0.1,0-0.2-0.1-0.2c0-0.1-0.1-0.1-0.2-0.1c0,0-0.1,0-0.1,0c-0.2,0-0.4,0-0.6,0c0,0,0,0.1,0,0.1c-0.1,0-0.2,0-0.3,0
								c-0.1,0-0.2,0-0.2,0c-0.1,0-0.1,0-0.2,0c-0.1,0-0.1,0-0.2,0c0,0-0.1,0-0.1,0c0,0,0,0,0,0c0.1,0,0.2,0,0.3,0c0,0,0.1,0,0.1,0
								c0,0,0-0.1,0-0.1c0,0,0,0-0.1,0c-0.1,0-0.2,0-0.3,0c-0.1,0-0.1,0-0.1,0c0,0-0.1,0-0.1,0c0,0,0,0,0-0.1c0.1,0,0.1,0,0.2,0
								c0.1,0,0.1,0,0.2,0c0.1,0,0.1,0,0.1,0c0,0,0-0.1,0-0.1c0,0,0-0.1-0.1-0.1c-0.1,0-0.2,0-0.2,0c0,0-0.1,0-0.1,0
								c0,0,0-0.1,0-0.1C28.9,10.4,29,10.4,29.1,10.3C29,10.3,29,10.3,29.1,10.3L29.1,10.3z"/>
							<path class="st14" d="M29.9,11c0.2,0,0.4,0,0.6,0c0.1,0,0.1,0,0.2,0.1c0.1,0,0.1,0.1,0.1,0.2c-0.1,0-0.1,0-0.2,0
								c-0.1,0-0.3,0-0.4-0.1C30.2,11.1,30.1,11.1,29.9,11C29.9,11,29.9,11,29.9,11L29.9,11z"/>
						</g>
					</g>
				</g>
			</g>
		</g>
	</g>
</g>
</svg>
