<?xml version="1.0" encoding="utf-8"?>
<!-- Generator: Adobe Illustrator 22.1.0, SVG Export Plug-In . SVG Version: 6.00 Build 0)  -->
<svg version="1.1" id="Layer_1" xmlns="http://www.w3.org/2000/svg" xmlns:xlink="http://www.w3.org/1999/xlink" x="0px" y="0px"
	 viewBox="0 0 45 45" style="enable-background:new 0 0 45 45;" xml:space="preserve">
<style type="text/css">
	.st0{fill:#FFFFFF;}
	.st1{fill:#ED8000;}
	.st2{fill:#006651;}
</style>
<g>
	<g>
		<g>
			<path class="st0" d="M45,30.9c0,5.6,0,8.4-2.8,11.3C39.4,45,36.6,45,30.9,45H14.1c-5.6,0-8.4,0-11.3-2.8C0,39.4,0,36.6,0,30.9
				V14.1C0,8.4,0,5.6,2.8,2.8C5.6,0,8.4,0,14.1,0h16.9c5.6,0,8.4,0,11.3,2.8C45,5.6,45,8.4,45,14.1V30.9z"/>
		</g>
		<g>
			<path class="st1" d="M35.9,11c0.7,0,1.3-0.4,1.9-0.7c-0.1,0.2-0.1,0.5-0.3,0.7c-0.2,0.1-0.5,0-0.7,0.2c-0.3,0.2-0.7,0.4-0.9,0.6
				c-0.3,0.2-0.2,0.6-0.6,0.7c-0.5,0.1-0.8,0.5-1.1,0.9c-0.4,0.1-0.8,0.3-1.2,0.5c-0.3,0.1-0.5,0.4-0.8,0.6
				c-0.2,0.2-0.5,0.4-0.6,0.8c-0.1,0.2-0.1,0.4-0.3,0.5c-0.3,0.2-0.6,0-0.8,0.1c-0.3,0.1-0.7,0.3-0.7,0.6c-0.4,0.3-0.4,0.9-0.4,1.4
				c0.1,0.5,0.5,0.8,0.8,1.1c0.2,0.1,0.2,0.4,0.3,0.5c0.2,0.2,0.5,0.3,0.7,0.6c0.1,0.2,0.3,0.3,0.4,0.5c0.1,0.2,0.1,0.4,0.1,0.6
				c-0.4-0.3-0.9-0.4-1.4-0.4c-0.2,0.1-0.5,0.2-0.7,0.2c0.1,0.3-0.2,0.6-0.5,0.5c-0.3-0.2-0.6-0.5-0.9-0.5c-0.6-0.1-1.2-0.1-1.6,0.4
				c-0.3,0.4-0.2,1-0.2,1.4c-0.2,0.1-0.3,0.4-0.4,0.6c-0.2,0-0.4-0.1-0.6,0c-0.3,0.1-0.4,0.3-0.6,0.5c-0.4,0.1-0.8,0.2-1.1,0.5
				c-0.2,0.1-0.4,0.1-0.6,0.3c-0.2,0-0.3,0.1-0.4,0.2c-0.2,0-0.4-0.1-0.6,0c-0.2,0.3-0.6,0.3-0.9,0.2c-0.5-0.1-1,0-1.4,0.2
				c-0.5,0.1-0.9,0.5-1.1,0.9c-0.1,0.4,0.1,0.7,0.3,1c-0.4,0-0.8-0.1-1.1-0.1c0.1-0.5-0.3-1-0.7-1.3c-0.4-0.2-0.8,0-1.2-0.1
				c-0.3,0.1-0.5,0.3-0.8,0.3c-0.1,0-0.2,0.1-0.2,0.1c-0.3-0.1-0.7-0.3-1-0.4c-0.2-0.1-0.3-0.3-0.5-0.4c-0.2-0.1-0.5,0-0.7-0.2
				c-0.2,0-0.4,0-0.5-0.2c-0.2-0.3-0.5-0.4-0.8-0.6c0-0.3-0.2-0.6-0.2-0.8c0-0.2,0-0.3-0.2-0.5c-0.1-0.1-0.3-0.2-0.5-0.3
				c-0.1-0.2-0.1-0.4-0.3-0.5c0.2-0.2,0-0.4-0.1-0.7c0-0.3,0.1-0.6,0-0.8c-0.1-0.2-0.4-0.5-0.4-0.7c0-0.2,0.1-0.5,0.2-0.7
				c0.2,0.4,0.5,0.6,0.8,0.8c0.3,0.1,0.7,0.1,1-0.1c0.3-0.2,0.5-0.3,0.8-0.5c0.2-0.3,0.2-0.6,0.4-0.9c0.1-0.1,0.2-0.2,0.3-0.3
				c0.5-0.1,0.8-0.4,1.3-0.4c0.7,0.1,1.3,0.4,1.9,0.7c0.2,0.1,0.4,0,0.6-0.1c0.3-0.2,0.6-0.5,0.7-0.9c0.1-0.5,0.1-1.1,0.1-1.6
				c0-0.4-0.1-0.7-0.1-1.1c0.6,0.2,1.2,0.5,1.8,0.6c0.2,0,0.4-0.1,0.7-0.1c0.2,0,0.3,0.1,0.5,0.1c0.1,0,0.3-0.1,0.4-0.1
				c0.2,0,0.3,0.2,0.5,0.2c0.3,0,0.7-0.1,1,0c0.4,0.1,0.8,0.1,1.2,0.1c0.7-0.1,1.5-0.1,2.2-0.4c0.3-0.1,0.7,0,1-0.1
				c0.3-0.2,0.6-0.5,0.9-0.6c0.2-0.1,0.4,0,0.7,0c0.9,0,1.7-0.5,2.5-0.9c0.4-0.2,0.7-0.4,1.1-0.6c0.5-0.1,0.7-0.6,1-0.9
				c0.6,0.1,1-0.3,1.5-0.4c0.3-0.1,0.5-0.5,0.7-0.7c0.2-0.1,0.4-0.1,0.6-0.1C35.8,11.2,35.8,11.1,35.9,11L35.9,11z"/>
			<g>
				<path class="st2" d="M15.1,27.9c0.5,0.4,0.7,1,0.8,1.6c0,0.3,0,0.6-0.1,0.8c-0.4-0.3-0.6-0.7-0.7-1.1C15,28.8,15,28.4,15.1,27.9
					L15.1,27.9z"/>
				<path class="st2" d="M29.1,29.1c0.1-0.5,0.3-0.9,0.7-1.2c0.2,0.6,0.1,1.2-0.1,1.8c-0.1,0.3-0.3,0.5-0.6,0.7
					C29,30,29,29.5,29.1,29.1L29.1,29.1z"/>
				<path class="st2" d="M13,28.4c0.6,0.1,1.1,0.4,1.5,0.8c0.3,0.3,0.5,0.6,0.5,1C14.1,30,13.1,29.4,13,28.4L13,28.4z"/>
				<path class="st2" d="M30.6,29c0.4-0.3,0.9-0.6,1.4-0.7c-0.1,1-1.1,1.6-2,1.8C30,29.7,30.3,29.3,30.6,29L30.6,29z"/>
				<path class="st2" d="M16.2,29.6c0-0.2,0.1-0.5,0.2-0.7c0.6,0.6,1,1.5,0.5,2.3C16.5,30.8,16.2,30.2,16.2,29.6L16.2,29.6z"/>
				<path class="st2" d="M28.1,31.2c-0.5-0.8-0.1-1.7,0.5-2.3c0.1,0.2,0.2,0.5,0.2,0.7C28.7,30.3,28.5,30.8,28.1,31.2L28.1,31.2z"/>
				<path class="st2" d="M17.5,29.7c0.5,0.4,0.8,1,0.9,1.6c0,0.3-0.1,0.5-0.2,0.7C17.6,31.5,17.3,30.6,17.5,29.7L17.5,29.7z"/>
				<path class="st2" d="M26.6,31.4c0.1-0.6,0.4-1.2,0.9-1.6c0.2,0.8,0,1.8-0.7,2.3C26.6,31.9,26.5,31.6,26.6,31.4L26.6,31.4z"/>
				<path class="st2" d="M13.2,30.5c0.9-0.2,1.9-0.1,2.6,0.6c-0.3,0.3-0.8,0.4-1.2,0.3C14.1,31.2,13.6,31,13.2,30.5L13.2,30.5z"/>
				<path class="st2" d="M18.7,30.4c0.4,0.4,0.8,0.9,1,1.4c0.1,0.3,0,0.6-0.1,0.9c-0.5-0.4-0.8-1-0.9-1.6
					C18.6,30.8,18.6,30.6,18.7,30.4L18.7,30.4z"/>
				<path class="st2" d="M25.4,31.7c0.2-0.5,0.6-1,1-1.3c0.1,0.5,0,1.1-0.2,1.5c-0.1,0.3-0.4,0.6-0.6,0.8
					C25.3,32.4,25.2,32,25.4,31.7L25.4,31.7z"/>
				<path class="st2" d="M29.2,31.1c0.7-0.6,1.7-0.8,2.6-0.6c-0.3,0.5-0.8,0.7-1.4,0.8C30,31.5,29.5,31.4,29.2,31.1L29.2,31.1z"/>
				<path class="st2" d="M19.9,30.8c0.9,0.4,1.2,1.4,1.1,2.3C20.4,32.6,19.8,31.7,19.9,30.8L19.9,30.8z"/>
				<path class="st2" d="M24,33.2c-0.2-0.9,0.2-1.9,1.1-2.3C25.2,31.7,24.6,32.6,24,33.2L24,33.2z"/>
				<path class="st2" d="M14.5,32c0.2-0.2,0.4-0.4,0.7-0.4c0.5-0.1,1,0.1,1.5,0.3c-0.3,0.4-0.8,0.5-1.3,0.5
					C15.2,32.3,14.8,32.2,14.5,32L14.5,32z"/>
				<path class="st2" d="M28.2,31.8c0.5-0.1,1-0.3,1.5-0.3c0.3,0,0.5,0.2,0.7,0.4c-0.5,0.4-1.1,0.4-1.6,0.2
					C28.6,32.2,28.4,32,28.2,31.8L28.2,31.8z"/>
				<path class="st2" d="M15.9,33.2c0.5-0.7,1.5-1.1,2.3-0.7C17.6,33.1,16.7,33.5,15.9,33.2L15.9,33.2z"/>
				<path class="st2" d="M26.9,32.5c0.8-0.4,1.8,0,2.2,0.7c-0.7,0.3-1.5,0-2.1-0.5C26.9,32.6,26.8,32.6,26.9,32.5L26.9,32.5z"/>
				<path class="st2" d="M17.2,33.8c0.6-0.6,1.5-0.9,2.3-0.6c-0.2,0.2-0.3,0.5-0.6,0.6C18.4,34.1,17.7,34,17.2,33.8L17.2,33.8z"/>
				<path class="st2" d="M25.5,33.2c0.8-0.3,1.7,0,2.3,0.6c-0.5,0.2-1.1,0.3-1.6,0C25.9,33.7,25.7,33.4,25.5,33.2L25.5,33.2z"/>
				<path class="st2" d="M20.2,33.2c0.7,0.2,1.5,0.4,2.3,0.5c0.8-0.1,1.5-0.3,2.3-0.5c-0.6,0.2-1.2,0.4-1.8,0.6
					c0.4,0.1,0.7,0.3,1.1,0.5c-0.5-0.1-1-0.3-1.5-0.3c-0.5,0.1-1,0.3-1.5,0.3c0.3-0.2,0.7-0.4,1-0.5C21.4,33.6,20.8,33.4,20.2,33.2
					L20.2,33.2z"/>
				<path class="st2" d="M18.5,34.6c0.5-0.7,1.3-1.1,2.2-1.1c-0.2,0.4-0.4,0.7-0.8,0.9C19.4,34.7,19,34.7,18.5,34.6L18.5,34.6z"/>
				<path class="st2" d="M24.3,33.6c0.8-0.1,1.7,0.4,2.2,1.1c-0.5,0-1,0-1.5-0.2C24.7,34.2,24.5,33.9,24.3,33.6L24.3,33.6z"/>
			</g>
		</g>
	</g>
</g>
</svg>
