<?xml version="1.0" encoding="utf-8"?>
<!-- Generator: Adobe Illustrator 22.1.0, SVG Export Plug-In . SVG Version: 6.00 Build 0)  -->
<svg version="1.1" id="Layer_1" xmlns="http://www.w3.org/2000/svg" xmlns:xlink="http://www.w3.org/1999/xlink" x="0px" y="0px"
	 viewBox="0 0 45 45" style="enable-background:new 0 0 45 45;" xml:space="preserve">
<style type="text/css">
	.st0{fill:#FFFFFF;}
	.st1{fill:#D7141A;}
	.st2{fill:#11457E;}
</style>
<g>
	<g>
		<path class="st0" d="M0.3,7.7l22.2,14.8H45v-8.4c0-5.6,0-8.4-2.8-11.3C39.4,0,36.6,0,30.9,0H14.1C8.4,0,5.6,0,2.8,2.8
			C1.3,4.3,0.6,5.8,0.3,7.7z"/>
		<path class="st1" d="M45,30.9v-8.4H22.5L0.3,37.3c0.3,1.9,1,3.4,2.5,4.9C5.6,45,8.4,45,14.1,45h16.9c5.6,0,8.4,0,11.3-2.8
			C45,39.4,45,36.6,45,30.9z"/>
		<path class="st2" d="M0.3,7.7C0,9.4,0,11.4,0,14.1v8.4v8.4c0,2.6,0,4.7,0.3,6.4l22.2-14.8L0.3,7.7z"/>
	</g>
</g>
</svg>
