<?xml version="1.0" encoding="utf-8"?>
<!-- Generator: Adobe Illustrator 22.1.0, SVG Export Plug-In . SVG Version: 6.00 Build 0)  -->
<svg version="1.1" id="Layer_1" xmlns="http://www.w3.org/2000/svg" xmlns:xlink="http://www.w3.org/1999/xlink" x="0px" y="0px"
	 viewBox="0 0 45 45" style="enable-background:new 0 0 45 45;" xml:space="preserve">
<style type="text/css">
	.st0{fill:#00A3DD;}
	.st1{fill:#F7D618;}
	.st2{fill:#CE1021;}
</style>
<g>
	<g>
		<path class="st0" d="M45,30.9V17L1.3,40.3c0.4,0.6,0.9,1.3,1.5,1.9C5.6,45,8.4,45,14.1,45h16.9c5.6,0,8.4,0,11.3-2.8
			C45,39.4,45,36.6,45,30.9z"/>
		<path class="st0" d="M0,14.1V28L43.7,4.7c-0.4-0.6-0.9-1.3-1.5-1.9C39.4,0,36.6,0,30.9,0H14.1C8.4,0,5.6,0,2.8,2.8S0,8.4,0,14.1z"
			/>
		<path class="st1" d="M1.3,40.3L45,17v-2L0.6,38.7C0.8,39.3,1,39.8,1.3,40.3z"/>
		<path class="st2" d="M0,30.9c0,3.4,0,5.8,0.6,7.8L45,15v-1c0-3.4,0-5.8-0.6-7.8L0,30V30.9z"/>
		<path class="st1" d="M0,28v2L44.4,6.3c-0.2-0.6-0.4-1.1-0.7-1.6L0,28z"/>
		<polygon class="st1" points="4.8,12.2 7.8,10 10.8,12.2 9.7,8.7 12.6,6.5 8.9,6.5 7.8,3 6.7,6.5 3,6.5 6,8.7 		"/>
	</g>
</g>
</svg>
