<?xml version="1.0" encoding="utf-8"?>
<!-- Generator: Adobe Illustrator 22.1.0, SVG Export Plug-In . SVG Version: 6.00 Build 0)  -->
<svg version="1.1" id="Layer_1" xmlns="http://www.w3.org/2000/svg" xmlns:xlink="http://www.w3.org/1999/xlink" x="0px" y="0px"
	 viewBox="0 0 45 45" style="enable-background:new 0 0 45 45;" xml:space="preserve">
<style type="text/css">
	.st0{fill:#872D00;}
	.st1{fill:#D00C33;}
	.st2{fill:#FFFFFF;}
</style>
<g>
	<g>
		<path class="st0" d="M13.3,45c0.2,0,0.3,0,0.5,0l0,0H13.3z"/>
		<path class="st0" d="M31.7,0c-0.2,0-0.5,0-0.7,0H20.5l0,0H31.7z"/>
		<path class="st0" d="M20.5,45h10.4c0.3,0,0.5,0,0.7,0H20.5L20.5,45z"/>
		<path class="st0" d="M13.8,0c-0.2,0-0.3,0-0.5,0H13.8L13.8,0z"/>
		<path class="st1" d="M0,14.1v5.1h13.8V0h-0.5C8.2,0,5.5,0.1,2.8,2.8C0,5.6,0,8.4,0,14.1z"/>
		<path class="st1" d="M20.5,19.1H45v-5.1c0-5.6,0-8.4-2.8-11.3C39.5,0.1,36.8,0,31.7,0H20.5V19.1z"/>
		<path class="st1" d="M45,30.9v-5.1H20.5V45h11.1c5.1,0,7.8-0.1,10.5-2.8C45,39.4,45,36.6,45,30.9z"/>
		<path class="st1" d="M13.8,25.9H0v5.1c0,5.6,0,8.4,2.8,11.3C5.5,44.9,8.2,45,13.3,45h0.5V25.9z"/>
		<path class="st2" d="M13.8,45h0.3C14,45,13.9,45,13.8,45L13.8,45z"/>
		<path class="st2" d="M13.8,0L13.8,0c0.1,0,0.2,0,0.3,0H13.8z"/>
		<path class="st2" d="M20.5,0L20.5,0h-6.5c-0.1,0-0.2,0-0.3,0l0,0H20.5z"/>
		<path class="st2" d="M13.8,45L13.8,45c0.1,0,0.2,0,0.3,0h6.5l0,0H13.8z"/>
		<polygon class="st2" points="20.5,0 13.8,0 13.8,19.1 0,19.1 0,25.9 13.8,25.9 13.8,45 20.5,45 20.5,25.9 45,25.9 45,19.1 
			20.5,19.1 		"/>
	</g>
</g>
</svg>
