<?xml version="1.0" encoding="utf-8"?>
<!-- Generator: Adobe Illustrator 22.1.0, SVG Export Plug-In . SVG Version: 6.00 Build 0)  -->
<svg version="1.1" id="Layer_1" xmlns="http://www.w3.org/2000/svg" xmlns:xlink="http://www.w3.org/1999/xlink" x="0px" y="0px"
	 viewBox="0 0 45 45" style="enable-background:new 0 0 45 45;" xml:space="preserve">
<style type="text/css">
	.st0{fill:#872D00;}
	.st1{fill:#FFFFFF;}
	.st2{fill:#005596;}
</style>
<g>
	<g>
		<path class="st0" d="M21.9,45h9c0.4,0,0.7,0,1.1,0L21.9,45L21.9,45z"/>
		<path class="st0" d="M32,0c-0.3,0-0.7,0-1.1,0h-9v0H32z"/>
		<path class="st1" d="M0,28.1v2.8c0,5.6,0,8.4,2.8,11.2c2.2,2.2,4.4,2.7,7.9,2.8V28.1H0z"/>
		<path class="st1" d="M21.9,16.9H45v-2.8c0-5.6,0-8.4-2.8-11.3C39.6,0.2,36.9,0,32,0H21.9V16.9z"/>
		<path class="st1" d="M10.7,0C7.2,0.1,5,0.6,2.8,2.8C0,5.6,0,8.4,0,14.1v2.8h10.7V0z"/>
		<path class="st1" d="M45,30.9v-2.8H21.9V45H32c4.9,0,7.5-0.2,10.2-2.8C45,39.4,45,36.6,45,30.9z"/>
		<path class="st2" d="M14.1,0h-3.4v0H13C13.3,0,13.7,0,14.1,0z"/>
		<path class="st2" d="M10.7,45L10.7,45l3.4,0c-0.4,0-0.7,0-1.1,0H10.7z"/>
		<path class="st2" d="M13,45c0.3,0,0.7,0,1.1,0h7.9v0H13z"/>
		<path class="st2" d="M21.9,0L21.9,0l-7.9,0c-0.4,0-0.7,0-1.1,0H21.9z"/>
		<path class="st2" d="M10.7,45L10.7,45l2.3,0C12.2,45,11.4,45,10.7,45z"/>
		<path class="st2" d="M13,0h-2.3v0C11.4,0,12.2,0,13,0z"/>
		<path class="st2" d="M21.9,0h-9c-0.8,0-1.6,0-2.3,0v16.8H0v11.3h10.7V45c0.7,0,1.5,0,2.3,0h9V28.1H45V16.9H21.9V0z"/>
	</g>
</g>
</svg>
