<?xml version="1.0" encoding="utf-8"?>
<!-- Generator: Adobe Illustrator 22.1.0, SVG Export Plug-In . SVG Version: 6.00 Build 0)  -->
<svg version="1.1" id="Layer_1" xmlns="http://www.w3.org/2000/svg" xmlns:xlink="http://www.w3.org/1999/xlink" x="0px" y="0px"
	 viewBox="0 0 45 45" style="enable-background:new 0 0 45 45;" xml:space="preserve">
<style type="text/css">
	.st0{fill:#FFFFFF;}
	.st1{fill:#ED1C24;}
</style>
<g>
	<g>
		<g>
			<path class="st0" d="M0,26.3v4.6c0,5.6,0,8.4,2.8,11.2C5.6,45,8.4,45,14.1,45h4.6V26.3H0z"/>
			<path class="st0" d="M45,18.7v-4.6c0-5.6,0-8.4-2.8-11.3C39.4,0,36.6,0,30.9,0h-4.6v18.7H45z"/>
			<path class="st0" d="M18.7,0h-4.6C8.4,0,5.6,0,2.8,2.8C0,5.6,0,8.4,0,14.1v4.6h18.7V0z"/>
			<path class="st0" d="M26.3,45h4.6c5.6,0,8.4,0,11.3-2.8C45,39.4,45,36.6,45,30.9v-4.6H26.3V45z"/>
			<polygon class="st1" points="26.3,18.7 26.3,0 18.7,0 18.7,18.7 0,18.7 0,26.3 18.7,26.3 18.7,45 26.3,45 26.3,26.3 45,26.3 
				45,18.7 			"/>
		</g>
		<g>
			<path class="st1" d="M34.2,31.6c0.9,0.1,1.9,0.1,2.8,0c-0.2,1-0.3,2-0.4,3c1,0,2-0.2,3-0.4c-0.1,0.9-0.1,1.9,0,2.8
				c-1-0.2-2-0.3-3-0.4c0.1,1,0.2,2,0.4,3c-0.9-0.1-1.9-0.1-2.8,0c0.2-1,0.3-2,0.3-3c-1,0.1-2,0.2-3,0.4c0.1-0.9,0.1-1.9,0-2.8
				c1,0.2,2,0.3,3,0.4C34.5,33.6,34.4,32.6,34.2,31.6L34.2,31.6z"/>
			<path class="st1" d="M34.2,5.3c0.9,0.1,1.9,0.1,2.8,0c-0.2,1-0.3,2-0.4,3c1,0,2-0.2,3-0.4c-0.1,0.9-0.1,1.9,0,2.8
				c-1-0.2-2-0.3-3-0.4c0.1,1,0.2,2,0.4,3c-0.9-0.1-1.9-0.1-2.8,0c0.2-1,0.3-2,0.3-3c-1,0.1-2,0.2-3,0.4c0.1-0.9,0.1-1.9,0-2.8
				c1,0.2,2,0.3,3,0.4C34.5,7.3,34.4,6.3,34.2,5.3L34.2,5.3z"/>
			<path class="st1" d="M7.9,5.3c0.9,0.1,1.9,0.1,2.8,0c-0.2,1-0.3,2-0.4,3c1,0,2-0.2,3-0.4c-0.1,0.9-0.1,1.9,0,2.8
				c-1-0.2-2-0.3-3-0.4c0.1,1,0.2,2,0.4,3c-0.9-0.1-1.9-0.1-2.8,0c0.2-1,0.3-2,0.3-3c-1,0.1-2,0.2-3,0.4c0.1-0.9,0.1-1.9,0-2.8
				c1,0.2,2,0.3,3,0.4C8.2,7.3,8.1,6.3,7.9,5.3L7.9,5.3z"/>
			<path class="st1" d="M7.9,31.6c0.9,0.1,1.9,0.1,2.8,0c-0.2,1-0.3,2-0.4,3c1,0,2-0.2,3-0.4c-0.1,0.9-0.1,1.9,0,2.8
				c-1-0.2-2-0.3-3-0.4c0.1,1,0.2,2,0.4,3c-0.9-0.1-1.9-0.1-2.8,0c0.2-1,0.3-2,0.3-3c-1,0.1-2,0.2-3,0.4c0.1-0.9,0.1-1.9,0-2.8
				c1,0.2,2,0.3,3,0.4C8.2,33.6,8.1,32.6,7.9,31.6L7.9,31.6z"/>
		</g>
	</g>
</g>
</svg>
