<?xml version="1.0" encoding="utf-8"?>
<!-- Generator: Adobe Illustrator 22.1.0, SVG Export Plug-In . SVG Version: 6.00 Build 0)  -->
<svg version="1.1" id="Layer_1" xmlns="http://www.w3.org/2000/svg" xmlns:xlink="http://www.w3.org/1999/xlink" x="0px" y="0px"
	 viewBox="0 0 45 45" style="enable-background:new 0 0 45 45;" xml:space="preserve">
<style type="text/css">
	.st0{fill:#FFFFFF;}
	.st1{fill:#DA000C;}
	.st2{fill:#F8D80E;}
</style>
<g>
	<g>
		<g>
			<path class="st0" d="M0,14.1V30h45V14.1c0-5.6,0-8.4-2.8-11.3C39.4,0,36.6,0,30.9,0H14.1C8.4,0,5.6,0,2.8,2.8C0,5.6,0,8.4,0,14.1
				z"/>
			<path class="st1" d="M45,30.9V30H0v0.9c0,5.6,0,8.4,2.8,11.3C5.6,45,8.4,45,14.1,45h16.9c5.6,0,8.4,0,11.3-2.8
				C45,39.4,45,36.6,45,30.9z"/>
		</g>
		<g>
			<rect x="19.7" y="7.4" width="5.5" height="20.3"/>
			<rect x="27.9" y="9" width="3.9" height="18.2"/>
			<rect x="13.2" y="9" width="3.9" height="18.2"/>
			<g>
				<polygon class="st1" points="17.8,27.2 11.3,27.2 9.8,28.2 9.8,29.2 17.8,29.2 				"/>
				<path d="M9.8,29.3v-1.1l1.5-1h6.5v0v0h0v2.1H9.8L9.8,29.3z M9.9,28.2v1h7.9v-1.9h-6.5L9.9,28.2L9.9,28.2z"/>
			</g>
			<g>
				<polygon points="9.8,28.3 9.8,28.2 17.9,28.2 17.9,28.3 9.8,28.3 				"/>
			</g>
			<g>
				<polygon class="st1" points="27.2,29.2 35.2,29.2 35.2,28.2 33.7,27.2 27.2,27.2 				"/>
				<path d="M27.2,29.3L27.2,29.3l0-2.1h6.6l1.5,1v1.1H27.2L27.2,29.3z M27.2,29.2l7.9,0v-1l-1.5-1h-6.5V29.2L27.2,29.2z"/>
			</g>
			<g>
				<polygon points="27.1,28.3 27.1,28.2 35.2,28.2 35.2,28.3 27.1,28.3 				"/>
			</g>
			<g>
				<polygon class="st1" points="17.8,27.7 16.1,28.5 16.1,29.8 22.5,29.8 28.9,29.8 28.9,28.5 27.2,27.7 22.5,27.7 				"/>
				<path d="M22.5,29.8h-6.4v-1.3l1.7-0.8l0,0h4.7h4.7l1.7,0.8v1.3H22.5L22.5,29.8z M16.2,28.6v1.1h6.3h6.3v-1.1l-1.6-0.8h-4.7h-4.7
					L16.2,28.6L16.2,28.6z M17.8,27.8L17.8,27.8L17.8,27.8L17.8,27.8z"/>
			</g>
			<g>
				<polygon points="16.1,28.6 16.1,28.5 28.9,28.5 28.9,28.6 16.1,28.6 				"/>
			</g>
			<g>
				<path class="st1" d="M15,22.9c0.9,0,1.7,0.8,1.7,1.8v2.5h1.2v-9.6h-6.5v9.6h2v-2.5C13.3,23.7,14.1,22.9,15,22.9z"/>
				<path d="M11.3,27.3v-9.7h6.6v9.7h-1.3v-2.6c0-1-0.7-1.8-1.6-1.8l0,0v0v0c0.9,0,1.7,0.8,1.7,1.8l0,0v2.5h1.1v-9.5h-6.4L11.3,27.3
					l2-0.1v-2.5c0-1,0.7-1.8,1.7-1.8l0,0v0v0c-0.9,0-1.6,0.8-1.6,1.8l0,0v2.6H11.3L11.3,27.3z"/>
			</g>
			<g>
				<rect x="10.7" y="16.8" class="st1" width="7.8" height="0.8"/>
				<path d="M10.6,17.7v-0.8v0h7.8v0.9H10.6L10.6,17.7z M10.7,17.6h7.7v-0.7h-7.7V17.6L10.7,17.6z"/>
			</g>
			<g>
				<g>
					<path class="st2" d="M22,28.7c-0.3,0.3-0.3,0.7-0.3,0.7l0.9-0.3l0.6-0.4c0.2-0.1,0.4-0.3,0.6-0.4c0.4-0.2,0.8-0.5,1.1-0.7
						c0.3-0.2,0.6-0.3,0.8-0.4l-0.2-0.6c-0.2,0.1-0.5,0.2-0.9,0.4c-0.4,0.2-0.8,0.4-1.2,0.7C23.4,27.7,22.2,28.5,22,28.7z"/>
					<path d="M21.6,29.4C21.6,29.4,21.6,29.4,21.6,29.4L21.6,29.4c0-0.2,0-0.5,0.3-0.7l0,0c0.2-0.2,1.4-1,1.4-1l0,0
						c0.4-0.3,0.8-0.5,1.2-0.7l0,0c0.4-0.2,0.7-0.3,0.9-0.4l0,0l0,0l0.2,0.6l0,0c-0.1,0-0.4,0.2-0.8,0.4l0,0
						c-0.3,0.2-0.7,0.4-1.1,0.7l0,0c-0.2,0.2-0.4,0.3-0.6,0.4l0,0l-0.6,0.4L21.6,29.4L21.6,29.4L21.6,29.4z M21.7,29.3l0.8-0.3
						l0.6-0.4c0.2-0.1,0.4-0.3,0.6-0.4l0,0c0.4-0.2,0.8-0.5,1.1-0.7l0,0c0.3-0.2,0.6-0.3,0.7-0.4l0,0l-0.2-0.5
						c-0.2,0.1-0.5,0.2-0.8,0.4l0,0c-0.4,0.2-0.8,0.4-1.2,0.7l0,0c0,0-1.2,0.8-1.4,1l0,0C21.7,29,21.7,29.2,21.7,29.3L21.7,29.3z"/>
				</g>
				<g>
					<polygon class="st2" points="19.1,39.7 19.1,41.1 19.9,41.1 19.9,40.4 21.1,40.4 21.1,41.1 22,41.1 22,39.7 					"/>
					<path d="M21,41.2v-0.7H20v0.7h-1v-1.4v0h3.1v1.5H21L21,41.2z M21.1,40.4v0.7H22v-1.3h-2.9v1.3h0.8v-0.7H21.1L21.1,40.4z
						 M19.1,39.8L19.1,39.8L19.1,39.8L19.1,39.8z"/>
				</g>
				<g>
					<polygon class="st2" points="19.1,41.8 19.1,43.2 22,43.2 22,41.8 21.1,41.8 21.1,42.5 19.9,42.5 19.9,41.8 					"/>
					<path d="M19,43.2v-1.4v0h1v0.7H21v-0.7h1v1.5H19L19,43.2z M19.1,43.1H22v-1.3h-0.8v0.7h-1.3v-0.7h-0.8V43.1L19.1,43.1z
						 M19.1,41.8L19.1,41.8L19.1,41.8L19.1,41.8z"/>
				</g>
				<g>
					<rect x="22" y="34" class="st2" width="0.9" height="10.5"/>
					<path d="M22,44.5V34v0h0.9v10.6H22L22,44.5z M22.1,44.5h0.8V34h-0.8V44.5L22.1,44.5z"/>
				</g>
				<g>
					<path class="st2" d="M22.4,31.6l1.8,1.1l-1.8,1.1l-1.8-1.1L22.4,31.6z M20,32.2h-0.7V33H20l2.4,1.4l2.4-1.4h0.7v-0.8h-0.7
						l-2.4-1.4L20,32.2z"/>
					<path d="M20,33h-0.7v-0.9H20l2.5-1.4l2.5,1.4h0.7V33h-0.7l-2.5,1.4L20,33L20,33z M19.4,33H20l2.4,1.4l2.4-1.4h0.6v-0.7h-0.6
						l-2.4-1.4L20,32.3l0,0h-0.6V33L19.4,33z M20,32.2L20,32.2L20,32.2L20,32.2z M20.5,32.6l1.9-1.1l0,0l1.9,1.1l-1.9,1.1L20.5,32.6
						L20.5,32.6z M20.7,32.6l1.7,1l1.7-1l-1.7-1L20.7,32.6L20.7,32.6z"/>
				</g>
				<g>
					<rect x="22" y="35.2" class="st2" width="0.9" height="8.2"/>
					<path d="M22,43.5v-8.3v0h0.9v8.3H22L22,43.5z M22.1,43.4h0.8v-8.1h-0.8V43.4L22.1,43.4z"/>
				</g>
				<g>
					<path class="st2" d="M22.4,32.2c-0.3,0-0.5-0.2-0.5-0.5v-1.8c0-0.3,0.2-0.5,0.5-0.5c0.3,0,0.5,0.2,0.5,0.5v1.3l0.3,0.2v-1.7
						c0-0.4-0.4-0.6-0.8-0.6c-0.5,0-0.8,0.3-0.8,0.6v2.3c0,0.4,0.4,0.6,0.8,0.6c0.4,0,0.8-0.2,0.8-0.5l-0.3-0.2
						C22.9,32,22.7,32.2,22.4,32.2z"/>
					<path d="M21.6,31.9v-2.3c0-0.4,0.4-0.7,0.9-0.7l0,0c0.5,0,0.9,0.3,0.9,0.7l0,0v1.8l-0.4-0.2v-1.3c0-0.3-0.2-0.5-0.5-0.5l0,0
						c-0.3,0-0.5,0.2-0.5,0.5l0,0v1.8c0,0.3,0.2,0.5,0.5,0.5l0,0v0v0c-0.3,0-0.6-0.2-0.6-0.6l0,0v-1.8c0-0.3,0.2-0.6,0.6-0.6l0,0
						c0.3,0,0.6,0.2,0.6,0.6l0,0v1.3l0.3,0.1v-1.6c0-0.3-0.4-0.6-0.8-0.6l0,0c-0.5,0-0.8,0.3-0.8,0.6l0,0L21.6,31.9
						c0.1,0.3,0.4,0.6,0.9,0.6l0,0c0.4,0,0.7-0.2,0.8-0.5l0,0L23,31.9c-0.1,0.2-0.3,0.3-0.5,0.3l0,0v0v0c0.2,0,0.4-0.1,0.4-0.3l0,0
						l0-0.1l0.4,0.2l0,0c-0.1,0.3-0.4,0.6-0.9,0.6l0,0C22,32.6,21.6,32.3,21.6,31.9L21.6,31.9z"/>
				</g>
				<g>
					<path class="st2" d="M22.7,29.3c0,0.2-0.2,0.2-0.3,0.2c-0.2,0-0.2-0.1-0.2-0.1s-0.1,0-0.3,0.3c-0.1,0.1,0,0.3,0.1,0.4
						c0.2,0.1,0.5,0.2,0.8,0c0.2-0.2,0.5-0.5,0.4-0.9c-0.1-0.4-0.2-0.5-0.3-0.6c-0.2-0.2-0.6-0.4-1-0.7c-0.8-0.5-1.7-0.9-2.5-1.2
						l-0.2,0.6c0.7,0.2,1.6,0.7,2.3,1.2c0.4,0.2,0.7,0.4,0.9,0.6C22.6,29,22.7,29.1,22.7,29.3z"/>
					<path d="M22.1,30c-0.1-0.1-0.2-0.2-0.2-0.3l0,0c0,0,0-0.1,0-0.1l0,0c0.2-0.2,0.3-0.3,0.3-0.3l0,0l0,0c0,0,0,0,0,0l0,0l0,0h0
						l0,0c0,0,0,0,0,0l0,0c0,0,0.1,0,0.1,0l0,0c0,0,0,0,0,0l0,0c0.1,0,0.2,0,0.2-0.1l0,0h0c0,0,0,0,0,0l0,0c0-0.1-0.1-0.2-0.1-0.3
						l0,0c-0.2-0.2-0.5-0.4-0.9-0.6l0,0c-0.7-0.4-1.7-0.9-2.3-1.1l0,0l0,0l0.2-0.6l0,0c0.7,0.3,1.7,0.7,2.5,1.2l0,0
						c0.4,0.2,0.8,0.4,1,0.7l0,0c0.1,0.1,0.2,0.2,0.3,0.6l0,0c0,0.1,0,0.1,0,0.2l0,0c0,0.4-0.2,0.6-0.4,0.8l0,0
						c-0.1,0.1-0.3,0.2-0.4,0.2l0,0C22.3,30.2,22.2,30.1,22.1,30L22.1,30z M22.2,29.4c0,0-0.1,0.1-0.2,0.2l0,0c0,0,0,0,0,0.1l0,0
						c0,0.1,0.1,0.2,0.1,0.3l0,0c0.1,0.1,0.2,0.1,0.3,0.1l0,0c0.1,0,0.3,0,0.4-0.1l0,0c0.2-0.1,0.4-0.4,0.4-0.7l0,0
						c0-0.1,0-0.1,0-0.2l0,0c-0.1-0.4-0.2-0.4-0.3-0.5l0,0c-0.2-0.2-0.6-0.4-1-0.7l0,0c-0.8-0.5-1.7-0.9-2.4-1.2l0,0l-0.2,0.5
						c0.7,0.2,1.6,0.7,2.3,1.1l0,0c0.4,0.2,0.7,0.4,0.9,0.6l0,0c0.1,0.1,0.2,0.2,0.2,0.3l0,0c0,0,0,0,0,0l0,0l0,0l0,0
						c0,0.2-0.2,0.2-0.3,0.2l0,0c0,0,0,0,0,0l0,0C22.3,29.5,22.2,29.5,22.2,29.4L22.2,29.4C22.2,29.4,22.2,29.4,22.2,29.4L22.2,29.4
						z"/>
				</g>
				<polygon points="19.8,27.3 20,26.8 20.1,26.8 19.8,27.4 19.8,27.3 				"/>
				<polygon points="20.3,27.6 20.5,27.1 20.6,27.1 20.4,27.6 20.3,27.6 				"/>
				<polygon points="20.8,27.8 21.1,27.3 21.1,27.4 20.8,27.9 20.8,27.8 				"/>
				<polygon points="21.2,28.1 21.6,27.6 21.6,27.6 21.3,28.1 21.2,28.1 				"/>
				<polygon points="21.7,28.4 22.1,27.9 22.1,27.9 21.8,28.4 21.7,28.4 				"/>
				<polygon points="22.1,28.6 22.5,28.2 22.6,28.2 22.2,28.7 22.1,28.6 				"/>
				<polygon points="22.5,28.9 22.9,28.5 22.9,28.5 22.6,29 22.5,28.9 				"/>
				<polygon points="22.7,29.2 23.2,29.2 23.2,29.3 22.7,29.3 22.7,29.2 				"/>
				<polygon points="22.5,29.5 22.6,29.4 22.9,29.9 22.8,29.9 22.5,29.5 				"/>
				<polygon points="22,29.9 22.3,29.5 22.3,29.5 22.1,30 22,29.9 				"/>
				<polygon points="22.9,28 22.9,28 23.3,28.5 23.2,28.5 22.9,28 				"/>
				<polygon points="23.3,27.8 23.3,27.7 23.6,28.2 23.5,28.3 23.3,27.8 				"/>
				<polygon points="23.7,27.5 23.7,27.5 23.9,28 23.9,28 23.7,27.5 				"/>
				<polygon points="24,27.3 24.1,27.2 24.3,27.8 24.3,27.8 24,27.3 				"/>
				<polygon points="24.4,27 24.5,27 24.7,27.6 24.7,27.6 24.4,27 				"/>
				<polygon points="24.9,26.8 24.9,26.8 25.1,27.3 25,27.4 24.9,26.8 				"/>
				<polygon points="21.9,28.8 21.9,28.7 22.2,28.9 22.1,29 21.9,28.8 				"/>
			</g>
			<g>
				<rect x="26.6" y="16.8" class="st1" width="7.8" height="0.8"/>
				<path d="M26.5,17.7v-0.8v0h7.8v0.9H26.5L26.5,17.7z M26.6,17.6h7.7v-0.7h-7.7V17.6L26.6,17.6z"/>
			</g>
			<g>
				<path class="st1" d="M13,9v6h1v-1.7c0-0.6,0.4-1.1,1-1.2c0,0,0,0,0.1,0c0.6,0,1.2,0.5,1.2,1.2v1.7h1V9H13z"/>
				<path d="M16.3,15.1v-1.7c0-0.6-0.5-1.1-1.1-1.1l0,0c0,0,0,0,0,0l0,0c0,0,0,0,0,0l0,0c-0.6,0-1,0.5-1,1.1l0,0c0,0,0,0,0,0l0,0
					v1.7H13V9v0h4.4v6.1H16.3L16.3,15.1z M16.4,13.4V15h0.9v-6h-4.2v6h1v-1.6c0,0,0,0,0,0l0,0c0-0.6,0.5-1.2,1.1-1.2l0,0
					c0,0,0,0,0,0l0,0c0,0,0,0,0,0l0,0C15.8,12.2,16.4,12.7,16.4,13.4L16.4,13.4z M13,9.1L13,9.1L13,9.1L13,9.1z"/>
			</g>
			<g>
				<polygon class="st1" points="18.4,16 14.1,16 14.1,15.1 12,15.1 12,16 10.6,16 10.6,15.1 9.8,15.1 9.8,16.8 18.4,16.8 				"/>
				<path d="M9.8,16.9V15h0.9v1H12v-1h2.1v1h4.3v0v0h0v0.9H9.8L9.8,16.9z M9.9,16.8h8.5v-0.7H14v-1h-1.9v1h-1.5v-1H9.9V16.8
					L9.9,16.8z"/>
			</g>
			<g>
				<path class="st1" d="M19.5,7.4v7.6h1.6v-2.3c0-0.5,0.3-1.3,1.4-1.3c1,0,1.4,0.7,1.4,1.3v2.3h1.6V7.4h-3H19.5z M22.3,8.3h0.2h0.2
					v2.6h-0.2h-0.2V8.3z M20.8,8.8h0.5v1.9h-0.5V8.8z M23.7,8.8h0.5v1.9h-0.5V8.8z"/>
				<path d="M19.5,15.1V7.4v0h3h3v7.7h-1.7v-2.3c0-0.5-0.3-1.2-1.3-1.2l0,0c-1,0-1.3,0.7-1.3,1.2l0,0v2.3H19.5L19.5,15.1z M19.6,15
					h1.5v-2.2c0-0.3,0.1-0.6,0.3-0.8l0,0c0.2-0.3,0.6-0.4,1.1-0.4l0,0c0.5,0,0.9,0.2,1.1,0.4l0,0c0.2,0.3,0.3,0.6,0.3,0.8l0,0V15
					h1.5V7.5h-2.9h-2.9V15L19.6,15z M19.5,7.5L19.5,7.5L19.5,7.5L19.5,7.5z M22.5,10.9h-0.3V8.3v0h0.3h0.3v2.7H22.5L22.5,10.9z
					 M22.3,10.9h0.2h0.2V8.3h-0.2h-0.2V10.9L22.3,10.9z M23.6,10.8v-2v0h0.6v2H23.6L23.6,10.8z M23.7,10.7h0.4V8.8h-0.4V10.7
					L23.7,10.7z M20.8,10.8v-2v0h0.6v2H20.8L20.8,10.8z M20.9,10.7h0.4V8.8h-0.4V10.7L20.9,10.7z"/>
			</g>
			<g>
				<polygon class="st1" points="19,6.3 19,7.4 22.5,7.4 26,7.4 26,6.3 22.5,6.3 				"/>
				<path d="M22.5,7.5H19V6.3v0h3.5H26v1.2H22.5L22.5,7.5z M19,7.4h3.5H26v-1h-3.5H19V7.4L19,7.4z M19,6.4L19,6.4L19,6.4L19,6.4z"/>
			</g>
			<g>
				<polygon class="st1" points="18.3,5.1 18.3,6.3 22.5,6.3 26.7,6.3 26.7,5.1 25.6,5.1 25.6,5.8 24.4,5.8 24.4,5.1 23.1,5.1 
					23.1,5.8 22.5,5.8 21.9,5.8 21.9,5.1 20.6,5.1 20.6,5.8 19.4,5.8 19.4,5.1 				"/>
				<path d="M22.5,6.4h-4.2V5.1v0h1.1v0.7h1.1V5H22v0.7h0.5H23V5h1.4v0.7h1.1V5h1.1v1.4H22.5L22.5,6.4z M18.4,6.3h4.1h4.1V5.1h-1
					v0.7h-1.3V5.1h-1.3v0.7h-0.6h-0.6V5.1h-1.3v0.7h-1.3V5.1h-1V6.3L18.4,6.3z M18.3,5.1L18.3,5.1L18.3,5.1L18.3,5.1z"/>
			</g>
			<g>
				<rect x="12.6" y="8.2" class="st1" width="5" height="0.8"/>
				<path d="M12.6,9.1V8.2v0h5.1v0.9H12.6L12.6,9.1z M12.7,9h4.9V8.2h-4.9V9L12.7,9z M12.6,8.2L12.6,8.2L12.6,8.2L12.6,8.2z"/>
			</g>
			<g>
				<polygon class="st1" points="12,6.6 12,8.2 18,8.2 18,6.6 17.1,6.6 17.1,7.4 16,7.4 16,6.6 14.3,6.6 14.3,7.4 13.1,7.4 
					13.1,6.6 				"/>
				<path d="M12,8.2V6.6v0h1.2v0.8h1V6.6H16v0.8h1V6.6h1v1.7H12L12,8.2z M12,8.1H18V6.7h-0.8v0.8h-1.2V6.7h-1.6v0.8h-1.2V6.7H12V8.1
					L12,8.1z M12,6.7L12,6.7L12,6.7L12,6.7z"/>
			</g>
			<g>
				<path class="st1" d="M30,22.9c-0.9,0-1.7,0.8-1.7,1.8v2.5h-1.2v-9.6h6.5v9.6h-2v-2.5C31.7,23.7,30.9,22.9,30,22.9z"/>
				<path d="M31.6,27.3v-2.6c0-0.9-0.7-1.8-1.6-1.8l0,0v0v0c0.9,0,1.7,0.9,1.7,1.8l0,0L31.6,27.3l2-0.1v-9.5h-6.4v9.5h1.1v-2.5
					c0-1,0.8-1.8,1.7-1.8l0,0v0v0c-0.9,0-1.6,0.8-1.6,1.8l0,0v2.6h-1.3v-9.7h6.6v9.7H31.6L31.6,27.3z"/>
			</g>
			<g>
				<polygon class="st1" points="16.8,17.6 16.8,18.4 22.5,18.4 28.2,18.4 28.2,17.6 22.5,17.6 				"/>
				<path d="M22.5,18.5h-5.7v-0.8v0h5.7h5.7v0.9H22.5L22.5,18.5z M16.8,18.4h5.7h5.7v-0.7h-5.7h-5.7V18.4L16.8,18.4z M16.8,17.7
					L16.8,17.7L16.8,17.7L16.8,17.7z"/>
			</g>
			<g>
				<polygon class="st1" points="26.6,16 30.9,16 30.9,15.1 33,15.1 33,16 34.4,16 34.4,15.1 35.2,15.1 35.2,16.8 26.6,16.8 				"/>
				<path d="M26.5,16.9V16v0h4.4v-1H33v1h1.3v-1h0.9v1.9H26.5L26.5,16.9z M26.6,16.8h8.5v-1.7h-0.7v1h-1.5v-1h-2v1h-4.4V16.8
					L26.6,16.8z"/>
			</g>
			<g>
				<path class="st1" d="M32,9v6h-1v-1.7c0-0.6-0.4-1.1-1-1.2c0,0,0,0-0.1,0c-0.6,0-1.2,0.5-1.2,1.2v1.7h-1V9H32z"/>
				<path d="M27.6,15.1V9H32v0v0h0v6.1h-1.1v-1.7c0,0,0,0,0,0l0,0c0-0.6-0.4-1.1-1-1.1l0,0c0,0,0,0,0,0l0,0c0,0,0,0,0,0l0,0
					c-0.6,0-1.1,0.5-1.1,1.1l0,0v1.7H27.6L27.6,15.1z M27.7,15h0.9v-1.6c0-0.7,0.5-1.2,1.2-1.2l0,0c0,0,0,0,0,0l0,0c0,0,0,0,0,0l0,0
					c0.6,0,1.1,0.6,1.1,1.2l0,0c0,0,0,0,0,0l0,0V15h1v-6h-4.2V15L27.7,15z"/>
			</g>
			<g>
				<polygon class="st1" points="16.3,15.1 16.3,17.6 22.5,17.6 28.7,17.6 28.7,15.1 27.5,15.1 27.5,16 25.9,16 25.9,15.1 
					23.9,15.1 23.9,16 22.5,16 21.1,16 21.1,15.1 19.1,15.1 19.1,16 17.5,16 17.5,15.1 				"/>
				<path d="M22.5,17.7h-6.2v-2.6v0h1.3l0,1H19l0-1h2.2v1h1.3h1.3v-1H26l0,1h1.5v-1h1.3v2.7H22.5L22.5,17.7z M16.4,17.6h6.1h6.1
					v-2.5h-1.1l0,1h-1.6v-1h-2v1h-1.4h-1.4v-1h-2l0,1h-1.6l0-1h-1.1V17.6L16.4,17.6z M16.3,15.1L16.3,15.1L16.3,15.1L16.3,15.1z"/>
			</g>
			<g>
				<rect x="27.3" y="8.2" class="st1" width="5" height="0.8"/>
				<path d="M27.3,9.1V8.1h5.1v0v0h0v0.9H27.3L27.3,9.1z M27.4,9h4.9V8.2h-4.9V9L27.4,9z"/>
			</g>
			<g>
				<polygon class="st1" points="33,6.6 33,8.2 27,8.2 27,6.6 27.9,6.6 27.9,7.4 29,7.4 29,6.6 30.7,6.6 30.7,7.4 31.9,7.4 
					31.9,6.6 				"/>
				<path d="M26.9,8.2V6.6h1l0,0.8h1V6.6h1.8v0.8h1V6.6H33v0v0h0v1.7H26.9L26.9,8.2z M27,8.1H33V6.7h-1.1v0.8h-1.2V6.7h-1.6v0.8
					h-1.2V6.7H27V8.1L27,8.1z"/>
			</g>
			<g>
				<path class="st1" d="M17.8,18.4v9.3h2.2c0,0,0-1.9,0-3.5c0-1.6,1.1-2.4,2.4-2.4c1.3,0,2.4,0.8,2.4,2.4c0,1.6,0,3.5,0,3.5h2.2
					v-9.3h-4.7H17.8z"/>
				<path d="M24.9,27.8C24.9,27.8,24.9,27.8,24.9,27.8L24.9,27.8C24.9,27.8,24.9,27.7,24.9,27.8L24.9,27.8c0,0,0-2,0-3.5l0,0
					c0-1.6-1.1-2.4-2.4-2.4l0,0c-1.4,0-2.4,0.8-2.4,2.4l0,0c0,1.6,0,3.5,0,3.5l0,0c0,0,0,0,0,0l0,0c0,0,0,0,0,0l0,0h-2.2
					c0,0,0,0,0,0l0,0c0,0,0,0,0,0l0,0v-9.3c0,0,0,0,0,0l0,0c0,0,0,0,0,0l0,0h4.7h4.7c0,0,0,0,0,0l0,0c0,0,0,0,0,0l0,0v9.3
					c0,0,0,0,0,0l0,0c0,0,0,0,0,0l0,0H24.9L24.9,27.8z M27.1,27.7v-9.2h-4.6h-4.6v9.2H20c0-0.3,0-2,0-3.4l0,0c0-0.8,0.3-1.4,0.7-1.9
					l0,0c0.4-0.4,1.1-0.6,1.8-0.6l0,0c0.7,0,1.3,0.2,1.8,0.6l0,0c0.5,0.4,0.7,1,0.7,1.9l0,0c0,1.4,0,3.2,0,3.4l0,0H27.1L27.1,27.7z
					 M17.8,18.5L17.8,18.5L17.8,18.5L17.8,18.5z"/>
			</g>
		</g>
	</g>
</g>
</svg>
