<?xml version="1.0" encoding="utf-8"?>
<!-- Generator: Adobe Illustrator 22.1.0, SVG Export Plug-In . SVG Version: 6.00 Build 0)  -->
<svg version="1.1" id="Layer_1" xmlns="http://www.w3.org/2000/svg" xmlns:xlink="http://www.w3.org/1999/xlink" x="0px" y="0px"
	 viewBox="0 0 45 45" style="enable-background:new 0 0 45 45;" xml:space="preserve">
<style type="text/css">
	.st0{fill:#0061AA;}
	.st1{fill:#FFFFFF;}
</style>
<g>
	<g>
		<g>
			<path class="st0" d="M45,30.9c0,5.6,0,8.4-2.8,11.3C39.4,45,36.6,45,30.9,45H14.1c-5.6,0-8.4,0-11.3-2.8C0,39.4,0,36.6,0,30.9
				V14.1C0,8.4,0,5.6,2.8,2.8C5.6,0,8.4,0,14.1,0h16.9c5.6,0,8.4,0,11.3,2.8C45,5.6,45,8.4,45,14.1V30.9z"/>
		</g>
		<g>
			<path class="st1" d="M1.2,40h42.7c0.7-1.4,1-3,1.1-5H0.1C0.2,37,0.4,38.6,1.2,40z"/>
			<polygon class="st1" points="45,25 15,25 10,25 0,25 0,30 45,30 			"/>
			<rect x="25" y="15" class="st1" width="20" height="5"/>
			<path class="st1" d="M25,10h19.9c-0.1-2-0.4-3.6-1.1-5H25V10z"/>
			<path class="st1" d="M15,10V5V0h-0.9c-1.5,0-2.9,0-4.1,0.1V5v5H0.1C0,11.2,0,12.5,0,14.1V15h10v5v5h5v-5v-5h10v-5H15z"/>
		</g>
	</g>
</g>
</svg>
