<?xml version="1.0" encoding="utf-8"?>
<!-- Generator: Adobe Illustrator 22.1.0, SVG Export Plug-In . SVG Version: 6.00 Build 0)  -->
<svg version="1.1" id="Layer_1" xmlns="http://www.w3.org/2000/svg" xmlns:xlink="http://www.w3.org/1999/xlink" x="0px" y="0px"
	 viewBox="0 0 400 400" style="enable-background:new 0 0 400 400;" xml:space="preserve">
<style type="text/css">
	.st0{fill:#CF142B;}
	.st1{fill:#FBB03B;stroke:#FBB03B;stroke-width:0.2835;stroke-miterlimit:10;}
</style>
<g>
	<g>
		<polygon class="st0" points="321.9,165 235,165 235,130.7 235,0 165,0 165,130.7 165,165 78.1,165 0,165 0,235 78.6,235 165,235 
			165,269.6 165,400 235,400 235,269.6 235,235 321.4,235 400,235 400,165 		"/>
	</g>
</g>
<polygon class="st1" points="253.7,184.9 215.1,184.9 215.1,169.7 215.1,111.6 184,111.6 184,169.7 184,184.9 145.4,184.9 
	110.7,184.9 110.7,216 145.6,216 184,216 184,231.4 184,289.3 215.1,289.3 215.1,231.4 215.1,216 253.5,216 288.4,216 288.4,184.9 
	"/>
<polygon class="st1" points="290.5,219.3 290.5,181.3 273.2,200.3 "/>
<polygon class="st1" points="180.7,292.1 218.7,292.1 199.7,274.8 "/>
<polygon class="st1" points="107.3,181.5 107.3,219.5 124.7,200.5 "/>
<polygon class="st1" points="180.7,109.1 218.7,109.1 199.7,126.5 "/>
</svg>
