<?xml version="1.0" encoding="utf-8"?>
<!-- Generator: Adobe Illustrator 22.1.0, SVG Export Plug-In . SVG Version: 6.00 Build 0)  -->
<svg version="1.1" id="Layer_1" xmlns="http://www.w3.org/2000/svg" xmlns:xlink="http://www.w3.org/1999/xlink" x="0px" y="0px"
	 viewBox="0 0 45 45" style="enable-background:new 0 0 45 45;" xml:space="preserve">
<style type="text/css">
	.st0{fill:#FF0000;}
	.st1{fill:#FFFFFF;}
</style>
<g>
	<g>
		<path class="st0" d="M45,30.9c0,5.6,0,8.4-2.8,11.3C39.4,45,36.6,45,30.9,45H14.1c-5.6,0-8.4,0-11.3-2.8C0,39.4,0,36.6,0,30.9
			V14.1C0,8.4,0,5.6,2.8,2.8C5.6,0,8.4,0,14.1,0h16.9c5.6,0,8.4,0,11.3,2.8C45,5.6,45,8.4,45,14.1V30.9z"/>
		<g>
			<path class="st0" d="M21.9,22.4c0.2,0,0.3,0.1,0.3,0.3c0,0.2-0.1,0.3-0.3,0.3c-0.2,0-0.3-0.1-0.3-0.3
				C21.6,22.5,21.8,22.4,21.9,22.4z"/>
			<path class="st1" d="M21.9,22.7c-2.9-1.2-4.3-4.8-3.1-7.7c0.7-1.6,3.1-3.7,6.1-3c-1.2,0.6-1.9,1.4-1.2,2.5
				c0.8,1.2,0.4,3.1-1.2,3.9C21.4,19,20.3,21.2,21.9,22.7z"/>
			<g>
				<path class="st0" d="M21.9,22.8c-0.6-0.5-1.6-1-1.8-3l0,0c0-0.2,0-0.4,0-0.6l0,0c0-1.6,0.8-2.5,0.8-2.5l0,0l0,0c0,0,0.1,0,0.1,0
					l0,0c0,0,0,0.1,0,0.1l0,0c0,0-0.2,0.2-0.4,0.6l0,0c-0.2,0.4-0.4,1-0.4,1.8l0,0c0,0.2,0,0.4,0,0.6l0,0c0.2,1.9,1.1,2.4,1.8,2.9
					l0,0c0,0,0,0.1,0,0.1l0,0C22,22.8,22,22.8,21.9,22.8L21.9,22.8C21.9,22.8,21.9,22.8,21.9,22.8L21.9,22.8z"/>
				<polygon class="st0" points="21,14.9 21.5,15.4 22.1,15 21.8,15.6 22.3,16.1 21.7,16 21.4,16.6 21.2,16 20.6,15.9 21.2,15.6 
									"/>
			</g>
			<path class="st1" d="M21.9,22.7c0.2-3.1,3.3-5.5,6.4-5.3c1.7,0.1,4.5,1.8,4.7,4.9c-0.9-0.9-1.9-1.4-2.7-0.4
				c-0.9,1.2-2.8,1.4-4,0.1C25.3,21,22.9,20.6,21.9,22.7z"/>
			<g>
				<path class="st0" d="M21.9,22.7c0.3-0.7,0.5-1.8,2.3-2.7l0,0c0.2-0.1,0.4-0.2,0.6-0.2l0,0c1.5-0.5,2.6,0,2.6,0l0,0l0,0
					c0,0,0.1,0.1,0,0.1l0,0c0,0-0.1,0.1-0.1,0l0,0c0,0-0.3-0.1-0.7-0.2l0,0c-0.4-0.1-1.1,0-1.8,0.2l0,0c-0.2,0.1-0.4,0.1-0.6,0.2
					l0,0C22.5,21,22.3,22,22,22.7l0,0C22,22.8,21.9,22.8,21.9,22.7L21.9,22.7C21.9,22.8,21.9,22.7,21.9,22.7L21.9,22.7
					C21.9,22.7,21.9,22.7,21.9,22.7L21.9,22.7z"/>
				<polygon class="st0" points="29.1,19.4 28.8,20.1 29.3,20.5 28.6,20.4 28.4,21 28.2,20.4 27.6,20.3 28.1,20 28,19.3 28.5,19.8 
									"/>
			</g>
			<path class="st1" d="M21.9,22.7c3-0.7,6.3,1.4,7,4.4c0.4,1.7-0.3,4.8-3.2,6c0.6-1.1,0.8-2.2-0.5-2.7c-1.4-0.5-2.2-2.3-1.3-3.8
				C24.6,25.4,24.2,23,21.9,22.7z"/>
			<g>
				<path class="st0" d="M21.9,22.6c0.8,0,1.9-0.1,3.2,1.4l0,0c0.1,0.2,0.3,0.3,0.4,0.5l0,0c0.9,1.3,0.8,2.5,0.8,2.5l0,0l0,0
					c0,0,0,0.1-0.1,0.1l0,0c0,0-0.1,0-0.1-0.1l0,0c0,0,0-0.3-0.1-0.7l0,0c-0.1-0.4-0.3-1-0.7-1.7l0,0c-0.1-0.2-0.2-0.3-0.4-0.5l0,0
					c-1.3-1.4-2.3-1.3-3.1-1.3l0,0C21.9,22.8,21.9,22.7,21.9,22.6L21.9,22.6C21.9,22.7,21.9,22.7,21.9,22.6L21.9,22.6
					C21.9,22.6,21.9,22.6,21.9,22.6L21.9,22.6z"/>
				<polygon class="st0" points="27.2,28.5 26.6,28.4 26.3,29 26.1,28.4 25.5,28.3 26.1,28 25.9,27.3 26.4,27.8 27,27.4 26.7,28 
									"/>
			</g>
			<path class="st1" d="M21.9,22.7c1.6,2.6,0.6,6.4-2.1,8c-1.5,0.9-4.7,1.2-6.7-1.2c1.3,0.2,2.4,0,2.4-1.3c0.1-1.5,1.5-2.8,3.2-2.4
				C20.2,26,22.4,24.9,21.9,22.7z"/>
			<g>
				<path class="st0" d="M22,22.7c0.2,0.8,0.7,1.8-0.3,3.5l0,0c-0.1,0.2-0.2,0.4-0.3,0.5l0,0c-0.9,1.3-2.1,1.6-2.1,1.6l0,0l0,0
					c0,0-0.1,0-0.1-0.1l0,0c0,0,0-0.1,0.1-0.1l0,0c0,0,0.3-0.1,0.7-0.3l0,0c0.4-0.2,0.9-0.6,1.4-1.2l0,0c0.1-0.2,0.2-0.3,0.3-0.5
					l0,0c1-1.7,0.5-2.6,0.3-3.4l0,0C21.9,22.7,21.9,22.6,22,22.7L22,22.7C21.9,22.6,22,22.6,22,22.7L22,22.7
					C22,22.7,22,22.7,22,22.7L22,22.7z"/>
				<polygon class="st0" points="18,29.5 17.9,28.9 17.3,28.8 17.8,28.5 17.7,27.8 18.2,28.2 18.8,27.9 18.5,28.5 19,29 18.3,28.9 
									"/>
			</g>
			<path class="st1" d="M21.9,22.7c-2,2.4-5.9,2.5-8.2,0.5c-1.3-1.1-2.6-4.1-0.9-6.7c0.2,1.3,0.7,2.3,2,1.9c1.4-0.4,3.1,0.6,3.3,2.3
				C18.2,22.1,20,23.8,21.9,22.7z"/>
			<g>
				<path class="st0" d="M22,22.8c-0.7,0.4-1.5,1.2-3.4,0.8l0,0c-0.2,0-0.4-0.1-0.6-0.2l0,0c-1.5-0.5-2.1-1.5-2.1-1.5l0,0v0
					c0,0,0-0.1,0-0.1l0,0c0,0,0.1,0,0.1,0l0,0c0,0,0.1,0.2,0.5,0.6l0,0c0.3,0.3,0.9,0.7,1.6,0.9l0,0c0.2,0.1,0.4,0.1,0.6,0.2l0,0
					c1.9,0.4,2.6-0.3,3.3-0.8l0,0C21.9,22.6,22,22.6,22,22.8L22,22.8C22,22.7,22,22.7,22,22.8L22,22.8C22,22.7,22,22.7,22,22.8
					L22,22.8z"/>
				<polygon class="st0" points="14.3,21.1 14.8,20.8 14.7,20.1 15.2,20.6 15.8,20.2 15.5,20.8 16,21.3 15.3,21.2 15.1,21.8 
					14.9,21.2 				"/>
			</g>
		</g>
	</g>
</g>
</svg>
