<?xml version="1.0" encoding="utf-8"?>
<!-- Generator: Adobe Illustrator 22.1.0, SVG Export Plug-In . SVG Version: 6.00 Build 0)  -->
<svg version="1.1" id="Layer_1" xmlns="http://www.w3.org/2000/svg" xmlns:xlink="http://www.w3.org/1999/xlink" x="0px" y="0px"
	 viewBox="0 0 45 45" style="enable-background:new 0 0 45 45;" xml:space="preserve">
<style type="text/css">
	.st0{fill:#138808;}
	.st1{fill:#FF9933;}
	.st2{fill:#FFFFFF;}
	.st3{fill:#000066;}
</style>
<g>
	<g>
		<g>
			<path class="st0" d="M2.8,42.2C5.6,45,8.4,45,14.1,45h16.9c5.6,0,8.4,0,11.3-2.8S45,36.6,45,30.9H0C0,36.6,0,39.4,2.8,42.2z"/>
			<path class="st1" d="M42.2,2.8C39.4,0,36.6,0,30.9,0H14.1C8.4,0,5.6,0,2.8,2.8S0,8.4,0,14.1l0,0h45C45,8.4,45,5.6,42.2,2.8z"/>
			<rect y="14.1" class="st2" width="45" height="16.9"/>
		</g>
		<g>
			<path class="st3" d="M28.7,20.2c-0.2,0-0.3-0.1-0.4-0.2c0-0.2,0.1-0.3,0.2-0.4c0.2,0,0.3,0.1,0.4,0.2C29,20,28.9,20.2,28.7,20.2z
				"/>
			<path class="st3" d="M29.1,21.9c-0.2,0-0.3-0.1-0.3-0.3c0-0.2,0.1-0.3,0.3-0.3c0.2,0,0.3,0.1,0.3,0.3
				C29.4,21.8,29.3,21.9,29.1,21.9z"/>
			<path class="st3" d="M29,23.6c-0.2,0-0.3-0.2-0.2-0.4c0-0.2,0.2-0.3,0.4-0.2c0.2,0,0.3,0.2,0.2,0.4C29.4,23.6,29.2,23.7,29,23.6z
				"/>
			<path class="st3" d="M28.5,25.3c-0.2-0.1-0.2-0.3-0.1-0.4c0.1-0.1,0.3-0.2,0.4-0.1c0.1,0.1,0.2,0.3,0.1,0.4
				C28.9,25.3,28.7,25.4,28.5,25.3z"/>
			<path class="st3" d="M28.7,20.2c-0.2,0-0.3-0.1-0.4-0.2c0-0.2,0.1-0.3,0.2-0.4c0.2,0,0.3,0.1,0.4,0.2C29,20,28.9,20.2,28.7,20.2z
				"/>
			<path class="st3" d="M29.1,21.9c-0.2,0-0.3-0.1-0.3-0.3c0-0.2,0.1-0.3,0.3-0.3c0.2,0,0.3,0.1,0.3,0.3
				C29.4,21.8,29.3,21.9,29.1,21.9z"/>
			<path class="st3" d="M29,23.6c-0.2,0-0.3-0.2-0.2-0.4c0-0.2,0.2-0.3,0.4-0.2c0.2,0,0.3,0.2,0.2,0.4C29.4,23.6,29.2,23.7,29,23.6z
				"/>
			<path class="st3" d="M28.5,25.3c-0.2-0.1-0.2-0.3-0.1-0.4c0.1-0.1,0.3-0.2,0.4-0.1c0.1,0.1,0.2,0.3,0.1,0.4
				C28.9,25.3,28.7,25.4,28.5,25.3z"/>
			<g>
				<path class="st3" d="M21.9,15.9c0,0.2-0.1,0.3-0.3,0.3c-0.2,0-0.3-0.1-0.3-0.3c0-0.2,0.1-0.3,0.3-0.3
					C21.8,15.6,21.9,15.7,21.9,15.9z"/>
				<path class="st3" d="M23.6,16c0,0.2-0.2,0.3-0.4,0.2c-0.2,0-0.3-0.2-0.2-0.4c0-0.2,0.2-0.3,0.4-0.2C23.6,15.6,23.7,15.8,23.6,16
					z"/>
				<path class="st3" d="M25.3,16.5c-0.1,0.2-0.3,0.2-0.4,0.1c-0.2-0.1-0.2-0.3-0.1-0.4c0.1-0.2,0.3-0.2,0.4-0.1
					C25.3,16.1,25.4,16.3,25.3,16.5z"/>
				<path class="st3" d="M26.7,17.4c-0.1,0.1-0.3,0.1-0.4,0c-0.1-0.1-0.1-0.3,0-0.4c0.1-0.1,0.3-0.1,0.4,0
					C26.9,17.1,26.9,17.3,26.7,17.4z"/>
				<path class="st3" d="M27.9,18.7c-0.2,0.1-0.3,0-0.4-0.1c-0.1-0.2,0-0.3,0.1-0.4c0.2-0.1,0.3,0,0.4,0.1
					C28.1,18.4,28.1,18.6,27.9,18.7z"/>
				<path class="st3" d="M27.6,26.7c-0.1-0.1-0.1-0.3,0-0.4c0.1-0.1,0.3-0.1,0.4,0c0.1,0.1,0.1,0.3,0,0.4
					C27.9,26.9,27.7,26.9,27.6,26.7z"/>
				<path class="st3" d="M26.3,27.9c-0.1-0.2,0-0.3,0.1-0.4c0.1-0.1,0.3,0,0.4,0.1c0.1,0.1,0,0.3-0.1,0.4
					C26.6,28.1,26.4,28.1,26.3,27.9z"/>
				<path class="st3" d="M24.8,28.7c0-0.2,0.1-0.3,0.2-0.4c0.2,0,0.3,0.1,0.4,0.2c0,0.2-0.1,0.3-0.2,0.4C25,29,24.8,28.9,24.8,28.7z
					"/>
				<path class="st3" d="M23.1,29.1c0-0.2,0.1-0.3,0.3-0.3c0.2,0,0.3,0.1,0.3,0.3c0,0.2-0.1,0.3-0.3,0.3
					C23.2,29.4,23.1,29.3,23.1,29.1z"/>
				<path class="st3" d="M21.4,29c0-0.2,0.2-0.3,0.4-0.2c0.2,0,0.3,0.2,0.2,0.4c0,0.2-0.2,0.3-0.4,0.2C21.4,29.4,21.3,29.2,21.4,29z
					"/>
				<path class="st3" d="M19.7,28.5c0.1-0.2,0.3-0.2,0.4-0.1c0.2,0.1,0.2,0.3,0.1,0.4C20.2,29,20,29,19.8,28.9
					C19.7,28.9,19.6,28.7,19.7,28.5z"/>
				<path class="st3" d="M18.3,27.6c0.1-0.1,0.3-0.1,0.4,0c0.1,0.1,0.1,0.3,0,0.4c-0.1,0.1-0.3,0.1-0.4,0
					C18.1,27.9,18.1,27.7,18.3,27.6z"/>
				<path class="st3" d="M17.1,26.3c0.2-0.1,0.3,0,0.4,0.1c0.1,0.2,0,0.3-0.1,0.4c-0.2,0.1-0.3,0-0.4-0.1
					C16.9,26.6,16.9,26.4,17.1,26.3z"/>
				<path class="st3" d="M16.3,24.8c0.2,0,0.3,0.1,0.4,0.2c0,0.2-0.1,0.3-0.2,0.4c-0.2,0-0.3-0.1-0.4-0.2C16,25,16.1,24.8,16.3,24.8
					z"/>
				<path class="st3" d="M15.9,23.1c0.2,0,0.3,0.1,0.3,0.3c0,0.2-0.1,0.3-0.3,0.3c-0.2,0-0.3-0.1-0.3-0.3
					C15.6,23.2,15.7,23.1,15.9,23.1z"/>
				<path class="st3" d="M16,21.4c0.2,0,0.3,0.2,0.2,0.4c0,0.2-0.2,0.3-0.4,0.2c-0.2,0-0.3-0.2-0.2-0.4C15.6,21.4,15.8,21.3,16,21.4
					z"/>
				<path class="st3" d="M16.5,19.7c0.2,0.1,0.2,0.3,0.1,0.4c-0.1,0.2-0.3,0.2-0.4,0.1C16,20.2,16,20,16.1,19.8
					C16.1,19.7,16.3,19.6,16.5,19.7z"/>
				<path class="st3" d="M17.4,18.3c0.1,0.1,0.1,0.3,0,0.4c-0.1,0.1-0.3,0.1-0.4,0c-0.1-0.1-0.1-0.3,0-0.4
					C17.1,18.1,17.3,18.1,17.4,18.3z"/>
				<path class="st3" d="M18.7,17.1c0.1,0.2,0,0.3-0.1,0.4c-0.2,0.1-0.3,0-0.4-0.1c-0.1-0.2,0-0.3,0.1-0.4
					C18.4,16.9,18.6,16.9,18.7,17.1z"/>
				<path class="st3" d="M20.2,16.3c0,0.2-0.1,0.3-0.2,0.4c-0.2,0-0.3-0.1-0.4-0.2c0-0.2,0.1-0.3,0.2-0.4C20,16,20.2,16.1,20.2,16.3
					z"/>
				<g>
					<polygon class="st3" points="22.4,22.5 22.5,19.8 22.3,15.9 22.2,19.8 					"/>
					<polygon class="st3" points="22.4,22.5 23.2,20 24.1,16.1 22.8,19.9 					"/>
					<polygon class="st3" points="22.4,22.5 23.8,20.3 25.6,16.8 23.5,20.1 					"/>
					<polygon class="st3" points="22.4,22.5 24.4,20.7 27,17.8 24.1,20.5 					"/>
					<polygon class="st3" points="22.4,22.5 24.7,21.3 28.1,19.2 24.5,21 					"/>
					<polygon class="st3" points="22.4,22.5 25,22 28.7,20.8 24.9,21.6 					"/>
					<polygon class="st3" points="22.4,22.5 25,22.7 29,22.5 25,22.3 					"/>
					<polygon class="st3" points="22.4,22.5 24.9,23.3 28.7,24.2 25,23 					"/>
					<polygon class="st3" points="22.4,22.5 24.6,24 28.1,25.8 24.7,23.6 					"/>
					<polygon class="st3" points="22.4,22.5 24.1,24.5 27,27.1 24.4,24.2 					"/>
					<polygon class="st3" points="22.4,22.5 23.5,24.9 25.7,28.2 23.9,24.7 					"/>
					<polygon class="st3" points="22.4,22.5 22.9,25.1 24.1,28.9 23.2,25 					"/>
					<polygon class="st3" points="22.4,22.5 22.2,25.1 22.4,29.1 22.6,25.1 					"/>
					<polygon class="st3" points="22.4,22.5 21.5,25 20.7,28.9 21.9,25.1 					"/>
					<polygon class="st3" points="22.4,22.5 20.9,24.7 19.1,28.2 21.2,24.9 					"/>
					<polygon class="st3" points="22.4,22.5 20.4,24.2 17.7,27.2 20.6,24.5 					"/>
					<polygon class="st3" points="22.4,22.5 20,23.6 16.6,25.8 20.2,24 					"/>
					<polygon class="st3" points="22.4,22.5 19.8,23 16,24.2 19.9,23.4 					"/>
					<polygon class="st3" points="22.4,22.5 19.7,22.3 15.8,22.5 19.7,22.7 					"/>
					<polygon class="st3" points="22.4,22.5 19.9,21.6 16,20.8 19.8,22 					"/>
					<polygon class="st3" points="22.4,22.5 20.2,21 16.6,19.2 20,21.3 					"/>
					<polygon class="st3" points="22.4,22.5 20.6,20.5 17.7,17.8 20.4,20.8 					"/>
					<polygon class="st3" points="22.4,22.5 21.2,20.1 19,16.8 20.9,20.3 					"/>
					<polygon class="st3" points="22.4,22.5 21.9,19.9 20.6,16.1 21.5,20 					"/>
				</g>
				<g>
					<path class="st3" d="M24.4,15.3c-4-1.1-8.1,1.3-9.2,5.3c-1.1,4,1.3,8.1,5.3,9.2c4,1.1,8.1-1.3,9.2-5.3
						C30.8,20.4,28.4,16.3,24.4,15.3z M20.8,28.9c-3.5-1-5.6-4.6-4.7-8.1c1-3.5,4.6-5.6,8.1-4.7c3.5,0.9,5.6,4.6,4.7,8.1
						C28,27.8,24.3,29.9,20.8,28.9z"/>
					<path class="st3" d="M23.8,22.8c-0.2,0.7-0.9,1.1-1.6,0.9c-0.7-0.2-1.1-0.9-0.9-1.6c0.2-0.7,0.9-1.1,1.6-0.9
						C23.6,21.4,24,22.1,23.8,22.8z"/>
				</g>
				<path class="st3" d="M25.3,16.5c-0.1,0.2-0.3,0.2-0.4,0.1c-0.2-0.1-0.2-0.3-0.1-0.4c0.1-0.2,0.3-0.2,0.4-0.1
					C25.3,16.1,25.4,16.3,25.3,16.5z"/>
				<path class="st3" d="M26.7,17.4c-0.1,0.1-0.3,0.1-0.4,0c-0.1-0.1-0.1-0.3,0-0.4c0.1-0.1,0.3-0.1,0.4,0
					C26.9,17.1,26.9,17.3,26.7,17.4z"/>
				<path class="st3" d="M27.9,18.7c-0.2,0.1-0.3,0-0.4-0.1c-0.1-0.2,0-0.3,0.1-0.4c0.2-0.1,0.3,0,0.4,0.1
					C28.1,18.4,28.1,18.6,27.9,18.7z"/>
				<path class="st3" d="M27.6,26.7c-0.1-0.1-0.1-0.3,0-0.4c0.1-0.1,0.3-0.1,0.4,0c0.1,0.1,0.1,0.3,0,0.4
					C27.9,26.9,27.7,26.9,27.6,26.7z"/>
				<path class="st3" d="M26.3,27.9c-0.1-0.2,0-0.3,0.1-0.4c0.1-0.1,0.3,0,0.4,0.1c0.1,0.1,0,0.3-0.1,0.4
					C26.6,28.1,26.4,28.1,26.3,27.9z"/>
				<path class="st3" d="M24.8,28.7c0-0.2,0.1-0.3,0.2-0.4c0.2,0,0.3,0.1,0.4,0.2c0,0.2-0.1,0.3-0.2,0.4C25,29,24.8,28.9,24.8,28.7z
					"/>
				<path class="st3" d="M23.1,29.1c0-0.2,0.1-0.3,0.3-0.3c0.2,0,0.3,0.1,0.3,0.3c0,0.2-0.1,0.3-0.3,0.3
					C23.2,29.4,23.1,29.3,23.1,29.1z"/>
				<path class="st3" d="M21.4,29c0-0.2,0.2-0.3,0.4-0.2c0.2,0,0.3,0.2,0.2,0.4c0,0.2-0.2,0.3-0.4,0.2C21.4,29.4,21.3,29.2,21.4,29z
					"/>
				<path class="st3" d="M19.7,28.5c0.1-0.2,0.3-0.2,0.4-0.1c0.2,0.1,0.2,0.3,0.1,0.4C20.2,29,20,29,19.8,28.9
					C19.7,28.9,19.6,28.7,19.7,28.5z"/>
				<path class="st3" d="M18.3,27.6c0.1-0.1,0.3-0.1,0.4,0c0.1,0.1,0.1,0.3,0,0.4c-0.1,0.1-0.3,0.1-0.4,0
					C18.1,27.9,18.1,27.7,18.3,27.6z"/>
				<path class="st3" d="M17.1,26.3c0.2-0.1,0.3,0,0.4,0.1c0.1,0.2,0,0.3-0.1,0.4c-0.2,0.1-0.3,0-0.4-0.1
					C16.9,26.6,16.9,26.4,17.1,26.3z"/>
				<path class="st3" d="M16.3,24.8c0.2,0,0.3,0.1,0.4,0.2c0,0.2-0.1,0.3-0.2,0.4c-0.2,0-0.3-0.1-0.4-0.2C16,25,16.1,24.8,16.3,24.8
					z"/>
				<path class="st3" d="M15.9,23.1c0.2,0,0.3,0.1,0.3,0.3c0,0.2-0.1,0.3-0.3,0.3c-0.2,0-0.3-0.1-0.3-0.3
					C15.6,23.2,15.7,23.1,15.9,23.1z"/>
				<path class="st3" d="M16,21.4c0.2,0,0.3,0.2,0.2,0.4c0,0.2-0.2,0.3-0.4,0.2c-0.2,0-0.3-0.2-0.2-0.4C15.6,21.4,15.8,21.3,16,21.4
					z"/>
				<path class="st3" d="M16.5,19.7c0.2,0.1,0.2,0.3,0.1,0.4c-0.1,0.2-0.3,0.2-0.4,0.1C16,20.2,16,20,16.1,19.8
					C16.1,19.7,16.3,19.6,16.5,19.7z"/>
				<path class="st3" d="M17.4,18.3c0.1,0.1,0.1,0.3,0,0.4c-0.1,0.1-0.3,0.1-0.4,0c-0.1-0.1-0.1-0.3,0-0.4
					C17.1,18.1,17.3,18.1,17.4,18.3z"/>
				<path class="st3" d="M18.7,17.1c0.1,0.2,0,0.3-0.1,0.4c-0.2,0.1-0.3,0-0.4-0.1c-0.1-0.2,0-0.3,0.1-0.4
					C18.4,16.9,18.6,16.9,18.7,17.1z"/>
				<path class="st3" d="M20.2,16.3c0,0.2-0.1,0.3-0.2,0.4c-0.2,0-0.3-0.1-0.4-0.2c0-0.2,0.1-0.3,0.2-0.4C20,16,20.2,16.1,20.2,16.3
					z"/>
				<path class="st3" d="M21.9,15.9c0,0.2-0.1,0.3-0.3,0.3c-0.2,0-0.3-0.1-0.3-0.3c0-0.2,0.1-0.3,0.3-0.3
					C21.8,15.6,21.9,15.7,21.9,15.9z"/>
			</g>
		</g>
	</g>
</g>
</svg>
