<?xml version="1.0" encoding="utf-8"?>
<!-- Generator: Adobe Illustrator 22.1.0, SVG Export Plug-In . SVG Version: 6.00 Build 0)  -->
<svg version="1.1" id="Layer_1" xmlns="http://www.w3.org/2000/svg" xmlns:xlink="http://www.w3.org/1999/xlink" x="0px" y="0px"
	 viewBox="0 0 45 45" style="enable-background:new 0 0 45 45;" xml:space="preserve">
<style type="text/css">
	.st0{fill:#E30A17;}
	.st1{fill:#FFFFFF;}
	.st2{fill:#FFB600;}
</style>
<g>
	<g>
		<g>
			<path class="st0" d="M45,30.9c0,5.6,0,8.4-2.8,11.3C39.4,45,36.6,45,30.9,45H14.1c-5.6,0-8.4,0-11.3-2.8C0,39.4,0,36.6,0,30.9
				V14.1C0,8.4,0,5.6,2.8,2.8C5.6,0,8.4,0,14.1,0h16.9c5.6,0,8.4,0,11.3,2.8C45,5.6,45,8.4,45,14.1V30.9z"/>
		</g>
	</g>
</g>
<g>
	<path class="st1" d="M26.6,29.8c-0.3-0.1-0.5-0.2-0.7-0.3c-0.1-0.1-0.2-0.2-0.3-0.3c-0.1-0.2-0.2-0.4-0.3-0.6c0,0-0.1-0.1-0.1-0.1
		c0,0-0.1,0.1-0.1,0.1c-0.1,0.1-0.1,0.3-0.2,0.5c-0.1,0.2-0.1,0.2-0.3,0.2c-0.1,0-0.2-0.1-0.4-0.1c-0.1,0-0.2,0-0.2,0
		c0,0.1,0,0.2,0.1,0.2c0.1,0.2,0.3,0.3,0.4,0.5c0,0.1,0,0.2,0,0.3c-0.1,0-0.2,0-0.2,0c-0.5-0.2-0.8-0.6-1.1-1
		c-0.1-0.2-0.2-0.4-0.3-0.5c-0.5-0.7-0.9-1.4-1.5-2.1c-0.5-0.7-1.2-1.3-2-1.6c-0.2-0.1-0.2-0.2,0-0.3c0.3-0.2,0.5-0.3,0.8-0.5
		c0.8-0.5,1.6-1,2.3-1.5c0.4-0.3,0.8-0.3,1.3-0.1c0.8,0.3,1.6,0.5,2.4,0.7c0.6,0.1,1.2,0.3,1.9,0.3c0.5,0,1,0.1,1.5,0.3
		c0.6,0.2,1.1,0.2,1.6-0.2c0.3-0.2,0.5-0.5,0.7-0.8c0.3-0.4,0.3-0.8,0.1-1.3c-0.1-0.3-0.1-0.5,0-0.8c0.1-0.2,0.2-0.5,0.3-0.7
		c0.4-1.3,0.6-2.7,0.6-4c0-0.5,0.1-0.9,0.5-1.2c0.3-0.2,0.5-0.3,0.8-0.4c0.8-0.2,1.6-0.4,2.5-0.6c0.2,0,0.3-0.1,0.4-0.2
		c0.3-0.2,0.2-0.6-0.1-0.7c-0.3-0.1-0.5-0.2-0.8-0.3c-0.6-0.1-1.1,0-1.7,0.1c-0.2,0-0.5,0-0.7,0c-0.2,0-0.4,0-0.6-0.1
		c-0.2,0-0.4,0-0.5-0.1c-0.3-0.2-0.6-0.2-0.9-0.1c-0.1,0-0.2,0-0.2,0c0,0,0-0.1,0-0.2c0-0.1,0.1-0.3,0.1-0.4c0-0.1,0-0.2,0-0.2
		c-0.1,0-0.2,0-0.2,0.1c-0.1,0.1-0.2,0.2-0.3,0.2c-0.2,0.1-0.3,0.2-0.5,0.1c-0.1-0.1-0.2-0.1-0.3-0.1c-0.1-0.1-0.2,0-0.2,0.1
		c0,0.2,0.1,0.3,0.1,0.5c0,0.1,0,0.3-0.1,0.4c-0.1,0.2-0.3,0.4-0.4,0.5c0,0-0.1,0.1,0,0.2c0,0,0.1,0.1,0.2,0.1c0.2,0,0.3,0,0.5-0.1
		c0.2,0,0.3,0,0.3,0.2c0,0.1,0.1,0.3,0.1,0.4c0,0,0.1,0.1,0.1,0.1c0,0,0.1-0.1,0.1-0.1c0.1-0.2,0.2-0.4,0.2-0.6
		c0-0.1,0.1-0.2,0.1-0.2c0.1-0.1,0.2-0.1,0.2,0.1c0,0.2,0,0.4,0,0.6c-0.1,0.4-0.3,0.8-0.5,1.2c-0.5,0.8-0.9,1.7-1.3,2.7
		c-0.3,0.7-0.5,1.5-0.4,2.3c0,0.1,0,0.2,0,0.2c-0.1,0-0.2,0-0.2,0c-0.2-0.1-0.4-0.2-0.6-0.4c-1-0.5-2-1.1-3-1.6
		c-0.1,0-0.1-0.1-0.1-0.1c-0.1-0.3-0.3-0.6-0.4-0.9c-0.4-1-0.7-2.1-1.1-3.1c0-0.1-0.1-0.3-0.2-0.4c-0.4-0.6-0.7-1.2-0.9-1.9
		c-0.1-0.5-0.4-0.9-0.9-1.1c-0.4-0.2-0.9-0.2-1.4-0.2c-0.4,0-0.8,0.2-1,0.6c-0.2,0.2-0.4,0.4-0.7,0.4c-0.2,0-0.3,0.1-0.5,0.1
		c-1.4,0.4-2.7,1-3.9,1.8c-0.3,0.2-0.5,0.3-0.8,0.3c-0.4,0-0.8-0.2-1.2-0.4c-0.6-0.6-1.3-1.1-1.9-1.7c-0.1-0.1-0.3-0.2-0.5-0.3
		c-0.3-0.2-0.7,0.1-0.6,0.4c0.1,0.4,0.1,0.8,0.3,1.1c0.3,0.5,0.7,0.8,1,1.3c0.1,0.1,0.2,0.2,0.2,0.3c0.2,0.3,0.3,0.6,0.5,0.9
		c0.1,0.1,0.1,0.2,0.1,0.4c0,0.3,0.2,0.6,0.4,0.8c0,0,0.1,0.1,0.1,0.1c0,0-0.1,0.1-0.1,0.1c-0.1,0.1-0.3,0.1-0.4,0.2
		c-0.1,0-0.1,0.1-0.2,0.1c0.1,0,0.1,0.1,0.2,0.1c0,0,0.1,0,0.1,0c0.4,0.1,0.7,0.3,0.7,0.8c0,0,0,0,0,0c0,0.1,0.1,0.2,0.2,0.1
		c0.1-0.1,0.2-0.2,0.4-0.3c0.1-0.1,0.3-0.1,0.4-0.1c0.2,0,0.3,0,0.5,0c0.1,0,0.3,0,0.4-0.1c-0.1-0.1-0.1-0.2-0.2-0.3c0,0,0,0,0,0
		c-0.3-0.4-0.4-0.3,0-0.7c0,0,0,0,0,0c0-0.1,0.1-0.2,0.1-0.3c-0.1,0-0.2,0-0.3,0c-0.2,0-0.4,0.1-0.6,0.1c-0.1,0-0.1,0-0.2-0.1
		c0,0,0-0.1,0-0.1c0.1-0.1,0.3-0.3,0.4-0.3c0.3-0.1,0.5-0.2,0.8-0.3c0.1,0,0.2,0,0.3,0c0.4,0,0.7,0,1.1,0c0.7-0.1,1.4-0.2,2.1-0.3
		c0.7-0.1,1.3-0.3,1.9-0.7c0.2-0.1,0.3-0.3,0.5-0.4c0,0,0.1-0.1,0.2-0.1c0,0,0.1,0.1,0.1,0.2c0,0.2,0,0.4,0,0.5
		c0,0.6,0.1,1.1,0.1,1.7c0.1,0.6,0.1,1.2,0.2,1.8c0,0.2,0,0.4-0.2,0.5c-0.1,0.1-0.2,0.2-0.3,0.3c-0.5,0.5-0.9,0.9-1.4,1.4
		c-0.5,0.6-1,1.1-1.4,1.8c0,0.1-0.1,0.1-0.1,0.2c-0.3,0.4-0.6,0.7-1,1.1c-0.6,0.6-0.6,1.5-0.2,2.2c0.3,0.5,0.6,0.9,1.2,0.9
		c0.2,0,0.4,0.2,0.6,0.4c0.3,0.4,0.6,0.7,0.9,1c0.4,0.4,0.8,0.7,1.2,1c0.5,0.3,0.9,0.7,1.4,1c0.2,0.1,0.4,0.3,0.6,0.4
		c0.1,0.1,0.3,0.2,0.3,0.4c0.2,0.4,0.2,0.8,0.1,1.2c-0.2,0.9-0.5,1.7-0.7,2.6c0,0.1-0.1,0.3,0,0.5c0,0.3,0.4,0.5,0.6,0.3
		c0.3-0.3,0.7-0.5,0.9-0.8c0.3-0.4,0.4-1,0.6-1.4c0-0.1,0.1-0.2,0.1-0.3c0.2-0.3,0.5-0.6,0.7-1c0-0.1,0.1-0.1,0.2-0.1
		c0.3-0.1,0.5-0.4,0.5-0.7c0-0.1,0.1-0.2,0.1-0.2c0.1,0,0.2,0,0.2,0.1c0.1,0.1,0.2,0.2,0.3,0.3c0,0,0.1,0.1,0.1,0
		c0,0,0.1-0.1,0.1-0.1c0-0.2,0-0.3-0.1-0.5c0-0.2,0-0.3,0.1-0.4C26.3,30,26.4,29.9,26.6,29.8z"/>
	<path d="M26.6,29.8c-0.2,0.1-0.3,0.3-0.4,0.4C26,30.3,26,30.4,26,30.6c0,0.2,0.1,0.3,0.1,0.5c0,0,0,0.1-0.1,0.1c0,0-0.1,0-0.1,0
		c-0.1-0.1-0.2-0.2-0.3-0.3c-0.1-0.1-0.2-0.1-0.2-0.1c0,0-0.1,0.1-0.1,0.2c-0.1,0.3-0.2,0.6-0.5,0.7c-0.1,0-0.1,0.1-0.2,0.1
		c-0.2,0.3-0.5,0.6-0.7,1c-0.1,0.1-0.1,0.2-0.1,0.3c-0.2,0.5-0.3,1-0.6,1.4c-0.2,0.3-0.5,0.6-0.9,0.8c-0.2,0.2-0.6,0-0.6-0.3
		c0-0.2,0-0.3,0-0.5c0.2-0.9,0.5-1.7,0.7-2.6c0.1-0.4,0.1-0.8-0.1-1.2c-0.1-0.1-0.2-0.3-0.3-0.4c-0.2-0.2-0.4-0.3-0.6-0.4
		c-0.5-0.3-0.9-0.6-1.4-1c-0.4-0.3-0.8-0.6-1.2-1c-0.3-0.3-0.6-0.6-0.9-1c-0.2-0.2-0.4-0.4-0.6-0.4c-0.6-0.1-0.9-0.5-1.2-0.9
		c-0.5-0.8-0.4-1.6,0.2-2.2c0.3-0.4,0.6-0.7,1-1.1c0-0.1,0.1-0.1,0.1-0.2c0.3-0.7,0.9-1.2,1.4-1.8c0.4-0.5,0.9-0.9,1.4-1.4
		c0.1-0.1,0.2-0.2,0.3-0.3c0.2-0.1,0.3-0.3,0.2-0.5c-0.1-0.6-0.1-1.2-0.2-1.8c-0.1-0.6-0.1-1.1-0.1-1.7c0-0.2,0-0.4,0-0.5
		c0-0.1,0-0.1-0.1-0.2c0,0-0.1,0-0.2,0.1c-0.2,0.1-0.3,0.3-0.5,0.4c-0.6,0.4-1.2,0.5-1.9,0.7c-0.7,0.1-1.4,0.2-2.1,0.3
		c-0.4,0-0.7,0-1.1,0c-0.1,0-0.2,0-0.3,0c-0.3,0.1-0.5,0.1-0.8,0.3c-0.2,0.1-0.3,0.2-0.4,0.3c0,0,0,0.1,0,0.1c0.1,0,0.1,0.1,0.2,0.1
		c0.2,0,0.4-0.1,0.6-0.1c0.1,0,0.2,0,0.3,0c0,0.1-0.1,0.2-0.1,0.3c0,0,0,0,0,0c-0.3,0.4-0.3,0.3,0,0.7c0,0,0,0,0,0
		c0.1,0.1,0.1,0.2,0.2,0.3c-0.1,0-0.3,0.1-0.4,0.1c-0.2,0-0.3-0.1-0.5,0c-0.1,0-0.3,0.1-0.4,0.1c-0.1,0.1-0.3,0.2-0.4,0.3
		c-0.1,0.1-0.2,0.1-0.2-0.1c0,0,0,0,0,0c0-0.5-0.3-0.7-0.7-0.8c0,0-0.1,0-0.1,0c-0.1,0-0.1-0.1-0.2-0.1c0.1,0,0.1-0.1,0.2-0.1
		c0.1-0.1,0.3-0.1,0.4-0.2c0,0,0.1-0.1,0.1-0.1c0,0-0.1-0.1-0.1-0.1c-0.3-0.2-0.4-0.4-0.4-0.8c0-0.1,0-0.3-0.1-0.4
		c-0.1-0.3-0.3-0.6-0.5-0.9c-0.1-0.1-0.1-0.2-0.2-0.3c-0.3-0.4-0.7-0.8-1-1.3c-0.2-0.3-0.3-0.7-0.3-1.1c-0.1-0.3,0.3-0.6,0.6-0.4
		c0.2,0.1,0.3,0.2,0.5,0.3c0.6,0.6,1.3,1.2,1.9,1.7c0.3,0.3,0.7,0.5,1.2,0.4c0.3,0,0.6-0.2,0.8-0.3c1.2-0.7,2.5-1.4,3.9-1.8
		c0.2,0,0.3-0.1,0.5-0.1c0.3,0,0.5-0.2,0.7-0.4c0.3-0.4,0.6-0.6,1-0.6c0.5,0,0.9,0,1.4,0.2c0.5,0.2,0.8,0.6,0.9,1.1
		c0.2,0.7,0.5,1.3,0.9,1.9c0.1,0.1,0.1,0.2,0.2,0.4c0.4,1,0.7,2.1,1.1,3.1c0.1,0.3,0.3,0.6,0.4,0.9c0,0,0.1,0.1,0.1,0.1
		c1,0.5,2,1,3,1.6c0.2,0.1,0.4,0.2,0.6,0.4c0.1,0,0.2,0,0.2,0c0-0.1,0-0.2,0-0.2c-0.2-0.8,0.1-1.6,0.4-2.3c0.3-0.9,0.7-1.8,1.3-2.7
		c0.3-0.4,0.4-0.8,0.5-1.2c0-0.2,0-0.4,0-0.6c0-0.1-0.1-0.2-0.2-0.1c-0.1,0.1-0.1,0.1-0.1,0.2c-0.1,0.2-0.2,0.4-0.2,0.6
		c0,0-0.1,0.1-0.1,0.1c0,0-0.1-0.1-0.1-0.1c-0.1-0.1-0.1-0.3-0.1-0.4c0-0.2-0.1-0.2-0.3-0.2c-0.2,0-0.3,0-0.5,0.1
		c-0.1,0-0.1,0-0.2-0.1c0,0,0-0.1,0-0.2c0.1-0.2,0.3-0.3,0.4-0.5c0.1-0.1,0.1-0.3,0.1-0.4c0-0.2,0-0.3-0.1-0.5c0-0.1,0-0.2,0.2-0.1
		c0.1,0,0.2,0.1,0.3,0.1c0.2,0.1,0.4,0.1,0.5-0.1c0.1-0.1,0.2-0.2,0.3-0.2c0.1,0,0.1-0.1,0.2-0.1c0,0.1,0,0.2,0,0.2
		c0,0.1-0.1,0.3-0.1,0.4c0,0.1,0,0.2,0,0.2c0,0,0.1,0,0.2,0c0.3-0.1,0.6-0.1,0.9,0.1c0.1,0.1,0.3,0.1,0.5,0.1c0.2,0,0.4,0.1,0.6,0.1
		c0.2,0,0.5,0,0.7,0c0.6-0.1,1.1-0.2,1.7-0.1c0.3,0.1,0.6,0.2,0.8,0.3c0.3,0.1,0.3,0.5,0.1,0.7c-0.1,0.1-0.3,0.2-0.4,0.2
		c-0.8,0.2-1.6,0.4-2.5,0.6c-0.3,0.1-0.6,0.2-0.8,0.4C33,14.8,33,15.3,33,15.8c0,1.4-0.2,2.7-0.6,4c-0.1,0.2-0.2,0.5-0.3,0.7
		c-0.1,0.3-0.1,0.5,0,0.8c0.2,0.5,0.1,0.9-0.1,1.3c-0.2,0.3-0.4,0.6-0.7,0.8c-0.5,0.4-1.1,0.4-1.6,0.2c-0.5-0.2-1-0.3-1.5-0.3
		c-0.6,0-1.3-0.1-1.9-0.3c-0.8-0.2-1.6-0.4-2.4-0.7c-0.5-0.2-0.8-0.2-1.3,0.1c-0.7,0.5-1.5,1-2.3,1.5c-0.3,0.2-0.5,0.3-0.8,0.5
		c-0.2,0.1-0.2,0.2,0,0.3c0.9,0.3,1.5,0.9,2,1.6c0.5,0.7,1,1.4,1.5,2.1c0.1,0.2,0.2,0.4,0.3,0.5c0.3,0.4,0.6,0.8,1.1,1
		c0.1,0,0.1,0,0.2,0c0-0.1,0-0.2,0-0.3c-0.1-0.2-0.3-0.4-0.4-0.5c0-0.1-0.1-0.1-0.1-0.2c0.1,0,0.2,0,0.2,0c0.1,0,0.2,0,0.4,0.1
		c0.2,0.1,0.3,0,0.3-0.2c0.1-0.2,0.1-0.3,0.2-0.5c0,0,0.1-0.1,0.1-0.1c0,0,0.1,0.1,0.1,0.1c0.1,0.2,0.2,0.4,0.3,0.6
		c0.1,0.1,0.2,0.2,0.3,0.3C26.1,29.6,26.3,29.7,26.6,29.8z M22.6,12.2c-0.4,0.2-0.8,0.5-1.1,0.7c-0.2,0.2-0.4,0.4-0.4,0.7
		c0,0.2,0.1,0.5,0.1,0.7c0.5,1.3,0.8,2.6,0.6,4c0,0.4,0,0.4,0.3,0.5c0.1,0,0.3,0.1,0.4,0.1c0.3,0.1,0.5,0,0.7-0.1
		c0.4-0.4,0.9-0.7,1.3-1c0.2-0.1,0.2-0.3,0.2-0.5c-0.3-0.8-0.5-1.5-0.8-2.3c-0.2-0.6-0.4-1.1-0.8-1.6C23,13,22.8,12.6,22.6,12.2
		C22.7,12.2,22.6,12.2,22.6,12.2z M29.5,23.4c0-0.4,0-0.8,0-1.2c0-0.5-0.3-0.9-0.8-1c-0.5-0.1-1-0.2-1.5-0.3
		C26,20.6,25,20.1,24,19.4c0,0-0.1-0.1-0.2-0.1c-0.2,0-0.4,0.4-0.4,0.6c0,0.3,0,0.6,0,0.9c0.1,0.4,0.1,0.9,0.3,1.3
		c0,0.1,0.2,0.2,0.3,0.3c0.3,0.1,0.5,0.2,0.8,0.2c1.1,0.3,2.2,0.7,3.4,0.6c0,0,0.1,0,0.1,0C28.7,23.3,29.1,23.3,29.5,23.4z
		 M16.6,23.4c0.1,0,0.2,0,0.2,0.1c0.2,0.1,0.4,0.2,0.5,0.3c0.2,0.1,0.4,0.2,0.6,0.3c0.4,0.1,0.6,0.1,0.8-0.3
		c0.1-0.1,0.2-0.2,0.3-0.4c0.8-1.2,1.9-2.1,3.2-2.8c0.3-0.2,0.5-0.3,0.4-0.7c0-0.2-0.1-0.3-0.3-0.3c-0.4-0.2-0.8-0.4-1.3-0.6
		c-0.6-0.3-0.6-0.3-1.1,0.2c-0.4,0.4-0.7,0.7-1.1,1.1c-0.5,0.6-1.1,1.2-1.5,1.9C17.2,22.6,16.9,23,16.6,23.4z M16,14.2
		C16,14.2,16,14.2,16,14.2c0.3,0,0.6,0,0.9,0c0.4-0.1,0.8-0.2,1.2-0.3c0.1,0,0.1-0.1,0.1-0.2c0-0.5-0.1-1-0.4-1.5
		c-0.1-0.1-0.2-0.2-0.4-0.1c-1,0.4-2,0.9-2.9,1.4c-0.5,0.3-0.9,0.5-1.5,0.3c0,0-0.1,0-0.2,0c-0.2,0.3-0.3,0.6-0.2,1
		c0.1,0.4,0.3,0.5,0.6,0.3c0.4-0.2,0.7-0.4,1.1-0.6c0.3-0.2,0.7-0.4,1.1-0.3C15.6,14.2,15.8,14.2,16,14.2z M22.7,31.3
		c0.4,0,0.7-0.1,1-0.4c0.2-0.1,0.2-0.3,0.1-0.4c-0.1-0.1-0.1-0.1-0.2-0.2c-0.4-0.3-0.8-0.5-1.2-0.7c-0.2-0.1-0.4-0.3-0.6-0.6
		c-0.2-0.5-0.4-0.9-0.7-1.4c-0.2-0.4-0.5-0.8-0.8-1c-0.1,0-0.2-0.1-0.3,0c-0.5,0.2-0.9,0.6-1.2,1.1c-0.1,0.1,0,0.2,0.1,0.3
		c0.1,0.1,0.3,0.3,0.4,0.4c0.7,0.5,1.4,1,2.1,1.5c0.5,0.3,1,0.6,1.1,1.3C22.5,31.2,22.7,31.2,22.7,31.3z M31.9,19.3
		c0.4,0,0.4,0,0.4-0.2c0.2-1.1,0.4-2.2,0.4-3.4c0-0.5,0.1-0.9,0.5-1.3c0,0,0.1-0.1,0-0.2c-0.1-0.3-0.4-0.6-0.7-0.7
		c-0.4-0.2-0.6,0-0.6,0.4c0,0.4,0,0.8,0,1.2c0,0.5-0.1,0.9-0.5,1.3c-0.2,0.3-0.5,0.6-0.7,1c-0.2,0.4-0.4,0.7-0.4,1.2
		c0,0.1,0.1,0.2,0.1,0.3C31.1,19.1,31.5,19.3,31.9,19.3z M19.3,24.5c0.1,0,0.1-0.1,0.2-0.2c1.1-0.7,2.3-1.4,3.4-2.2
		c0.1-0.1,0.1-0.1,0.1-0.3c-0.1-0.4-0.2-0.8-0.3-1.2c0-0.1,0-0.2-0.1-0.2c-0.1,0-0.1,0-0.2,0.1c-1.5,0.8-2.7,1.9-3.6,3.3
		c0,0,0,0.1,0,0.2C19,24.2,19.1,24.4,19.3,24.5z M29.2,20.5c-0.1-0.1-0.2-0.1-0.3-0.2c-1.2-0.6-2.4-1.3-3.7-1.9c-0.1,0-0.2,0-0.2,0
		c-0.3,0.2-0.6,0.5-0.9,0.7c-0.1,0.1-0.1,0.1,0,0.2c0.2,0.1,0.3,0.2,0.5,0.3c1.3,0.8,2.7,1.3,4.2,1.4c0.1,0,0.2-0.1,0.2-0.1
		C29.1,20.8,29.2,20.6,29.2,20.5z M21.8,17.6c0-0.4-0.1-0.9-0.1-1.3c-0.1-0.7-0.3-1.4-0.6-2c-0.2-0.4-0.2-0.4-0.5-0.3
		c0,0-0.1,0-0.1,0c-0.1,0-0.2,0-0.1,0.2c0.1,0.8,0.1,1.5,0.2,2.3c0,0.5,0.1,1.1,0.2,1.6c0,0.1,0.1,0.2,0.1,0.2
		c0.2,0.1,0.5,0.2,0.7,0.3c0.1,0,0.2,0,0.2-0.1C21.8,18.1,21.8,17.9,21.8,17.6z M23.5,22.1c-0.1-0.3-0.1-0.5-0.2-0.8
		c0-0.6,0-1.1-0.1-1.7c0-0.1,0-0.1,0.1-0.2c0.1-0.1,0.2-0.2,0.3-0.3c0.4-0.3,0.8-0.7,1.3-1c0.1-0.1,0.1-0.1,0.1-0.2
		c0-0.1-0.1-0.2-0.1-0.3c-0.1,0.1-0.1,0.1-0.2,0.1c-0.5,0.4-1,0.8-1.5,1.2c-0.1,0.1-0.3,0.1-0.5,0.1c-0.6-0.2-1.2-0.4-1.8-0.6
		c-0.2-0.1-0.2,0-0.2,0.1c0,0.1,0,0.2,0.1,0.2c0.5,0.2,1,0.5,1.5,0.7c0.3,0.1,0.4,0.3,0.4,0.5c0,0,0,0.1,0,0.1
		c0.1,0.6,0.2,1.2,0.4,1.8C23.1,22.1,23.2,22.2,23.5,22.1z M25,30.9c0-0.2-0.1-0.4-0.3-0.4c-0.5-0.2-0.9-0.4-1.2-0.8c0,0,0,0,0,0
		c-0.1-0.1-0.2-0.3-0.3-0.4c-0.2-0.3-0.4-0.6-0.6-1c0,0-0.1-0.1-0.2,0c-0.2,0.1-0.3,0.1-0.5,0.2c-0.1,0-0.2,0.1-0.1,0.2
		c0.2,0.3,0.4,0.6,0.7,0.8c0.2,0.1,0.4,0.2,0.6,0.4c0.2,0.2,0.5,0.3,0.7,0.5c0.3,0.3,0.3,0.5,0,0.7c-0.1,0.1-0.1,0.2,0,0.3
		c0.1,0.1,0.3,0.2,0.4,0.2C24.6,31.7,25,31.3,25,30.9z M15.7,14.3c-0.3,0-0.6-0.1-1,0.1c-0.2,0.1-0.4,0.2-0.5,0.3
		c-0.3,0.2-0.6,0.4-0.9,0.5c-0.4,0.2-0.6,0.1-0.8-0.3c-0.1-0.2-0.2-0.2-0.3-0.1c-0.1,0.1-0.2,0.2-0.3,0.3c-0.2,0.2-0.2,0.6,0,0.8
		c0.2,0.2,0.5,0.2,0.7,0c0.3-0.3,0.7-0.6,1.2-0.7c0.1,0,0.2-0.1,0.3-0.1c0,0,0.1,0,0.2,0c0.3,0,0.5,0,0.8,0c0.2,0,0.4,0,0.5-0.1
		C15.6,14.9,15.6,14.6,15.7,14.3z M31.5,16.4c0.2-0.3,0.4-0.6,0.4-1c0-0.5,0-1.1,0.1-1.6c0-0.4,0.3-0.6,0.6-0.5c0.1,0,0.2,0,0.2-0.2
		c0-0.2,0-0.3,0-0.5c-0.1-0.3-0.4-0.5-0.7-0.4c-0.3,0.1-0.4,0.3-0.4,0.6c0,0.2,0.1,0.5,0.1,0.7c-0.1,0.5-0.2,1.1-0.6,1.5
		c-0.2,0.2-0.3,0.5-0.4,0.7C31,16,31.2,16.2,31.5,16.4z M19.9,26.4C19.9,26.4,19.9,26.4,19.9,26.4c-0.3-0.2-0.6-0.4-1-0.5
		c-0.2-0.1-0.4-0.1-0.6,0.1c-0.1,0.1-0.3,0.2-0.4,0.2c-0.2,0.1-0.3,0.2-0.5,0.3c0.4,0.4,0.8,0.8,1.2,1.2
		C19,27.1,19.4,26.7,19.9,26.4z M30.5,18.9c0,0.3,0,0.6,0,0.9c0,0.3,0.1,0.6,0.5,0.8c0.1,0,0.2,0.1,0.2,0.1c0.2,0.1,0.4,0.3,0.6,0.4
		c0.1-0.3,0.2-0.7,0.3-1c0-0.1,0.1-0.3,0.1-0.4c0.1-0.2,0-0.2-0.2-0.2c-0.3,0-0.7-0.1-1-0.2C30.9,19.1,30.7,19,30.5,18.9z
		 M18.4,13.7c0.4-0.2,0.8-0.5,1.1-0.8c0,0,0-0.1,0-0.2c0-0.4,0-0.7-0.1-1.1c0-0.1,0-0.1,0-0.1c-0.5,0.2-1.1,0.3-1.6,0.5
		C18.2,12.5,18.3,13.1,18.4,13.7z M21.5,10.8C21.5,10.8,21.4,10.8,21.5,10.8c0,0.1,0,0.2,0,0.2c0.1,0.1,0.1,0.2,0,0.4
		c-0.1,0.1-0.1,0.2-0.2,0.4c-0.2,0.3-0.3,0.6-0.5,0.8c-0.1,0.3-0.1,0.5,0.1,0.7c0.4-0.5,0.4-0.5,0.8-0.7c0.2-0.1,0.3-0.2,0.4-0.3
		c0.3-0.3,0.3-0.4,0.1-0.8C22.2,11.1,21.9,10.9,21.5,10.8z M31.3,23.2C31.3,23.1,31.2,23.1,31.3,23.2c-0.1-0.1-0.1-0.1-0.1-0.1
		c-0.3,0.1-0.5-0.1-0.6-0.4c-0.1-0.3-0.3-0.6-0.4-0.9c-0.1-0.3-0.4-0.5-0.7-0.4c0,0,0,0.1,0,0.1c0.1,0.3,0.2,0.6,0.1,0.9
		c0,0.3,0,0.6,0.1,0.9c0,0.1,0.1,0.2,0.2,0.2C30.4,23.7,30.9,23.6,31.3,23.2z M18.3,24.3c-0.1,0-0.2,0-0.3-0.1
		c-0.2-0.1-0.5-0.2-0.7-0.3c-0.3-0.2-0.6-0.3-0.8-0.4c0,0-0.1,0-0.2,0c-0.4,0.4-0.5,0.9-0.4,1.4c0,0,0,0,0.1,0.1c0,0,0-0.1,0.1-0.1
		c0.1-0.3,0.3-0.3,0.5-0.3c0.4,0,0.8,0,1.1,0C18,24.7,18.1,24.6,18.3,24.3z M21.2,10.8C21.3,10.8,21.3,10.8,21.2,10.8
		c-0.1-0.1-0.1-0.1-0.2-0.1c-0.3,0-0.6,0-0.9,0.1c-0.3,0.1-0.5,0.3-0.5,0.6c0,0.4,0,0.8,0,1.2c0,0,0.1,0.1,0.1,0.1
		c0.3,0,0.5-0.1,0.6-0.4c0.2-0.3,0.3-0.6,0.2-1C20.6,11.1,20.8,10.9,21.2,10.8C21.2,10.8,21.2,10.8,21.2,10.8z M16,25.2
		C16,25.2,16,25.2,16,25.2c0,0.1-0.1,0.1,0,0.1c0.2,0.3,0.3,0.6,0.5,0.8c0.2,0.2,0.7,0.3,0.9,0.2c0.2-0.1,0.4-0.2,0.6-0.3
		c0.2-0.1,0.4-0.2,0.5-0.3c-0.2-0.5-0.6-0.6-1.1-0.5c-0.2,0.1-0.4,0.1-0.6,0.2C16.5,25.6,16.3,25.6,16,25.2
		C16.1,25.2,16,25.2,16,25.2z M31.3,23c0.1-0.1,0.1-0.1,0.2-0.1c0.2-0.3,0.3-0.5,0.4-0.8c0.1-0.1,0-0.3,0-0.5c0-0.3-0.2-0.4-0.4-0.6
		c-0.3-0.1-0.5-0.3-0.8-0.5c0,0-0.2,0-0.2,0c-0.1,0.3-0.2,0.5,0,0.8c0.2,0.3,0.4,0.5,0.7,0.7c0.3,0.2,0.4,0.4,0.2,0.8
		C31.4,22.9,31.4,22.9,31.3,23z M18.4,14.7c-0.1-0.2-0.2-0.3-0.3-0.4c-0.1-0.1-0.1-0.1-0.3-0.1c-0.4,0.1-0.8,0.1-1.2,0.2
		c-0.2,0-0.4,0-0.6,0c-0.2,0-0.3,0.2-0.3,0.3c0,0.1,0,0.3,0,0.5c0,0,0.1,0,0.2,0c0.5-0.1,1.1-0.2,1.6-0.3
		C17.9,14.8,18.1,14.7,18.4,14.7z M29.7,18.5c0.2,0,0.4,0,0.5,0c0.1,0,0.1-0.1,0.1-0.1c0.2-0.6,0.5-1.1,0.8-1.6c0-0.1,0.1-0.2,0-0.2
		c-0.1-0.1-0.2-0.3-0.3-0.4c-0.1-0.1-0.2-0.1-0.3,0.1c-0.3,0.7-0.6,1.3-0.8,2C29.8,18.2,29.7,18.3,29.7,18.5z M20.5,26.5
		c0.5,0.5,0.8,1,1.1,1.6c0,0.1,0.1,0.2,0.2,0.2c0.2,0,0.3,0,0.5-0.1c0.2-0.1,0.2-0.2,0.1-0.4c-0.3-0.5-0.7-0.9-1-1.3
		c-0.1-0.2-0.3-0.3-0.5-0.5c-0.1,0.1-0.1,0.2-0.1,0.3C20.6,26.3,20.5,26.4,20.5,26.5z M20.4,13.8c0.5,0,0.6-0.2,0.4-0.6
		c-0.2-0.3-0.1-0.6,0-0.8c0.2-0.3,0.4-0.7,0.6-1c0-0.1,0.1-0.2,0-0.3C21.3,11,21.2,11,21.1,11c-0.2,0-0.3,0.2-0.3,0.4
		c0,0.1,0,0.2,0,0.3c0,0.6-0.3,1-0.9,1.2c-0.2,0-0.2,0.1-0.2,0.3C19.8,13.5,20.1,13.8,20.4,13.8z M19.1,24.8c0-0.1-0.1-0.2-0.1-0.3
		c-0.2-0.3-0.4-0.3-0.6,0c0,0-0.1,0.1-0.1,0.1c-0.1,0.2-0.3,0.3-0.5,0.3c-0.4,0-0.9,0-1.3,0c-0.2,0-0.4,0.1-0.4,0.2
		c0,0.2,0.1,0.4,0.4,0.4c0.1,0,0.2,0,0.3-0.1c0.3-0.2,0.7-0.3,1.1-0.2c0.3,0,0.4,0.2,0.6,0.4c0.1,0.1,0.2,0.1,0.3,0
		C19,25.3,19.1,25.1,19.1,24.8z M30,20.3c-0.3,0-0.6,0.2-0.7,0.5c-0.1,0.3-0.1,0.5,0.3,0.5c0.4,0,0.6,0.2,0.8,0.5
		c0.2,0.3,0.3,0.7,0.5,1c0.1,0.2,0.3,0.2,0.5,0c0.1-0.2,0.1-0.4-0.1-0.5c-0.2-0.1-0.3-0.2-0.5-0.3c-0.4-0.4-0.6-0.8-0.4-1.2
		C30.4,20.5,30.3,20.3,30,20.3z M24.3,29.3c0.1,0.1,0.1,0.2,0.2,0.3c0.2,0.2,0.3,0.4,0.3,0.6c0,0.1,0.2,0.4,0.4,0.3
		c0.2,0,0.3,0.1,0.4,0.2c0,0,0.1,0.1,0.1,0.1c0,0,0,0,0.1,0c0-0.2-0.1-0.4,0-0.6c0.1-0.2,0.3-0.3,0.4-0.5c-0.2-0.1-0.5-0.2-0.6-0.3
		c-0.2-0.2-0.2-0.4-0.3-0.7c-0.1,0.2-0.1,0.4-0.2,0.5c0,0.1-0.1,0.2-0.3,0.1C24.6,29.4,24.5,29.3,24.3,29.3z M30,13.1
		C30,13.1,30,13.2,30,13.1c0.2,0,0.3,0,0.5,0c0.2,0,0.3,0,0.4,0.2c0,0.1,0.1,0.2,0.1,0.3c0.1-0.2,0.2-0.3,0.2-0.5
		c0-0.1,0.1-0.2,0.1-0.2c0.2-0.1,0.3-0.2,0.3-0.4c0-0.1,0-0.2,0-0.3c0-0.1-0.1-0.2-0.1-0.3c0-0.1,0-0.2,0.1-0.4
		c-0.2,0.1-0.3,0.2-0.4,0.3c-0.1,0.1-0.2,0.1-0.4,0c-0.1-0.1-0.2-0.1-0.3-0.1c0,0-0.1,0-0.1,0C30.6,12.4,30.3,12.8,30,13.1z
		 M12.4,17.7c0.1-0.1,0.2-0.1,0.3-0.2c0.2-0.2,0.4-0.2,0.6-0.2c0.1,0,0.3,0,0.5,0c-0.1-0.2-0.2-0.3-0.3-0.4c-0.1-0.1-0.1-0.2,0-0.3
		c0.1-0.1,0.2-0.2,0.3-0.4c-0.2,0-0.2,0.1-0.3,0.1c-0.2,0.1-0.5,0.1-0.7-0.1c-0.1-0.1-0.5,0.1-0.5,0.2c-0.1,0.2-0.2,0.3-0.3,0.3
		c-0.1,0-0.1,0.1-0.3,0.1c0.2,0.1,0.5,0.1,0.6,0.2C12.3,17.3,12.4,17.5,12.4,17.7z M19.5,13.2c-0.4,0.3-0.8,0.5-1.3,0.8
		c0,0-0.1,0-0.1,0.1c0,0.2,0.3,0.5,0.5,0.5c0.5-0.1,0.8-0.4,1.1-0.7c0,0,0-0.1,0-0.2C19.7,13.5,19.6,13.3,19.5,13.2z M30.4,20.2
		c0-0.4,0-0.8,0-1.2c0-0.4-0.1-0.5-0.5-0.4c-0.2,0.1-0.3,0.2-0.3,0.4c0,0.3,0,0.7,0,1c0,0,0.1,0.1,0.2,0.1
		C30,20.2,30.2,20.2,30.4,20.2z M18.9,25.7c0.4,0.2,0.9,0.5,1.3,0.7c0,0,0.1,0,0.1,0c0.2-0.1,0.3-0.5,0.1-0.7
		c-0.3-0.3-0.8-0.5-1.2-0.7C19.2,25.3,19,25.5,18.9,25.7z M11.6,15.2c0.1-0.1,0.2-0.2,0.3-0.3c0.1-0.1,0.4-0.1,0.5-0.3
		c0.1-0.1,0.1-0.4,0.1-0.5c0.1-0.4,0.1-0.4-0.2-0.6c-0.1-0.1-0.2,0-0.3,0.1c-0.2,0.3-0.4,0.6-0.6,0.9C11.4,14.8,11.4,14.9,11.6,15.2
		z M34.1,13.9c-0.1-0.1-0.1-0.2-0.1-0.3c-0.1-0.3-0.3-0.6-0.4-1c-0.1-0.1-0.3-0.2-0.4-0.1c-0.2,0.1,0,0.2,0,0.3c0,0.1,0,0.1,0,0.2
		c-0.2,0.4,0.1,0.6,0.3,0.9c0.3,0.3,0.3,0.3,0.6,0.1C34,14,34,14,34.1,13.9z M24.3,31.7C24.3,31.7,24.3,31.7,24.3,31.7
		c-0.3-0.1-0.6-0.2-0.7-0.5c0,0-0.1,0-0.1,0c-0.2,0-0.5,0.1-0.7,0.1c-0.1,0-0.1,0.1-0.1,0.1c0,0.2,0,0.3,0,0.5c0,0,0,0,0.1,0
		c0.4,0,0.8,0.1,1.2,0.1C24.1,32.1,24.2,32,24.3,31.7z M35.6,12.4c0.2,0.2,0.3,0.3,0.5,0.5c0.1,0.1,0.1,0.1,0.2,0.2
		c0.3,0.2,0.5,0.2,0.8,0c0.1-0.1,0.1-0.2,0.1-0.2c0-0.1-0.1-0.1-0.2-0.2c-0.2-0.1-0.3-0.1-0.5-0.2C36.2,12.4,35.9,12.4,35.6,12.4z
		 M10.1,13.1C10.2,13,10.2,13,10.1,13.1c0.1-0.4,0.1-0.6,0.2-0.9c0.1-0.4-0.1-0.6-0.4-0.7c-0.1,0-0.2,0-0.3,0
		c-0.1,0.1-0.1,0.2-0.1,0.3c0,0.1,0.1,0.2,0.1,0.4C9.7,12.5,9.9,12.8,10.1,13.1z M23.2,34c-0.1,0-0.1,0-0.1,0
		c-0.3,0.1-0.6,0.2-0.8,0.3c-0.3,0.1-0.4,0.3-0.4,0.6c0,0.1,0.1,0.2,0.1,0.3c0.1,0,0.2,0,0.3,0c0.2-0.1,0.4-0.3,0.5-0.4
		C22.8,34.5,23,34.3,23.2,34z M22.3,32.9c0.5-0.1,1-0.3,1.5-0.4c0.1,0,0.1-0.1,0.2-0.2c0,0,0,0,0-0.1c-0.4,0-0.9-0.1-1.3-0.1
		c0,0-0.1,0.1-0.1,0.1C22.4,32.4,22.4,32.6,22.3,32.9z M11.3,14.6c0.3-0.4,0.5-0.8,0.7-1.2c0,0,0-0.1,0-0.2
		c-0.1-0.1-0.3-0.3-0.5-0.4c-0.1,0.5-0.2,1-0.3,1.5C11.2,14.4,11.3,14.5,11.3,14.6z M33.6,12.6c0.2,0.5,0.4,0.9,0.6,1.3
		c0,0,0.1,0.1,0.1,0c0.2,0,0.4-0.1,0.7-0.2c-0.4-0.4-0.7-0.7-1.1-1.1C33.8,12.6,33.7,12.6,33.6,12.6z M11.1,14.1
		c0.1-0.4,0.2-0.7,0.2-1c0.1-0.3,0-0.5-0.3-0.6c-0.1,0.3-0.1,0.7-0.2,1C10.7,13.8,10.7,13.8,11.1,14.1z M34.2,12.7
		c0.3,0.3,0.5,0.5,0.7,0.8c0.3,0.3,0.4,0.3,0.7,0.1c-0.2-0.2-0.4-0.4-0.6-0.7C34.8,12.6,34.6,12.5,34.2,12.7z M23.6,32.7
		c-0.4,0.1-0.7,0.2-1.1,0.3c-0.3,0.1-0.4,0.3-0.4,0.6c0.3-0.1,0.7-0.2,1-0.3C23.4,33.2,23.6,33,23.6,32.7z M36.3,13.4
		c-0.3-0.3-0.5-0.5-0.8-0.7c-0.2-0.2-0.3-0.2-0.6-0.1c0.3,0.3,0.5,0.5,0.8,0.7C35.9,13.5,36.1,13.5,36.3,13.4z M10.6,13.5
		c0.1-0.4,0.1-0.7,0.2-1.1c0-0.2-0.1-0.4-0.3-0.5c-0.1,0.4-0.1,0.7-0.2,1.1C10.3,13.3,10.3,13.4,10.6,13.5z M23.4,33.4
		c-0.4,0.1-0.8,0.2-1.1,0.3c-0.2,0.1-0.3,0.2-0.3,0.5c0.3-0.1,0.7-0.2,1-0.3C23.2,33.8,23.3,33.7,23.4,33.4z"/>
	<path class="st1" d="M22.6,12.2C22.6,12.2,22.7,12.2,22.6,12.2c0.2,0.4,0.3,0.8,0.6,1.2c0.3,0.5,0.6,1.1,0.8,1.6
		c0.3,0.8,0.5,1.5,0.8,2.3c0.1,0.2,0,0.3-0.2,0.5c-0.5,0.3-0.9,0.7-1.3,1c-0.2,0.2-0.4,0.3-0.7,0.1c-0.1-0.1-0.3-0.1-0.4-0.1
		c-0.3-0.1-0.3-0.1-0.3-0.5c0.1-1.4-0.1-2.7-0.6-4c-0.1-0.2-0.1-0.4-0.1-0.7c0-0.3,0.2-0.6,0.4-0.7C21.9,12.6,22.3,12.4,22.6,12.2z"
		/>
	<path class="st1" d="M29.5,23.4c-0.4-0.1-0.8-0.1-1.1-0.2c0,0-0.1,0-0.1,0c-1.2,0-2.3-0.4-3.4-0.6c-0.3-0.1-0.5-0.1-0.8-0.2
		c-0.1,0-0.2-0.2-0.3-0.3c-0.1-0.4-0.2-0.9-0.3-1.3c0-0.3,0-0.6,0-0.9c0-0.2,0.2-0.5,0.4-0.6c0.1,0,0.1,0,0.2,0.1
		c0.9,0.7,2,1.2,3.1,1.5c0.5,0.1,1,0.2,1.5,0.3c0.5,0.1,0.8,0.5,0.8,1C29.5,22.6,29.5,23,29.5,23.4z"/>
	<path class="st1" d="M16.6,23.4c0.3-0.4,0.6-0.8,0.8-1.2c0.4-0.7,1-1.3,1.5-1.9c0.3-0.4,0.7-0.7,1.1-1.1c0.5-0.5,0.5-0.5,1.1-0.2
		c0.4,0.2,0.8,0.4,1.3,0.6c0.2,0.1,0.2,0.2,0.3,0.3c0.1,0.4-0.1,0.5-0.4,0.7c-1.3,0.7-2.3,1.6-3.2,2.8c-0.1,0.1-0.2,0.2-0.3,0.4
		c-0.2,0.3-0.4,0.4-0.8,0.3c-0.2-0.1-0.4-0.2-0.6-0.3c-0.2-0.1-0.4-0.2-0.5-0.3C16.7,23.4,16.6,23.4,16.6,23.4z"/>
	<path class="st1" d="M16,14.2c-0.2,0-0.4,0-0.6,0c-0.4,0-0.8,0.1-1.1,0.3c-0.3,0.2-0.7,0.4-1.1,0.6c-0.4,0.2-0.6,0.1-0.6-0.3
		c-0.1-0.4,0.1-0.7,0.2-1c0,0,0.1-0.1,0.2,0c0.6,0.2,1,0,1.5-0.3c0.9-0.6,1.9-1,2.9-1.4c0.2-0.1,0.3,0,0.4,0.1
		c0.3,0.5,0.4,0.9,0.4,1.5c0,0.1-0.1,0.2-0.1,0.2c-0.4,0.1-0.8,0.2-1.2,0.3C16.6,14.2,16.3,14.2,16,14.2C16,14.2,16,14.2,16,14.2z"
		/>
	<path class="st1" d="M22.7,31.3c-0.1-0.1-0.2-0.1-0.2-0.2c-0.1-0.7-0.6-0.9-1.1-1.3c-0.7-0.5-1.4-1-2.1-1.5
		c-0.1-0.1-0.3-0.2-0.4-0.4c-0.1-0.1-0.1-0.2-0.1-0.3c0.3-0.5,0.7-0.9,1.2-1.1c0.1,0,0.2,0,0.3,0c0.4,0.3,0.6,0.6,0.8,1
		c0.2,0.4,0.5,0.9,0.7,1.4c0.1,0.3,0.3,0.4,0.6,0.6c0.4,0.3,0.8,0.5,1.2,0.7c0.1,0,0.2,0.1,0.2,0.2c0.1,0.2,0.1,0.3-0.1,0.4
		C23.4,31.1,23.1,31.2,22.7,31.3z"/>
	<path class="st1" d="M31.9,19.3c-0.4,0-0.9-0.2-1.3-0.4c-0.1,0-0.1-0.2-0.1-0.3c0-0.4,0.2-0.8,0.4-1.2c0.2-0.3,0.4-0.7,0.7-1
		c0.3-0.4,0.4-0.8,0.5-1.3c0-0.4,0-0.8,0-1.2c0-0.4,0.2-0.5,0.6-0.4c0.3,0.1,0.5,0.4,0.7,0.7c0,0,0,0.1,0,0.2
		c-0.4,0.3-0.5,0.8-0.5,1.3c0,1.1-0.2,2.3-0.4,3.4C32.3,19.3,32.3,19.3,31.9,19.3z"/>
	<path class="st1" d="M19.3,24.5c-0.2-0.2-0.3-0.3-0.4-0.5c0,0,0-0.1,0-0.2c0.9-1.4,2.1-2.5,3.6-3.3c0,0,0.1,0,0.2-0.1
		c0,0.1,0.1,0.2,0.1,0.2c0.1,0.4,0.2,0.8,0.3,1.2c0,0.1,0,0.2-0.1,0.3c-1.1,0.7-2.3,1.4-3.4,2.2C19.4,24.4,19.3,24.5,19.3,24.5z"/>
	<path class="st1" d="M29.2,20.5c-0.1,0.2-0.1,0.3-0.2,0.5c0,0.1-0.1,0.1-0.2,0.1c-1.5-0.2-2.9-0.6-4.2-1.4
		c-0.2-0.1-0.3-0.2-0.5-0.3c-0.1-0.1-0.1-0.1,0-0.2c0.3-0.2,0.6-0.5,0.9-0.7c0.1,0,0.2,0,0.2,0c1.2,0.6,2.4,1.3,3.7,1.9
		C29,20.3,29.1,20.4,29.2,20.5z"/>
	<path class="st1" d="M21.8,17.6c0,0.3,0,0.5-0.1,0.8c0,0.1-0.1,0.2-0.2,0.1c-0.2-0.1-0.5-0.2-0.7-0.3c-0.1,0-0.1-0.1-0.1-0.2
		c-0.1-0.5-0.1-1.1-0.2-1.6c-0.1-0.8-0.1-1.5-0.2-2.3c0-0.1,0-0.2,0.1-0.2c0,0,0.1,0,0.1,0c0.4,0,0.4,0,0.5,0.3
		c0.3,0.7,0.5,1.3,0.6,2C21.7,16.8,21.8,17.2,21.8,17.6z"/>
	<path class="st2" d="M23.5,22.1c-0.3,0.1-0.4,0-0.4-0.2c-0.1-0.6-0.3-1.2-0.4-1.8c0,0,0-0.1,0-0.1c0-0.3-0.1-0.4-0.4-0.5
		c-0.5-0.2-1-0.4-1.5-0.7c-0.1,0-0.2-0.1-0.1-0.2c0-0.2,0.1-0.2,0.2-0.1c0.6,0.2,1.2,0.4,1.8,0.6c0.2,0.1,0.3,0,0.5-0.1
		c0.5-0.4,1-0.8,1.5-1.2c0.1,0,0.1-0.1,0.2-0.1c0,0.1,0.1,0.2,0.1,0.3c0.1,0.1,0,0.2-0.1,0.2c-0.4,0.3-0.8,0.7-1.3,1
		c-0.1,0.1-0.2,0.2-0.3,0.3c0,0-0.1,0.1-0.1,0.2c0,0.6,0,1.1,0.1,1.7C23.4,21.6,23.4,21.8,23.5,22.1z"/>
	<path class="st1" d="M25,30.9c0,0.4-0.4,0.8-0.8,0.6c-0.1-0.1-0.3-0.1-0.4-0.2c-0.1-0.1-0.1-0.2,0-0.3c0.3-0.2,0.3-0.4,0-0.7
		c-0.2-0.2-0.4-0.3-0.7-0.5c-0.2-0.1-0.4-0.3-0.6-0.4c-0.3-0.2-0.5-0.5-0.7-0.8c-0.1-0.1,0-0.2,0.1-0.2c0.2,0,0.3-0.1,0.5-0.2
		c0.1,0,0.2,0,0.2,0c0.2,0.3,0.4,0.6,0.6,1c0.1,0.1,0.2,0.3,0.3,0.4c0,0,0,0,0,0c0.3,0.4,0.7,0.6,1.2,0.8C24.9,30.6,25,30.7,25,30.9
		z"/>
	<path class="st1" d="M15.7,14.3c0,0.3-0.1,0.6-0.1,0.9c-0.2,0-0.3,0.1-0.5,0.1c-0.3,0-0.5,0-0.8,0c-0.1,0-0.1,0-0.2,0
		c-0.1,0-0.2,0.1-0.3,0.1c-0.5,0.1-0.9,0.3-1.2,0.7c-0.2,0.2-0.5,0.2-0.7,0c-0.2-0.2-0.2-0.6,0-0.8c0.1-0.1,0.2-0.2,0.3-0.3
		c0.1-0.1,0.3-0.1,0.3,0.1c0.2,0.4,0.4,0.5,0.8,0.3c0.3-0.2,0.6-0.3,0.9-0.5c0.2-0.1,0.4-0.2,0.5-0.3C15,14.3,15.4,14.4,15.7,14.3z"
		/>
	<path class="st1" d="M31.5,16.4c-0.2-0.2-0.4-0.4-0.7-0.6c0.1-0.2,0.2-0.5,0.4-0.7c0.4-0.4,0.5-1,0.6-1.5c0-0.2,0-0.5-0.1-0.7
		c0-0.3,0.1-0.6,0.4-0.6c0.3-0.1,0.7,0.1,0.7,0.4c0,0.2,0,0.3,0,0.5c0,0.1-0.1,0.2-0.2,0.2c-0.4-0.1-0.6,0.1-0.6,0.5
		c0,0.5-0.1,1.1-0.1,1.6C31.9,15.8,31.7,16.1,31.5,16.4z"/>
	<path class="st1" d="M19.9,26.4c-0.6,0.3-1,0.7-1.3,1.3c-0.4-0.4-0.8-0.8-1.2-1.2c0.1-0.1,0.3-0.2,0.5-0.3c0.1-0.1,0.3-0.1,0.4-0.2
		c0.2-0.2,0.4-0.2,0.6-0.1C19.3,26,19.6,26.2,19.9,26.4C19.9,26.4,19.9,26.4,19.9,26.4z"/>
	<path class="st1" d="M30.5,18.9c0.2,0.1,0.4,0.2,0.5,0.3c0.3,0.1,0.7,0.2,1,0.2c0.2,0,0.2,0.1,0.2,0.2c0,0.1-0.1,0.3-0.1,0.4
		c-0.1,0.3-0.2,0.6-0.3,1c-0.2-0.1-0.4-0.2-0.6-0.4c-0.1,0-0.1-0.1-0.2-0.1c-0.4-0.1-0.4-0.4-0.5-0.8C30.5,19.5,30.5,19.2,30.5,18.9
		z"/>
	<path class="st1" d="M18.4,13.7c0-0.6-0.2-1.2-0.6-1.8c0.6-0.2,1.1-0.3,1.6-0.5c0,0,0,0.1,0,0.1c0,0.4,0,0.7,0.1,1.1
		c0,0.1,0,0.1,0,0.2C19.1,13.3,18.8,13.5,18.4,13.7z"/>
	<path class="st1" d="M21.5,10.8c0.4,0.1,0.7,0.3,0.9,0.7c0.2,0.4,0.2,0.5-0.1,0.8c-0.1,0.1-0.3,0.2-0.4,0.3
		c-0.4,0.2-0.4,0.2-0.8,0.7c-0.2-0.2-0.3-0.4-0.1-0.7c0.1-0.3,0.3-0.6,0.5-0.8c0.1-0.1,0.1-0.2,0.2-0.4c0.1-0.1,0.1-0.3,0-0.4
		C21.5,10.9,21.5,10.9,21.5,10.8C21.4,10.8,21.5,10.8,21.5,10.8z"/>
	<path class="st1" d="M31.3,23.2c-0.4,0.4-0.9,0.5-1.5,0.4c-0.1,0-0.1-0.1-0.2-0.2c0-0.3-0.1-0.6-0.1-0.9c0-0.3,0-0.6-0.1-0.9
		c0,0,0-0.1,0-0.1c0.4,0,0.6,0.1,0.7,0.4c0.1,0.3,0.3,0.6,0.4,0.9c0.1,0.3,0.3,0.5,0.6,0.4C31.2,23.1,31.2,23.1,31.3,23.2
		C31.2,23.1,31.3,23.1,31.3,23.2z"/>
	<path class="st1" d="M18.3,24.3c-0.1,0.3-0.3,0.4-0.6,0.4c-0.4,0-0.8,0-1.1,0c-0.2,0-0.4,0-0.5,0.3c0,0,0,0.1-0.1,0.1
		C15.9,25,15.9,25,15.9,25c-0.1-0.5,0-1,0.4-1.4c0,0,0.1-0.1,0.2,0c0.3,0.1,0.6,0.2,0.8,0.4c0.2,0.2,0.5,0.2,0.7,0.3
		C18.1,24.2,18.2,24.2,18.3,24.3z"/>
	<path class="st1" d="M21.2,10.8C21.2,10.8,21.2,10.8,21.2,10.8c-0.4,0-0.7,0.3-0.6,0.6c0,0.4-0.1,0.7-0.2,1
		c-0.1,0.3-0.4,0.3-0.6,0.4c0,0-0.1-0.1-0.1-0.1c0-0.4-0.1-0.8,0-1.2c0-0.3,0.3-0.5,0.5-0.6c0.3-0.1,0.6-0.1,0.9-0.1
		C21.1,10.7,21.2,10.7,21.2,10.8C21.3,10.8,21.3,10.8,21.2,10.8z"/>
	<path class="st1" d="M16,25.2C16,25.2,16.1,25.2,16,25.2c0.3,0.4,0.5,0.4,0.8,0.3c0.2-0.1,0.4-0.2,0.6-0.2c0.5-0.1,0.8,0,1.1,0.5
		c-0.2,0.1-0.3,0.2-0.5,0.3c-0.2,0.1-0.4,0.2-0.6,0.3c-0.2,0.1-0.7,0-0.9-0.2c-0.2-0.3-0.3-0.6-0.5-0.8C15.9,25.3,15.9,25.2,16,25.2
		C16,25.2,16,25.2,16,25.2z"/>
	<path class="st1" d="M31.3,23c0-0.1,0-0.1,0-0.2c0.2-0.3,0.1-0.6-0.2-0.8c-0.3-0.2-0.5-0.4-0.7-0.7c-0.2-0.3-0.1-0.5,0-0.8
		c0,0,0.1-0.1,0.2,0c0.3,0.1,0.5,0.3,0.8,0.5c0.2,0.1,0.4,0.3,0.4,0.6c0,0.2,0,0.4,0,0.5c-0.1,0.3-0.3,0.5-0.4,0.8
		C31.5,23,31.4,23,31.3,23z"/>
	<path class="st1" d="M18.4,14.7c-0.3,0.1-0.5,0.2-0.8,0.2c-0.5,0.1-1.1,0.2-1.6,0.3c-0.1,0-0.2,0-0.2,0c0-0.2-0.1-0.3,0-0.5
		c0-0.1,0.1-0.3,0.3-0.3c0.2,0,0.4,0,0.6,0c0.4,0,0.8-0.1,1.2-0.2c0.1,0,0.2,0,0.3,0.1C18.2,14.4,18.3,14.5,18.4,14.7z"/>
	<path class="st1" d="M29.7,18.5c0-0.1,0-0.2,0.1-0.3c0.3-0.7,0.6-1.3,0.8-2c0.1-0.2,0.2-0.2,0.3-0.1c0.1,0.1,0.2,0.2,0.3,0.4
		c0,0,0,0.2,0,0.2c-0.3,0.5-0.7,1-0.8,1.6c0,0-0.1,0.1-0.1,0.1C30.1,18.4,29.9,18.4,29.7,18.5z"/>
	<path class="st1" d="M20.5,26.5c0.1-0.1,0.1-0.2,0.2-0.3c0-0.1,0.1-0.2,0.1-0.3c0.2,0.2,0.4,0.4,0.5,0.5c0.4,0.4,0.7,0.9,1,1.3
		c0.1,0.2,0.1,0.3-0.1,0.4c-0.1,0.1-0.3,0.1-0.5,0.1c-0.1,0-0.1-0.1-0.2-0.2C21.2,27.5,20.9,27,20.5,26.5z"/>
	<path class="st2" d="M20.4,13.8c-0.3,0-0.7-0.3-0.7-0.6c0-0.2,0-0.3,0.2-0.3c0.6-0.2,0.9-0.6,0.9-1.2c0-0.1,0-0.2,0-0.3
		c0-0.2,0.1-0.3,0.3-0.4c0.1,0,0.3,0,0.3,0.1c0,0,0,0.2,0,0.3c-0.2,0.3-0.4,0.7-0.6,1c-0.2,0.3-0.2,0.5,0,0.8
		C21,13.6,20.9,13.8,20.4,13.8z"/>
	<path class="st2" d="M19.1,24.8c0,0.3-0.1,0.5-0.3,0.7c-0.1,0.1-0.2,0.1-0.3,0c-0.2-0.2-0.3-0.4-0.6-0.4c-0.4,0-0.8,0-1.1,0.2
		c-0.1,0.1-0.2,0.1-0.3,0.1c-0.2,0-0.4-0.2-0.4-0.4c0-0.2,0.2-0.2,0.4-0.2c0.4,0,0.9,0,1.3,0c0.2,0,0.3-0.1,0.5-0.3
		c0,0,0.1-0.1,0.1-0.1c0.2-0.3,0.4-0.3,0.6,0C19.1,24.6,19.1,24.7,19.1,24.8z"/>
	<path class="st2" d="M30,20.3c0.3,0,0.4,0.1,0.3,0.4c-0.2,0.4,0,0.8,0.4,1.2c0.1,0.1,0.3,0.2,0.5,0.3c0.2,0.2,0.3,0.3,0.1,0.5
		c-0.1,0.2-0.4,0.2-0.5,0c-0.2-0.3-0.3-0.7-0.5-1c-0.2-0.3-0.4-0.5-0.8-0.5c-0.4,0-0.4-0.1-0.3-0.5C29.4,20.5,29.7,20.3,30,20.3z"/>
	<path class="st2" d="M24.3,29.3c0.2,0,0.3,0.1,0.5,0.1c0.1,0,0.2,0,0.3-0.1c0.1-0.2,0.1-0.3,0.2-0.5c0.1,0.3,0.2,0.5,0.3,0.7
		c0.2,0.2,0.4,0.2,0.6,0.3c-0.1,0.2-0.3,0.3-0.4,0.5c-0.1,0.2,0,0.4,0,0.6c0,0,0,0-0.1,0c0,0-0.1-0.1-0.1-0.1
		c-0.1-0.1-0.2-0.2-0.4-0.2c-0.2,0-0.4-0.2-0.4-0.3c0-0.3-0.1-0.5-0.3-0.6C24.5,29.5,24.4,29.4,24.3,29.3z"/>
	<path class="st2" d="M30,13.1c0.4-0.4,0.6-0.8,0.4-1.3c0,0,0.1,0,0.1,0c0.1,0,0.2,0.1,0.3,0.1c0.1,0.1,0.3,0.1,0.4,0
		c0.1-0.1,0.2-0.2,0.4-0.3c0,0.2-0.1,0.3-0.1,0.4c0,0.1,0,0.2,0.1,0.3c0,0.1,0,0.2,0,0.3c0,0.2-0.1,0.4-0.3,0.4
		c-0.1,0-0.1,0.1-0.1,0.2c-0.1,0.2-0.1,0.3-0.2,0.5c0-0.1-0.1-0.2-0.1-0.3c0-0.2-0.2-0.3-0.4-0.2C30.3,13.1,30.1,13.2,30,13.1
		C30,13.2,30,13.1,30,13.1z"/>
	<path class="st2" d="M12.4,17.7c-0.1-0.2-0.1-0.4-0.2-0.6c-0.1-0.1-0.4-0.1-0.6-0.2c0.1,0,0.2-0.1,0.3-0.1c0.2,0,0.3-0.1,0.3-0.3
		c0-0.1,0.4-0.3,0.5-0.2c0.2,0.2,0.5,0.1,0.7,0.1c0.1,0,0.2,0,0.3-0.1c-0.1,0.2-0.2,0.3-0.3,0.4c-0.1,0.1-0.1,0.2,0,0.3
		c0.1,0.1,0.2,0.3,0.3,0.4c-0.2,0-0.3,0-0.5,0c-0.2-0.1-0.4,0-0.6,0.2C12.7,17.6,12.5,17.7,12.4,17.7z"/>
	<path class="st1" d="M19.5,13.2c0.1,0.2,0.2,0.3,0.3,0.5c0,0,0,0.1,0,0.2c-0.3,0.3-0.6,0.6-1.1,0.7c-0.2,0-0.5-0.3-0.5-0.5
		c0,0,0-0.1,0.1-0.1C18.7,13.7,19.1,13.4,19.5,13.2z"/>
	<path class="st1" d="M30.4,20.2c-0.2,0-0.4,0-0.6,0c-0.1,0-0.2-0.1-0.2-0.1c0-0.3-0.1-0.7,0-1c0-0.2,0.1-0.3,0.3-0.4
		c0.4-0.1,0.5,0,0.5,0.4C30.3,19.4,30.4,19.8,30.4,20.2z"/>
	<path class="st1" d="M18.9,25.7c0.1-0.2,0.3-0.4,0.4-0.6c0.4,0.2,0.8,0.3,1.2,0.7c0.2,0.2,0.1,0.6-0.1,0.7c0,0-0.1,0-0.1,0
		C19.7,26.1,19.3,25.9,18.9,25.7z"/>
	<path class="st1" d="M11.6,15.2c-0.2-0.3-0.3-0.4-0.1-0.7c0.2-0.3,0.4-0.6,0.6-0.9c0.1-0.1,0.1-0.1,0.3-0.1
		c0.3,0.2,0.3,0.2,0.2,0.6c-0.1,0.2,0,0.4-0.1,0.5c-0.1,0.1-0.3,0.2-0.5,0.3C11.8,15,11.7,15.1,11.6,15.2z"/>
	<path class="st1" d="M34.1,13.9C34,14,34,14,34,14c-0.4,0.2-0.4,0.2-0.6-0.1c-0.2-0.3-0.5-0.5-0.3-0.9c0-0.1,0-0.1,0-0.2
		c0-0.1-0.1-0.2,0-0.3c0.1-0.1,0.4,0,0.4,0.1c0.2,0.3,0.3,0.6,0.4,1C34,13.7,34,13.8,34.1,13.9z"/>
	<path class="st1" d="M24.3,31.7c-0.1,0.3-0.2,0.4-0.5,0.4c-0.4,0-0.8-0.1-1.2-0.1c0,0-0.1,0-0.1,0c0-0.2,0-0.3,0-0.5
		c0,0,0.1-0.1,0.1-0.1c0.2-0.1,0.5-0.1,0.7-0.1c0,0,0.1,0,0.1,0C23.7,31.5,24,31.6,24.3,31.7C24.3,31.7,24.3,31.7,24.3,31.7z"/>
	<path class="st1" d="M35.6,12.4c0.3-0.1,0.6,0,0.9,0.1c0.2,0.1,0.4,0.1,0.5,0.2c0.1,0,0.2,0.1,0.2,0.2c0,0.1,0,0.2-0.1,0.2
		c-0.3,0.2-0.5,0.2-0.8,0c-0.1-0.1-0.2-0.1-0.2-0.2C35.9,12.8,35.7,12.6,35.6,12.4z"/>
	<path class="st1" d="M10.1,13.1c-0.2-0.3-0.4-0.6-0.5-0.9c0-0.1-0.1-0.2-0.1-0.4c0-0.1,0-0.2,0.1-0.3c0,0,0.2-0.1,0.3,0
		c0.3,0.1,0.5,0.3,0.4,0.7C10.3,12.4,10.2,12.7,10.1,13.1C10.2,13,10.2,13,10.1,13.1z"/>
	<path class="st1" d="M23.2,34c-0.2,0.3-0.3,0.5-0.5,0.7c-0.1,0.2-0.3,0.3-0.5,0.4c-0.1,0-0.2,0.1-0.3,0c-0.1-0.1-0.1-0.2-0.1-0.3
		c0-0.3,0.1-0.5,0.4-0.6c0.3-0.1,0.6-0.2,0.8-0.3C23.1,34,23.1,34,23.2,34z"/>
	<path class="st1" d="M22.3,32.9c0.1-0.3,0.1-0.4,0.2-0.6c0,0,0.1-0.1,0.1-0.1c0.4,0,0.9,0.1,1.3,0.1c0,0,0,0,0,0.1
		c-0.1,0.1-0.1,0.2-0.2,0.2C23.3,32.6,22.8,32.7,22.3,32.9z"/>
	<path class="st1" d="M11.3,14.6c-0.1-0.1-0.1-0.2-0.1-0.3c0.1-0.5,0.2-1,0.3-1.5c0.2,0.2,0.3,0.3,0.5,0.4c0,0,0,0.1,0,0.2
		C11.8,13.8,11.6,14.2,11.3,14.6z"/>
	<path class="st1" d="M33.6,12.6c0.1,0,0.2,0,0.3,0.1c0.4,0.3,0.7,0.7,1.1,1.1c-0.3,0.1-0.5,0.1-0.7,0.2c0,0-0.1,0-0.1,0
		C34,13.4,33.8,13,33.6,12.6z"/>
	<path class="st2" d="M11.1,14.1c-0.3-0.2-0.4-0.3-0.3-0.7c0.1-0.3,0.1-0.7,0.2-1c0.3,0.2,0.4,0.3,0.3,0.6
		C11.3,13.4,11.2,13.7,11.1,14.1z"/>
	<path class="st2" d="M34.2,12.7c0.4-0.2,0.6-0.1,0.8,0.2c0.2,0.2,0.4,0.5,0.6,0.7c-0.3,0.2-0.4,0.2-0.7-0.1
		C34.7,13.2,34.4,12.9,34.2,12.7z"/>
	<path class="st2" d="M23.6,32.7c0,0.3-0.1,0.5-0.5,0.6c-0.3,0.1-0.7,0.2-1,0.3c0-0.3,0.1-0.5,0.4-0.6
		C22.9,32.9,23.2,32.8,23.6,32.7z"/>
	<path class="st1" d="M36.3,13.4c-0.2,0.1-0.5,0.1-0.7-0.1c-0.2-0.3-0.5-0.5-0.8-0.7c0.3-0.1,0.4-0.1,0.6,0.1
		C35.8,12.9,36,13.1,36.3,13.4z"/>
	<path class="st1" d="M10.6,13.5c-0.3-0.2-0.3-0.3-0.3-0.5c0.1-0.4,0.1-0.7,0.2-1.1c0.3,0.1,0.4,0.3,0.3,0.5
		C10.8,12.8,10.7,13.2,10.6,13.5z"/>
	<path class="st1" d="M23.4,33.4c0,0.3-0.1,0.5-0.4,0.5c-0.3,0.1-0.7,0.2-1,0.3c0-0.3,0-0.4,0.3-0.5C22.6,33.6,23,33.5,23.4,33.4z"
		/>
</g>
</svg>
