<?xml version="1.0" encoding="utf-8"?>
<!-- Generator: Adobe Illustrator 22.1.0, SVG Export Plug-In . SVG Version: 6.00 Build 0)  -->
<svg version="1.1" id="Layer_1" xmlns="http://www.w3.org/2000/svg" xmlns:xlink="http://www.w3.org/1999/xlink" x="0px" y="0px"
	 viewBox="0 0 45 45" style="enable-background:new 0 0 45 45;" xml:space="preserve">
<style type="text/css">
	.st0{fill:#FFFFFF;}
	.st1{fill:#0148C8;}
</style>
<g>
	<g>
		<g>
			<path class="st0" d="M0,14.1v16.9c0,1.1,0,2,0,2.9h45c0-0.9,0-1.8,0-2.9V14.1c0-1.1,0-2,0-2.9H0C0,12,0,13,0,14.1z"/>
			<path class="st0" d="M1.5,4.4h42c-0.3-0.5-0.8-1.1-1.3-1.6C39.4,0,36.6,0,30.9,0H14.1C8.4,0,5.6,0,2.8,2.8
				C2.3,3.3,1.9,3.9,1.5,4.4z"/>
			<path class="st0" d="M43.5,40.6h-42c0.3,0.5,0.8,1.1,1.3,1.6C5.6,45,8.4,45,14.1,45h16.9c5.6,0,8.4,0,11.3-2.8
				C42.7,41.7,43.1,41.1,43.5,40.6z"/>
			<path class="st1" d="M0,11.2h45c-0.1-2.9-0.3-4.9-1.5-6.7h-42C0.3,6.2,0.1,8.3,0,11.2z"/>
			<path class="st1" d="M1.5,40.6h42c1.2-1.8,1.4-3.8,1.5-6.8H0C0.1,36.7,0.3,38.8,1.5,40.6z"/>
		</g>
		<path class="st1" d="M28.2,22.5l2.8-4.9h-5.7l-2.9-5l-2.9,5h-5.7l0.7,1.3l2.1,3.7l-2.8,4.9h1.5h4.2l2.9,5l2.9-5h5.7L28.2,22.5z
			 M22.5,16l0.9,1.6h-1.9L22.5,16z M16.8,25.7l0.9-1.6l0.9,1.6H16.8z M17.7,20.8l-0.9-1.6h1.8L17.7,20.8z M22.5,29l-0.9-1.6h1.9
			L22.5,29z M24.4,25.7h-3.8l-1.9-3.2l1.9-3.3h3.8l1.9,3.3L24.4,25.7z M26.4,25.7l0.9-1.6l0.9,1.6H26.4z M27.3,20.8l-0.9-1.6h1.8
			L27.3,20.8z"/>
	</g>
</g>
</svg>
