<?xml version="1.0" encoding="utf-8"?>
<!-- Generator: Adobe Illustrator 22.1.0, SVG Export Plug-In . SVG Version: 6.00 Build 0)  -->
<svg version="1.1" id="Layer_1" xmlns="http://www.w3.org/2000/svg" xmlns:xlink="http://www.w3.org/1999/xlink" x="0px" y="0px"
	 viewBox="0 0 400 400" style="enable-background:new 0 0 400 400;" xml:space="preserve">
<style type="text/css">
	.st0{fill:#FFFFFF;}
	.st1{fill:#CF142B;}
	.st2{fill:#FBB03B;}
</style>
<g>
	<path class="st0" d="M358,12.2C337.4,0.1,313.6,0.1,274.3,0.1h-150c-39.2,0-63.1,0-83.6,12.1l158.6,158.6L358,12.2z"/>
	<path class="st0" d="M12.2,40.3C-0.7,61.1-0.7,85.1-0.7,125.1v150c0,39.2,0,63.1,12.1,83.6L171,199.1L12.2,40.3z"/>
	<path class="st0" d="M39.5,387.3c20.8,12.8,44.8,12.9,84.9,12.9h150c40,0,64,0,84.9-12.9L199.3,227.4L39.5,387.3z"/>
	<path class="st0" d="M387.2,358.8c12.1-20.5,12.1-44.4,12.1-83.6v-150c0-40,0-64-12.9-84.9L227.6,199.1L387.2,358.8z"/>
	<path class="st1" d="M387.2,358.8L227.6,199.1L386.5,40.3c-3.2-5.2-7.2-10.2-12.1-15.1c-5.4-5.4-10.8-9.6-16.4-12.9L199.3,170.9
		L40.7,12.2c-5.6,3.3-11,7.5-16.4,12.9c-5,5-9,10-12.1,15.1L171,199.1L11.4,358.8c3.3,5.6,7.5,11,12.9,16.4c5,5,10,9,15.1,12.1
		l159.9-159.9l159.9,159.9c5.2-3.2,10.2-7.2,15.1-12.1C379.7,369.8,383.9,364.4,387.2,358.8z"/>
</g>
<ellipse class="st1" cx="196.3" cy="53.6" rx="34" ry="13.5"/>
<path class="st1" d="M232.3,54.1c0,19.9-23,72-36.5,72s-33.5-53.1-33.5-73s24.5-18,38-18S232.3,34.3,232.3,54.1z"/>
<polygon class="st2" points="177.7,24.6 167.7,41.9 187.7,41.9 "/>
<polygon class="st2" points="197.7,15.9 182.7,41.9 212.7,41.9 "/>
<polygon class="st2" points="217.7,24.6 207.7,41.9 227.7,41.9 "/>
<ellipse class="st2" cx="197.8" cy="60.6" rx="23.5" ry="2.5"/>
<ellipse class="st2" cx="197.3" cy="76.6" rx="22" ry="2.5"/>
<ellipse class="st2" cx="195.8" cy="93.6" rx="17.5" ry="2.5"/>
</svg>
