<?xml version="1.0" encoding="utf-8"?>
<!-- Generator: Adobe Illustrator 22.1.0, SVG Export Plug-In . SVG Version: 6.00 Build 0)  -->
<svg version="1.1" id="Layer_1" xmlns="http://www.w3.org/2000/svg" xmlns:xlink="http://www.w3.org/1999/xlink" x="0px" y="0px"
	 viewBox="0 0 45 45" style="enable-background:new 0 0 45 45;" xml:space="preserve">
<style type="text/css">
	.st0{fill:#00B5CC;}
	.st1{fill:#FEC91B;}
</style>
<g>
	<g>
		<g>
			<path class="st0" d="M45,30.9c0,5.6,0,8.4-2.8,11.2C39.4,45,36.6,45,30.9,45H14.1c-5.6,0-8.4,0-11.3-2.8C0,39.4,0,36.6,0,30.9
				V14.1C0,8.4,0,5.6,2.8,2.8C5.6,0,8.4,0,14.1,0h16.9c5.6,0,8.4,0,11.3,2.8C45,5.6,45,8.4,45,14.1V30.9z"/>
		</g>
		<g>
			<path class="st1" d="M11.8,20.5c0,0,0.1,0,0.1,0c0.1,0.1,0.2,0.2,0.2,0.3c0.3,0.6,0.6,1.3,0.9,2c0-0.3,0-0.6-0.1-0.8
				c0-0.3,0-0.5,0-0.8c0-0.1,0.2-0.2,0.3-0.1c0,0.1,0,0.2,0,0.3c0.1,1,0.4,1.9,0.8,2.8c0.7,1.5,1.8,2.8,3.2,3.7c1.5,1,3.2,1.5,5,1.5
				c0.1,0,0.2,0.2,0.1,0.2c-0.1,0-0.2,0.1-0.3,0.2c-0.2,0.2-0.3,0.3-0.5,0.4c-0.1-0.1-0.1-0.2-0.2-0.3c-0.2-0.2-0.5-0.3-0.8-0.3
				c-0.3-0.1-0.7-0.1-1-0.1c-0.2,0-0.4,0-0.7,0c-0.1,0-0.1,0-0.2-0.1c-0.6-0.5-1.1-1-1.8-1.4c-0.1-0.1-0.3-0.1-0.4-0.1
				c-0.1,0-0.2,0-0.3,0c-0.1,0-0.2-0.1-0.3-0.2c-0.4-0.4-0.6-0.8-0.9-1.3c-0.2-0.3-0.5-0.7-0.8-0.9c-0.2-0.2-0.5-0.5-0.8-0.7
				c0,0,0,0.1-0.1,0.1c-0.1,0-0.3-0.1-0.4,0c0,0.2,0.1,0.3,0.2,0.5c0.1,0.1,0.2,0.1,0.2,0.2c0,0.1,0,0.2,0,0.2c-0.1,0-0.3,0-0.4,0
				c0.1,0.2,0.3,0.4,0.5,0.5c0.1,0.1,0.3,0.2,0.4,0.3c0,0,0.1,0.1,0,0.1c-0.1,0-0.2,0-0.3,0c0,0.1,0.1,0.1,0.1,0.2
				c0.3,0.2,0.6,0.2,0.8,0.4c0,0,0.1,0,0.1,0.1c0,0,0,0.1,0,0.1c-0.1,0-0.2,0-0.3,0.1c0.1,0.1,0.3,0.2,0.4,0.3c0,0,0,0.1,0,0.1
				c-0.1,0-0.2,0.1-0.3,0.1c0.2,0.2,0.5,0.2,0.7,0.4c0,0,0.1,0.1,0,0.1c-0.1,0.1-0.2,0.1-0.2,0.1c0.1,0.1,0.2,0.1,0.3,0.1
				c0.1,0,0.3,0,0.4,0.1c0.1,0,0.1,0.2,0,0.2c-0.1,0.1-0.2,0.1-0.3,0.2c0.2,0.1,0.5,0.3,0.7,0.4c0.5,0.2,1,0.4,1.5,0.5
				c0.4,0.1,0.9,0.1,1.3,0.1c0.1,0,0.2,0,0.3,0c0,0.1-0.1,0.1-0.1,0.1c-0.2,0.1-0.4,0.1-0.6,0.1c-0.6,0-1.2-0.1-1.7-0.2
				c-0.7-0.2-1.5-0.5-2.1-0.9c-0.1,0-0.2-0.1-0.2-0.2c0,0,0-0.1,0-0.1c0.1,0,0.2-0.1,0.3-0.1c-0.3-0.1-0.6-0.1-0.9-0.2
				c-0.1,0-0.1,0-0.2-0.1c0-0.1,0-0.2,0.1-0.2c0.1-0.1,0.3-0.1,0.4-0.1c-0.1-0.1-0.2-0.1-0.4-0.1c-0.1,0-0.3-0.1-0.4-0.2
				c-0.1,0-0.1-0.1-0.1-0.2c0-0.1,0.1-0.1,0.2-0.1c0.2,0,0.3,0,0.5,0c0,0-0.1-0.1-0.1-0.1c-0.3-0.1-0.6-0.1-0.8-0.2
				c-0.1,0-0.2-0.1-0.2-0.2c0,0,0-0.1,0-0.1c0,0,0.1-0.1,0.1-0.1c0.2,0,0.4,0,0.7,0c-0.1-0.1-0.1-0.1-0.2-0.2
				c-0.2-0.1-0.4-0.2-0.6-0.3c-0.3-0.2-0.6-0.4-0.8-0.7c-0.1-0.1-0.2-0.2-0.3-0.4c0-0.1,0-0.2,0-0.2c0.1,0,0.2,0,0.2,0
				c0.3,0.1,0.6,0.3,0.9,0.4c-0.5-0.5-1.1-0.9-1.5-1.5c-0.2-0.2-0.4-0.4-0.4-0.7v-0.1c0,0,0-0.1,0.1-0.1c0.1,0,0.1,0,0.2,0
				c0.1,0.1,0.2,0.2,0.3,0.2c0.3,0.3,0.7,0.6,1,0.9c0.1,0.1,0.2,0.2,0.4,0.2c-0.1-0.1-0.2-0.3-0.2-0.4c-0.4-0.6-0.8-1.1-1.1-1.7
				c-0.2-0.4-0.4-0.8-0.5-1.3c0-0.2,0-0.4,0.1-0.6c0.1,0,0.2,0.1,0.2,0.2c0.5,0.7,0.8,1.4,1.3,2.1c0.1,0.1,0.2,0.3,0.3,0.4
				c0-0.1,0-0.2-0.1-0.2c-0.3-0.7-0.6-1.5-0.8-2.2c-0.1-0.2-0.1-0.4-0.1-0.7C11.8,20.6,11.8,20.5,11.8,20.5L11.8,20.5z"/>
			<path class="st1" d="M25.7,31c0-0.1,0.1-0.1,0.2-0.1c0.2,0,0.3,0.1,0.5,0.1c0.7,0.1,1.4,0.1,2,0.1c0.2,0,0.5,0,0.7,0.1
				c0,0,0.1,0,0.1,0c0,0.3-0.1,0.5-0.3,0.6c-0.3,0.2-0.7,0.2-1,0.1c0,0.1,0,0.3-0.1,0.4c-0.1,0.1-0.2,0.1-0.3,0.2
				c-0.2,0-0.5,0-0.7-0.1c-0.1,0.1-0.2,0.3-0.3,0.3c-0.1,0-0.3,0-0.4-0.1c-0.2,0.2-0.4,0.3-0.6,0.3c-0.1,0-0.2,0-0.4,0
				c-0.1,0.1-0.3,0.2-0.5,0.2c-0.1,0-0.3-0.1-0.4-0.1c-0.1,0.1-0.3,0.2-0.5,0.3h-0.2c-0.1,0-0.2-0.1-0.2-0.2
				c-0.1,0.1-0.2,0.1-0.3,0.1c-0.1,0-0.3,0-0.4-0.1c-0.1,0-0.1,0-0.2,0c-0.2,0-0.4,0.1-0.5,0.1c-0.1,0-0.1-0.1-0.2-0.1
				c-0.1,0.1-0.3,0.2-0.4,0.2c-0.1,0-0.2,0-0.3-0.1c-0.1-0.1-0.1-0.2,0-0.3c0.1-0.1,0.2-0.2,0.3-0.3c0.2-0.1,0.3-0.3,0.5-0.4
				c0,0,0.1,0,0.1,0c0.6,0.1,1.2,0.1,1.8-0.1c0.3-0.1,0.7-0.2,1-0.3c0.1,0,0.1-0.1,0.2-0.1c0.1,0,0.3,0,0.4,0c0-0.1,0-0.1,0-0.1
				c0,0,0.1-0.1,0.1-0.1c0.1,0,0.1-0.1,0.2-0.2C25.7,31.2,25.7,31.1,25.7,31L25.7,31z"/>
			<path class="st1" d="M33.4,23.4c0.3-0.4,0.5-0.9,0.7-1.4c0-0.1,0-0.3,0-0.5c0-0.1,0-0.1-0.1-0.2c0,0-0.1,0-0.1,0
				c-0.1,0.1-0.1,0.1-0.2,0.2c-0.6,0.8-1,1.7-1.6,2.5c-0.1,0.1-0.2,0.3-0.3,0.3c0-0.2,0.1-0.4,0.2-0.5c0.3-0.8,0.7-1.6,1-2.5
				c0.1-0.2,0.2-0.5,0.2-0.7c0-0.1,0-0.2-0.1-0.2c-0.1,0-0.2,0.1-0.2,0.2c-0.2,0.3-0.3,0.5-0.4,0.8c-0.2,0.5-0.4,1-0.7,1.4
				c0-0.5,0.1-1,0-1.6c0-0.1,0-0.2-0.1-0.2c-0.1-0.1-0.2-0.1-0.2,0c0,0.1,0,0.1,0,0.2c-0.1,1.5-0.7,2.9-1.5,4
				c-0.7,1-1.6,1.9-2.7,2.6c-1.1,0.8-2.4,1.3-3.8,1.5c-0.3,0-0.5,0.1-0.7,0.2c-0.3,0.2-0.6,0.4-0.9,0.6c-0.3,0.2-0.5,0.3-0.8,0.4
				c-0.4,0.1-0.8,0.2-1.1,0.5c-0.3,0.2-0.5,0.4-0.7,0.7c-0.1,0.1,0,0.3,0,0.4c0,0.1,0.1,0.2,0.2,0.2c0.1-0.1,0.1-0.2,0.1-0.3
				c0,0,0,0,0.1,0c0,0,0.1,0.1,0.1,0.1c0.1,0,0.2-0.1,0.3-0.1c0.1,0,0.2,0,0.3,0c1,0,2.1-0.1,3.1-0.1c0.2,0,0.5,0,0.7-0.2
				c0,0,0.1,0,0.1-0.1c0,0-0.1-0.1-0.1-0.1c-0.2,0-0.3,0-0.5,0c-0.8,0-1.5,0.1-2.3,0.1c-0.1,0-0.1,0-0.1-0.1
				c0.1-0.2,0.3-0.4,0.5-0.5c-0.1,0-0.3,0-0.4,0c-0.1,0-0.2,0.1-0.4,0.1c0.1-0.1,0.2-0.1,0.3-0.2c0.4-0.3,0.9-0.5,1.4-0.7
				c0.2-0.1,0.4-0.2,0.6-0.3c0.6-0.2,1.1-0.3,1.7-0.4c0.3,0,0.6-0.1,0.9-0.1c0.1,0,0.2,0,0.3-0.1c0.5-0.5,1-1,1.7-1.2
				c0.3-0.1,0.6-0.2,0.9-0.3c0.2-0.1,0.3-0.3,0.4-0.4c0.2-0.3,0.4-0.6,0.6-0.9c0.3-0.5,0.6-0.9,1-1.2c0.1-0.1,0.3-0.2,0.5-0.3
				c0,0.1,0.1,0.1,0.1,0.2c0.1-0.1,0.2-0.1,0.3-0.2c0,0.3-0.2,0.5-0.3,0.8c0,0.1,0,0.2,0,0.2c0.1,0,0.3,0,0.4,0
				c-0.1,0.3-0.4,0.5-0.6,0.7c0,0-0.1,0.1,0,0.2c0.1,0,0.2,0,0.3,0c0,0.1-0.1,0.1-0.2,0.2c-0.2,0.2-0.5,0.3-0.8,0.4
				c0,0-0.1,0.1-0.1,0.1c0,0.1,0.1,0.1,0.2,0.1c-0.2,0.1-0.4,0.2-0.6,0.3c0,0-0.1,0.1-0.1,0.1c0,0.1,0.1,0.1,0.1,0.2
				c-0.2,0.1-0.4,0.1-0.5,0.2c-0.1,0-0.1,0-0.1,0.1c0,0.1,0.1,0.2,0,0.2c0,0.1-0.1,0.1-0.1,0.1c-0.1,0-0.2,0-0.2,0
				c0,0-0.1,0.1-0.1,0.2c0,0.1,0.1,0.2,0.2,0.2c-0.1,0-0.2,0-0.3,0.1c-0.2,0.1-0.4,0.2-0.6,0.3c-0.1,0.1-0.3,0.1-0.4,0.1
				c-0.2,0-0.5,0.1-0.7,0.1c-0.3,0-0.5,0.1-0.8,0.1c0,0-0.1,0-0.1,0.1c0,0.1,0.1,0.1,0.2,0.1c0.5,0,1-0.1,1.5-0.1
				c0.5-0.1,1.1-0.2,1.6-0.3c0.2-0.1,0.5-0.1,0.7-0.2c0.1,0,0.2-0.1,0.2-0.2c0-0.1-0.1-0.1-0.1-0.1c-0.1,0-0.2-0.1-0.4-0.1
				c0.1-0.1,0.3-0.1,0.4-0.1c0.2,0,0.4,0,0.7-0.1c0.1,0,0.1-0.2,0-0.2c-0.1-0.1-0.3-0.1-0.4-0.1c0.2-0.1,0.4-0.1,0.6-0.1
				c0.2,0,0.3-0.1,0.5-0.2c0.1,0,0.1-0.2,0-0.2c-0.1-0.1-0.3,0-0.4-0.1c0,0,0.1-0.1,0.1-0.1c0.2-0.1,0.5-0.1,0.7-0.3
				c0.1-0.1,0.2-0.2,0.2-0.3c0-0.1-0.1-0.1-0.1-0.1c-0.2,0-0.3,0-0.5,0c0.1-0.1,0.2-0.1,0.3-0.2c0.2-0.1,0.4-0.2,0.5-0.4
				c0.2-0.1,0.4-0.3,0.5-0.5c0.1-0.1,0.2-0.2,0.3-0.4c0-0.1,0-0.2,0-0.2c-0.1,0-0.2,0-0.2,0c-0.2,0.1-0.4,0.2-0.6,0.3
				c-0.1,0.1-0.3,0.2-0.5,0.2c0-0.1,0.1-0.2,0.1-0.2c0.3-0.3,0.6-0.5,0.8-0.8c0.3-0.3,0.5-0.5,0.8-0.8c0.1-0.1,0.2-0.3,0.2-0.4
				c0-0.1,0-0.2-0.1-0.2c-0.1,0-0.3,0.1-0.4,0.2c-0.4,0.3-0.7,0.6-1.1,0.9c-0.1,0.1-0.2,0.2-0.3,0.2c0.1-0.2,0.2-0.3,0.3-0.5
				C32.8,24.3,33.1,23.9,33.4,23.4z M20.5,31.6c0,0.1-0.2,0.1-0.3,0.1c-0.1,0-0.1,0-0.2,0c-0.1,0,0-0.1,0-0.2
				c0.1-0.1,0.2-0.1,0.3-0.2c0.1,0,0.1,0,0.2,0C20.6,31.5,20.6,31.6,20.5,31.6z"/>
			<g>
				<path class="st1" d="M22.5,13.8c-0.3,0-0.4-0.2-0.4-0.4c0-0.3,0.4-1.7,0.4-1.7s0.4,1.4,0.4,1.7C22.9,13.7,22.8,13.8,22.5,13.8z"
					/>
				<path class="st1" d="M21.4,13.9c-0.3,0.1-0.4-0.1-0.5-0.3c-0.1-0.3,0.1-1.7,0.1-1.7s0.7,1.3,0.7,1.6
					C21.8,13.7,21.7,13.9,21.4,13.9z"/>
				<path class="st1" d="M20.4,14.2c-0.3,0.1-0.4,0-0.5-0.2c-0.1-0.3-0.3-1.7-0.3-1.7s0.9,1.2,1,1.4C20.7,13.9,20.6,14.1,20.4,14.2z
					"/>
				<path class="st1" d="M19.4,14.8c-0.2,0.1-0.4,0.1-0.6-0.1c-0.2-0.2-0.6-1.6-0.6-1.6s1.1,1,1.3,1.2
					C19.6,14.4,19.6,14.6,19.4,14.8z"/>
				<path class="st1" d="M18.5,15.5c-0.2,0.2-0.4,0.2-0.6,0C17.7,15.3,17,14,17,14s1.3,0.7,1.5,0.9C18.7,15.1,18.7,15.3,18.5,15.5z"
					/>
				<path class="st1" d="M17.8,16.3c-0.2,0.2-0.4,0.3-0.6,0.1C17,16.3,16,15.2,16,15.2s1.4,0.4,1.6,0.6C17.9,15.9,18,16.1,17.8,16.3
					z"/>
				<path class="st1" d="M17.3,17.3c-0.1,0.3-0.3,0.3-0.6,0.2c-0.3-0.1-1.4-1-1.4-1s1.5,0.2,1.7,0.3C17.3,16.9,17.4,17.1,17.3,17.3z
					"/>
				<path class="st1" d="M16.9,18.4c-0.1,0.3-0.2,0.4-0.5,0.3c-0.3-0.1-1.6-0.7-1.6-0.7s1.5-0.1,1.7-0.1C16.9,18,17,18.1,16.9,18.4z
					"/>
				<path class="st1" d="M16.8,19.5c0,0.3-0.2,0.4-0.4,0.4c-0.3,0-1.7-0.4-1.7-0.4s1.4-0.4,1.7-0.4C16.7,19.1,16.8,19.2,16.8,19.5z"
					/>
				<path class="st1" d="M16.9,20.6c0.1,0.3-0.1,0.4-0.3,0.5c-0.3,0.1-1.7-0.1-1.7-0.1s1.3-0.7,1.6-0.7
					C16.7,20.2,16.9,20.3,16.9,20.6z"/>
				<path class="st1" d="M17.3,21.7c0.1,0.3,0,0.4-0.2,0.5c-0.3,0.1-1.7,0.3-1.7,0.3s1.2-0.9,1.4-1C17,21.4,17.2,21.4,17.3,21.7z"/>
				<path class="st1" d="M17.8,22.7c0.2,0.2,0.1,0.4-0.1,0.6c-0.2,0.2-1.6,0.6-1.6,0.6s1-1.1,1.2-1.3C17.4,22.4,17.6,22.4,17.8,22.7
					z"/>
				<path class="st1" d="M18.5,23.5c0.2,0.2,0.2,0.4,0,0.6C18.3,24.3,17,25,17,25s0.7-1.3,0.9-1.5C18.1,23.3,18.3,23.3,18.5,23.5z"
					/>
				<path class="st1" d="M19.4,24.2c0.2,0.2,0.3,0.4,0.1,0.6C19.3,25,18.2,26,18.2,26s0.4-1.4,0.6-1.6
					C18.9,24.1,19.1,24.1,19.4,24.2z"/>
				<path class="st1" d="M20.3,24.8c0.3,0.1,0.3,0.3,0.2,0.6c-0.1,0.3-1,1.4-1,1.4s0.2-1.5,0.3-1.7C19.9,24.7,20.1,24.6,20.3,24.8z"
					/>
				<path class="st1" d="M21.4,25.1c0.3,0.1,0.4,0.2,0.3,0.5c-0.1,0.3-0.7,1.6-0.7,1.6s-0.1-1.5-0.1-1.7C21,25.1,21.1,25,21.4,25.1z
					"/>
				<path class="st1" d="M22.5,25.2c0.3,0,0.4,0.2,0.4,0.4c0,0.3-0.4,1.7-0.4,1.7s-0.4-1.4-0.4-1.7C22.1,25.3,22.2,25.2,22.5,25.2z"
					/>
				<path class="st1" d="M23.6,25.1c0.3-0.1,0.4,0.1,0.5,0.3c0.1,0.3-0.1,1.7-0.1,1.7s-0.7-1.3-0.7-1.6
					C23.3,25.3,23.4,25.1,23.6,25.1z"/>
				<path class="st1" d="M24.7,24.8c0.3-0.1,0.4,0,0.5,0.2c0.1,0.3,0.3,1.7,0.3,1.7s-0.9-1.2-1-1.4C24.4,25.1,24.4,24.9,24.7,24.8z"
					/>
				<path class="st1" d="M25.7,24.2c0.2-0.2,0.4-0.1,0.6,0.1c0.2,0.2,0.6,1.6,0.6,1.6s-1.1-1-1.3-1.2C25.4,24.6,25.4,24.4,25.7,24.2
					z"/>
				<path class="st1" d="M26.5,23.5c0.2-0.2,0.4-0.2,0.6,0C27.3,23.7,28,25,28,25s-1.3-0.7-1.5-0.9C26.4,23.9,26.3,23.7,26.5,23.5z"
					/>
				<path class="st1" d="M27.2,22.7c0.2-0.2,0.3-0.3,0.6-0.1c0.2,0.2,1.2,1.3,1.2,1.3s-1.4-0.5-1.6-0.6
					C27.1,23.1,27.1,22.9,27.2,22.7z"/>
				<path class="st1" d="M27.8,21.7c0.1-0.3,0.3-0.3,0.6-0.2c0.3,0.1,1.4,1,1.4,1s-1.5-0.2-1.7-0.3C27.8,22.1,27.7,21.9,27.8,21.7z"
					/>
				<path class="st1" d="M28.1,20.6c0.1-0.3,0.2-0.4,0.5-0.3c0.3,0,1.6,0.7,1.6,0.7s-1.5,0.1-1.7,0.1C28.2,21,28,20.9,28.1,20.6z"/>
				<path class="st1" d="M28.2,19.5c0-0.3,0.2-0.4,0.4-0.4s1.7,0.4,1.7,0.4s-1.4,0.4-1.7,0.4S28.2,19.8,28.2,19.5z"/>
				<path class="st1" d="M28.1,18.4c-0.1-0.3,0.1-0.4,0.3-0.5c0.3-0.1,1.7,0.1,1.7,0.1s-1.3,0.7-1.6,0.7
					C28.3,18.8,28.2,18.7,28.1,18.4z"/>
				<path class="st1" d="M27.8,17.3c-0.1-0.3,0-0.4,0.2-0.5c0.3-0.1,1.7-0.3,1.7-0.3s-1.2,0.9-1.4,1C28.1,17.6,27.9,17.6,27.8,17.3z
					"/>
				<path class="st1" d="M27.3,16.3c-0.2-0.2-0.1-0.4,0.1-0.6c0.2-0.2,1.6-0.6,1.6-0.6s-1,1.1-1.2,1.3
					C27.6,16.6,27.4,16.6,27.3,16.3z"/>
				<path class="st1" d="M26.5,15.5c-0.2-0.2-0.2-0.4,0-0.6c0.2-0.2,1.5-0.9,1.5-0.9s-0.7,1.3-0.9,1.5
					C26.9,15.7,26.7,15.7,26.5,15.5z"/>
				<path class="st1" d="M25.7,14.8c-0.2-0.1-0.3-0.3-0.1-0.6c0.2-0.2,1.3-1.2,1.3-1.2s-0.5,1.4-0.6,1.6
					C26.1,14.9,25.9,14.9,25.7,14.8z"/>
				<path class="st1" d="M24.7,14.3c-0.3-0.1-0.3-0.3-0.2-0.6c0.1-0.3,1-1.4,1-1.4s-0.2,1.5-0.3,1.7C25.1,14.3,25,14.4,24.7,14.3z"
					/>
				<path class="st1" d="M23.6,13.9c-0.3-0.1-0.4-0.2-0.3-0.5c0.1-0.3,0.7-1.6,0.7-1.6s0.1,1.5,0.1,1.7C24.1,13.9,23.9,14,23.6,13.9
					z"/>
				<path class="st1" d="M27.5,19.5c0,2.8-2.2,5-5,5c-2.8,0-5-2.2-5-5s2.2-5,5-5C25.3,14.5,27.5,16.7,27.5,19.5z"/>
			</g>
		</g>
	</g>
</g>
</svg>
