<?xml version="1.0" encoding="utf-8"?>
<!-- Generator: Adobe Illustrator 22.1.0, SVG Export Plug-In . SVG Version: 6.00 Build 0)  -->
<svg version="1.1" id="Layer_1" xmlns="http://www.w3.org/2000/svg" xmlns:xlink="http://www.w3.org/1999/xlink" x="0px" y="0px"
	 viewBox="0 0 45 45" style="enable-background:new 0 0 45 45;" xml:space="preserve">
<style type="text/css">
	.st0{fill:#006600;}
	.st1{fill:#BB0000;}
	.st2{fill:#FFFFFF;}
</style>
<g>
	<g>
		<g>
			<path class="st0" d="M2.8,42.2C5.6,45,8.4,45,14.1,45h16.9c5.6,0,8.4,0,11.2-2.8C45,39.4,45,36.6,45,30.9H0
				C0,36.6,0,39.4,2.8,42.2z"/>
			<path d="M42.2,2.8C39.4,0,36.6,0,30.9,0H14.1C8.4,0,5.6,0,2.8,2.8C0,5.6,0,8.4,0,14.1l0,0h45C45,8.4,45,5.6,42.2,2.8z"/>
			<rect y="14.1" class="st1" width="45" height="16.9"/>
			<path class="st2" d="M45,14.1c0-0.3,0-0.7,0-1H0c0,0.3,0,0.7,0,1v1h45V14.1z"/>
			<path class="st2" d="M45,30H0v1c0,0.3,0,0.7,0,1h45c0-0.3,0-0.7,0-1V30z"/>
		</g>
		<g>
			<path class="st1" d="M16.6,29.1L16.6,29.1c0.8-2.2,1.3-4.4,1.3-6.6s-0.5-4.4-1.3-6.6h0C18.2,20.4,18.2,24.6,16.6,29.1z"/>
			<path class="st1" d="M28.4,15.9L28.4,15.9c-0.8,2.2-1.3,4.4-1.3,6.6s0.5,4.4,1.3,6.6h0C26.8,24.6,26.8,20.4,28.4,15.9z"/>
			<path class="st2" d="M16.7,15.9c-0.1-0.3-0.2-0.6-0.3-0.9C16.4,15.3,16.5,15.6,16.7,15.9L16.7,15.9z"/>
			<path class="st2" d="M28.4,15.9c0.1-0.3,0.2-0.6,0.3-0.9C28.6,15.3,28.5,15.6,28.4,15.9L28.4,15.9z"/>
			<path class="st2" d="M28.2,13.6H28c0,0.1,0.1,0.1,0.1,0.2L28.2,13.6z"/>
			<path class="st2" d="M17,13.6h-0.2l0.1,0.2C16.9,13.7,17,13.6,17,13.6z"/>
			<path class="st2" d="M16.6,29.1c-0.1,0.3-0.2,0.6-0.3,0.9C16.4,29.7,16.5,29.4,16.6,29.1L16.6,29.1z"/>
			<path class="st2" d="M28.3,29.1c0.1,0.3,0.2,0.6,0.3,0.9C28.6,29.7,28.5,29.4,28.3,29.1L28.3,29.1z"/>
			<path class="st2" d="M31.2,38.7l0.6-0.3l-4-6.6c-0.1,0.2-0.2,0.4-0.4,0.6L31.2,38.7z"/>
			<path class="st2" d="M13.2,38.4l0.6,0.3l3.8-6.3c-0.1-0.2-0.3-0.4-0.4-0.6L13.2,38.4z"/>
			<path class="st2" d="M28.4,14.5l0.5-0.9c0,0,0,0,0.1,0c0.9-0.2,1.3-1,1.8-1.8c0.3-0.5,2.2-5.5,2.2-5.5s-3.5,4-3.9,4.6
				c-0.5,0.8-1,1.6-0.7,2.5l-0.2,0.3l-0.1,0.2C28.2,14,28.3,14.3,28.4,14.5z"/>
			<path class="st2" d="M16.8,13.6l-0.2-0.3c0.2-0.8-0.2-1.7-0.7-2.5C15.5,10.3,12,6.3,12,6.3s1.9,4.9,2.2,5.5
				c0.5,0.8,1,1.6,1.8,1.8c0,0,0,0,0.1,0l0.5,0.9c0.1-0.2,0.2-0.4,0.3-0.7L16.8,13.6z"/>
			<path class="st1" d="M28.7,30c-0.1-0.3-0.2-0.6-0.3-0.9c-0.8-2.2-1.3-4.4-1.3-6.6s0.5-4.4,1.3-6.6c0.1-0.3,0.2-0.6,0.3-0.9
				c-0.1-0.2-0.2-0.4-0.2-0.6c-0.1-0.2-0.2-0.4-0.3-0.7c0-0.1-0.1-0.1-0.1-0.2c-1.3-2.4-3.5-5.5-5.2-5.9c1.9,3.8,1.8,9.2,0,13
				c0-4.3,0-8.7,0-13c-0.1,0-0.2,0-0.3,0c-0.1,0-0.2,0-0.3,0c0,4.3,0,8.7,0,13c-1.9-3.8-1.9-9.2,0-13c-1.6,0.4-3.9,3.5-5.2,5.9
				c0,0.1-0.1,0.1-0.1,0.2c-0.1,0.2-0.2,0.5-0.3,0.7c-0.1,0.2-0.2,0.4-0.2,0.6c0.1,0.3,0.2,0.6,0.3,0.9c0.8,2.2,1.3,4.4,1.3,6.6
				s-0.5,4.4-1.3,6.6c-0.1,0.3-0.2,0.6-0.3,0.9c0.2,0.4,0.4,0.9,0.7,1.5c0.1,0.1,0.1,0.2,0.2,0.4c0.1,0.2,0.2,0.4,0.4,0.6
				c1.3,2.2,3.2,4.6,4.6,4.9c-1.9-3.8-1.9-9.2,0-13c0,4.3,0,8.7,0,13c0.1,0,0.2,0,0.3,0c0.1,0,0.2,0,0.3,0c0-4.3,0-8.7,0-13
				c1.8,3.8,1.9,9.2,0,13c1.4-0.3,3.3-2.7,4.6-4.9c0.1-0.2,0.2-0.4,0.4-0.6c0.1-0.1,0.1-0.2,0.2-0.4C28.3,30.9,28.5,30.4,28.7,30z
				 M22.5,24.4c-1.8,0-1.8-3.7,0-3.7C24.3,20.6,24.3,24.4,22.5,24.4z"/>
			<path d="M28.4,29.1c0.1,0.3,0.2,0.6,0.3,0.9c0.1-0.3,0.2-0.6,0.3-0.9c1.6-4.5,1.6-8.7,0-13.2c-0.1-0.3-0.2-0.6-0.3-0.9
				c-0.1,0.3-0.2,0.6-0.3,0.9C26.8,20.4,26.8,24.6,28.4,29.1z"/>
			<path d="M16.6,15.9c-0.1-0.3-0.2-0.6-0.3-0.9c-0.1,0.3-0.2,0.6-0.3,0.9c-1.6,4.5-1.6,8.7,0,13.2c0.1,0.3,0.2,0.6,0.3,0.9
				c0.1-0.3,0.2-0.6,0.3-0.9C18.2,24.6,18.2,20.4,16.6,15.9z"/>
			<path class="st2" d="M22.5,20.6c-1.8,0-1.8,3.7,0,3.7C24.3,24.4,24.3,20.6,22.5,20.6z"/>
			<path class="st2" d="M22.8,24.3c0,4.3,0,8.7,0,13l0,0l0,0C24.7,33.5,24.7,28.1,22.8,24.3z"/>
			<path class="st2" d="M22.2,20.7c0-4.3,0-8.7,0-13v0v0C20.3,11.5,20.3,16.9,22.2,20.7z"/>
			<path class="st2" d="M22.2,24.3c-1.9,3.8-1.9,9.2,0,13l0,0l0,0C22.2,33,22.2,28.7,22.2,24.3z"/>
			<path class="st2" d="M22.8,20.7c1.8-3.8,1.9-9.2,0-13v0v0C22.8,12,22.8,16.3,22.8,20.7z"/>
		</g>
	</g>
</g>
</svg>
