<?xml version="1.0" encoding="utf-8"?>
<!-- Generator: Adobe Illustrator 22.1.0, SVG Export Plug-In . SVG Version: 6.00 Build 0)  -->
<svg version="1.1" id="Layer_1" xmlns="http://www.w3.org/2000/svg" xmlns:xlink="http://www.w3.org/1999/xlink" x="0px" y="0px"
	 viewBox="0 0 45 45" style="enable-background:new 0 0 45 45;" xml:space="preserve">
<style type="text/css">
	.st0{fill:#A12830;}
	.st1{fill:#FFFFFF;}
</style>
<g>
	<g>
		<path class="st0" d="M0,27v3.9c0,2,0,3.6,0.1,5.1c0.2,2.6,0.9,4.4,2.7,6.2C5.6,45,8.4,45,14.1,45h16.9c5.6,0,8.4,0,11.3-2.8
			c1.8-1.8,2.5-3.6,2.7-6.2c0.1-1.4,0.1-3.1,0.1-5.1V27H0z"/>
		<rect y="18" class="st1" width="45" height="9"/>
		<path class="st0" d="M44.9,9c-0.2-2.6-0.9-4.4-2.7-6.2C39.4,0,36.6,0,30.9,0H14.1C8.4,0,5.6,0,2.8,2.8C1,4.6,0.4,6.4,0.1,9
			C0,10.4,0,12.1,0,14.1V18h45v-3.9C45,12.1,45,10.4,44.9,9z"/>
	</g>
</g>
</svg>
