<?xml version="1.0" encoding="utf-8"?>
<!-- Generator: Adobe Illustrator 22.1.0, SVG Export Plug-In . SVG Version: 6.00 Build 0)  -->
<svg version="1.1" id="Layer_1" xmlns="http://www.w3.org/2000/svg" xmlns:xlink="http://www.w3.org/1999/xlink" x="0px" y="0px"
	 viewBox="0 0 100 100" style="enable-background:new 0 0 100 100;" xml:space="preserve">
<style type="text/css">
	.st0{fill:#19344C;}
	.st1{fill:#FFD700;}
	.st2{fill:#F9CF00;}
	.st3{fill:#FFDC00;}
	.st4{fill:#FFCC00;}
	.st5{fill:#C60A0A;}
</style>
<g>
	<path class="st0" d="M68.8,0H31.3c-12.5,0-18.8,0-25,6.2C0,12.5,0,18.7,0,31.2V50h100V31.2c0-12.5,0-18.7-6.3-25
		C87.5,0,81.3,0,68.8,0z M39.9,32.3c0,0.1-0.1,0.2-0.1,0.3c-0.6,2-2.1,2.8-4.1,3.1c-3.6,0.5-7.2,0.7-10.9,0.5
		c-2.2-0.1-4.4-0.5-6.6-0.8c-1.1-0.2-1.9-0.8-2.4-1.9c-0.5-1.1-0.9-2.2-1.4-3.2c-0.5-1.1-1.2-2.2-1.8-3.3c0.3-0.2,0.7-0.4,1.1-0.7
		c-0.5-0.4-0.6-0.9-0.2-1.5c-0.6-0.4-0.4-0.9-0.4-1.5c0-0.8,0.2-1.4,0.3-2.2c0.1-0.9,0-1.1,0.9-1.4c-0.1-0.9,0.1-1.2,1.2-1.2
		c0.2-0.7,0.6-1.2,1.4-0.9c0.1,0,0.3-0.1,0.3-0.2c0.5-0.6,1-0.6,1.5-0.1c0.8-0.5,1.1-0.5,1.7,0.1c0.8-0.4,1.2-0.4,1.7,0.3
		c0.9-0.5,1.2-0.4,1.7,0.4c0.8-0.5,1-0.4,1.7,0.3c0.2-0.1,0.3-0.2,0.5-0.3c-0.4-0.9-0.2-1.7,0.5-2.4c0.3-0.3,0.4-0.9,0.5-1.4
		c0,0-0.3-0.2-0.3-0.2c-1,0.8-1.4-0.2-2.3-0.5c0.9-0.5,1.4-1.5,2.5-0.3c0-0.1,0-0.2,0-0.3c-0.1-0.5-0.4-1-0.3-1.5
		c0.1-0.5,0.5-0.9,0.7-1.4c0.8,0.9,1.4,1.8,0.3,3c0.7-0.2,1.1-0.4,1.5-0.3c0.4,0.1,0.8,0.4,1.1,0.7c-0.4,0.8-1.2,1.1-1.9,0.7
		c-0.1-0.1-0.2,0-0.4-0.1c0,0.1,0,0.3,0,0.4c0.4,0.6,0.4,1.3,0.9,1.9c0.2,0.3,0.2,0.9,0.1,1.3c-0.2,0.5,0.1,0.6,0.4,0.7
		c0.4-0.7,0.9-0.7,1.6-0.4c0.6-0.7,1-0.8,1.7-0.4c0.4-0.3,0.6-0.5,0.9-0.5c0,0,0,0,0,0c0,0,0,0,0,0c0.2,0,0.5,0.1,0.8,0.3
		c0.7-0.6,1.1-0.6,1.7,0c0.8-0.6,1.2-0.5,1.7,0.3c0.9-0.3,1.3-0.1,1.6,0.8c1,0.1,1.2,0.2,1.2,1.3c1,0.3,1.1,0.7,0.7,1.6
		c0.8,0.7,0.8,1,0.3,1.8c0.5,0.9,0.5,1.1-0.2,1.8c0.4,0.5,0.3,1-0.2,1.5c0.4,0.3,0.8,0.5,1.3,0.8C41.2,28.5,40.7,30.5,39.9,32.3z"/>
	<path class="st0" d="M29.9,13.4c-0.1-0.1-0.1-0.1-0.2-0.2C29.8,13.3,29.8,13.3,29.9,13.4L29.9,13.4z"/>
	<path class="st0" d="M29.1,13c0.1,0,0.3,0,0.4,0.1C29.3,13,29.2,13,29.1,13z"/>
	<path d="M41.6,24.7c0.7-0.7,0.7-0.9,0.2-1.8c0.6-0.8,0.5-1.1-0.3-1.8c0.4-0.9,0.2-1.2-0.7-1.6c-0.1-1.1-0.2-1.2-1.2-1.3
		c-0.3-0.9-0.6-1.1-1.6-0.8c-0.5-0.8-0.9-0.9-1.7-0.3c-0.7-0.6-1-0.6-1.7,0c-0.3-0.2-0.6-0.3-0.8-0.3c0.3,0.4,0.6,0.6,0.6,0.8
		c0,0.2-0.3,0.6-0.5,0.5c-0.2,0-0.6-0.3-0.6-0.5c0-0.2,0.2-0.5,0.5-0.9c-0.3,0-0.5,0.2-0.9,0.5c-0.7-0.4-1.1-0.3-1.7,0.4
		c-0.6-0.3-1.2-0.3-1.6,0.4c-0.3-0.1-0.6-0.2-0.4-0.7c0.1-0.4,0.1-1-0.1-1.3c-0.5-0.6-0.5-1.3-0.9-1.9c-0.1-0.1,0-0.3,0-0.4
		c0.1,0,0.3,0,0.4,0.1c0.7,0.4,1.5,0.1,1.9-0.7c-0.4-0.2-0.7-0.6-1.1-0.7c-0.4-0.1-0.8,0.2-1.5,0.3c1.1-1.2,0.5-2.1-0.3-3
		c-0.3,0.5-0.7,1-0.7,1.4c-0.1,0.5,0.2,1,0.3,1.5c0,0.1,0,0.2,0,0.3c-1.1-1.2-1.7-0.2-2.5,0.3c0.8,0.4,1.3,1.3,2.3,0.5
		c0,0,0.3,0.2,0.3,0.2c-0.1,0.5-0.2,1.1-0.5,1.4c-0.7,0.7-0.9,1.5-0.5,2.4c-0.2,0.1-0.4,0.2-0.5,0.3c-0.7-0.7-0.9-0.8-1.7-0.3
		c-0.4-0.8-0.8-0.9-1.7-0.4c-0.5-0.6-0.9-0.7-1.7-0.3c-0.6-0.6-0.9-0.6-1.7-0.1c-0.5-0.5-1-0.5-1.5,0.1c-0.1,0.1-0.2,0.2-0.3,0.2
		c-0.8-0.3-1.2,0.2-1.4,0.9c-1,0.1-1.3,0.4-1.2,1.2c-0.9,0.3-0.8,0.5-0.9,1.4c-0.1,0.7-0.3,1.4-0.3,2.2c0,0.6-0.2,1.1,0.4,1.5
		c-0.4,0.6-0.3,1.1,0.2,1.5c-0.4,0.3-0.8,0.5-1.1,0.7c0.6,1.2,1.2,2.2,1.8,3.3c0.5,1.1,0.9,2.1,1.4,3.2c0.5,1,1.2,1.7,2.4,1.9
		c2.2,0.3,4.4,0.7,6.6,0.8c3.6,0.2,7.2,0,10.9-0.5c2-0.3,3.5-1.1,4.1-3.1c0-0.1,0.1-0.2,0.1-0.3c0.8-1.8,1.3-3.7,2.8-5.2
		c-0.5-0.3-0.9-0.6-1.3-0.8C41.9,25.8,42,25.3,41.6,24.7z M26.7,13.6c-0.5,0.6-1,0.3-1.5-0.1c0.5-0.5,0.9-0.8,1.4-0.3
		C26.7,13.3,26.8,13.5,26.7,13.6z M40.8,26c-0.2-0.2-0.5-0.4-0.5-0.6c0-0.2,0.3-0.4,0.7-0.8c0.2,0.4,0.4,0.7,0.4,0.8
		C41.3,25.6,41,25.8,40.8,26z M42,23.8c-0.4,0.3-0.6,0.6-0.8,0.5c-0.2,0-0.4-0.4-0.6-0.6c0.2-0.2,0.4-0.5,0.7-0.5
		C41.5,23.3,41.7,23.6,42,23.8z M41.8,22.2c0,0.2-0.3,0.4-0.6,0.7c-0.3-0.4-0.6-0.6-0.5-0.8c0.1-0.2,0.4-0.4,0.6-0.6
		C41.4,21.8,41.8,22,41.8,22.2z M40.8,20.1c0.2,0.1,0.5,0.4,0.6,0.6c0,0.1-0.3,0.4-0.6,0.7c-0.3-0.4-0.6-0.6-0.5-0.8
		C40.2,20.4,40.6,20,40.8,20.1z M39.8,18.8c0.2,0,0.5,0.2,0.9,0.5c-0.4,0.3-0.7,0.6-0.9,0.5c-0.2,0-0.5-0.3-0.5-0.6
		C39.3,19.1,39.7,18.8,39.8,18.8z M38.6,17.7c0.2,0.2,0.5,0.4,0.5,0.6c0,0.2-0.3,0.5-0.5,0.7c-0.1,0-0.2,0-0.3,0
		c-0.1-0.2-0.3-0.5-0.3-0.6C38.2,18.1,38.4,17.9,38.6,17.7z M37.1,17.2c0.2,0,0.4,0.3,0.8,0.6c-0.4,0.3-0.6,0.6-0.9,0.6
		c-0.2,0-0.5-0.4-0.5-0.6C36.5,17.6,36.8,17.3,37.1,17.2z M35.3,17.1c0.1,0,0.2,0,0.3,0c0.2,0.2,0.4,0.5,0.4,0.7
		c0,0.2-0.3,0.3-0.5,0.5c-0.2-0.2-0.5-0.4-0.5-0.7C34.9,17.5,35.1,17.3,35.3,17.1z M32.1,17.3c0.3,0.4,0.6,0.7,0.6,0.8
		c-0.1,0.2-0.4,0.5-0.6,0.6c-0.2,0-0.6-0.3-0.6-0.5C31.5,18,31.8,17.7,32.1,17.3z M30.5,18.1c0.2,0,0.5,0.2,0.9,0.5
		c-0.4,0.3-0.7,0.6-0.9,0.5c-0.2,0-0.5-0.3-0.5-0.6C29.9,18.4,30.3,18.1,30.5,18.1z M29.6,19.8c2.1-0.5,4.2-1.1,6.5-1.1
		c2.5,0,4.8,2.4,4.1,5.1c-0.1,0.4-0.1,0.7-0.2,1.1c-0.2,1.2-0.3,1.2-1.3,1.4c0.2-1.2,0.5-2.4,0.6-3.7c0.1-1.8-1.2-2.8-2.6-3.1
		c-2-0.4-3.9,0.2-5.8,0.7c-0.5,0.1-1,0.2-1.5,0.4C29.2,20.2,29.2,19.9,29.6,19.8z M38.2,26.1c0-1.8,0-3.6,0-5.4
		C39,21.3,39,24.9,38.2,26.1z M38,26c0,0.2-0.2,0.4-0.3,0.6c-0.1,0-0.1-0.1-0.2-0.1c0-2.1,0-4.2,0-6.2c0.1,0,0.1-0.1,0.2-0.1
		c0.1,0.3,0.3,0.5,0.3,0.8C38,22.6,38,24.3,38,26z M37.3,26.3c-0.1,0-0.1,0.1-0.2,0.1c-0.1-0.2-0.3-0.5-0.3-0.7c0-1.9,0-3.9,0-5.8
		c0.1,0,0.1-0.1,0.2-0.1c0.1,0.2,0.4,0.3,0.4,0.5C37.3,22.3,37.3,24.3,37.3,26.3z M36.4,19.7c0,2,0,4,0,6c-0.1,0-0.1,0.1-0.2,0.1
		c-0.1-0.3-0.3-0.6-0.4-0.9c0-1.6,0-3.1,0-4.7c0-0.2,0.2-0.4,0.3-0.6C36.3,19.7,36.4,19.7,36.4,19.7z M35.7,19.8c0,1.8,0,3.5,0,5.3
		c-0.1,0-0.1,0.1-0.2,0.1c-0.1-0.2-0.3-0.5-0.4-0.7c0-1.5,0-2.9,0-4.4c0-0.2,0.2-0.3,0.3-0.5C35.6,19.7,35.7,19.8,35.7,19.8z
		 M35,20.1c0,1.5,0,2.9,0,4.4c0,0.2-0.2,0.3-0.3,0.5c-0.1-0.1-0.1-0.1-0.2-0.2c0-1.7,0-3.3,0-5.1C34.9,19.6,35,19.7,35,20.1z
		 M34.3,24.6c0,0.2-0.2,0.4-0.3,0.6c-0.1,0-0.2-0.1-0.2-0.1c0-1.6,0-3.3,0-4.9c0-0.1,0.3-0.2,0.4-0.4c0.1,0.1,0.1,0.1,0.2,0.2
		C34.3,21.5,34.3,23,34.3,24.6z M33.6,20.1c0,1.6,0,3.2,0,4.7c0,0.2-0.2,0.3-0.3,0.5c-0.1,0-0.2-0.1-0.2-0.1c0-1.6,0-3.2,0-4.7
		c0-0.2,0.2-0.3,0.3-0.5C33.5,20,33.5,20,33.6,20.1z M32.2,20.9c0-0.2,0.2-0.4,0.3-0.6c0.1,0,0.2,0.1,0.3,0.1c0,1.6,0,3.2,0,4.8
		c0,0.1-0.2,0.3-0.3,0.4c-0.1,0-0.2-0.1-0.2-0.1c0-0.5,0-1.1,0-1.6C32.2,22.9,32.2,21.9,32.2,20.9z M32,25.1c0,0.2-0.2,0.4-0.3,0.6
		c-0.1,0-0.1-0.1-0.2-0.1c0-1.5,0-3,0-4.5c0-0.2,0.2-0.4,0.4-0.6c0.1,0,0.1,0.1,0.2,0.1C32.1,22.2,32.1,23.6,32,25.1z M31.3,21.1
		c0,1.5,0,3,0,4.5c-0.1,0-0.2,0.1-0.2,0.1c-0.1-0.2-0.3-0.4-0.3-0.7C30.8,21,30.6,21.2,31.3,21.1z M30.6,21.7c0,1.2,0,2.5,0,3.8
		C29.8,24.8,29.9,22.2,30.6,21.7z M27.8,19.5c-0.2-0.1-0.5-0.1-0.7-0.2c0-0.1,0-0.2,0-0.4c0.3,0,0.5-0.1,0.8-0.1
		C27.8,19.1,27.8,19.3,27.8,19.5z M27.9,20.3c0,0.1-0.2,0.3-0.3,0.4c-0.2-0.2-0.4-0.3-0.5-0.5c0-0.1,0.2-0.3,0.4-0.5
		C27.7,20,27.9,20.1,27.9,20.3z M27.5,21c0.2,0,0.4,0.2,0.8,0.4c-0.3,0.3-0.6,0.5-0.7,0.5c-0.2,0-0.4-0.3-0.5-0.5
		C27.1,21.3,27.4,21,27.5,21z M26.2,17.5c0.9,0,1.7,0,2.6,0c0.1,0.6-0.4,0.8-0.8,0.9C27.4,18.7,26.8,18.4,26.2,17.5z M26.9,24.1
		c0.2-0.2,0.5-0.5,0.7-0.5c0.3,0.1,0.5,0.4,0.7,0.6c-0.2,0.2-0.4,0.5-0.6,0.6c-0.2,0-0.5-0.3-0.7-0.4C26.9,24.3,26.9,24.2,26.9,24.1
		z M26.4,24.5c-0.1,0.8-0.8,0.6-0.9,0.8c0.2-1.5,0.4-3.2,0.6-4.9c0.1-0.6,0.3-0.7,0.9-0.5C26.8,21.5,26.5,23,26.4,24.5z M27.6,23.3
		C27.3,23.3,27,23,27,22.8c0-0.2,0.3-0.5,0.6-0.6c0.2,0,0.4,0.3,0.8,0.6C28,23.1,27.7,23.4,27.6,23.3z M28.2,19.9c0.3,0,0.5,0,0.7,0
		c0.3,1.8,0.6,3.6,0.9,5.5c-1-0.1-1-0.9-1.1-1.6C28.5,22.5,28.3,21.2,28.2,19.9z M29.5,18.9c0,0.2-0.4,0.4-0.6,0.6
		c-0.2-0.2-0.4-0.4-0.5-0.6c0-0.2,0.3-0.4,0.5-0.7C29.1,18.5,29.5,18.8,29.5,18.9z M29.1,13c0.1,0,0.3,0,0.4,0.1
		c0.1,0,0.1,0.1,0.2,0.1c0.1,0.1,0.1,0.1,0.2,0.2l0,0h0c-0.1,0.1-0.2,0.2-0.2,0.2c-0.5,0.5-0.8,0.4-1.4-0.2
		C28.5,13.1,28.8,12.9,29.1,13z M28.1,13.4c-0.3,0.2-0.4,0.5-0.5,0.4c-0.2-0.1-0.3-0.3-0.5-0.4c0.1-0.1,0.2-0.4,0.4-0.4
		C27.7,13.1,27.8,13.3,28.1,13.4z M27.6,10.7c0.7,0.9,0.7,1.1,0,1.9C26.9,11.8,26.9,11.6,27.6,10.7z M27.6,14.1
		c0.2,0.5,0.4,0.9,0.6,1.4c-0.5,0-0.9-0.1-1.4-0.1C27.1,14.9,27.3,14.5,27.6,14.1z M26.1,17.3c0.2-0.2,0.3-0.5,0.4-0.5
		c0.6,0,0.9-0.3,0.8-0.9c0.8-0.3,0.4,0.5,0.7,0.7c0.2,0.4,1.1-0.2,1,0.7C28,17.3,27.2,17.3,26.1,17.3z M26.2,18.4
		c0.2,0.2,0.5,0.4,0.6,0.6c0,0.1-0.2,0.4-0.5,0.8c-0.3-0.4-0.5-0.6-0.6-0.8C25.7,18.8,26,18.6,26.2,18.4z M24.6,18.1
		c0.2,0,0.5,0.2,0.9,0.5c-0.4,0.3-0.6,0.6-0.8,0.6c-0.2,0-0.5-0.3-0.7-0.5C24.2,18.4,24.4,18.1,24.6,18.1z M22.9,17.6
		c0.2,0,0.5,0.2,0.9,0.5c-0.4,0.3-0.6,0.6-0.8,0.6c-0.2,0-0.5-0.3-0.5-0.5C22.4,18,22.8,17.6,22.9,17.6z M21.3,17.4
		c0.2,0,0.5,0.3,0.6,0.6c0,0.2-0.3,0.4-0.6,0.8c-0.3-0.4-0.6-0.6-0.6-0.9C20.8,17.7,21.2,17.3,21.3,17.4z M19.7,16.9
		c0.3,0.4,0.6,0.6,0.5,0.8c0,0.2-0.4,0.4-0.6,0.6c-0.2-0.2-0.5-0.4-0.5-0.6C19.2,17.5,19.4,17.3,19.7,16.9z M18.1,17.3
		c0.2,0,0.4,0.3,0.8,0.6c-0.4,0.3-0.6,0.6-0.8,0.5c-0.2-0.1-0.4-0.4-0.6-0.6C17.7,17.6,17.9,17.2,18.1,17.3z M16.5,17.5
		c0.3,0.4,0.6,0.7,0.6,0.9c0,0.2-0.4,0.4-0.6,0.5c-0.1,0-0.5-0.3-0.5-0.5C16.1,18.1,16.3,17.9,16.5,17.5z M18.8,18.7
		c1.9-0.1,3.8,0.3,5.6,0.8c0.5,0.1,1,0.3,1.5,0.4c0,0.2,0,0.4,0,0.7c-1.2-0.3-2.2-0.6-3.3-0.8c-1.7-0.4-3.5-0.6-5.2,0.2
		c-1,0.5-1.7,1.7-1.5,2.9c0.2,1.2,0.4,2.3,0.6,3.5c-0.9,0-1.3-0.5-1.4-1.4c-0.2-1.6-0.5-3.1,0.6-4.5C16.4,19.3,17.5,18.8,18.8,18.7z
		 M24.6,25.3c0-1.2,0-2.4,0-3.7C25.4,22.4,25.3,24.8,24.6,25.3z M24.4,25.3c0,0.1-0.2,0.3-0.5,0.6c0-1.7,0-3.3,0-4.8
		c0.1,0,0.2,0,0.2,0C24.7,22.4,24.3,23.9,24.4,25.3z M23.6,25.6c-0.1,0-0.1,0.1-0.2,0.1c-0.1-0.2-0.4-0.3-0.4-0.5c0-1.5,0-3,0-4.5
		c0.1,0,0.1-0.1,0.2-0.1c0.1,0.2,0.3,0.4,0.3,0.6C23.6,22.6,23.6,24.1,23.6,25.6z M22.8,25.5c-0.2-0.1-0.4-0.1-0.5-0.1
		c0-1.7,0-3.4,0-5c0.1,0,0.1-0.1,0.2-0.1c0.1,0.2,0.3,0.4,0.3,0.6C22.9,22.3,22.8,23.9,22.8,25.5z M22.1,25.2
		c-0.1,0.1-0.1,0.1-0.2,0.2c-0.1-0.1-0.4-0.2-0.4-0.4c0-1.6,0-3.3,0-4.9c0.1,0,0.2-0.1,0.2-0.1c0.1,0.2,0.3,0.4,0.3,0.6
		C22.1,22.1,22.1,23.6,22.1,25.2z M21.4,25.1c-0.1,0-0.2,0.1-0.2,0.1c-0.1-0.2-0.3-0.4-0.3-0.6c0-1.5,0-3.1,0-4.6
		c0.1-0.1,0.1-0.1,0.2-0.2c0.1,0.1,0.4,0.3,0.4,0.4C21.4,21.8,21.4,23.5,21.4,25.1z M20.7,25.1c-0.3-0.2-0.5-0.3-0.5-0.4
		c0-1.6,0-3.3,0-4.9c0.1,0,0.2-0.1,0.2-0.1c0.1,0.2,0.3,0.4,0.3,0.6C20.7,21.8,20.7,23.3,20.7,25.1z M19.9,20.2c0,1.5,0,3,0,4.5
		c0,0.2-0.2,0.4-0.3,0.6c-0.1,0-0.1-0.1-0.2-0.1c0-1.8,0-3.6,0-5.4C19.7,19.7,19.9,19.7,19.9,20.2z M19.1,25.2
		c0,0.2-0.2,0.4-0.4,0.6c-0.1,0-0.1-0.1-0.2-0.1c0-1.8,0-3.7,0-5.5c0-0.2,0.2-0.4,0.3-0.6c0.1,0,0.2,0.1,0.2,0.1
		C19.1,21.6,19.2,23.4,19.1,25.2z M18.4,25.8c0,0.2-0.3,0.4-0.4,0.6c-0.1,0-0.1-0.1-0.2-0.1c0-2,0-4,0-5.9c0-0.2,0.2-0.4,0.3-0.6
		c0.1,0,0.2,0.1,0.3,0.1C18.4,21.9,18.5,23.8,18.4,25.8z M17.7,20.2c0,2.1,0,4.2,0,6.2c-0.1,0-0.1,0.1-0.2,0.1
		c-0.1-0.2-0.3-0.3-0.3-0.5c0-1.8,0-3.6,0-5.4c0-0.2,0.2-0.4,0.4-0.6C17.6,20.1,17.6,20.2,17.7,20.2z M17,20.7c0,1.8,0,3.6,0,5.4
		C16.2,25.2,16.2,21.3,17,20.7z M15.2,18.5c0.3,0.4,0.6,0.6,0.6,0.8c0,0.2-0.4,0.5-0.5,0.5c-0.2,0-0.6-0.3-0.6-0.5
		C14.6,19.1,14.9,18.9,15.2,18.5z M14.4,20c0.2,0.2,0.4,0.4,0.5,0.6c0,0.2-0.2,0.4-0.3,0.6c-0.1,0-0.2,0-0.3,0
		c-0.2-0.2-0.5-0.5-0.5-0.7C13.8,20.4,14.2,20.2,14.4,20z M13.9,21.6c0.2,0.2,0.5,0.4,0.5,0.6c0,0.2-0.2,0.4-0.5,0.8
		c-0.3-0.4-0.6-0.7-0.5-0.8C13.4,22,13.7,21.8,13.9,21.6z M13.4,23.9c0-0.2,0.3-0.5,0.4-0.7c0.1,0,0.2,0,0.3,0
		c0.1,0.2,0.4,0.4,0.3,0.6c-0.1,0.3-0.4,0.4-0.6,0.7C13.7,24.2,13.4,24,13.4,23.9z M13.7,25.4c0-0.2,0.3-0.5,0.5-0.7
		c0.1,0,0.2,0,0.3,0c0.1,0.2,0.4,0.5,0.3,0.6c-0.1,0.2-0.4,0.4-0.6,0.6C14,25.8,13.6,25.6,13.7,25.4z M42.2,27.1
		c-1.8,2-2.1,4.8-3.7,7.1c-0.2-0.3-0.4-0.5-0.6-0.6c-0.1,0-0.2,0.1-0.3,0.2c-0.1-0.1-0.2-0.3-0.2-0.4c-0.1,0.1-0.2,0.2-0.4,0.3
		c-0.1-0.2-0.1-0.3-0.2-0.4c-0.2,0.1-0.3,0.2-0.6,0.4c0.1-0.3,0.1-0.5,0.1-0.6c0,0-0.1,0-0.1,0c-0.1,0.2-0.2,0.3-0.3,0.5
		c-0.2-0.1-0.4-0.3-0.6-0.4c0,0,0,0.1,0,0.1c-0.3,0-0.5-0.1-0.8-0.1c-0.5,0.1-0.5,0.2-0.7-0.3c-0.1,0.1-0.2,0.3-0.4,0.3
		c-0.1,0-0.2-0.2-0.4-0.3c-0.1,0.1-0.2,0.3-0.4,0.3c-0.1,0-0.2-0.2-0.3-0.3c-0.1,0.1-0.3,0.2-0.4,0.2c-0.1,0-0.2-0.2-0.3-0.3
		c-0.1,0.1-0.2,0.3-0.4,0.3c-0.1,0-0.3-0.2-0.4-0.3c-0.1,0.1-0.3,0.2-0.4,0.3c-0.1-0.1-0.2-0.3-0.3-0.4c-0.1,0.1-0.2,0.2-0.4,0.4
		c-0.1-0.2-0.3-0.3-0.4-0.5c-0.2,0.1-0.4,0.3-0.6,0.5c-0.1-0.2-0.3-0.3-0.4-0.5c0,0.2-0.1,0.3-0.1,0.5c-0.2,0-0.4,0-0.7,0
		c0-0.2-0.1-0.4-0.1-0.4C27.5,32.8,27.2,33,27,33c-0.2,0-0.4-0.3-0.6-0.4c0,0,0,0.2-0.1,0.4c-0.2,0-0.4,0-0.6,0
		c0-0.2-0.1-0.4-0.1-0.5c-0.1,0.2-0.3,0.3-0.4,0.5c-0.1-0.1-0.3-0.3-0.4-0.3c-0.1,0.1-0.2,0.3-0.3,0.3c-0.2,0-0.3-0.2-0.4-0.3
		c-0.1,0.1-0.2,0.3-0.3,0.3c-0.2-0.1-0.3-0.3-0.5-0.4c-0.1,0.1-0.2,0.3-0.3,0.5c-0.1-0.1-0.2-0.3-0.4-0.4c-0.1,0.2-0.2,0.3-0.4,0.5
		c-0.1-0.1-0.2-0.3-0.3-0.4c-0.1,0.1-0.2,0.3-0.3,0.4c-0.1-0.2-0.3-0.3-0.5-0.5c0,0.2,0,0.3-0.1,0.5c-0.5,0-1,0-1.6,0
		c-0.2,0.4-0.4,0.4-0.6-0.1c-0.1,0.1-0.2,0.3-0.3,0.4c-0.1-0.1-0.2-0.2-0.3-0.3c-0.1,0.1-0.2,0.3-0.3,0.4c-0.1-0.1-0.3-0.2-0.4-0.4
		c0,0.2,0,0.3,0,0.4c0,0-0.1,0.1-0.2,0.1c-0.1-0.1-0.1-0.1-0.2-0.2c0,0,0-0.1-0.1-0.1c-0.2,0.2-0.3,0.5-0.6,0.9
		c-1.2-2.6-2.3-4.9-3.4-7.4c0.8-0.6,1.8-0.7,2.9-0.4c1.1,0.3,1.6,1.2,2.2,2.1c0-0.5,0-0.9,0.1-1.4c0.7-2.4,2.3-2.6,4.1-1
		c0.5,0.5,1,1.1,1.4,1.6c0.1,0.1,0.2,0.3,0.3,0.5c0.1-0.1,0.1-0.1,0.2-0.2c0.2-2,1.1-3,2.9-3c1.8-0.1,3.2,0.2,3.7,3
		c0.8-0.8,1.5-1.6,2.3-2.3c1.8-1.4,3-0.3,3.5,1.4c0.1,0.4,0.1,0.9,0.2,1.5c0.6-1,1.1-1.9,2.2-2.2C40.2,26.2,41.2,26.4,42.2,27.1z"/>
	<path class="st1" d="M39.1,26.5c-1.1,0.3-1.6,1.2-2.2,2.2c-0.1-0.6-0.1-1-0.2-1.5c-0.5-1.6-1.7-2.7-3.5-1.4
		c-0.9,0.7-1.6,1.5-2.3,2.3c-0.5-2.8-1.9-3.1-3.7-3c-1.8,0.1-2.7,1.1-2.9,3c-0.1,0.1-0.1,0.1-0.2,0.2c-0.1-0.2-0.1-0.3-0.3-0.5
		c-0.5-0.6-0.9-1.2-1.4-1.6c-1.8-1.6-3.4-1.4-4.1,1c-0.1,0.4-0.1,0.9-0.1,1.4c-0.6-0.9-1.1-1.9-2.2-2.1c-1.1-0.3-2.1-0.2-2.9,0.4
		c1.1,2.5,2.2,4.8,3.4,7.4c0.3-0.4,0.4-0.6,0.6-0.9c0,0,0,0.1,0.1,0.1c0.1,0.1,0.1,0.1,0.2,0.2c0.1-0.1,0.1-0.1,0.2-0.1
		c0-0.1,0-0.3,0-0.4c0.2,0.1,0.3,0.3,0.4,0.4c0.1-0.1,0.2-0.3,0.3-0.4c0.1,0.1,0.2,0.2,0.3,0.3c0.1-0.1,0.2-0.3,0.3-0.4
		c0.3,0.5,0.4,0.5,0.6,0.1c0.6,0,1.1,0,1.6,0c0-0.2,0-0.3,0.1-0.5c0.2,0.2,0.3,0.4,0.5,0.5c0.1-0.1,0.2-0.3,0.3-0.4
		c0.1,0.1,0.2,0.3,0.3,0.4c0.1-0.2,0.2-0.4,0.4-0.5c0.1,0.1,0.2,0.3,0.4,0.4c0.1-0.2,0.2-0.3,0.3-0.5c0.2,0.1,0.3,0.3,0.5,0.4
		c0.1,0,0.2-0.2,0.3-0.3c0.1,0.1,0.2,0.3,0.4,0.3c0.1,0,0.2-0.2,0.3-0.3c0.1,0.1,0.2,0.2,0.4,0.3c0.1-0.2,0.3-0.3,0.4-0.5
		c0,0.1,0,0.3,0.1,0.5c0.2,0,0.4,0,0.6,0c0-0.2,0.1-0.4,0.1-0.4c0.2,0.1,0.4,0.4,0.6,0.4c0.2,0,0.5-0.2,0.6-0.4c0,0,0,0.2,0.1,0.4
		c0.3,0,0.5,0,0.7,0c0-0.2,0.1-0.4,0.1-0.5c0.1,0.2,0.3,0.4,0.4,0.5c0.2-0.2,0.4-0.3,0.6-0.5c0.1,0.1,0.2,0.3,0.4,0.5
		c0.1-0.1,0.3-0.3,0.4-0.4c0.1,0.1,0.2,0.2,0.3,0.4c0.2-0.1,0.3-0.2,0.4-0.3c0.1,0.1,0.3,0.3,0.4,0.3c0.2,0,0.3-0.2,0.4-0.3
		c0.1,0.1,0.2,0.3,0.3,0.3c0.1,0,0.3-0.1,0.4-0.2c0.1,0.1,0.2,0.3,0.3,0.3c0.2,0,0.3-0.2,0.4-0.3c0.1,0.1,0.3,0.3,0.4,0.3
		c0.2,0,0.3-0.2,0.4-0.3c0.1,0.4,0.2,0.4,0.7,0.3c0.2-0.1,0.5,0.1,0.8,0.1c0,0,0-0.1,0-0.1c0.2,0.2,0.4,0.3,0.6,0.4
		c0.1-0.2,0.2-0.4,0.3-0.5c0,0,0.1,0,0.1,0c0,0.1-0.1,0.3-0.1,0.6c0.3-0.2,0.5-0.3,0.6-0.4c0.1,0.1,0.1,0.3,0.2,0.4
		c0.1-0.1,0.3-0.2,0.4-0.3c0.1,0.1,0.2,0.3,0.2,0.4c0.1-0.1,0.2-0.2,0.3-0.2c0.1,0.2,0.3,0.4,0.6,0.6c1.5-2.3,1.9-5.1,3.7-7.1
		C41.2,26.4,40.2,26.2,39.1,26.5z M17.4,31.7c-0.6-0.5-1.3-1.2-2.1-1.9c0.3,0.1,0.6,0.1,1,0.2c-0.2-0.4-0.3-0.8-0.5-1.1
		c0,0,0-0.1,0.1-0.1c0.3,0.4,0.5,0.8,0.9,1.2c0.3-0.4,0.5-0.6,0.6-0.7C17.4,30.1,17.4,31,17.4,31.7z M21.9,31
		c-0.5-0.6-1.1-1.5-1.6-2.2c0.1,0,0.3,0.1,0.7,0.3c-0.1-0.7-0.2-1.2-0.2-1.7c0.5,0.2,0.3,1.3,1.2,1.1C21.9,29.4,21.9,30.3,21.9,31z
		 M27.6,31.5c-0.1-1.4-0.8-2.6-1.7-3.7c0.5,0.1,0.9,0.4,1.2,0.2c0.3-0.1,0.4-0.6,0.6-1c0.3,1.2,0.4,1.2,1.6,0.8
		C28.4,29,27.6,30.1,27.6,31.5z M33.2,31c0-0.8,0-1.7,0-2.6c0.1,0,0.2,0.1,0.4,0.2c0.3-0.5,0.5-0.9,0.8-1.4
		c-0.1,0.7-0.2,1.2-0.3,1.8c0.4-0.2,0.6-0.2,0.7-0.3C34.3,29.4,33.8,30.2,33.2,31z M37.7,31.7c0-0.7,0-1.5,0-2.4
		c0.1,0.2,0.2,0.3,0.4,0.6c0.3-0.5,0.6-1,1-1.4c0.1,0.1,0.1,0.1,0.2,0.2c-0.1,0.4-0.3,0.8-0.5,1.3c0.4-0.1,0.6-0.1,1-0.2
		C39,30.5,38.3,31.1,37.7,31.7z"/>
	<path class="st2" d="M15.1,24.9c0.1,0.9,0.5,1.4,1.4,1.4c-0.2-1.2-0.4-2.3-0.6-3.5c-0.2-1.2,0.5-2.4,1.5-2.9
		c1.7-0.8,3.5-0.5,5.2-0.2c1.1,0.2,2.2,0.5,3.3,0.8c0-0.3,0-0.5,0-0.7c-0.5-0.1-1-0.3-1.5-0.4c-1.8-0.5-3.7-0.9-5.6-0.8
		c-1.3,0.1-2.4,0.6-3.1,1.7C14.6,21.8,14.9,23.4,15.1,24.9z"/>
	<path class="st3" d="M29.3,20.6c0.5-0.1,1-0.3,1.5-0.4c1.9-0.4,3.8-1,5.8-0.7c1.4,0.3,2.8,1.3,2.6,3.1c-0.1,1.2-0.4,2.5-0.6,3.7
		c1.1-0.2,1.1-0.2,1.3-1.4c0.1-0.4,0.1-0.7,0.2-1.1c0.7-2.8-1.6-5.1-4.1-5.1c-2.2,0-4.3,0.6-6.5,1.1C29.2,19.9,29.2,20.2,29.3,20.6z
		"/>
	<path class="st3" d="M26.1,20.5c-0.2,1.7-0.4,3.3-0.6,4.9c0.2-0.2,0.9,0,0.9-0.8c0.1-1.5,0.4-3,0.6-4.5
		C26.4,19.8,26.2,19.9,26.1,20.5z"/>
	<path class="st3" d="M29.7,25.4c-0.3-1.8-0.6-3.6-0.9-5.5c-0.2,0-0.3,0-0.7,0c0.2,1.3,0.3,2.6,0.4,3.8
		C28.7,24.5,28.7,25.2,29.7,25.4z"/>
	<path d="M36.7,19.9c0,1.9,0,3.9,0,5.8c0,0.2,0.2,0.5,0.3,0.7c0.1,0,0.1-0.1,0.2-0.1c0-2,0-4,0-6c0-0.2-0.2-0.4-0.4-0.5
		C36.9,19.9,36.8,19.9,36.7,19.9z"/>
	<path d="M17.9,20.4c0,2,0,4,0,5.9c0.1,0,0.1,0.1,0.2,0.1c0.1-0.2,0.4-0.4,0.4-0.6c0-2,0-3.9,0-5.9c-0.1,0-0.2-0.1-0.3-0.1
		C18.1,20,17.9,20.2,17.9,20.4z"/>
	<path class="st4" d="M17.2,26c0,0.2,0.2,0.3,0.3,0.5c0.1,0,0.1-0.1,0.2-0.1c0-2.1,0-4.2,0-6.2c0,0-0.1-0.1-0.1-0.1
		c-0.1,0.2-0.4,0.4-0.4,0.6C17.2,22.5,17.2,24.2,17.2,26z"/>
	<path class="st4" d="M37.5,20.2c0,2.1,0,4.2,0,6.2c0.1,0,0.1,0.1,0.2,0.1c0.1-0.2,0.3-0.4,0.3-0.6c0-1.7,0-3.4,0-5.1
		c0-0.3-0.2-0.5-0.3-0.8C37.6,20.1,37.6,20.2,37.5,20.2z"/>
	<path class="st4" d="M18.6,20.2c0,1.8,0,3.7,0,5.5c0.1,0,0.1,0.1,0.2,0.1c0.1-0.2,0.4-0.4,0.4-0.6c0-1.8,0-3.7,0-5.5
		c-0.1,0-0.2-0.1-0.2-0.1C18.8,19.8,18.6,20,18.6,20.2z"/>
	<path class="st4" d="M35.9,24.9c0,0.3,0.2,0.6,0.4,0.9c0.1,0,0.1-0.1,0.2-0.1c0-2,0-4,0-6c-0.1,0-0.1-0.1-0.2-0.1
		c-0.1,0.2-0.3,0.4-0.3,0.6C35.9,21.8,35.9,23.4,35.9,24.9z"/>
	<path d="M19.3,19.8c0,1.8,0,3.6,0,5.4c0.1,0,0.1,0.1,0.2,0.1c0.1-0.2,0.3-0.4,0.3-0.6c0-1.5,0-3,0-4.5
		C19.9,19.7,19.7,19.7,19.3,19.8z"/>
	<path d="M35.2,24.5c0,0.2,0.2,0.5,0.4,0.7c0.1,0,0.1-0.1,0.2-0.1c0-1.8,0-3.5,0-5.3c-0.1-0.1-0.1-0.1-0.2-0.2
		c-0.1,0.2-0.3,0.3-0.3,0.5C35.2,21.6,35.2,23.1,35.2,24.5z"/>
	<path class="st4" d="M34.5,19.8c0,1.7,0,3.4,0,5.1c0.1,0.1,0.1,0.1,0.2,0.2c0.1-0.2,0.3-0.3,0.3-0.5c0-1.5,0-2.9,0-4.4
		C35,19.7,34.9,19.6,34.5,19.8z"/>
	<path class="st4" d="M20.1,19.8c0,1.6,0,3.3,0,4.9c0,0.1,0.3,0.2,0.5,0.4c0-1.8,0-3.4,0-4.9c0-0.2-0.2-0.4-0.3-0.6
		C20.3,19.7,20.2,19.7,20.1,19.8z"/>
	<path d="M21.1,19.8c-0.1,0.1-0.1,0.1-0.2,0.2c0,1.5,0,3.1,0,4.6c0,0.2,0.2,0.4,0.3,0.6c0.1,0,0.2-0.1,0.2-0.1c0-1.6,0-3.2,0-4.9
		C21.4,20.1,21.2,19.9,21.1,19.8z"/>
	<path class="st4" d="M33,25.2c0.1,0,0.2,0.1,0.2,0.1c0.1-0.2,0.3-0.3,0.3-0.5c0-1.6,0-3.2,0-4.7c-0.1,0-0.1-0.1-0.2-0.1
		c-0.1,0.2-0.3,0.3-0.3,0.5C33,22,33,23.6,33,25.2z"/>
	<path class="st4" d="M21.6,20c0,1.6,0,3.3,0,4.9c0,0.1,0.2,0.3,0.4,0.4c0.1-0.1,0.1-0.1,0.2-0.2c0-1.5,0-3.1,0-4.6
		c0-0.2-0.2-0.4-0.3-0.6C21.7,20,21.6,20,21.6,20z"/>
	<path d="M33.8,20.2c0,1.6,0,3.3,0,4.9c0.1,0,0.2,0.1,0.2,0.1c0.1-0.2,0.3-0.4,0.3-0.6c0-1.5,0-3.1,0-4.6c-0.1-0.1-0.1-0.1-0.2-0.2
		C34,19.9,33.8,20,33.8,20.2z"/>
	<path d="M22.3,20.3c0,1.7,0,3.3,0,5c0.2,0,0.3,0.1,0.5,0.1c0-1.6,0-3.1,0-4.7c0-0.2-0.2-0.4-0.3-0.6C22.4,20.3,22.4,20.3,22.3,20.3
		z"/>
	<path d="M32.4,25.5c0.1-0.1,0.3-0.3,0.3-0.4c0-1.6,0-3.2,0-4.8c-0.1,0-0.2-0.1-0.3-0.1c-0.1,0.2-0.3,0.4-0.3,0.6c0,1,0,2,0,3
		c0,0.5,0,1.1,0,1.6C32.3,25.5,32.4,25.5,32.4,25.5z"/>
	<path d="M17,26.1c0-1.8,0-3.6,0-5.4C16.2,21.3,16.2,25.2,17,26.1z"/>
	<path class="st4" d="M23,20.6c0,1.5,0,3,0,4.5c0,0.2,0.2,0.4,0.4,0.5c0.1,0,0.1-0.1,0.2-0.1c0-1.5,0-3,0-4.5c0-0.2-0.2-0.4-0.3-0.6
		C23.2,20.6,23.1,20.6,23,20.6z"/>
	<path class="st4" d="M31.5,21.1c0,1.5,0,3,0,4.5c0.1,0,0.1,0.1,0.2,0.1c0.1-0.2,0.3-0.4,0.3-0.6c0-1.5,0-3,0-4.5
		c-0.1,0-0.1-0.1-0.2-0.1C31.7,20.8,31.5,20.9,31.5,21.1z"/>
	<path d="M38.2,26.1c0.8-1.2,0.7-4.8,0-5.4C38.2,22.5,38.2,24.2,38.2,26.1z"/>
	<path d="M31.1,25.7c0.1,0,0.2-0.1,0.2-0.1c0-1.5,0-3,0-4.5c-0.8,0.1-0.5-0.1-0.5,4C30.8,25.3,31,25.5,31.1,25.7z"/>
	<path d="M24.1,21.1c-0.1,0-0.2,0-0.2,0c0,1.5,0,3,0,4.8c0.3-0.3,0.5-0.5,0.5-0.6C24.3,23.9,24.7,22.4,24.1,21.1z"/>
	<path class="st3" d="M27.9,16.6c-0.2-0.3,0.2-1-0.7-0.7c0.1,0.6-0.1,0.9-0.8,0.9c-0.1,0-0.2,0.3-0.4,0.5c1.1,0,1.9,0,2.8,0
		C29,16.4,28.1,16.9,27.9,16.6z"/>
	<path class="st4" d="M30.6,21.7c-0.7,0.5-0.8,3.1,0,3.8C30.6,24.1,30.6,22.9,30.6,21.7z"/>
	<path class="st3" d="M28.8,17.5c-0.8,0-1.6,0-2.6,0c0.6,0.9,1.1,1.2,1.8,0.9C28.4,18.3,28.8,18.1,28.8,17.5z"/>
	<path class="st4" d="M24.6,21.6c0,1.2,0,2.4,0,3.7C25.3,24.8,25.4,22.4,24.6,21.6z"/>
	<path class="st3" d="M27.6,10.7c-0.7,0.9-0.7,1.1,0,1.9C28.3,11.8,28.3,11.6,27.6,10.7z"/>
	<path class="st3" d="M28.2,24.2c-0.2-0.2-0.4-0.6-0.7-0.6c-0.2,0-0.5,0.3-0.7,0.5c0,0.1,0,0.2,0,0.3c0.3,0.2,0.5,0.5,0.7,0.4
		C27.8,24.8,28,24.4,28.2,24.2z"/>
	<path class="st3" d="M32.1,18.7c0.2,0,0.5-0.3,0.6-0.6c0-0.2-0.3-0.4-0.6-0.8c-0.3,0.4-0.6,0.6-0.6,0.9
		C31.6,18.4,31.9,18.7,32.1,18.7z"/>
	<path class="st2" d="M21.9,17.9c-0.1-0.2-0.4-0.5-0.6-0.6c-0.2,0-0.6,0.3-0.6,0.5c0,0.2,0.3,0.5,0.6,0.9
		C21.7,18.3,22,18.1,21.9,17.9z"/>
	<path class="st3" d="M37,18.4c0.2,0,0.5-0.3,0.9-0.6c-0.4-0.3-0.7-0.6-0.8-0.6c-0.2,0.1-0.5,0.4-0.6,0.6C36.5,18,36.8,18.4,37,18.4
		z"/>
	<path class="st2" d="M15.3,19.8c0.2,0,0.6-0.3,0.5-0.5c0-0.2-0.3-0.4-0.6-0.8c-0.3,0.4-0.6,0.7-0.5,0.8
		C14.7,19.5,15,19.8,15.3,19.8z"/>
	<path class="st2" d="M14.5,21.2c0.1-0.2,0.4-0.4,0.3-0.6c-0.1-0.2-0.3-0.4-0.5-0.6c-0.2,0.2-0.5,0.4-0.6,0.6c0,0.2,0.3,0.5,0.5,0.7
		C14.4,21.2,14.5,21.2,14.5,21.2z"/>
	<path class="st2" d="M25.5,18.5c-0.4-0.2-0.7-0.5-0.9-0.5c-0.2,0-0.4,0.3-0.6,0.5c0.2,0.2,0.4,0.5,0.7,0.5
		C24.9,19.1,25.1,18.8,25.5,18.5z"/>
	<path class="st2" d="M18.1,18.4c0.2,0,0.5-0.3,0.8-0.5c-0.3-0.3-0.5-0.6-0.8-0.6c-0.2,0-0.4,0.3-0.7,0.5
		C17.7,18,17.8,18.3,18.1,18.4z"/>
	<path class="st2" d="M14.4,22.2c0-0.2-0.3-0.4-0.5-0.6c-0.2,0.2-0.5,0.4-0.6,0.6c0,0.2,0.3,0.4,0.5,0.8
		C14.2,22.6,14.5,22.4,14.4,22.2z"/>
	<path class="st3" d="M40.2,20.6c0,0.2,0.3,0.4,0.5,0.8c0.3-0.3,0.7-0.6,0.6-0.7c-0.1-0.3-0.4-0.6-0.6-0.6
		C40.6,20,40.2,20.4,40.2,20.6z"/>
	<path class="st3" d="M35.5,18.3c0.2-0.2,0.5-0.4,0.5-0.5c0-0.2-0.3-0.5-0.4-0.7c-0.1,0-0.2,0-0.3,0c-0.1,0.2-0.4,0.4-0.3,0.6
		C35,17.9,35.3,18.1,35.5,18.3z"/>
	<path class="st2" d="M14.4,23.7c0-0.1-0.2-0.4-0.3-0.6c-0.1,0-0.2,0-0.3,0c-0.2,0.2-0.4,0.5-0.4,0.7c0,0.2,0.3,0.4,0.5,0.5
		C14.1,24.2,14.4,24,14.4,23.7z"/>
	<path class="st3" d="M40.6,23.8c0.2,0.2,0.4,0.6,0.6,0.6c0.2,0,0.5-0.3,0.8-0.5c-0.3-0.2-0.6-0.5-0.8-0.5
		C41,23.3,40.8,23.6,40.6,23.8z"/>
	<path class="st3" d="M38.6,19c0.2-0.2,0.4-0.4,0.5-0.7c0-0.2-0.3-0.4-0.5-0.6c-0.2,0.2-0.5,0.4-0.6,0.6c-0.1,0.1,0.2,0.4,0.3,0.6
		C38.4,19,38.5,19,38.6,19z"/>
	<path class="st2" d="M14.1,26c0.2-0.2,0.5-0.4,0.6-0.6c0.1-0.1-0.2-0.4-0.3-0.6c-0.1,0-0.2,0-0.3,0c-0.2,0.2-0.4,0.4-0.5,0.7
		C13.6,25.6,14,25.8,14.1,26z"/>
	<path class="st3" d="M40.3,25.3c0,0.2,0.3,0.4,0.5,0.6c0.2-0.2,0.5-0.4,0.6-0.6c0.1-0.1-0.2-0.4-0.4-0.8
		C40.7,24.9,40.3,25.1,40.3,25.3z"/>
	<path class="st3" d="M29.7,13.6c0.1-0.1,0.1-0.1,0.2-0.2h0c-0.1-0.1-0.1-0.1-0.2-0.2c-0.1-0.1-0.1-0.1-0.2-0.1
		C29.3,13,29.2,13,29.1,13c-0.3,0-0.5,0.1-0.8,0.5C28.9,14,29.2,14.1,29.7,13.6z"/>
	<path class="st3" d="M25.2,13.5c0.5,0.4,1,0.7,1.5,0.1c0.1-0.1,0-0.3-0.1-0.4C26.1,12.7,25.7,13,25.2,13.5z"/>
	<path class="st2" d="M26.8,19c-0.1-0.2-0.4-0.4-0.6-0.6c-0.2,0.2-0.5,0.4-0.5,0.6c0,0.2,0.3,0.5,0.6,0.8
		C26.5,19.4,26.8,19.1,26.8,19z"/>
	<path class="st3" d="M40.7,22.2c0,0.2,0.3,0.4,0.5,0.8c0.3-0.3,0.7-0.6,0.6-0.7c-0.1-0.2-0.4-0.4-0.6-0.6
		C41,21.8,40.7,21.9,40.7,22.2z"/>
	<path class="st3" d="M30.5,19.1c0.2,0,0.4-0.3,0.9-0.5c-0.4-0.3-0.7-0.5-0.9-0.5c-0.2,0-0.5,0.4-0.5,0.5
		C30,18.8,30.3,19.1,30.5,19.1z"/>
	<path class="st3" d="M39.9,19.8c0.2,0,0.4-0.3,0.9-0.5c-0.4-0.3-0.7-0.5-0.9-0.5c-0.2,0-0.5,0.4-0.5,0.5
		C39.4,19.5,39.7,19.8,39.9,19.8z"/>
	<path class="st2" d="M19.7,18.3c0.2-0.2,0.5-0.4,0.6-0.6c0-0.2-0.3-0.4-0.5-0.8c-0.3,0.4-0.6,0.6-0.5,0.8
		C19.2,17.9,19.5,18.1,19.7,18.3z"/>
	<path class="st2" d="M16.5,18.8c0.2,0,0.6-0.3,0.6-0.5c0-0.2-0.3-0.5-0.6-0.9c-0.2,0.4-0.5,0.7-0.5,0.9
		C16,18.5,16.4,18.9,16.5,18.8z"/>
	<path class="st2" d="M23,18.7c0.2,0,0.4-0.3,0.8-0.6c-0.4-0.3-0.7-0.5-0.9-0.5c-0.2,0-0.5,0.4-0.5,0.5C22.5,18.4,22.8,18.7,23,18.7
		z"/>
	<path class="st3" d="M33.8,18.4c0.1,0,0.5-0.4,0.5-0.5c0-0.2-0.3-0.4-0.6-0.8c0,0,0,0,0,0c0,0,0,0,0,0c-0.3,0.5-0.5,0.7-0.5,0.9
		C33.3,18.1,33.6,18.4,33.8,18.4z"/>
	<path class="st3" d="M27.6,22.2c-0.2,0-0.6,0.4-0.6,0.6c0,0.2,0.3,0.5,0.6,0.6c0.2,0,0.4-0.3,0.8-0.6C28,22.5,27.7,22.2,27.6,22.2z
		"/>
	<path class="st3" d="M28.4,18.9c0,0.2,0.3,0.4,0.5,0.6c0.2-0.2,0.6-0.4,0.6-0.6c0-0.2-0.3-0.4-0.6-0.8
		C28.6,18.5,28.4,18.7,28.4,18.9z"/>
	<path class="st3" d="M27.6,14.1c-0.3,0.5-0.5,0.8-0.8,1.3c0.5,0,0.9,0.1,1.4,0.1C28,15,27.8,14.6,27.6,14.1z"/>
	<path class="st3" d="M27.6,21.9c0.2,0,0.4-0.2,0.7-0.5c-0.4-0.2-0.6-0.4-0.8-0.4c-0.1,0-0.4,0.3-0.4,0.4
		C27.2,21.7,27.4,21.9,27.6,21.9z"/>
	<path class="st3" d="M27.1,20.2c0.1,0.2,0.3,0.3,0.5,0.5c0.1-0.1,0.3-0.3,0.3-0.4c0-0.2-0.2-0.3-0.4-0.6
		C27.3,19.9,27.1,20.1,27.1,20.2z"/>
	<path class="st3" d="M27.1,13.5c0.2,0.1,0.3,0.3,0.5,0.4c0.1,0,0.3-0.2,0.5-0.4c-0.3-0.2-0.5-0.4-0.6-0.3
		C27.4,13.1,27.2,13.3,27.1,13.5z"/>
	<path class="st3" d="M27.1,19.3c0.2,0.1,0.5,0.1,0.7,0.2c0-0.2,0-0.4,0-0.6c-0.3,0-0.5,0.1-0.8,0.1C27.1,19.1,27.1,19.2,27.1,19.3z
		"/>
	<path d="M27.6,27.1c-0.2,0.3-0.3,0.8-0.6,1c-0.3,0.1-0.7-0.1-1.2-0.2c0.9,1.1,1.6,2.3,1.7,3.7c0-1.4,0.8-2.5,1.6-3.7
		C28,28.3,27.9,28.2,27.6,27.1z"/>
	<path d="M34.4,27.1c-0.3,0.6-0.6,1-0.8,1.4c-0.2-0.1-0.4-0.2-0.4-0.2c0,0.9,0,1.8,0,2.6c0.6-0.8,1.1-1.5,1.7-2.3
		c-0.1,0.1-0.3,0.1-0.7,0.3C34.3,28.3,34.3,27.8,34.4,27.1z"/>
	<path d="M39.3,28.7c-0.1-0.1-0.1-0.1-0.2-0.2c-0.3,0.5-0.6,0.9-1,1.4c-0.2-0.3-0.3-0.5-0.4-0.6c0,0.9,0,1.6,0,2.4
		c0.7-0.6,1.3-1.2,2.1-1.9c-0.3,0.1-0.6,0.1-1,0.2C39,29.5,39.1,29.1,39.3,28.7z"/>
	<path d="M16,28.8C16,28.8,16,28.9,16,28.8c0.1,0.4,0.2,0.7,0.4,1.2c-0.4-0.1-0.7-0.1-1-0.2c0.8,0.7,1.5,1.3,2.1,1.9
		c0-0.7,0-1.6,0-2.3c-0.1,0.1-0.2,0.3-0.6,0.7C16.6,29.6,16.3,29.2,16,28.8z"/>
	<path d="M20.7,27.4c0.1,0.5,0.1,1,0.2,1.7c-0.4-0.2-0.6-0.3-0.7-0.3c0.6,0.8,1.1,1.6,1.6,2.2c0-0.7,0-1.6,0-2.5
		C21,28.7,21.3,27.6,20.7,27.4z"/>
	<path class="st5" d="M0,68.7c0,12.5,0,18.8,6.3,25c6.3,6.3,12.5,6.3,25,6.3h37.5c12.5,0,18.8,0,25-6.3c6.3-6.2,6.3-12.5,6.3-25V50
		H0V68.7z"/>
</g>
</svg>
