<?xml version="1.0" encoding="utf-8"?>
<!-- Generator: Adobe Illustrator 22.1.0, SVG Export Plug-In . SVG Version: 6.00 Build 0)  -->
<svg version="1.1" id="Layer_1" xmlns="http://www.w3.org/2000/svg" xmlns:xlink="http://www.w3.org/1999/xlink" x="0px" y="0px"
	 viewBox="0 0 45 45" style="enable-background:new 0 0 45 45;" xml:space="preserve">
<style type="text/css">
	.st0{fill:#FFFFFF;}
	.st1{fill:#DC241F;}
	.st2{fill:#0035AD;}
	.st3{fill:#FFD100;}
</style>
<g>
	<g>
		<g>
			<path class="st0" d="M45,31.2H0c0,1.3,0,2.4,0,3.5H45C45,33.6,45,32.4,45,31.2z"/>
			<path class="st1" d="M45,30.9v-3.2H22.5v0H0v3.2c0,0.1,0,0.1,0,0.2h45C45,31.1,45,31,45,30.9z"/>
			<path class="st1" d="M42.8,41.5H2.2c0.2,0.2,0.4,0.4,0.6,0.6C5.6,45,8.4,45,14.1,45h16.9c5.6,0,8.4,0,11.3-2.8
				C42.4,42,42.6,41.8,42.8,41.5z"/>
			<rect x="22.5" y="24.2" class="st0" width="22.5" height="3.5"/>
			<path class="st1" d="M45,34.6H0c0.1,1.3,0.2,2.4,0.4,3.5h44.1C44.8,37.1,44.9,35.9,45,34.6z"/>
			<path class="st0" d="M44.5,38.1H0.5c0.3,1.3,0.9,2.4,1.8,3.5h40.6C43.7,40.5,44.2,39.4,44.5,38.1z"/>
			<path class="st0" d="M22.5,13.8H45c0-1.3,0-2.4,0-3.5H22.5V13.8z"/>
			<rect x="22.5" y="20.8" class="st1" width="22.5" height="3.5"/>
			<path class="st0" d="M22.5,6.9h22c-0.3-1.3-0.9-2.4-1.8-3.5H22.5V6.9z"/>
			<path class="st1" d="M22.5,10.4H45c-0.1-1.3-0.2-2.4-0.4-3.5h-22V10.4z"/>
			<path class="st1" d="M42.8,3.5c-0.2-0.2-0.4-0.4-0.6-0.6C39.4,0,36.6,0,30.9,0h-8.4v3.5H42.8z"/>
			<rect x="22.5" y="17.3" class="st0" width="22.5" height="3.5"/>
			<path class="st1" d="M22.5,17.3H45v-3.2c0-0.1,0-0.1,0-0.2H22.5V17.3z"/>
			<rect y="27.7" class="st2" width="22.5" height="0"/>
			<path class="st2" d="M14.1,0C8.4,0,5.6,0,2.8,2.8C2.6,3,2.4,3.2,2.2,3.5C1.3,4.5,0.8,5.6,0.5,6.9c-0.3,1-0.4,2.1-0.4,3.5
				c0,1,0,2.2,0,3.5c0,0.1,0,0.1,0,0.2v3.2v3.5v3.5v3.5h22.5v-3.5v-3.5v-3.5v-3.5v-3.5V6.9V3.5V0H14.1z"/>
		</g>
		<g>
			<path class="st3" d="M10.1,19.1c-2.9,0-5.3-2.4-5.3-5.3c0-2.9,2.4-5.3,5.3-5.3c0.9,0,1.7,0.2,2.4,0.6c-1-0.8-2.3-1.3-3.7-1.3
				c-3.3,0-6,2.7-6,6c0,3.3,2.7,6,6,6c1.4,0,2.7-0.5,3.7-1.3C11.7,18.9,10.9,19.1,10.1,19.1z"/>
			<polygon class="st3" points="14.8,8.8 15.2,12 17,9.3 16,12.3 18.7,10.7 16.5,13 19.7,12.7 16.7,13.8 19.7,15 16.5,14.7 18.7,17 
				16,15.3 17,18.4 15.2,15.7 14.8,18.9 14.4,15.7 12.6,18.4 13.6,15.3 10.9,17 13.1,14.7 9.9,15 12.9,13.8 9.9,12.7 13.1,13 
				10.9,10.7 13.6,12.3 12.6,9.3 14.4,12 			"/>
		</g>
	</g>
</g>
</svg>
