<?xml version="1.0" encoding="utf-8"?>
<!-- Generator: Adobe Illustrator 22.1.0, SVG Export Plug-In . SVG Version: 6.00 Build 0)  -->
<svg version="1.1" id="Layer_1" xmlns="http://www.w3.org/2000/svg" xmlns:xlink="http://www.w3.org/1999/xlink" x="0px" y="0px"
	 viewBox="0 0 45 45" style="enable-background:new 0 0 45 45;" xml:space="preserve">
<style type="text/css">
	.st0{fill:#FFFFFF;}
	.st1{fill:#CF142B;}
	.st2{fill:#E60D2E;}
	.st3{fill:#96877D;}
	.st4{fill:#CCCCCC;}
	.st5{fill:#95877E;}
	.st6{fill:#010101;}
	.st7{fill:#D0D0D0;}
</style>
<g>
	<g>
		<g>
			<path class="st0" d="M14.1,0C8.4,0,5.6,0,2.8,2.8S0,8.4,0,14.1v16.9c0,5.6,0,8.4,2.8,11.3S8.4,45,14.1,45h8.4V0H14.1z"/>
			<path class="st1" d="M42.2,2.8C39.4,0,36.6,0,30.9,0h-8.4v45h8.4c5.6,0,8.4,0,11.3-2.8S45,36.6,45,30.9V14.1
				C45,8.4,45,5.6,42.2,2.8z"/>
		</g>
		<g>
			<g>
				<path class="st2" d="M3.9,7.7v2.9h2.9c0,0.5,0.5,1,1,1v2.9h2.9v-2.9c0.5,0,1-0.5,1-1h2.9V7.7h-2.9c0-0.5-0.5-1-1-1V3.9H7.7v2.9
					c-0.5,0-1,0.5-1,1H3.9z"/>
				<path class="st1" d="M4,7.8v2.7h2.9c0,0.5,0.5,1,1,1v2.9h2.7v-2.9c0.5,0,1-0.5,1-1h2.9V7.8h-2.9c0-0.5-0.5-1-1-1V4H7.8v2.9
					c-0.5,0-1,0.5-1,1H4z"/>
				<path class="st3" d="M4.1,7.9v2.5h2.9c0,0.5,0.5,1,1,1v2.9h2.5v-2.9c0.5,0,1-0.5,1-1h2.9V7.9h-2.9c0-0.5-0.5-1-1-1V4.1H7.9v2.9
					c-0.5,0-1,0.5-1,1H4.1z"/>
				<path class="st4" d="M4.2,8v2.3H7c0,0.5,0.5,1,1,1v2.9h2.3v-2.9c0.5,0,1-0.5,1-1h2.9V8h-2.9c0-0.5-0.5-1-1-1V4.2H8V7
					C7.5,7,7,7.5,7,8H4.2z"/>
			</g>
			<path class="st5" d="M9.1,7.1c0.2,0,0.4,0,0.6,0.1c0.3,0.1,0.6,0.3,0.9,0.5C10.8,8,11,8.3,11.1,8.6c0.1,0.3,0.1,0.7,0,1
				c-0.1,0.2-0.2,0.5-0.3,0.7c-0.1,0.2-0.3,0.4-0.5,0.5C10,10.9,9.8,11,9.5,11.1c-0.3,0.1-0.7,0-1-0.1c-0.3-0.1-0.6-0.3-0.9-0.6
				c-0.2-0.3-0.4-0.6-0.5-0.9c-0.1-0.2-0.1-0.5,0-0.7c0-0.3,0.2-0.7,0.4-0.9C7.7,7.7,8,7.4,8.3,7.3C8.6,7.2,8.8,7.1,9.1,7.1L9.1,7.1
				z"/>
			<path class="st4" d="M8.4,7.3c0.4-0.2,0.8-0.2,1.3-0.1c0.3,0.1,0.7,0.3,0.9,0.5C10.8,8,10.9,8.3,11,8.6c0.1,0.3,0.1,0.7,0,1
				c-0.1,0.3-0.2,0.5-0.4,0.7c-0.1,0.2-0.3,0.3-0.5,0.5C9.9,11,9.7,11,9.4,11.1c-0.1,0-0.2,0-0.3,0c0,0,0,0,0-0.1c0,0,0-0.1,0-0.1
				c0,0,0.1,0,0.1,0c0,0,0.1,0,0.1,0c0,0,0,0,0,0c0,0-0.1,0-0.1,0c0,0-0.1,0-0.1,0c0,0,0-0.1,0-0.1c0,0,0,0,0-0.1c0,0-0.1,0-0.1,0
				c0,0,0,0,0,0.1c0,0,0,0.1,0,0.1c0,0-0.1,0-0.1,0c0,0-0.1,0-0.1,0c0,0,0,0,0,0c0,0,0.1,0,0.1,0c0,0,0.1,0,0.1,0c0,0,0,0.1,0,0.1
				c0,0,0,0.1,0,0.1l0,0c-0.4,0-0.7-0.1-1-0.3c-0.3-0.2-0.5-0.4-0.7-0.7C7.3,9.9,7.3,9.8,7.2,9.6c-0.1-0.2-0.1-0.5,0-0.8
				c0.1-0.3,0.2-0.7,0.4-0.9C7.8,7.6,8.1,7.4,8.4,7.3L8.4,7.3z"/>
			<path class="st6" d="M9.1,7.2c0.1,0,0.1,0,0.2,0c0,0,0,0,0,0c0,0,0,0-0.1,0c0,0,0,0,0,0.1c0,0,0,0.1,0,0.1c0,0,0,0.1,0,0.1
				c0,0,0.1,0,0.1,0c0,0,0.1,0,0.1,0c0,0,0,0,0,0c0,0,0,0.1,0,0.1c-0.1,0-0.2,0-0.3,0c0,0,0,0,0,0c0,0,0,0,0,0c0-0.1,0-0.1,0-0.2
				C9.1,7.3,9.1,7.3,9.1,7.2C9.1,7.2,9.1,7.2,9.1,7.2C9.1,7.2,9.1,7.2,9.1,7.2L9.1,7.2z"/>
			<path class="st6" d="M9.6,7.3c0,0,0.1,0,0.1,0.1C9.7,7.3,9.7,7.3,9.6,7.3C9.7,7.3,9.7,7.3,9.6,7.3c0,0.2,0,0.2,0,0.3c0,0,0,0,0,0
				c0,0,0.1,0,0.1,0c0,0,0.1,0,0.1,0c0,0,0,0,0,0c0,0,0,0-0.1,0.1c-0.1,0-0.2-0.1-0.3-0.1c0,0,0,0,0,0c0,0,0,0,0,0
				C9.6,7.5,9.6,7.4,9.6,7.3C9.6,7.3,9.6,7.3,9.6,7.3C9.6,7.3,9.6,7.3,9.6,7.3C9.6,7.3,9.6,7.3,9.6,7.3L9.6,7.3z"/>
			<path class="st6" d="M8.6,7.3C8.6,7.3,8.6,7.3,8.6,7.3C8.6,7.3,8.6,7.3,8.6,7.3c0.1,0.1,0.1,0.1,0.2,0.2c0,0,0,0,0,0c0,0,0,0,0,0
				v0c0,0-0.1,0-0.1,0c0,0,0,0,0,0c0,0,0,0,0,0c0,0,0,0,0-0.1c0,0-0.1,0-0.1,0c0,0,0,0.1,0,0.1c0,0,0,0,0,0v0c0,0-0.1,0-0.1,0
				c0,0,0,0,0,0c0,0,0,0,0-0.1C8.6,7.5,8.6,7.4,8.6,7.3L8.6,7.3z"/>
			<path class="st4" d="M8.6,7.5c0-0.1,0-0.1,0-0.2c0,0,0.1,0.1,0.1,0.1C8.7,7.5,8.7,7.5,8.6,7.5L8.6,7.5z"/>
			<path class="st6" d="M8.2,7.5C8.2,7.5,8.2,7.5,8.2,7.5C8.2,7.5,8.2,7.5,8.2,7.5C8.3,7.5,8.2,7.5,8.2,7.5C8.2,7.5,8.2,7.5,8.2,7.5
				C8.1,7.5,8.1,7.6,8.1,7.6c0,0,0,0.1,0,0.1c0,0,0.1,0.1,0.1,0.1c0.1,0,0.1,0,0.1-0.1c0,0,0-0.1-0.1-0.1c0,0,0,0-0.1,0l0,0
				c0,0,0.1,0,0.1-0.1c0,0,0,0,0,0c0,0,0,0,0,0c0,0,0,0,0,0c0,0,0,0.1,0.1,0.1c0,0.1-0.1,0.1-0.1,0.1c-0.1,0-0.1,0-0.2,0
				C8,7.7,8,7.6,8,7.6C8.1,7.5,8.1,7.5,8.2,7.5C8.2,7.5,8.2,7.5,8.2,7.5C8.2,7.5,8.2,7.5,8.2,7.5L8.2,7.5z"/>
			<path class="st6" d="M10.2,7.6C10.2,7.6,10.2,7.6,10.2,7.6C10.3,7.6,10.2,7.6,10.2,7.6c0,0.1,0,0.2,0,0.3c0,0,0,0.1,0,0.1
				c0,0,0,0,0,0c0,0,0,0,0,0c0,0-0.1,0-0.1-0.1c0,0,0,0,0,0c0,0,0,0,0,0c0,0,0-0.1,0-0.1c0,0-0.1,0-0.1-0.1c0,0,0,0,0,0
				c0,0,0,0-0.1,0c0,0,0,0,0,0l0,0c0,0-0.1,0-0.1-0.1c0,0,0,0,0,0c0,0,0,0,0.1,0C10.1,7.7,10.2,7.6,10.2,7.6L10.2,7.6z"/>
			<path class="st5" d="M9.1,7.6c0.2,0,0.4,0,0.6,0.1C10,7.8,10.3,8,10.4,8.3c0.1,0.2,0.2,0.3,0.2,0.5c0,0.2,0,0.4,0,0.6
				c-0.1,0.3-0.2,0.6-0.4,0.8c-0.2,0.2-0.5,0.4-0.7,0.4c-0.2,0-0.4,0.1-0.6,0c-0.3-0.1-0.6-0.2-0.8-0.5c-0.2-0.3-0.4-0.6-0.4-1
				c0-0.3,0.1-0.6,0.2-0.8C8,8.1,8.2,7.9,8.5,7.7C8.7,7.7,8.9,7.6,9.1,7.6L9.1,7.6z"/>
			<path class="st4" d="M10.1,7.7c0,0,0.1-0.1,0.1-0.1C10.2,7.7,10.2,7.7,10.1,7.7C10.1,7.7,10.1,7.7,10.1,7.7L10.1,7.7z"/>
			<path class="st4" d="M9,7.6c0.2,0,0.4,0,0.5,0c0.3,0.1,0.6,0.3,0.8,0.5c0.1,0.1,0.2,0.3,0.2,0.5c0.1,0.3,0.1,0.7,0,1
				c-0.1,0.3-0.3,0.5-0.5,0.7c-0.1,0.1-0.3,0.2-0.4,0.2c-0.4,0.1-0.7,0.1-1.1-0.1C8.2,10.3,8,10.1,7.8,9.8C7.7,9.6,7.7,9.4,7.6,9.2
				c0,0,0-0.1,0-0.1c0-0.3,0.1-0.6,0.3-0.9C8.1,8,8.4,7.8,8.7,7.7C8.8,7.7,8.9,7.6,9,7.6L9,7.6z"/>
			<path class="st6" d="M9,7.8C9.1,7.8,9.1,7.8,9,7.8c0.2,0,0.2,0,0.2,0.1c0,0,0,0.1,0,0.1c0,0,0,0,0.1,0c0,0,0.1,0,0.1,0
				c0,0,0,0.1,0,0.1c0.1,0,0.2,0,0.3,0c0,0,0,0,0,0c0,0,0,0.1,0,0.1c0,0,0,0,0,0c0,0,0,0,0,0c0,0,0,0-0.1,0c0,0-0.1,0.1-0.1,0.1
				c0,0,0.1,0.1,0.1,0.1c0,0,0,0,0,0.1c0,0,0.1,0.1,0.1,0.1c0.1,0,0.1-0.1,0.2-0.2c0,0,0.1,0,0.1,0c0.1,0,0.1,0.1,0.2,0.1
				c0,0,0,0,0,0c0.1,0,0.1,0.1,0.2,0.1c0,0,0,0,0,0c0,0-0.1,0-0.1,0c0,0,0,0-0.1,0c0,0-0.1,0-0.1,0c-0.1,0-0.1-0.1-0.2,0
				c0,0,0,0,0,0C10,8.8,9.9,8.9,9.8,9c0.1,0,0.2,0,0.2,0c0.1,0.1,0.1,0.1,0.2,0.2c0,0,0,0,0,0c0,0.1,0.1,0.1,0.1,0.2
				c0,0-0.1,0-0.1,0c0,0,0,0,0-0.1c0,0,0,0,0,0c0,0,0,0,0,0c0,0-0.1-0.1-0.1-0.1c0,0-0.1,0-0.1,0c0,0,0,0,0,0
				c-0.1,0-0.2,0.1-0.3,0.1c0,0-0.1,0-0.1,0c0,0,0,0-0.1,0c0,0,0,0.1,0,0.1c0,0,0,0,0,0c0,0,0.1,0.1,0.1,0.1c0,0,0,0,0,0
				c0.1-0.1,0.1-0.1,0.2-0.1c0,0,0.1,0,0.1,0c-0.1,0-0.1,0.1-0.1,0.2c0,0,0,0,0,0.1h0c0,0,0.1,0,0.1,0c0,0,0.1,0.1,0.1,0.1
				c0,0,0,0,0.1,0c0,0,0,0,0,0c0,0,0,0-0.1-0.1c0,0-0.1,0-0.1,0c0,0,0,0,0,0c0,0,0,0,0,0c0,0,0,0,0,0c0,0,0,0-0.1-0.1c0,0,0,0,0,0
				c0,0,0.1,0,0.1,0.1c0,0-0.1,0-0.1-0.1c0,0,0-0.1,0-0.1c0,0,0,0,0.1,0c0,0,0,0.1,0,0.1c0,0,0,0,0,0c0,0,0,0,0,0c0,0,0,0.1,0.1,0.1
				c0,0,0,0,0.1,0c0,0,0,0,0,0c0,0,0.1,0,0.1,0c0,0,0,0,0,0c0,0,0,0,0,0c0,0,0,0-0.1,0c0,0,0,0,0,0c0,0-0.1,0-0.1,0
				c0,0,0,0.1-0.1,0.1c0,0-0.1,0-0.1,0c0,0-0.1,0-0.1-0.1c0,0,0,0,0,0c0,0,0,0,0,0.1c0,0.1,0.1,0.1,0.1,0.2c0,0,0.1-0.1,0.1-0.1
				c0,0,0-0.1,0-0.1c0,0,0,0,0,0c0,0,0,0,0,0c0,0,0,0,0.1,0c0,0,0,0,0,0c0,0,0,0,0,0c0,0,0,0-0.1,0c0,0,0,0.1-0.1,0.1
				c0,0.1-0.1,0.1-0.1,0.1c0,0,0,0,0.1,0c0,0,0-0.1,0-0.1c0,0,0,0,0,0c0,0,0,0,0,0c0,0,0,0,0,0c0,0,0,0,0,0c0,0.1-0.1,0.1-0.1,0.1
				c-0.1,0-0.1,0-0.2-0.1c0,0,0,0,0,0c0,0,0,0,0,0c0,0,0,0,0,0c0.1,0,0.1,0.1,0.2,0.1c0,0-0.1,0.1-0.1,0.1c0,0,0,0,0,0
				c-0.3,0-0.6,0-0.9,0c0,0-0.1,0-0.1,0c-0.2,0-0.3,0-0.5,0c0,0-0.1,0-0.1,0c0,0,0,0,0,0c0,0-0.1-0.1-0.1-0.1c0.1,0,0.2,0,0.3,0
				c0,0,0,0,0,0c0,0-0.1,0-0.1,0c-0.1,0-0.2,0-0.3-0.1c0,0,0,0,0,0c0.1,0,0.2,0,0.3,0c0.1,0,0.1,0,0.2,0c0,0,0,0,0.1-0.1
				c0,0,0,0,0,0c0.1,0,0.1,0,0.1,0c0,0,0,0,0,0c0,0,0,0,0,0c0,0-0.1,0-0.1,0c0,0-0.1,0-0.1,0c0,0,0,0,0,0c0-0.1,0-0.1,0-0.2
				c-0.1,0-0.2-0.1-0.2-0.1c0,0-0.1-0.1-0.1-0.1c0,0,0,0-0.1,0c-0.1,0-0.1,0-0.2-0.1c0,0,0,0-0.1,0c0,0,0,0,0,0c0,0,0.1,0.1,0.1,0.1
				c0,0,0,0.1,0,0.1c0,0-0.1,0.1-0.1,0.1c0,0,0,0.1,0,0.1c0,0,0,0,0,0c0,0,0,0.1,0,0.1c0,0,0,0,0,0c0,0,0,0-0.1,0c0,0,0,0.1,0,0.1
				c0,0,0,0,0,0c0,0,0,0,0-0.1c0,0,0,0,0,0c0,0,0,0,0-0.1c0,0,0,0,0-0.1c0,0,0,0,0,0c0,0,0-0.1,0-0.1c0,0,0,0,0.1-0.1
				c0,0,0,0,0.1-0.1c0,0,0,0,0-0.1C8,9.4,8,9.4,8,9.3c0,0,0-0.1,0.1-0.1c0,0,0.1,0,0.1,0c0.1,0,0.1,0.1,0.2,0.1c0,0,0,0,0.1,0
				c0-0.1,0.1-0.2,0.2-0.2c0,0-0.1-0.1-0.1-0.1c0,0,0,0,0,0c0,0,0,0-0.1,0c0,0,0,0,0,0c0,0,0,0,0,0c0,0-0.1,0,0-0.1c0,0,0,0,0.1,0
				c0,0,0-0.1,0-0.1c-0.1,0-0.1,0.1-0.2,0.2c0,0-0.1,0-0.1,0c0,0-0.1,0-0.1-0.1c0,0,0,0,0,0c0,0,0,0,0,0c0,0,0,0,0,0c0,0,0,0-0.1,0
				c0,0,0,0,0-0.1c0,0,0,0,0-0.1c0,0,0-0.1,0-0.1c0,0,0,0,0.1,0c0,0,0-0.1,0-0.1c0,0,0-0.1,0.1-0.1c0,0,0.1,0,0.1,0
				c0,0,0-0.1,0.1-0.1c0,0,0,0,0.1,0C8.3,8,8.3,8,8.3,8c0,0,0,0,0,0c0,0,0.1,0,0.1,0c0,0,0-0.1,0.1-0.1c0,0,0,0,0.1,0c0,0,0,0,0,0
				c0,0,0.1,0,0.1,0c0,0,0.1,0,0.1,0C8.9,7.9,9,7.8,9,7.8L9,7.8z"/>
			<path class="st5" d="M9,7.8c0.1,0,0.1,0,0.2,0c0.1,0,0.1,0.1,0.1,0.2c0,0,0,0,0,0.1c0,0-0.1,0.1-0.1,0.1c0,0,0,0,0-0.1
				c0,0,0-0.1,0-0.1c0-0.1-0.1-0.1-0.2,0c0,0,0,0,0,0c0,0-0.1,0-0.1,0C8.9,7.9,9,7.8,9,7.8L9,7.8z"/>
			<path class="st6" d="M10.6,7.8C10.6,7.8,10.6,7.8,10.6,7.8C10.6,7.9,10.6,7.9,10.6,7.8c0,0.2,0,0.3,0,0.4c0.1,0,0.1-0.1,0.2-0.1
				c0,0,0,0,0-0.1c0,0,0,0,0,0c0,0,0,0.1,0.1,0.1c0,0,0,0,0,0c0,0,0,0,0,0c0,0,0,0,0,0c-0.1,0.1-0.2,0.1-0.2,0.2c0,0,0,0,0,0
				c0-0.1,0.1-0.2,0.1-0.3c-0.1,0-0.1,0.1-0.2,0.1c0,0,0,0,0,0c0,0,0,0,0,0c0,0,0,0,0,0c0,0,0-0.1-0.1-0.1c0,0,0,0,0,0c0,0,0,0,0,0
				c0,0,0,0,0,0C10.4,8,10.5,8,10.6,7.8C10.6,7.9,10.6,7.9,10.6,7.8C10.6,7.9,10.6,7.9,10.6,7.8L10.6,7.8z"/>
			<path class="st5" d="M9,8C9,8,9.1,7.9,9,8c0.1-0.1,0.2,0,0.2,0c0,0,0,0,0,0.1c0,0,0,0-0.1,0C9.1,8,9.1,8,9,8C9,8,9,8,9,8
				C8.9,8,8.9,8.1,8.9,8.1c0,0,0,0,0,0c0,0-0.1,0-0.1,0c0,0-0.1,0-0.1,0c0,0,0.1,0,0.1,0c0,0,0,0,0.1-0.1c0,0,0.1,0,0.1,0
				C8.8,7.9,8.9,8,9,8C8.9,8,9,8,9,8L9,8z"/>
			<path class="st5" d="M9.4,8C9.4,8,9.4,8,9.4,8C9.5,8,9.5,8,9.4,8c0.2,0,0.3,0.1,0.4,0.1c0,0,0,0.1,0,0.1c0,0,0,0,0,0c0,0,0,0,0,0
				c0,0,0,0,0,0c0,0,0,0-0.1,0c0,0,0,0,0,0.1c0,0,0,0,0,0c0,0-0.1,0-0.1,0c0,0,0,0,0.1,0.1C9.5,8.5,9.4,8.5,9.2,8.6c0,0,0-0.1,0-0.1
				c0,0,0-0.1,0-0.1c0-0.1,0.1-0.1,0.1-0.2C9.4,8.1,9.4,8.1,9.4,8C9.4,8,9.4,8,9.4,8L9.4,8z"/>
			<path class="st5" d="M9.3,8C9.3,8,9.4,8,9.3,8C9.4,8,9.4,8.1,9.3,8c0,0.2-0.1,0.2-0.1,0.3c0,0.1,0,0.1,0,0.2c0,0,0,0.1,0,0.1
				c0,0,0,0,0,0c0,0,0-0.1,0-0.1c0,0,0,0,0-0.1c0,0,0-0.1,0-0.1c0,0,0.1,0,0.1-0.1C9.2,8.1,9.3,8.1,9.3,8L9.3,8z"/>
			<path class="st5" d="M8.3,8.1C8.3,8.1,8.3,8,8.3,8.1C8.4,8,8.4,8,8.4,8c0.1,0,0.2,0.1,0.3,0.1c0,0,0,0,0.1,0c0,0,0,0,0.1,0
				c0,0,0,0-0.1,0c0,0-0.1,0-0.1,0.1c0,0,0,0,0,0c0,0-0.1,0-0.1,0.1c0,0,0,0,0,0c0,0-0.1,0.1-0.1,0.1c0,0,0,0,0,0
				c0,0-0.1,0.1-0.1,0.2c-0.1,0-0.1,0.1-0.1,0.1c0,0-0.1,0.1-0.1,0.1c0,0-0.1,0-0.1-0.1c0,0,0,0,0,0c0,0,0,0,0-0.1c0,0,0,0-0.1,0
				c0,0,0,0,0,0c0,0,0-0.1,0-0.1c0,0,0-0.1,0-0.1c0,0,0,0,0.1,0c0,0,0-0.1,0-0.1c0,0,0-0.1,0.1-0.1c0,0,0.1,0,0.1,0
				C8.1,8.2,8.1,8.2,8.3,8.1C8.2,8.1,8.2,8.1,8.3,8.1L8.3,8.1z"/>
			<path class="st5" d="M9,8c0.1,0,0.2,0,0.3,0c0,0,0,0,0,0c0,0,0,0.1,0,0.1c0,0,0,0,0,0c0,0,0,0.1-0.1,0.1c0,0,0,0,0,0c0,0,0,0,0,0
				c0,0-0.1-0.1-0.1-0.1C9,8.1,9,8.1,9,8C9,8.1,9,8.1,9,8L9,8z"/>
			<path class="st5" d="M8.9,8.1C8.9,8.1,9,8,8.9,8.1C9,8.1,9,8.1,8.9,8.1C9,8.1,9,8.1,8.9,8.1C8.9,8.1,8.9,8.1,8.9,8.1L8.9,8.1z"/>
			<path class="st4" d="M8.5,8.1c0.1,0,0.1,0,0.2,0C8.6,8.1,8.6,8.1,8.5,8.1L8.5,8.1z"/>
			<path class="st4" d="M8.8,8.1C8.9,8.1,8.9,8.1,8.8,8.1c0.1,0,0.1,0,0.1,0c0,0,0,0,0,0C8.9,8.1,8.9,8.1,8.8,8.1L8.8,8.1z"/>
			<path class="st5" d="M8.8,8.2c0,0,0.1,0,0.1,0c0,0,0,0,0,0C9,8.2,9,8.2,9,8.3c0,0,0.1,0,0.1,0c0,0,0,0,0,0c0,0,0,0,0,0
				c0,0-0.1,0-0.1,0c0,0,0,0,0,0c0,0,0,0,0,0c0,0,0,0,0.1,0c0,0,0,0,0,0c0,0,0,0,0,0c0,0.1,0,0.1,0,0.2c0,0,0,0,0.1,0
				c0,0,0,0.1,0,0.1C9.1,8.7,9,8.6,9,8.6c0,0-0.1-0.1-0.1-0.1c0-0.1,0-0.1,0-0.2C8.9,8.3,8.8,8.3,8.8,8.2C8.8,8.2,8.8,8.2,8.8,8.2
				L8.8,8.2z"/>
			<path class="st5" d="M8.7,8.2C8.7,8.2,8.7,8.2,8.7,8.2c0.1,0,0.1,0,0.1,0c0,0.1,0.1,0.1,0.1,0.1c0,0.1,0,0.1,0,0.2
				C9,8.6,9,8.6,9,8.7c0,0,0.1,0,0.1,0.1c0,0,0,0,0,0.1c0.1,0,0.2,0,0.3,0.1c0,0,0,0,0,0.1c0,0.1,0.1,0.2,0.1,0.3c0,0,0,0,0,0
				c0.1,0.1,0.1,0.1,0.2,0.1c0,0,0,0,0,0c0,0-0.1,0-0.1,0c0,0,0,0,0,0c0,0,0,0,0,0c0,0,0,0-0.1,0c0,0,0,0,0-0.1
				c-0.1,0-0.1-0.1-0.2-0.2c0-0.1-0.1-0.1,0-0.2c0,0-0.1,0-0.1,0C9.1,9,9,9,8.9,8.9c0,0,0,0,0,0c0,0,0-0.1-0.1-0.1c0,0,0-0.1,0-0.2
				c0,0-0.1-0.1-0.1-0.1c0,0,0-0.1,0-0.1c0,0,0,0,0,0c0,0-0.1,0.1-0.1,0.1c0,0,0,0-0.1,0c0,0.1-0.1,0.1-0.1,0.2c0,0,0,0,0,0.1
				c0,0,0,0.1,0,0.1c0,0,0,0,0,0c0,0,0,0-0.1,0c0,0,0,0,0,0.1c0,0,0,0-0.1,0c0,0,0,0,0,0c0,0,0,0,0,0c0,0,0,0,0,0c0,0,0,0,0-0.1
				c0-0.1,0-0.1,0-0.2c0,0,0-0.1,0-0.1c0,0,0,0,0,0c0,0,0-0.1,0.1-0.1c0,0,0,0,0,0C8.6,8.3,8.6,8.3,8.7,8.2C8.7,8.3,8.7,8.2,8.7,8.2
				L8.7,8.2z"/>
			<path class="st4" d="M9.1,8.3C9.1,8.2,9.1,8.2,9.1,8.3c0.1,0,0.1,0,0.1,0C9.2,8.2,9.2,8.3,9.1,8.3C9.1,8.3,9.1,8.3,9.1,8.3
				C9.1,8.3,9.1,8.3,9.1,8.3C9.1,8.3,9.1,8.3,9.1,8.3L9.1,8.3z"/>
			<path class="st5" d="M9.7,8.2C9.7,8.2,9.7,8.2,9.7,8.2C9.6,8.4,9.5,8.5,9.4,8.5c-0.1,0-0.1,0.1-0.2,0.1c0,0,0,0-0.1,0
				c0,0,0-0.1,0-0.1c0,0,0-0.1,0-0.1c0,0,0,0,0,0.1c0,0,0,0.1,0,0.1c0,0,0,0,0,0c0,0,0,0,0,0c0.1,0,0.3-0.1,0.4-0.2
				C9.6,8.3,9.7,8.3,9.7,8.2L9.7,8.2z"/>
			<path class="st4" d="M9.5,8.3c0,0,0.1,0,0.1,0C9.6,8.3,9.6,8.3,9.5,8.3C9.5,8.4,9.5,8.3,9.5,8.3L9.5,8.3z"/>
			<path class="st5" d="M9,8.3C9,8.3,9.1,8.3,9,8.3c0.1,0,0.1,0,0.1,0.1c0,0,0,0,0,0c0,0,0,0,0,0C9.1,8.4,9.1,8.3,9,8.3
				C9.1,8.3,9,8.3,9,8.3C9,8.3,9,8.3,9,8.3L9,8.3z"/>
			<path class="st6" d="M10.8,8.4C10.8,8.4,10.9,8.4,10.8,8.4C10.9,8.5,11,8.5,11,8.6c0,0,0,0,0,0c0,0,0,0-0.1,0c0,0,0,0,0,0
				c0,0,0,0,0-0.1c0,0,0,0,0-0.1c-0.1,0-0.2,0.1-0.2,0.1c0,0,0,0,0,0c0,0,0,0,0,0c0,0,0,0,0,0c0,0,0-0.1,0-0.1c0,0,0,0,0,0
				c0,0,0,0,0,0c0,0,0,0,0.1,0C10.8,8.5,10.8,8.5,10.8,8.4C10.9,8.5,10.9,8.4,10.8,8.4C10.9,8.4,10.8,8.4,10.8,8.4L10.8,8.4z"/>
			<path class="st6" d="M7.4,8.4c0,0,0.1,0,0.1,0c0,0,0,0,0,0.1c0,0,0.1,0,0.1,0c0,0,0,0,0.1,0c0,0,0,0,0,0c0,0,0,0.1,0,0.1
				c-0.1,0-0.1,0-0.2,0c0,0,0,0,0,0c0,0,0.1,0,0.1,0c0,0,0,0,0,0c0,0,0,0,0,0c0,0,0,0.1-0.1,0.1c0,0,0,0,0,0c0,0,0,0,0,0
				c0,0,0,0,0,0c-0.1,0-0.1-0.1-0.2-0.1c0,0,0,0,0,0c0,0,0,0,0,0c0,0,0,0,0,0C7.3,8.6,7.3,8.5,7.4,8.4C7.3,8.4,7.4,8.4,7.4,8.4
				L7.4,8.4z"/>
			<path class="st5" d="M9.2,8.6c0.1,0,0.2-0.1,0.3-0.2c0,0,0.1,0.1,0.1,0.1c0,0,0,0,0,0.1c0.1,0,0.1,0.1,0.1,0.1
				c0.1,0,0.2-0.1,0.2-0.2c0,0,0.1,0,0.1,0c0.1,0,0.1,0.1,0.2,0.1c0,0,0,0,0,0c0,0,0.1,0.1,0.1,0.1c0,0,0,0,0,0c0,0-0.1,0-0.1,0
				c0,0,0,0,0,0c0,0-0.1,0-0.1-0.1c-0.1,0-0.1-0.1-0.2,0c0,0.1-0.1,0.1-0.1,0.2c0,0,0,0-0.1,0l0,0c0,0,0.1,0,0.1,0c0,0,0.1,0,0.1,0
				c0,0,0,0,0,0c0.1,0,0.1,0.1,0.2,0.1c0,0,0,0,0,0c0,0.1,0.1,0.1,0.1,0.2c0,0-0.1,0-0.1,0c0,0,0-0.1-0.1-0.1c0,0,0,0,0,0
				c0,0,0,0,0,0c0-0.1-0.1-0.1-0.1-0.1c0,0-0.1,0-0.1,0c0,0,0,0,0,0c-0.1,0-0.1,0-0.2,0.1c-0.1,0-0.1,0-0.2,0c0,0,0,0-0.1,0
				C9.5,9.1,9.4,9,9.4,9c0,0,0,0,0,0C9.4,8.8,9.3,8.8,9.2,8.8c0,0,0-0.1,0-0.1C9.2,8.7,9.2,8.7,9.2,8.6L9.2,8.6z"/>
			<path class="st4" d="M7.4,8.5c0,0,0.1,0,0.1,0c0,0,0,0.1,0,0.1C7.4,8.6,7.4,8.5,7.4,8.5C7.3,8.5,7.4,8.5,7.4,8.5L7.4,8.5z"/>
			<path class="st5" d="M8.6,8.5C8.7,8.5,8.7,8.5,8.6,8.5C8.7,8.5,8.7,8.5,8.6,8.5c0,0-0.1,0.1-0.1,0.1C8.6,8.6,8.6,8.5,8.6,8.5
				C8.6,8.5,8.6,8.5,8.6,8.5L8.6,8.5z"/>
			<path class="st5" d="M9.1,8.5c0,0.1,0,0.1,0,0.1c0,0,0,0,0,0C9.1,8.5,9.1,8.5,9.1,8.5L9.1,8.5z"/>
			<path class="st4" d="M8.5,8.6c0.1,0,0.1-0.1,0.2-0.1c0,0.1,0,0.1,0,0.2c0,0.1,0,0.2,0.1,0.2c0,0,0,0,0,0C8.8,9,8.7,9,8.7,9
				c-0.1,0-0.1-0.1-0.2-0.1c0,0,0,0,0,0c0,0,0,0,0-0.1c0,0,0-0.1,0-0.1C8.4,8.7,8.4,8.7,8.5,8.6C8.5,8.6,8.5,8.6,8.5,8.6L8.5,8.6z"
				/>
			<path class="st5" d="M9.2,8.6C9.2,8.6,9.2,8.6,9.2,8.6C9.2,8.6,9.2,8.6,9.2,8.6C9.2,8.7,9.2,8.7,9.2,8.6C9.2,8.7,9.2,8.7,9.2,8.6
				L9.2,8.6z"/>
			<path class="st4" d="M9.1,8.8C9.1,8.8,9.1,8.8,9.1,8.8C9.2,8.7,9.2,8.7,9.1,8.8C9.2,8.8,9.2,8.8,9.1,8.8L9.1,8.8z"/>
			<path class="st5" d="M8.2,8.8C8.3,8.8,8.3,8.8,8.2,8.8C8.3,8.8,8.3,8.8,8.2,8.8C8.3,8.8,8.2,8.8,8.2,8.8L8.2,8.8z"/>
			<path class="st5" d="M8.4,8.8C8.5,8.9,8.6,9,8.7,9.1c0,0,0,0,0,0c0,0,0.1,0.1,0.1,0.1c-0.1,0-0.1,0-0.2-0.1c0,0,0,0-0.1,0
				C8.6,9,8.5,9,8.4,8.8C8.4,8.9,8.4,8.9,8.4,8.8L8.4,8.8z"/>
			<path class="st6" d="M7.4,8.9C7.4,8.9,7.4,8.9,7.4,8.9c0.1,0,0.2,0.1,0.2,0.1c0,0,0,0.1,0,0.1c0,0-0.1,0.1-0.1,0.1
				c0,0-0.1,0-0.1,0c0,0-0.1,0-0.1-0.1c0,0,0-0.1,0-0.2C7.3,8.9,7.3,8.9,7.4,8.9L7.4,8.9z"/>
			<path class="st6" d="M11,8.9L11,8.9c0,0.1,0,0.1,0,0.2c0,0,0,0.1,0,0.1c0,0-0.1,0-0.1,0c0,0,0,0,0-0.1c0,0-0.1,0.1-0.1,0.1
				c0,0,0,0,0,0c0,0,0,0,0,0.1c0,0,0,0,0,0c0,0,0-0.1,0-0.1c0,0,0.1-0.1,0.1-0.1c0,0,0,0,0,0c0,0,0,0-0.1,0c0,0,0,0-0.1,0
				c0,0,0,0,0,0h0c0,0,0-0.1,0-0.1c0,0,0,0,0,0c0,0,0,0,0,0c0,0,0,0,0.1,0C10.9,8.9,10.9,8.9,11,8.9C11,8.9,11,8.9,11,8.9
				C11,8.9,11,8.9,11,8.9L11,8.9z"/>
			<path class="st4" d="M7.3,8.9c0,0,0.1,0,0.1,0c0,0,0.1,0,0.1,0c0,0,0,0.1,0,0.1c0,0,0,0-0.1,0.1c0,0-0.1,0-0.1,0
				c0,0-0.1,0-0.1-0.1C7.2,9.1,7.2,9,7.3,8.9C7.3,9,7.3,8.9,7.3,8.9L7.3,8.9z"/>
			<path class="st5" d="M8.7,9c0.1,0,0.1,0,0.2,0C8.9,9,9,9,9.1,9c0.1,0,0.1,0,0.2,0c0,0.1,0,0.2,0.1,0.2C9.3,9.3,9.2,9.4,9.1,9.4
				c0,0,0,0-0.1,0c0,0,0,0-0.1,0c0,0,0,0.1,0,0.1c0,0,0,0,0,0c0,0,0,0.1,0,0.1c0,0,0,0.1-0.1,0.1c0,0.1,0,0.1,0.1,0.1
				c0,0,0.1,0,0.1,0.1c0,0,0.1,0,0.1,0c0,0,0,0,0.1,0.1c0,0,0,0.1,0.1,0.1c0,0-0.1,0-0.1,0c0,0,0,0-0.1,0c0,0,0,0,0,0
				C9,10,8.9,9.9,8.9,9.9c0,0-0.1,0-0.1,0c0,0,0,0,0,0c0,0,0-0.1,0-0.1c0-0.1,0-0.1,0-0.2c-0.1,0-0.2-0.1-0.2-0.1
				c-0.1,0-0.1-0.1-0.1-0.2c0,0,0,0,0-0.1c0-0.1,0.1-0.2,0.2-0.2c0,0,0,0,0.1,0.1c0,0,0,0,0.1,0c0.1,0,0.1,0,0.2,0.1
				C8.8,9.2,8.8,9.1,8.7,9C8.8,9.1,8.8,9.1,8.7,9C8.7,9,8.7,9,8.7,9L8.7,9z"/>
			<path class="st4" d="M10.9,9c0,0,0.1,0,0.1,0c0,0,0,0.1,0,0.1C11,9.1,10.9,9.1,10.9,9C10.9,9.1,10.9,9,10.9,9L10.9,9z"/>
			<path class="st5" d="M10,9.3C10,9.2,10.1,9.2,10,9.3c0.1,0,0.1,0,0.1,0c0,0,0,0,0.1,0c0,0,0,0.1,0.1,0.1c0,0,0,0,0,0
				c0,0.1,0,0.1-0.1,0.1c0,0-0.1,0.1-0.1,0.1c0,0-0.1,0-0.1-0.1c0,0,0,0,0,0c0,0,0,0,0,0c0,0,0,0,0,0.1c0,0,0.1,0.1,0.1,0.1
				c0,0,0,0,0,0.1c0,0,0.1-0.1,0.1-0.1c0,0,0,0,0,0c0,0,0-0.1,0-0.1c0,0,0,0,0,0c0,0,0,0,0,0c0,0,0,0,0,0c0,0,0,0,0,0c0,0,0,0,0,0
				c0,0,0,0,0,0c0,0,0,0-0.1,0c0,0,0,0.1,0,0.1c0,0.1-0.1,0.1-0.1,0.2c0,0,0,0-0.1-0.1c0,0,0,0,0,0c0,0,0.1,0.1,0.1,0.1
				c0,0,0,0,0.1,0c0,0,0,0,0-0.1c0,0,0,0,0,0c0,0,0,0,0,0c0,0-0.1,0.1-0.1,0.1C10.1,10,10,10,10,10c0,0,0,0,0,0c0,0,0,0,0,0
				c0,0,0,0-0.1,0c0,0,0,0-0.1,0c0,0,0,0-0.1,0c0,0,0,0-0.1,0c0,0,0,0,0,0c0,0-0.1,0-0.1,0c0,0,0,0,0,0c0,0,0,0,0,0c0,0,0,0,0,0
				c0,0,0,0,0,0c0,0,0,0-0.1,0.1c0,0,0,0,0,0c0,0,0-0.1,0-0.1c0,0,0,0,0,0c0,0,0,0-0.1,0.1c0,0,0,0,0,0c0.1,0,0.1,0,0.1-0.1
				c0,0,0,0,0,0c0,0,0,0,0,0c0,0,0,0,0,0c0,0,0,0,0,0c0,0,0,0,0,0c0,0-0.1,0-0.1-0.1c0,0-0.1,0-0.1,0c0,0,0,0-0.1,0c0,0,0,0,0-0.1
				c0,0,0-0.1,0-0.1l0,0c0,0,0,0,0,0.1c0,0-0.1,0-0.1,0c0,0,0,0,0-0.1c0,0,0,0,0,0c0,0-0.1,0-0.1,0c0,0,0,0,0,0c0,0,0.1-0.1,0.1-0.1
				c0,0,0.1,0,0.1,0c0.1,0,0.1,0,0.2-0.1c0,0,0.1,0,0.1,0c0,0,0,0,0,0c0,0,0.1,0,0.1,0c0,0,0,0,0,0c0,0,0,0,0.1,0c0,0,0,0,0,0
				c0,0,0.1,0,0.1,0c0,0,0,0,0,0c0,0,0,0-0.1,0c0,0,0,0-0.1,0c0,0,0,0,0,0c0,0,0,0,0-0.1c0,0,0,0,0,0c0,0,0,0,0,0c0,0,0,0,0,0
				c0,0,0,0,0-0.1c0,0,0,0,0,0c0,0,0,0,0-0.1c0,0-0.1,0-0.1,0c0,0,0-0.1,0-0.1c0,0-0.1,0-0.1,0c0.1,0,0.2,0,0.3,0
				c0.1,0,0.2,0.1,0.3,0.2c0,0,0,0,0.1,0.1c0,0,0,0,0,0c0,0,0,0,0,0c0,0-0.1-0.1-0.1-0.1c0-0.1,0-0.1,0.1-0.1c0,0,0.1,0.1,0.1,0.1
				c0,0,0,0,0.1,0c0,0,0,0,0-0.1c0,0,0,0-0.1-0.1c0,0,0,0-0.1,0c0,0,0,0,0,0c0,0,0.1,0,0.1,0C10.1,9.4,10,9.4,10,9.3
				C10,9.3,10,9.3,10,9.3L10,9.3z"/>
			<path class="st5" d="M8,9.2c0,0,0.1,0,0.1,0c0.1,0,0.1,0.1,0.2,0.1c0,0,0,0,0,0.1c0,0,0,0-0.1,0c-0.1,0-0.1,0-0.2-0.1
				c0,0-0.1,0-0.1,0c0,0,0,0,0,0c0,0,0.1,0.1,0.1,0.1c0,0,0,0.1,0,0.1c0,0-0.1,0-0.1,0.1c0,0,0,0,0,0.1h0c0,0,0,0.1,0,0.1
				c0,0,0,0,0,0c0,0-0.1,0-0.1,0c0,0,0,0.1,0,0.1c0,0,0-0.1,0-0.1c0,0,0,0,0,0c0,0,0,0,0,0c0,0,0,0,0-0.1c0,0,0,0,0-0.1
				c0,0,0,0-0.1,0c0,0,0-0.1,0-0.1c0,0,0.1,0,0.1-0.1c0,0,0,0,0-0.1C8,9.4,8,9.4,8,9.3C8,9.3,8,9.2,8,9.2L8,9.2z"/>
			<path class="st5" d="M9.9,9.3C9.9,9.3,9.9,9.3,9.9,9.3c0,0,0,0.1,0,0.2c0,0.1,0,0.1,0,0.2C9.8,9.6,9.7,9.5,9.6,9.5c0,0,0,0,0,0
				c0,0,0.1,0,0.1,0c0,0,0,0,0,0c0,0,0,0-0.1-0.1C9.8,9.4,9.8,9.3,9.9,9.3L9.9,9.3z"/>
			<path class="st4" d="M9.1,9.4c0.1,0,0.2-0.1,0.2-0.1c0,0,0.1,0.1,0.1,0.1c0,0,0,0,0,0.1c0,0,0.1,0,0.1,0c0,0,0,0,0,0c0,0,0,0,0,0
				c0,0,0,0,0,0c-0.1,0-0.2-0.1-0.3-0.1C9.3,9.4,9.2,9.4,9.1,9.4C9.2,9.5,9.2,9.5,9.1,9.4c0.1,0.1,0.1,0.1,0.2,0.1c0,0,0,0,0,0.1
				c0,0,0.1,0,0.1,0c0,0,0,0,0,0.1c0,0,0,0,0.1,0c0,0,0,0,0,0.1c0,0,0,0,0.1,0c0,0,0,0,0,0c0,0,0,0,0,0c0,0,0,0,0,0c0,0-0.1,0-0.1,0
				c0,0-0.1-0.1-0.1-0.1c0,0,0,0,0,0c0,0-0.1,0-0.1,0c0,0-0.1,0-0.1,0c0,0,0,0,0-0.1c0,0,0,0,0-0.1C9.2,9.5,9.2,9.4,9.1,9.4L9.1,9.4
				z"/>
			<path class="st5" d="M10,9.4c0,0,0.1,0,0.1,0C10.1,9.4,10,9.4,10,9.4C10,9.4,10,9.4,10,9.4L10,9.4z"/>
			<path class="st5" d="M9,9.4C9,9.4,9,9.4,9,9.4c0,0,0.1,0,0.1,0c0,0,0,0.1,0,0.2c0,0,0,0,0,0c0,0,0,0,0,0.1c0,0,0,0,0,0
				c0.1,0,0.1,0,0.2,0c0,0,0,0,0,0c0.1,0,0.1,0.1,0.1,0.1c0,0-0.1,0-0.1,0c0,0,0,0,0-0.1c0,0,0,0,0,0c0,0,0,0,0,0c0,0,0,0,0,0
				c-0.1,0-0.1,0-0.2,0c0,0,0,0-0.1,0c0,0,0,0,0,0c0,0,0-0.1,0-0.1c0,0,0,0,0,0c0,0,0,0,0,0C9,9.5,9,9.4,9,9.4L9,9.4z"/>
			<path class="st5" d="M10.3,9.4C10.3,9.4,10.3,9.4,10.3,9.4C10.3,9.4,10.3,9.4,10.3,9.4C10.3,9.5,10.3,9.5,10.3,9.4
				C10.3,9.5,10.3,9.5,10.3,9.4c0.1,0.1,0.1,0.1,0.1,0.1C10.3,9.5,10.3,9.5,10.3,9.4c0.1,0.1,0.1,0.1,0.1,0.1
				C10.3,9.5,10.3,9.5,10.3,9.4C10.3,9.5,10.3,9.5,10.3,9.4L10.3,9.4z"/>
			<path class="st6" d="M7.2,9.5C7.3,9.5,7.3,9.5,7.2,9.5C7.3,9.5,7.3,9.5,7.2,9.5C7.3,9.5,7.3,9.5,7.2,9.5c0,0.1,0,0.1,0.1,0.1
				c0,0,0.1,0,0.1,0c0,0,0,0,0-0.1c0,0,0,0,0,0c0,0,0,0,0,0l0,0c0,0,0.1,0,0.1,0c0,0,0,0,0,0c0,0,0,0,0,0c0,0,0,0.1,0,0.1
				c0,0,0.1,0,0.1,0c0,0,0,0,0-0.1c0,0,0,0,0,0c0,0,0,0.1,0,0.1h0c0,0,0,0,0,0c0,0,0,0,0,0c-0.1,0-0.1,0-0.2,0.1c0,0,0,0,0,0
				c0,0,0,0,0,0h0C7.3,9.6,7.3,9.5,7.2,9.5L7.2,9.5z"/>
			<path class="st6" d="M11,9.5C11,9.5,11,9.5,11,9.5c0,0,0,0.1,0,0.1h0C11,9.6,11,9.6,11,9.5C11,9.5,11,9.5,11,9.5
				c-0.1,0.1-0.1,0.1-0.2,0.1c0,0,0.1,0.1,0.1,0.1c0,0,0,0,0,0c0,0,0,0,0,0c0,0,0,0,0,0c0,0,0,0.1,0,0.1h0c0,0,0-0.1,0-0.1
				c0,0-0.1-0.1-0.1-0.1c0,0-0.1,0-0.1,0c0,0,0,0,0,0c0,0,0,0,0,0c0,0,0-0.1,0-0.1l0,0c0,0,0,0,0,0c0,0,0,0,0,0c0,0,0.1,0,0.1,0
				c0,0,0,0,0,0C10.9,9.5,10.9,9.5,11,9.5L11,9.5z"/>
			<path class="st4" d="M8.9,9.7C8.9,9.7,9,9.6,9,9.6c0,0.1,0,0.1,0,0.2c0,0,0,0,0,0c0,0,0.1,0,0.1,0c0.1,0,0.2,0,0.2,0c0,0,0,0,0,0
				c0,0,0,0,0,0c0,0,0,0,0,0c0,0,0,0-0.1,0c-0.1,0-0.1,0-0.2,0c0,0-0.1,0-0.1,0c0,0-0.1,0-0.1,0.1C9,9.8,8.9,9.8,8.9,9.7L8.9,9.7z"
				/>
			<path class="st4" d="M9.8,9.7C9.8,9.6,9.8,9.6,9.8,9.7C9.8,9.6,9.9,9.7,9.8,9.7C9.9,9.7,9.9,9.7,9.8,9.7C9.8,9.7,9.8,9.7,9.8,9.7
				L9.8,9.7z"/>
			<path class="st5" d="M9.2,9.9C9.2,9.9,9.2,9.9,9.2,9.9C9.2,9.9,9.2,9.9,9.2,9.9L9.2,9.9z"/>
			<path class="st5" d="M9.2,9.9C9.2,9.9,9.2,9.9,9.2,9.9C9.2,9.9,9.2,10,9.2,9.9C9.3,10,9.3,10,9.3,10c0,0,0,0,0,0.1c0,0,0,0,0,0.1
				c0,0,0.1,0,0.1,0c0,0,0.1,0,0.1,0c0,0,0,0,0.1,0c0,0,0,0,0,0c0,0,0.1,0,0.1,0c0,0,0,0,0.1,0c0,0,0,0,0,0c0,0,0,0,0.1,0
				c0,0,0.1,0,0.1,0c0,0,0,0,0,0c0.1,0,0.1,0.1,0.2,0.1c0,0-0.1,0.1-0.1,0.1c-0.5,0-1.1,0-1.6,0c0,0,0,0,0,0c0,0-0.1-0.1-0.1-0.1
				c0.1,0,0.3,0,0.4,0c0,0,0,0,0,0c-0.1,0-0.3,0-0.4-0.1c0.1,0,0.1,0,0.2,0c0.1,0,0.2,0,0.3,0c0,0,0,0,0.1-0.1c0,0,0.1,0,0.1,0
				c0,0,0,0,0,0C8.9,10,9,10,9,10c0,0,0,0,0,0c0,0,0,0,0,0c0,0,0,0,0.1,0c0,0,0.1,0,0.1,0C9.3,10,9.2,10,9.2,9.9L9.2,9.9z"/>
			<path class="st5" d="M8.9,10C8.9,10,8.9,10,8.9,10C9,10,9,10,9,10C9,10,8.9,10,8.9,10L8.9,10z"/>
			<path class="st5" d="M9.4,10C9.4,10,9.4,10,9.4,10C9.4,10,9.4,10,9.4,10C9.4,10,9.4,10,9.4,10L9.4,10z"/>
			<path class="st6" d="M8.4,10.6c0.1,0,0.1,0,0.1,0.1c0,0.1,0,0.1-0.1,0.1C8.3,10.8,8.3,10.8,8.4,10.6C8.3,10.7,8.3,10.7,8.4,10.6
				L8.4,10.6z"/>
			<path class="st6" d="M9.9,10.6C9.9,10.6,9.9,10.6,9.9,10.6c0.1,0,0.1,0.1,0.1,0.1c0,0,0,0.1-0.1,0.1c0,0-0.1,0-0.1,0
				C9.8,10.8,9.8,10.7,9.9,10.6C9.8,10.7,9.8,10.6,9.9,10.6L9.9,10.6z"/>
			<path class="st6" d="M9.1,10.7C9.1,10.7,9.1,10.7,9.1,10.7c0.1,0,0.1,0,0.1,0c0,0,0,0.1,0,0.1c0,0,0.1,0,0.1,0c0,0,0.1,0,0.1,0
				c0,0,0,0,0,0c0,0-0.1,0-0.1,0c0,0-0.1,0-0.1,0c0,0,0,0.1,0,0.1c0,0,0,0,0,0.1c0,0-0.1,0-0.1,0c0,0,0,0,0-0.1c0,0,0-0.1,0-0.1
				c0,0-0.1,0-0.1,0c0,0-0.1,0-0.1,0c0,0,0,0,0,0c0,0,0,0,0.1,0c0,0,0.1,0,0.1,0C9.1,10.8,9.1,10.8,9.1,10.7
				C9.1,10.7,9.1,10.7,9.1,10.7L9.1,10.7z"/>
			<polygon class="st7" points="7.2,7.4 7.2,7.4 7.2,7.4 			"/>
			<polygon class="st7" points="7.2,7.4 7.2,7.4 7.2,7.4 			"/>
			<g>
				<path class="st7" d="M8,6.8C8.2,7,8,7.4,7.7,7.7C7.4,8.1,7,8.2,6.8,8c-0.2-0.2,0-0.6,0.3-0.9C7.4,6.8,7.9,6.6,8,6.8z"/>
				<path class="st5" d="M7.8,7C8,7.2,7.9,7.5,7.7,7.7C7.5,7.9,7.2,8,7,7.8C6.8,7.7,6.9,7.3,7.1,7.1C7.3,6.9,7.6,6.9,7.8,7z"/>
				<rect x="7.5" y="7" transform="matrix(0.7071 -0.7071 0.7071 0.7071 -2.9255 7.5017)" class="st7" width="0.1" height="0.6"/>
				<polygon class="st7" points="7.2,7.3 7.3,7.6 7.1,7.4 7,7.5 7.5,7.7 7.5,7.7 7.5,7.7 7.3,7.2 				"/>
			</g>
			<g>
				<path class="st7" d="M11.5,10.3c-0.2-0.2-0.6,0-0.9,0.3c-0.3,0.3-0.5,0.7-0.3,0.9c0.2,0.2,0.6,0,0.9-0.3
					C11.5,10.8,11.6,10.4,11.5,10.3z"/>
				<path class="st5" d="M11.3,10.5c-0.2-0.2-0.5-0.1-0.7,0.1c-0.2,0.2-0.3,0.5-0.1,0.7c0.2,0.2,0.5,0.1,0.7-0.1
					C11.4,10.9,11.4,10.6,11.3,10.5z"/>
				<polygon class="st7" points="10.8,10.4 10.8,10.5 11.2,10.9 11.2,10.8 				"/>
				<polygon class="st7" points="11,11.1 10.7,10.9 10.8,11.2 10.8,11.3 10.5,10.7 10.5,10.7 10.5,10.7 11.1,11 				"/>
			</g>
			<g>
				<path class="st7" d="M10.3,6.8c-0.2,0.2,0,0.6,0.3,0.9C10.9,8,11.3,8.2,11.5,8c0.2-0.2,0-0.6-0.3-0.9
					C10.8,6.8,10.4,6.6,10.3,6.8z"/>
				<path class="st5" d="M10.5,7c-0.2,0.2-0.1,0.5,0.1,0.7c0.2,0.2,0.5,0.3,0.7,0.1c0.2-0.2,0.1-0.5-0.1-0.7
					C10.9,6.9,10.6,6.8,10.5,7z"/>
				<polygon class="st7" points="10.4,7.4 10.5,7.5 10.9,7.1 10.8,7 				"/>
				<polygon class="st7" points="11.1,7.3 10.9,7.5 11.2,7.4 11.3,7.5 10.7,7.7 10.7,7.7 10.7,7.7 11,7.2 				"/>
			</g>
			<g>
				<path class="st7" d="M6.8,10.2c0.2-0.2,0.6,0,0.9,0.3c0.3,0.3,0.5,0.7,0.3,0.9c-0.2,0.2-0.6,0-0.9-0.3
					C6.8,10.8,6.7,10.4,6.8,10.2z"/>
				<path class="st5" d="M7,10.4c0.2-0.2,0.5-0.1,0.7,0.1c0.2,0.2,0.3,0.5,0.1,0.7c-0.2,0.2-0.5,0.1-0.7-0.1
					C6.9,10.9,6.9,10.6,7,10.4z"/>
				<polygon class="st7" points="7.5,10.4 7.5,10.5 7.1,10.9 7.1,10.8 				"/>
				<polygon class="st7" points="7.3,11.1 7.6,10.9 7.4,11.2 7.5,11.3 7.8,10.7 7.8,10.7 7.8,10.7 7.2,11 				"/>
			</g>
		</g>
	</g>
</g>
</svg>
