<?xml version="1.0" encoding="utf-8"?>
<!-- Generator: Adobe Illustrator 22.1.0, SVG Export Plug-In . SVG Version: 6.00 Build 0)  -->
<svg version="1.1" id="Layer_1" xmlns="http://www.w3.org/2000/svg" xmlns:xlink="http://www.w3.org/1999/xlink" x="0px" y="0px"
	 viewBox="0 0 45 45" style="enable-background:new 0 0 45 45;" xml:space="preserve">
<style type="text/css">
	.st0{fill:#FCEB0F;}
	.st1{fill:#169253;}
	.st2{fill:#012A87;}
	.st3{fill:#DC181E;}
</style>
<g>
	<g>
		<path class="st0" d="M45,30.9v-8.4H0v8.4c0,1,0,2,0,2.8h45C45,32.9,45,32,45,30.9z"/>
		<path class="st1" d="M0,33.8c0.1,3.8,0.5,6.1,2.8,8.4C5.6,45,8.4,45,14.1,45h16.9c5.6,0,8.4,0,11.3-2.8c2.3-2.3,2.7-4.6,2.8-8.4H0
			z"/>
		<path class="st2" d="M45,14.1v8.4H0v-8.4c0-1,0-2,0-2.8h45C45,12.1,45,13,45,14.1z"/>
		<path class="st3" d="M0,11.3c0.1-3.8,0.5-6.1,2.8-8.4C5.6,0,8.4,0,14.1,0h16.9c5.6,0,8.4,0,11.3,2.8c2.3,2.3,2.7,4.6,2.8,8.4H0z"
			/>
	</g>
</g>
</svg>
