<?xml version="1.0" encoding="utf-8"?>
<!-- Generator: Adobe Illustrator 22.1.0, SVG Export Plug-In . SVG Version: 6.00 Build 0)  -->
<svg version="1.1" id="Layer_1" xmlns="http://www.w3.org/2000/svg" xmlns:xlink="http://www.w3.org/1999/xlink" x="0px" y="0px"
	 viewBox="0 0 45 45" style="enable-background:new 0 0 45 45;" xml:space="preserve">
<style type="text/css">
	.st0{fill:#DC171C;}
	.st1{fill:#47AECF;}
	.st2{fill:#FBEA0F;}
</style>
<g>
	<g>
		<g>
			<path class="st0" d="M2.8,2.8C0,5.6,0,8.4,0,14.1v16.9c0,5.6,0,8.4,2.8,11.3S8.4,45,14.1,45V0C8.4,0,5.6,0,2.8,2.8z"/>
			<path class="st0" d="M42.2,42.2C45,39.4,45,36.6,45,30.9V14.1c0-5.6,0-8.4-2.8-11.3S36.6,0,30.9,0l0,0v45
				C36.6,45,39.4,45,42.2,42.2z"/>
			<rect x="14.1" class="st1" width="16.9" height="45"/>
		</g>
		<g>
			<path class="st2" d="M7,20.6c-1.1,0-2.1-0.7-2.5-1.6c0,0,0,0,0,0c0,1.4,1.1,2.5,2.5,2.5c1.4,0,2.5-1.1,2.5-2.5c0,0,0,0,0,0
				C9.1,19.9,8.1,20.6,7,20.6z"/>
			<path class="st2" d="M6,15.1c0,0.6,0.5,1.1,1.1,1.1c0.6,0,1.1-0.5,1.1-1.1c0-0.4-0.3-0.5-0.3-0.6c0-0.2,0.2-0.4-0.2-0.7
				c0.2,0.3-0.1,0.4-0.1,0.7c0,0.3,0.1,0.2,0.1,0.4c0,0.1-0.1,0.2-0.2,0.2c-0.1,0-0.2-0.1-0.2-0.2c0-0.2,0.1-0.4,0.1-0.8
				c0-0.3,0-0.3-0.1-0.6C7,13.3,7,13.3,7.1,12.8c-0.3,0.1-0.2,0.6-0.2,0.9c0,0.3-0.3,0.3-0.3,0.6c0,0.3,0.2,0.4,0.2,0.6
				c0,0.1-0.1,0.2-0.2,0.2c-0.1,0-0.2-0.1-0.2-0.2c0-0.2,0.1-0.1,0.1-0.4c0-0.3-0.3-0.4-0.1-0.7c-0.3,0.3-0.2,0.5-0.2,0.7
				C6.2,14.6,6,14.7,6,15.1z"/>
			<path class="st2" d="M7,16.6c1,0,1.7,0.8,1.7,1.7c0,1-0.8,1.7-1.7,1.7c-1,0-1.7-0.8-1.7-1.7C5.3,17.4,6.1,16.6,7,16.6z"/>
			<rect x="2.5" y="21.8" class="st2" width="1.9" height="10.4"/>
			<rect x="9.6" y="21.8" class="st2" width="1.9" height="10.4"/>
			<polygon class="st2" points="5,21.8 7,23.1 9.1,21.8 			"/>
			<rect x="5" y="23.6" class="st2" width="4.2" height="0.9"/>
			<rect x="5" y="29.6" class="st2" width="4.2" height="0.9"/>
			<polygon class="st2" points="5,30.9 7,32.2 9.1,30.9 			"/>
			<path class="st2" d="M7.7,25c0.3,0.2,0.5,0.5,0.5,0.9c0,0.6-0.5,1.1-1.1,1.1C6.5,27,6,27.5,6,28.1c0,0.4,0.2,0.7,0.5,0.9
				c0.2,0.1,0.4,0.1,0.6,0.1c1.1,0,2.1-0.9,2.1-2.1C9.2,26.1,8.6,25.3,7.7,25z M7,28.6c-0.2,0-0.4-0.2-0.4-0.4
				c0-0.2,0.2-0.4,0.4-0.4c0.2,0,0.4,0.2,0.4,0.4C7.4,28.4,7.3,28.6,7,28.6z"/>
			<path class="st2" d="M7.6,25c-0.2-0.1-0.4-0.1-0.6-0.1c-1.1,0-2.1,0.9-2.1,2.1c0,0.9,0.6,1.7,1.4,2c-0.3-0.2-0.5-0.5-0.5-0.9
				C5.9,27.5,6.4,27,7,27s1.1-0.5,1.1-1.1C8.1,25.5,7.9,25.2,7.6,25z M7,26.3c-0.2,0-0.4-0.2-0.4-0.4c0-0.2,0.2-0.4,0.4-0.4
				c0.2,0,0.4,0.2,0.4,0.4C7.4,26.1,7.3,26.3,7,26.3z"/>
		</g>
	</g>
</g>
</svg>
