<?xml version="1.0" encoding="utf-8"?>
<!-- Generator: Adobe Illustrator 22.1.0, SVG Export Plug-In . SVG Version: 6.00 Build 0)  -->
<svg version="1.1" id="Layer_1" xmlns="http://www.w3.org/2000/svg" xmlns:xlink="http://www.w3.org/1999/xlink" x="0px" y="0px"
	 viewBox="0 0 45 45" style="enable-background:new 0 0 45 45;" xml:space="preserve">
<style type="text/css">
	.st0{fill:#E70013;}
	.st1{fill:#008400;}
</style>
<g>
	<g>
		<g>
			<path class="st0" d="M45,30.9c0,5.6,0,8.4-2.8,11.3C39.4,45,36.6,45,30.9,45H14.1c-5.6,0-8.4,0-11.3-2.8C0,39.4,0,36.6,0,30.9
				V14.1C0,8.4,0,5.6,2.8,2.8C5.6,0,8.4,0,14.1,0h16.9c5.6,0,8.4,0,11.3,2.8C45,5.6,45,8.4,45,14.1V30.9z"/>
		</g>
		<g>
			<g>
				<polygon class="st1" points="19.9,19.9 11.5,19.9 21.1,27.2 22.5,26.1 16.7,21.7 19.4,21.7 				"/>
				<path d="M11.5,19.9h8.4v0l0,0l-0.6,1.8l-2.6,0l5.8,4.4l-1.5,1.1L11.5,19.9L11.5,19.9z M21.1,27.2l1.4-1.1l-5.8-4.4l2.6,0
					l0.5-1.7l-8.4,0L21.1,27.2L21.1,27.2z"/>
			</g>
			<g>
				<polygon class="st1" points="25.1,19.9 22.5,11.6 18.9,23.3 20.3,24.4 22.5,17.3 23.3,19.9 				"/>
				<path d="M18.8,23.3l3.7-11.7l2.6,8.3l0,0v0l-1.8,0l-0.8-2.6l-2.2,7.1L18.8,23.3L18.8,23.3z M18.9,23.3l1.4,1.1l2.2-7.1l0.8,2.6
					h1.8l-2.6-8.3L18.9,23.3L18.9,23.3z"/>
			</g>
			<g>
				<polygon class="st1" points="26.7,25.1 33.5,19.9 21.7,19.9 21.1,21.7 28.3,21.7 26.1,23.3 				"/>
				<path d="M26.7,25.1L26.7,25.1l-0.6-1.8l2.1-1.6l-7.2,0l0.6-1.8l11.8,0L26.7,25.1L26.7,25.1L26.7,25.1z M21.1,21.7l7.2,0
					l-2.1,1.6l0.5,1.7l6.8-5.1l-11.8,0L21.1,21.7L21.1,21.7z"/>
			</g>
			<g>
				<polygon class="st1" points="22.5,28.3 29.3,33.4 25.6,21.7 23.9,21.7 26.1,28.8 23.9,27.2 				"/>
				<path d="M22.5,28.3L22.5,28.3L22.5,28.3l1.5-1.1l2.1,1.6l-2.2-7.1l1.8,0l3.6,11.8L22.5,28.3L22.5,28.3z M29.3,33.4l-3.6-11.7
					l-1.8,0l2.2,7.1l-2.1-1.6l-1.4,1.1L29.3,33.4L29.3,33.4z"/>
			</g>
			<g>
				<polygon class="st1" points="18.3,25.1 15.7,33.4 25.3,26.2 24.7,24.4 18.9,28.8 19.7,26.2 				"/>
				<path d="M18.3,25.1L18.3,25.1L18.3,25.1l1.5,1.1l-0.8,2.6l5.8-4.4l0.5,1.8l-9.6,7.2L18.3,25.1L18.3,25.1z M15.7,33.4l9.5-7.2
					l-0.5-1.8l-5.8,4.4l0.8-2.6l-1.4-1.1L15.7,33.4L15.7,33.4z"/>
			</g>
		</g>
	</g>
</g>
</svg>
