<?xml version="1.0" encoding="utf-8"?>
<!-- Generator: Adobe Illustrator 22.1.0, SVG Export Plug-In . SVG Version: 6.00 Build 0)  -->
<svg version="1.1" id="Layer_1" xmlns="http://www.w3.org/2000/svg" xmlns:xlink="http://www.w3.org/1999/xlink" x="0px" y="0px"
	 viewBox="0 0 45 45" style="enable-background:new 0 0 45 45;" xml:space="preserve">
<style type="text/css">
	.st0{fill:#FCE100;}
	.st1{fill:#007168;}
	.st2{fill:#FFFFFF;}
	.st3{fill:#CF142B;}
</style>
<g>
	<g>
		<g>
			<path class="st0" d="M45,30.9v-0.2H11.3L0.7,38.9c0.4,1.2,1.1,2.2,2.1,3.3C5.6,45,8.4,45,14.1,45h16.9c5.6,0,8.4,0,11.3-2.8
				S45,36.6,45,30.9z"/>
			<polygon points="22.2,22.5 13.4,29.2 45,29.2 45,15.8 13.4,15.8 			"/>
			<path class="st1" d="M0.7,6.1l10.6,8.1H45v-0.1c0-5.6,0-8.4-2.8-11.3S36.6,0,30.9,0H14.1C8.4,0,5.6,0,2.8,2.8
				C1.8,3.9,1.1,4.9,0.7,6.1z"/>
			<polygon class="st2" points="11.3,14.2 12.3,15 13.4,15.8 45,15.8 45,15 45,14.2 			"/>
			<polygon class="st2" points="13.4,29.2 12.4,30 11.3,30.8 45,30.8 45,30 45,29.2 			"/>
			<path class="st3" d="M13.4,15.8l-1-0.8l-1-0.8L0.7,6.1C0,8.1,0,10.5,0,14.1v0.1V15v0.8v13.4V30v0.8v0.2c0,3.5,0,6,0.7,8l10.6-8.1
				l1-0.8l1-0.8l8.8-6.7L13.4,15.8z"/>
		</g>
		<g>
			<polygon class="st0" points="7,17.5 8.3,21.3 12.3,21.3 9,23.7 10.3,27.5 7,25.1 3.8,27.5 5,23.7 1.8,21.3 5.8,21.3 			"/>
			<g>
				<path class="st2" d="M11.9,17.9L11.9,17.9L11.9,17.9C11.9,17.9,11.9,17.9,11.9,17.9L11.9,17.9z"/>
				<g>
					<path d="M7.9,21c0,0,0-0.1,0-0.1c0.1-0.1,0.3-0.2,0.4-0.3c0.1,0,0.2,0.1,0.2,0.2c0,0,0,0,0,0c0,0,0,0,0.1,0
						c0.3-0.3,0.6-0.5,0.9-0.8c0.1-0.1,0.1-0.1,0.2-0.2c0,0,0.1,0,0.1,0c0,0,0.1,0,0.1,0c0.6-0.6,1.3-1.2,1.9-1.8v0c0,0,0,0,0,0h0
						c-0.1,0-0.1,0.1-0.2,0.1c-0.6,0.4-1.2,0.9-1.8,1.3c0,0,0,0-0.1,0c0,0,0,0,0,0c0,0,0-0.1,0-0.1c0,0,0-0.1-0.1-0.1
						c0,0-0.1,0-0.1,0c0,0-0.1,0.1-0.1,0.1c-0.1,0-0.1-0.1-0.2-0.1c0,0-0.1-0.1-0.1-0.1c0,0,0,0,0,0c0,0,0,0,0,0c0,0,0,0.1,0,0.1
						c0,0.1,0,0.1,0,0.2c-0.2,0.2-0.3,0.3-0.5,0.5c-0.1,0-0.3,0-0.4,0C8,20,7.8,20.2,7.6,20.4c0,0,0,0-0.1,0.1c0,0,0,0.1,0,0.1
						c0,0,0-0.1-0.1-0.1c0,0,0,0-0.1,0c-0.1,0.1-0.2,0.2-0.3,0.3c0,0,0,0,0,0c-0.3-0.4-0.6-0.7-1-1.1c0-0.1,0-0.1,0.1-0.2
						c0,0,0,0,0,0C6,19.2,5.8,19,5.6,18.8c0,0-0.1,0-0.1,0c-0.1,0-0.3,0-0.4,0C5,18.8,4.9,18.9,4.9,19c0,0.1,0,0.1,0,0.2
						c0,0-0.1,0-0.1,0c-0.1,0-0.2,0-0.3,0c0,0-0.1,0-0.1,0c-0.1,0-0.2,0-0.2,0c0,0,0,0,0,0c-0.5,0.7-0.9,1.3-1.4,2c0,0,0,0,0,0.1
						c0,0,0,0,0,0.1c0.3,0.3,0.5,0.6,0.8,0.9c0,0,0,0,0,0c0.5-0.7,1.1-1.4,1.6-2c0,0,0,0,0-0.1c0-0.2,0-0.3,0-0.5
						c0.1,0.1,0.2,0.2,0.2,0.3c0,0,0,0,0.1,0.1c0,0,0.1,0,0.2,0c0.1,0,0.1,0,0.2,0c0.2,0.2,0.4,0.4,0.6,0.7c0.1,0.1,0.2,0.3,0.3,0.4
						c0,0-0.1,0.1-0.1,0.1c0,0,0,0,0,0c0,0.1,0.1,0.1,0.1,0.1c0,0,0,0,0,0c0.1,0,0.1-0.1,0.1-0.1c0,0,0,0,0,0
						c-0.1,0-0.1,0.1-0.2,0.1c-0.1-0.1-0.2-0.2-0.2-0.3c0,0,0-0.1,0-0.1c0,0,0,0,0,0c-0.1,0.1-0.2,0.2-0.4,0.3
						c-0.2,0-0.4,0.1-0.6,0.1c-0.2,0-0.4,0.1-0.6,0.1c-0.1,0-0.1,0-0.2,0.1c-0.1,0.1-0.2,0.2-0.3,0.3c0,0.1,0,0.2-0.1,0.3
						c-0.1,0.2-0.1,0.5-0.2,0.7c0,0-0.1,0-0.1,0c0,0,0,0,0,0c0,0.1,0,0.3,0,0.4c0,0,0,0,0,0.1c0,0,0,0,0,0c0,0,0,0.1,0,0.1
						c0,0-0.1,0-0.1,0c-0.2,0.2-0.4,0.4-0.5,0.5c-0.1,0-0.3,0-0.4,0.1c-0.3,0.2-0.5,0.5-0.8,0.7c-0.1,0.1-0.1,0.1-0.2,0.2v0
						c0,0,0,0,0,0.1c0.2,0.2,0.4,0.4,0.5,0.6c0.1,0.1,0.2,0.1,0.3,0c0.3-0.3,0.5-0.7,0.8-1c0.9,0,1.7,0,2.6,0
						C6.5,24.9,6.6,25,6.7,25c0.2,0.1,0.3,0.1,0.5,0c0.2,0,0.3-0.1,0.5-0.2c0,0,0.1,0,0.1-0.1c0.3-0.1,0.5-0.1,0.8-0.1
						c0.5,0,0.9,0.1,1.3,0.2c0,0,0.1,0,0.1,0c0.3,0.3,0.5,0.6,0.8,0.9c0,0,0,0,0.1,0c0.1,0,0.1-0.1,0.2-0.1c0-0.1,0.1-0.1,0.1-0.2
						c0,0,0,0,0,0c-0.3-0.3-0.5-0.6-0.8-0.9c0,0,0-0.1,0-0.1c-0.2-0.8-0.5-1.6-0.7-2.4c0,0,0,0,0,0c-0.1-0.1-0.2-0.2-0.3-0.3
						c0,0,0,0-0.1,0c-0.1-0.1-0.2-0.1-0.3-0.1c-0.4-0.1-0.7-0.1-1.1-0.1c0,0-0.1,0-0.1,0c0,0-0.1-0.1-0.1-0.1
						c0.1-0.1,0.1-0.1,0.2-0.2C7.9,21.1,7.9,21.1,7.9,21z M7.3,21C7.3,21,7.3,21,7.3,21c0-0.1,0.1-0.2,0.2-0.3c0,0,0,0,0,0
						c0,0,0,0,0,0.1C7.5,20.9,7.4,21,7.3,21z"/>
					<path class="st2" d="M5.5,21.6c0.2,0,0.4-0.1,0.6-0.1c0,0-0.1,0-0.1,0.1c0,0,0,0.1,0,0.1c-0.3,0.2-0.5,0.4-0.8,0.7
						c-0.2,0.1-0.3,0.3-0.5,0.4c0.1-0.3,0.2-0.6,0.2-1C5.1,21.6,5.3,21.6,5.5,21.6L5.5,21.6z"/>
					<path class="st2" d="M7.8,21.5c0.4,0,0.7,0,1.1,0.1c0.1,0,0.3,0.1,0.4,0.1c0,0,0,0,0,0c0.1,0.7,0.3,1.3,0.4,2
						c-0.2-0.2-0.3-0.4-0.5-0.6C8.7,22.6,8.3,22.1,7.8,21.5L7.8,21.5z"/>
					<path class="st2" d="M7.1,21.8c0,0,0.1-0.1,0.1-0.1c0.5,0.5,0.9,1,1.4,1.5c0.3,0.3,0.5,0.6,0.8,0.9c-0.3,0-0.5,0-0.8,0
						c-0.5,0-0.9,0.1-1.4,0.2c-0.1,0-0.1,0.1-0.2,0.1c0-0.1,0-0.2,0-0.3c0-0.1,0-0.3,0-0.4c0.2,0,0.3,0.1,0.5,0c0,0,0.1,0,0.1,0
						c0,0,0-0.1,0-0.1c0-0.2,0-0.4,0-0.6c0,0,0,0,0,0c-0.2,0-0.4-0.1-0.6-0.1C7.1,22.5,7.1,22.2,7.1,21.8
						C7.1,21.8,7.1,21.8,7.1,21.8L7.1,21.8z"/>
					<path class="st2" d="M4.6,22c0.1-0.1,0.2-0.2,0.3-0.3c-0.1,0.3-0.1,0.7-0.2,1c-0.1,0.1-0.2,0.1-0.3,0.2
						C4.4,22.7,4.5,22.4,4.6,22C4.6,22.1,4.6,22,4.6,22L4.6,22z"/>
					<path class="st2" d="M9.4,21.8c0.1,0.1,0.1,0.1,0.2,0.2c0,0,0,0,0,0c0.2,0.8,0.5,1.6,0.7,2.4c-0.2-0.2-0.3-0.4-0.5-0.6
						c0,0,0,0,0,0C9.6,23.1,9.5,22.5,9.4,21.8L9.4,21.8z"/>
					<path class="st2" d="M6.7,22.2c0.1-0.1,0.3-0.2,0.4-0.3c0,0.1,0,0.2,0,0.3c0,0.2,0,0.5,0,0.7c-0.2,0-0.4-0.1-0.6-0.1
						c-0.1,0-0.2-0.1-0.2-0.1c0,0-0.1,0-0.1-0.1c0-0.1,0-0.1,0-0.2c0.1-0.1,0.2-0.1,0.3-0.1c0,0,0,0,0,0c-0.1-0.1-0.1-0.1-0.2-0.2
						c0,0,0,0,0-0.1C6.5,22,6.5,22.1,6.7,22.2C6.6,22.2,6.6,22.2,6.7,22.2L6.7,22.2z"/>
					<path class="st2" d="M6,22.1C6,22,6.1,22,6.1,21.9c0,0,0,0,0,0c-0.2,0.2-0.5,0.4-0.7,0.6c0,0,0,0.1,0,0.1c0,0-0.1,0.1-0.1,0.1
						c0,0,0,0-0.1,0c0,0,0,0,0,0c-0.3,0.3-0.6,0.6-1,0.9c0,0,0,0,0,0c0-0.1,0-0.1,0-0.2c0.3-0.3,0.6-0.5,0.9-0.8c0,0,0,0,0,0
						c0,0,0,0,0-0.1c0,0,0.1,0.1,0.1,0C5.5,22.4,5.7,22.3,6,22.1L6,22.1z"/>
					<path class="st2" d="M5.5,23.1c0,0,0.1-0.1,0.1-0.1c0.3,0.2,0.7,0.4,1,0.5c0.1,0.1,0.3,0.1,0.4,0.2c0,0.2,0,0.5,0,0.7
						c-0.1,0-0.2-0.1-0.3-0.1c-0.5-0.1-0.9-0.2-1.4-0.2c0-0.1-0.1-0.2-0.1-0.3c0.1-0.1,0.2-0.3,0.4-0.4c0,0,0.1-0.1,0.1-0.1
						C5.7,23.3,5.6,23.2,5.5,23.1L5.5,23.1z"/>
					<path class="st2" d="M5.3,23.3C5.3,23.3,5.3,23.3,5.3,23.3c0.1,0,0.2,0,0.2,0c-0.1,0.1-0.1,0.1-0.2,0.2c-0.1,0-0.1,0-0.2,0
						c-0.1,0.1-0.3,0.2-0.4,0.3c0,0,0,0,0,0c0,0,0.1,0.1,0.2,0.1c0,0,0,0,0,0c0,0,0,0,0,0c-0.1,0-0.3,0-0.4,0c0,0,0-0.1,0-0.1
						c0.2-0.2,0.5-0.4,0.7-0.6c0.1,0,0.1,0,0.2,0c0,0,0,0,0-0.1C5.3,23.4,5.2,23.4,5.3,23.3C5.2,23.3,5.2,23.3,5.3,23.3L5.3,23.3z"
						/>
					<path class="st2" d="M8.1,24.2c0.2,0,0.3,0,0.5,0c0.1,0,0.1,0,0.2,0c0.2,0,0.5,0,0.7,0.1c0.2,0.2,0.3,0.4,0.5,0.6
						c-0.4-0.1-0.8-0.2-1.2-0.2c-0.3,0-0.6,0-0.9,0.1c-0.1,0-0.2,0.1-0.3,0.1c-0.1-0.2-0.3-0.3-0.5-0.4C7.5,24.3,7.8,24.2,8.1,24.2
						L8.1,24.2z"/>
					<path class="st2" d="M5.4,24.2c0.3,0,0.6,0,1,0.1c0,0,0,0,0,0c0,0,0,0,0.1,0c0.2,0,0.4,0.1,0.6,0.2c-0.2,0.1-0.4,0.2-0.5,0.4
						c-0.2,0-0.4,0-0.5,0c-0.5,0-1.1,0-1.6,0c-0.1,0-0.3,0-0.4,0c0.1-0.1,0.2-0.3,0.3-0.4c0-0.1,0.1-0.1,0.1-0.2c0,0,0.1,0,0.1,0
						c0.1,0,0.3,0,0.4,0c0.1,0.2,0.1,0.3,0.2,0.5c0,0,0,0.1,0,0.1c0,0,0,0,0,0c0.1-0.1,0.2-0.1,0.3-0.2c0,0,0,0,0,0
						C5.4,24.4,5.4,24.3,5.4,24.2L5.4,24.2z"/>
					<path class="st2" d="M7.1,24.5C7.1,24.5,7.1,24.5,7.1,24.5c0.2,0.1,0.4,0.2,0.5,0.3C7.5,24.9,7.3,25,7.1,25
						c-0.2,0-0.4,0-0.6-0.2C6.7,24.7,6.9,24.6,7.1,24.5L7.1,24.5z"/>
				</g>
			</g>
		</g>
	</g>
</g>
</svg>
