<?xml version="1.0" encoding="utf-8"?>
<!-- Generator: Adobe Illustrator 22.1.0, SVG Export Plug-In . SVG Version: 6.00 Build 0)  -->
<svg version="1.1" id="Layer_1" xmlns="http://www.w3.org/2000/svg" xmlns:xlink="http://www.w3.org/1999/xlink" x="0px" y="0px"
	 viewBox="0 0 100 100" style="enable-background:new 0 0 100 100;" xml:space="preserve">
<style type="text/css">
	.st0{fill:#FFFFFF;}
	.st1{fill:#FF0700;}
	.st2{fill:#084FC1;}
</style>
<path class="st0" d="M100,50V31.2c0-12.5,0-18.7-6.3-25C87.5,0,81.3,0,68.8,0H31.3c-12.5,0-18.8,0-25,6.2C0,12.5,0,18.7,0,31.2V50
	v18.7c0,12.5,0,18.8,6.3,25c6.3,6.3,12.5,6.3,25,6.3h37.5c12.5,0,18.8,0,25-6.3c6.3-6.2,6.3-12.5,6.3-25V50H100z"/>
<rect x="38.3" class="st1" width="23.5" height="100"/>
<rect x="38.3" y="0" transform="matrix(4.491258e-11 -1 1 4.491258e-11 5.001831e-02 100.05)" class="st2" width="23.5" height="100"/>
<polygon class="st0" points="50.1,40.8 51.3,43.5 54.3,43.9 52.2,45.9 52.6,48.8 50.1,47.5 47.5,48.8 47.9,45.9 45.8,43.9 
	48.8,43.5 "/>
<polygon class="st0" points="66,44.8 67.3,47.5 70.2,47.9 68.1,49.9 68.6,52.8 66,51.5 63.4,52.8 63.9,49.9 61.8,47.9 64.7,47.5 "/>
<polygon class="st0" points="34.1,44.8 35.4,47.5 38.3,47.9 36.2,49.9 36.7,52.8 34.1,51.5 31.5,52.8 32,49.9 29.9,47.9 32.8,47.5 
	"/>
<polygon class="st0" points="43.5,51.6 44.8,54.2 47.7,54.6 45.6,56.7 46.1,59.6 43.5,58.2 40.9,59.6 41.4,56.7 39.3,54.6 
	42.2,54.2 "/>
<polygon class="st0" points="56.6,51.6 57.9,54.2 60.8,54.6 58.7,56.7 59.2,59.6 56.6,58.2 54,59.6 54.5,56.7 52.4,54.6 55.3,54.2 
	"/>
</svg>
