<?xml version="1.0" encoding="utf-8"?>
<!-- Generator: Adobe Illustrator 22.1.0, SVG Export Plug-In . SVG Version: 6.00 Build 0)  -->
<svg version="1.1" id="Layer_1" xmlns="http://www.w3.org/2000/svg" xmlns:xlink="http://www.w3.org/1999/xlink" x="0px" y="0px"
	 viewBox="0 0 45.1 45.1" style="enable-background:new 0 0 45.1 45.1;" xml:space="preserve">
<style type="text/css">
	.st0{fill:#004990;}
	.st1{fill:#EF3E42;}
	.st2{fill:#E31937;}
	.st3{fill:#FFFFFF;}
</style>
<g>
	<g>
		<path class="st0" d="M45,31l0-16.9c0-5.6,0-8.4-2.8-11.3C39.5,0.1,36.7,0.1,31,0.1L14.2,0C8.5,0,5.7,0,2.9,2.8
			C0.1,5.6,0.1,8.4,0.1,14l0,16.9c0,5.6,0,8.4,2.8,11.3C5.6,45,8.4,45,14,45l16.9,0c5.6,0,8.4,0,11.3-2.8C45,39.5,45,36.7,45,31z"/>
		<path class="st0" d="M1,5.4C0.7,6.1,0.5,6.9,0.3,7.8l4.4,0L1,5.4z"/>
		<polygon class="st0" points="0.1,14.6 0,17.7 4.7,14.6 		"/>
		<polygon class="st0" points="0.7,22.5 10.3,22.5 10.3,16.1 		"/>
		<polygon class="st0" points="30.5,20 30.6,14.7 22.6,14.7 		"/>
		<path class="st0" d="M10.4,0C7.5,0.2,5.6,0.6,3.8,2l6.6,4.4L10.4,0z"/>
		<polygon class="st0" points="26.7,0 17.1,0 17.1,6.4 		"/>
		<polygon class="st0" points="17,22.5 26.6,22.5 17.1,16.1 		"/>
		<polygon class="st0" points="30.6,7.9 30.6,2.7 22.7,7.9 		"/>
		<path class="st1" d="M14.2,0l-2.4,0v0C12.5,0,13.3,0,14.2,0z"/>
		<polygon class="st2" points="18.8,14.6 30.5,22.5 30.5,20.7 21.5,14.7 		"/>
		<polygon class="st2" points="27.9,0 17.1,7.2 17.1,7.9 18.7,7.9 30.6,0.1 30.6,0.1 		"/>
		<polygon class="st2" points="8.6,14.6 0,20.2 0,22 10.3,15.2 10.3,14.6 		"/>
		<path class="st2" d="M2.2,3.6C1.9,4,1.6,4.4,1.4,4.8L6,7.9l2.7,0L2.2,3.6z"/>
		<path class="st2" d="M15.7,9.3l0-9.3v0l-1.5,0c-0.9,0-1.7,0-2.4,0l0,9.3L1,9.3l-0.9,0c-0.1,1.1-0.1,2.4-0.1,3.9l11.7,0l0,9.3
			l3.9,0l0-9.3l14.9,0v0l0-3.9L15.7,9.3z"/>
		<g>
			<path class="st3" d="M0.1,13.2c0,0.3,0,0.6,0,0.8l0,0.6l3.7,0l1,0L0,17.7l0,2.5l8.5-5.6l1.8,0l0,0.6L0,22l0,0.4l0.7,0l9.6-6.4
				l0,1.1l0,5.3l1.4,0l0-7.3l0-1.9l-4.9,0L0.1,13.2z"/>
			<path class="st3" d="M10.3,6.4L3.8,2C3.5,2.2,3.2,2.5,2.9,2.8C2.6,3,2.4,3.3,2.2,3.6l6.4,4.3L6,7.9L1.4,4.8C1.2,5,1.1,5.2,1,5.4
				l3.7,2.5l-4.4,0C0.3,8.3,0.2,8.8,0.2,9.2l6.7,0l4.9,0l0-1.9l0-7.3c-0.5,0-1,0-1.4,0L10.3,6.4z"/>
			<polygon class="st3" points="30.6,14.7 30.6,13.3 20.5,13.2 15.7,13.2 15.6,15.2 15.6,22.5 17,22.5 17.1,16.1 26.6,22.5 
				30.5,22.6 30.5,22.5 18.8,14.6 21.5,14.7 30.5,20.7 30.5,20 22.6,14.7 24.8,14.7 			"/>
			<polygon class="st3" points="20.6,9.3 30.6,9.3 30.6,7.9 23.8,7.9 23.8,7.9 22.7,7.9 30.6,2.7 30.6,0.1 18.7,7.9 18.7,7.9 
				17.1,7.9 17.1,7.2 27.9,0 26.7,0 17.1,6.4 17.1,6.1 17.1,0 15.7,0 15.7,7.4 15.7,9.3 20.6,9.3 			"/>
		</g>
		<g>
			<polygon class="st3" points="36,19 37.9,19 38.4,17.3 39,19 40.8,19.1 39.3,20.1 39.9,21.8 38.4,20.8 36.9,21.8 37.5,20.1 			"/>
			<polygon class="st2" points="36.8,19.3 38,19.3 38.4,18.2 38.8,19.3 40,19.3 39,20 39.4,21.1 38.4,20.4 37.4,21.1 37.8,20 			"/>
		</g>
	</g>
</g>
</svg>
