<?xml version="1.0" encoding="utf-8"?>
<!-- Generator: Adobe Illustrator 22.1.0, SVG Export Plug-In . SVG Version: 6.00 Build 0)  -->
<svg version="1.1" id="Layer_1" xmlns="http://www.w3.org/2000/svg" xmlns:xlink="http://www.w3.org/1999/xlink" x="0px" y="0px"
	 viewBox="0 0 45 45" style="enable-background:new 0 0 45 45;" xml:space="preserve">
<style type="text/css">
	.st0{fill:#EF2B2D;}
	.st1{fill:#FFFFFF;}
	.st2{fill:#002868;}
</style>
<g>
	<g>
		<path class="st0" d="M10.7,0C7.2,0.1,5,0.6,2.8,2.8C0,5.6,0,8.4,0,14.1v2.8h10.7V0z"/>
		<path class="st0" d="M0,28.1v2.8c0,5.6,0,8.4,2.8,11.3c2.2,2.2,4.4,2.7,7.9,2.8V28.1H0z"/>
		<path class="st0" d="M45,16.9v-2.8c0-5.6,0-8.4-2.8-11.3S36.6,0,30.9,0h-9v16.9H45z"/>
		<path class="st0" d="M45,30.9v-2.8H22V45h9c5.6,0,8.4,0,11.3-2.8S45,36.6,45,30.9z"/>
		<path class="st1" d="M10.7,16.9H0v2.8h13.5V0c-1,0-2,0-2.8,0V16.9z"/>
		<polygon class="st1" points="45,19.7 45,16.9 22,16.9 22,0 19.2,0 19.2,19.7 		"/>
		<polygon class="st1" points="45,28.1 45,25.3 19.2,25.3 19.2,45 22,45 22,28.1 		"/>
		<path class="st1" d="M10.7,28.1V45c0.9,0,1.8,0,2.8,0V25.3H0v2.8H10.7z"/>
		<path class="st2" d="M45,25.3v-5.6H19.2V0h-5.1c-0.2,0-0.3,0-0.5,0v19.7H0v5.6h13.5V45c0.2,0,0.3,0,0.5,0h5.1V25.3H45z"/>
	</g>
</g>
</svg>
