<?xml version="1.0" encoding="utf-8"?>
<!-- Generator: Adobe Illustrator 22.1.0, SVG Export Plug-In . SVG Version: 6.00 Build 0)  -->
<svg version="1.1" id="Layer_1" xmlns="http://www.w3.org/2000/svg" xmlns:xlink="http://www.w3.org/1999/xlink" x="0px" y="0px"
	 viewBox="0 0 45 45" style="enable-background:new 0 0 45 45;" xml:space="preserve">
<style type="text/css">
	.st0{fill:#D21034;}
	.st1{fill:#FFFFFF;}
	.st2{fill:#0067C6;}
</style>
<g>
	<g>
		<g>
			<path class="st0" d="M42.2,2.8C39.4,0,36.6,0,30.9,0h-8.4v22.5H45v-8.4C45,8.4,45,5.6,42.2,2.8z"/>
			<path class="st1" d="M22.5,45h8.4c5.6,0,8.4,0,11.2-2.8S45,36.6,45,30.9v-8.4H22.5V45z"/>
			<path class="st1" d="M2.8,2.8C5.6,0,8.4,0,14.1,0h8.4v22.5H0v-8.4C0,8.4,0,5.6,2.8,2.8z"/>
			<path class="st2" d="M22.5,45h-8.4c-5.6,0-8.4,0-11.3-2.8S0,36.6,0,30.9v-8.4h22.5V45z"/>
		</g>
		<polygon class="st2" points="11.3,6.3 12.5,10.1 16.5,10.1 13.3,12.4 14.5,16.3 11.3,13.9 8,16.3 9.2,12.4 6,10.1 10,10.1 		"/>
		<polygon class="st0" points="33.7,28.8 35,32.6 39,32.6 35.8,34.9 37,38.8 33.7,36.4 30.5,38.8 31.7,34.9 28.5,32.6 32.5,32.6 		
			"/>
	</g>
</g>
</svg>
