<?xml version="1.0" encoding="utf-8"?>
<!-- Generator: Adobe Illustrator 22.1.0, SVG Export Plug-In . SVG Version: 6.00 Build 0)  -->
<svg version="1.1" id="Layer_1" xmlns="http://www.w3.org/2000/svg" xmlns:xlink="http://www.w3.org/1999/xlink" x="0px" y="0px"
	 viewBox="0 0 45 45" style="enable-background:new 0 0 45 45;" xml:space="preserve">
<style type="text/css">
	.st0{fill:#872D00;}
	.st1{fill:#0038A8;}
	.st2{fill:#CE1126;}
	.st3{fill:#FFFFFF;}
	.st4{fill:#FCD116;}
</style>
<g>
	<g>
		<g>
			<path class="st0" d="M30.9,0H14.1c-0.4,0-0.9,0-1.3,0h19.4C31.8,0,31.4,0,30.9,0z"/>
			<path class="st1" d="M0.5,6.7l22.9,15.8H45v-8.4c0-5.6,0-8.4-2.8-11.3C39.6,0.2,37,0,32.2,0H12.8C8,0,5.4,0.2,2.8,2.8
				C1.6,4,0.9,5.3,0.5,6.7z"/>
			<path class="st2" d="M45,30.9v-8.4H23.4L0.5,38.3c0.4,1.5,1.1,2.7,2.3,3.9C5.6,45,8.4,45,14.1,45h16.9c5.6,0,8.4,0,11.3-2.8
				S45,36.6,45,30.9z"/>
			<path class="st3" d="M0.5,6.7C0,8.6,0,10.9,0,14.1v8.4v8.4c0,3.2,0,5.4,0.5,7.3l22.9-15.8L0.5,6.7z"/>
		</g>
		<g>
			<polygon class="st4" points="4.3,34.2 3.3,33.7 2.5,34.6 2.6,33.5 1.6,33 2.7,32.8 2.8,31.7 3.4,32.6 4.4,32.4 3.7,33.2 			"/>
			<path class="st4" d="M12.7,23.1c0.2-0.2,0.3-0.3,0.5-0.5c-0.1-0.1-0.4-0.5-0.6-0.5c-0.5,0.1-0.9,0.1-1.4,0.2
				c-0.5,0.1-0.4-0.1,0-0.2c0.4-0.1,0.8-0.1,1.2-0.2c-0.3-0.2-0.3-0.3-0.7-0.2c-0.4,0.1-0.9,0.5-1.1,0c-0.1-0.3-0.3-0.4,0-0.5
				c0.2-0.1,0.4-0.2,0.6-0.4c0.4-0.2,0.4-0.2,0.5-0.7c-0.3,0.2-0.6,0.4-1,0.6c-0.1,0.1-0.3,0.2-0.4,0.3c-0.2,0.2,0-0.2,0-0.3
				c0.4-0.3,0.8-0.6,1.2-0.9c0.3-0.2,0.2-0.5,0.2-0.8c-0.2,0-0.7-0.1-0.8,0.1c-0.3,0.4-0.6,0.7-0.9,1.1c-0.3,0.4-0.4,0.2-0.2-0.2
				c0.2-0.3,0.5-0.7,0.7-1c-0.4,0-0.4,0-0.6,0.3c-0.1,0.2-0.3,0.4-0.4,0.6c-0.2,0.3-0.1,0.3-0.4,0.1c-0.3-0.1-0.6-0.1-0.5-0.4
				c0.1-0.2,0.1-0.5,0.2-0.7C9,18.5,9,18.5,8.7,18.2c-0.1,0.4-0.1,0.8-0.2,1.1c0,0.2-0.1,0.3-0.1,0.5c0,0.3-0.2-0.2-0.2-0.2
				c0.1-0.5,0.1-1,0.2-1.5c0-0.3-0.2-0.5-0.5-0.7c-0.1,0.1-0.5,0.4-0.5,0.6c0.1,0.5,0.1,0.9,0.2,1.4c0.1,0.5-0.1,0.4-0.2,0
				c-0.1-0.4-0.1-0.8-0.2-1.2c-0.2,0.3-0.3,0.3-0.2,0.7c0.1,0.2,0.1,0.5,0.2,0.7c0.1,0.3,0.2,0.3-0.2,0.4C6.7,20,6.5,20.3,6.4,20
				c-0.1-0.2-0.2-0.4-0.4-0.6C5.8,19,5.8,19,5.3,18.9c0.2,0.3,0.4,0.6,0.7,0.9c0.1,0.1,0.2,0.3,0.3,0.4c0.2,0.2-0.3,0-0.3,0
				c-0.3-0.4-0.6-0.8-1-1.2c-0.2-0.3-0.5-0.2-0.8-0.2c0,0.2,0,0.7,0.1,0.8C4.7,20,5,20.3,5.4,20.6c0.4,0.3,0.2,0.4-0.2,0.2
				c-0.3-0.2-0.7-0.5-1-0.7c0,0.4,0,0.4,0.3,0.6c0.4,0.2,1,0.3,0.8,0.7c-0.1,0.3,0,0.5-0.4,0.5c-0.2-0.1-0.5-0.1-0.7-0.2
				c-0.4-0.1-0.4-0.1-0.8,0.2c0.4,0.1,0.8,0.1,1.1,0.2c0.2,0,0.3,0.1,0.5,0.1c0.3,0-0.2,0.2-0.2,0.2c-0.5,0-1-0.1-1.5-0.2
				c-0.3,0-0.5,0.2-0.7,0.5c0.1,0.1,0.5,0.5,0.6,0.5C3.8,23.1,4.3,23,4.7,23c0.5-0.1,0.4,0.1,0,0.2c-0.4,0.1-0.8,0.2-1.2,0.2
				c0.3,0.2,0.3,0.3,0.7,0.2c0.4-0.1,0.9-0.5,1.1,0c0.1,0.3,0.3,0.4,0.1,0.6c-0.2,0.1-0.4,0.2-0.6,0.4c-0.4,0.2-0.4,0.2-0.5,0.7
				c0.3-0.2,0.6-0.4,0.9-0.6c0.1-0.1,0.3-0.2,0.4-0.3c0.2-0.2,0,0.3,0,0.3c-0.4,0.3-0.8,0.6-1.2,0.9c-0.3,0.2-0.2,0.5-0.2,0.8
				c0.2,0,0.7,0,0.8-0.1c0.3-0.4,0.6-0.8,0.9-1.1c0.3-0.4,0.4-0.2,0.2,0.2c-0.2,0.3-0.5,0.7-0.7,1c0.4,0,0.4,0,0.6-0.3
				c0.1-0.2,0.2-0.4,0.4-0.6c0.2-0.3,0.1-0.3,0.4-0.1c0.3,0.1,0.6,0,0.5,0.4C7.1,25.8,7,26.1,7,26.3c-0.1,0.4-0.1,0.4,0.2,0.8
				c0.1-0.4,0.1-0.8,0.2-1.1c0-0.2,0.1-0.3,0.1-0.5c0-0.3,0.2,0.2,0.2,0.2c-0.1,0.5-0.1,1-0.2,1.5c0,0.3,0.2,0.5,0.5,0.7
				c0.1-0.1,0.5-0.5,0.5-0.6c-0.1-0.5-0.1-0.9-0.2-1.4c-0.1-0.5,0.1-0.4,0.2,0c0.1,0.4,0.2,0.8,0.2,1.2c0.2-0.3,0.3-0.3,0.2-0.7
				c-0.1-0.2-0.1-0.5-0.2-0.7c-0.1-0.3-0.2-0.3,0.2-0.4c0.3-0.1,0.4-0.4,0.6-0.1c0.1,0.2,0.2,0.4,0.4,0.6c0.2,0.4,0.2,0.4,0.7,0.4
				c-0.2-0.3-0.4-0.6-0.7-0.9c-0.1-0.1-0.2-0.3-0.3-0.4c-0.2-0.2,0.3,0,0.3,0c0.3,0.4,0.6,0.8,1,1.2c0.2,0.3,0.5,0.2,0.8,0.1
				c0-0.2,0-0.7-0.1-0.8c-0.4-0.3-0.8-0.6-1.1-0.9c-0.4-0.3-0.2-0.4,0.2-0.2c0.3,0.2,0.7,0.5,1,0.7c0-0.4,0-0.4-0.3-0.6
				c-0.4-0.2-1-0.3-0.8-0.7c0.1-0.3,0-0.5,0.4-0.4c0.2,0.1,0.5,0.1,0.7,0.2c0.4,0.1,0.4,0.1,0.8-0.2c-0.3-0.1-0.6-0.1-1-0.2
				c-0.2,0-0.3-0.1-0.5-0.1c-0.1,0-0.4-0.3-0.1-0.2C11.4,23,12.1,23.1,12.7,23.1z"/>
			<polygon class="st4" points="17.4,23.4 18.1,22.5 17.4,21.6 18.5,22 19.1,21 19.1,22.2 20.2,22.5 19.1,22.8 19.1,24 18.5,23.1 
							"/>
			<polygon class="st4" points="4.3,10.8 3.2,11.3 2.5,10.4 2.6,11.5 1.6,12 2.7,12.2 2.8,13.3 3.4,12.4 4.4,12.6 3.7,11.8 			"/>
		</g>
	</g>
</g>
</svg>
