<?xml version="1.0" encoding="utf-8"?>
<!-- Generator: Adobe Illustrator 22.1.0, SVG Export Plug-In . SVG Version: 6.00 Build 0)  -->
<svg version="1.1" id="Layer_1" xmlns="http://www.w3.org/2000/svg" xmlns:xlink="http://www.w3.org/1999/xlink" x="0px" y="0px"
	 viewBox="0 0 45 45" style="enable-background:new 0 0 45 45;" xml:space="preserve">
<style type="text/css">
	.st0{fill:#CE1126;}
	.st1{fill:#3D8E33;}
	.st2{fill:#FCD856;}
	.st3{fill:#FFFFFF;}
	.st4{fill:#0072C6;}
</style>
<g>
	<g>
		<path class="st0" d="M18.8,45h12.2c3.2,0,5.5,0,7.4-0.5H18.8V45z"/>
		<g>
			<path class="st0" d="M45,30.9V14.1c0-5.6,0-8.4-2.8-11.3S36.6,0,30.9,0H18.8v44.5h19.6c1.4-0.4,2.6-1.1,3.8-2.3
				C45,39.4,45,36.6,45,30.9z"/>
			<path class="st1" d="M18.8,0h-4.7C8.4,0,5.6,0,2.8,2.8S0,8.4,0,14.1v16.9c0,5.6,0,8.4,2.8,11.3S8.4,45,14.1,45h4.7v-0.5V0z"/>
		</g>
		<g>
			<g>
				<g>
					<g>
						<path class="st2" d="M27.1,29.1C23.9,29,9.1,19.8,9,18.4L9.8,17c1.5,2.1,16.5,11.1,18,10.8L27.1,29.1z"/>
						<path d="M9,18.4L9.9,17c1.4,2.1,16,10.8,17.9,10.8l0,0c0,0,0.1,0,0.1,0l0,0l-0.8,1.4l0,0l0,0C23.9,29.1,9.1,19.9,9,18.4
							L9,18.4z M9,18.4c0.1,1.4,14.8,10.7,18,10.8l0,0l0.8-1.3c0,0-0.1,0-0.1,0l0,0c-1.9,0-16.5-8.7-17.9-10.8l0,0L9,18.4L9,18.4z"
							/>
					</g>
					<g>
						<path class="st2" d="M9.7,16.8c-0.3,0.8,3.8,3.3,8.8,6.4c5,3,9.3,4.9,9.6,4.6c0,0,0.2-0.3,0.1-0.3c-0.1,0.1-0.2,0.1-0.4,0.1
							c-1.3-0.4-4.9-2-9.2-4.6c-4.3-2.6-8.1-5.1-8.7-6.1c0-0.1-0.1-0.2-0.1-0.3h0L9.7,16.8L9.7,16.8L9.7,16.8z M27.2,29.2
							c-0.1,0.1-0.2,0.1-0.3,0.1c-1.2-0.1-4.9-1.9-9.2-4.5c-5-3-9.2-5.8-8.7-6.5L9,18.1l0,0c-0.4,1.2,8.2,6.1,8.7,6.4
							c5,3.1,9.2,4.9,9.5,4.4L27.2,29.2L27.2,29.2z"/>
						<path d="M27,29.3c0,0-0.1,0-0.1,0l0,0c-1.2-0.1-4.9-1.9-9.2-4.5l0,0c-4.8-2.9-8.8-5.5-8.8-6.4l0,0c0,0,0-0.1,0-0.1l0,0L9,18.1
							l0,0c0,0,0,0.1,0,0.1l0,0c0,1.3,8.2,6,8.7,6.3l0,0c4.4,2.8,8.3,4.5,9.3,4.5l0,0c0.1,0,0.2,0,0.3,0l0,0l-0.2,0.2l0,0h0l0,0h0
							l0,0C27.1,29.3,27.1,29.3,27,29.3L27,29.3C27,29.3,27,29.3,27,29.3L27,29.3z M8.9,18.3c0,0,0,0.1,0,0.1l0,0
							c0,0.8,4,3.5,8.8,6.3l0,0c4.3,2.6,8,4.4,9.2,4.5l0,0c0.1,0,0.1,0,0.1,0l0,0c0.1,0,0.2,0,0.2-0.1l0,0l0,0l0.2-0.2
							c0,0.1-0.1,0.1-0.3,0.1l0,0c-1,0-4.9-1.7-9.3-4.5l0,0c-0.5-0.3-8.7-5-8.7-6.4l0,0c0,0,0-0.1,0-0.1l0,0l0,0L8.9,18.3L8.9,18.3z
							 M27.2,29.2L27.2,29.2L27.2,29.2L27.2,29.2L27.2,29.2z M18.5,23.2c-4.8-2.9-8.8-5.4-8.9-6.3l0,0c0,0,0-0.1,0-0.1l0,0l0,0l0,0
							l0,0l0.1-0.2l0,0c0,0,0,0,0,0l0,0c0,0.1,0,0.2,0.1,0.3l0,0c0.6,1,4.4,3.5,8.7,6.1l0,0c4.3,2.6,7.9,4.2,9.2,4.6l0,0
							c0.1,0,0.2,0,0.2,0l0,0c0.1,0,0.1,0,0.2,0l0,0c0,0,0,0,0,0h0h0v0c0,0,0,0,0,0l0,0c0,0-0.1,0.2-0.2,0.3l0,0c0,0-0.1,0-0.1,0
							l0,0C27.2,27.9,23.2,26,18.5,23.2L18.5,23.2z M9.7,16.9c0,0.8,4,3.3,8.8,6.3l0,0c4.7,2.8,8.7,4.7,9.5,4.7l0,0c0,0,0.1,0,0.1,0
							l0,0c0,0,0.1-0.1,0.1-0.2l0,0c0,0-0.1,0-0.2,0l0,0c-0.1,0-0.1,0-0.2,0l0,0c-1.4-0.4-4.9-2-9.2-4.6l0,0
							c-4.3-2.6-8.1-5.1-8.7-6.1l0,0c0-0.1-0.1-0.2-0.1-0.3l0,0l-0.1,0.2L9.7,16.9L9.7,16.9C9.7,16.9,9.7,16.9,9.7,16.9L9.7,16.9z
							 M9.8,16.6L9.8,16.6L9.8,16.6C9.8,16.6,9.8,16.6,9.8,16.6L9.8,16.6z"/>
					</g>
				</g>
				<g>
					<g>
						<path class="st2" d="M18.6,29.8c3.9,0,7.3-0.5,8.8-1.4l0.6-1c-1.3,0.7-5,1.5-9.4,1.4c-3.6,0-7.4-0.4-9.2-1.4l0.8,1.1
							C11.7,29.3,15.3,29.8,18.6,29.8z"/>
						<path d="M18.6,29.8L18.6,29.8c0.1,0,0.1,0,0.2,0l0,0c3.8,0,7.1-0.6,8.6-1.3l0,0l0.6-1c-1.3,0.7-4.5,1.4-8.5,1.4l0,0
							c-0.3,0-0.6,0-0.9,0l0,0c-3.6,0-7.4-0.4-9.2-1.5l0,0l0.8,1.1C11.7,29.3,15.3,29.7,18.6,29.8L18.6,29.8L18.6,29.8
							c-3.3,0-6.9-0.4-8.4-1.2l0,0l-0.8-1.2c1.8,1,5.6,1.4,9.2,1.4l0,0c0.3,0,0.6,0,0.9,0l0,0c4,0,7.2-0.7,8.5-1.4l0,0l-0.6,1
							c-1.5,0.8-4.8,1.4-8.6,1.4l0,0C18.7,29.8,18.7,29.8,18.6,29.8L18.6,29.8z"/>
					</g>
					<g>
						<path class="st2" d="M18.7,28.9c-2.5,0-4.4-0.1-6.2-0.4c-1.6-0.3-2.7-0.8-3.3-1.1l-0.1-0.2c0.3,0.2,1.7,0.8,3.4,1.1
							c1.7,0.3,3.6,0.4,6.1,0.4c2.2,0,4.3-0.1,6-0.4c1.7-0.3,3-0.7,3.5-1.1L28,27.5c-0.2,0.2-1.7,0.7-3.3,1
							C23,28.8,20.9,29,18.7,28.9L18.7,28.9z M18.7,29.9c-2.2,0-4.3-0.1-5.9-0.4c-1.2-0.2-1.9-0.5-2.5-0.8L10,28.3
							c0.4,0.3,1.2,0.6,2.8,0.9c1.6,0.3,3.6,0.4,5.9,0.4c2.1,0,4.1-0.1,5.7-0.4c1.4-0.2,3-0.7,3.4-1.2l-0.2,0.4
							c-0.5,0.4-1.7,0.7-3,1C22.9,29.7,20.8,29.9,18.7,29.9z"/>
						<path d="M18.7,29.9L18.7,29.9c-2.2,0-4.3-0.1-5.9-0.4l0,0c-1.2-0.2-1.9-0.5-2.5-0.8l0,0L10,28.3c0.4,0.3,1.2,0.6,2.8,0.9l0,0
							c1.6,0.3,3.6,0.4,5.9,0.4l0,0c2.1,0,4.1-0.1,5.7-0.4l0,0c1.4-0.2,2.9-0.7,3.4-1.1l0,0c-0.4,0.5-2,0.9-3.4,1.2l0,0
							c-1.6,0.3-3.6,0.4-5.7,0.4l0,0c-2.2,0-4.3-0.1-5.9-0.4l0,0c-1.5-0.3-2.4-0.6-2.8-0.9l0,0l0.2,0.3c0.6,0.3,1.3,0.6,2.5,0.8l0,0
							C14.4,29.7,16.4,29.8,18.7,29.9L18.7,29.9c0,0,0.1,0,0.1,0l0,0c2.1,0,4.1-0.1,5.7-0.4l0,0c1.3-0.3,2.6-0.7,3-1l0,0l0.3-0.4
							l0,0l0,0l-0.2,0.4c-0.5,0.4-1.7,0.7-3,1l0,0c-1.6,0.3-3.6,0.4-5.7,0.4l0,0C18.7,29.9,18.7,29.9,18.7,29.9L18.7,29.9L18.7,29.9
							L18.7,29.9z M18.7,29L18.7,29L18.7,29c-2.5,0-4.4-0.1-6.2-0.4l0,0c-1.6-0.3-2.7-0.8-3.3-1.1l0,0l-0.1-0.2
							c0.3,0.2,1.7,0.8,3.4,1.1l0,0c1.6,0.3,3.5,0.4,5.9,0.4l0,0c0.1,0,0.2,0,0.2,0l0,0c0,0,0.1,0,0.1,0l0,0c2.1,0,4.2-0.1,5.9-0.4
							l0,0c1.7-0.3,3-0.7,3.5-1l0,0L28,27.5c-0.2,0.3-1.7,0.7-3.3,1l0,0c-1.7,0.3-3.8,0.4-6,0.4l0,0C18.7,29,18.7,29,18.7,29
							L18.7,29z M18.8,28.9c2.2,0,4.3-0.1,5.9-0.4l0,0c1.6-0.3,3.1-0.8,3.3-1l0,0l0.2-0.3c-0.5,0.4-1.8,0.7-3.5,1.1l0,0
							c-1.7,0.3-3.7,0.4-5.9,0.4l0,0c0,0-0.1,0-0.1,0l0,0c-0.1,0-0.2,0-0.2,0l0,0c-2.4,0-4.3-0.1-5.9-0.4l0,0
							c-1.8-0.3-3.1-0.9-3.4-1.1l0,0l0.1,0.2c0.6,0.3,1.7,0.8,3.3,1.1l0,0c1.7,0.3,3.7,0.4,6.1,0.4l0,0
							C18.7,28.9,18.7,28.9,18.8,28.9L18.8,28.9C18.7,28.9,18.7,28.9,18.8,28.9L18.8,28.9z"/>
					</g>
				</g>
				<g>
					<g>
						<path class="st2" d="M18.7,24.7c3.6,0,8.1-0.5,10.6-1.5v-0.9c-1.5,0.9-6.5,1.4-10.6,1.5c-4.8,0-8.8-0.7-10.5-1.9l0,1.2
							C11.3,24.4,14.6,24.7,18.7,24.7z"/>
						<path d="M18.7,24.7L18.7,24.7L18.7,24.7L18.7,24.7L18.7,24.7L18.7,24.7z M8.2,23l0-1.2c1.7,1.2,5.6,1.8,10.5,1.9l0,0
							c4.1-0.1,9.1-0.6,10.6-1.5l0,0l0,0.9c-2.5,1-7,1.5-10.6,1.5l0,0l0,0v0C14.6,24.7,11.3,24.4,8.2,23L8.2,23z M8.2,23
							c3.1,1.4,6.4,1.6,10.5,1.7l0,0c3.6,0,8-0.5,10.6-1.5l0,0l0-0.9c-1.5,0.9-6.5,1.4-10.6,1.5l0,0c-4.8,0-8.8-0.7-10.5-1.9l0,0
							L8.2,23L8.2,23z"/>
					</g>
					<g>
						<path class="st2" d="M29.4,23.2c-0.1,0.1-1.8,0.7-4.2,1.2c-1.7,0.3-3.8,0.5-6.5,0.5c-2.6,0-4.7-0.2-6.3-0.4
							c-2.6-0.4-3.9-1-4.4-1.2c0-0.1,0-0.2,0-0.3c1.4,0.6,2.9,0.9,4.4,1.2c1.6,0.2,3.6,0.4,6.2,0.4c2.7,0,4.8-0.2,6.5-0.5
							c2.5-0.4,4.1-0.9,4.3-1.2V23.2L29.4,23.2z"/>
						<path d="M18.7,24.8c-2.6,0-4.6-0.2-6.2-0.4l0,0c-2.6-0.4-3.9-1-4.4-1.2l0,0c0,0,0,0,0-0.1l0,0c0,0,0-0.1,0-0.1l0,0
							c0,0,0,0,0-0.1l0,0c1.4,0.6,2.9,0.9,4.4,1.2l0,0c1.6,0.2,3.6,0.4,6.1,0.4l0,0c0,0,0.1,0,0.1,0l0,0c2.7,0,4.8-0.2,6.5-0.5l0,0
							c2.5-0.4,4.1-1,4.3-1.2l0,0v0.3h0l0,0c-0.1,0.2-1.8,0.7-4.2,1.2l0,0C23.6,24.6,21.4,24.8,18.7,24.8L18.7,24.8
							C18.7,24.8,18.7,24.8,18.7,24.8L18.7,24.8z M8.1,23c0,0,0,0.1,0,0.1l0,0c0,0,0,0,0,0l0,0c0.5,0.2,1.8,0.8,4.4,1.2l0,0
							c1.6,0.2,3.7,0.4,6.2,0.4l0,0c0,0,0,0,0,0l0,0c2.7,0,4.9-0.2,6.5-0.5l0,0c2.4-0.4,4.1-1,4.2-1.2l0,0l0-0.3
							c-0.2,0.3-1.8,0.8-4.3,1.2l0,0c-1.7,0.3-3.8,0.5-6.5,0.5l0,0c0,0-0.1,0-0.1,0l0,0c-2.5,0-4.6-0.2-6.1-0.4l0,0
							C10.9,23.9,9.5,23.6,8.1,23L8.1,23C8.1,23,8.1,23,8.1,23L8.1,23z"/>
					</g>
					<g>
						<path class="st2" d="M29.4,23.2c-0.1,0.1-1.8,0.7-4.2,1.2c-1.7,0.3-3.8,0.5-6.5,0.5c-2.6,0-4.7-0.2-6.3-0.4
							c-2.6-0.4-3.9-1-4.4-1.2c0-0.1,0-0.2,0-0.3c1.4,0.6,2.9,0.9,4.4,1.2c1.6,0.2,3.6,0.4,6.2,0.4c2.7,0,4.8-0.2,6.5-0.5
							c2.5-0.4,4.1-0.9,4.3-1.2V23.2L29.4,23.2z M29.4,22.2c-0.3,0.2-2.1,0.7-4.5,1.1c-1.6,0.2-3.6,0.4-6.2,0.4
							c-2.5,0-4.5-0.2-6-0.4C10.3,23.1,8.1,22,8.1,22l0-0.4c0,0,2.2,1.1,4.7,1.5c1.5,0.2,3.5,0.4,6,0.4c2.6,0,4.6-0.2,6.2-0.4
							c2.4-0.3,4.3-1,4.5-1.1V22.2L29.4,22.2z"/>
						<path d="M18.7,24.8c-2.6,0-4.6-0.2-6.2-0.4l0,0c-2.6-0.4-3.9-1-4.4-1.2l0,0c0,0,0,0,0-0.1l0,0c0,0,0-0.1,0-0.1l0,0
							c0,0,0,0,0-0.1l0,0c1.4,0.6,2.9,0.9,4.4,1.2l0,0c1.6,0.2,3.6,0.4,6.1,0.4l0,0c0,0,0.1,0,0.1,0l0,0c2.7,0,4.8-0.2,6.5-0.5l0,0
							c2.5-0.4,4.1-1,4.3-1.2l0,0v0.3h0l0,0c-0.1,0.2-1.8,0.7-4.2,1.2l0,0C23.6,24.6,21.4,24.8,18.7,24.8L18.7,24.8
							C18.7,24.8,18.7,24.8,18.7,24.8L18.7,24.8z M8.1,23c0,0,0,0.1,0,0.1l0,0c0,0,0,0,0,0l0,0c0.5,0.2,1.8,0.8,4.4,1.2l0,0
							c1.6,0.2,3.7,0.4,6.2,0.4l0,0c0,0,0,0,0,0l0,0c2.7,0,4.9-0.2,6.5-0.5l0,0c2.4-0.4,4.1-1,4.2-1.2l0,0l0-0.3
							c-0.2,0.3-1.8,0.8-4.3,1.2l0,0c-1.7,0.3-3.8,0.5-6.5,0.5l0,0c0,0-0.1,0-0.1,0l0,0c-2.5,0-4.6-0.2-6.1-0.4l0,0
							C10.9,23.9,9.5,23.6,8.1,23L8.1,23C8.1,23,8.1,23,8.1,23L8.1,23z M18.7,23.8c-2.4,0-4.4-0.2-5.9-0.4l0,0
							C10.3,23.1,8.1,22,8.1,22l0,0l0-0.4c0,0,2.2,1.1,4.7,1.5l0,0c1.5,0.2,3.5,0.4,5.9,0.4l0,0c0,0,0.1,0,0.1,0l0,0
							c2.6,0,4.6-0.2,6.2-0.4l0,0c2.4-0.3,4.4-1,4.6-1.1l0,0v0.3h0l0,0c-0.3,0.2-2.1,0.7-4.5,1.1l0,0C23.4,23.6,21.3,23.8,18.7,23.8
							L18.7,23.8C18.7,23.8,18.7,23.8,18.7,23.8L18.7,23.8z M8.1,22c0,0,2.3,1.1,4.7,1.4l0,0c1.5,0.2,3.5,0.4,5.9,0.4l0,0
							c0,0,0.1,0,0.1,0l0,0c2.6,0,4.6-0.2,6.2-0.4l0,0c2.4-0.4,4.2-0.9,4.5-1.1l0,0l0-0.3c-0.2,0.2-2.1,0.8-4.6,1.1l0,0
							c-1.6,0.2-3.6,0.4-6.2,0.4l0,0c0,0-0.1,0-0.1,0l0,0c-2.4,0-4.4-0.2-5.9-0.4l0,0c-2.4-0.4-4.7-1.5-4.7-1.5l0,0L8.1,22L8.1,22z"
							/>
					</g>
				</g>
				<g>
					<g>
						<path class="st2" d="M18.8,19.3c3.2,0,7.2-0.4,9.5-1.4l-0.5-0.8c-1.4,0.7-5.3,1.2-9,1.3c-4.3,0-7.4-0.4-8.9-1.5l-0.5,0.9
							C12.2,19,15.1,19.2,18.8,19.3z"/>
						<path d="M18.8,19.3L18.8,19.3c-3.7,0-6.6-0.3-9.4-1.5l0,0l0.5-0.9c1.5,1,4.6,1.4,8.9,1.5l0,0c3.7-0.1,7.7-0.6,9-1.3l0,0
							l0.5,0.8C26,18.8,22,19.3,18.8,19.3L18.8,19.3L18.8,19.3L18.8,19.3z M9.4,17.8c2.8,1.2,5.7,1.4,9.4,1.5l0,0
							c3.2,0,7.2-0.4,9.5-1.3l0,0l-0.5-0.8c-1.4,0.7-5.4,1.2-9,1.3l0,0c-4.3,0-7.4-0.4-8.9-1.5l0,0L9.4,17.8L9.4,17.8z"/>
					</g>
					<g>
						<path class="st2" d="M28.4,17.9c-0.1,0.1-1.6,0.6-3.8,1c-1.5,0.2-3.4,0.4-5.9,0.4c-2.3,0-4.2-0.2-5.6-0.4
							c-2.3-0.4-3.5-0.9-3.9-1c0-0.1,0.1-0.1,0.1-0.2c1.3,0.5,2.5,0.8,3.9,1c1.4,0.2,3.3,0.4,5.6,0.4c2.4,0,4.3-0.2,5.8-0.4
							c2.3-0.4,3.5-0.8,3.7-1L28.4,17.9L28.4,17.9z M28,17.1c-0.2,0.2-1.5,0.6-3.6,1c-1.4,0.2-3.2,0.4-5.6,0.4c-2.2,0-4-0.1-5.4-0.3
							c-1.4-0.2-2.6-0.5-3.7-0.9c0-0.1,0.1-0.1,0.1-0.2c0.3,0.2,1.4,0.6,3.6,0.9c1.4,0.2,3.2,0.3,5.4,0.3c2.3,0,4.1-0.2,5.5-0.4
							c2.2-0.3,3.3-0.8,3.5-1L28,17.1z"/>
						<path d="M18.7,19.4c-2.3,0-4.2-0.2-5.6-0.4l0,0c-2.3-0.4-3.5-0.9-3.9-1.1l0,0c0-0.1,0.1-0.1,0.1-0.2l0,0
							c1.3,0.5,2.5,0.8,3.9,1l0,0c1.4,0.2,3.3,0.4,5.5,0.4l0,0c0,0,0,0,0,0l0,0c2.4,0,4.3-0.2,5.8-0.4l0,0c2.2-0.4,3.5-0.8,3.7-1
							l0,0l0.2,0.3l0,0l0,0c-0.1,0.1-1.6,0.6-3.8,1l0,0C23.1,19.2,21.2,19.4,18.7,19.4L18.7,19.4C18.8,19.4,18.7,19.4,18.7,19.4
							L18.7,19.4z M9.2,18c0.4,0.2,1.6,0.7,3.9,1l0,0c1.4,0.2,3.3,0.4,5.6,0.4l0,0c0,0,0,0,0,0l0,0c2.4,0,4.4-0.2,5.9-0.4l0,0
							c2.1-0.4,3.6-0.9,3.7-1l0,0l-0.1-0.3c-0.2,0.2-1.4,0.7-3.7,1.1l0,0c-1.5,0.2-3.4,0.4-5.8,0.4l0,0c0,0,0,0,0,0l0,0
							c-2.3,0-4.1-0.2-5.5-0.4l0,0c-1.4-0.2-2.6-0.5-3.8-1l0,0C9.3,17.8,9.3,17.9,9.2,18L9.2,18z M18.8,18.5c-2.2,0-4-0.2-5.3-0.3
							l0,0c-2.2-0.3-3.3-0.8-3.8-1l0,0c0-0.1,0.1-0.1,0.2-0.2l0,0c0.3,0.2,1.4,0.6,3.6,0.9l0,0c1.3,0.2,3.1,0.3,5.3,0.3l0,0
							c0,0,0,0,0,0l0,0c2.3,0,4.1-0.2,5.5-0.4l0,0c2.1-0.3,3.3-0.8,3.5-1l0,0l0.2,0.3l0,0l0,0c-0.3,0.2-1.5,0.6-3.6,1l0,0
							C22.9,18.3,21.1,18.5,18.8,18.5L18.8,18.5C18.8,18.5,18.8,18.5,18.8,18.5L18.8,18.5z M9.7,17.2c0.4,0.2,1.6,0.7,3.7,0.9l0,0
							c1.4,0.2,3.1,0.3,5.3,0.3l0,0c0,0,0,0,0,0l0,0c2.3,0,4.1-0.2,5.6-0.4l0,0c2.1-0.3,3.3-0.8,3.6-1l0,0l-0.1-0.2
							c-0.2,0.1-1.3,0.7-3.5,1l0,0c-1.4,0.2-3.2,0.4-5.5,0.4l0,0c0,0,0,0,0,0l0,0c-2.2,0-4-0.1-5.3-0.3l0,0
							c-2.2-0.3-3.3-0.8-3.6-0.9l0,0C9.8,17,9.7,17.1,9.7,17.2L9.7,17.2z"/>
					</g>
				</g>
				<g>
					<path class="st2" d="M18.8,12.1c-5.7,0-10.4,4.7-10.4,10.4c0,5.7,4.6,10.4,10.4,10.4c5.7,0,10.4-4.6,10.4-10.4
						C29.1,16.8,24.5,12.1,18.8,12.1z M18.8,31.9c-5.2,0-9.4-4.2-9.4-9.4c0-5.2,4.2-9.4,9.4-9.4c5.2,0,9.4,4.2,9.4,9.4
						C28.1,27.7,23.9,31.9,18.8,31.9z"/>
					<g>
						<path class="st2" d="M29.2,22.5c0,5.8-4.7,10.5-10.5,10.5C13,33,8.3,28.3,8.3,22.5C8.3,16.7,13,12,18.8,12
							C24.5,12,29.2,16.7,29.2,22.5z M18.8,12.2c-5.7,0-10.3,4.6-10.3,10.3c0,5.7,4.6,10.3,10.3,10.3c5.7,0,10.3-4.6,10.3-10.3
							C29,16.8,24.4,12.2,18.8,12.2z"/>
						<path d="M8.3,22.5C8.3,16.7,13,12,18.8,12l0,0c5.8,0,10.5,4.7,10.5,10.5l0,0c0,5.8-4.7,10.5-10.5,10.5l0,0
							C13,33,8.3,28.3,8.3,22.5L8.3,22.5z M8.3,22.5C8.3,28.3,13,33,18.8,33l0,0c5.8,0,10.5-4.7,10.5-10.5l0,0
							c0-5.8-4.7-10.5-10.5-10.5l0,0C13,12,8.3,16.7,8.3,22.5L8.3,22.5z M8.5,22.5c0-5.7,4.6-10.3,10.3-10.3l0,0v0v0
							C13.1,12.3,8.5,16.8,8.5,22.5L8.5,22.5c0,5.7,4.6,10.2,10.3,10.3l0,0c5.7,0,10.2-4.6,10.3-10.3l0,0c0-5.7-4.6-10.2-10.3-10.3
							l0,0v0v0c5.7,0,10.3,4.6,10.3,10.3l0,0c0,5.7-4.6,10.3-10.3,10.3l0,0C13.1,32.8,8.5,28.2,8.5,22.5L8.5,22.5z"/>
					</g>
					<g>
						<path class="st2" d="M28.2,22.5c0,5.2-4.2,9.5-9.5,9.5c-5.2,0-9.5-4.2-9.5-9.5c0-5.2,4.2-9.5,9.5-9.5
							C24,13,28.2,17.3,28.2,22.5z M18.8,13.2c-5.1,0-9.3,4.2-9.3,9.3c0,5.1,4.2,9.3,9.3,9.3c5.1,0,9.3-4.2,9.3-9.3
							C28,17.4,23.9,13.2,18.8,13.2z"/>
						<path d="M9.3,22.5c0-5.3,4.3-9.5,9.5-9.5l0,0c5.3,0,9.5,4.3,9.5,9.5l0,0c0,5.3-4.3,9.5-9.5,9.5l0,0C13.5,32,9.3,27.8,9.3,22.5
							L9.3,22.5z M9.3,22.5c0,5.2,4.2,9.5,9.5,9.5l0,0c5.2,0,9.5-4.2,9.5-9.5l0,0c0-5.2-4.2-9.5-9.5-9.5l0,0
							C13.5,13,9.3,17.3,9.3,22.5L9.3,22.5z M9.5,22.5c0-5.1,4.2-9.3,9.3-9.3l0,0v0v0C13.6,13.2,9.5,17.4,9.5,22.5L9.5,22.5
							c0,5.1,4.2,9.3,9.3,9.3l0,0c5.1,0,9.3-4.1,9.3-9.3l0,0c0-5.1-4.1-9.3-9.3-9.3l0,0v0v0c5.1,0,9.3,4.2,9.3,9.3l0,0
							c0,5.1-4.2,9.3-9.3,9.3l0,0C13.6,31.8,9.5,27.6,9.5,22.5L9.5,22.5z"/>
					</g>
				</g>
				<g>
					<g>
						<path class="st2" d="M18.6,20.3c4.4,0,8.9,0.6,10.7,1.5V23c-1.5-0.8-5.7-1.7-10.7-1.6c-4,0-8.3,0.5-10.5,1.6v-1.3
							C10,20.8,14.9,20.3,18.6,20.3z"/>
						<path d="M8.2,21.7c1.8-0.9,6.7-1.4,10.5-1.4l0,0l0,0c0.1,0,0.2,0,0.2,0l0,0c4.3,0,8.7,0.6,10.5,1.6l0,0l0,1.1
							c-1.4-0.8-5.2-1.6-9.7-1.6l0,0c-0.3,0-0.7,0-1,0l0,0c-4,0-8.3,0.5-10.5,1.6l0,0L8.2,21.7L8.2,21.7z M8.2,21.7l0,1.3
							c2.2-1.2,6.4-1.6,10.5-1.6l0,0c0.3,0,0.7,0,1,0l0,0c4.5,0,8.3,0.8,9.7,1.6l0,0l0-1.1c-1.7-0.9-6.1-1.5-10.4-1.5l0,0
							c-0.1,0-0.2,0-0.2,0l0,0C14.9,20.3,10,20.8,8.2,21.7L8.2,21.7z"/>
					</g>
					<g>
						<path class="st2" d="M18.7,21.2c2.5,0,4.9,0.1,6.8,0.5c1.8,0.3,3.7,0.8,3.9,1.1v0.3c-0.6-0.4-2.1-0.8-4-1.2
							c-1.9-0.4-4.3-0.5-6.8-0.5c-2.8,0-5,0.1-6.9,0.5c-2,0.4-3.4,0.9-3.7,1.2v-0.4c0.7-0.3,1.9-0.8,3.7-1.1
							C13.7,21.3,15.9,21.2,18.7,21.2L18.7,21.2z M18.7,20.2c2.4,0,4.7,0.1,6.6,0.5c1.5,0.3,3.6,0.7,4.2,1.1v0.4
							c-0.5-0.5-2.7-1-4.3-1.3c-1.8-0.3-4.1-0.4-6.5-0.5c-2.5,0-4.8,0.2-6.6,0.5c-1.7,0.3-3.5,0.7-4,1v-0.4c0.6-0.3,2.7-0.7,4-0.9
							C13.9,20.3,16.2,20.2,18.7,20.2z"/>
						<path d="M25.5,22c-1.8-0.4-4.2-0.5-6.6-0.5l0,0c-0.1,0-0.1,0-0.2,0l0,0c-0.1,0-0.2,0-0.3,0l0,0c-2.7,0-4.8,0.2-6.6,0.5l0,0
							c-2,0.4-3.4,0.9-3.8,1.2l0,0l0-0.4c0.7-0.3,1.9-0.8,3.7-1.1l0,0c1.9-0.4,4.2-0.5,6.9-0.5l0,0v0v0c-2.8,0-5,0.1-6.9,0.5l0,0
							c-1.8,0.3-3,0.7-3.7,1.1l0,0l0,0.3c0.3-0.3,1.8-0.8,3.8-1.2l0,0c1.8-0.3,3.9-0.5,6.6-0.5l0,0c0.1,0,0.2,0,0.3,0l0,0
							c0.1,0,0.1,0,0.2,0l0,0C21.3,21.5,23.6,21.6,25.5,22L25.5,22c1.9,0.3,3.4,0.8,3.9,1.2l0,0l0-0.3c-0.2-0.3-2.1-0.8-3.9-1.1l0,0
							c-1.9-0.3-4.2-0.5-6.7-0.5l0,0c-0.1,0-0.1,0-0.2,0l0,0v0v0c0.1,0,0.1,0,0.2,0l0,0c2.4,0,4.8,0.1,6.7,0.5l0,0
							c1.8,0.3,3.7,0.8,3.9,1.1l0,0l0,0.4C28.9,22.8,27.4,22.4,25.5,22L25.5,22z M25.2,20.9c-1.8-0.3-4.1-0.4-6.5-0.5l0,0
							c-2.5,0-4.8,0.2-6.6,0.5l0,0c-1.7,0.3-3.5,0.7-4,1l0,0l0-0.4c0.7-0.3,2.7-0.7,4-0.9l0,0c1.8-0.3,4.1-0.5,6.7-0.5l0,0v0h0l0,0
							c0.1,0,0.1,0,0.2,0l0,0c2.3,0,4.6,0.1,6.4,0.5l0,0c1.5,0.3,3.6,0.7,4.2,1.2l0,0l0,0.5C29,21.7,26.7,21.2,25.2,20.9L25.2,20.9z
							 M25.2,20.9c1.6,0.3,3.8,0.8,4.3,1.3l0,0l0-0.4c-0.5-0.4-2.7-0.8-4.2-1.1l0,0c-1.8-0.3-4.1-0.5-6.4-0.5l0,0
							c-0.1,0-0.1,0-0.2,0l0,0h0l0,0c-2.5,0-4.8,0.2-6.7,0.5l0,0c-1.3,0.3-3.3,0.6-4,0.9l0,0l0,0.4c0.5-0.3,2.3-0.7,4-1l0,0
							c1.8-0.3,4.1-0.5,6.6-0.5l0,0C21.1,20.5,23.4,20.6,25.2,20.9L25.2,20.9z"/>
					</g>
				</g>
				<g>
					<g>
						<path class="st2" d="M18.7,15.4c3.9,0,7.3,0.5,8.9,1.4l0.6,1c-1.4-0.7-5.1-1.5-9.5-1.4c-3.6,0-7.5,0.4-9.4,1.4l0.7-1.1
							C11.6,15.8,15.3,15.4,18.7,15.4z"/>
						<path d="M10,16.6c1.6-0.8,5.3-1.2,8.7-1.2l0,0v0c0.1,0,0.1,0,0.2,0l0,0c3.8,0,7.2,0.6,8.7,1.4l0,0l0.5,1
							c-1.3-0.7-4.6-1.4-8.6-1.4l0,0c-0.3,0-0.6,0-0.9,0l0,0c-3.6,0-7.5,0.4-9.4,1.4l0,0L10,16.6L10,16.6z M10,16.7l-0.7,1.1
							c1.9-1,5.8-1.4,9.4-1.4l0,0c0.3,0,0.6,0,0.9,0l0,0c4,0,7.3,0.7,8.6,1.4l0,0l-0.6-1c-1.5-0.8-4.9-1.3-8.7-1.3l0,0
							c-0.1,0-0.1,0-0.2,0l0,0C15.3,15.4,11.6,15.8,10,16.7L10,16.7z"/>
					</g>
					<g>
						<path class="st2" d="M18.8,16.2c2.2,0,4.4,0.1,6.1,0.4c1.6,0.3,3.1,0.7,3.3,1l0.2,0.3c-0.5-0.3-1.9-0.7-3.5-1.1
							c-1.7-0.3-3.9-0.4-6.1-0.4c-2.5,0-4.5,0.1-6.2,0.4c-1.8,0.3-3,0.8-3.3,1l0.2-0.3c0.6-0.3,1.5-0.7,3.1-1
							C14.3,16.3,16.3,16.2,18.8,16.2L18.8,16.2z M18.8,15.3c2.1,0,4.3,0.1,5.9,0.4c1.3,0.3,2.6,0.6,3.1,1l0.2,0.4
							c-0.4-0.5-2-0.9-3.4-1.2c-1.6-0.3-3.7-0.4-5.8-0.4c-2.3,0-4.3,0.1-5.9,0.4c-1.5,0.3-2.5,0.6-3,0.9l0.2-0.3
							c0.6-0.3,1.5-0.6,2.7-0.8C14.4,15.5,16.5,15.3,18.8,15.3z"/>
						<path d="M24.8,16.9c-1.7-0.3-3.7-0.4-5.9-0.4l0,0c-0.1,0-0.1,0-0.2,0l0,0c-0.1,0-0.2,0-0.3,0l0,0c-2.4,0-4.3,0.1-5.9,0.4l0,0
							c-1.8,0.3-3,0.8-3.3,1l0,0l0.2-0.3c0.6-0.3,1.5-0.7,3.1-1l0,0c1.7-0.3,3.7-0.4,6.2-0.4l0,0c0.1,0,0.1,0,0.2,0l0,0
							c2.2,0,4.3,0.1,6,0.4l0,0c1.6,0.3,3.1,0.7,3.4,1l0,0l0.1,0.3C27.9,17.6,26.5,17.2,24.8,16.9L24.8,16.9z M24.9,16.9
							c1.7,0.3,3,0.7,3.5,1.1l0,0l-0.2-0.3c-0.2-0.2-1.7-0.7-3.3-1l0,0c-1.7-0.3-3.8-0.4-6-0.4l0,0c-0.1,0-0.1,0-0.2,0l0,0v0v0
							c-2.5,0-4.5,0.1-6.2,0.4l0,0c-1.6,0.3-2.5,0.6-3.1,0.9l0,0l-0.2,0.3c0.3-0.2,1.5-0.7,3.3-1l0,0c1.6-0.3,3.5-0.4,5.9-0.4l0,0
							c0.1,0,0.2,0,0.3,0l0,0c0.1,0,0.1,0,0.2,0l0,0C21.1,16.4,23.2,16.5,24.9,16.9L24.9,16.9z M28,17.1l-0.2-0.4
							c-0.5-0.3-1.8-0.7-3.1-1l0,0c-1.6-0.3-3.7-0.4-5.8-0.4l0,0c0,0-0.1,0-0.1,0l0,0c-2.3,0-4.3,0.1-6,0.4l0,0
							c-1.2,0.2-2.1,0.5-2.7,0.8l0,0l-0.2,0.3c0.4-0.3,1.4-0.6,3-0.9l0,0c1.6-0.3,3.7-0.4,5.9-0.4l0,0c2.1,0,4.2,0.1,5.8,0.4l0,0
							C26,16.2,27.5,16.6,28,17.1L28,17.1c-0.4-0.5-2-0.9-3.4-1.2l0,0c-1.6-0.3-3.7-0.4-5.8-0.4l0,0c-2.2,0-4.3,0.1-5.9,0.4l0,0
							c-1.5,0.3-2.5,0.6-3,0.9l0,0l0.2-0.3c0.6-0.3,1.5-0.6,2.7-0.8l0,0c1.6-0.3,3.7-0.4,6-0.4l0,0v0c0,0,0.1,0,0.1,0l0,0
							c2.1,0,4.2,0.1,5.8,0.4l0,0c1.3,0.3,2.6,0.6,3.1,1l0,0L28,17.1L28,17.1L28,17.1z M28,17.1C28,17.1,28,17.1,28,17.1L28,17.1
							L28,17.1C28,17.1,28,17.1,28,17.1L28,17.1z"/>
					</g>
					<g>
						<path class="st2" d="M18.8,16.2c2.2,0,4.4,0.1,6.1,0.4c1.6,0.3,3.1,0.7,3.3,1l0.2,0.3c-0.5-0.3-1.9-0.7-3.5-1.1
							c-1.7-0.3-3.9-0.4-6.1-0.4c-2.5,0-4.5,0.1-6.2,0.4c-1.8,0.3-3,0.8-3.3,1l0.2-0.3c0.6-0.3,1.5-0.7,3.1-1
							C14.3,16.3,16.3,16.2,18.8,16.2L18.8,16.2z M18.8,15.3c2.1,0,4.3,0.1,5.9,0.4c1.3,0.3,2.6,0.6,3.1,1l0.2,0.4
							c-0.4-0.5-2-0.9-3.4-1.2c-1.6-0.3-3.7-0.4-5.8-0.4c-2.3,0-4.3,0.1-5.9,0.4c-1.5,0.3-2.5,0.6-3,0.9l0.2-0.3
							c0.6-0.3,1.5-0.6,2.7-0.8C14.4,15.5,16.5,15.3,18.8,15.3z"/>
						<path d="M24.8,16.9c-1.6-0.3-3.7-0.4-5.9-0.4l0,0c-0.1,0-0.2,0-0.2,0l0,0c-0.1,0-0.2,0-0.3,0l0,0c-2.4,0-4.3,0.1-5.9,0.4l0,0
							c-1.8,0.3-3,0.8-3.3,1l0,0l0.2-0.3c0.6-0.3,1.5-0.7,3.1-1l0,0c1.7-0.3,3.7-0.4,6.2-0.4l0,0c0.1,0,0.1,0,0.2,0l0,0
							c2.2,0,4.3,0.1,6,0.4l0,0c1.6,0.3,3.1,0.7,3.4,1l0,0l0.1,0.3C27.9,17.6,26.5,17.2,24.8,16.9L24.8,16.9z M24.9,16.9
							c1.7,0.3,3,0.7,3.5,1.1l0,0l-0.2-0.3c-0.2-0.2-1.7-0.7-3.3-1l0,0c-1.7-0.3-3.8-0.4-5.9-0.4l0,0c-0.1,0-0.1,0-0.2,0l0,0v0v0
							c-2.5,0-4.5,0.1-6.2,0.4l0,0c-1.6,0.3-2.5,0.6-3.1,0.9l0,0l-0.2,0.3c0.3-0.2,1.5-0.7,3.3-1l0,0c1.6-0.3,3.5-0.4,5.9-0.4l0,0
							c0.1,0,0.2,0,0.3,0l0,0c0.1,0,0.2,0,0.2,0l0,0C21.1,16.4,23.2,16.5,24.9,16.9L24.9,16.9z M28,17.1l-0.2-0.4
							c-0.5-0.3-1.8-0.7-3.1-1l0,0c-1.6-0.3-3.7-0.4-5.8-0.4l0,0c0,0-0.1,0-0.1,0l0,0v0v0c-2.3,0-4.3,0.1-6,0.4l0,0
							c-1.2,0.2-2.1,0.5-2.7,0.8l0,0l-0.2,0.3c0.4-0.3,1.4-0.6,3-0.9l0,0c1.6-0.3,3.7-0.4,5.9-0.4l0,0c2.1,0,4.2,0.1,5.8,0.4l0,0
							C26,16.2,27.5,16.6,28,17.1L28,17.1c-0.4-0.5-2-0.9-3.4-1.2l0,0c-1.6-0.3-3.7-0.4-5.8-0.4l0,0c-2.2,0-4.3,0.1-5.9,0.4l0,0
							c-1.5,0.3-2.5,0.6-3,0.9l0,0l0.2-0.3c0.6-0.3,1.5-0.6,2.7-0.8l0,0c1.6-0.3,3.7-0.4,6-0.4l0,0c0,0,0.1,0,0.1,0l0,0
							c2.1,0,4.2,0.1,5.8,0.4l0,0c1.3,0.3,2.6,0.6,3.1,1l0,0L28,17.1L28,17.1L28,17.1z M28,17.1C28,17.1,28,17.1,28,17.1L28,17.1
							L28,17.1C28,17.1,28,17.1,28,17.1L28,17.1z"/>
					</g>
				</g>
				<g>
					<g>
						<path class="st2" d="M18.7,25.9c3.2,0,7.2,0.4,9.5,1.3L27.7,28c-1.4-0.7-5.3-1.2-9-1.3c-4.3,0-7.3,0.5-8.8,1.3l-0.4-0.7
							C12.1,26.1,15,25.9,18.7,25.9z"/>
						<path d="M9.4,27.3c2.7-1.2,5.6-1.5,9.3-1.5l0,0v0v0c3.2,0,7.2,0.4,9.5,1.4l0,0L27.7,28c-1.3-0.7-5.3-1.2-9-1.3l0,0
							c-4.3,0-7.3,0.5-8.9,1.3l0,0L9.4,27.3L9.4,27.3z M9.4,27.3L9.8,28c1.5-0.8,4.5-1.3,8.9-1.3l0,0c3.7,0.1,7.7,0.6,9,1.3l0,0
							l0.5-0.8c-2.3-0.9-6.3-1.3-9.5-1.3l0,0C15,25.9,12.1,26.2,9.4,27.3L9.4,27.3z"/>
					</g>
					<g>
						<path class="st2" d="M28.2,27.2L28,27.5c-0.2-0.2-1.4-0.7-3.6-1C22.9,26.2,21,26,18.6,26c-2.3,0-4.1,0.2-5.5,0.4
							c-1.4,0.2-2.6,0.5-3.8,1c0-0.1-0.1-0.1-0.1-0.2c0.4-0.2,1.6-0.7,3.9-1c1.4-0.2,3.3-0.4,5.6-0.4c2.4,0,4.3,0.2,5.8,0.4
							C26.6,26.6,28.1,27.1,28.2,27.2L28.2,27.2z M27.4,28.2c-0.4-0.2-1.5-0.6-3.3-0.9c-1.4-0.2-3.2-0.4-5.5-0.4
							c-2.2,0-4,0.1-5.3,0.3c-2.2,0.3-3.3,0.8-3.6,0.9c0-0.1-0.1-0.1-0.1-0.2c0.4-0.1,1.6-0.7,3.7-0.9c1.4-0.2,3.2-0.3,5.3-0.3
							c2.3,0,4.1,0.2,5.5,0.4c1.8,0.3,2.9,0.6,3.4,0.9L27.4,28.2z"/>
						<path d="M24.1,27.3c-1.4-0.2-3.2-0.4-5.5-0.4l0,0c0,0,0,0-0.1,0l0,0c-2.2,0-3.9,0.1-5.3,0.3l0,0c-2.2,0.3-3.3,0.8-3.6,0.9l0,0
							c0-0.1-0.1-0.1-0.1-0.2l0,0c0.4-0.1,1.6-0.7,3.7-0.9l0,0c1.4-0.2,3.1-0.3,5.3-0.3l0,0c0,0,0,0,0,0l0,0c2.3,0,4.1,0.2,5.5,0.4
							l0,0c1.8,0.3,2.9,0.6,3.4,0.9l0,0l-0.1,0.3l0,0l0,0C27,28,25.9,27.6,24.1,27.3L24.1,27.3z M13.3,27c-2.2,0.3-3.3,0.8-3.7,0.9
							l0,0c0,0.1,0.1,0.1,0.1,0.2l0,0c0.3-0.2,1.4-0.6,3.6-0.9l0,0c1.3-0.2,3.1-0.3,5.3-0.3l0,0c0,0,0,0,0.1,0l0,0
							c2.3,0,4.1,0.2,5.5,0.4l0,0c1.7,0.2,2.8,0.6,3.3,0.9l0,0l0.1-0.2c-0.5-0.2-1.6-0.6-3.4-0.8l0,0c-1.4-0.2-3.2-0.4-5.5-0.4l0,0
							c0,0,0,0,0,0l0,0C16.4,26.7,14.6,26.8,13.3,27L13.3,27z M24.4,26.5C22.9,26.2,21,26,18.6,26l0,0c0,0-0.1,0-0.1,0l0,0
							c-2.2,0-4.1,0.2-5.4,0.4l0,0c-1.4,0.2-2.6,0.5-3.9,1l0,0c0-0.1-0.1-0.1-0.1-0.2l0,0c0.4-0.2,1.6-0.7,3.9-1l0,0
							c1.4-0.2,3.3-0.4,5.5-0.4l0,0c0,0,0,0,0,0l0,0c2.4,0,4.3,0.2,5.8,0.4l0,0c2.2,0.4,3.7,0.9,3.8,1l0,0l0,0l0,0L28,27.5
							C27.8,27.3,26.6,26.8,24.4,26.5L24.4,26.5z M18.6,26c2.4,0,4.3,0.2,5.8,0.4l0,0c2.2,0.4,3.5,0.8,3.6,1.1l0,0l0.2-0.3
							c-0.1-0.1-1.6-0.6-3.7-1l0,0C23,26,21,25.8,18.6,25.8l0,0c0,0,0,0,0,0l0,0c-2.3,0-4.1,0.2-5.5,0.4l0,0c-2.3,0.4-3.5,0.9-3.9,1
							l0,0c0,0.1,0.1,0.1,0.1,0.2l0,0c1.3-0.5,2.5-0.8,3.8-1l0,0C14.5,26.2,16.3,26,18.6,26L18.6,26C18.5,26,18.6,26,18.6,26
							L18.6,26z"/>
					</g>
				</g>
				<g>
					<g>
						<rect x="19.2" y="12" class="st2" width="0.2" height="21.1"/>
						<path d="M19.2,33l0-21.1l0.2,0V33h0v0L19.2,33L19.2,33z M19.2,33h0.2l0-21l-0.2,0L19.2,33L19.2,33z"/>
					</g>
					<g>
						<rect x="18.1" y="12" class="st2" width="0.2" height="21.1"/>
						<path d="M18.1,33l0-21.1l0.2,0V33h0v0L18.1,33L18.1,33z M18.1,33h0.2l0-21l-0.2,0L18.1,33L18.1,33z"/>
					</g>
					<g>
						<rect x="18.3" y="12.1" class="st2" width="0.8" height="20.9"/>
						<path d="M18.3,32.9l0-20.9l0.9,0v20.9h0v0L18.3,32.9L18.3,32.9z M18.3,32.9h0.8l0-20.8l-0.8,0L18.3,32.9L18.3,32.9z"/>
					</g>
				</g>
				<g>
					<g>
						<path class="st2" d="M9.9,16.6c3.2,0,18.2,9.1,18.2,10.8l-0.9,1.4c-0.4-2-15.6-10.9-18.1-10.7L9.9,16.6z"/>
						<path d="M9.2,18.2C9.2,18.2,9.2,18.2,9.2,18.2L9.2,18.2l0.7-1.5l0,0l0,0c0,0,0,0,0,0l0,0c3.3,0,18.2,9.1,18.2,10.9l0,0l-1,1.4
							C26.8,27,11.9,18.2,9.2,18.2L9.2,18.2z M27.2,28.9l0.9-1.4c0-1.7-14.9-10.8-18.2-10.8l0,0c0,0,0,0,0,0l0,0l-0.8,1.5
							c0,0,0,0,0.1,0l0,0C11.9,18.1,26.8,26.9,27.2,28.9L27.2,28.9z M9.9,16.6L9.9,16.6L9.9,16.6L9.9,16.6L9.9,16.6z"/>
					</g>
					<g>
						<path class="st2" d="M9,18.1c0.6-0.4,5,1.6,9.6,4.3c4.6,2.8,9,6,8.6,6.5l-0.1,0.2l-0.1,0c0,0,0.1-0.1,0-0.3
							c-0.2-0.6-3.3-3.1-8.5-6.3c-5.1-3-9.3-4.8-9.7-4.3L9,18.1L9,18.1z M28.3,27.6c0.4-0.8-3.7-3.8-8.8-6.8
							c-5.2-2.9-8.9-4.7-9.6-4.2l-0.2,0.3c0,0,0,0,0,0c0.1-0.1,0.3-0.1,0.4-0.1c1.2,0,4.5,1.6,9.3,4.3c2.1,1.2,8.7,5.5,8.7,6.7
							c0,0.1,0,0.1,0,0.2L28.3,27.6z"/>
						<path d="M27.1,29.2L27.1,29.2L27.1,29.2c0,0,0,0,0-0.1l0,0c0,0,0-0.1,0-0.2l0,0c-0.2-0.6-3.3-3.1-8.5-6.3l0,0
							c-4.5-2.7-8.3-4.4-9.4-4.4l0,0c-0.1,0-0.2,0-0.3,0.1l0,0L9,18.1l0,0l0,0C9.1,18,9.2,18,9.3,18l0,0c1.1,0,5.2,1.9,9.4,4.4l0,0
							c4.4,2.7,8.6,5.7,8.6,6.5l0,0c0,0,0,0.1,0,0.1l0,0L27.1,29.2L27.1,29.2C27.1,29.2,27.1,29.2,27.1,29.2L27.1,29.2
							C27.1,29.2,27.1,29.2,27.1,29.2L27.1,29.2z M18.6,22.6c5.2,3.1,8.3,5.6,8.5,6.3l0,0c0,0.1,0,0.1,0,0.2l0,0c0,0,0,0,0,0.1l0,0
							l0,0l0.1-0.2c0,0,0,0,0-0.1l0,0c0-0.7-4.2-3.8-8.6-6.4l0,0c-4.2-2.5-8.3-4.4-9.4-4.4l0,0c-0.1,0-0.2,0-0.2,0l0,0l-0.2,0.2
							c0.1-0.1,0.2-0.1,0.3-0.1l0,0C10.3,18.2,14.1,20,18.6,22.6L18.6,22.6z M28.1,27.8L28.1,27.8C28.1,27.8,28.1,27.8,28.1,27.8
							L28.1,27.8c0-0.1,0-0.1,0-0.2l0,0c0,0,0,0,0,0l0,0c0-1.2-6.6-5.5-8.7-6.7l0,0c-4.7-2.7-8.1-4.3-9.3-4.3l0,0c0,0,0,0,0,0l0,0
							c-0.1,0-0.3,0-0.4,0.1l0,0c0,0,0,0,0,0l0,0l0,0c0,0,0,0,0,0l0,0c0,0,0,0,0,0l0,0c0,0,0,0,0,0l0,0l0.2-0.3
							c0.1-0.1,0.2-0.1,0.4-0.1l0,0c1.2,0,4.7,1.7,9.3,4.3l0,0c4.9,2.9,8.8,5.8,8.8,6.7l0,0c0,0,0,0.1,0,0.1l0,0l0,0l0,0L28.1,27.8
							C28.1,27.8,28.1,27.8,28.1,27.8L28.1,27.8L28.1,27.8z M28.1,27.6C28.1,27.7,28.1,27.7,28.1,27.6L28.1,27.6l0.1-0.1l0,0
							c0,0,0-0.1,0-0.1l0,0c0-0.9-4-3.8-8.8-6.7l0,0c-4.6-2.6-8-4.3-9.3-4.3l0,0c-0.2,0-0.3,0-0.4,0.1l0,0l-0.1,0.2
							c0.1-0.1,0.3-0.1,0.4-0.1l0,0c0,0,0,0,0,0l0,0c1.2,0,4.5,1.6,9.3,4.3l0,0C21.5,22.2,28.1,26.4,28.1,27.6L28.1,27.6L28.1,27.6
							L28.1,27.6L28.1,27.6z"/>
					</g>
				</g>
			</g>
			<g>
				<g>
					<path class="st3" d="M12.5,23.5c0,1.7,0.7,3.2,1.8,4.4c1.1,1.1,2.7,1.8,4.4,1.8c1.7,0,3.3-0.7,4.4-1.8c1.1-1.1,1.8-2.7,1.8-4.4
						l0,0v-8.3H12.5V23.5L12.5,23.5z"/>
					<path d="M14.4,27.9c-1.1-1.1-1.8-2.7-1.8-4.4l0,0l0-8.3l12.5,0v8.3c0,1.7-0.7,3.3-1.8,4.4l0,0c-1.1,1.1-2.7,1.8-4.4,1.8l0,0
						C17,29.8,15.5,29.1,14.4,27.9L14.4,27.9z M14.4,27.9c1.1,1.1,2.7,1.8,4.4,1.8l0,0c1.7,0,3.3-0.7,4.4-1.8l0,0
						c1.1-1.1,1.8-2.7,1.8-4.4l0,0l0-8.3l-12.4,0v8.3C12.5,25.2,13.2,26.8,14.4,27.9L14.4,27.9z"/>
				</g>
				<g>
					<path class="st0" d="M12.8,23.5L12.8,23.5L12.8,23.5c0,1.6,0.7,3.1,1.8,4.2c1.1,1.1,2.6,1.8,4.2,1.8c1.6,0,3.1-0.7,4.2-1.7
						c1.1-1.1,1.8-2.6,1.8-4.2l0,0v-8.1H12.8L12.8,23.5z"/>
					<path d="M14.5,27.8c-1.1-1.1-1.8-2.6-1.8-4.2l0,0v0l0-8.1l12,0v8.1c0,1.6-0.7,3.1-1.8,4.2l0,0c-1.1,1.1-2.6,1.7-4.2,1.7l0,0
						C17.1,29.5,15.6,28.8,14.5,27.8L14.5,27.8z M12.8,23.6c0,1.6,0.7,3.1,1.8,4.2l0,0c1.1,1.1,2.6,1.7,4.2,1.7l0,0
						c1.6,0,3.1-0.7,4.2-1.7l0,0c1.1-1.1,1.7-2.6,1.7-4.2l0,0l0-8l-11.9,0L12.8,23.6L12.8,23.6L12.8,23.6z"/>
				</g>
				<g>
					<path class="st3" d="M15.2,23.2L15.2,23.2L15.2,23.2c0,1.1,0.4,2,1,2.7c0.6,0.7,1.5,1.1,2.5,1.1c1,0,1.9-0.4,2.5-1.1
						c0.6-0.7,1-1.7,1-2.7l0,0V18h-7.1L15.2,23.2z"/>
					<path d="M16.2,25.9c-0.6-0.7-1-1.7-1-2.7l0,0v0h0h0l0,0l0-5.2l7.1,0v5.2c0,1.1-0.4,2-1,2.7l0,0c-0.6,0.7-1.5,1.1-2.5,1.1l0,0
						C17.8,27.1,16.9,26.6,16.2,25.9L16.2,25.9z M15.2,23.2c0,1.1,0.4,2,1,2.7l0,0c0.6,0.7,1.5,1.1,2.5,1.1l0,0c1,0,1.8-0.4,2.5-1.1
						l0,0c0.6-0.7,1-1.7,1-2.7l0,0l0-5.2l-7,0L15.2,23.2L15.2,23.2L15.2,23.2z"/>
				</g>
				<g>
					<g>
						<path class="st4" d="M18,22.7L18,22.7L18,22.7c0,0.2,0.1,0.4,0.2,0.6c0.1,0.2,0.3,0.3,0.5,0.3c0.2,0,0.4-0.1,0.5-0.3
							c0.1-0.2,0.2-0.4,0.2-0.6l0,0v-1.2H18V22.7z"/>
					</g>
					<g>
						<g>
							<path class="st3" d="M19.2,21.8c-0.1,0-0.2,0.1-0.2,0.2c0,0.1,0.1,0.2,0.2,0.2c0.1,0,0.2-0.1,0.2-0.2
								C19.3,21.8,19.3,21.8,19.2,21.8z"/>
						</g>
						<g>
							<path class="st3" d="M18.7,22.2c-0.1,0-0.2,0.1-0.2,0.2c0,0.1,0.1,0.2,0.2,0.2c0.1,0,0.2-0.1,0.2-0.2
								C18.9,22.2,18.8,22.2,18.7,22.2z"/>
						</g>
						<g>
							<path class="st3" d="M19.2,22.6c-0.1,0-0.2,0.1-0.2,0.2c0,0.1,0.1,0.2,0.2,0.2c0.1,0,0.2-0.1,0.2-0.2
								C19.3,22.7,19.3,22.6,19.2,22.6z"/>
						</g>
						<g>
							<path class="st3" d="M18.3,22.6c-0.1,0-0.2,0.1-0.2,0.2c0,0.1,0.1,0.2,0.2,0.2c0.1,0,0.2-0.1,0.2-0.2
								C18.5,22.7,18.4,22.6,18.3,22.6z"/>
						</g>
						<g>
							<path class="st3" d="M18.3,21.8c-0.1,0-0.2,0.1-0.2,0.2c0,0.1,0.1,0.2,0.2,0.2c0.1,0,0.2-0.1,0.2-0.2
								C18.5,21.8,18.4,21.8,18.3,21.8z"/>
						</g>
					</g>
				</g>
				<g>
					<g>
						<path class="st4" d="M15.8,22.7L15.8,22.7L15.8,22.7c0,0.2,0.1,0.4,0.2,0.6c0.1,0.2,0.3,0.3,0.6,0.3c0.2,0,0.4-0.1,0.5-0.3
							c0.1-0.2,0.2-0.4,0.2-0.6l0,0v-1.2h-1.6V22.7z"/>
					</g>
					<g>
						<g>
							<path class="st3" d="M17,21.8c-0.1,0-0.2,0.1-0.2,0.2c0,0.1,0.1,0.2,0.2,0.2c0.1,0,0.2-0.1,0.2-0.2
								C17.2,21.8,17.1,21.8,17,21.8z"/>
						</g>
						<g>
							<path class="st3" d="M16.6,22.2c-0.1,0-0.2,0.1-0.2,0.2c0,0.1,0.1,0.2,0.2,0.2c0.1,0,0.2-0.1,0.2-0.2
								C16.7,22.2,16.6,22.2,16.6,22.2z"/>
						</g>
						<g>
							<path class="st3" d="M17,22.6c-0.1,0-0.2,0.1-0.2,0.2c0,0.1,0.1,0.2,0.2,0.2c0.1,0,0.2-0.1,0.2-0.2
								C17.2,22.7,17.1,22.6,17,22.6z"/>
						</g>
						<g>
							<path class="st3" d="M16.1,22.6c-0.1,0-0.2,0.1-0.2,0.2c0,0.1,0.1,0.2,0.2,0.2c0.1,0,0.2-0.1,0.2-0.2
								C16.3,22.7,16.2,22.6,16.1,22.6z"/>
						</g>
						<g>
							<path class="st3" d="M16.1,21.8c-0.1,0-0.2,0.1-0.2,0.2c0,0.1,0.1,0.2,0.2,0.2c0.1,0,0.2-0.1,0.2-0.2
								C16.3,21.8,16.2,21.8,16.1,21.8z"/>
						</g>
					</g>
				</g>
				<g>
					<g>
						<path class="st4" d="M20.2,22.7L20.2,22.7L20.2,22.7c0,0.2,0.1,0.4,0.2,0.6c0.1,0.2,0.3,0.3,0.5,0.3c0.2,0,0.4-0.1,0.5-0.3
							c0.1-0.2,0.2-0.4,0.2-0.6l0,0v-1.2h-1.6V22.7z"/>
					</g>
					<g>
						<g>
							<path class="st3" d="M21.4,21.8c-0.1,0-0.2,0.1-0.2,0.2c0,0.1,0.1,0.2,0.2,0.2c0.1,0,0.2-0.1,0.2-0.2
								C21.5,21.8,21.5,21.8,21.4,21.8z"/>
						</g>
						<g>
							<path class="st3" d="M20.9,22.2c-0.1,0-0.2,0.1-0.2,0.2c0,0.1,0.1,0.2,0.2,0.2c0.1,0,0.2-0.1,0.2-0.2
								C21.1,22.2,21,22.2,20.9,22.2z"/>
						</g>
						<g>
							<path class="st3" d="M21.4,22.6c-0.1,0-0.2,0.1-0.2,0.2c0,0.1,0.1,0.2,0.2,0.2c0.1,0,0.2-0.1,0.2-0.2
								C21.5,22.7,21.5,22.6,21.4,22.6z"/>
						</g>
						<g>
							<path class="st3" d="M20.5,22.6c-0.1,0-0.2,0.1-0.2,0.2c0,0.1,0.1,0.2,0.2,0.2c0.1,0,0.2-0.1,0.2-0.2
								C20.7,22.7,20.6,22.6,20.5,22.6z"/>
						</g>
						<g>
							<path class="st3" d="M20.5,21.8c-0.1,0-0.2,0.1-0.2,0.2c0,0.1,0.1,0.2,0.2,0.2c0.1,0,0.2-0.1,0.2-0.2
								C20.7,21.8,20.6,21.8,20.5,21.8z"/>
						</g>
					</g>
				</g>
				<g>
					<g>
						<path class="st4" d="M18,25.3L18,25.3L18,25.3c0,0.2,0.1,0.4,0.2,0.6c0.1,0.2,0.3,0.3,0.5,0.3c0.2,0,0.4-0.1,0.5-0.3
							c0.1-0.2,0.2-0.4,0.2-0.6l0,0v-1.2l-1.5,0V25.3z"/>
					</g>
					<g>
						<g>
							<path class="st3" d="M19.2,24.4c-0.1,0-0.2,0.1-0.2,0.2c0,0.1,0.1,0.2,0.2,0.2c0.1,0,0.2-0.1,0.2-0.2
								C19.3,24.5,19.3,24.4,19.2,24.4z"/>
						</g>
						<g>
							<path class="st3" d="M18.7,24.8c-0.1,0-0.2,0.1-0.2,0.2c0,0.1,0.1,0.2,0.2,0.2c0.1,0,0.2-0.1,0.2-0.2
								C18.9,24.9,18.8,24.8,18.7,24.8z"/>
						</g>
						<g>
							<path class="st3" d="M19.2,25.2c-0.1,0-0.2,0.1-0.2,0.2c0,0.1,0.1,0.2,0.2,0.2c0.1,0,0.2-0.1,0.2-0.2
								C19.3,25.3,19.3,25.2,19.2,25.2z"/>
						</g>
						<g>
							<path class="st3" d="M18.3,25.2c-0.1,0-0.2,0.1-0.2,0.2c0,0.1,0.1,0.2,0.2,0.2c0.1,0,0.2-0.1,0.2-0.2
								C18.5,25.3,18.4,25.2,18.3,25.2z"/>
						</g>
						<g>
							<path class="st3" d="M18.3,24.4c-0.1,0-0.2,0.1-0.2,0.2c0,0.1,0.1,0.2,0.2,0.2c0.1,0,0.2-0.1,0.2-0.2
								C18.5,24.5,18.4,24.4,18.3,24.4z"/>
						</g>
					</g>
				</g>
				<g>
					<g>
						<path class="st4" d="M18,20L18,20L18,20c0,0.2,0.1,0.4,0.2,0.6c0.1,0.2,0.3,0.2,0.5,0.2c0.2,0,0.4-0.1,0.5-0.2
							c0.1-0.2,0.2-0.4,0.2-0.6l0,0v-1.2H18V20z"/>
					</g>
					<g>
						<g>
							<path class="st3" d="M19.2,19.1c-0.1,0-0.2,0.1-0.2,0.2c0,0.1,0.1,0.2,0.2,0.2c0.1,0,0.2-0.1,0.2-0.2
								C19.3,19.2,19.3,19.1,19.2,19.1z"/>
						</g>
						<g>
							<path class="st3" d="M18.7,19.5c-0.1,0-0.2,0.1-0.2,0.2c0,0.1,0.1,0.2,0.2,0.2c0.1,0,0.2-0.1,0.2-0.2
								C18.9,19.6,18.8,19.5,18.7,19.5z"/>
						</g>
						<g>
							<path class="st3" d="M19.2,20C19.1,20,19,20,19,20.1c0,0.1,0.1,0.2,0.2,0.2c0.1,0,0.2-0.1,0.2-0.2C19.3,20,19.3,20,19.2,20z"
								/>
						</g>
						<g>
							<path class="st3" d="M18.3,20c-0.1,0-0.2,0.1-0.2,0.2c0,0.1,0.1,0.2,0.2,0.2c0.1,0,0.2-0.1,0.2-0.2C18.5,20,18.4,20,18.3,20z
								"/>
						</g>
						<g>
							<path class="st3" d="M18.3,19.1c-0.1,0-0.2,0.1-0.2,0.2c0,0.1,0.1,0.2,0.2,0.2c0.1,0,0.2-0.1,0.2-0.2
								C18.5,19.2,18.4,19.1,18.3,19.1z"/>
						</g>
					</g>
				</g>
				<g>
					<g>
						<polygon class="st2" points="22.6,17.6 24.4,17.6 24.3,16.9 22.7,16.9 						"/>
						<path d="M22.6,17.6L22.6,17.6L22.6,17.6l0.1-0.7l1.6,0l0.1,0.7H22.6L22.6,17.6z M24.4,17.6l-0.1-0.7l-1.6,0l-0.1,0.6
							L24.4,17.6L24.4,17.6z"/>
					</g>
					<g>
						<g>
							<path class="st2" d="M23.5,17c0.2,0,0.4,0.4,0.4,0.6h-0.9C23.1,17.3,23.3,17,23.5,17z"/>
							<path d="M23.1,17.6c0-0.3,0.2-0.6,0.4-0.6l0,0v0C23.3,17,23.1,17.3,23.1,17.6L23.1,17.6h0.9c0-0.3-0.2-0.6-0.4-0.6l0,0v0
								c0.2,0,0.4,0.4,0.4,0.6l0,0L23.1,17.6L23.1,17.6z"/>
						</g>
						<g>
							<path class="st2" d="M23.5,17.1c0,0,0.2,0.1,0.2,0.5c-0.2,0-0.2,0-0.5,0C23.3,17.2,23.5,17.1,23.5,17.1z"/>
							<path d="M23.3,17.6c0-0.4,0.2-0.5,0.2-0.5l0,0l0,0l0,0c0,0,0.3,0.1,0.2,0.5l0,0C23.5,17.6,23.5,17.6,23.3,17.6L23.3,17.6z
								 M23.3,17.6c0.2,0,0.2,0,0.5,0l0,0c0-0.3-0.2-0.4-0.2-0.4l0,0C23.5,17.2,23.3,17.3,23.3,17.6L23.3,17.6z"/>
						</g>
					</g>
					<g>
						<path class="st2" d="M22.7,16.6h1.7c0,0,0.1,0,0.1,0.1l0,0c0,0,0,0.1-0.1,0.1h-1.7C22.6,16.8,22.6,16.7,22.7,16.6L22.7,16.6
							C22.6,16.7,22.6,16.6,22.7,16.6z"/>
						<path d="M22.7,16.8C22.6,16.8,22.6,16.8,22.7,16.8L22.7,16.8c-0.1-0.1,0-0.2,0-0.2l0,0v0v0C22.6,16.6,22.6,16.7,22.7,16.8
							L22.7,16.8C22.6,16.7,22.6,16.8,22.7,16.8L22.7,16.8l1.7,0c0,0,0,0,0-0.1l0,0c0,0,0-0.1,0-0.1l0,0h-1.7v0v0h1.7
							c0,0,0.1,0,0.1,0.1l0,0c0,0.1,0,0.1-0.1,0.1l0,0H22.7L22.7,16.8z"/>
					</g>
					<g>
						<path class="st2" d="M22.6,17.6h1.8c0,0,0.1,0,0.1,0.1l0,0c0,0,0,0.1-0.1,0.1h-1.8C22.6,17.7,22.5,17.7,22.6,17.6L22.6,17.6
							C22.5,17.6,22.6,17.6,22.6,17.6z"/>
						<path d="M22.6,17.8C22.6,17.8,22.5,17.7,22.6,17.8L22.6,17.8c-0.1-0.1,0-0.2,0-0.2l0,0v0v0C22.6,17.6,22.6,17.6,22.6,17.8
							L22.6,17.8C22.6,17.7,22.6,17.7,22.6,17.8L22.6,17.8l1.8,0c0,0,0.1,0,0.1-0.1l0,0c0,0,0-0.1-0.1-0.1l0,0h-1.8v0v0h1.8
							c0,0,0.1,0,0.1,0.1l0,0c0,0.1,0,0.1-0.1,0.1l0,0H22.6L22.6,17.8z"/>
					</g>
					<g>
						<path class="st2" d="M22.7,16.8h1.6c0,0,0.1,0,0.1,0.1l0,0c0,0,0,0.1-0.1,0.1h-1.6C22.7,16.9,22.6,16.9,22.7,16.8L22.7,16.8
							C22.6,16.8,22.7,16.8,22.7,16.8z"/>
						<path d="M22.7,16.9C22.6,16.9,22.6,16.9,22.7,16.9L22.7,16.9c-0.1-0.1,0-0.2,0-0.2l0,0v0v0C22.7,16.8,22.6,16.8,22.7,16.9
							L22.7,16.9C22.6,16.9,22.7,16.9,22.7,16.9L22.7,16.9l1.6,0c0,0,0,0,0-0.1l0,0c0,0,0-0.1,0-0.1l0,0h-1.6v0v0h1.6
							c0,0,0.1,0,0.1,0.1l0,0c0,0,0,0.1-0.1,0.1l0,0H22.7L22.7,16.9z"/>
					</g>
					<g>
						<g>
							<polygon class="st2" points="23.7,15.9 23.7,16.6 23.3,16.6 23.3,15.9 							"/>
							<path d="M23.3,16.6l0-0.7l0.4,0v0l0,0l0,0.7L23.3,16.6L23.3,16.6z M23.3,16.6l0.4,0l0-0.7l-0.4,0L23.3,16.6L23.3,16.6z"/>
						</g>
						<g>
							<path class="st2" d="M23.2,15.7h0.1v0.1h0.1v-0.1h0.1v0.1h0.1v-0.1h0.1v0.2c0,0,0,0.1-0.1,0.1h-0.5c0,0-0.1,0-0.1-0.1V15.7
								L23.2,15.7z"/>
							<path d="M23.3,16C23.3,16,23.2,15.9,23.3,16L23.3,16l-0.1-0.3h0v0l0.1,0l0,0.1l0.1,0l0-0.1l0.1,0l0,0.1l0.1,0l0-0.1l0.1,0
								v0.2c0,0,0,0.1-0.1,0.1l0,0H23.3L23.3,16z M23.3,15.9C23.3,15.9,23.3,15.9,23.3,15.9L23.3,15.9l0.5,0c0,0,0,0,0,0l0,0l0-0.2
								l-0.1,0l0,0.1l-0.1,0l0-0.1l-0.1,0l0,0.1l-0.1,0l0-0.1h-0.1V15.9L23.3,15.9z"/>
						</g>
						<g>
							<path d="M23.5,16.2C23.5,16.2,23.6,16.2,23.5,16.2l0.1,0.2h-0.1V16.2z"/>
						</g>
						<g>
							<path class="st2" d="M23.8,16h0.1v0.1H24V16h0.1v0.1h0.1V16h0.1v0.2c0,0,0,0.1-0.1,0.1h-0.5c0,0-0.1,0-0.1-0.1V16L23.8,16z"
								/>
							<path d="M23.8,16.3C23.8,16.3,23.8,16.3,23.8,16.3L23.8,16.3L23.8,16h0v0l0.1,0l0,0.1l0.1,0l0-0.1l0.1,0l0,0.1l0.1,0l0-0.1
								l0.1,0v0.2c0,0,0,0.1-0.1,0.1l0,0H23.8L23.8,16.3z M23.8,16.2C23.8,16.2,23.8,16.2,23.8,16.2L23.8,16.2l0.5,0c0,0,0,0,0,0
								l0,0l0-0.2l-0.1,0l0,0.1l-0.1,0l0-0.1L24,16l0,0.1l-0.1,0l0-0.1h-0.1V16.2L23.8,16.2z"/>
						</g>
						<g>
							<polygon class="st2" points="24.3,16.3 24.3,16.6 23.9,16.6 23.9,16.3 							"/>
							<path d="M23.8,16.6l0-0.4h0.4v0l0,0l0,0.4L23.8,16.6L23.8,16.6z M23.9,16.6l0.4,0l0-0.4l-0.4,0L23.9,16.6L23.9,16.6z"/>
						</g>
						<g>
							<path class="st2" d="M22.7,16h0.1v0.1h0.1V16l0.1,0v0.1h0.1V16h0.1v0.2c0,0,0,0.1-0.1,0.1h-0.5c0,0-0.1,0-0.1-0.1V16L22.7,16
								z"/>
							<path d="M22.7,16.3C22.7,16.3,22.7,16.3,22.7,16.3L22.7,16.3L22.7,16h0v0l0.1,0l0,0.1l0.1,0l0-0.1l0.1,0l0,0.1l0.1,0l0-0.1
								l0.1,0v0.2c0,0,0,0.1-0.1,0.1l0,0H22.7L22.7,16.3z M22.7,16.2C22.7,16.2,22.7,16.2,22.7,16.2L22.7,16.2l0.5,0c0,0,0,0,0,0
								l0,0l0-0.2l-0.1,0l0,0.1l-0.1,0l0-0.1l-0.1,0l0,0.1l-0.1,0l0-0.1h-0.1V16.2L22.7,16.2z"/>
						</g>
						<g>
							<polygon class="st2" points="23.2,16.3 23.2,16.6 22.7,16.6 22.8,16.3 							"/>
							<path d="M22.7,16.6l0-0.4h0.4v0h0l0,0.4L22.7,16.6L22.7,16.6z M22.7,16.6l0.4,0l0-0.4l-0.4,0L22.7,16.6L22.7,16.6z
								 M23.1,16.3L23.1,16.3L23.1,16.3L23.1,16.3z"/>
						</g>
						<g>
							<path d="M24,16.4C24,16.4,24.1,16.4,24,16.4l0.1,0.1H24V16.4z"/>
						</g>
						<g>
							<path d="M22.9,16.4C22.9,16.4,23,16.4,22.9,16.4l0.1,0.1h-0.1V16.4z"/>
						</g>
					</g>
				</g>
				<g>
					<g>
						<polygon class="st2" points="22.6,22.6 24.4,22.6 24.3,21.9 22.7,21.9 						"/>
						<path d="M22.6,22.6L22.6,22.6L22.6,22.6l0.1-0.7l1.6,0l0.1,0.7H22.6L22.6,22.6z M24.4,22.6l-0.1-0.7l-1.6,0l-0.1,0.6
							L24.4,22.6L24.4,22.6z"/>
					</g>
					<g>
						<g>
							<path class="st2" d="M23.5,22c0.2,0,0.4,0.4,0.4,0.6h-0.9C23.1,22.3,23.3,22,23.5,22z"/>
							<path d="M23.1,22.6c0-0.3,0.2-0.6,0.4-0.6l0,0v0C23.3,22,23.1,22.3,23.1,22.6L23.1,22.6h0.9c0-0.3-0.2-0.6-0.4-0.6l0,0v0
								c0.2,0,0.4,0.4,0.4,0.6l0,0L23.1,22.6L23.1,22.6z"/>
						</g>
						<g>
							<path class="st2" d="M23.5,22.1c0,0,0.2,0.1,0.2,0.5c-0.2,0-0.2,0-0.5,0C23.3,22.2,23.5,22.1,23.5,22.1z"/>
							<path d="M23.3,22.6c0-0.4,0.2-0.5,0.2-0.5l0,0l0,0l0,0c0,0,0.3,0.1,0.2,0.5l0,0C23.5,22.6,23.5,22.6,23.3,22.6L23.3,22.6z
								 M23.3,22.6c0.2,0,0.2,0,0.5,0l0,0c0-0.3-0.2-0.4-0.2-0.4l0,0C23.5,22.2,23.3,22.3,23.3,22.6L23.3,22.6z"/>
						</g>
					</g>
					<g>
						<path class="st2" d="M22.7,21.6h1.7c0,0,0.1,0,0.1,0.1l0,0c0,0,0,0.1-0.1,0.1h-1.7C22.6,21.8,22.6,21.7,22.7,21.6L22.7,21.6
							C22.6,21.7,22.6,21.6,22.7,21.6z"/>
						<path d="M22.7,21.8C22.6,21.8,22.6,21.7,22.7,21.8L22.7,21.8c-0.1-0.1,0-0.2,0-0.2l0,0v0v0C22.6,21.6,22.6,21.7,22.7,21.8
							L22.7,21.8C22.6,21.7,22.6,21.8,22.7,21.8L22.7,21.8l1.7,0c0,0,0,0,0-0.1l0,0c0,0,0-0.1,0-0.1l0,0h-1.7v0v0h1.7
							c0,0,0.1,0,0.1,0.1l0,0c0,0.1,0,0.1-0.1,0.1l0,0H22.7L22.7,21.8z"/>
					</g>
					<g>
						<path class="st2" d="M22.6,22.6h1.8c0,0,0.1,0,0.1,0.1l0,0c0,0,0,0.1-0.1,0.1h-1.8C22.6,22.7,22.5,22.7,22.6,22.6L22.6,22.6
							C22.5,22.6,22.6,22.6,22.6,22.6z"/>
						<path d="M22.6,22.8C22.6,22.8,22.5,22.7,22.6,22.8L22.6,22.8c-0.1-0.1,0-0.2,0-0.2l0,0v0v0C22.6,22.6,22.6,22.6,22.6,22.8
							L22.6,22.8C22.6,22.7,22.6,22.7,22.6,22.8L22.6,22.8l1.8,0c0,0,0.1,0,0.1-0.1l0,0c0,0,0-0.1-0.1-0.1l0,0h-1.8v0v0h1.8
							c0,0,0.1,0,0.1,0.1l0,0c0,0.1,0,0.1-0.1,0.1l0,0H22.6L22.6,22.8z"/>
					</g>
					<g>
						<path class="st2" d="M22.7,21.8h1.6c0,0,0.1,0,0.1,0.1l0,0c0,0,0,0.1-0.1,0.1h-1.6C22.7,21.9,22.6,21.9,22.7,21.8L22.7,21.8
							C22.6,21.8,22.7,21.8,22.7,21.8z"/>
						<path d="M22.7,21.9C22.6,21.9,22.6,21.9,22.7,21.9L22.7,21.9c-0.1-0.1,0-0.2,0-0.2l0,0v0v0C22.7,21.8,22.6,21.8,22.7,21.9
							L22.7,21.9C22.6,21.9,22.7,21.9,22.7,21.9L22.7,21.9l1.6,0c0,0,0,0,0-0.1l0,0c0,0,0-0.1,0-0.1l0,0h-1.6v0v0h1.6
							c0,0,0.1,0,0.1,0.1l0,0c0,0,0,0.1-0.1,0.1l0,0H22.7L22.7,21.9z"/>
					</g>
					<g>
						<g>
							<polygon class="st2" points="23.7,20.9 23.7,21.6 23.3,21.6 23.3,20.9 							"/>
							<path d="M23.3,21.6l0-0.7l0.4,0v0l0,0l0,0.7L23.3,21.6L23.3,21.6z M23.3,21.6l0.4,0l0-0.7l-0.4,0L23.3,21.6L23.3,21.6z"/>
						</g>
						<g>
							<path class="st2" d="M23.2,20.7h0.1v0.1h0.1v-0.1h0.1v0.1h0.1v-0.1h0.1v0.2c0,0,0,0.1-0.1,0.1h-0.5c0,0-0.1,0-0.1-0.1V20.7
								L23.2,20.7z"/>
							<path d="M23.3,20.9C23.3,20.9,23.2,20.9,23.3,20.9L23.3,20.9l-0.1-0.3h0v0l0.1,0l0,0.1l0.1,0l0-0.1l0.1,0l0,0.1l0.1,0l0-0.1
								l0.1,0v0.2c0,0,0,0.1-0.1,0.1l0,0H23.3L23.3,20.9z M23.3,20.9C23.3,20.9,23.3,20.9,23.3,20.9L23.3,20.9l0.5,0c0,0,0,0,0,0
								l0,0l0-0.2l-0.1,0l0,0.1l-0.1,0l0-0.1l-0.1,0l0,0.1l-0.1,0l0-0.1h-0.1V20.9L23.3,20.9z"/>
						</g>
						<g>
							<path d="M23.5,21.2C23.5,21.2,23.6,21.2,23.5,21.2l0.1,0.2h-0.1V21.2z"/>
						</g>
						<g>
							<path class="st2" d="M23.8,21h0.1v0.1H24V21h0.1v0.1h0.1V21h0.1v0.2c0,0,0,0.1-0.1,0.1h-0.5c0,0-0.1,0-0.1-0.1V21L23.8,21z"
								/>
							<path d="M23.8,21.3C23.8,21.3,23.8,21.2,23.8,21.3L23.8,21.3L23.8,21h0v0l0.1,0l0,0.1l0.1,0l0-0.1l0.1,0l0,0.1l0.1,0l0-0.1
								l0.1,0v0.2c0,0,0,0.1-0.1,0.1l0,0H23.8L23.8,21.3z M23.8,21.2C23.8,21.2,23.8,21.2,23.8,21.2L23.8,21.2l0.5,0c0,0,0,0,0,0
								l0,0l0-0.2l-0.1,0l0,0.1l-0.1,0l0-0.1L24,21l0,0.1l-0.1,0l0-0.1h-0.1V21.2L23.8,21.2z"/>
						</g>
						<g>
							<polygon class="st2" points="24.3,21.3 24.3,21.6 23.9,21.6 23.9,21.3 							"/>
							<path d="M23.8,21.6l0-0.4h0.4v0h0l0,0.4L23.8,21.6L23.8,21.6z M23.9,21.6l0.4,0l0-0.4l-0.4,0L23.9,21.6L23.9,21.6z"/>
						</g>
						<g>
							<path class="st2" d="M22.7,21h0.1v0.1h0.1V21l0.1,0v0.1h0.1V21h0.1v0.2c0,0,0,0.1-0.1,0.1h-0.5c0,0-0.1,0-0.1-0.1V21L22.7,21
								z"/>
							<path d="M22.7,21.3C22.7,21.3,22.7,21.2,22.7,21.3L22.7,21.3L22.7,21h0v0l0.1,0l0,0.1l0.1,0l0-0.1l0.1,0l0,0.1l0.1,0l0-0.1
								l0.1,0v0.2c0,0,0,0.1-0.1,0.1l0,0H22.7L22.7,21.3z M22.7,21.2C22.7,21.2,22.7,21.2,22.7,21.2L22.7,21.2l0.5,0c0,0,0,0,0,0
								l0,0l0-0.2l-0.1,0l0,0.1l-0.1,0l0-0.1l-0.1,0l0,0.1l-0.1,0l0-0.1h-0.1V21.2L22.7,21.2z"/>
						</g>
						<g>
							<polygon class="st2" points="23.2,21.3 23.2,21.6 22.7,21.6 22.8,21.3 							"/>
							<path d="M22.7,21.6l0-0.4h0.4v0l0,0l0,0.4L22.7,21.6L22.7,21.6z M22.7,21.6l0.4,0l0-0.4l-0.4,0L22.7,21.6L22.7,21.6z
								 M23.1,21.3L23.1,21.3L23.1,21.3L23.1,21.3z"/>
						</g>
						<g>
							<path d="M24,21.4C24,21.3,24.1,21.3,24,21.4l0.1,0.1H24V21.4z"/>
						</g>
						<g>
							<path d="M22.9,21.4C22.9,21.3,23,21.3,22.9,21.4l0.1,0.1h-0.1V21.4z"/>
						</g>
					</g>
				</g>
				<g>
					<g>
						<polygon class="st2" points="13.1,22.6 14.9,22.6 14.8,21.9 13.2,21.9 						"/>
						<path d="M13.1,22.6L13.1,22.6L13.1,22.6l0.1-0.7l1.6,0l0.1,0.7H13.1L13.1,22.6z M14.8,22.6l-0.1-0.7l-1.6,0l-0.1,0.6
							L14.8,22.6L14.8,22.6z"/>
					</g>
					<g>
						<g>
							<path class="st2" d="M14,22c0.2,0,0.4,0.4,0.4,0.6h-0.9C13.6,22.3,13.8,22,14,22z"/>
							<path d="M13.6,22.6c0-0.3,0.2-0.6,0.4-0.6l0,0v0C13.8,22,13.6,22.3,13.6,22.6L13.6,22.6h0.9c0-0.3-0.2-0.6-0.4-0.6l0,0v0
								c0.2,0,0.4,0.4,0.4,0.6l0,0L13.6,22.6L13.6,22.6z"/>
						</g>
						<g>
							<path class="st2" d="M14,22.1c0,0,0.2,0.1,0.2,0.5c-0.2,0-0.2,0-0.5,0C13.8,22.2,14,22.1,14,22.1z"/>
							<path d="M13.7,22.6c0-0.4,0.2-0.5,0.2-0.5l0,0l0,0l0,0c0,0,0.3,0.1,0.2,0.5l0,0C14,22.6,14,22.6,13.7,22.6L13.7,22.6z
								 M13.8,22.6c0.2,0,0.2,0,0.5,0l0,0c0-0.3-0.2-0.4-0.2-0.4l0,0C14,22.2,13.8,22.3,13.8,22.6L13.8,22.6z"/>
						</g>
					</g>
					<g>
						<path class="st2" d="M13.2,21.6h1.7c0,0,0.1,0,0.1,0.1l0,0c0,0,0,0.1-0.1,0.1h-1.7C13.1,21.8,13.1,21.7,13.2,21.6L13.2,21.6
							C13.1,21.7,13.1,21.6,13.2,21.6z"/>
						<path d="M13.2,21.8C13.1,21.8,13.1,21.7,13.2,21.8L13.2,21.8c-0.1-0.1,0-0.2,0-0.2l0,0v0v0C13.1,21.6,13.1,21.7,13.2,21.8
							L13.2,21.8C13.1,21.7,13.1,21.8,13.2,21.8L13.2,21.8l1.7,0c0,0,0,0,0-0.1l0,0c0,0,0-0.1,0-0.1l0,0h-1.7v0v0h1.7
							c0,0,0.1,0,0.1,0.1l0,0c0,0.1,0,0.1-0.1,0.1l0,0H13.2L13.2,21.8z"/>
					</g>
					<g>
						<path class="st2" d="M13.1,22.6h1.8c0,0,0.1,0,0.1,0.1l0,0c0,0,0,0.1-0.1,0.1h-1.8C13.1,22.7,13,22.7,13.1,22.6L13.1,22.6
							C13,22.6,13.1,22.6,13.1,22.6z"/>
						<path d="M13.1,22.8C13.1,22.8,13,22.7,13.1,22.8L13.1,22.8c-0.1-0.1,0-0.2,0-0.2l0,0v0v0C13.1,22.6,13.1,22.6,13.1,22.8
							L13.1,22.8C13.1,22.7,13.1,22.7,13.1,22.8L13.1,22.8l1.8,0c0,0,0.1,0,0.1-0.1l0,0c0,0,0-0.1-0.1-0.1l0,0h-1.8v0v0h1.8
							c0,0,0.1,0,0.1,0.1l0,0c0,0.1,0,0.1-0.1,0.1l0,0H13.1L13.1,22.8z"/>
					</g>
					<g>
						<path class="st2" d="M13.2,21.8h1.6c0,0,0.1,0,0.1,0.1l0,0c0,0,0,0.1-0.1,0.1h-1.6C13.2,21.9,13.1,21.9,13.2,21.8L13.2,21.8
							C13.1,21.8,13.2,21.8,13.2,21.8z"/>
						<path d="M13.2,21.9C13.1,21.9,13.1,21.9,13.2,21.9L13.2,21.9c-0.1-0.1,0-0.2,0-0.2l0,0v0v0C13.2,21.8,13.1,21.8,13.2,21.9
							L13.2,21.9C13.1,21.9,13.2,21.9,13.2,21.9L13.2,21.9l1.6,0c0,0,0,0,0-0.1l0,0c0,0,0-0.1,0-0.1l0,0h-1.6v0v0h1.6
							c0,0,0.1,0,0.1,0.1l0,0c0,0,0,0.1-0.1,0.1l0,0H13.2L13.2,21.9z"/>
					</g>
					<g>
						<g>
							<polygon class="st2" points="14.2,20.9 14.2,21.6 13.8,21.6 13.8,20.9 							"/>
							<path d="M13.8,21.6l0-0.7l0.4,0v0l0,0l0,0.7L13.8,21.6L13.8,21.6z M13.8,21.6l0.4,0l0-0.7l-0.4,0L13.8,21.6L13.8,21.6z"/>
						</g>
						<g>
							<path class="st2" d="M13.7,20.7h0.1v0.1h0.1v-0.1h0.1v0.1h0.1v-0.1h0.1v0.2c0,0,0,0.1-0.1,0.1h-0.5c0,0-0.1,0-0.1-0.1V20.7
								L13.7,20.7z"/>
							<path d="M13.8,20.9C13.7,20.9,13.7,20.9,13.8,20.9L13.8,20.9l-0.1-0.3h0v0l0.1,0l0,0.1l0.1,0l0-0.1l0.1,0l0,0.1l0.1,0l0-0.1
								l0.1,0v0.2c0,0,0,0.1-0.1,0.1l0,0H13.8L13.8,20.9z M13.7,20.9C13.7,20.9,13.8,20.9,13.7,20.9L13.7,20.9l0.5,0c0,0,0,0,0,0
								l0,0l0-0.2l-0.1,0l0,0.1l-0.1,0l0-0.1l-0.1,0l0,0.1l-0.1,0l0-0.1h-0.1V20.9L13.7,20.9z"/>
						</g>
						<g>
							<path d="M14,21.2C14,21.2,14.1,21.2,14,21.2l0.1,0.2H14V21.2z"/>
						</g>
						<g>
							<path class="st2" d="M14.3,21h0.1v0.1h0.1V21h0.1v0.1h0.1V21h0.1v0.2c0,0,0,0.1-0.1,0.1h-0.5c0,0-0.1,0-0.1-0.1V21L14.3,21z"
								/>
							<path d="M14.3,21.3C14.3,21.3,14.3,21.2,14.3,21.3L14.3,21.3L14.3,21h0v0l0.1,0l0,0.1l0.1,0l0-0.1l0.1,0l0,0.1l0.1,0l0-0.1
								l0.1,0v0.2c0,0,0,0.1-0.1,0.1l0,0H14.3L14.3,21.3z M14.3,21.2C14.3,21.2,14.3,21.2,14.3,21.2L14.3,21.2l0.5,0c0,0,0,0,0,0
								l0,0l0-0.2l-0.1,0l0,0.1l-0.1,0l0-0.1l-0.1,0l0,0.1l-0.1,0l0-0.1h-0.1V21.2L14.3,21.2z"/>
						</g>
						<g>
							<polygon class="st2" points="14.8,21.3 14.8,21.6 14.3,21.6 14.4,21.3 							"/>
							<path d="M14.3,21.6l0-0.4h0.4v0h0l0,0.4L14.3,21.6L14.3,21.6z M14.3,21.6l0.4,0l0-0.4l-0.4,0L14.3,21.6L14.3,21.6z"/>
						</g>
						<g>
							<path class="st2" d="M13.2,21h0.1v0.1h0.1V21l0.1,0v0.1h0.1V21h0.1v0.2c0,0,0,0.1-0.1,0.1h-0.5c0,0-0.1,0-0.1-0.1V21L13.2,21
								z"/>
							<path d="M13.2,21.3C13.2,21.3,13.2,21.2,13.2,21.3L13.2,21.3L13.2,21h0v0l0.1,0l0,0.1l0.1,0l0-0.1l0.1,0l0,0.1l0.1,0l0-0.1
								l0.1,0v0.2c0,0,0,0.1-0.1,0.1l0,0H13.2L13.2,21.3z M13.2,21.2C13.2,21.2,13.2,21.2,13.2,21.2L13.2,21.2l0.5,0c0,0,0,0,0,0
								l0,0l0-0.2l-0.1,0l0,0.1l-0.1,0l0-0.1l-0.1,0l0,0.1l-0.1,0l0-0.1h-0.1V21.2L13.2,21.2z"/>
						</g>
						<g>
							<polygon class="st2" points="13.7,21.3 13.7,21.6 13.2,21.6 13.3,21.3 							"/>
							<path d="M13.2,21.6l0-0.4h0.4v0l0,0l0,0.4L13.2,21.6L13.2,21.6z M13.2,21.6l0.4,0l0-0.4l-0.4,0L13.2,21.6L13.2,21.6z
								 M13.6,21.3L13.6,21.3L13.6,21.3L13.6,21.3z"/>
						</g>
						<g>
							<path d="M14.5,21.4C14.5,21.3,14.6,21.3,14.5,21.4l0.1,0.1h-0.1V21.4z"/>
						</g>
						<g>
							<path d="M13.4,21.4C13.4,21.3,13.5,21.3,13.4,21.4l0.1,0.1h-0.1V21.4z"/>
						</g>
					</g>
				</g>
				<g>
					<g>
						<polygon class="st2" points="17.9,17.6 19.6,17.6 19.5,16.9 18,16.9 						"/>
						<path d="M17.9,17.6L17.9,17.6L17.9,17.6l0.1-0.7l1.6,0l0.1,0.7H17.9L17.9,17.6z M19.6,17.6l-0.1-0.7l-1.6,0l-0.1,0.6
							L19.6,17.6L19.6,17.6z"/>
					</g>
					<g>
						<g>
							<path class="st2" d="M18.7,17c0.2,0,0.4,0.4,0.4,0.6h-0.9C18.3,17.3,18.5,17,18.7,17z"/>
							<path d="M18.3,17.6c0-0.3,0.2-0.6,0.4-0.6l0,0v0C18.6,17,18.3,17.3,18.3,17.6L18.3,17.6h0.9c0-0.3-0.2-0.6-0.4-0.6l0,0v0
								c0.2,0,0.4,0.4,0.4,0.6l0,0L18.3,17.6L18.3,17.6z"/>
						</g>
						<g>
							<path class="st2" d="M18.8,17.1c0,0,0.3,0.1,0.3,0.5c-0.3,0-0.3,0-0.5,0C18.5,17.2,18.8,17.1,18.8,17.1z"/>
							<path d="M18.5,17.6c0-0.4,0.2-0.5,0.2-0.5l0,0l0,0l0,0c0,0,0.3,0.1,0.2,0.5l0,0C18.7,17.6,18.8,17.6,18.5,17.6L18.5,17.6z
								 M18.5,17.6c0.2,0,0.2,0,0.5,0l0,0c0-0.3-0.2-0.4-0.2-0.4l0,0C18.7,17.2,18.5,17.3,18.5,17.6L18.5,17.6z"/>
						</g>
					</g>
					<g>
						<path class="st2" d="M17.9,16.6h1.7c0,0,0.1,0,0.1,0.1l0,0c0,0,0,0.1-0.1,0.1h-1.7C17.9,16.8,17.8,16.7,17.9,16.6L17.9,16.6
							C17.8,16.7,17.9,16.6,17.9,16.6z"/>
						<path d="M17.9,16.8C17.9,16.8,17.8,16.8,17.9,16.8L17.9,16.8c-0.1-0.1,0-0.2,0-0.2l0,0v0v0C17.9,16.6,17.9,16.7,17.9,16.8
							L17.9,16.8C17.9,16.7,17.9,16.8,17.9,16.8L17.9,16.8l1.7,0c0,0,0,0,0-0.1l0,0c0,0,0-0.1,0-0.1l0,0h-1.7v0v0h1.7
							c0,0,0.1,0,0.1,0.1l0,0c0,0,0,0.1-0.1,0.1l0,0H17.9L17.9,16.8z"/>
					</g>
					<g>
						<path class="st2" d="M17.9,17.6h1.8c0,0,0.1,0,0.1,0.1l0,0c0,0,0,0.1-0.1,0.1h-1.8C17.8,17.7,17.8,17.7,17.9,17.6L17.9,17.6
							C17.8,17.6,17.8,17.6,17.9,17.6z"/>
						<path d="M17.9,17.8C17.8,17.8,17.8,17.7,17.9,17.8L17.9,17.8c-0.1-0.1-0.1-0.2,0-0.2l0,0v0v0C17.8,17.6,17.8,17.6,17.9,17.8
							L17.9,17.8C17.8,17.7,17.8,17.7,17.9,17.8L17.9,17.8l1.8,0c0,0,0.1,0,0.1-0.1l0,0c0,0,0-0.1-0.1-0.1l0,0h-1.8v0v0h1.8
							c0,0,0.1,0,0.1,0.1l0,0c0,0.1,0,0.1-0.1,0.1l0,0H17.9L17.9,17.8z"/>
					</g>
					<g>
						<path class="st2" d="M17.9,16.8h1.6c0,0,0.1,0,0.1,0.1l0,0c0,0,0,0.1-0.1,0.1h-1.6C17.9,16.9,17.9,16.9,17.9,16.8L17.9,16.8
							C17.9,16.8,17.9,16.8,17.9,16.8z"/>
						<path d="M17.9,16.9C17.9,16.9,17.9,16.9,17.9,16.9L17.9,16.9c-0.1-0.1,0-0.2,0-0.2l0,0v0v0C17.9,16.8,17.9,16.8,17.9,16.9
							L17.9,16.9C17.9,16.9,17.9,16.9,17.9,16.9L17.9,16.9l1.6,0c0,0,0,0,0-0.1l0,0c0,0,0-0.1,0-0.1l0,0h-1.6v0v0h1.6
							c0,0,0.1,0,0.1,0.1l0,0c0,0,0,0.1-0.1,0.1l0,0H17.9L17.9,16.9z"/>
					</g>
					<g>
						<g>
							<polygon class="st2" points="19,15.9 19,16.6 18.5,16.6 18.6,15.9 							"/>
							<path d="M18.5,16.6l0-0.7l0.4,0v0h0l0,0.7L18.5,16.6L18.5,16.6z M18.5,16.6l0.4,0l0-0.7l-0.4,0L18.5,16.6L18.5,16.6z"/>
						</g>
						<g>
							<path class="st2" d="M18.5,15.7h0.1v0.1h0.1v-0.1h0.1v0.1h0.1v-0.1h0.1v0.2c0,0,0,0.1-0.1,0.1h-0.5c0,0-0.1,0-0.1-0.1V15.7
								L18.5,15.7z"/>
							<path d="M18.5,16C18.5,16,18.5,15.9,18.5,16L18.5,16l-0.1-0.3h0v0l0.1,0l0,0.1l0.1,0l0-0.1l0.1,0l0,0.1l0.1,0l0-0.1l0.1,0
								v0.2c0,0,0,0.1-0.1,0.1l0,0H18.5L18.5,16z M18.5,15.9C18.5,15.9,18.5,15.9,18.5,15.9L18.5,15.9l0.5,0c0,0,0,0,0,0l0,0l0-0.2
								l-0.1,0l0,0.1l-0.1,0l0-0.1l-0.1,0l0,0.1l-0.1,0l0-0.1h-0.1V15.9L18.5,15.9z"/>
						</g>
						<g>
							<path d="M18.7,16.2C18.7,16.2,18.8,16.2,18.7,16.2l0.1,0.2h-0.1V16.2z"/>
						</g>
						<g>
							<path class="st2" d="M19,16h0.1v0.1h0.1V16h0.1v0.1h0.1V16h0.1v0.2c0,0,0,0.1-0.1,0.1h-0.5c0,0-0.1,0-0.1-0.1V16L19,16z"/>
							<path d="M19.1,16.3C19.1,16.3,19,16.3,19.1,16.3L19.1,16.3L19,16h0v0l0.1,0l0,0.1l0.1,0l0-0.1l0.1,0l0,0.1l0.1,0l0-0.1l0.1,0
								v0.2c0,0,0,0.1-0.1,0.1l0,0H19.1L19.1,16.3z M19.1,16.2C19.1,16.2,19.1,16.2,19.1,16.2L19.1,16.2l0.5,0c0,0,0,0,0,0l0,0
								l0-0.2l-0.1,0l0,0.1l-0.1,0l0-0.1l-0.1,0l0,0.1l-0.1,0l0-0.1h-0.1V16.2L19.1,16.2z"/>
						</g>
						<g>
							<polygon class="st2" points="19.5,16.3 19.5,16.6 19.1,16.6 19.1,16.3 							"/>
							<path d="M19.1,16.6l0-0.4h0.4v0l0,0l0,0.4L19.1,16.6L19.1,16.6z M19.1,16.6l0.4,0l0-0.4l-0.4,0L19.1,16.6L19.1,16.6z"/>
						</g>
						<g>
							<path class="st2" d="M17.9,16H18v0.1h0.1V16l0.1,0v0.1h0.1V16h0.1v0.2c0,0,0,0.1-0.1,0.1H18c0,0-0.1,0-0.1-0.1V16L17.9,16z"
								/>
							<path d="M18,16.3C17.9,16.3,17.9,16.3,18,16.3L18,16.3L17.9,16h0v0l0.1,0l0,0.1l0.1,0l0-0.1l0.1,0l0,0.1l0.1,0l0-0.1l0.1,0
								v0.2c0,0,0,0.1-0.1,0.1l0,0H18L18,16.3z M17.9,16.2C17.9,16.2,18,16.2,17.9,16.2L17.9,16.2l0.5,0c0,0,0,0,0,0l0,0l0-0.2
								l-0.1,0l0,0.1l-0.1,0l0-0.1l-0.1,0l0,0.1l-0.1,0l0-0.1h-0.1V16.2L17.9,16.2z"/>
						</g>
						<g>
							<polygon class="st2" points="18.4,16.3 18.4,16.6 18,16.6 18,16.3 							"/>
							<path d="M18,16.6l0-0.4h0.4v0l0,0l0,0.4L18,16.6L18,16.6z M18,16.6l0.4,0l0-0.4l-0.4,0L18,16.6L18,16.6z M18.4,16.3
								L18.4,16.3L18.4,16.3L18.4,16.3z"/>
						</g>
						<g>
							<path d="M19.3,16.4C19.3,16.4,19.4,16.4,19.3,16.4L19.3,16.4L19.3,16.4L19.3,16.4z"/>
						</g>
						<g>
							<path d="M18.2,16.4C18.2,16.4,18.3,16.4,18.2,16.4L18.2,16.4L18.2,16.4L18.2,16.4z"/>
						</g>
					</g>
				</g>
				<g>
					<g>
						<polygon class="st2" points="13.1,17.6 14.9,17.6 14.8,16.9 13.2,16.9 						"/>
						<path d="M13.1,17.6L13.1,17.6L13.1,17.6l0.1-0.7l1.6,0l0.1,0.7H13.1L13.1,17.6z M14.8,17.6l-0.1-0.7l-1.6,0l-0.1,0.6
							L14.8,17.6L14.8,17.6z"/>
					</g>
					<g>
						<g>
							<path class="st2" d="M14,17c0.2,0,0.4,0.4,0.4,0.6h-0.9C13.6,17.3,13.8,17,14,17z"/>
							<path d="M13.6,17.6c0-0.3,0.2-0.6,0.4-0.6l0,0v0C13.8,17,13.6,17.3,13.6,17.6L13.6,17.6h0.9c0-0.3-0.2-0.6-0.4-0.6l0,0v0
								c0.2,0,0.4,0.4,0.4,0.6l0,0L13.6,17.6L13.6,17.6z"/>
						</g>
						<g>
							<path class="st2" d="M14,17.1c0,0,0.2,0.1,0.2,0.5c-0.2,0-0.2,0-0.5,0C13.8,17.2,14,17.1,14,17.1z"/>
							<path d="M13.7,17.6c0-0.4,0.2-0.5,0.2-0.5l0,0l0,0l0,0c0,0,0.3,0.1,0.2,0.5l0,0C14,17.6,14,17.6,13.7,17.6L13.7,17.6z
								 M13.8,17.6c0.2,0,0.2,0,0.5,0l0,0c0-0.3-0.2-0.4-0.2-0.4l0,0C14,17.2,13.8,17.3,13.8,17.6L13.8,17.6z"/>
						</g>
					</g>
					<g>
						<path class="st2" d="M13.2,16.6h1.7c0,0,0.1,0,0.1,0.1l0,0c0,0,0,0.1-0.1,0.1h-1.7C13.1,16.8,13.1,16.7,13.2,16.6L13.2,16.6
							C13.1,16.7,13.1,16.6,13.2,16.6z"/>
						<path d="M13.2,16.8C13.1,16.8,13.1,16.8,13.2,16.8L13.2,16.8c-0.1-0.1,0-0.2,0-0.2l0,0v0v0C13.1,16.6,13.1,16.7,13.2,16.8
							L13.2,16.8C13.1,16.7,13.1,16.8,13.2,16.8L13.2,16.8l1.7,0c0,0,0,0,0-0.1l0,0c0,0,0-0.1,0-0.1l0,0h-1.7v0v0h1.7
							c0,0,0.1,0,0.1,0.1l0,0c0,0.1,0,0.1-0.1,0.1l0,0H13.2L13.2,16.8z"/>
					</g>
					<g>
						<path class="st2" d="M13.1,17.6h1.8c0,0,0.1,0,0.1,0.1l0,0c0,0,0,0.1-0.1,0.1h-1.8C13.1,17.7,13,17.7,13.1,17.6L13.1,17.6
							C13,17.6,13.1,17.6,13.1,17.6z"/>
						<path d="M13.1,17.8C13.1,17.8,13,17.7,13.1,17.8L13.1,17.8c-0.1-0.1,0-0.2,0-0.2l0,0v0v0C13.1,17.6,13.1,17.6,13.1,17.8
							L13.1,17.8C13.1,17.7,13.1,17.7,13.1,17.8L13.1,17.8l1.8,0c0,0,0.1,0,0.1-0.1l0,0c0,0,0-0.1-0.1-0.1l0,0h-1.8v0v0h1.8
							c0,0,0.1,0,0.1,0.1l0,0c0,0.1,0,0.1-0.1,0.1l0,0H13.1L13.1,17.8z"/>
					</g>
					<g>
						<path class="st2" d="M13.2,16.8h1.6c0,0,0.1,0,0.1,0.1l0,0c0,0,0,0.1-0.1,0.1h-1.6C13.2,16.9,13.1,16.9,13.2,16.8L13.2,16.8
							C13.1,16.8,13.2,16.8,13.2,16.8z"/>
						<path d="M13.2,16.9C13.1,16.9,13.1,16.9,13.2,16.9L13.2,16.9c-0.1-0.1,0-0.2,0-0.2l0,0v0v0C13.2,16.8,13.1,16.8,13.2,16.9
							L13.2,16.9C13.1,16.9,13.2,16.9,13.2,16.9L13.2,16.9l1.6,0c0,0,0,0,0-0.1l0,0c0,0,0-0.1,0-0.1l0,0h-1.6v0v0h1.6
							c0,0,0.1,0,0.1,0.1l0,0c0,0,0,0.1-0.1,0.1l0,0H13.2L13.2,16.9z"/>
					</g>
					<g>
						<g>
							<polygon class="st2" points="14.2,15.9 14.2,16.6 13.8,16.6 13.8,15.9 							"/>
							<path d="M13.8,16.6l0-0.7l0.4,0v0l0,0l0,0.7L13.8,16.6L13.8,16.6z M13.8,16.6l0.4,0l0-0.7l-0.4,0L13.8,16.6L13.8,16.6z"/>
						</g>
						<g>
							<path class="st2" d="M13.7,15.7h0.1v0.1h0.1v-0.1h0.1v0.1h0.1v-0.1h0.1v0.2c0,0,0,0.1-0.1,0.1h-0.5c0,0-0.1,0-0.1-0.1V15.7
								L13.7,15.7z"/>
							<path d="M13.8,16C13.7,16,13.7,15.9,13.8,16L13.8,16l-0.1-0.3h0v0l0.1,0l0,0.1l0.1,0l0-0.1l0.1,0l0,0.1l0.1,0l0-0.1l0.1,0
								v0.2c0,0,0,0.1-0.1,0.1l0,0H13.8L13.8,16z M13.7,15.9C13.7,15.9,13.8,15.9,13.7,15.9L13.7,15.9l0.5,0c0,0,0,0,0,0l0,0l0-0.2
								l-0.1,0l0,0.1l-0.1,0l0-0.1l-0.1,0l0,0.1l-0.1,0l0-0.1h-0.1V15.9L13.7,15.9z"/>
						</g>
						<g>
							<path d="M14,16.2C14,16.2,14.1,16.2,14,16.2l0.1,0.2H14V16.2z"/>
						</g>
						<g>
							<path class="st2" d="M14.3,16h0.1v0.1h0.1V16h0.1v0.1h0.1V16h0.1v0.2c0,0,0,0.1-0.1,0.1h-0.5c0,0-0.1,0-0.1-0.1V16L14.3,16z"
								/>
							<path d="M14.3,16.3C14.3,16.3,14.3,16.3,14.3,16.3L14.3,16.3L14.3,16h0v0l0.1,0l0,0.1l0.1,0l0-0.1l0.1,0l0,0.1l0.1,0l0-0.1
								l0.1,0v0.2c0,0,0,0.1-0.1,0.1l0,0H14.3L14.3,16.3z M14.3,16.2C14.3,16.2,14.3,16.2,14.3,16.2L14.3,16.2l0.5,0c0,0,0,0,0,0
								l0,0l0-0.2l-0.1,0l0,0.1l-0.1,0l0-0.1l-0.1,0l0,0.1l-0.1,0l0-0.1h-0.1V16.2L14.3,16.2z"/>
						</g>
						<g>
							<polygon class="st2" points="14.8,16.3 14.8,16.6 14.3,16.6 14.4,16.3 							"/>
							<path d="M14.3,16.6l0-0.4h0.4v0l0,0l0,0.4L14.3,16.6L14.3,16.6z M14.3,16.6l0.4,0l0-0.4l-0.4,0L14.3,16.6L14.3,16.6z"/>
						</g>
						<g>
							<path class="st2" d="M13.2,16h0.1v0.1h0.1V16l0.1,0v0.1h0.1V16h0.1v0.2c0,0,0,0.1-0.1,0.1h-0.5c0,0-0.1,0-0.1-0.1V16L13.2,16
								z"/>
							<path d="M13.2,16.3C13.2,16.3,13.2,16.3,13.2,16.3L13.2,16.3L13.2,16h0v0l0.1,0l0,0.1l0.1,0l0-0.1l0.1,0l0,0.1l0.1,0l0-0.1
								l0.1,0v0.2c0,0,0,0.1-0.1,0.1l0,0H13.2L13.2,16.3z M13.2,16.2C13.2,16.2,13.2,16.2,13.2,16.2L13.2,16.2l0.5,0c0,0,0,0,0,0
								l0,0l0-0.2l-0.1,0l0,0.1l-0.1,0l0-0.1l-0.1,0l0,0.1l-0.1,0l0-0.1h-0.1V16.2L13.2,16.2z"/>
						</g>
						<g>
							<polygon class="st2" points="13.7,16.3 13.7,16.6 13.2,16.6 13.3,16.3 							"/>
							<path d="M13.2,16.6l0-0.4h0.4v0h0l0,0.4L13.2,16.6L13.2,16.6z M13.2,16.6l0.4,0l0-0.4l-0.4,0L13.2,16.6L13.2,16.6z
								 M13.6,16.3L13.6,16.3L13.6,16.3L13.6,16.3z"/>
						</g>
						<g>
							<path d="M14.5,16.4C14.5,16.4,14.6,16.4,14.5,16.4l0.1,0.1h-0.1V16.4z"/>
						</g>
						<g>
							<path d="M13.4,16.4C13.4,16.4,13.5,16.4,13.4,16.4l0.1,0.1h-0.1V16.4z"/>
						</g>
					</g>
				</g>
				<g>
					<g>
						<polygon class="st2" points="15.2,27.7 16.4,26.5 15.9,26.1 14.7,27.2 						"/>
						<path d="M15.2,27.7L15.2,27.7L15.2,27.7l-0.4-0.5l1.1-1.1l0.5,0.4L15.2,27.7L15.2,27.7z M16.4,26.5l-0.5-0.4l-1.1,1.1l0.4,0.5
							L16.4,26.5L16.4,26.5z"/>
					</g>
					<g>
						<g>
							<path class="st2" d="M15.3,26.7c0.2-0.2,0.6-0.1,0.7,0.1l-0.6,0.6C15.3,27.2,15.2,26.8,15.3,26.7z"/>
							<path d="M15.5,27.4c-0.2-0.2-0.3-0.6-0.1-0.8l0,0l0,0C15.2,26.8,15.3,27.2,15.5,27.4L15.5,27.4l0.6-0.6
								c-0.2-0.2-0.6-0.3-0.7-0.1l0,0l0,0c0.2-0.2,0.6-0.1,0.8,0.1l0,0L15.5,27.4L15.5,27.4z"/>
						</g>
						<g>
							<path class="st2" d="M15.4,26.8c0,0,0.3-0.1,0.5,0.2c-0.2,0.2-0.2,0.2-0.3,0.3C15.4,27,15.4,26.8,15.4,26.8z"/>
							<path d="M15.6,27.3c-0.3-0.2-0.2-0.5-0.2-0.5l0,0l0,0l0,0c0,0,0.3-0.1,0.5,0.2l0,0C15.8,27.1,15.8,27.1,15.6,27.3L15.6,27.3z
								 M15.6,27.3c0.2-0.2,0.2-0.2,0.3-0.3l0,0c-0.2-0.2-0.4-0.2-0.5-0.2l0,0C15.4,26.8,15.4,27.1,15.6,27.3L15.6,27.3z"/>
						</g>
					</g>
					<g>
						<path class="st2" d="M14.5,27l1.2-1.2c0,0,0.1,0,0.1,0l0,0c0,0,0,0.1,0,0.1l-1.2,1.2C14.6,27.2,14.5,27.2,14.5,27L14.5,27
							C14.5,27.1,14.5,27.1,14.5,27z"/>
						<path d="M14.6,27.2c0,0-0.1,0-0.1,0l0,0c0,0,0-0.1,0-0.1l0,0l0,0l0,0C14.5,27.1,14.5,27.1,14.6,27.2L14.6,27.2
							C14.5,27.1,14.6,27.1,14.6,27.2L14.6,27.2l1.2-1.2c0,0,0-0.1,0-0.1l0,0c0,0-0.1,0-0.1,0l0,0L14.5,27l0,0l0,0l1.2-1.2
							c0,0,0.1,0,0.1,0l0,0c0,0,0,0.1,0,0.1l0,0L14.6,27.2L14.6,27.2z"/>
					</g>
					<g>
						<path class="st2" d="M15.1,27.7l1.3-1.3c0,0,0.1,0,0.1,0l0,0c0,0,0,0.1,0,0.1l-1.3,1.3c0,0-0.1,0-0.1,0l0,0
							C15.1,27.8,15.1,27.8,15.1,27.7z"/>
						<path d="M15.3,27.9c0,0-0.1,0-0.1,0l0,0c0,0,0-0.1,0-0.1l0,0l0,0l0,0c0,0,0,0.1,0,0.1l0,0C15.2,27.9,15.2,27.9,15.3,27.9
							L15.3,27.9l1.2-1.3c0,0,0-0.1,0-0.1l0,0c0,0-0.1,0-0.1,0l0,0l-1.3,1.3l0,0l0,0l1.3-1.3c0,0,0.1,0,0.1,0l0,0c0,0,0,0.1,0,0.1
							l0,0L15.3,27.9L15.3,27.9z"/>
					</g>
					<g>
						<path class="st2" d="M14.6,27.1l1.2-1.2c0,0,0.1,0,0.1,0l0,0c0,0,0,0.1,0,0.1l-1.2,1.2C14.7,27.2,14.7,27.2,14.6,27.1
							L14.6,27.1C14.6,27.2,14.6,27.1,14.6,27.1z"/>
						<path d="M14.7,27.2c0,0-0.1,0-0.1,0l0,0c0,0,0-0.1,0-0.1l0,0l0,0l0,0C14.6,27.1,14.6,27.2,14.7,27.2L14.7,27.2
							C14.7,27.2,14.7,27.2,14.7,27.2L14.7,27.2l1.1-1.2c0,0,0,0,0-0.1l0,0c0,0-0.1,0-0.1,0l0,0l-1.2,1.2l0,0l0,0l1.2-1.2
							c0,0,0.1,0,0.1,0l0,0c0,0,0,0.1,0,0.1l0,0L14.7,27.2L14.7,27.2z"/>
					</g>
					<g>
						<g>
							<polygon class="st2" points="14.7,25.8 15.3,26.3 14.9,26.6 14.5,26.1 							"/>
							<path d="M14.9,26.6l-0.5-0.5l0.3-0.3l0,0l0,0l0.5,0.5L14.9,26.6L14.9,26.6z M14.9,26.6l0.3-0.3l-0.5-0.5l-0.3,0.2L14.9,26.6
								L14.9,26.6z"/>
						</g>
						<g>
							<path class="st2" d="M14.2,25.9L14.2,25.9l0.2,0l0.1-0.1l-0.1-0.1l0.1-0.1l0.1,0.1l0.1-0.1l-0.1-0.1l0.1-0.1l0.1,0.1
								c0,0,0,0.1,0,0.1l-0.3,0.3c0,0-0.1,0-0.1,0L14.2,25.9L14.2,25.9z"/>
							<path d="M14.5,26.1c0,0-0.1,0-0.1,0l0,0L14.2,26l0,0l0,0l0.1-0.1l0,0.1l0.1,0l-0.1-0.1l0.1-0.1l0,0.1l0.1,0l-0.1-0.1l0.1-0.1
								l0.1,0.1c0,0,0,0.1,0,0.1l0,0L14.5,26.1L14.5,26.1z M14.4,26.1C14.4,26.1,14.4,26.1,14.4,26.1L14.4,26.1l0.4-0.3
								c0,0,0,0,0-0.1l0,0l-0.1-0.1l-0.1,0.1l0.1,0.1l-0.1,0.1l0-0.1l-0.1,0.1l0.1,0.1l-0.1,0.1l0-0.1l-0.1,0.1L14.4,26.1L14.4,26.1
								z"/>
						</g>
						<g>
							<path d="M14.8,26.2C14.7,26.1,14.8,26.1,14.8,26.2l0.2,0l-0.1,0.1L14.8,26.2z"/>
						</g>
						<g>
							<path class="st2" d="M14.8,25.8L14.8,25.8l0.2,0l0.1-0.1L15,25.6l0.1-0.1l0.1,0.1l0.1-0.1l-0.1-0.1l0.1-0.1l0.2,0.2
								c0,0,0,0.1,0,0.1l-0.3,0.3c0,0-0.1,0-0.1,0L14.8,25.8L14.8,25.8z"/>
							<path d="M15.1,25.9c0,0-0.1,0-0.1,0l0,0l-0.1-0.1l0,0l0,0l0.1-0.1l0,0.1l0.1,0L15,25.6l0.1-0.1l0,0.1l0.1,0l-0.1-0.1l0.1-0.1
								l0.1,0.1c0,0,0,0.1,0,0.1l0,0L15.1,25.9L15.1,25.9z M15,25.9C15,25.9,15,25.9,15,25.9L15,25.9l0.4-0.3c0,0,0,0,0-0.1l0,0
								l-0.1-0.2l-0.1,0.1l0.1,0.1l-0.1,0.1l0-0.1L15,25.6l0.1,0.1L15,25.8l0-0.1l-0.1,0.1L15,25.9L15,25.9z"/>
						</g>
						<g>
							<polygon class="st2" points="15.4,25.6 15.6,25.9 15.3,26.2 15.1,25.9 							"/>
							<path d="M15.3,26.2l-0.3-0.3l0.3-0.3l0,0l0,0l0.3,0.3L15.3,26.2L15.3,26.2z M15.3,26.2l0.3-0.3l-0.3-0.2l-0.3,0.3L15.3,26.2
								L15.3,26.2z"/>
						</g>
						<g>
							<path class="st2" d="M14.1,26.6L14.1,26.6l0.2,0l0.1-0.1l-0.1-0.1l0.1-0.1l0.1,0.1l0.1-0.1l-0.1-0.1l0.1-0.1l0.2,0.2
								c0,0,0,0.1,0,0.1l-0.3,0.3c0,0-0.1,0-0.1,0L14.1,26.6L14.1,26.6z"/>
							<path d="M14.3,26.7c0,0-0.1,0-0.1,0l0,0L14,26.6l0,0l0,0l0.1-0.1l0,0.1l0.1,0l-0.1-0.1l0.1-0.1l0,0.1l0.1,0l-0.1-0.1l0.1-0.1
								l0.1,0.2c0,0,0,0.1,0,0.1l0,0L14.3,26.7L14.3,26.7z M14.2,26.7C14.2,26.7,14.3,26.7,14.2,26.7L14.2,26.7l0.4-0.3
								c0,0,0,0,0-0.1l0,0l-0.1-0.2l-0.1,0.1l0.1,0.1l-0.1,0.1l0-0.1l-0.1,0.1l0.1,0.1l-0.1,0.1l0-0.1l-0.1,0.1L14.2,26.7L14.2,26.7
								z"/>
						</g>
						<g>
							<polygon class="st2" points="14.6,26.4 14.9,26.7 14.5,27 14.3,26.7 							"/>
							<path d="M14.5,27l-0.2-0.3l0.3-0.3l0,0l0,0l0.3,0.3L14.5,27L14.5,27z M14.5,27l0.3-0.3l-0.3-0.2l-0.3,0.3L14.5,27L14.5,27z
								 M14.6,26.4L14.6,26.4L14.6,26.4L14.6,26.4z"/>
						</g>
						<g>
							<path d="M15.3,25.9C15.3,25.9,15.3,25.8,15.3,25.9l0.1,0L15.3,25.9L15.3,25.9z"/>
						</g>
						<g>
							<path d="M14.5,26.7C14.5,26.7,14.5,26.6,14.5,26.7l0.1,0L14.5,26.7L14.5,26.7z"/>
						</g>
					</g>
				</g>
				<g>
					<g>
						<polygon class="st2" points="21.2,26.5 22.4,27.7 22.8,27.2 21.7,26.1 						"/>
						<path d="M21.2,26.5L21.2,26.5L21.2,26.5l0.5-0.4l1.1,1.1l-0.4,0.5L21.2,26.5L21.2,26.5z M22.4,27.7l0.4-0.5l-1.1-1.1l-0.5,0.4
							L22.4,27.7L22.4,27.7z"/>
					</g>
					<g>
						<g>
							<path class="st2" d="M22.2,26.7c0.2,0.2,0.1,0.6-0.1,0.7l-0.6-0.6C21.7,26.6,22.1,26.5,22.2,26.7z"/>
							<path d="M21.5,26.8c0.2-0.2,0.6-0.3,0.8-0.1l0,0l0,0C22.1,26.5,21.7,26.6,21.5,26.8L21.5,26.8l0.6,0.6
								c0.2-0.2,0.3-0.6,0.1-0.7l0,0l0,0c0.2,0.2,0.1,0.6-0.1,0.8l0,0L21.5,26.8L21.5,26.8z"/>
						</g>
						<g>
							<path class="st2" d="M22.1,26.8c0,0,0.1,0.3-0.2,0.5c-0.2-0.2-0.2-0.2-0.3-0.3C21.9,26.7,22.1,26.8,22.1,26.8z"/>
							<path d="M21.6,26.9c0.2-0.3,0.5-0.2,0.5-0.2l0,0l0,0l0,0c0,0,0.1,0.3-0.2,0.5l0,0C21.8,27.1,21.8,27.1,21.6,26.9L21.6,26.9z
								 M21.6,26.9c0.2,0.2,0.2,0.2,0.3,0.3l0,0c0.2-0.2,0.2-0.4,0.2-0.5l0,0C22.1,26.8,21.9,26.7,21.6,26.9L21.6,26.9z"/>
						</g>
					</g>
					<g>
						<path class="st2" d="M21.9,25.8l1.2,1.2c0,0,0,0.1,0,0.1l0,0c0,0-0.1,0-0.1,0l-1.2-1.2C21.7,25.9,21.8,25.9,21.9,25.8
							L21.9,25.8C21.8,25.8,21.9,25.8,21.9,25.8z"/>
						<path d="M21.8,25.9c0,0,0-0.1,0-0.1l0,0c0,0,0.1,0,0.1,0l0,0l0,0l0,0C21.8,25.8,21.8,25.8,21.8,25.9L21.8,25.9
							C21.8,25.9,21.8,25.9,21.8,25.9L21.8,25.9l1.2,1.2c0,0,0.1,0,0.1,0l0,0c0,0,0-0.1,0-0.1l0,0l-1.2-1.2l0,0l0,0l1.2,1.2
							c0,0,0,0.1,0,0.1l0,0c0,0-0.1,0-0.1,0l0,0L21.8,25.9L21.8,25.9z"/>
					</g>
					<g>
						<path class="st2" d="M21.2,26.5l1.3,1.3c0,0,0,0.1,0,0.1l0,0c0,0-0.1,0-0.1,0l-1.3-1.3c0,0,0-0.1,0-0.1l0,0
							C21.1,26.5,21.1,26.4,21.2,26.5z"/>
						<path d="M21,26.6c0,0,0-0.1,0-0.1l0,0c0,0,0.1,0,0.1,0l0,0l0,0l0,0c0,0-0.1,0-0.1,0l0,0C21,26.5,21,26.6,21,26.6L21,26.6
							l1.3,1.2c0,0,0.1,0,0.1,0l0,0c0,0,0-0.1,0-0.1l0,0l-1.3-1.3l0,0l0,0l1.3,1.3c0,0,0,0.1,0,0.1l0,0c0,0-0.1,0-0.1,0l0,0L21,26.6
							L21,26.6z"/>
					</g>
					<g>
						<path class="st2" d="M21.8,26l1.2,1.2c0,0,0,0.1,0,0.1l0,0c0,0-0.1,0-0.1,0l-1.2-1.2C21.7,26,21.7,26,21.8,26L21.8,26
							C21.7,25.9,21.8,25.9,21.8,26z"/>
						<path d="M21.7,26.1c0,0,0-0.1,0-0.1l0,0c0,0,0.1,0,0.1,0l0,0l0,0l0,0C21.8,26,21.7,26,21.7,26.1L21.7,26.1
							C21.7,26,21.7,26,21.7,26.1L21.7,26.1l1.2,1.1c0,0,0,0,0.1,0l0,0c0,0,0-0.1,0-0.1l0,0L21.8,26l0,0l0,0l1.2,1.2
							c0,0,0,0.1,0,0.1l0,0c0,0-0.1,0-0.1,0l0,0L21.7,26.1L21.7,26.1z"/>
					</g>
					<g>
						<g>
							<polygon class="st2" points="23.1,26.1 22.6,26.6 22.3,26.3 22.8,25.8 							"/>
							<path d="M22.3,26.3l0.5-0.5l0.3,0.3l0,0l0,0l-0.5,0.5L22.3,26.3L22.3,26.3z M22.3,26.3l0.3,0.3l0.5-0.5l-0.2-0.3L22.3,26.3
								L22.3,26.3z"/>
						</g>
						<g>
							<path class="st2" d="M23,25.6L23,25.6l0,0.2l0.1,0.1l0.1-0.1l0.1,0.1l-0.1,0.1l0.1,0.1l0.1-0.1l0.1,0.1l-0.1,0.1
								c0,0-0.1,0-0.1,0l-0.3-0.3c0,0,0-0.1,0-0.1L23,25.6L23,25.6z"/>
							<path d="M22.8,25.8c0,0,0-0.1,0-0.1l0,0l0.1-0.1l0,0l0,0l0.1,0.1l-0.1,0l0,0.1l0.1-0.1l0.1,0.1l-0.1,0l0,0.1l0.1-0.1l0.1,0.1
								l-0.1,0.1c0,0-0.1,0-0.1,0l0,0L22.8,25.8L22.8,25.8z M22.8,25.7C22.8,25.7,22.8,25.8,22.8,25.7L22.8,25.7l0.3,0.4
								c0,0,0,0,0.1,0l0,0l0.1-0.1l-0.1-0.1l-0.1,0.1l-0.1-0.1l0.1,0l-0.1-0.1L23,25.8L23,25.7l0.1,0L23,25.6L22.8,25.7L22.8,25.7z"
								/>
						</g>
						<g>
							<path d="M22.7,26.1C22.8,26.1,22.9,26.1,22.7,26.1l0,0.2l-0.1-0.1L22.7,26.1z"/>
						</g>
						<g>
							<path class="st2" d="M23.1,26.2L23.1,26.2l0,0.2l0.1,0.1l0.1-0.1l0.1,0.1l-0.1,0.1l0.1,0.1l0.1-0.1l0.1,0.1l-0.2,0.1
								c0,0-0.1,0-0.1,0L23,26.4c0,0,0-0.1,0-0.1L23.1,26.2L23.1,26.2z"/>
							<path d="M23,26.4c0,0,0-0.1,0-0.1l0,0l0.1-0.1l0,0l0,0l0.1,0.1l-0.1,0l0,0.1l0.1-0.1l0.1,0.1l-0.1,0l0,0.1l0.1-0.1l0.1,0.1
								l-0.2,0.1c0,0-0.1,0-0.1,0l0,0L23,26.4L23,26.4z M23,26.3C23,26.4,23,26.4,23,26.3L23,26.3l0.3,0.4c0,0,0,0,0.1,0l0,0
								l0.2-0.1l-0.1-0.1l-0.1,0.1l-0.1-0.1l0.1,0l-0.1-0.1l-0.1,0.1l-0.1-0.1l0.1,0l-0.1-0.1L23,26.3L23,26.3z"/>
						</g>
						<g>
							<polygon class="st2" points="23.3,26.7 23,27 22.7,26.7 23,26.4 							"/>
							<path d="M22.7,26.7l0.3-0.2l0.3,0.3l0,0l0,0L23,27L22.7,26.7L22.7,26.7z M22.7,26.7L23,27l0.2-0.3L23,26.4L22.7,26.7
								L22.7,26.7z"/>
						</g>
						<g>
							<path class="st2" d="M22.3,25.4L22.3,25.4l0,0.2l0.1,0.1l0.1-0.1l0.1,0.1l-0.1,0.1l0.1,0.1l0.1-0.1l0.1,0.1l-0.2,0.1
								c0,0-0.1,0-0.1,0l-0.3-0.3c0,0,0-0.1,0-0.1L22.3,25.4L22.3,25.4z"/>
							<path d="M22.2,25.6c0,0,0-0.1,0-0.1l0,0l0.1-0.1l0,0l0,0l0.1,0.1l-0.1,0l0,0.1l0.1-0.1l0.1,0.1l-0.1,0l0,0.1l0.1-0.1l0.1,0.1
								L22.6,26c0,0-0.1,0-0.1,0l0,0L22.2,25.6L22.2,25.6z M22.2,25.6C22.2,25.6,22.2,25.6,22.2,25.6L22.2,25.6l0.3,0.4
								c0,0,0,0,0.1,0l0,0l0.2-0.1l-0.1-0.1l-0.1,0.1l-0.1-0.1l0.1,0l-0.1-0.1l-0.1,0.1l-0.1-0.1l0.1,0l-0.1-0.1L22.2,25.6
								L22.2,25.6z"/>
						</g>
						<g>
							<polygon class="st2" points="22.5,25.9 22.2,26.2 21.9,25.9 22.2,25.6 							"/>
							<path d="M21.9,25.9l0.3-0.3l0.3,0.3l0,0l0,0l-0.3,0.3L21.9,25.9L21.9,25.9z M22,25.9l0.3,0.3l0.2-0.3l-0.3-0.3L22,25.9
								L22,25.9z M22.5,25.9L22.5,25.9L22.5,25.9L22.5,25.9z"/>
						</g>
						<g>
							<path d="M23,26.6C23,26.6,23.1,26.7,23,26.6l0,0.1L23,26.6L23,26.6z"/>
						</g>
						<g>
							<path d="M22.2,25.9C22.3,25.8,22.3,25.9,22.2,25.9l0,0.1L22.2,25.9L22.2,25.9z"/>
						</g>
					</g>
				</g>
			</g>
		</g>
	</g>
</g>
</svg>
