<?xml version="1.0" encoding="utf-8"?>
<!-- Generator: Adobe Illustrator 22.1.0, SVG Export Plug-In . SVG Version: 6.00 Build 0)  -->
<svg version="1.1" id="Layer_1" xmlns="http://www.w3.org/2000/svg" xmlns:xlink="http://www.w3.org/1999/xlink" x="0px" y="0px"
	 viewBox="0 0 45 45" style="enable-background:new 0 0 45 45;" xml:space="preserve">
<style type="text/css">
	.st0{fill:#872D00;}
	.st1{fill:#FFFFFF;}
	.st2{fill:#ED0000;}
	.st3{fill:#0050F0;}
</style>
<g>
	<g>
		<g>
			<path class="st0" d="M30.9,0H14.1c-0.4,0-0.9,0-1.3,0h19.4C31.8,0,31.4,0,30.9,0z"/>
			<path class="st1" d="M4.5,36h40.4c0.1-1.4,0.1-3.1,0.1-5.1V27H16.3L4.5,36z"/>
			<path class="st2" d="M44.9,36H4.5l-3.8,2.9c0.4,1.2,1.1,2.2,2.1,3.3C5.6,45,8.4,45,14.1,45h16.9c5.6,0,8.4,0,11.2-2.8
				C44,40.4,44.6,38.6,44.9,36z"/>
			<polygon class="st2" points="22.1,22.5 16.3,27 45,27 45,18 16.3,18 			"/>
			<path class="st2" d="M0.7,6.1L4.5,9h40.4c-0.2-2.6-0.9-4.4-2.7-6.2C39.6,0.2,37,0,32.2,0H12.8C8,0,5.4,0.2,2.8,2.8
				C1.8,3.9,1.1,4.9,0.7,6.1z"/>
			<path class="st1" d="M16.3,18H45v-3.9c0-2,0-3.6-0.1-5.1H4.5L16.3,18z"/>
			<path class="st3" d="M16.3,18L4.5,9L0.7,6.1C0.4,7,0.2,7.9,0.1,9C0,10.4,0,12.1,0,14.1V18v9v3.9c0,2,0,3.6,0.1,5.1
				c0.1,1.1,0.3,2,0.6,2.9L4.5,36l11.8-9l5.9-4.5L16.3,18z"/>
		</g>
		<polygon class="st1" points="7.5,18.5 8.5,21.6 11.7,21.6 9.1,23.4 10.1,26.5 7.5,24.6 4.9,26.5 5.9,23.4 3.3,21.6 6.5,21.6 		"/>
	</g>
</g>
</svg>
