<?xml version="1.0" encoding="utf-8"?>
<!-- Generator: Adobe Illustrator 22.1.0, SVG Export Plug-In . SVG Version: 6.00 Build 0)  -->
<svg version="1.1" id="Layer_1" xmlns="http://www.w3.org/2000/svg" xmlns:xlink="http://www.w3.org/1999/xlink" x="0px" y="0px"
	 viewBox="0 0 45 45" style="enable-background:new 0 0 45 45;" xml:space="preserve">
<style type="text/css">
	.st0{fill:#D21034;}
	.st1{fill:#003580;}
	.st2{fill:#FFFFFF;}
</style>
<g>
	<g>
		<g>
			<g>
				<path class="st0" d="M45,30.9c0,5.6,0,8.4-2.8,11.3S36.6,45,30.9,45H14.1c-5.6,0-8.4,0-11.3-2.8S0,36.6,0,30.9V14.1
					C0,8.4,0,5.6,2.8,2.8S8.4,0,14.1,0h16.9c5.6,0,8.4,0,11.3,2.8S45,8.4,45,14.1V30.9z"/>
			</g>
			<path class="st1" d="M22.5,0h-8.4C8.4,0,5.6,0,2.8,2.8S0,8.4,0,14.1v8.4h22.5V0z"/>
		</g>
		<g>
			<polygon class="st2" points="9.4,4.8 10.8,4.8 11.2,3.4 11.7,4.8 13,4.8 11.9,5.6 12.4,6.9 11.2,6.1 10.1,6.9 10.5,5.6 			"/>
			<g>
				<polygon class="st2" points="365.7,696.9 383,696.9 388.3,680.4 393.7,696.9 410.9,696.9 396.9,707 402.3,723.5 388.3,713.3 
					374.3,723.5 379.7,707 				"/>
			</g>
			<g>
				<polygon class="st2" points="500.3,686.4 515.7,686.4 520.5,671.8 525.2,686.4 540.6,686.4 528.2,695.4 532.9,710.1 520.5,701 
					508,710.1 512.7,695.4 				"/>
			</g>
			<g>
				<polygon class="st2" points="423.5,787.2 445.9,787.2 452.9,765.8 459.9,787.2 482.3,787.2 464.1,800.5 471.1,821.8 
					452.9,808.6 434.8,821.8 441.7,800.5 				"/>
			</g>
			<polygon class="st2" points="13.8,11.4 14.1,12.2 14.9,12.2 14.2,12.7 14.5,13.4 13.8,13 13.2,13.4 13.4,12.7 12.8,12.2 
				13.6,12.2 			"/>
		</g>
	</g>
</g>
</svg>
