<?xml version="1.0" encoding="utf-8"?>
<!-- Generator: Adobe Illustrator 22.1.0, SVG Export Plug-In . SVG Version: 6.00 Build 0)  -->
<svg version="1.1" id="Layer_1" xmlns="http://www.w3.org/2000/svg" xmlns:xlink="http://www.w3.org/1999/xlink" x="0px" y="0px"
	 viewBox="0 0 45 45" style="enable-background:new 0 0 45 45;" xml:space="preserve">
<style type="text/css">
	.st0{fill:#003F87;}
	.st1{fill:#FCD856;}
	.st2{fill:#D62828;}
	.st3{fill:#FFFFFF;}
	.st4{fill:#007A3D;}
</style>
<g>
	<g>
		<path class="st0" d="M0,14.1v16.9c0,0.6,0,1.1,0,1.6L16.3,0h-2.2C8.4,0,5.6,0,2.8,2.8S0,8.4,0,14.1z"/>
		<path class="st1" d="M0.5,38.3L38.3,0.5C36.4,0,34.1,0,30.9,0H16.3L0,32.5C0,34.9,0.1,36.7,0.5,38.3z"/>
		<path class="st2" d="M2,41.3l43-19.1v-8.2c0-5.6,0-8.4-2.8-11.3c-1.2-1.2-2.5-1.9-3.9-2.3L0.5,38.3C0.8,39.4,1.3,40.4,2,41.3z"/>
		<path class="st3" d="M2.8,42.2c0.2,0.2,0.5,0.4,0.7,0.6L45,33.6c0-0.8,0-1.7,0-2.7v-8.7L2,41.3C2.3,41.6,2.5,41.9,2.8,42.2z"/>
		<path class="st4" d="M45,33.6L3.5,42.8C6.1,45,8.9,45,14.1,45h16.9c5.6,0,8.4,0,11.3-2.8C44.5,39.9,44.9,37.5,45,33.6z"/>
	</g>
</g>
</svg>
