<?xml version="1.0" encoding="utf-8"?>
<!-- Generator: Adobe Illustrator 22.1.0, SVG Export Plug-In . SVG Version: 6.00 Build 0)  -->
<svg version="1.1" id="Layer_1" xmlns="http://www.w3.org/2000/svg" xmlns:xlink="http://www.w3.org/1999/xlink" x="0px" y="0px"
	 viewBox="0 0 45 45" style="enable-background:new 0 0 45 45;" xml:space="preserve">
<style type="text/css">
	.st0{fill:#F42A41;}
	.st1{fill:#FFFFFF;}
</style>
<g>
	<g>
		<g>
			<path class="st0" d="M45,14.1c0-5.6,0-8.4-2.8-11.3S36.6,0,30.9,0H14.1C8.4,0,5.6,0,2.8,2.8S0,8.4,0,14.1v8.4h45V14.1z"/>
			<path class="st1" d="M0,22.5v8.4c0,5.6,0,8.4,2.8,11.3S8.4,45,14.1,45h16.9c5.6,0,8.4,0,11.3-2.8S45,36.6,45,30.9v-8.4H0z"/>
		</g>
		<g>
			<path class="st1" d="M6.9,11.3c0-2.7,1.6-5,3.8-6c-0.4-0.1-0.9-0.2-1.4-0.2c-3.4,0-6.2,2.8-6.2,6.2c0,3.4,2.8,6.2,6.2,6.2
				c0.5,0,0.9-0.1,1.4-0.2C8.5,16.2,6.9,13.9,6.9,11.3z"/>
			<g>
				<polygon class="st1" points="13.6,6.2 14,7.4 15.2,7.4 14.2,8 14.6,9.1 13.6,8.5 12.7,9.1 13,8 12.1,7.4 13.3,7.4 				"/>
				<polygon class="st1" points="17.1,8.8 17.4,9.9 18.6,9.9 17.7,10.6 18,11.7 17.1,11 16.1,11.7 16.5,10.6 15.5,9.9 16.7,9.9 				
					"/>
				<polygon class="st1" points="10.1,8.8 10.5,9.9 11.7,9.9 10.7,10.6 11.1,11.7 10.1,11 9.2,11.7 9.6,10.6 8.6,9.9 9.8,9.9 				
					"/>
				<polygon class="st1" points="15.8,12.9 16.1,14 17.3,14 16.3,14.7 16.7,15.8 15.8,15.1 14.8,15.8 15.2,14.7 14.2,14 15.4,14 
									"/>
				<polygon class="st1" points="11.5,12.9 11.8,14 13,14 12.1,14.7 12.4,15.8 11.5,15.1 10.5,15.8 10.9,14.7 10,14 11.1,14 				"/>
			</g>
		</g>
	</g>
</g>
</svg>
