<?xml version="1.0" encoding="utf-8"?>
<!-- Generator: Adobe Illustrator 22.1.0, SVG Export Plug-In . SVG Version: 6.00 Build 0)  -->
<svg version="1.1" id="Layer_1" xmlns="http://www.w3.org/2000/svg" xmlns:xlink="http://www.w3.org/1999/xlink" x="0px" y="0px"
	 viewBox="0 0 45 45" style="enable-background:new 0 0 45 45;" xml:space="preserve">
<style type="text/css">
	.st0{fill:#CE1126;}
	.st1{fill:#FFFFFF;}
</style>
<g>
	<g>
		<path class="st0" d="M-0.2,10c0,1,0,2,0,3.2v16.9c0,5.6,0,8.4,2.8,11.2s5.6,2.8,11.3,2.8h16.9c1.8,0,3.3,0,4.5-0.1L-0.2,10z"/>
		<path class="st0" d="M44.8,33.3c0-1,0-2,0-3.2V13.2c0-5.6,0-8.4-2.8-11.2s-5.6-2.8-11.3-2.8H13.9c-1.8,0-3.3,0-4.6,0.1L44.8,33.3z
			"/>
		<path d="M2.6,2C1.2,3.4,0.5,4.8,0.2,6.6l38.4,36.9c1.2-0.4,2.3-1.1,3.4-2.2c1.4-1.4,2.1-2.8,2.5-4.6L6-0.2C4.8,0.2,3.7,0.9,2.6,2z
			"/>
		<path class="st1" d="M6-0.2l38.5,36.9c0.2-1,0.3-2.1,0.3-3.4L9.3-0.8C8.1-0.7,7-0.5,6-0.2z"/>
		<path class="st1" d="M-0.2,10l35.5,34c1.3-0.1,2.3-0.3,3.3-0.6L0.2,6.6C0,7.6-0.1,8.7-0.2,10z"/>
	</g>
</g>
</svg>
