<?xml version="1.0" encoding="utf-8"?>
<!-- Generator: Adobe Illustrator 22.1.0, SVG Export Plug-In . SVG Version: 6.00 Build 0)  -->
<svg version="1.1" id="Layer_1" xmlns="http://www.w3.org/2000/svg" xmlns:xlink="http://www.w3.org/1999/xlink" x="0px" y="0px"
	 viewBox="0 0 45 45" style="enable-background:new 0 0 45 45;" xml:space="preserve">
<style type="text/css">
	.st0{fill:#FFFFFF;}
	.st1{fill:#EE3424;}
	.st2{fill:#0055A4;}
	.st3{fill:#008A5F;}
	.st4{fill:#FDBB30;}
</style>
<g>
	<g>
		<path class="st0" d="M4.5,1.5C3.9,1.8,3.4,2.3,2.8,2.8C2.6,3.1,2.4,3.3,2.2,3.5L23.9,18H45v-3H24.8L4.5,1.5z"/>
		<path class="st0" d="M2.2,41.5c0.2,0.2,0.4,0.5,0.6,0.7c0.5,0.5,1.1,1,1.7,1.3L24.8,30H45v-3H23.9L2.2,41.5z"/>
		<path class="st1" d="M24.8,15H45v-0.9c0-5.6,0-8.4-2.8-11.3S36.6,0,30.9,0H14.1C9.5,0,6.8,0,4.5,1.5L24.8,15z"/>
		<path class="st2" d="M45,30.9V30H24.8L4.5,43.5C6.8,45,9.5,45,14.1,45h16.9c5.6,0,8.4,0,11.3-2.8S45,36.6,45,30.9z"/>
		<path class="st3" d="M2.2,3.5c-2,2.4-2.1,5-2.2,9.4l14.4,9.6L0,32.1c0,4.4,0.2,7,2.2,9.4L23.9,27H45v-9H23.9L2.2,3.5z"/>
		<path class="st4" d="M0,12.9c0,0.4,0,0.8,0,1.2v2.5l9,6l-9,6v2.5c0,0.4,0,0.8,0,1.2l14.4-9.6L0,12.9z"/>
		<polygon points="9,22.5 0,16.5 0,28.5 		"/>
	</g>
</g>
</svg>
