<?xml version="1.0" encoding="utf-8"?>
<!-- Generator: Adobe Illustrator 22.1.0, SVG Export Plug-In . SVG Version: 6.00 Build 0)  -->
<svg version="1.1" id="Layer_1" xmlns="http://www.w3.org/2000/svg" xmlns:xlink="http://www.w3.org/1999/xlink" x="0px" y="0px"
	 viewBox="0 0 45 45" style="enable-background:new 0 0 45 45;" xml:space="preserve">
<style type="text/css">
	.st0{fill:#FFFFFF;}
	.st1{fill:#CE1126;}
	.st2{fill:#003F87;}
</style>
<g>
	<g>
		<g>
			<path class="st0" d="M45,30.9c0,5.6,0,8.4-2.8,11.3C39.4,45,36.6,45,30.9,45H14.1c-5.6,0-8.4,0-11.3-2.8C0,39.4,0,36.6,0,30.9
				V14.1C0,8.4,0,5.6,2.8,2.8C5.6,0,8.4,0,14.1,0h16.9c5.6,0,8.4,0,11.3,2.8C45,5.6,45,8.4,45,14.1V30.9z"/>
		</g>
		<g>
			<g>
				<path class="st1" d="M30.7,21.8c0.4,4.5-2.9,8.5-7.5,8.9c-4.5,0.4-8.5-2.9-8.9-7.5c-0.4-4.5,2.9-8.5,7.5-8.9
					C26.3,13.9,30.3,17.2,30.7,21.8z"/>
				<path class="st2" d="M15.5,18.2c-1.2,1.9-0.6,4.5,1.4,5.6c1.9,1.2,4.5,0.6,5.6-1.4c1.2-1.9,3.7-2.6,5.6-1.4
					c1.9,1.2,2.6,3.7,1.4,5.6c-2.4,3.9-7.4,5.1-11.3,2.8C14.3,27.2,13.1,22.1,15.5,18.2z"/>
			</g>
			<g>
				<rect x="3.7" y="12.2" transform="matrix(0.5598 -0.8287 0.8287 0.5598 -7.1578 12.1379)" width="8.3" height="1.3"/>
				<rect x="5.4" y="13.3" transform="matrix(0.5613 -0.8276 0.8276 0.5613 -7.3532 13.9605)" width="8.3" height="1.3"/>
				<rect x="7" y="14.4" transform="matrix(0.5592 -0.829 0.829 0.5592 -7.5477 15.8554)" width="8.3" height="1.3"/>
			</g>
			<g>
				<g>
					<rect x="33.2" y="27.5" transform="matrix(0.5594 -0.8289 0.8289 0.5594 -7.8566 41.4938)" width="3.8" height="1.3"/>
					<rect x="30.7" y="31.2" transform="matrix(0.5571 -0.8304 0.8304 0.5571 -11.9704 41.1811)" width="3.8" height="1.3"/>
				</g>
				<g>
					<polygon points="35.1,30.5 36.2,31.2 38.4,28 37.3,27.3 					"/>
					<rect x="32.4" y="32.3" transform="matrix(0.5603 -0.8283 0.8283 0.5603 -12.2017 42.8638)" width="3.8" height="1.3"/>
				</g>
				<g>
					<rect x="36.5" y="29.7" transform="matrix(0.559 -0.8291 0.8291 0.559 -8.2409 45.2226)" width="3.8" height="1.3"/>
					<rect x="34" y="33.4" transform="matrix(0.5587 -0.8293 0.8293 0.5587 -12.3773 44.805)" width="3.8" height="1.3"/>
				</g>
			</g>
			<g>
				<rect x="34.9" y="9.8" transform="matrix(0.8298 -0.558 0.558 0.8298 -1.7218 22.1825)" width="1.3" height="8.3"/>
				<g>
					<rect x="35.3" y="9.1" transform="matrix(0.8282 -0.5605 0.5605 0.8282 2.473499e-02 22.0148)" width="1.3" height="3.8"/>
					<polygon points="38.9,16.6 40,15.9 37.9,12.7 36.8,13.4 					"/>
				</g>
				<g>
					<rect x="32" y="11.3" transform="matrix(0.8285 -0.5599 0.5599 0.8285 -1.7899 20.5291)" width="1.3" height="3.8"/>
					<rect x="34.5" y="15" transform="matrix(0.8283 -0.5603 0.5603 0.8283 -3.4211 22.5647)" width="1.3" height="3.8"/>
				</g>
			</g>
			<g>
				<rect x="10.5" y="25.8" transform="matrix(0.8302 -0.5575 0.5575 0.8302 -14.8196 11.2995)" width="1.3" height="8.3"/>
				<rect x="7.2" y="28.1" transform="matrix(0.8286 -0.5598 0.5598 0.8286 -16.6799 9.9097)" width="1.3" height="8.3"/>
				<g>
					<rect x="7.6" y="27.3" transform="matrix(0.8276 -0.5613 0.5613 0.8276 -14.9945 9.6735)" width="1.3" height="3.8"/>
					<rect x="10.1" y="31" transform="matrix(0.8298 -0.5581 0.5581 0.8298 -16.5466 11.5921)" width="1.3" height="3.8"/>
				</g>
			</g>
		</g>
	</g>
</g>
</svg>
