<?xml version="1.0" encoding="utf-8"?>
<!-- Generator: Adobe Illustrator 22.1.0, SVG Export Plug-In . SVG Version: 6.00 Build 0)  -->
<svg version="1.1" id="Layer_1" xmlns="http://www.w3.org/2000/svg" xmlns:xlink="http://www.w3.org/1999/xlink" x="0px" y="0px"
	 viewBox="0 0 45 45" style="enable-background:new 0 0 45 45;" xml:space="preserve">
<style type="text/css">
	.st0{fill:#005B99;}
	.st1{fill:#FCD116;}
</style>
<g>
	<g>
		<path class="st0" d="M45,18.6v-4.5c0-5.6,0-8.4-2.8-11.3C39.4,0,36.6,0,30.9,0H20.8v18.6H45z"/>
		<path class="st0" d="M0,14.1v4.5h12.9V0C8,0,5.4,0.2,2.8,2.8C0,5.6,0,8.4,0,14.1z"/>
		<path class="st0" d="M2.8,42.2C5.4,44.8,8,45,12.9,45V26.4H0v4.5C0,36.6,0,39.4,2.8,42.2z"/>
		<path class="st0" d="M45,30.9v-4.5H20.8V45h10.1c5.6,0,8.4,0,11.2-2.8C45,39.4,45,36.6,45,30.9z"/>
		<path class="st1" d="M14.1,0h-1.1v0C13.3,0,13.7,0,14.1,0z"/>
		<path class="st1" d="M45,26.4v-7.9H20.8V0h-6.7c-0.4,0-0.8,0-1.1,0v18.6H0v7.9h12.9V45c0.4,0,0.7,0,1.1,0h6.7V26.4H45z"/>
	</g>
</g>
</svg>
