<?xml version="1.0" encoding="utf-8"?>
<!-- Generator: Adobe Illustrator 22.1.0, SVG Export Plug-In . SVG Version: 6.00 Build 0)  -->
<svg version="1.1" id="Layer_1" xmlns="http://www.w3.org/2000/svg" xmlns:xlink="http://www.w3.org/1999/xlink" x="0px" y="0px"
	 viewBox="0 0 45 45" style="enable-background:new 0 0 45 45;" xml:space="preserve">
<style type="text/css">
	.st0{fill:#BD2925;}
	.st1{fill:#FFFFFF;}
</style>
<g>
	<g>
		<g>
			<path class="st0" d="M45,30.9c0,5.6,0,8.4-2.8,11.3S36.6,45,30.9,45H14.1c-5.6,0-8.4,0-11.3-2.8S0,36.6,0,30.9V14.1
				C0,8.4,0,5.6,2.8,2.8S8.4,0,14.1,0h16.9c5.6,0,8.4,0,11.3,2.8S45,8.4,45,14.1V30.9z"/>
		</g>
		<polygon class="st1" points="35.3,18.9 26.1,18.9 26.1,9.7 18.9,9.7 18.9,18.9 9.7,18.9 9.7,26.1 18.9,26.1 18.9,35.3 26.1,35.3 
			26.1,26.1 35.3,26.1 		"/>
	</g>
</g>
</svg>
