<?xml version="1.0" encoding="utf-8"?>
<!-- Generator: Adobe Illustrator 22.1.0, SVG Export Plug-In . SVG Version: 6.00 Build 0)  -->
<svg version="1.1" id="Layer_1" xmlns="http://www.w3.org/2000/svg" xmlns:xlink="http://www.w3.org/1999/xlink" x="0px" y="0px"
	 viewBox="0 0 45 45" style="enable-background:new 0 0 45 45;" xml:space="preserve">
<style type="text/css">
	.st0{fill:#FF0000;}
	.st1{fill:#000099;}
	.st2{fill:#FFFFFF;}
</style>
<g>
	<g>
		<g>
			<path class="st0" d="M45,30.9c0,5.6,0,8.4-2.8,11.3S36.6,45,30.9,45H14.1c-5.6,0-8.4,0-11.3-2.8S0,36.6,0,30.9V14.1
				C0,8.4,0,5.6,2.8,2.8S8.4,0,14.1,0h16.9c5.6,0,8.4,0,11.3,2.8S45,8.4,45,14.1V30.9z"/>
		</g>
		<path class="st1" d="M22.5,0h-8.4C8.4,0,5.6,0,2.8,2.8S0,8.4,0,14.1v8.4h22.5V0z"/>
		<g>
			<polygon class="st2" points="10.4,7.1 11.3,3.8 12.1,7.1 			"/>
			<polygon class="st2" points="8.4,8.1 7.5,4.8 9.9,7.2 			"/>
			<polygon class="st2" points="7.2,9.9 4.7,7.5 8.1,8.4 			"/>
			<polygon class="st2" points="7,12.1 3.7,11.3 7,10.4 			"/>
			<polygon class="st2" points="8.1,14.1 4.7,15 7.2,12.6 			"/>
			<polygon class="st2" points="9.9,15.3 7.5,17.7 8.4,14.4 			"/>
			<polygon class="st2" points="12.1,15.4 11.3,18.7 10.4,15.4 			"/>
			<polygon class="st2" points="14.1,14.4 15,17.7 12.6,15.3 			"/>
			<polygon class="st2" points="15.3,12.6 17.8,15 14.5,14.1 			"/>
			<polygon class="st2" points="15.5,10.4 18.8,11.3 15.5,12.1 			"/>
			<polygon class="st2" points="14.5,8.4 17.8,7.5 15.3,9.9 			"/>
			<polygon class="st2" points="12.6,7.2 15,4.8 14.1,8.1 			"/>
			<path class="st1" d="M15.6,11.3c0,2.4-2,4.3-4.4,4.3c-2.4,0-4.4-1.9-4.4-4.3c0-2.4,2-4.3,4.4-4.3C13.7,6.9,15.6,8.9,15.6,11.3z"
				/>
			<path class="st2" d="M15.1,11.3c0,2.1-1.7,3.8-3.9,3.8c-2.1,0-3.9-1.7-3.9-3.8c0-2.1,1.7-3.8,3.9-3.8
				C13.4,7.4,15.1,9.1,15.1,11.3z"/>
		</g>
	</g>
</g>
</svg>
