<?xml version="1.0" encoding="utf-8"?>
<!-- Generator: Adobe Illustrator 22.1.0, SVG Export Plug-In . SVG Version: 6.00 Build 0)  -->
<svg version="1.1" id="Layer_1" xmlns="http://www.w3.org/2000/svg" xmlns:xlink="http://www.w3.org/1999/xlink" x="0px" y="0px"
	 viewBox="0 0 45 45" style="enable-background:new 0 0 45 45;" xml:space="preserve">
<style type="text/css">
	.st0{fill:#FFFFFF;}
	.st1{fill:#DE1018;}
	.st2{fill:#00247D;}
</style>
<g>
	<g>
		<path class="st0" d="M45,14.1c0-2.8,0-4.8-0.3-6.6H0.3C0,9.2,0,11.3,0,14.1V15h45V14.1z"/>
		<path class="st1" d="M42.2,2.8C39.4,0,36.6,0,30.9,0H14.1C8.4,0,5.6,0,2.8,2.8C1.4,4.2,0.7,5.7,0.3,7.5h44.3
			C44.3,5.7,43.6,4.2,42.2,2.8z"/>
		<path class="st0" d="M0,30.9c0,2.8,0,4.8,0.3,6.6h44.3c0.3-1.7,0.3-3.8,0.3-6.6V30H0V30.9z"/>
		<path class="st1" d="M2.8,42.2C5.6,45,8.4,45,14.1,45h16.9c5.6,0,8.4,0,11.3-2.8c1.4-1.4,2.1-2.9,2.5-4.7H0.3
			C0.7,39.3,1.4,40.8,2.8,42.2z"/>
		<polygon class="st2" points="0,15 0,22.5 0,30 45,30 45,22.5 45,15 		"/>
	</g>
</g>
</svg>
