<?xml version="1.0" encoding="utf-8"?>
<!-- Generator: Adobe Illustrator 22.1.0, SVG Export Plug-In . SVG Version: 6.00 Build 0)  -->
<svg version="1.1" id="Layer_1" xmlns="http://www.w3.org/2000/svg" xmlns:xlink="http://www.w3.org/1999/xlink" x="0px" y="0px"
	 viewBox="0 0 45 45" style="enable-background:new 0 0 45 45;" xml:space="preserve">
<style type="text/css">
	.st0{fill:#CE1126;}
	.st1{fill:#FFFFFF;}
</style>
<g>
	<g>
		<path class="st0" d="M0,10.9c0,1,0,2,0,3.2v16.9c0,5.6,0,8.4,2.8,11.3S8.4,45,14.1,45h16.9c1.8,0,3.3,0,4.5-0.1L0,10.9z"/>
		<path class="st0" d="M45,34.1c0-1,0-2,0-3.2V14.1c0-5.6,0-8.4-2.8-11.3S36.6,0,30.9,0H14.1c-1.8,0-3.3,0-4.6,0.1L45,34.1z"/>
		<path d="M2.8,2.8C1.4,4.2,0.7,5.6,0.3,7.4l38.4,36.9c1.2-0.4,2.3-1.1,3.4-2.2c1.4-1.4,2.1-2.8,2.5-4.6L6.2,0.7
			C5,1.1,3.9,1.7,2.8,2.8z"/>
		<path class="st1" d="M6.2,0.7l38.5,36.9c0.2-1,0.3-2.1,0.3-3.4L9.5,0.1C8.2,0.2,7.2,0.3,6.2,0.7z"/>
		<path class="st1" d="M0,10.9l35.5,34c1.3-0.1,2.3-0.3,3.3-0.6L0.3,7.4C0.1,8.4,0.1,9.6,0,10.9z"/>
	</g>
</g>
</svg>
