<?xml version="1.0" encoding="utf-8"?>
<!-- Generator: Adobe Illustrator 22.1.0, SVG Export Plug-In . SVG Version: 6.00 Build 0)  -->
<svg version="1.1" id="Layer_1" xmlns="http://www.w3.org/2000/svg" xmlns:xlink="http://www.w3.org/1999/xlink" x="0px" y="0px"
	 viewBox="0 0 45 45" style="enable-background:new 0 0 45 45;" xml:space="preserve">
<style type="text/css">
	.st0{fill:#E30A17;}
	.st1{fill:#FFFFFF;}
</style>
<g>
	<g>
		<g>
			<path class="st0" d="M45,30.9c0,5.6,0,8.4-2.8,11.3C39.4,45,36.6,45,30.9,45H14.1c-5.6,0-8.4,0-11.3-2.8C0,39.4,0,36.6,0,30.9
				V14.1C0,8.4,0,5.6,2.8,2.8C5.6,0,8.4,0,14.1,0h16.9c5.6,0,8.4,0,11.3,2.8C45,5.6,45,8.4,45,14.1V30.9z"/>
		</g>
		<g>
			<path class="st1" d="M21.4,30.4c-4.4,0-7.9-3.6-7.9-7.9c0-4.4,3.6-7.9,7.9-7.9c2.2,0,4.2,0.9,5.6,2.3c-1.8-2.5-4.7-4.2-8.1-4.2
				c-5.4,0-9.8,4.4-9.8,9.8c0,5.4,4.4,9.8,9.8,9.8c3.3,0,6.3-1.7,8.1-4.2C25.6,29.6,23.6,30.4,21.4,30.4z"/>
			<polygon class="st1" points="30.9,18.3 32.8,20.9 35.9,20 33.9,22.6 35.8,25.2 32.7,24.2 30.8,26.7 30.8,23.5 27.8,22.4 
				30.9,21.5 			"/>
		</g>
	</g>
</g>
</svg>
