<?xml version="1.0" encoding="utf-8"?>
<!-- Generator: Adobe Illustrator 22.1.0, SVG Export Plug-In . SVG Version: 6.00 Build 0)  -->
<svg version="1.1" id="Layer_1" xmlns="http://www.w3.org/2000/svg" xmlns:xlink="http://www.w3.org/1999/xlink" x="0px" y="0px"
	 viewBox="0 0 45 45" style="enable-background:new 0 0 45 45;" xml:space="preserve">
<style type="text/css">
	.st0{fill:#FFFFFF;}
	.st1{fill:#009A00;}
	.st2{fill:#CE1126;}
</style>
<g>
	<g>
		<path d="M45,30.9V30H19v15h11.9c5.6,0,8.4,0,11.3-2.8S45,36.6,45,30.9z"/>
		<rect x="19" y="15" class="st0" width="26" height="15"/>
		<path class="st1" d="M45,15v-0.9c0-5.6,0-8.4-2.8-11.3S36.6,0,30.9,0H19v15H45z"/>
		<path class="st2" d="M14.1,0C8.4,0,5.6,0,2.8,2.8S0,8.4,0,14.1V15v15v0.9c0,5.6,0,8.4,2.8,11.3S8.4,45,14.1,45h5V30V15V0H14.1z"/>
	</g>
</g>
</svg>
