<?xml version="1.0" encoding="utf-8"?>
<!-- Generator: Adobe Illustrator 22.1.0, SVG Export Plug-In . SVG Version: 6.00 Build 0)  -->
<svg version="1.1" id="Layer_1" xmlns="http://www.w3.org/2000/svg" xmlns:xlink="http://www.w3.org/1999/xlink" x="0px" y="0px"
	 viewBox="0 0 45 45" style="enable-background:new 0 0 45 45;" xml:space="preserve">
<style type="text/css">
	.st0{fill:#01247D;}
	.st1{fill:#FFFFFF;}
	.st2{fill:#CF142B;}
</style>
<g>
	<g>
		<path class="st0" d="M2,3.7l13.7,9.1V0h-1.7C8.4,0,5.6,0,2.8,2.8C2.5,3.1,2.3,3.4,2,3.7z"/>
		<path class="st0" d="M0,29.3v1.7c0,0.5,0,0.9,0,1.4l4.6-3.1H0z"/>
		<path class="st0" d="M45,15.8v-1.7c0-0.5,0-0.9,0-1.4l-4.6,3H45z"/>
		<path class="st0" d="M0,12.7c0,0.4,0,0.9,0,1.4v1.7h4.6L0,12.7z"/>
		<path class="st0" d="M2.1,41.3c0.2,0.3,0.5,0.6,0.8,0.9C5.6,45,8.4,45,14.1,45h1.7V32.2L2.1,41.3z"/>
		<path class="st0" d="M43,3.7c-0.2-0.3-0.5-0.6-0.8-0.9C39.4,0,36.6,0,30.9,0h-1.7v12.8L43,3.7z"/>
		<path class="st0" d="M42.9,41.3l-13.7-9.1V45h1.7c5.6,0,8.4,0,11.3-2.8C42.5,41.9,42.7,41.6,42.9,41.3z"/>
		<path class="st0" d="M45,32.3c0-0.4,0-0.9,0-1.4v-1.7h-4.6L45,32.3z"/>
		<path class="st1" d="M8.8,26.4H0v2.8h4.6L0,32.3c0,1.9,0.1,3.5,0.3,4.9l12-8h3.5v1.2L1.2,40.1c0.2,0.4,0.5,0.8,0.8,1.2l13.7-9.1
			V45h2.8V30.3v-3.9H8.8z"/>
		<path class="st2" d="M32.8,29.3l12,8c0.2-1,0.2-2.1,0.3-3.4l-6.9-4.6H32.8z"/>
		<path class="st2" d="M29.3,15.8h3.3l12.1-8.1c-0.2-1.1-0.5-2-1-2.9l-14.5,9.6V15.8z"/>
		<path class="st2" d="M15.8,29.3h-3.5l-12,8c0.2,1.1,0.5,2,1,2.9l14.5-9.7V29.3z"/>
		<path class="st2" d="M12.4,15.8l-12.1-8c-0.2,1-0.2,2.1-0.3,3.4l7,4.7H12.4z"/>
		<polygon class="st2" points="36.2,18.6 26.4,18.6 26.4,14.7 26.4,0 18.6,0 18.6,14.7 18.6,18.6 8.8,18.6 0,18.6 0,26.4 8.8,26.4 
			18.6,26.4 18.6,30.3 18.6,45 26.4,45 26.4,30.3 26.4,26.4 36.2,26.4 45,26.4 45,18.6 		"/>
		<path class="st1" d="M15.8,0v12.8L2,3.7c-1,1.2-1.5,2.5-1.7,4l12.1,8H7l-7-4.7c0,0.5,0,1.1,0,1.6l4.6,3H0v2.8h8.8h9.8v-3.9V0H15.8
			z"/>
		<path class="st1" d="M40.4,15.8l4.6-3c0-2-0.1-3.6-0.3-5l-12.1,8.1h-3.3v-1.3l14.5-9.6C43.5,4.4,43.3,4,43,3.7l-13.7,9.1V0h-2.8
			v14.7v3.9h9.8H45v-2.8H40.4z"/>
		<path class="st1" d="M45,26.4h-8.8h-9.7v1.9v1.9V45h2.8V32.2l13.7,9.1c1-1.2,1.5-2.5,1.8-4.1l-12-8h5.3l6.9,4.6c0-0.5,0-1,0-1.5
			l-4.6-3.1H45V26.4z"/>
	</g>
</g>
</svg>
