<?xml version="1.0" encoding="utf-8"?>
<!-- Generator: Adobe Illustrator 22.1.0, SVG Export Plug-In . SVG Version: 6.00 Build 0)  -->
<svg version="1.1" id="Layer_1" xmlns="http://www.w3.org/2000/svg" xmlns:xlink="http://www.w3.org/1999/xlink" x="0px" y="0px"
	 viewBox="0 0 45 45" style="enable-background:new 0 0 45 45;" xml:space="preserve">
<style type="text/css">
	.st0{fill:#FFFFFF;}
	.st1{fill:#0038A8;}
	.st2{fill:#FCD116;stroke:#000000;stroke-width:0.1;stroke-miterlimit:20;}
	.st3{fill:#FCD116;}
</style>
<g>
	<g>
		<g>
			<path class="st0" d="M44.9,35c0.1-1.2,0.1-2.5,0.1-4.1V30H0v0.9c0,1.5,0,2.9,0.1,4.1H44.9z"/>
			<path class="st0" d="M43.8,40H1.2c0.4,0.8,0.9,1.5,1.6,2.2C5.6,45,8.4,45,14.1,45h16.9c5.6,0,8.4,0,11.3-2.8
				C42.9,41.5,43.4,40.8,43.8,40z"/>
			<path class="st1" d="M1.2,40h42.7c0.7-1.4,1-3,1.1-5H0.1C0.2,37,0.4,38.6,1.2,40z"/>
			<polygon class="st1" points="45,25 25,25 0,25 0,30 45,30 			"/>
			<rect x="25" y="15" class="st1" width="20" height="5"/>
			<path class="st1" d="M25,10h19.9c-0.1-2-0.4-3.6-1.1-5H25V10z"/>
			<path class="st0" d="M45,15v-0.9c0-1.5,0-2.9-0.1-4.1H25V5h18.8c-0.4-0.8-0.9-1.5-1.6-2.2C39.4,0,36.6,0,30.9,0H25H14.1
				C8.4,0,5.6,0,2.8,2.8C2.1,3.5,1.6,4.2,1.2,5c-0.7,1.4-1,3-1.1,5C0,11.2,0,12.5,0,14.1V15v5v5h25h20v-5H25v-5H45z"/>
		</g>
		<g>
			<g>
				<path class="st2" d="M14.6,3.2c2.4-3.4,0-4.1,2-5.6c-1,2.1,1.7,1.7,0.4,5.5L16.4,5L14.6,3.2z"/>
				<g>
					<path d="M16.1,4.3c1.4-2.5-0.7-5.4,0.5-6.8l0,0l0,0C15.4-1.1,17.5,1.8,16.1,4.3L16.1,4.3L16.1,4.3L16.1,4.3L16.1,4.3z"/>
				</g>
			</g>
		</g>
		<g>
			<g>
				<path class="st2" d="M17.6,2.9C21.7,2.3,20.5,0,23,0.4c-2.2,0.8,0,2.4-3.6,4.2l-1.8,1L17.6,2.9z"/>
				<g>
					<path d="M17.9,4.9L17.9,4.9c0.1-0.1,0.3-0.1,0.4-0.2l0,0c2.2-0.9,2.9-3.6,4.3-4.2l0,0c0.1-0.1,0.3-0.1,0.5-0.1l0,0l0,0.1
						c-0.2,0-0.3,0-0.4,0.1l0,0c-1.4,0.6-2.1,3.3-4.3,4.2l0,0C18.2,4.8,18,4.9,17.9,4.9L17.9,4.9z M17.9,4.9
						C17.9,4.9,17.9,4.9,17.9,4.9L17.9,4.9L17.9,4.9L17.9,4.9L17.9,4.9z"/>
				</g>
			</g>
		</g>
		<g>
			<g>
				<path class="st2" d="M19.9,5c3.4,2.4,4.1,0,5.6,2c-2.1-0.9-1.6,1.7-5.5,0.5l-1.9-0.6L19.9,5z"/>
				<g>
					<path d="M18.7,6.5L18.7,6.5c2.5,1.4,5.5-0.8,6.8,0.4l0,0l0,0C24.2,5.8,21.3,8,18.7,6.5L18.7,6.5z"/>
				</g>
			</g>
		</g>
		<g>
			<g>
				<path class="st2" d="M20.1,8c0.7,4.1,2.9,2.9,2.6,5.4c-0.8-2.2-2.4,0.1-4.2-3.5l-1-1.7L20.1,8z"/>
				<g>
					<path d="M22.7,13.4c0-0.2,0-0.3-0.1-0.4l0,0c-0.6-1.4-3.3-2-4.3-4.3l0,0c-0.1-0.1-0.1-0.3-0.1-0.4l0,0l0,0l0.1,0
						c0,0.1,0.1,0.3,0.1,0.4l0,0c0.9,2.2,3.7,2.9,4.3,4.3l0,0C22.7,13.1,22.7,13.2,22.7,13.4L22.7,13.4L22.7,13.4L22.7,13.4z"/>
				</g>
			</g>
		</g>
		<g>
			<g>
				<path class="st2" d="M18.2,10.3c-2.4,3.4,0.1,4.1-1.9,5.6c0.9-2.1-1.7-1.6-0.5-5.5l0.5-1.9L18.2,10.3z"/>
				<g>
					<path d="M16.2,15.9c1.2-1.3-1-4.2,0.4-6.8l0,0l0,0l0,0C15.2,11.6,17.4,14.6,16.2,15.9L16.2,15.9L16.2,15.9L16.2,15.9z"/>
				</g>
			</g>
		</g>
		<g>
			<g>
				<path class="st2" d="M15.1,10.6c-4.1,0.8-2.8,2.9-5.3,2.6c2.2-0.9-0.1-2.4,3.5-4.3l1.7-1L15.1,10.6z"/>
				<g>
					<path d="M9.8,13.2L9.8,13.2c0.1-0.1,0.3-0.1,0.4-0.2l0,0c1.4-0.6,2-3.4,4.3-4.3l0,0c0.1-0.1,0.3-0.1,0.4-0.1l0,0l0,0l0,0.1
						c-0.1,0-0.3,0.1-0.4,0.1l0,0c-2.2,0.9-2.9,3.7-4.3,4.3l0,0C10.1,13.2,9.9,13.2,9.8,13.2L9.8,13.2z"/>
				</g>
			</g>
		</g>
		<g>
			<g>
				<path class="st2" d="M12.7,8.6C9.3,6.2,8.6,8.6,7.1,6.7c2.1,0.9,1.6-1.7,5.5-0.6l1.9,0.5L12.7,8.6z"/>
				<g>
					<path d="M7.1,6.7L7.1,6.7c1.4,1.1,4.3-1.1,6.8,0.3l0,0l0,0l0,0.1C11.4,5.6,8.5,7.9,7.1,6.7L7.1,6.7z"/>
				</g>
			</g>
		</g>
		<g>
			<g>
				<path class="st2" d="M12.5,5.6c-0.8-4.1-3-2.8-2.7-5.3c0.9,2.2,2.4-0.1,4.3,3.4l1,1.7L12.5,5.6z"/>
				<g>
					<path d="M14.4,5.3c0-0.1-0.1-0.2-0.1-0.3l0,0c-0.9-2.2-3.8-2.8-4.4-4.3l0,0C9.9,0.5,9.9,0.4,9.8,0.3l0,0l0.1,0
						c0,0.1,0,0.3,0.1,0.4l0,0c0.6,1.4,3.4,2,4.4,4.3l0,0C14.4,5,14.5,5.1,14.4,5.3L14.4,5.3L14.4,5.3L14.4,5.3L14.4,5.3z"/>
				</g>
			</g>
		</g>
		<polygon class="st2" points="13.6,9.8 18.8,6.2 15.2,11.4 21.4,12.5 15.2,13.6 18.8,18.9 13.6,15.2 12.5,21.4 11.4,15.2 6.2,18.8 
			9.8,13.6 3.6,12.5 9.8,11.4 6.2,6.2 11.4,9.8 12.5,3.6 		"/>
		<g>
			<polygon points="12.5,3.6 12.5,3.6 12.5,21.4 12.5,21.4 12.5,3.6 			"/>
		</g>
		<g>
			<polygon points="6.2,6.2 6.2,6.1 18.8,18.8 18.8,18.9 6.2,6.2 			"/>
		</g>
		<g>
			<polygon points="3.6,12.5 3.6,12.4 21.4,12.5 21.4,12.6 3.6,12.5 			"/>
		</g>
		<g>
			<polygon points="6.2,18.8 18.8,6.2 18.8,6.3 6.2,18.8 6.2,18.8 			"/>
		</g>
		<g>
			<path class="st3" d="M15.4,12.6c0,1.6-1.3,2.9-2.9,2.9c-1.6,0-2.9-1.3-2.9-2.9c0-1.6,1.3-2.9,2.9-2.9C14.1,9.7,15.4,11,15.4,12.6
				z"/>
			<path d="M9.5,12.6c0-1.6,1.3-3,3-3l0,0c1.6,0,3,1.3,3,3l0,0c0,1.6-1.3,3-3,3l0,0C10.9,15.5,9.5,14.2,9.5,12.6L9.5,12.6z
				 M9.6,12.6c0,1.6,1.3,2.9,2.9,2.9l0,0c1.6,0,2.9-1.3,2.9-2.9l0,0c0-1.6-1.3-2.9-2.9-2.9l0,0C10.9,9.7,9.6,11,9.6,12.6L9.6,12.6z"
				/>
		</g>
		<g>
			<g>
				<path d="M10.3,11.3c-0.1,0.2-0.1,0.1,0.1,0c0.2-0.1,0.7-0.2,0.9-0.2c0.3,0.1,0.7,0.3,0.8,0.3c0.1-0.1-0.4-0.5-0.6-0.5
					c-0.3,0-0.5-0.1-0.7,0C10.7,11.1,10.5,11.2,10.3,11.3z"/>
				<path d="M11,13.7C10.9,13.8,10.8,14.1,11,13.7C11.3,13.3,11.1,13.6,11,13.7z"/>
				<path d="M10.9,11.5c-0.2,0.3-0.2,0.4,0,0.5C10.8,11.8,10.9,11.5,10.9,11.5z"/>
				<path d="M11.6,11.8c0,0.1-0.1,0.3-0.3,0.3c-0.1,0-0.4-0.1-0.4-0.2c0-0.1,0.1-0.3,0.5-0.3C11.6,11.5,11.6,11.6,11.6,11.8z"/>
				<path d="M10.5,11.7c-0.2,0,0.6-0.3,0.8-0.3c0.3,0,0.5,0,0.6,0.2c0.1,0.1-0.3,0-0.5,0C11.3,11.6,10.6,11.7,10.5,11.7z"/>
				<path d="M10.6,11.8c0,0,0.3,0.2,0.5,0.2c0.3,0,0.6-0.2,0.7-0.1c0.1,0.1-0.3,0.2-0.5,0.2C11,12.1,10.6,11.8,10.6,11.8z"/>
				<path d="M14.6,11.3c-0.1-0.1-0.3-0.2-0.5-0.3c-0.2-0.1-0.4-0.1-0.7,0c-0.2,0-0.7,0.4-0.6,0.5c0.1,0,0.5-0.2,0.8-0.3
					c0.2,0,0.7,0.1,0.9,0.2C14.7,11.4,14.8,11.5,14.6,11.3z"/>
				<path d="M12.5,13.3c-0.2,0-0.3-0.1-0.5-0.1c-0.2,0-0.5,0.1-0.6,0.2c0,0,0.1-0.2,0.3-0.3c0.2-0.1,0.2-0.4,0.3-0.4
					c0,0.1-0.1,0.1-0.1,0.2c0,0.1,0.1,0.2,0.3,0c0,0.2,0.3,0.2,0.3,0.2s0.3,0,0.3-0.2c0.1,0.2,0.3,0.1,0.3,0c0-0.2-0.1-0.1-0.1-0.2
					c0.2-0.1,0.2,0.3,0.3,0.4c0.2,0.1,0.4,0.3,0.3,0.3c-0.1-0.1-0.4-0.2-0.6-0.2C12.8,13.1,12.7,13.3,12.5,13.3z"/>
				<path d="M14,13.7C13.9,13.6,13.7,13.3,14,13.7C14.2,14.1,14.1,13.8,14,13.7z"/>
				<path d="M14.1,11.5c0.2,0.3,0.2,0.4,0,0.5C14.2,11.8,14.1,11.5,14.1,11.5z"/>
				<path d="M13.4,11.8c0,0.1,0.1,0.3,0.3,0.3c0.1,0,0.4-0.1,0.4-0.2c0-0.1-0.1-0.3-0.5-0.3C13.4,11.5,13.4,11.6,13.4,11.8z"/>
				<path d="M14.5,11.7c0.2,0-0.6-0.3-0.8-0.3c-0.3,0-0.5,0-0.6,0.2c-0.1,0.1,0.3,0,0.5,0C13.6,11.6,14.4,11.7,14.5,11.7z"/>
				<path d="M14.4,11.8c0,0-0.3,0.2-0.5,0.2c-0.3,0-0.6-0.2-0.7-0.1c-0.1,0.1,0.3,0.2,0.5,0.2C13.9,12.1,14.4,11.8,14.4,11.8z"/>
				<path d="M12.9,13.6c-0.2,0-0.3,0.1-0.4,0.1c-0.2,0-0.2-0.1-0.4-0.1c-0.2,0-0.5,0.2-1,0.2c0.9,0.4,0.8,0.5,1.4,0.5
					c0.7,0,0.5-0.1,1.4-0.5C13.4,13.8,13.1,13.6,12.9,13.6z M12.5,14c-0.4,0-0.6-0.1-0.8-0.1c0.1,0,0.4,0,0.8,0c0.5,0,0.7,0,0.8,0
					C13.1,14,12.9,14,12.5,14z"/>
			</g>
			<path d="M12.7,14.5c0,0-0.1,0-0.2,0c-0.1,0-0.2,0-0.2,0c0,0,0.1,0,0.2,0C12.6,14.5,12.7,14.5,12.7,14.5z"/>
		</g>
	</g>
</g>
</svg>
