<?xml version="1.0" encoding="utf-8"?>
<!-- Generator: Adobe Illustrator 22.1.0, SVG Export Plug-In . SVG Version: 6.00 Build 0)  -->
<svg version="1.1" id="Layer_1" xmlns="http://www.w3.org/2000/svg" xmlns:xlink="http://www.w3.org/1999/xlink" x="0px" y="0px"
	 viewBox="0 0 100 100" style="enable-background:new 0 0 100 100;" xml:space="preserve">
<style type="text/css">
	.st0{fill:#000099;}
	.st1{fill:#FFCC00;}
	.st2{fill:#009966;}
	.st3{fill:#0099FF;}
	.st4{fill:#D30909;}
</style>
<g>
	<g>
		<path d="M29,47.2c0,0.3,0.1,0.5,0.1,0.8c0,0.2,0.1,0.4,0.3,0.5c0.4,0.4,0.8,0.9,1,1.4c0,0.1,0,0.3,0,0.4c-0.2,0.3-0.4,0.5-0.5,0.8
			c-0.2,0.3-0.4,0.5-0.3,0.8c0,0.1,0.1,0.3,0.1,0.3c0.1,0,0.3,0,0.3-0.1c0.2-0.2,0.4-0.5,0.5-0.8c0.2-0.7,0.9-1,1.4-1.3
			c0,0,0.1,0.1,0.2,0.1c0.3,0.9,0.1,1.7-0.5,2.4c-0.3,0.4-0.6,0.8-1,1.1c-0.1,0.1-0.2,0.3-0.2,0.4c-0.1,0.2,0,0.4,0.1,0.5
			c0.2,0.1,0.4,0.1,0.6,0c0.5-0.3,0.7-0.7,0.7-1.3c0-0.3,0.1-0.6,0.1-0.9c0,0,0-0.1,0.1-0.2c0.6,0.5,1.1,1,1.3,1.7
			c0.2,0.6-0.1,1.1-0.5,1.6c-0.2,0.2-0.4,0.3-0.6,0.5c-0.1,0.1-0.3,0.3-0.4,0.5c0,0.1,0,0.3,0.1,0.4c0.1,0.2,0.2,0.2,0.4,0
			c0.5-0.5,0.9-1,1.2-1.6c0,0,0-0.1,0-0.1c0,0,0,0,0.1-0.1c0.3,0.5,0.5,1,0.6,1.5c0.1,0.5-0.1,1-0.4,1.4c-0.1,0.1-0.3,0.2-0.4,0.4
			c-0.1,0.1-0.1,0.2-0.1,0.3c0,0.2,0.1,0.3,0.2,0.4c0.1,0,0.3,0,0.3-0.1c0.4-0.3,0.6-0.7,0.7-1.2c0-0.2,0.1-0.5,0.1-0.7
			c0-0.1,0.1-0.1,0.1-0.2c0.1,0,0.1,0.1,0.1,0.1c0.3,0.4,0.5,0.9,0.7,1.3c0.1,0.2,0.1,0.4,0,0.6c-0.2,0.3-0.4,0.6-0.6,0.9
			c-0.3,0.3-0.3,0.6,0,0.8c0.2,0.2,0.4,0.2,0.5,0c0.2-0.3,0.4-0.6,0.5-0.9c0.3-0.6,0.8-0.7,1.3-0.8c0.1,0,0.2,0.1,0.2,0.2
			c0.1,0.4,0.2,0.8,0.2,1.3c0.1-0.2,0.3-0.4,0.4-0.6c0.3-0.6,0.7-1.2,1-1.7c0.3-0.6,0.8-1.1,1.3-1.5c0.4-0.3,0.7-0.7,0.8-1.1
			c0.2-0.4,0.5-0.7,0.7-1.1c0.2-0.2,0.3-0.4,0.5-0.6c-0.1-0.3-0.1-0.3-0.4-0.3c-0.5,0-0.9-0.2-1.2-0.6c-0.1-0.1-0.2-0.1-0.3,0
			C40.1,53,39.5,53,39,52.6c-0.2-0.1-0.3-0.3-0.5-0.5c-1,0.4-1.8,0.2-2.3-0.8c-0.5,0.2-1,0.2-1.5,0c-0.6-0.2-0.9-0.9-0.8-1.5
			c0-0.1,0-0.2-0.1-0.2c-0.4-0.1-0.6-0.4-0.6-0.8c-0.1-0.2-0.1-0.5-0.1-0.7c-0.3,0-0.6,0-0.8,0c-0.8,0-1.4-0.4-1.9-1.1
			c0,0-0.1-0.1-0.1-0.1c-0.1-0.2-0.2-0.5-0.4-0.6c-0.2-0.1-0.5-0.1-0.7-0.2c-0.8-0.2-1.4-0.6-1.9-1.2c-0.2-0.2-0.5-0.3-0.8-0.3
			c-0.9-0.2-1.8-0.6-2.4-1.4c-0.2-0.2-0.3-0.5-0.4-0.7c-0.1-0.1-0.1-0.2-0.2-0.2c-0.6,0-1.1-0.1-1.6-0.5c-0.5-0.4-0.9-0.9-1.1-1.5
			c-0.1-0.3-0.2-0.6-0.3-0.9c0-0.1-0.1-0.1-0.2-0.2c-0.4-0.1-0.9-0.2-1.3-0.4c-0.7-0.3-1.3-0.8-1.5-1.6c0-0.2-0.1-0.3-0.1-0.5
			c-0.7,0-1.4-0.2-1.8-0.8c-0.5-0.7-0.5-1.1,0-1.7c0.1-0.1,0.2-0.2,0.3-0.4c-0.5-0.2-0.8-0.5-1-0.9c-0.2-0.5-0.1-1.1,0.3-1.3
			c0.3-0.1,0.6-0.2,0.9-0.1c0.8,0.1,1.6,0.3,2.4,0.5c1,0.2,1.9,0.4,2.9,0.6c1,0.2,2.1,0.5,3.1,0.8c0.5,0.2,1,0.5,1.6,0.6
			c0.9,0.3,1.8,0.6,2.8,0.8c1.2,0.3,2.4,0.6,3.6,0.9c0.7,0.2,1.3,0.3,2,0.5c0.1,0,0.3,0,0.5,0c0.6,0,1.2,0,1.8,0
			c1,0,1.9,0.5,2.7,1.1c0.6,0.4,1,0.9,1.3,1.5c0.3,0.5,0.4,1,0.3,1.6c0,0.6-0.2,1.2-0.5,1.7c-0.3,0.4-0.6,0.8-1.1,0.9
			c-0.3,0.1-0.5,0.2-0.8,0.4c-0.6,0.3-0.5,1.1-0.1,1.5c0.4,0.4,0.8,0.5,1.4,0.2c0.3-0.2,0.6-0.4,0.8-0.6c0.1,0,0.1-0.1,0.1-0.2
			c0.2-0.9,0.3-1.7,0.5-2.6c0-0.1,0.1-0.2,0.1-0.3c0.1-0.2,0.1-0.2,0.3-0.1c0.4,0.2,0.7,0.4,1.1,0.5c0.9,0.4,1.7,0.7,2.7,0.8
			c0.1,0,0.2,0,0.2-0.1c0.1-0.3,0.2-0.6,0.2-1c0-0.1,0-0.2-0.2-0.2c-0.3,0-0.6,0-1,0c-0.1-0.1,0-0.2,0.1-0.3
			c0.4-0.3,0.7-0.5,1.1-0.7c0.3-0.2,0.7-0.4,1-0.7c0.2-0.2,0.2-0.3,0-0.5c-0.2-0.1-0.3-0.2-0.5-0.3c-0.1-0.1-0.2-0.1-0.1-0.3
			c0.4-0.4,0.8-0.8,1.2-1.2c0.5-0.5,0.7-1,0.9-1.6c0,0-0.1-0.2-0.1-0.2c-0.5-0.2-1-0.4-1.5-0.8c-0.4-0.4-0.9-0.4-1.5,0
			c0,0-0.1,0.1-0.2,0.1c0.2-1.1,0.9-1.7,1.8-2c0.1,0,0.2-0.1,0.2-0.2c0.1-0.4,0.4-0.6,0.7-0.8c0.1,0,0.2-0.1,0.2-0.1
			c0.3-0.5,0.7-0.7,1.2-1c0.5-0.2,1-0.4,1.5-0.3c0.7,0.1,1.3,0.3,1.9,0.6c0.6,0.3,1.1,0.8,1.4,1.4c0.2,0.4,0.4,0.9,0.4,1.3
			c0,0.4,0,0.7,0,1.1c0,0.1,0.1,0.2,0.1,0.3c0.4,0.5,0.7,1.1,0.9,1.8c0.1,0.4,0.1,0.7,0,1c-0.2-0.2-0.4-0.4-0.6-0.6
			c-0.1-0.1-0.2-0.1-0.3-0.1c-0.1,0-0.1,0.2-0.1,0.3c0,0.5,0.1,1,0.3,1.5c0.8-0.3,1.6-0.2,2.4,0.2c-0.2,0.2-0.4,0.4-0.7,0.6
			c-0.3,0.2-0.4,0.5-0.2,0.8c0.1,0.1,0.2,0.3,0.3,0.3c0.4,0.2,0.6,0.6,0.7,1.1c0,0.1,0,0.1,0.1,0.2c1.7-0.3,3.3-0.8,5-1.4
			c0.1,0.5,0.2,1,0.2,1.5c0.1,0.5,0.1,1.1,0.2,1.6c0,0.1,0.1,0.2,0.1,0.2c0.3,0.2,0.6,0.5,1,0.7c0.7,0.3,1.2,0.1,1.5-0.6
			c0.2-0.5,0.1-0.9-0.4-1.1c-0.3-0.2-0.6-0.3-0.9-0.4c-0.5-0.2-0.8-0.5-1-0.9c-0.4-0.7-0.5-1.4-0.5-2.2c0-0.7,0.3-1.2,0.7-1.7
			c0.7-0.9,1.7-1.6,2.8-1.9c0.4-0.1,0.8-0.1,1.2-0.2c0.6,0,1.2,0,1.7-0.1c0.5,0,0.9-0.2,1.4-0.3c2-0.5,4-1.1,6-1.6
			c0.6-0.2,1.3-0.4,1.9-0.6c0.4-0.2,0.8-0.4,1.2-0.5c0.6-0.2,1.3-0.4,1.9-0.5c1.4-0.3,2.8-0.6,4.2-0.9c0.6-0.1,1.3-0.2,1.9-0.4
			c0.8-0.1,1.4,0.5,1.2,1.2c-0.1,0.6-0.5,1-1,1.2c0.2,0.2,0.3,0.4,0.4,0.6c0.4,0.6,0.3,1-0.1,1.6c-0.4,0.5-1,0.8-1.6,0.8
			c0,0-0.1,0-0.1,0c0,0,0,0-0.1,0c0,0.1,0,0.3,0,0.4c-0.1,0.6-0.5,1.1-1,1.4c-0.5,0.3-1.4,0.7-1.9,0.7c-0.2,0.8-0.4,1.6-1,2.2
			c-0.6,0.6-1.4,0.9-2.1,0.9c-0.3,0.4-0.5,0.8-0.8,1.1c-0.5,0.6-1.2,0.9-2,1.1c-0.1,0-0.3,0-0.4,0.1c-0.2,0-0.3,0.1-0.4,0.3
			c-0.6,0.7-1.4,1.1-2.3,1.3c0,0-0.1,0-0.1,0c-0.2,0-0.3,0.1-0.4,0.3c-0.4,0.8-0.9,1.4-1.8,1.6c-0.3,0.1-0.7,0-1,0
			c-0.1,0-0.1,0-0.2,0c-0.1,0.6,0,1.3-0.8,1.5c0,0.2,0,0.5,0,0.7c0,0.6-0.6,1-1.1,1.1c-0.3,0-0.6,0-1,0c-0.2,0-0.2,0-0.3,0.1
			c-0.2,0.4-0.5,0.7-1,0.8c-0.4,0.1-0.7,0.1-1.1-0.1c-0.2-0.1-0.3,0-0.4,0.1c-0.5,0.6-1.1,0.7-1.8,0.7c0,0-0.1,0-0.1,0
			c-0.2-0.1-0.3-0.1-0.5,0.2c-0.3,0.4-0.8,0.6-1.4,0.4c-0.1,0-0.1,0-0.2,0c0,0.1,0.1,0.1,0.1,0.2c0.3,0.3,0.5,0.5,0.8,0.8
			c0.1,0.2,0.2,0.4,0.3,0.6c0.1,0.2,0.1,0.4,0.1,0.5c0.1,0.4,0.4,0.6,0.7,0.9c0.4,0.4,0.9,0.7,1.2,1.2c0.6,0.9,1.1,1.9,1.7,2.8
			c0.2,0.3,0.5,0.6,0.7,0.9c0.1,0.1,0.1,0.1,0.2,0.2c0.3,0.1,0.4,0.1,0.5-0.2c0.6-1.7,1.1-3.4,1.7-5.1c0.2-0.7,0.5-1.4,0.7-2.1
			c0-0.1,0-0.2,0.1-0.3c-0.7,0.1-1.3,0.2-2,0.2c1.7-2.2,3.4-4.3,5.1-6.5c-0.1,0.8-0.1,1.6-0.2,2.5c1.8-1.6,3.6-3.2,5.4-4.7
			c0,0,0,0,0,0c-0.7,2.4-1.3,4.9-2,7.3c1.4-0.6,2.8-1.2,4.1-1.8c0,0,0,0,0,0c-1.4,2.2-2.8,4.4-4.2,6.6c0,0-0.1,0-0.1,0
			c-0.1-0.5-0.2-1-0.3-1.6c-2.2,2-4.4,4.1-6.6,6.1c0.5,0.4,0.6,0.9,0.6,1.5c0,0.3,0,0.5,0,0.8c0,0.4-0.4,0.7-0.8,0.5
			c-0.3,0.3-0.4,0.8-1,0.8c0.1,0.4,0.3,0.8,0.4,1.2c0.1,0.2,0.1,0.4,0,0.6c-0.4,1.3-0.8,2.5-1.2,3.8c-0.2,0.8-0.5,1.6-0.7,2.5
			c-0.5-0.6-0.9-1.1-1.4-1.7c-0.2,0.4-0.5,0.8-0.7,1.2c-0.2-0.4-0.4-0.8-0.6-1.2c-0.6,0.2-1.1,0.4-1.7,0.7c0.2-0.6,0.3-1.1,0.5-1.7
			c-0.8,0.1-1.5,0.3-2.3,0.4c0.3-0.5,0.5-0.9,0.8-1.4c0.2-0.3,0.4-0.7,0.6-1c0,0,0-0.1,0-0.1c0-0.4,0-0.8,0-1.2
			c-0.8-0.1-1.7-0.2-2.5-0.3c0.6-0.5,1.2-0.9,1.8-1.4c0.4-0.3,0.8-0.6,1.2-0.9c0.3-0.3,0.7-0.3,1-0.4c0.3,0,0.6,0,0.9-0.2
			c0.3-0.1,0.5-0.3,0.6-0.6c0.1-0.1-0.1-0.4-0.2-0.5c-0.3-0.3-0.6-0.5-1-0.6c-0.4-0.2-0.7,0-1.1,0c-0.6,0-1.2-0.2-1.7-0.6
			c-0.6-0.5-1.1-1.1-1.3-1.8c-0.1-0.3-0.3-0.5-0.5-0.7c-0.4-0.3-0.8-0.7-1.2-1c-0.3,0.3-0.5,0.5-0.8,0.8c-0.1,0.1-0.2,0.2-0.3,0.3
			c-0.3,0.2-0.3,0.4-0.3,0.8c0,0.5-0.1,1-0.4,1.4c0.2,0.1,0.5,0.1,0.7,0.2c0.9,0.3,1.6,0.7,2.1,1.4c0.3,0.4,0.6,0.8,0.8,1.3
			c0.3,0.5,0.2,0.9-0.3,1.4c-0.1,0.1-0.2,0.2-0.3,0.3c0.1,0.6-0.1,1.1-0.7,1.3c-0.1,0.3-0.2,0.5-0.3,0.8c0,0.1-0.2,0.2-0.3,0.2
			c-0.2,0.1-0.3,0.2-0.4,0.3c-0.2,0.3-0.5,0.5-0.9,0.6c0,0-0.1,0.1-0.1,0.1c-0.2,0.6-0.6,1-1.3,1.1c-0.2,0-0.3,0.2-0.4,0.3
			c-0.2,0.3-0.4,0.6-0.7,0.8c-0.3,0.2-0.6,0.2-0.9,0.1c-0.1,0-0.2,0-0.2,0.1c-0.4,0.6-0.9,1-1.6,1c-0.6,0-1.1-0.3-1.5-0.9
			c-0.1-0.2-0.2-0.3-0.5-0.2c-0.6,0.1-1-0.1-1.3-0.7c-0.1-0.2-0.2-0.4-0.5-0.4c-0.6-0.1-1-0.5-1.2-1.1c-0.1-0.2-0.1-0.2-0.3-0.3
			c-0.3-0.1-0.6-0.3-0.8-0.6c-0.1-0.1-0.2-0.2-0.3-0.2c-0.3-0.1-0.6-0.5-0.6-0.9c0-0.1,0-0.2-0.1-0.2c-0.5-0.2-0.7-0.6-0.8-1.1
			c0-0.1-0.1-0.2-0.1-0.2c-0.3-0.3-0.6-0.7-0.5-1.1c0-0.3,0.2-0.6,0.3-0.9c0.7-1.4,1.9-2.1,3.4-2.4c-0.1-0.4-0.2-0.8-0.3-1.2
			c0,0,0-0.1,0-0.2c0.1-0.4-0.1-0.6-0.4-0.8c-0.3-0.2-0.6-0.5-0.9-0.8c-0.4,0.2-0.8,0.4-1.2,0.6c-0.4,0.2-0.6,0.6-0.8,1
			c-0.4,1-1.1,1.7-2.1,2c-0.5,0.2-1.1,0.1-1.6,0.1c-0.1,0-0.2,0-0.3,0c-0.7,0.2-1.3,0.6-1.7,1.2c0,0,0,0.1-0.1,0.1
			c-0.4,0.6-0.4,0.7,0.1,1.2c0.9,0.8,1.8,1.6,2.7,2.3c0.1,0.1,0.4,0.1,0.6,0.1c0.4,0.1,0.8,0.2,1,0.5c0.2,0.2,0.2,0.2,0,0.4
			c-0.5,0.4-1,0.8-1.6,1.3c-1.5-1.5-3-3.1-4.5-4.6c0,0,0,0,0,0c0,0,0,0.1,0.1,0.1c-0.1,0.1-0.2,0.1-0.3,0.2c-0.1,0-0.2,0.1-0.2,0.1
			c-0.4-0.2-0.8-0.1-1.2-0.4c0,0-0.1,0-0.1-0.1c-0.6-0.2-0.8-0.7-0.9-1.2c0-0.2,0-0.4-0.1-0.6c-0.5,0.1-0.9-0.1-1.3,0.3
			c-0.7,0.6-1.9,0.7-2.6,0.1c-0.4-0.3-0.7-0.6-0.8-1c0-0.1-0.1-0.2-0.1-0.2c-0.9-0.1-1.6-0.9-1.8-1.4c1.1-0.1,2.2-0.1,3.3-0.4
			c0.1,0,0.2-0.1,0.3-0.1c0.1,0,0.1-0.1,0.1-0.2c0-0.1-0.1-0.1-0.1-0.1c-0.2,0-0.5,0-0.7,0c-0.7,0.2-1.5,0.2-2.2,0
			c-0.4-0.1-0.7-0.3-0.8-0.7c-0.2-0.5-0.3-0.9-0.5-1.4c0-0.1,0-0.1,0-0.2c0,0,0.1,0,0.1,0.1c0.4,0.1,0.8,0.3,1.2,0.4
			c0.4,0.1,0.8,0.1,1.3,0.1c0.2,0,0.3,0,0.5-0.1c0.2-0.1,0.2-0.3,0-0.4c-0.2-0.1-0.5-0.2-0.8-0.2c-0.8,0-1.7,0-2.5,0
			c-0.2,0-0.3,0-0.4-0.2c-0.4-0.6-0.6-1.2-0.7-1.8c0,0,0-0.1,0-0.1c0-0.3,0-0.3,0.3-0.3c0.3,0.1,0.6,0.2,1,0.3
			c0.1,0,0.3,0.1,0.3,0.3c0.3,0.3,0.6,0.4,1,0.5c0.4,0,0.8,0,1.1-0.3c0.1-0.1,0.2-0.2,0.1-0.3c-0.1-0.1-0.2-0.1-0.3-0.1
			c-0.1,0-0.3,0.1-0.4,0.1c-0.6-0.1-1.2-0.1-1.8-0.3c-0.5-0.1-0.8-0.6-1-1c-0.1-0.1-0.1-0.3-0.1-0.4c-0.1-0.5-0.5-0.7-0.8-1.1
			c-0.1-0.1-0.1-0.1-0.2-0.2c0.1,0,0.2,0,0.2,0c0.5,0.1,0.9,0.1,1.4,0.2c0.1,0,0.2,0,0.2,0c0.4,0,0.8,0.1,1.1,0.3
			c0.3,0.2,0.5,0.3,0.8,0.4c0.1,0,0.1,0.1,0.3,0.1c-0.1-0.3-0.3-0.5-0.5-0.7c-0.3-0.3-0.5-0.4-0.9-0.3c-0.4,0-0.8,0-1.2,0
			c0,0-0.1,0-0.1,0c-0.6-0.3-1.1-0.5-1.6-0.9c-0.1-0.1-0.1-0.1-0.1-0.2c0-0.4-0.2-0.8-0.4-1.1c-0.2-0.3-0.4-0.6-0.6-1
			c0,0-0.1-0.1-0.1-0.2c0.9,0.1,1.8,0.3,2.7,0.4c0.3,0.1,0.6,0.2,0.9,0.3c-0.1-0.2-0.2-0.3-0.3-0.5c-0.1-0.3-0.3-0.6-0.4-0.9
			c-0.1-0.2-0.1-0.5,0-0.7c0.1-0.2,0.2-0.5,0.3-0.7c0.2-0.4,0.1-0.9-0.1-1.3c-0.1-0.2-0.2-0.3-0.2-0.5c0,0,0,0,0.1-0.1
			c0.3,0.2,0.7,0.3,1,0.5c0.5,0.4,0.9,0.8,1.3,1.1c0.2,0.1,0.1,0.3,0.1,0.4c0,0.5-0.1,1-0.1,1.4c0,0.3,0,0.6,0,0.8
			c0,0.3,0.2,0.6,0.5,0.8c0-0.1,0-0.2,0-0.2c0-0.7-0.1-1.4,0-2.1c0-0.3,0.2-0.5,0.4-0.8C28.8,47.4,28.9,47.3,29,47.2
			C29,47.2,29,47.2,29,47.2z M67.8,68.2c0,0.1-0.1,0.2-0.1,0.3c-0.6,1-1.1,2-1.7,3c-0.1,0.2-0.1,0.2,0,0.4c0.3,0.4,0.6,0.8,0.9,1.1
			c0.1,0.1,0.1,0.1,0.2,0.2c0.2-0.7,0.5-1.4,0.7-2.1c0.4-1.3,0.8-2.5,1.2-3.8c0.1-0.2,0.1-0.5,0-0.7c-0.1-0.2-0.1-0.5-0.2-0.7
			c-0.2-0.4-0.3-0.7-0.5-1.1c0,0-0.2-0.1-0.2-0.1c-0.1,0.2-0.3,0.4-0.2,0.6c0.1,0.6,0.2,1.3,0.3,1.9C68.2,67.7,68,67.9,67.8,68.2
			c0-0.1,0.1-0.2,0.1-0.4c0.1-0.2,0.1-0.3,0.1-0.5c-0.1-0.5-0.2-1-0.2-1.6c0-0.3-0.1-0.7,0.2-1c0.1-0.1,0.1-0.2-0.1-0.3
			c-0.2-0.1-0.5-0.3-0.7-0.4c-0.3-0.1-0.3-0.1-0.5,0.2c-0.1,0.1-0.1,0.2-0.2,0.3c-0.5,0.2-1,0.4-1.4,0.7c-0.3,0.2-0.8,0.3-0.9,0.7
			c0,0.1-0.1,0.2-0.1,0.3c-0.8,1.4-1.6,2.8-2.4,4.3c-0.1,0.2-0.2,0.3-0.3,0.6c0.2,0,0.3,0,0.4,0c0.7-0.1,1.4-0.3,2.1-0.4
			c0.1,0,0.2,0,0.2,0.1c0.2,0.4,0.4,0.8,0.6,1.1c0.2,0.3,0.3,0.6,0.5,0.9c0.1-0.1,0.1-0.2,0.2-0.3c0.7-1.3,1.4-2.5,2-3.8
			C67.6,68.5,67.7,68.4,67.8,68.2z M70.5,57.9c0.1-0.2,0.1-0.3,0.2-0.5c0.3-1,0.6-2,0.9-2.9c0-0.1,0.1-0.3,0.2-0.4
			c0.2,0.2,0.4,0.4,0.6,0.6c0.2-0.3,0.4-0.6,0.5-0.8c0.1-0.2,0.2-0.4,0.2-0.6c0.1-0.7,0.1-1.4,0.2-2.1c0-0.3,0-0.3-0.3-0.4
			c-0.1,0-0.1,0-0.2,0c0.1-0.1,0.2-0.2,0.3-0.3c0.1-0.1,0.2-0.2,0.2-0.5c0-0.5,0.1-1,0.1-1.5c0-0.1,0-0.2,0-0.4c0,0-0.1,0-0.1,0
			c-1.5,1.9-3,3.9-4.5,5.8c0,0,0,0,0,0.1c0.6-0.1,1.1-0.1,1.8-0.2c-0.9,2.6-1.7,5.2-2.6,7.7c0,0,0,0,0.1,0c0.3-0.2,0.4-0.4,0.6-0.7
			c0.6-1,1.2-1.9,1.7-2.9C70.4,57.9,70.5,57.9,70.5,57.9C70.5,57.9,70.5,57.9,70.5,57.9c-0.7,1.2-1.3,2.3-2,3.4
			c-0.1,0.1-0.2,0.3-0.3,0.5c0.1,0,0.2,0,0.3,0c0.3,0,0.6,0.1,0.9,0.1c0.2,0,0.2,0,0.3-0.1c0.4-0.8,0.9-1.5,1.3-2.3
			c0.9-1.5,1.7-3,2.6-4.5c0.6-1.1,1.3-2.2,1.9-3.3c0.1-0.1,0.2-0.3,0.3-0.4c0.3,0.5,0.5,0.9,0.8,1.4c0,0,0.1,0,0.1,0
			c0.6-2.3,1.3-4.6,1.8-6.9c-1.9,1.6-3.8,3.2-5.6,4.8c0,0,0,0,0,0.1c0.6,0,1.2,0.1,1.8,0.1c0,0.1-0.1,0.1-0.1,0.2
			c-0.5,0.9-1.1,1.8-1.6,2.6c-0.6,1-1.2,2.1-1.9,3.1C71,57.1,70.7,57.5,70.5,57.9z M62.8,48.3c-7.3,0-14.5,0-21.8,0
			c0.1,0.7,0.2,1.3,0.4,2c0.3,1.3,0.7,2.5,1.3,3.8c0.5,1.1,1.1,2.1,1.8,3c0.6,0.7,1.1,1.4,1.7,2c0.5,0.5,1,1,1.6,1.4
			c0.6,0.5,1.1,0.9,1.7,1.3c0.7,0.5,1.5,0.9,2.4,1.3c0.1,0,0.2,0,0.2,0c0.3-0.1,0.6-0.2,0.8-0.4c0.6-0.4,1.2-0.7,1.8-1.1
			c0.8-0.6,1.6-1.2,2.3-1.8c0.5-0.5,1-1,1.5-1.6c0.7-0.8,1.3-1.6,1.8-2.4c0.7-1.1,1.2-2.3,1.6-3.5C62.4,51,62.7,49.7,62.8,48.3z
			 M52,48.2c0.8,0,1.6,0,2.4,0c2.7,0,5.4,0,8.2,0c0.2,0,0.3-0.1,0.3-0.3c0-0.6,0.1-1.2,0.1-1.7c0-0.8,0-1.6-0.1-2.5
			c-0.1-0.7-0.2-1.4-0.3-2.1c0-0.2-0.1-0.2-0.2-0.1c-0.4,0.2-0.8,0.3-1.2,0.4c-1.2,0.4-2.4,0.7-3.7,0.9c-0.9,0.1-1.8,0-2.7-0.2
			c-0.9-0.2-1.7-0.6-2.5-1c-0.1-0.1-0.3-0.1-0.4,0c-0.6,0.2-1.1,0.4-1.7,0.6c-0.8,0.3-1.6,0.5-2.4,0.6c-1.3,0.3-2.5,0.1-3.6-0.4
			c-0.8-0.3-1.5-0.6-2.2-0.9c-0.2-0.1-0.2-0.1-0.3,0.1c-0.3,1-0.4,2-0.5,3c-0.1,1.1-0.1,2.2,0,3.3c0,0.2,0.1,0.2,0.3,0.2
			c1.2,0,2.4,0,3.5,0C47.2,48.2,49.6,48.2,52,48.2z M72.9,38.2C72.9,38.2,72.9,38.2,72.9,38.2c0-0.1,0.1-0.1,0.2-0.1
			c0.6-0.1,1.3-0.2,1.9-0.3c0.6-0.1,1.1-0.3,1.6-0.6c0.6-0.4,0.8-1,0.3-1.5c-0.2-0.2-0.4-0.5-0.6-0.7c-0.1-0.1-0.3-0.1-0.4-0.1
			c-0.1,0-0.3,0.1-0.4,0.1c-1,0.3-2,0.5-3,0.8c-0.7,0.2-1.3,0.3-2,0.5c-0.3,0.1-0.6,0.2-0.9,0.2c-0.4,0-0.9,0-1.3,0
			c-0.6,0-1.2,0-1.8,0.2c-1,0.3-1.9,0.9-2.6,1.7c-0.3,0.4-0.6,0.8-0.7,1.4c-0.2,0.9,0,1.8,0.4,2.6c0.2,0.4,0.5,0.7,1,0.8
			c0.2,0.1,0.5,0.2,0.7,0.3c0.2,0.1,0.4,0.3,0.6,0.5c0.3,0.6-0.1,1.5-0.8,1.6c-0.4,0.1-0.8-0.1-1.1-0.3c-0.3-0.2-0.5-0.4-0.8-0.5
			c0,0,0,0,0,0.1c0,0.1,0,0.1,0,0.2c0,0.9,0,1.9-0.1,2.8c-0.1,1-0.2,2-0.5,2.9c-0.2,0.8-0.5,1.6-0.8,2.4c0,0.1,0,0.2,0.1,0.2
			c0.2,0,0.5,0,0.7,0c0.3-0.1,0.6-0.4,0.6-0.7c0-0.5,0-1,0.1-1.5c-0.1,0-0.3,0-0.4,0c0-0.1,0.1-0.1,0.1-0.1c0.5,0,0.9-0.1,1-0.7
			c0,0,0.1-0.1,0.2-0.1c0.3,0,0.6,0,0.9,0c0.4-0.1,0.7-0.4,0.9-0.8c0-0.1,0.1-0.2,0.2-0.2c0.1-0.1,0.3-0.1,0.5-0.1
			c0.4-0.2,0.8-0.4,0.9-0.9c0.1-0.4,0.1-0.4,0.6-0.5c0.8-0.1,1.4-0.6,1.7-1.3c0.1-0.2,0-0.4,0.2-0.5c0.1-0.1,0.4-0.1,0.6-0.1
			c0.6-0.1,0.9-0.6,0.7-1.2c-0.1-0.2,0-0.2,0.2-0.3c0.2-0.1,0.5-0.2,0.7-0.4c0.4-0.3,0.4-0.8,0.3-1.3c-0.1-0.2,0-0.3,0.2-0.3
			c0.1,0,0.1,0,0.2,0c0.4-0.2,0.8-0.3,1.1-0.5c0.3-0.2,0.4-0.5,0.2-0.8c-0.1-0.2-0.2-0.3-0.4-0.5c0.3-0.1,0.6-0.2,0.9-0.3
			c0.4-0.2,0.8-0.4,1-0.8c0.2-0.6-0.1-1.1-0.4-1.5c0,0-0.2,0-0.2,0C74.2,38,73.5,38.1,72.9,38.2z M40.9,44.8
			c-0.1,0.1-0.2,0.1-0.3,0.2c-0.2,0.1-0.4,0.3-0.7,0.4c-0.6,0.3-1.1,0.2-1.5-0.3c-0.4-0.6-0.4-1.2,0.3-1.7c0.2-0.1,0.4-0.2,0.6-0.3
			c0.5-0.2,0.9-0.5,1.2-0.9c0.2-0.4,0.4-0.8,0.4-1.3c0.1-0.8,0-1.5-0.4-2.2c-0.5-0.8-1.2-1.3-1.9-1.8c-0.4-0.2-0.8-0.4-1.2-0.5
			c-0.6-0.1-1.2-0.1-1.9-0.1c-0.6,0-1.1,0-1.6-0.2c-0.4-0.1-0.9-0.2-1.3-0.3c-1.4-0.4-2.9-0.8-4.3-1.1c-0.1,0-0.2,0-0.3,0
			c-0.2,0.2-0.5,0.4-0.7,0.7c-0.3,0.4-0.3,1,0,1.3c0.2,0.2,0.5,0.4,0.8,0.5c0.8,0.4,1.6,0.5,2.5,0.7c0.3,0,0.5,0.1,0.8,0.1
			c0,0,0,0,0,0.1c-0.1,0-0.2,0-0.2,0c-0.6-0.1-1.2-0.2-1.7-0.3c-0.2,0-0.3,0-0.4,0.2c-0.1,0.1-0.2,0.3-0.2,0.4
			c-0.3,0.6-0.1,1.3,0.5,1.6c0.4,0.2,0.8,0.3,1.2,0.4c0.2,0.1,0.2,0.1,0.1,0.2c0,0-0.1,0.1-0.1,0.1c-0.4,0.4-0.4,0.8,0.1,1.1
			c0.3,0.2,0.7,0.3,1,0.4c0.4,0.1,0.4,0.1,0.4,0.5c-0.1,0.5,0,0.9,0.5,1.2c0.2,0.2,0.5,0.3,0.8,0.4c-0.1,0.4-0.2,0.8,0.1,1.1
			c0.3,0.3,0.7,0.3,1.2,0.4c0,0.1,0,0.1,0,0.2c0.1,0.6,0.4,1.2,1,1.5c0.3,0.2,0.7,0.3,1.1,0.3c0.2,0,0.3,0.1,0.3,0.3
			c0,0.2,0.1,0.3,0.2,0.5c0.2,0.4,0.6,0.6,1,0.6c0.2,0,0.4,0.1,0.5,0.3c0.3,0.6,0.8,1,1.7,0.8c0.2,0,0.2,0,0.2,0.2
			c0.1,0.4,0.3,0.5,0.7,0.6c0.1,0,0.3,0,0.4,0c0,0,0,0,0,0.1c-0.2,0-0.3,0-0.5,0c0,0.3,0.1,0.5,0.1,0.8c0,0.3,0,0.5,0,0.8
			c0,0,0,0.1,0,0.1c0.2,0.4,0.8,0.7,1.3,0.5C41.2,50.6,40.7,47.8,40.9,44.8z M27.8,34.6c-0.1,0-0.2-0.1-0.3-0.1
			c-0.7-0.3-1.5-0.5-2.2-0.8c-0.5-0.2-1-0.4-1.5-0.6c-0.7-0.2-1.5-0.4-2.2-0.6c-0.7-0.2-1.4-0.3-2.1-0.5c-0.9-0.2-1.8-0.4-2.7-0.5
			c-0.4-0.1-0.7-0.2-1.1-0.1c-0.4,0.1-0.6,0.3-0.6,0.7c0,0.6,0.4,1.2,1,1.4c0.1,0,0.1,0,0.2,0.1c-0.2,0.2-0.3,0.3-0.4,0.4
			c-0.3,0.3-0.5,0.7-0.3,1.2c0.3,0.8,1.1,1.2,1.9,1.2c0.1,0,0.2,0,0.2,0.2c0,0.8,0.4,1.3,1,1.7c0.5,0.3,1.1,0.5,1.7,0.6
			c0.2,0,0.3,0.1,0.4,0.4c0.1,0.3,0.2,0.7,0.3,1c0.4,0.8,0.9,1.5,1.8,1.7c0.4,0.1,0.7,0.1,1.1,0.1c0.8,0.1,1.7,0.2,2.5,0.3
			c1.3,0.2,2.5,0.3,3.8,0.2c0.4,0,0.7-0.1,1.1-0.3c-0.3-0.1-0.6-0.3-0.8-0.4c-0.5-0.3-0.6-0.8-0.2-1.3c0-0.1,0.1-0.1,0.2-0.2
			c-0.2,0-0.3-0.1-0.4,0c-0.3,0-0.6,0.2-0.9,0.1c-0.8-0.1-1.6-0.1-2.4-0.2c-0.9-0.1-1.8-0.3-2.7-0.5c-1-0.2-1.9-0.4-2.9-0.6
			c-0.1,0-0.1,0-0.2-0.1c0,0,0,0,0-0.1c0.3,0.1,0.6,0.1,0.9,0.2c1.1,0.2,2.1,0.5,3.2,0.7c1.2,0.2,2.5,0.4,3.8,0.5
			c0.3,0,0.7,0,1.1-0.1c-0.6-0.2-1.1-0.5-1.3-1.1c-0.2-0.6,0.1-1.1,0.4-1.6c-0.1,0-0.2-0.1-0.4-0.1c-0.5-0.2-0.9-0.3-1.3-0.6
			c-0.3-0.2-0.5-0.5-0.4-0.9c0-0.4,0.2-0.7,0.5-1C27.5,34.9,27.7,34.8,27.8,34.6z M83.2,39.2C83.2,39.2,83.2,39.3,83.2,39.2
			c-0.2,0.1-0.4,0.2-0.6,0.2c-0.8,0.2-1.5,0.3-2.3,0.5c-0.7,0.1-1.4,0.3-2.1,0.4c-0.8,0.1-1.7,0.3-2.6,0.3c-0.5,0-1,0-1.4-0.1
			c-0.2,0-0.4,0-0.5,0.1c0.1,0.1,0.1,0.2,0.2,0.2c0.2,0.3,0.2,0.7,0,0.9c-0.1,0.2-0.3,0.3-0.5,0.4c-0.2,0.1-0.4,0.2-0.7,0.3
			c0.1,0,0.2,0.1,0.2,0.1c0.4,0.1,0.9,0.2,1.3,0.2c0.8,0,1.5,0,2.3-0.1c0.9-0.1,1.7-0.2,2.6-0.3c0.5-0.1,0.9-0.1,1.4-0.1
			c0.7-0.1,1.4-0.3,1.9-0.8c0.5-0.6,0.8-1.3,1-2c0-0.2,0.1-0.2,0.3-0.3c0.5-0.2,1-0.3,1.4-0.5c0.6-0.3,1.1-0.7,1.2-1.5
			c0-0.2,0-0.4,0.1-0.6c0,0,0,0,0,0c0.1,0,0.2,0,0.2,0c0.7,0,1.3-0.3,1.7-0.9c0.2-0.3,0.4-0.7,0.1-1.1c-0.2-0.2-0.4-0.5-0.5-0.7
			c0-0.1-0.1-0.1-0.1-0.2c0.1,0,0.1,0,0.1-0.1c0.6-0.2,1-0.7,1-1.3c0-0.4-0.3-0.7-0.7-0.8c-0.5-0.1-1.1,0.1-1.6,0.2
			c-1.4,0.3-2.8,0.6-4.2,0.9c-1.3,0.3-2.7,0.6-3.9,1.2c-0.6,0.3-1.2,0.4-1.9,0.6c-0.2,0.1-0.4,0.1-0.6,0.2c0.2,0.3,0.5,0.5,0.7,0.8
			c0.4,0.6,0.4,1.2-0.2,1.6c-0.3,0.2-0.6,0.3-0.9,0.5c-0.2,0.1-0.5,0.2-0.8,0.3c0.1,0.2,0.2,0.3,0.3,0.5c0.3,0.5,0.3,1.1-0.1,1.5
			c-0.2,0.2-0.5,0.4-0.7,0.5c-0.1,0.1-0.2,0.1-0.3,0.1c0.2,0.1,0.3,0.1,0.4,0.1c0.5,0,1,0,1.5-0.1c1.1-0.2,2.2-0.3,3.3-0.5
			c1-0.2,2.1-0.4,3.1-0.7C82.9,39.3,83,39.2,83.2,39.2z M28.9,47.5c-0.3,0.3-0.5,0.6-0.5,1c0,0.4,0,0.8,0,1.2c0,0.3,0,0.6,0,0.9
			c0,0.1,0,0.3-0.2,0.2c-0.2-0.1-0.6-0.6-0.6-0.8c0-0.8,0.1-1.6,0.1-2.4c0-0.1,0-0.2-0.1-0.3c-0.5-0.6-1.1-1.1-1.8-1.4
			c-0.1,0-0.1,0-0.2-0.1c0,0.1,0,0.1,0,0.1c0,0,0,0.1,0.1,0.1c0.2,0.5,0.3,0.9,0,1.4c-0.1,0.2-0.2,0.4-0.2,0.6
			c-0.1,0.3-0.1,0.5,0,0.8c0.1,0.2,0.2,0.5,0.4,0.7c0.3,0.4,0.7,0.8,1,1.2c0.1,0.1,0.2,0.2,0.3,0.3c0,0,0,0.1-0.1,0.1
			c-1.1-1.4-2.7-1.5-4.3-1.5c0.1,0.2,0.3,0.4,0.4,0.6c0.2,0.4,0.5,0.8,0.6,1.3c0,0.1,0.1,0.3,0.2,0.4c0.1,0.1,0.2,0.1,0.3,0.2
			c0.6,0.4,1.2,0.7,1.9,0.6c0.3,0,0.6,0,0.9,0c0.1,0,0.2,0,0.2,0c0.4,0.2,0.7,0.5,1,0.9c0,0.1,0,0.2,0,0.2c-0.1,0-0.2,0-0.3,0
			c-0.3-0.2-0.6-0.4-1-0.5c-0.3-0.2-0.6-0.3-0.9-0.3c-0.3,0-0.7,0-1-0.1c-0.2,0-0.4,0-0.6-0.1c0.1,0.1,0.1,0.1,0.1,0.1
			c0.4,0.4,0.6,0.8,0.8,1.3c0.1,0.4,0.4,0.9,0.8,1c0.7,0.2,1.5,0.4,2.2,0.2c0.1,0,0.3,0,0.4,0.1c0.2,0.1,0.1,0.3-0.1,0.5
			c-0.4,0.4-0.9,0.5-1.5,0.3c-0.2-0.1-0.5-0.1-0.6-0.3c-0.4-0.4-0.8-0.6-1.3-0.7c-0.2,0-0.3,0-0.3,0.2c0.1,0.7,0.3,1.3,0.7,1.8
			c0,0.1,0.1,0.1,0.2,0.1c0.5,0,1,0,1.4,0c0.6,0,1.2,0,1.7,0.2c0.3,0.1,0.5,0.2,0.5,0.4c0,0.2-0.2,0.4-0.6,0.4
			c-0.6,0.1-1.3-0.1-1.9-0.2c-0.3-0.1-0.5-0.1-0.8-0.2c0.1,0.5,0.2,1,0.5,1.4c0.2,0.3,0.4,0.4,0.7,0.5c0.8,0.2,1.5,0.1,2.2,0
			c0.2,0,0.5,0,0.8,0c0.1,0,0.2,0.2,0.2,0.3c0,0.1-0.1,0.2-0.2,0.2c-0.1,0.1-0.2,0.1-0.3,0.1c-1,0.2-2,0.3-3,0.4c0,0-0.1,0-0.1,0
			c0.2,0.5,1,1.2,1.6,1.2c0.8,0,1.6-0.1,2.3-0.5c0.3-0.1,0.6-0.2,0.9,0c0.1,0,0.2,0.2,0.2,0.3c0,0.1-0.1,0.2-0.2,0.3
			c-0.2,0.1-0.4,0.2-0.7,0.2c-0.6,0-1.2,0-1.8,0c-0.2,0-0.4,0-0.7,0c0,0.1,0.1,0.2,0.1,0.2c0.2,0.3,0.5,0.5,0.7,0.7
			c0.7,0.5,2,0.4,2.5-0.2c0.1-0.1,0.3-0.2,0.4-0.2c0.2,0,0.5,0,0.8-0.1c0.1,0,0.2-0.1,0.2-0.1c0.1-0.5,0.5-0.8,1-1
			c0.5-0.1,1-0.2,1.4-0.3c0.4-0.1,1.2-0.7,1.3-1.1c0,0,0-0.1,0-0.1c0-0.4,0-0.8-0.1-1.1c0-0.3-0.1-0.3-0.4-0.2
			c-0.5,0.1-0.9,0.4-1,0.9c-0.1,0.3-0.3,0.5-0.5,0.8c-0.2,0.3-0.5,0.3-0.7,0c-0.3-0.3-0.3-0.6,0-0.9c0.2-0.2,0.3-0.4,0.5-0.6
			c0.1-0.2,0.3-0.5,0.2-0.8c-0.2-0.4-0.4-0.8-0.6-1.2c0,0-0.1-0.1-0.1-0.1c0,0.2-0.1,0.4-0.1,0.5c-0.1,0.6-0.3,1.1-0.7,1.5
			c-0.2,0.2-0.4,0.2-0.6,0c-0.2-0.1-0.3-0.4-0.1-0.6c0.1-0.2,0.2-0.4,0.4-0.5c0.2-0.2,0.3-0.4,0.4-0.6c0.2-0.7-0.1-1.3-0.3-1.9
			c0,0-0.1,0-0.1-0.1c-0.1,0.1-0.1,0.2-0.2,0.3c-0.3,0.4-0.6,0.9-1,1.3c-0.2,0.2-0.5,0.2-0.6-0.1c-0.2-0.3-0.1-0.6,0.2-0.9
			c0.2-0.2,0.4-0.4,0.6-0.5c0.6-0.5,0.8-1.1,0.5-1.7c-0.2-0.5-0.6-0.9-1-1.3c0,0,0,0-0.1,0c0,0.3-0.1,0.6-0.1,0.8
			c-0.1,0.6-0.3,1-0.9,1.3c-0.2,0.1-0.4,0.1-0.6-0.1c-0.2-0.1-0.2-0.3-0.2-0.5c0.1-0.4,0.3-0.7,0.6-1c0.5-0.5,0.9-1,1.2-1.7
			c0.2-0.5,0.1-0.9-0.1-1.4c-0.6,0.4-1.1,0.7-1.3,1.3c-0.1,0.3-0.3,0.5-0.5,0.8c-0.1,0.1-0.3,0.2-0.4,0.1c-0.1-0.1-0.2-0.3-0.2-0.4
			c0-0.2,0.1-0.4,0.2-0.6c0.2-0.3,0.4-0.6,0.6-0.9c0.2-0.3,0.2-0.5,0-0.8c-0.3-0.4-0.6-0.8-0.9-1.2c-0.1-0.1-0.2-0.2-0.2-0.4
			C29,48,29,47.7,28.9,47.5z M55.8,38.1c0-0.2,0-0.3,0-0.5c-0.1-0.8-0.5-1.4-0.9-2c-0.1-0.2-0.1-0.3-0.1-0.5c0-0.5,0-0.9-0.1-1.4
			c-0.2-1.1-0.9-1.8-1.9-2.3c-1-0.5-2-0.6-3-0.2c-0.4,0.2-0.8,0.4-1,0.7c-0.1,0.1-0.1,0.3,0,0.4c0.3,0.3,0.6,0.5,0.9,0.8
			c0,0,0.1,0.1,0.2,0.1c0.6-0.1,1.2,0.2,1.7,0.5c0.3,0.2,0.3,0.3,0,0.5c-0.5,0.3-1.3,0.3-1.6-0.4c-0.1-0.1-0.1-0.3-0.2-0.4
			c-0.3-0.4-0.7-0.7-1.1-1c0,0-0.2,0-0.2,0c-0.3,0.1-0.5,0.4-0.6,0.7c-0.1,0.2-0.1,0.3,0.1,0.5c0.1,0.1,0.2,0.2,0.3,0.3
			c0.2,0.1,0.4,0.3,0.6,0.4c0.3,0.2,0.7,0.4,1,0.7c0.2,0.2,0.2,0.5,0,0.6c-0.2,0.1-0.3,0.2-0.5,0.3c-0.1,0-0.2,0.1-0.2,0.2
			c-0.1,0.5-0.4,1-0.7,1.5c-0.4,0.5-0.8,0.8-1.2,1.3c-0.1,0.1-0.1,0.2-0.2,0.2c0.2,0.1,0.4,0.2,0.5,0.3c0.3,0.2,0.3,0.5,0,0.7
			c-0.4,0.3-0.8,0.5-1.2,0.8c-0.3,0.2-0.6,0.4-0.9,0.6c0.1,0,0.1,0,0.1,0c0.1,0,0.2,0,0.3,0c0.6,0,0.7,0,0.6,0.6
			c0,0.3-0.1,0.5-0.2,0.8c0.1,0,0.1,0,0.2,0c0.8,0.1,1.6-0.1,2.4-0.3c1.1-0.3,2.2-0.7,3.3-1.1c0.1,0,0.2,0,0.3,0
			c1.1,0.6,2.3,1,3.5,1.2c0.6,0.1,1.1,0,1.7,0.1c0.1,0,0.2-0.1,0.2-0.1c-0.1-0.4-0.2-0.8-0.6-1c-0.6-0.3-0.7-1-0.2-1.4
			c0.2-0.2,0.3-0.3,0.5-0.5c-0.3-0.1-0.5-0.2-0.7-0.2c-0.4,0-0.8,0-1.3,0.1c-0.2,0-0.3,0-0.3-0.1c-0.1-0.5-0.2-1-0.3-1.4
			c0-0.1,0.1-0.3,0.2-0.3c0.1,0,0.3,0,0.4,0.1C55.5,37.8,55.6,37.9,55.8,38.1z M40.6,62.4c0.4,0.1,1,0,1.4-0.2
			c0.9-0.4,1.5-1.1,1.8-2c0.1-0.4,0.3-0.6,0.7-0.8c0.3-0.2,0.7-0.4,1.1-0.6c0.2-0.1,0.2-0.2,0.1-0.3c-0.3-0.4-0.7-0.8-1-1.3
			c-0.6-0.8-1.1-1.7-1.6-2.5c-0.1-0.2-0.3-0.4-0.4-0.6c-0.3,0.3-0.6,0.6-0.9,1c-0.1,0.1-0.1,0.2-0.2,0.4c-0.2,0.5-0.4,1-0.9,1.3
			c-0.4,0.3-0.7,0.6-0.9,0.9c-0.3,0.4-0.5,0.8-0.8,1.2c-0.1,0.2-0.2,0.4-0.4,0.6c0,0,0,0,0,0c0.6-0.1,1.2-0.2,1.9-0.4
			c-0.2,0.6-0.5,1.2-0.7,1.8c0.8-0.2,1.5-0.3,2.1-0.4c0,0,0,0,0,0.1C41.4,61.3,41,61.8,40.6,62.4z M63.5,62.4
			c-0.5-0.6-0.9-1.2-1.3-1.8c0,0,0,0,0-0.1c0.8,0.1,1.5,0.3,2.3,0.4c-0.3-0.6-0.6-1.2-0.9-1.9c0.8,0.2,1.5,0.4,2.2,0.6
			c0,0,0,0,0-0.1c-0.2-0.4-0.5-0.7-0.7-1.1c-0.4-0.8-1-1.4-1.7-1.9c-0.3-0.2-0.5-0.5-0.7-0.9c-0.1-0.3-0.2-0.6-0.3-0.9
			c-0.2-0.3-0.4-0.5-0.6-0.7c-0.3-0.3-0.3-0.3-0.5,0.1c-0.5,1-1,1.9-1.6,2.8c-0.3,0.4-0.6,0.8-0.9,1.2c-0.1,0.1-0.1,0.2,0,0.3
			c0.3,0.2,0.5,0.5,0.8,0.7c0.4,0.3,0.7,0.8,1,1.3c0.4,0.9,1.1,1.6,2.1,1.9C62.9,62.4,63.1,62.5,63.5,62.4z M53.6,67.7
			c-0.1-0.6-0.1-1.1-0.2-1.6c-0.1-0.5-0.2-0.9-0.5-1.3c-0.2-0.3-0.4-0.4-0.8-0.3c-0.1,0-0.2,0.1-0.4,0c-0.2,0-0.4,0.1-0.5,0.2
			C51.2,65,51,65.2,51,65.4c-0.4,1.1-0.5,2.2-0.5,3.4c-0.1,0.9,0,1.9,0,2.8c0,0.1,0,0.2,0,0.3c0.3,0.7,1.2,1.3,2.1,1
			c0.6-0.2,1.1-0.9,1.1-1.5c0-0.4,0-0.7,0-1.1C53.7,69.4,53.7,68.5,53.6,67.7z M76.8,57.2C76.8,57.2,76.9,57.3,76.8,57.2
			c1.4-2,2.6-4,3.9-6c0,0,0,0-0.1-0.1c-0.1,0-0.1,0-0.2,0.1c-0.6,0.3-1.2,0.5-1.7,0.8c-1.4,0.6-2.8,1.3-4.2,1.9
			c-0.2,0.1-0.3,0.3-0.4,0.5c0.4,0.2,0.9,0.3,1.3,0.5c-0.1,0.1-0.1,0.1-0.2,0.2c-0.9,0.8-1.8,1.6-2.6,2.4c-0.3,0.3-0.7,0.6-0.9,0.9
			c-0.6,0.9-1.2,1.9-1.7,2.9c0,0.1-0.1,0.2-0.1,0.3c0,0,0,0,0.1,0c2.1-2,4.3-4,6.4-6C76.6,56.2,76.7,56.7,76.8,57.2z M62.3,60.7
			c0.1,0.1,0.1,0.2,0.1,0.2c0.3,0.4,0.7,0.8,1,1.3c0.1,0.2,0.3,0.3,0.5,0.2c0.1,0,0.1,0,0.2,0c0.4,0.2,0.9,0.3,1.2,0.7
			c0.1,0.1,0.3,0.3,0.3,0.4c0,0.3,0.1,0.3,0.4,0.3c0.6,0,1.2,0.1,1.8,0.5c0.3,0.2,0.6,0.5,0.8,0.9c0,0.1,0.1,0.1,0.2,0.1
			c0-0.1,0.1-0.1,0.1-0.2c0-0.3-0.1-0.7-0.1-1c-0.2-0.6-0.5-1-1-1.3c0,0-0.1,0-0.1,0c0,0,0.1-0.1,0.1-0.1c1.1,0.5,1.3,1.5,1.3,2.6
			c0.3-0.3,0.6-0.6,0.6-0.9c0-0.9-0.2-1.8-1.3-2c0.3,0,0.6,0.1,0.8,0.3c0.5,0.4,0.6,1,0.6,1.7c0,0.3,0.1,0.4,0.4,0.2
			c0.1-0.1,0.2-0.2,0.2-0.4c-0.1-0.5-0.1-1-0.2-1.5c-0.1-0.4-0.4-0.7-0.8-0.8c-0.4-0.1-0.8-0.1-1.3-0.1c-0.6,0-1.1-0.2-1.4-0.7
			c-0.3-0.4-0.5-0.8-0.8-1.2c0-0.1-0.1-0.1-0.2-0.1c-0.4-0.1-0.8-0.2-1.2-0.3c-0.2-0.1-0.5-0.1-0.7-0.2c0,0,0,0,0,0.1
			c0.3,0.6,0.5,1.2,0.8,1.8C63.9,61,63.1,60.9,62.3,60.7z M40.2,59.4c-0.1,0-0.1,0-0.2,0c-0.4,0.1-0.9,0.2-1.3,0.2
			c-0.3,0-0.5,0.2-0.6,0.4c-0.3,0.4-0.6,0.7-0.9,1.1c-0.3,0.3-0.6,0.6-1.1,0.6c-0.5,0-0.9,0.2-1.4,0.3c-0.5,0.1-0.8,0.4-0.9,1
			c-0.1,0.6,0.1,1.1,0.4,1.6c0,0.1,0.1,0.1,0.2,0.2c0,0,0,0,0.1,0c-0.1-0.5-0.2-1,0-1.5c0.2-0.5,0.9-0.9,1.2-0.8c0,0,0,0,0,0
			c0,0-0.1,0-0.1,0c-0.4,0.1-0.8,0.3-0.9,0.7c-0.2,0.4-0.1,0.9-0.1,1.3c0,0.1,0,0.2,0.1,0.2c0.2,0.1,0.5,0.3,0.7,0.4c0,0,0,0,0,0
			c-0.1-0.5-0.2-1,0-1.5c0.2-0.5,0.8-1,1.1-0.9c-0.1,0-0.1,0.1-0.2,0.1c-0.2,0.1-0.3,0.2-0.5,0.3c-0.5,0.4-0.5,0.9-0.4,1.5
			c0,0.3,0.2,0.5,0.4,0.6c0.1,0,0.2,0,0.3-0.1c0,0,0-0.1,0-0.2c-0.1-0.2-0.1-0.4-0.2-0.6c-0.1-0.4,0.3-0.7,0.7-0.6
			c0.2,0,0.4,0.2,0.6,0.3c0.1,0,0.2,0.1,0.3,0.2c0-0.1,0.1-0.1,0.1-0.2c0.3-0.5,0.6-0.9,1.1-1.2c0.5-0.3,0.9-0.6,1.5-0.4
			c0.1,0,0.2-0.1,0.2-0.1c0.2-0.2,0.4-0.5,0.5-0.7c0.2-0.2,0.4-0.5,0.5-0.7c0,0,0,0,0,0c-0.7,0.1-1.4,0.3-2.1,0.4
			C39.7,60.6,39.9,60,40.2,59.4z M66.3,49.6C66.3,49.6,66.3,49.6,66.3,49.6c0.1,0,0.1,0,0.2,0c0.5,0.4,0.9,0.9,1.4,1.3
			c0.2,0.3,0.5,0.4,0.9,0.4c0.2,0,0.3,0,0.5,0c0.8-0.2,1.1-0.7,1-1.5c0-0.1-0.1-0.1-0.1-0.2c-0.6-0.4-1.2-0.7-1.8-1.1
			c-0.2-0.1-0.4-0.3-0.7-0.4c0,0.2-0.1,0.3-0.1,0.4c-0.2,0.5-0.6,0.8-1.1,0.9c-0.2,0.1-0.4,0.1-0.5,0.4c-0.4,0.6-0.9,0.9-1.7,0.8
			c-0.1,0-0.2,0-0.2,0.1c-0.1,0.2-0.3,0.3-0.4,0.5c-0.1,0.1-0.2,0.2-0.2,0.3c-0.1,0.4-0.1,0.7-0.1,1.1c0,0.2,0.1,0.2,0.2,0.2
			c0.8,0.2,1.5,0,2-0.7c0.1-0.1,0.1-0.2,0-0.3c-0.1-0.3-0.2-0.5-0.3-0.7c-0.1-0.2-0.1-0.4,0-0.6c0,0.1,0,0.2,0,0.3
			c0.1,0.4,0.3,0.7,0.4,1.1c0.1,0.2,0.2,0.3,0.4,0.3c0.8,0.2,1.4-0.1,1.8-0.8c0.1-0.1,0.1-0.2,0-0.3c-0.4-0.4-0.8-0.8-1.3-1.2
			C66.4,49.8,66.4,49.7,66.3,49.6z M37.8,49.5C37.8,49.5,37.9,49.5,37.8,49.5c0,0.1,0,0.1,0,0.1c-0.4,0.4-0.9,0.9-1.3,1.3
			c-0.3,0.2-0.3,0.2-0.1,0.5c0.4,0.7,1.1,0.9,1.9,0.6c0.1,0,0.1-0.1,0.2-0.2c0.2-0.5,0.5-0.9,0.5-1.4c0,0,0,0,0.1,0
			c0,0.1,0,0.1,0,0.2c-0.1,0.3-0.2,0.7-0.3,1c-0.1,0.2-0.1,0.3,0.1,0.5c0.6,0.6,1.3,0.8,2.1,0.6c0.1,0,0.1-0.1,0.1-0.2
			c0-0.3,0-0.6,0-0.9c0-0.3-0.1-0.5-0.3-0.6c-0.1-0.1-0.2-0.2-0.3-0.3c-0.1-0.3-0.3-0.3-0.5-0.3c-0.5,0.1-1-0.1-1.2-0.5
			c-0.3-0.4-0.6-0.6-1-0.8c-0.5-0.2-0.8-0.6-0.9-1.2c-0.1,0-0.2,0.1-0.2,0.1c-0.7,0.5-1.5,0.9-2.2,1.4c-0.1,0-0.1,0.1-0.2,0.2
			c-0.2,0.6,0.2,1.3,0.9,1.5c0.5,0.1,0.9,0.2,1.4-0.2c0.3-0.2,0.5-0.5,0.8-0.7C37.3,50,37.6,49.8,37.8,49.5z M32.6,44.5
			C32.6,44.4,32.6,44.4,32.6,44.5c0-0.1,0-0.1-0.1-0.1c-0.6-0.2-0.9-0.9-0.8-1.5c0-0.1,0-0.3,0-0.3c-0.1,0-0.2,0-0.4,0
			c-0.2,0.1-0.5,0.2-0.7,0.2c-1.4,0.2-2.8,0.1-4.3-0.1c-0.8-0.1-1.5-0.2-2.3-0.3c-0.1,0-0.2,0-0.3,0c0,0.1,0.1,0.2,0.1,0.3
			c0.6,1.3,1.7,1.7,3.1,1.9c0.8,0.1,1.6,0.1,2.4,0.1c0.9,0,1.7,0,2.6,0C32.2,44.6,32.4,44.5,32.6,44.5z M80.3,42.4
			c-0.1,0-0.3,0-0.4,0c-0.8,0.1-1.6,0.3-2.5,0.3c-1,0.1-2.1,0.1-3.1,0.1c-0.5,0-1-0.1-1.5-0.3c-0.2-0.1-0.3-0.1-0.4,0
			c0,0.4,0,0.8-0.1,1.1c-0.1,0.4-0.4,0.6-0.8,0.8c0.1,0.1,0.2,0.1,0.3,0.1c0.3,0,0.7,0.1,1,0.1c1.5-0.1,3-0.1,4.5-0.2
			c0.9-0.1,1.8-0.4,2.4-1.1C80,43.1,80.2,42.8,80.3,42.4z M52.5,64.3c0.5,0.2,0.7,0.6,0.8,1c0.4,1.2,0.4,2.4,0.5,3.7
			c0,0.9,0,1.7,0,2.6c0,0.2,0.1,0.3,0.2,0.3c0.1,0,0.3,0,0.4,0c0.6-0.2,1.1-1.1,1-1.7c-0.1-0.8-0.3-1.6-0.4-2.4
			c-0.2-0.9-0.4-1.7-0.8-2.5c-0.3-0.5-0.6-1-1.2-1.2c0,0,0,0,0,0c0.6-0.4,0.8-0.9,0.4-1.4c-0.2,0.1-0.3,0.2-0.5,0.3
			c0,0-0.1,0.1-0.1,0.1C52.9,63.5,52.8,63.9,52.5,64.3z M51.6,64.4c-0.2-0.3-0.7-0.4-1-0.1c-0.1,0.1-0.3,0.3-0.4,0.4
			c-0.6,0.9-0.8,1.9-1,3c-0.2,0.7-0.3,1.5-0.4,2.2c-0.1,0.4-0.2,0.8,0.1,1.2c0.3,0.5,0.7,0.8,1.3,0.6c0.1,0,0.2-0.1,0.1-0.2
			c0-0.3,0-0.7,0-1c0-1.5,0-3,0.4-4.5C50.8,65.4,50.9,64.8,51.6,64.4z M50.9,64c-0.1-0.1-0.1-0.1-0.2-0.2c-0.2-0.3-0.2-0.3-0.5,0
			c0,0,0,0-0.1,0.1c-0.5,0.6-1,1.2-1.5,1.9c-0.7,0.9-1.2,2-1.5,3.1c-0.1,0.2-0.2,0.5-0.1,0.7c0.2,0.5,0.5,1,1.1,1.1
			c0.3,0.1,0.4,0,0.4-0.3c0.1-0.8,0.3-1.7,0.4-2.5c0.2-0.9,0.4-1.7,0.7-2.5C50,64.8,50.2,64.2,50.9,64z M33.9,46.1
			C33.9,46.1,33.9,46,33.9,46.1C33.9,46,33.8,46,33.8,46c-0.4-0.1-0.8-0.3-0.8-0.8c0-0.2,0-0.3,0-0.5c0-0.1,0-0.2,0-0.2
			c-0.1,0-0.1,0-0.2,0c-0.3,0.1-0.5,0.2-0.8,0.2c-1.4,0.1-2.8,0-4.2-0.1c-0.2,0-0.4,0-0.6,0c0,0,0,0,0,0.1c0.2,0.2,0.3,0.3,0.5,0.5
			c0.5,0.4,1.1,0.8,1.8,0.9c0.7,0.1,1.3,0.2,2,0.3c0.7,0.1,1.4,0.1,2,0C33.7,46.3,33.8,46.2,33.9,46.1z M70.2,46.2
			c0.1,0,0.2,0.1,0.3,0.1c0.4,0.1,0.8,0.2,1.2,0.2c1-0.1,2-0.2,3-0.4c0.9-0.1,1.6-0.6,2.2-1.2c0,0,0.1-0.1,0.1-0.2
			c-0.1,0-0.1,0-0.1,0c-0.1,0-0.3,0-0.4,0c-1.3,0.1-2.6,0.2-3.9,0.2c-0.4,0-0.8,0-1.2-0.3c0,0-0.1,0-0.2,0c0,0,0,0.1,0,0.2
			c0.1,0.4,0.1,0.7-0.2,1C70.8,45.9,70.5,46,70.2,46.2z M55.6,70.6c0.1,0,0.2,0,0.2,0c0.8-0.2,1.3-0.7,1.1-1.7
			c-0.1-0.6-0.4-1.2-0.7-1.8c-0.6-1-1.3-1.9-2-2.8c-0.2-0.3-0.5-0.5-0.8-0.8c-0.1,0.1-0.2,0.2-0.4,0.3c0.6,0.3,1,0.9,1.2,1.5
			c0.3,0.8,0.5,1.6,0.7,2.4c0.1,0.5,0.2,1.1,0.3,1.6C55.5,69.8,55.6,70.2,55.6,70.6z M54.8,63.1c0.1,0,0.1,0,0.1,0
			c0.7,0.2,1.4,0.5,2,1c1,0.9,1.7,2,2.1,3.2c0,0.1,0.1,0.2,0.2,0.1c0.4-0.2,0.6-0.7,0.5-1.1c-0.1-0.4-0.3-0.8-0.5-1.2
			c-0.8-1.5-1.9-2.5-3.7-2.5c-0.1,0-0.1,0-0.2,0c0,0,0,0,0-0.1c0.3-0.1,0.7-0.3,0.8-0.7c0.1-0.4,0.1-0.7-0.1-1.1
			c-0.2,0.1-0.3,0.3-0.5,0.4c-0.1,0.1-0.2,0.2-0.1,0.3c0.1,0.5-0.1,1-0.5,1.4C54.8,63,54.8,63,54.8,63.1z M65.8,64.7
			C65.8,64.7,65.8,64.7,65.8,64.7c0.4-0.1,0.7-0.1,0.9-0.5c0.1-0.2,0.1-0.2-0.1-0.2c-0.2,0-0.3,0-0.5,0c-0.3,0-0.5,0-0.7,0.3
			c-0.1,0.2-0.3,0.3-0.6,0.3c-0.2,0-0.5,0.1-0.7,0.1c-0.2,0-0.5,0-0.7,0.2c-1,0.7-1.9,1.4-2.8,2.2c0,0-0.1,0.1-0.1,0.2
			c0.1,0,0.2,0,0.3,0.1c0.4,0.1,0.9,0.1,1.3,0.2c0.4,0.1,0.8,0.1,1.1-0.3c0.4-0.5,1-0.8,1.3-1.4c0-0.1,0.1-0.1,0.2-0.2
			c0.6-0.2,1.1-0.6,1.5-1c0.1-0.1,0.2-0.1,0.2-0.2c0,0,0,0,0,0C66.1,64.4,65.9,64.6,65.8,64.7z M45.1,67.4c0-0.1,0-0.1,0-0.2
			c0.1-0.2,0.1-0.5,0.2-0.7c0.5-1.1,1.4-1.9,2.4-2.6c0.4-0.3,0.9-0.6,1.4-1c-0.1-0.1-0.1-0.2-0.2-0.2c-0.2,0-0.5-0.1-0.6-0.2
			c0,0-0.1,0-0.1,0c-0.4,0.1-0.7,0.2-1.1,0.4c-1.4,0.7-2.2,1.8-2.6,3.3C44.2,66.6,44.5,67.3,45.1,67.4z M50.3,63.7
			c-0.3-0.3-0.5-0.2-0.8,0c-0.7,0.6-1.5,1.2-2.1,1.9c-0.6,0.8-1.1,1.6-1.4,2.6c-0.1,0.4,0,0.8,0.3,1c0.1,0.1,0.2,0.1,0.4,0.2
			c0.2,0.1,0.2,0,0.3-0.2c0.1-0.4,0.2-0.8,0.3-1.1c0.5-1.3,1.3-2.5,2.2-3.6C49.8,64.2,50.1,63.9,50.3,63.7z M40.5,69
			c0-0.1,0-0.1,0-0.1c-0.1-0.5-0.2-1,0.2-1.4c0,0,0-0.1,0-0.2c-1-0.9-2-1.7-2.9-2.6c-0.1-0.1-0.2-0.2-0.3-0.3
			c-0.1-0.4-0.4-0.5-0.7-0.6c-0.3-0.1-0.5,0-0.6,0.2c-0.1,0.2-0.1,0.4,0.1,0.6c1.3,1.4,2.7,2.7,4,4.1C40.3,68.9,40.4,68.9,40.5,69z
			 M57,60c-0.1,0.1-0.1,0.1-0.2,0.1c-0.2,0.1-0.3,0.3-0.5,0.4c-0.1,0.1-0.2,0.2-0.1,0.4c0.2,0.6,0.1,1.1-0.3,1.5c0,0,0,0,0,0.1
			c0.1,0,0.1,0,0.2,0c0.5,0.1,1,0.2,1.5,0.5c1.1,0.7,1.7,1.7,2.1,2.9c0,0.1,0.1,0.2,0.1,0.3c0.1-0.1,0.2-0.2,0.3-0.3
			c0.3-0.3,0.4-0.6,0.2-1.1c-0.2-0.5-0.4-0.9-0.8-1.3c-0.6-0.7-1.3-1.3-2.2-1.5c-0.3-0.1-0.6-0.1-0.9-0.2C56.9,61.3,57,60.7,57,60z
			 M54.2,63.5c0.2,0.1,0.4,0.1,0.6,0.2c0.8,0.4,1.3,1,1.8,1.7c0.7,0.9,1.2,1.9,1.7,3c0.1,0.2,0.2,0.2,0.3,0.1
			c0.3-0.2,0.4-0.7,0.3-1.1c-0.1-0.4-0.3-0.8-0.5-1.2c-0.7-1.5-1.9-2.5-3.5-3C54.5,63.1,54.5,63.1,54.2,63.5z M53.8,63.7
			c0.1,0.1,0.1,0.1,0.1,0.2c0.9,0.9,1.7,1.9,2.3,3c0.4,0.7,0.8,1.5,0.9,2.4c0,0.2,0.1,0.3,0.3,0.2c0.3-0.1,0.5-0.3,0.7-0.6
			c0-0.1,0.1-0.3,0-0.3c-0.5-1.1-1.1-2.2-1.8-3.2c-0.4-0.6-0.9-1.1-1.6-1.5C54.4,63.6,54.1,63.5,53.8,63.7z M44.2,66.1
			c0-0.1,0.1-0.2,0.1-0.3c0.4-1.2,1-2.1,2.1-2.7c0.4-0.3,0.9-0.4,1.4-0.7c0.1,0,0.3,0,0.2-0.2c-0.2-0.5-0.2-0.9-0.1-1.4
			c0,0,0-0.1,0-0.1c-0.2-0.2-0.5-0.4-0.8-0.7c0,0.6,0.1,1,0.3,1.4c0.2,0.3,0.2,0.3-0.2,0.4c0,0-0.1,0-0.1,0
			c-1.6,0.4-2.8,1.3-3.3,2.9C43.6,65.3,43.8,65.9,44.2,66.1z M45.9,68.5c0-0.1,0-0.1,0.1-0.2c0.2-1.1,0.7-2,1.5-2.8
			c0.7-0.8,1.4-1.4,2.3-2c0.1,0,0.1-0.1,0.1-0.2c0-0.1-0.1-0.2-0.1-0.2C49.3,63,49,63,48.7,63.2c-0.2,0.2-0.4,0.3-0.6,0.4
			c-0.9,0.6-1.7,1.3-2.3,2.1c-0.5,0.6-0.7,1.2-0.6,2C45.3,68.2,45.5,68.4,45.9,68.5z M30.1,46.2c0.2,0.5,0.4,0.9,0.8,1.2
			c1.2,1,2.6,0.6,3.6-0.4c0.1-0.1,0.1-0.2,0.1-0.2c0-0.2-0.1-0.4-0.2-0.6C34.3,46,34.2,46,34,46.1c-0.1,0.1-0.2,0.2-0.4,0.2
			c-0.6,0.2-1.2,0.2-1.8,0.1C31.3,46.4,30.7,46.3,30.1,46.2z M74,46.3c-0.2,0-0.4,0.1-0.5,0.1c-0.7,0.1-1.4,0.2-2.1,0.2
			c-0.5,0-1,0-1.3-0.4c-0.1-0.1-0.2-0.1-0.3,0.1c0,0.2-0.1,0.3-0.1,0.5c-0.1,0.2-0.1,0.3,0.1,0.5c0.7,0.6,1.4,1,2.4,0.8
			C72.9,47.9,73.8,47.1,74,46.3z M45.7,34.9c0.1,0,0.2-0.1,0.2-0.1c0.4-0.2,0.8-0.1,1.2,0.2c0.3,0.2,0.7,0.5,1,0.7
			c0.4,0.2,0.9,0.2,1.3-0.1c0.3-0.2,0.3-0.4,0-0.6c-0.3-0.2-0.6-0.4-0.9-0.6c-0.5-0.2-0.8-0.6-1.1-1C46.6,33.5,45.8,34.3,45.7,34.9z
			 M67.8,48.1C67.8,48.1,67.8,48.1,67.8,48.1c0.1,0.1,0.1,0.2,0.2,0.2c0.6,0.4,1.2,0.8,1.8,1.2c0.3,0.2,0.7,0.2,0.9-0.2
			c0.1-0.3,0.2-0.6,0.2-0.9c0-0.2,0-0.3-0.2-0.4c-0.4-0.2-0.8-0.5-1.2-0.8C69.1,47.7,68.5,48,67.8,48.1z M34.6,47
			c-0.4,0.4-0.8,0.7-1.2,0.9c-0.1,0-0.2,0.1-0.2,0.2c0,0.4,0,0.8,0.2,1.1c0.2,0.2,0.5,0.4,0.8,0.2c0.4-0.3,0.9-0.5,1.3-0.8
			c0.3-0.2,0.5-0.3,0.8-0.5C35.6,47.9,35,47.6,34.6,47z M72.2,57.7C72.2,57.7,72.3,57.7,72.2,57.7c1.1-0.9,2.1-1.8,3.1-2.8
			c-0.4-0.2-0.8-0.3-1.2-0.5C73.5,55.6,72.9,56.6,72.2,57.7z M40.9,69.5c0.5-0.5,1-0.9,1.6-1.3c-0.3-0.4-0.7-0.6-1.2-0.6
			c-0.4,0-0.7,0.1-0.8,0.6C40.4,68.6,40.6,69,40.9,69.5z M75.8,51.5c-0.4,0.7-0.9,1.5-1.3,2.2c0,0,0,0,0,0c0.7-0.3,1.3-0.6,2-0.9
			c-0.2-0.4-0.4-0.8-0.6-1.2C75.9,51.6,75.9,51.6,75.8,51.5z M73.3,50.8c-0.1,0.8-0.1,1.6-0.2,2.4c0,0,0,0,0,0
			c0.5-0.8,0.9-1.5,1.4-2.3c-0.2,0-0.4,0-0.6-0.1C73.7,50.8,73.5,50.8,73.3,50.8z M51.4,63c-0.1,0.4-0.2,0.7,0,1.1
			c0.1,0.2,0.4,0.4,0.6,0.4c0.7-0.2,0.9-1.1,0.6-1.5c-0.2,0.1-0.4,0.2-0.6,0.3C51.9,63.2,51.7,63.1,51.4,63z M63.1,72.2
			C63.2,72.2,63.2,72.2,63.1,72.2c0.5-0.1,0.9-0.3,1.3-0.5c0,0,0.1-0.2,0-0.2c-0.1-0.3-0.2-0.5-0.4-0.8c0-0.1-0.1-0.1-0.2-0.1
			c-0.1,0-0.3,0.1-0.3,0.1C63.4,71.3,63.3,71.7,63.1,72.2z M48,60.9c-0.1,0.5-0.1,0.9,0,1.3c0.1,0.4,0.4,0.5,0.7,0.5
			c0-0.4,0-0.7,0-1.1c0,0,0-0.1-0.1-0.1C48.5,61.2,48.3,61,48,60.9z M49.8,33.3c0,0.4,0.3,0.8,0.5,0.9c0.4,0.1,0.7,0.1,1.1-0.1
			c0.1-0.1,0.1-0.2,0-0.3c-0.2-0.1-0.5-0.3-0.7-0.3C50.4,33.4,50.1,33.4,49.8,33.3z M54.5,62.4c0-0.1,0-0.1,0-0.2
			c0-0.2-0.1-0.2-0.2-0.1c-0.2,0.1-0.4,0.3-0.6,0.4c-0.1,0.1-0.1,0.1-0.1,0.3c0,0.2,0.1,0.5,0.1,0.7c0,0.2,0,0.2,0.2,0.2
			C54.3,63.4,54.5,63,54.5,62.4z M29.1,62.4c0.1,0,0.2,0,0.3,0c0.6,0,1.1,0,1.7,0c0.3,0,0.6-0.2,0.9-0.3c0.1,0,0.1-0.1,0.1-0.2
			c0-0.1-0.1-0.2-0.2-0.2c-0.3,0-0.5-0.1-0.7,0C30.5,62.2,29.8,62.3,29.1,62.4z M71,56.9C71,56.9,71,56.9,71,56.9
			c0.5-0.7,0.9-1.4,1.3-2.1c-0.2-0.2-0.3-0.3-0.5-0.5C71.5,55.2,71.2,56,71,56.9z M50.5,63.5c0-0.3,0-0.7-0.1-1c0,0,0-0.1,0-0.1
			c-0.2-0.1-0.4-0.3-0.7-0.4C49.4,62.8,49.7,63.5,50.5,63.5z M50.6,62.5c-0.2,0.6,0.3,1.5,0.7,1.6c0-0.3,0-0.7,0.1-1
			c0,0,0-0.1-0.1-0.1C51,62.8,50.8,62.7,50.6,62.5z M49.5,63c0-0.3,0.1-0.6,0.1-0.9c0,0,0-0.1,0-0.1c-0.2-0.1-0.4-0.3-0.6-0.4
			c0,0-0.1,0-0.1,0c0,0.3,0,0.7,0.1,1C49,62.9,49.3,63,49.5,63z M54.6,63c0.5-0.1,0.8-1,0.6-1.5c-0.2,0.1-0.4,0.2-0.5,0.4
			c0,0-0.1,0.1-0.1,0.1C54.6,62.3,54.6,62.6,54.6,63z M62.6,68.3C62.7,68.3,62.7,68.3,62.6,68.3c0.4-0.5,0.7-1.1,1-1.7
			c0,0-0.1,0-0.1-0.1c-0.3,0.3-0.6,0.5-0.9,0.8c0,0,0,0.1,0,0.1C62.6,67.8,62.6,68.1,62.6,68.3z"/>
		<path d="M9.2,44.1c1.7,0,3.4,0,5.1,0c-0.1,0.3-0.2,0.6-0.4,0.9c-0.1,0.2-0.1,0.5-0.1,0.7c0.3,1,0.5,2.1,0.8,3.1
			c0.3,1.1,0.5,2.1,0.8,3.2c0.1,0.5,0.2,0.9,0.4,1.4c0-0.1,0.1-0.1,0.1-0.1c0.4-1.3,0.8-2.5,1.2-3.8c0.4-1.3,0.8-2.7,1.2-4
			c0-0.1,0-0.2,0-0.2c-0.3-0.4-0.6-0.8-0.9-1.2c1.8,0,3.5,0,5.3,0c-0.1,0.1-0.2,0.2-0.3,0.3c-0.3,0.3-0.6,0.6-0.8,0.9
			c-0.1,0.1-0.2,0.3-0.2,0.5c-0.7,1.9-1.3,3.8-2,5.7c-0.7,1.9-1.3,3.7-2,5.6c0,0.1,0,0.2,0,0.3c0.3,0.5,0.7,1,1,1.5
			c-1.7,0-3.4,0-5.1,0c0.3-0.5,0.7-1,1-1.4c0.1-0.1,0.1-0.3,0.1-0.4c-0.6-1.7-1.2-3.4-1.7-5c-0.6-1.8-1.2-3.7-1.9-5.5
			c-0.1-0.3-0.2-0.5-0.3-0.8c-0.1-0.3-0.3-0.5-0.5-0.8C9.8,44.7,9.5,44.4,9.2,44.1z M9.5,44.2c0.1,0.1,0.2,0.2,0.2,0.2
			c0.4,0.5,0.9,0.9,1.1,1.5c0.4,1.3,0.9,2.6,1.3,3.8c0.4,1.1,0.8,2.3,1.2,3.4c0.5,1.3,0.9,2.6,1.4,4c0,0.1,0,0.2,0,0.3
			c-0.2,0.4-0.5,0.7-0.7,1.1c0,0.1-0.1,0.1-0.2,0.3c1.5,0,3.1,0,4.6,0c-0.1-0.1-0.1-0.2-0.2-0.3c-0.2-0.3-0.5-0.7-0.7-1
			c-0.1-0.1-0.1-0.2-0.1-0.4c0.2-0.5,0.3-0.9,0.5-1.4c0.3-0.9,0.6-1.8,0.9-2.7c0.4-1.3,0.9-2.5,1.3-3.8c0.4-1.1,0.8-2.2,1.1-3.3
			c0.1-0.4,0.3-0.8,0.7-1.1c0.2-0.1,0.3-0.3,0.4-0.5c0,0,0.1-0.1,0.1-0.2c-1.6,0-3.1,0-4.7,0c0,0.1,0,0.1,0.1,0.2
			c0.2,0.3,0.4,0.5,0.6,0.8c0.1,0.1,0.1,0.3,0.1,0.4c-0.2,0.5-0.3,1-0.5,1.5c-0.3,0.8-0.5,1.7-0.8,2.5c-0.3,1-0.6,2.1-1,3.1
			c-0.1,0.3-0.2,0.7-0.3,1c0-0.1-0.1-0.1-0.1-0.1c-0.1-0.6-0.3-1.1-0.4-1.7c-0.3-1-0.5-2-0.8-3c-0.3-1.1-0.6-2.2-0.9-3.4
			c0-0.1,0-0.3,0-0.4c0-0.2,0.1-0.3,0.2-0.5c0.1-0.1,0.1-0.3,0.2-0.4C12.6,44.2,11.1,44.2,9.5,44.2z"/>
		<path d="M88.6,44.4c-0.2,0.3-0.5,0.7-0.7,1c-0.1,0.1-0.1,0.2-0.1,0.3c0,1.8,0,3.6,0,5.4c0,2.2,0,4.3,0,6.5c0,0.1,0.1,0.2,0.1,0.3
			c0.3,0.3,0.6,0.7,0.9,1.1c-1.7,0-3.4,0-5.1,0c0.3-0.4,0.6-0.7,0.9-1.1c0.1-0.1,0.2-0.3,0.2-0.5c0-2.1,0-4.3,0-6.4c0-1.7,0-3.3,0-5
			c0-0.5-0.3-0.7-0.5-1c-0.1-0.2-0.3-0.4-0.5-0.6C85.4,44.4,87,44.4,88.6,44.4z M88.6,58.7c-0.1-0.1-0.1-0.2-0.1-0.2
			c-0.2-0.2-0.4-0.4-0.6-0.6c-0.2-0.2-0.2-0.3-0.2-0.5c0-1.2,0-2.4,0-3.5c0-1.6,0-3.3,0-4.9c0-1.1,0-2.2,0-3.3
			c0-0.1,0.1-0.3,0.1-0.4c0.2-0.3,0.3-0.5,0.5-0.8c-1.5,0-2.9,0-4.4,0c0.2,0.2,0.4,0.5,0.6,0.6c0.2,0.2,0.3,0.4,0.3,0.7
			c0,1.1,0,2.2,0,3.3c0,2.8,0,5.5,0,8.3c0,0.1-0.1,0.3-0.1,0.4c-0.2,0.2-0.3,0.4-0.5,0.6c-0.1,0.1-0.1,0.2-0.2,0.4
			C85.6,58.7,87.1,58.7,88.6,58.7z"/>
		<path class="st0" d="M52,48.2c-2.4,0-4.7,0-7.1,0c-1.2,0-2.4,0-3.5,0c-0.2,0-0.2,0-0.3-0.2c-0.1-1.1-0.1-2.2,0-3.3
			c0.1-1,0.3-2,0.5-3c0-0.2,0.1-0.2,0.3-0.1c0.7,0.3,1.5,0.7,2.2,0.9c1.2,0.4,2.4,0.6,3.6,0.4c0.8-0.2,1.6-0.4,2.4-0.6
			c0.6-0.2,1.1-0.4,1.7-0.6c0.1,0,0.3,0,0.4,0c0.8,0.4,1.6,0.8,2.5,1c0.9,0.2,1.8,0.4,2.7,0.2c1.3-0.2,2.5-0.5,3.7-0.9
			c0.4-0.1,0.8-0.3,1.2-0.4c0.1-0.1,0.2,0,0.2,0.1c0.1,0.7,0.2,1.4,0.3,2.1c0.1,0.8,0.1,1.6,0.1,2.5c0,0.6-0.1,1.2-0.1,1.7
			c0,0.2-0.1,0.3-0.3,0.3c-2.7,0-5.4,0-8.2,0C53.6,48.2,52.8,48.2,52,48.2z"/>
		<path class="st1" d="M72.9,38.2c0.7-0.1,1.3-0.2,2-0.3c0.1,0,0.2,0,0.2,0c0.3,0.5,0.6,0.9,0.4,1.5c-0.2,0.5-0.5,0.7-1,0.8
			c-0.3,0.1-0.6,0.2-0.9,0.3c0.1,0.2,0.3,0.3,0.4,0.5c0.2,0.3,0.1,0.6-0.2,0.8c-0.4,0.2-0.7,0.3-1.1,0.5c0,0-0.1,0-0.2,0
			c-0.2,0-0.3,0.1-0.2,0.3c0.1,0.5,0,0.9-0.3,1.3c-0.2,0.2-0.4,0.3-0.7,0.4c-0.2,0.1-0.2,0.1-0.2,0.3c0.2,0.6-0.1,1.1-0.7,1.2
			c-0.2,0-0.4,0-0.6,0.1c-0.1,0.1-0.1,0.4-0.2,0.5c-0.2,0.8-0.9,1.2-1.7,1.3c-0.4,0-0.4,0-0.6,0.5c-0.1,0.5-0.4,0.7-0.9,0.9
			c-0.1,0.1-0.3,0.1-0.5,0.1c-0.1,0-0.2,0.1-0.2,0.2c-0.2,0.4-0.4,0.7-0.9,0.8c-0.3,0.1-0.6,0-0.9,0c-0.1,0-0.2,0-0.2,0.1
			c-0.1,0.5-0.5,0.7-1,0.7c0,0-0.1,0-0.1,0.1c0.2,0,0.3,0,0.4,0c0,0.5,0,1-0.1,1.5c0,0.2-0.3,0.6-0.6,0.7c-0.2,0-0.5,0-0.7,0
			c-0.1,0-0.2-0.1-0.1-0.2c0.3-0.8,0.6-1.6,0.8-2.4c0.3-1,0.5-1.9,0.5-2.9c0.1-0.9,0.1-1.9,0.1-2.8c0-0.1,0-0.1,0-0.2c0,0,0,0,0-0.1
			c0.3,0.2,0.5,0.4,0.8,0.5c0.4,0.2,0.7,0.4,1.1,0.3c0.7-0.2,1.1-1.1,0.8-1.6c-0.1-0.2-0.3-0.4-0.6-0.5c-0.2-0.1-0.5-0.2-0.7-0.3
			c-0.4-0.1-0.8-0.4-1-0.8c-0.4-0.8-0.6-1.7-0.4-2.6c0.1-0.5,0.4-1,0.7-1.4c0.7-0.8,1.6-1.4,2.6-1.7c0.6-0.2,1.2-0.2,1.8-0.2
			c0.4,0,0.9,0,1.3,0c0.3,0,0.6-0.1,0.9-0.2c0.7-0.2,1.3-0.3,2-0.5c1-0.3,2-0.5,3-0.8c0.1,0,0.3-0.1,0.4-0.1c0.2,0,0.3-0.1,0.4,0.1
			c0.2,0.2,0.4,0.4,0.6,0.7c0.4,0.5,0.2,1.2-0.3,1.5c-0.5,0.3-1.1,0.5-1.6,0.6c-0.6,0.1-1.2,0.2-1.9,0.3
			C73,38.1,72.9,38.1,72.9,38.2C72.9,38.2,72.9,38.2,72.9,38.2z M68.6,37.9C68.6,37.9,68.6,37.9,68.6,37.9
			C68.5,37.9,68.5,37.9,68.6,37.9c-0.7,0.1-1.1,0.5-1.4,1c-0.4,0.7-0.4,1.5-0.4,2.2c0,0,0,0,0.1,0.1c0-0.1,0-0.2,0-0.2
			c0-0.4,0-0.9,0.1-1.3c0.2-0.9,0.6-1.5,1.5-1.8C68.5,38,68.5,37.9,68.6,37.9z"/>
		<path class="st1" d="M40.9,44.8c-0.2,3,0.2,5.9,1.4,8.6c-0.5,0.2-1.1-0.1-1.3-0.5c0,0,0-0.1,0-0.1c0-0.3,0-0.5,0-0.8
			c0-0.3-0.1-0.5-0.1-0.8c0.2,0,0.3,0,0.5,0c0,0,0,0,0-0.1c-0.1,0-0.3,0-0.4,0c-0.3-0.1-0.6-0.2-0.7-0.6c0-0.1-0.1-0.2-0.2-0.2
			c-0.9,0.2-1.4-0.2-1.7-0.8c-0.1-0.2-0.3-0.3-0.5-0.3c-0.4-0.1-0.8-0.3-1-0.6c-0.1-0.1-0.1-0.3-0.2-0.5c0-0.2-0.1-0.2-0.3-0.3
			c-0.4,0-0.7-0.1-1.1-0.3c-0.6-0.3-0.8-0.9-1-1.5c0-0.1,0-0.1,0-0.2c-0.4,0-0.8-0.1-1.2-0.4c-0.4-0.3-0.2-0.7-0.1-1.1
			c-0.3-0.1-0.5-0.2-0.8-0.4c-0.4-0.3-0.5-0.7-0.5-1.2c0-0.4,0-0.4-0.4-0.5c-0.4-0.1-0.7-0.2-1-0.4c-0.5-0.3-0.5-0.7-0.1-1.1
			c0,0,0.1-0.1,0.1-0.1c0.1-0.1,0.1-0.2-0.1-0.2c-0.4-0.1-0.8-0.2-1.2-0.4c-0.6-0.3-0.8-1-0.5-1.6c0.1-0.1,0.1-0.3,0.2-0.4
			c0.1-0.2,0.2-0.2,0.4-0.2c0.6,0.1,1.2,0.2,1.7,0.3c0.1,0,0.2,0,0.2,0c0,0,0,0,0-0.1c-0.3,0-0.5-0.1-0.8-0.1
			c-0.9-0.1-1.7-0.3-2.5-0.7c-0.3-0.1-0.6-0.3-0.8-0.5c-0.3-0.3-0.3-0.9,0-1.3c0.2-0.3,0.4-0.5,0.7-0.7c0.1-0.1,0.2-0.1,0.3,0
			c1.5,0.4,2.9,0.8,4.3,1.1c0.4,0.1,0.9,0.2,1.3,0.3c0.5,0.2,1.1,0.1,1.6,0.2c0.6,0,1.3,0,1.9,0.1c0.4,0.1,0.8,0.3,1.2,0.5
			c0.8,0.4,1.4,1,1.9,1.8c0.4,0.7,0.5,1.4,0.4,2.2c-0.1,0.5-0.2,0.9-0.4,1.3c-0.3,0.5-0.7,0.8-1.2,0.9c-0.2,0.1-0.4,0.2-0.6,0.3
			c-0.7,0.4-0.7,1-0.3,1.7c0.4,0.5,0.9,0.6,1.5,0.3c0.2-0.1,0.5-0.3,0.7-0.4C40.7,44.9,40.8,44.9,40.9,44.8z M35.5,37.8
			c0,0.1,0,0.1,0.1,0.1c0,0,0,0,0.1,0c0.8,0.2,1.2,0.8,1.5,1.5c0.2,0.5,0.2,1,0.2,1.5c0,0.1,0,0.1,0,0.2c0,0,0.1,0,0.1,0
			c0.1-0.8,0-1.6-0.4-2.3C36.7,38.3,36.2,37.9,35.5,37.8z"/>
		<path class="st1" d="M27.8,34.6c-0.1,0.2-0.3,0.3-0.4,0.5c-0.2,0.3-0.5,0.6-0.5,1c0,0.4,0.2,0.7,0.4,0.9c0.4,0.3,0.8,0.5,1.3,0.6
			c0.1,0,0.2,0.1,0.4,0.1c-0.3,0.5-0.6,1-0.4,1.6c0.2,0.6,0.7,0.8,1.3,1.1c-0.4,0.1-0.7,0.2-1.1,0.1c-1.3-0.2-2.5-0.3-3.8-0.5
			c-1.1-0.2-2.1-0.4-3.2-0.7c-0.3-0.1-0.6-0.1-0.9-0.2c0,0,0,0,0,0.1c0.1,0,0.1,0,0.2,0.1c1,0.2,1.9,0.4,2.9,0.6
			c0.9,0.2,1.8,0.4,2.7,0.5c0.8,0.1,1.6,0.2,2.4,0.2c0.3,0,0.6-0.1,0.9-0.1c0.1,0,0.3,0,0.4,0c-0.1,0.1-0.1,0.2-0.2,0.2
			c-0.3,0.5-0.3,1,0.2,1.3c0.2,0.1,0.5,0.3,0.8,0.4c-0.4,0.2-0.7,0.2-1.1,0.3c-1.3,0.1-2.5,0-3.8-0.2c-0.8-0.1-1.7-0.2-2.5-0.3
			c-0.4,0-0.7,0-1.1-0.1c-0.9-0.2-1.5-0.9-1.8-1.7c-0.1-0.3-0.2-0.6-0.3-1c0-0.2-0.1-0.3-0.4-0.4c-0.6-0.1-1.2-0.3-1.7-0.6
			c-0.6-0.4-1-1-1-1.7c0-0.2-0.1-0.2-0.2-0.2c-0.9,0.1-1.6-0.4-1.9-1.2c-0.2-0.5,0-0.8,0.3-1.2c0.1-0.1,0.3-0.3,0.4-0.4
			c-0.1,0-0.1-0.1-0.2-0.1c-0.6-0.2-1-0.7-1-1.4c0-0.4,0.2-0.6,0.6-0.7c0.4-0.1,0.7,0,1.1,0.1c0.9,0.2,1.8,0.3,2.7,0.5
			c0.7,0.1,1.4,0.3,2.1,0.5c0.7,0.2,1.5,0.3,2.2,0.6c0.5,0.1,1,0.4,1.5,0.6c0.7,0.3,1.5,0.5,2.2,0.8C27.6,34.5,27.7,34.6,27.8,34.6z
			 M28.4,37.8c-0.4,0-0.8,0.1-1.2,0.1c-1.4,0-2.8-0.2-4.1-0.5c-1.4-0.2-2.8-0.5-4.2-0.8c-0.3-0.1-0.5-0.1-0.8-0.2c0,0,0,0,0,0.1
			c0.1,0,0.1,0.1,0.2,0.1c0.3,0.1,0.7,0.1,1,0.2c0.8,0.2,1.6,0.3,2.5,0.5c0.8,0.1,1.5,0.3,2.3,0.4c0.9,0.1,1.8,0.2,2.7,0.3
			c0.5,0,1,0,1.4-0.1C28.2,37.9,28.2,37.8,28.4,37.8z M26.3,36.1C26.3,36.1,26.3,36,26.3,36.1c-0.2,0-0.3,0-0.5,0
			c-0.5,0-1-0.1-1.4-0.2c-0.7-0.1-1.4-0.3-2.1-0.5c-0.9-0.2-1.7-0.5-2.5-0.7c-0.9-0.3-1.8-0.6-2.7-0.8c0,0-0.1,0-0.2,0
			c0,0,0,0,0,0.1c0.4,0.1,0.8,0.3,1.2,0.4c1.1,0.3,2.1,0.6,3.2,0.9c0.9,0.3,1.9,0.5,2.8,0.7c0.6,0.1,1.2,0.3,1.9,0.2
			C26.1,36.2,26.2,36.1,26.3,36.1z"/>
		<path class="st1" d="M83.2,39.2c-0.2,0-0.3,0-0.5,0.1c-1,0.2-2.1,0.5-3.1,0.7c-1.1,0.2-2.2,0.4-3.3,0.5c-0.5,0.1-1,0.1-1.5,0.1
			c-0.1,0-0.3,0-0.4-0.1c0.1,0,0.2-0.1,0.3-0.1c0.2-0.2,0.5-0.3,0.7-0.5c0.4-0.5,0.3-1,0.1-1.5c-0.1-0.1-0.2-0.3-0.3-0.5
			c0.3-0.1,0.5-0.2,0.8-0.3c0.3-0.1,0.6-0.3,0.9-0.5c0.5-0.4,0.6-1.1,0.2-1.6c-0.2-0.3-0.4-0.5-0.7-0.8c0.2-0.1,0.4-0.1,0.6-0.2
			c0.6-0.2,1.3-0.3,1.9-0.6c1.2-0.6,2.6-0.9,3.9-1.2c1.4-0.3,2.8-0.6,4.2-0.9c0.5-0.1,1-0.3,1.6-0.2c0.4,0.1,0.7,0.3,0.7,0.8
			c0,0.7-0.4,1.2-1,1.3c0,0-0.1,0-0.1,0.1c0.1,0.1,0.1,0.1,0.1,0.2c0.2,0.2,0.4,0.4,0.5,0.7c0.2,0.4,0.1,0.7-0.1,1.1
			c-0.4,0.6-0.9,0.9-1.7,0.9c-0.1,0-0.2,0-0.2,0c0,0,0,0,0,0c0,0.2,0,0.4-0.1,0.6c-0.1,0.7-0.6,1.2-1.2,1.5
			c-0.5,0.2-0.9,0.3-1.4,0.5c-0.1,0-0.2,0.1-0.3,0.3c-0.1,0.8-0.4,1.5-1,2c-0.5,0.6-1.2,0.8-1.9,0.8c-0.5,0-0.9,0.1-1.4,0.1
			c-0.9,0.1-1.7,0.2-2.6,0.3c-0.8,0.1-1.5,0.1-2.3,0.1c-0.4,0-0.9-0.1-1.3-0.2c-0.1,0-0.1-0.1-0.2-0.1c0.2-0.1,0.5-0.2,0.7-0.3
			c0.2-0.1,0.4-0.3,0.5-0.4c0.2-0.2,0.2-0.6,0-0.9c-0.1-0.1-0.1-0.2-0.2-0.2c0.2-0.1,0.4-0.1,0.5-0.1c0.5,0.1,1,0.1,1.4,0.1
			c0.9-0.1,1.7-0.2,2.6-0.3c0.7-0.1,1.4-0.3,2.1-0.4c0.8-0.2,1.5-0.3,2.3-0.5C82.8,39.4,83,39.3,83.2,39.2
			C83.2,39.3,83.2,39.2,83.2,39.2z M86.2,36.6C86.1,36.6,86.1,36.6,86.2,36.6c-0.1-0.1-0.1-0.1-0.2-0.1c-0.9,0.2-1.7,0.4-2.6,0.5
			c-0.8,0.2-1.7,0.3-2.5,0.5c-0.7,0.1-1.4,0.2-2.1,0.3c-0.8,0.1-1.6,0.2-2.3,0.1c-0.2,0-0.4-0.1-0.5-0.1c0.2,0.2,0.5,0.3,0.7,0.2
			c0.8,0,1.5,0,2.3-0.1c0.8-0.1,1.6-0.2,2.3-0.3c0.7-0.1,1.4-0.2,2.1-0.4c0.7-0.1,1.4-0.3,2.1-0.4C85.6,36.7,85.9,36.7,86.2,36.6z
			 M87.3,34C87.3,34,87.3,34,87.3,34c-0.1-0.1-0.2,0-0.3,0c-0.7,0.2-1.5,0.5-2.2,0.7c-1.6,0.4-3.1,0.8-4.7,1.2
			c-0.5,0.1-1,0.2-1.5,0.2c-0.2,0-0.4,0-0.7,0c0,0.1,0.1,0.1,0.2,0.1c0.2,0,0.5,0.1,0.7,0c0.6-0.1,1.3-0.2,1.9-0.3
			c1-0.2,2-0.5,3-0.8c0.8-0.2,1.6-0.5,2.3-0.7C86.4,34.3,86.9,34.2,87.3,34z"/>
		<path class="st2" d="M28.9,47.5c0,0.3,0.1,0.5,0.1,0.7c0,0.1,0.1,0.3,0.2,0.4c0.3,0.4,0.6,0.8,0.9,1.2c0.2,0.3,0.2,0.5,0,0.8
			c-0.2,0.3-0.4,0.6-0.6,0.9c-0.1,0.2-0.2,0.4-0.2,0.6c0,0.1,0.1,0.3,0.2,0.4c0.1,0.1,0.3,0.1,0.4-0.1c0.2-0.2,0.4-0.5,0.5-0.8
			c0.2-0.7,0.8-0.9,1.3-1.3c0.1,0.5,0.2,0.9,0.1,1.4c-0.3,0.6-0.7,1.2-1.2,1.7c-0.3,0.3-0.5,0.6-0.6,1c0,0.2,0,0.4,0.2,0.5
			c0.2,0.1,0.4,0.2,0.6,0.1c0.5-0.3,0.8-0.7,0.9-1.3c0-0.3,0.1-0.6,0.1-0.8c0,0,0.1,0,0.1,0c0.4,0.4,0.8,0.8,1,1.3
			c0.2,0.6,0,1.3-0.5,1.7c-0.2,0.2-0.4,0.3-0.6,0.5c-0.3,0.3-0.4,0.6-0.2,0.9c0.1,0.3,0.4,0.3,0.6,0.1c0.3-0.4,0.7-0.9,1-1.3
			c0.1-0.1,0.1-0.2,0.2-0.3c0,0,0.1,0,0.1,0.1c0.3,0.6,0.5,1.2,0.3,1.9c-0.1,0.3-0.2,0.4-0.4,0.6c-0.2,0.2-0.3,0.3-0.4,0.5
			c-0.1,0.2,0,0.5,0.1,0.6c0.2,0.1,0.4,0.1,0.6,0c0.5-0.4,0.7-0.9,0.7-1.5c0-0.2,0.1-0.3,0.1-0.5c0.1,0,0.1,0.1,0.1,0.1
			c0.2,0.4,0.4,0.8,0.6,1.2c0.1,0.3,0,0.5-0.2,0.8c-0.1,0.2-0.3,0.4-0.5,0.6c-0.3,0.3-0.3,0.6,0,0.9c0.3,0.2,0.5,0.2,0.7,0
			c0.2-0.2,0.4-0.5,0.5-0.8c0.2-0.5,0.6-0.7,1-0.9c0.3-0.1,0.3,0,0.4,0.2c0.1,0.4,0.1,0.8,0.1,1.1c0,0,0,0.1,0,0.1
			c-0.1,0.4-0.9,1-1.3,1.1c-0.5,0.1-1,0.2-1.4,0.3c-0.5,0.1-0.9,0.4-1,1c0,0.1-0.1,0.1-0.2,0.1c-0.3,0-0.5,0-0.8,0.1
			c-0.2,0-0.3,0.1-0.4,0.2c-0.6,0.6-1.8,0.7-2.5,0.2c-0.3-0.2-0.5-0.5-0.7-0.7C29,62.7,29,62.6,29,62.6c0.2,0,0.4,0,0.7,0
			c0.6,0,1.2,0,1.8,0c0.2,0,0.5-0.1,0.7-0.2c0.1,0,0.2-0.2,0.2-0.3c0-0.1-0.1-0.2-0.2-0.3c-0.3-0.1-0.6-0.1-0.9,0
			c-0.7,0.4-1.5,0.5-2.3,0.5c-0.6,0-1.5-0.6-1.6-1.2c0,0,0.1,0,0.1,0c1-0.1,2-0.2,3-0.4c0.1,0,0.2-0.1,0.3-0.1
			c0.1-0.1,0.2-0.1,0.2-0.2c0-0.1-0.1-0.3-0.2-0.3c-0.3,0-0.5-0.1-0.8,0c-0.8,0.1-1.5,0.2-2.2,0c-0.3-0.1-0.5-0.2-0.7-0.5
			c-0.3-0.4-0.4-0.9-0.5-1.4c0.3,0.1,0.6,0.2,0.8,0.2c0.6,0.1,1.2,0.3,1.9,0.2c0.4,0,0.6-0.2,0.6-0.4c0-0.2-0.1-0.3-0.5-0.4
			c-0.6-0.2-1.1-0.2-1.7-0.2c-0.5,0-1,0-1.4,0c-0.1,0-0.2,0-0.2-0.1c-0.4-0.5-0.6-1.1-0.7-1.8c0-0.2,0-0.3,0.3-0.2
			c0.5,0.1,1,0.3,1.3,0.7c0.1,0.2,0.4,0.2,0.6,0.3c0.5,0.1,1,0.1,1.5-0.3c0.2-0.2,0.2-0.4,0.1-0.5c-0.1-0.1-0.3-0.1-0.4-0.1
			c-0.8,0.2-1.5,0-2.2-0.2c-0.4-0.2-0.7-0.6-0.8-1c-0.1-0.5-0.4-0.9-0.8-1.3c0,0,0,0-0.1-0.1c0.2,0,0.4,0,0.6,0.1
			c0.3,0,0.7,0.1,1,0.1c0.3,0,0.6,0.1,0.9,0.3c0.3,0.2,0.6,0.4,1,0.5c0.1,0,0.2,0,0.3,0c0-0.1,0-0.2,0-0.2c-0.2-0.4-0.6-0.7-1-0.9
			c-0.1,0-0.1,0-0.2,0c-0.3,0-0.6,0-0.9,0c-0.7,0.1-1.3-0.2-1.9-0.6c-0.1-0.1-0.2-0.1-0.3-0.2c-0.1-0.1-0.2-0.2-0.2-0.4
			c-0.1-0.5-0.3-0.9-0.6-1.3c-0.1-0.2-0.2-0.4-0.4-0.6c1.6,0.1,3.2,0.2,4.3,1.5c0,0,0-0.1,0.1-0.1c-0.1-0.1-0.2-0.2-0.3-0.3
			c-0.3-0.4-0.7-0.8-1-1.2c-0.2-0.2-0.2-0.4-0.4-0.7c-0.1-0.3-0.1-0.5,0-0.8c0.1-0.2,0.1-0.4,0.2-0.6c0.3-0.5,0.2-0.9,0-1.4
			c0,0,0-0.1-0.1-0.1c0,0,0,0,0-0.1c0.1,0,0.2,0,0.2,0.1c0.7,0.4,1.2,0.8,1.8,1.4c0.1,0.1,0.1,0.2,0.1,0.3c0,0.8-0.1,1.6-0.1,2.4
			c0,0.3,0.3,0.8,0.6,0.8c0.2,0,0.2-0.1,0.2-0.2c0-0.3,0-0.6,0-0.9c0-0.4,0-0.8,0-1.2C28.5,48.1,28.7,47.8,28.9,47.5z M27.7,51
			C27.7,50.9,27.7,50.9,27.7,51c0.1-0.1,0-0.1,0-0.2c-0.3-0.2-0.6-0.6-0.7-0.9c-0.3-0.7-0.4-1.5-0.4-2.2c0-0.1,0-0.2,0-0.2
			c0,0,0,0-0.1,0c0,0.1,0,0.2,0,0.2c0,0.3,0,0.6,0.1,0.9c0.1,0.7,0.3,1.4,0.7,1.9C27.3,50.6,27.5,50.8,27.7,51z M24.6,50.4
			C24.6,50.5,24.6,50.5,24.6,50.4c0,0.1,0,0.1,0,0.1c0,0.4,0.2,0.7,0.6,1c0.6,0.4,1.3,0.4,2,0.4c0,0,0,0,0.1-0.1c-0.1,0-0.1,0-0.2,0
			c-0.3,0-0.6,0-0.9-0.1C25.3,51.7,24.9,51.3,24.6,50.4C24.7,50.5,24.6,50.5,24.6,50.4z M28.1,54.8C28.1,54.7,28.1,54.7,28.1,54.8
			c-1-0.2-1.7-0.7-2.6-1.2c0,0.1,0,0.1,0,0.1c0.7,0.4,1.3,0.8,2.1,1C27.8,54.7,27.9,54.7,28.1,54.8z M31.1,61
			c-0.8,0.4-1.6,0.7-2.5,0.3C29.1,61.8,30.4,61.6,31.1,61z M27.3,58.9c0.2,0.6,2,0.9,2.5,0.5c-0.4,0-0.8,0.1-1.3,0.1
			C28,59.4,27.7,59.2,27.3,58.9z M34.7,61.5c0.5,0.1,0.9,0,1.3-0.3c0.4-0.3,0.8-0.9,0.7-1.2C36.3,60.9,35.8,61.6,34.7,61.5z
			 M25.9,56.4c0.4,0.6,1.9,1,2.4,0.7C27.4,57.1,26.6,56.9,25.9,56.4z M31.1,55.9c0.3,0.2,0.9-0.1,1.1-0.4c0.2-0.3,0.3-1,0.1-1.2
			C32.4,55.1,32.2,55.8,31.1,55.9z M29.3,49.5l-0.6,1.9c0.4,0,0.8-0.4,0.9-0.8C29.7,50.3,29.5,49.7,29.3,49.5z M32.1,62.9
			c-0.7,0.2-1.3,0.4-2,0.1C30.4,63.5,31.5,63.3,32.1,62.9z M29.8,52.9c0.4,0,0.8-0.1,1.1-0.3c0.2-0.2,0.4-0.4,0.5-0.8
			c-0.2,0.3-0.4,0.6-0.7,0.7C30.5,52.7,30.1,52.7,29.8,52.9z M34,60c0.6,0.1,1.1-0.9,1-1.5c-0.1,0.3-0.2,0.6-0.4,0.9
			C34.5,59.7,34.3,59.9,34,60z M32.4,58.1c0.4,0,1-0.7,0.9-1.1C33.1,57.5,32.9,57.9,32.4,58.1z"/>
		<path class="st1" d="M55.8,38.1c-0.2-0.2-0.3-0.3-0.5-0.4c-0.1-0.1-0.3-0.1-0.4-0.1c-0.1,0-0.2,0.2-0.2,0.3c0.1,0.5,0.2,1,0.3,1.4
			c0,0.1,0.1,0.2,0.3,0.1c0.4-0.1,0.8-0.1,1.3-0.1c0.2,0,0.5,0.1,0.7,0.2c-0.2,0.2-0.3,0.4-0.5,0.5c-0.5,0.4-0.4,1.2,0.2,1.4
			c0.4,0.2,0.5,0.6,0.6,1c0,0-0.1,0.1-0.2,0.1c-0.6,0-1.2,0-1.7-0.1c-1.2-0.2-2.4-0.7-3.5-1.2c-0.1,0-0.2,0-0.3,0
			c-1.1,0.4-2.2,0.8-3.3,1.1c-0.8,0.2-1.6,0.4-2.4,0.3c-0.1,0-0.1,0-0.2,0c0.1-0.3,0.2-0.5,0.2-0.8c0.1-0.7,0-0.6-0.6-0.6
			c-0.1,0-0.2,0-0.3,0c0,0-0.1,0-0.1,0c0.3-0.2,0.6-0.4,0.9-0.6c0.4-0.3,0.8-0.5,1.2-0.8c0.3-0.2,0.3-0.5,0-0.7
			c-0.2-0.1-0.3-0.2-0.5-0.3c0.1-0.1,0.1-0.2,0.2-0.2c0.4-0.4,0.9-0.8,1.2-1.3c0.4-0.4,0.6-0.9,0.7-1.5c0-0.1,0.1-0.2,0.2-0.2
			c0.2-0.1,0.4-0.2,0.5-0.3c0.3-0.2,0.3-0.4,0-0.6c-0.3-0.3-0.7-0.5-1-0.7c-0.2-0.1-0.4-0.3-0.6-0.4c-0.1-0.1-0.2-0.2-0.3-0.3
			c-0.2-0.1-0.2-0.3-0.1-0.5c0.1-0.3,0.3-0.6,0.6-0.7c0.1,0,0.2,0,0.2,0c0.4,0.3,0.7,0.7,1.1,1c0.1,0.1,0.1,0.3,0.2,0.4
			c0.3,0.7,1.1,0.7,1.6,0.4c0.3-0.1,0.3-0.3,0-0.5c-0.5-0.3-1.1-0.5-1.7-0.5c-0.1,0-0.1,0-0.2-0.1c-0.3-0.3-0.6-0.6-0.9-0.8
			c-0.2-0.1-0.1-0.3,0-0.4c0.3-0.3,0.6-0.5,1-0.7c1-0.5,2-0.3,3,0.2c1,0.5,1.7,1.2,1.9,2.3c0.1,0.4,0.1,0.9,0.1,1.4
			c0,0.2,0,0.4,0.1,0.5c0.5,0.6,0.8,1.2,0.9,2C55.8,37.8,55.8,37.9,55.8,38.1z"/>
		<path class="st3" d="M70.5,57.9c0.2-0.4,0.5-0.8,0.7-1.1c0.6-1,1.2-2.1,1.9-3.1c0.5-0.9,1-1.8,1.6-2.6c0,0,0-0.1,0.1-0.2
			c-0.6,0-1.2-0.1-1.8-0.1c0,0,0,0,0-0.1c1.9-1.6,3.7-3.3,5.6-4.8c-0.6,2.3-1.2,4.6-1.8,6.9c0,0-0.1,0-0.1,0
			c-0.2-0.4-0.5-0.9-0.8-1.4c-0.1,0.2-0.2,0.3-0.3,0.4c-0.6,1.1-1.3,2.2-1.9,3.3c-0.9,1.5-1.7,3-2.6,4.5c-0.4,0.8-0.9,1.5-1.3,2.3
			c-0.1,0.1-0.2,0.2-0.3,0.1c-0.3-0.1-0.6-0.1-0.9-0.1c-0.1,0-0.1,0-0.3,0c0.1-0.2,0.2-0.3,0.3-0.5C69.2,60.2,69.8,59.1,70.5,57.9
			C70.5,57.9,70.5,57.9,70.5,57.9L70.5,57.9z"/>
		<path class="st3" d="M67.8,68.2c-0.1,0.2-0.3,0.4-0.4,0.6c-0.7,1.2-1.4,2.5-2,3.8c0,0.1-0.1,0.2-0.2,0.3c-0.2-0.3-0.3-0.6-0.5-0.9
			c-0.2-0.4-0.4-0.8-0.6-1.1c-0.1-0.1-0.1-0.2-0.2-0.1c-0.7,0.1-1.4,0.3-2.1,0.4c-0.1,0-0.2,0-0.4,0c0.1-0.2,0.2-0.4,0.3-0.6
			c0.8-1.4,1.6-2.8,2.4-4.3c0-0.1,0.1-0.2,0.1-0.3c0.1-0.4,0.5-0.5,0.9-0.7c0.5-0.2,1-0.4,1.4-0.7c0.1,0,0.2-0.2,0.2-0.3
			c0.2-0.3,0.2-0.3,0.5-0.2c0.2,0.1,0.5,0.3,0.7,0.4c0.1,0.1,0.1,0.2,0.1,0.3c-0.3,0.3-0.2,0.6-0.2,1c0.1,0.5,0.1,1,0.2,1.6
			c0,0.2,0,0.3-0.1,0.5C67.9,67.9,67.9,68,67.8,68.2C67.8,68.2,67.8,68.2,67.8,68.2z M66.9,65.7C66.8,65.7,66.8,65.7,66.9,65.7
			c-1,1.5-1.9,3.1-2.8,4.7c0,0,0.1,0,0.1,0C65,68.9,65.9,67.3,66.9,65.7z"/>
		<path class="st1" d="M40.6,62.4c0.4-0.6,0.8-1.1,1.3-1.7c0,0,0,0,0-0.1c-0.7,0.1-1.4,0.3-2.1,0.4c0.2-0.6,0.5-1.2,0.7-1.8
			c-0.7,0.1-1.3,0.2-1.9,0.4c0,0,0,0,0,0c0.1-0.2,0.2-0.4,0.4-0.6c0.3-0.4,0.5-0.9,0.8-1.2c0.3-0.4,0.6-0.7,0.9-0.9
			c0.5-0.3,0.7-0.8,0.9-1.3c0.1-0.1,0.1-0.3,0.2-0.4c0.3-0.3,0.6-0.6,0.9-1c0.2,0.2,0.3,0.4,0.4,0.6c0.5,0.8,1.1,1.7,1.6,2.5
			c0.3,0.4,0.7,0.8,1,1.3c0.1,0.1,0.1,0.2-0.1,0.3c-0.4,0.2-0.7,0.4-1.1,0.6c-0.3,0.2-0.5,0.4-0.7,0.8c-0.3,0.9-0.9,1.6-1.8,2
			C41.6,62.4,40.9,62.5,40.6,62.4z M42.5,58.1C42.5,58.1,42.5,58.1,42.5,58.1c-0.4,0.1-0.8,0.2-1.1,0.4c0,0,0,0,0-0.1
			c0.2-0.3,0.3-0.5,0.5-0.8c0,0,0,0-0.1,0c-0.2,0.4-0.4,0.7-0.6,1.1c0,0,0,0,0.1,0.1C41.6,58.5,42,58.3,42.5,58.1z M42.9,59
			C42.9,59,42.9,59,42.9,59c0.5-0.2,1-0.5,1.5-0.7c0,0,0,0,0-0.1c-0.4,0.2-0.9,0.4-1.3,0.7c0-0.3,0-0.6,0.1-0.9c0,0-0.1,0-0.1,0
			C42.9,58.4,42.9,58.7,42.9,59z M42.5,56.5C42.5,56.5,42.5,56.4,42.5,56.5c-0.3,0-0.7,0.2-1,0.3c0,0,0,0,0,0
			c0.1-0.2,0.2-0.4,0.3-0.6c0,0,0,0-0.1,0c-0.1,0.3-0.3,0.6-0.4,0.8c0,0,0,0,0.1,0.1C41.7,56.8,42.1,56.7,42.5,56.5z"/>
		<path class="st1" d="M63.5,62.4c-0.3,0.1-0.6,0-0.9-0.1c-1-0.3-1.7-1-2.1-1.9c-0.2-0.5-0.5-0.9-1-1.3c-0.3-0.2-0.5-0.5-0.8-0.7
			c-0.2-0.1-0.1-0.2,0-0.3c0.3-0.4,0.6-0.8,0.9-1.2c0.6-0.9,1.2-1.8,1.6-2.8c0.2-0.4,0.2-0.4,0.5-0.1c0.2,0.2,0.5,0.5,0.6,0.7
			c0.2,0.3,0.2,0.6,0.3,0.9c0.1,0.4,0.3,0.7,0.7,0.9c0.7,0.5,1.3,1.1,1.7,1.9c0.2,0.4,0.5,0.7,0.7,1.1c0,0,0,0,0,0.1
			c-0.7-0.2-1.4-0.4-2.2-0.6c0.3,0.7,0.6,1.2,0.9,1.9c-0.8-0.2-1.6-0.3-2.3-0.4c0,0,0,0,0,0.1C62.6,61.2,63,61.8,63.5,62.4z
			 M61.7,56.4C61.7,56.5,61.7,56.5,61.7,56.4c0.4,0.3,0.7,0.5,1.1,0.7c0,0,0,0,0.1-0.1c-0.2-0.4-0.4-0.8-0.6-1.2c0,0-0.1,0-0.1,0
			c0.1,0.3,0.3,0.7,0.4,1c0,0,0,0-0.1,0C62.3,56.7,62,56.6,61.7,56.4z M61.1,57.8C61,57.8,61,57.8,61.1,57.8c-0.1,0.3,0,0.6,0,1
			c-0.4-0.2-0.8-0.4-1.2-0.5c0,0,0,0.1,0,0.1c0.4,0.2,0.9,0.4,1.4,0.6C61.1,58.5,61.1,58.2,61.1,57.8z M61.8,58.1
			C61.8,58.1,61.7,58.1,61.8,58.1c0.4,0.3,0.8,0.5,1.2,0.7c0,0,0,0,0,0c-0.2-0.3-0.3-0.7-0.5-1c0,0,0,0-0.1,0
			c0.1,0.2,0.2,0.5,0.3,0.7c0,0,0,0,0,0C62.4,58.4,62.1,58.2,61.8,58.1z"/>
		<path class="st1" d="M53.6,67.7c0,0.8,0,1.7,0.1,2.5c0,0.4,0,0.7,0,1.1c0,0.6-0.5,1.3-1.1,1.5c-0.9,0.3-1.8-0.3-2.1-1
			c0-0.1,0-0.2,0-0.3c0-0.9,0-1.9,0-2.8c0.1-1.1,0.1-2.3,0.5-3.4c0.1-0.2,0.2-0.4,0.3-0.6c0.1-0.2,0.3-0.2,0.5-0.2
			c0.1,0,0.2,0,0.4,0c0.4-0.1,0.6,0,0.8,0.3c0.2,0.4,0.4,0.8,0.5,1.3C53.5,66.6,53.6,67.1,53.6,67.7z"/>
		<path class="st3" d="M76.8,57.2c-0.1-0.5-0.2-1-0.3-1.6c-2.2,2-4.3,4-6.4,6c0,0,0,0-0.1,0c0-0.1,0.1-0.2,0.1-0.3
			c0.6-1,1.1-2,1.7-2.9c0.2-0.4,0.6-0.7,0.9-0.9c0.9-0.8,1.8-1.6,2.6-2.4c0.1,0,0.1-0.1,0.2-0.2c-0.5-0.2-0.9-0.4-1.3-0.5
			c0.1-0.2,0.1-0.4,0.4-0.5c1.4-0.6,2.8-1.2,4.2-1.9c0.6-0.3,1.2-0.5,1.7-0.8c0.1,0,0.1,0,0.2-0.1c0,0,0,0,0.1,0.1
			C79.4,53.2,78.1,55.3,76.8,57.2C76.9,57.3,76.8,57.2,76.8,57.2z"/>
		<path class="st3" d="M70.5,57.9c0,0-0.1,0.1-0.1,0.1c-0.6,1-1.2,1.9-1.7,2.9c-0.2,0.3-0.3,0.5-0.6,0.7c0,0,0,0-0.1,0
			c0.9-2.5,1.7-5.1,2.6-7.7c-0.6,0.1-1.2,0.1-1.8,0.2c0,0,0,0,0-0.1c1.5-1.9,3-3.9,4.5-5.8c0,0,0.1,0,0.1,0c0,0.1,0,0.2,0,0.4
			c0,0.5-0.1,1-0.1,1.5c0,0.2-0.1,0.3-0.2,0.5c-0.1,0.1-0.2,0.2-0.3,0.3c0.1,0,0.1,0,0.2,0c0.3,0,0.3,0,0.3,0.4
			c-0.1,0.7-0.1,1.4-0.2,2.1c0,0.2-0.1,0.4-0.2,0.6c-0.1,0.3-0.3,0.5-0.5,0.8c-0.2-0.2-0.4-0.4-0.6-0.6c-0.1,0.2-0.1,0.3-0.2,0.4
			c-0.3,1-0.6,2-0.9,2.9C70.6,57.6,70.6,57.7,70.5,57.9C70.5,57.9,70.5,57.9,70.5,57.9z"/>
		<path class="st1" d="M62.3,60.7c0.8,0.2,1.5,0.3,2.3,0.4c-0.3-0.6-0.6-1.2-0.8-1.8c0,0,0,0,0-0.1c0.2,0.1,0.5,0.1,0.7,0.2
			c0.4,0.1,0.8,0.2,1.2,0.3c0.1,0,0.1,0.1,0.2,0.1c0.3,0.4,0.5,0.8,0.8,1.2c0.3,0.5,0.8,0.7,1.4,0.7c0.4,0,0.8,0.1,1.3,0.1
			c0.4,0.1,0.7,0.3,0.8,0.8c0.1,0.5,0.1,1,0.2,1.5c0,0.2-0.1,0.3-0.2,0.4c-0.2,0.1-0.4,0.1-0.4-0.2c0-0.6-0.1-1.2-0.6-1.7
			c-0.2-0.2-0.5-0.3-0.8-0.3c1.1,0.3,1.3,1.1,1.3,2c0,0.3-0.3,0.6-0.6,0.9c-0.1-1.1-0.3-2.1-1.3-2.6c0,0-0.1,0.1-0.1,0.1
			c0,0,0.1,0,0.1,0c0.6,0.3,0.9,0.7,1,1.3c0.1,0.3,0.1,0.7,0.1,1c0,0.1,0,0.1-0.1,0.2c-0.1,0-0.2-0.1-0.2-0.1
			c-0.2-0.4-0.5-0.7-0.8-0.9c-0.5-0.4-1.1-0.5-1.8-0.5c-0.2,0-0.4,0-0.4-0.3c0-0.1-0.2-0.3-0.3-0.4c-0.3-0.3-0.8-0.5-1.2-0.7
			c-0.1,0-0.1,0-0.2,0c-0.2,0.1-0.4,0-0.5-0.2c-0.3-0.4-0.6-0.9-1-1.3C62.4,60.9,62.4,60.8,62.3,60.7z"/>
		<path class="st1" d="M40.2,59.4c-0.2,0.6-0.5,1.2-0.7,1.8c0.7-0.2,1.4-0.3,2.1-0.4c0,0,0,0,0,0c-0.2,0.2-0.4,0.5-0.5,0.7
			c-0.2,0.2-0.3,0.5-0.5,0.7c-0.1,0.1-0.2,0.1-0.2,0.1c-0.6-0.2-1,0.2-1.5,0.4c-0.5,0.3-0.9,0.7-1.1,1.2c0,0.1-0.1,0.1-0.1,0.2
			c-0.1-0.1-0.2-0.1-0.3-0.2c-0.2-0.1-0.4-0.2-0.6-0.3c-0.4-0.1-0.7,0.2-0.7,0.6c0,0.2,0.1,0.4,0.2,0.6c0,0.1,0,0.2,0,0.2
			c-0.1,0-0.2,0.1-0.3,0.1c-0.3-0.1-0.4-0.3-0.4-0.6c-0.1-0.6,0-1.1,0.4-1.5c0.1-0.1,0.3-0.2,0.5-0.3c0.1,0,0.1-0.1,0.2-0.1
			c-0.4-0.1-1,0.4-1.1,0.9c-0.2,0.5-0.1,1,0,1.5c0,0,0,0,0,0c-0.2-0.1-0.5-0.2-0.7-0.4c0,0,0-0.2-0.1-0.2c-0.1-0.5-0.2-0.9,0.1-1.3
			c0.2-0.4,0.5-0.6,0.9-0.7c0,0,0.1,0,0.1,0c0,0,0,0,0,0c-0.3-0.2-1,0.3-1.2,0.8c-0.2,0.5-0.1,1,0,1.5c0,0,0,0-0.1,0
			c-0.1-0.1-0.2-0.1-0.2-0.2c-0.3-0.5-0.5-1-0.4-1.6c0.1-0.5,0.4-0.8,0.9-1c0.4-0.1,0.9-0.3,1.4-0.3c0.5,0,0.8-0.3,1.1-0.6
			c0.3-0.4,0.6-0.7,0.9-1.1c0.2-0.2,0.4-0.4,0.6-0.4c0.4-0.1,0.9-0.2,1.3-0.2C40,59.4,40.1,59.4,40.2,59.4z"/>
		<path class="st1" d="M66.3,49.6c0.1,0.1,0.2,0.2,0.3,0.3c0.4,0.4,0.8,0.8,1.3,1.2c0.1,0.1,0.1,0.2,0,0.3c-0.4,0.7-1,1-1.8,0.8
			c-0.2,0-0.3-0.1-0.4-0.3c-0.1-0.4-0.3-0.7-0.4-1.1c0-0.1,0-0.2,0-0.3c-0.1,0.2-0.1,0.4,0,0.6c0.1,0.3,0.2,0.5,0.3,0.7
			c0,0.1,0,0.2,0,0.3c-0.5,0.7-1.2,0.8-2,0.7c-0.1,0-0.2-0.1-0.2-0.2c0-0.4,0-0.7,0.1-1.1c0-0.1,0.1-0.2,0.2-0.3
			c0.1-0.2,0.3-0.3,0.4-0.5c0.1-0.1,0.1-0.1,0.2-0.1c0.7,0.1,1.3-0.2,1.7-0.8c0.1-0.2,0.3-0.3,0.5-0.4c0.5-0.1,0.9-0.4,1.1-0.9
			c0-0.1,0.1-0.2,0.1-0.4c0.2,0.1,0.4,0.3,0.7,0.4c0.6,0.4,1.2,0.7,1.8,1.1c0.1,0,0.1,0.1,0.1,0.2c0.1,0.8-0.2,1.3-1,1.5
			c-0.2,0-0.3,0-0.5,0c-0.3,0-0.6-0.1-0.9-0.4c-0.4-0.5-0.9-0.9-1.4-1.3C66.4,49.6,66.4,49.6,66.3,49.6
			C66.3,49.6,66.3,49.6,66.3,49.6z"/>
		<path class="st1" d="M37.8,49.5c-0.3,0.3-0.5,0.5-0.8,0.8c-0.3,0.2-0.5,0.5-0.8,0.7c-0.4,0.4-0.9,0.3-1.4,0.2
			c-0.7-0.2-1.1-0.8-0.9-1.5c0-0.1,0.1-0.2,0.2-0.2c0.7-0.5,1.5-0.9,2.2-1.4c0.1,0,0.1-0.1,0.2-0.1c0.1,0.6,0.4,1,0.9,1.2
			c0.5,0.1,0.8,0.4,1,0.8c0.3,0.4,0.7,0.6,1.2,0.5c0.2,0,0.4,0,0.5,0.3c0,0.1,0.2,0.2,0.3,0.3c0.2,0.2,0.3,0.4,0.3,0.6
			c0,0.3,0,0.6,0,0.9c0,0.1-0.1,0.2-0.1,0.2c-0.8,0.2-1.5,0.1-2.1-0.6c-0.1-0.1-0.1-0.3-0.1-0.5c0.1-0.3,0.2-0.7,0.3-1
			c0-0.1,0-0.1,0-0.2c0,0-0.1,0-0.1,0c0,0.5-0.3,1-0.5,1.4c0,0.1-0.1,0.1-0.2,0.2c-0.7,0.3-1.4,0.1-1.9-0.6
			c-0.2-0.3-0.2-0.3,0.1-0.5c0.4-0.4,0.9-0.9,1.3-1.3C37.8,49.6,37.8,49.6,37.8,49.5C37.9,49.5,37.8,49.5,37.8,49.5z"/>
		<path class="st1" d="M32.6,44.5c-0.2,0-0.5,0.1-0.7,0.1c-0.9,0-1.7,0-2.6,0c-0.8,0-1.6-0.1-2.4-0.1c-1.3-0.1-2.4-0.6-3.1-1.9
			c0-0.1-0.1-0.2-0.1-0.3c0.1,0,0.2,0,0.3,0c0.8,0.1,1.5,0.2,2.3,0.3c1.4,0.2,2.8,0.3,4.3,0.1c0.2,0,0.5-0.1,0.7-0.2
			c0.1,0,0.2,0,0.4,0c0,0,0.1,0.2,0,0.3c-0.1,0.7,0.2,1.3,0.8,1.5C32.6,44.3,32.6,44.4,32.6,44.5C32.6,44.4,32.6,44.4,32.6,44.5z"/>
		<path class="st1" d="M80.3,42.4c-0.1,0.4-0.3,0.7-0.6,1c-0.7,0.7-1.5,1.1-2.4,1.1c-1.5,0.1-3,0.2-4.5,0.2c-0.3,0-0.7-0.1-1-0.1
			c-0.1,0-0.2-0.1-0.3-0.1c0.4-0.2,0.7-0.4,0.8-0.8c0.1-0.3,0.1-0.7,0.1-1.1c0.1-0.1,0.3-0.1,0.4,0c0.5,0.2,1,0.3,1.5,0.3
			c1,0,2.1-0.1,3.1-0.1c0.8-0.1,1.6-0.2,2.5-0.3C80,42.4,80.1,42.4,80.3,42.4z"/>
		<path class="st1" d="M52.5,64.3c0.4-0.4,0.4-0.9,0.4-1.3c0,0,0-0.1,0.1-0.1c0.2-0.1,0.3-0.2,0.5-0.3c0.3,0.5,0.2,0.9-0.4,1.4
			c0,0,0,0,0,0c0.6,0.2,1,0.7,1.2,1.2c0.4,0.8,0.7,1.7,0.8,2.5c0.2,0.8,0.3,1.6,0.4,2.4c0.1,0.7-0.4,1.5-1,1.7c-0.1,0-0.3,0-0.4,0
			c-0.2,0-0.3-0.1-0.2-0.3c0-0.9,0-1.7,0-2.6c0-1.2-0.1-2.5-0.5-3.7C53.2,64.9,53,64.5,52.5,64.3z"/>
		<path class="st1" d="M51.6,64.4c-0.6,0.4-0.8,1-0.9,1.6c-0.3,1.5-0.3,3-0.4,4.5c0,0.3,0,0.7,0,1c0,0.1,0,0.2-0.1,0.2
			c-0.6,0.2-1-0.1-1.3-0.6c-0.2-0.4-0.1-0.8-0.1-1.2c0.1-0.8,0.2-1.5,0.4-2.2c0.2-1,0.5-2.1,1-3c0.1-0.2,0.2-0.3,0.4-0.4
			C50.8,64.1,51.3,64.1,51.6,64.4z"/>
		<path class="st3" d="M67.8,68.2c0.2-0.2,0.4-0.5,0.3-0.8c-0.1-0.6-0.2-1.3-0.3-1.9c0-0.3,0.1-0.4,0.2-0.6c0,0,0.2,0,0.2,0.1
			c0.2,0.4,0.4,0.7,0.5,1.1c0.1,0.2,0.1,0.5,0.2,0.7c0.1,0.2,0.1,0.5,0,0.7c-0.4,1.3-0.8,2.5-1.2,3.8c-0.2,0.7-0.4,1.4-0.7,2.1
			C67.1,73.1,67,73.1,67,73c-0.3-0.4-0.6-0.8-0.9-1.1c-0.1-0.1-0.1-0.2,0-0.4c0.6-1,1.1-2,1.7-3C67.8,68.4,67.8,68.3,67.8,68.2
			C67.8,68.2,67.8,68.2,67.8,68.2z"/>
		<path class="st1" d="M50.9,64c-0.7,0.2-0.9,0.8-1.2,1.3c-0.4,0.8-0.6,1.7-0.7,2.5c-0.2,0.8-0.3,1.7-0.4,2.5
			c-0.1,0.3-0.1,0.3-0.4,0.3c-0.6-0.1-0.9-0.6-1.1-1.1c-0.1-0.2,0-0.5,0.1-0.7c0.3-1.1,0.8-2.2,1.5-3.1c0.5-0.6,1-1.2,1.5-1.9
			c0,0,0,0,0.1-0.1c0.3-0.2,0.3-0.2,0.5,0C50.8,63.9,50.9,63.9,50.9,64z"/>
		<path class="st1" d="M33.9,46.1c-0.1,0.1-0.3,0.2-0.4,0.2c-0.7,0.2-1.4,0.1-2,0c-0.7-0.1-1.3-0.2-2-0.3c-0.7-0.1-1.3-0.5-1.8-0.9
			c-0.2-0.2-0.4-0.3-0.5-0.5c0,0,0,0,0-0.1c0.2,0,0.4,0,0.6,0c1.4,0.1,2.8,0.2,4.2,0.1c0.3,0,0.5-0.1,0.8-0.2c0.1,0,0.1,0,0.2,0
			c0,0,0,0.1,0,0.2c0,0.2,0,0.3,0,0.5c0.1,0.5,0.4,0.7,0.8,0.8C33.8,46,33.9,46,33.9,46.1C33.9,46,33.9,46.1,33.9,46.1z"/>
		<path class="st1" d="M70.2,46.2c0.3-0.2,0.6-0.3,0.8-0.5c0.3-0.3,0.3-0.6,0.2-1c0-0.1,0-0.1,0-0.2c0,0,0.1,0,0.2,0
			c0.4,0.2,0.8,0.2,1.2,0.3c1.3,0,2.6,0,3.9-0.2c0.1,0,0.3,0,0.4,0c0,0,0.1,0,0.1,0c-0.1,0.1-0.1,0.1-0.1,0.2
			c-0.6,0.6-1.3,1.1-2.2,1.2c-1,0.2-2,0.3-3,0.4c-0.4,0-0.8-0.1-1.2-0.2C70.4,46.3,70.3,46.2,70.2,46.2z"/>
		<path class="st1" d="M55.6,70.6c-0.1-0.4-0.1-0.8-0.2-1.1c-0.1-0.6-0.2-1.1-0.3-1.6c-0.2-0.8-0.4-1.6-0.7-2.4
			c-0.2-0.6-0.6-1.2-1.2-1.5c0.1-0.1,0.2-0.2,0.4-0.3c0.3,0.3,0.5,0.5,0.8,0.8c0.8,0.9,1.5,1.8,2,2.8c0.3,0.6,0.6,1.1,0.7,1.8
			c0.2,0.9-0.3,1.5-1.1,1.7C55.8,70.6,55.7,70.6,55.6,70.6z"/>
		<path class="st1" d="M54.8,63.1c0-0.1,0-0.1,0.1-0.1c0.4-0.4,0.6-0.9,0.5-1.4c0-0.2,0-0.2,0.1-0.3c0.2-0.1,0.3-0.2,0.5-0.4
			c0.2,0.4,0.2,0.7,0.1,1.1c-0.1,0.4-0.4,0.5-0.8,0.7c0,0,0,0,0,0.1c0.1,0,0.1,0,0.2,0c1.8-0.1,3,0.9,3.7,2.5
			c0.2,0.4,0.3,0.8,0.5,1.2c0.1,0.4-0.1,0.9-0.5,1.1c-0.1,0.1-0.2,0-0.2-0.1c-0.4-1.3-1.1-2.4-2.1-3.2c-0.6-0.5-1.2-0.8-2-1
			C54.9,63.1,54.8,63.1,54.8,63.1z"/>
		<path class="st3" d="M65.8,64.7c0.2-0.2,0.3-0.3,0.5-0.5c0,0,0,0,0,0c-0.1,0.1-0.2,0.1-0.2,0.2c-0.5,0.4-0.9,0.8-1.5,1
			c-0.1,0-0.2,0.1-0.2,0.2c-0.3,0.6-0.8,1-1.3,1.4c-0.3,0.4-0.7,0.4-1.1,0.3c-0.4-0.1-0.9-0.1-1.3-0.2c-0.1,0-0.2,0-0.3-0.1
			c0.1-0.1,0.1-0.1,0.1-0.2c0.9-0.7,1.9-1.5,2.8-2.2c0.2-0.1,0.5-0.1,0.7-0.2c0.2,0,0.5-0.1,0.7-0.1c0.2,0,0.4-0.1,0.6-0.3
			c0.2-0.2,0.4-0.3,0.7-0.3c0.2,0,0.3,0,0.5,0c0.2,0,0.2,0.1,0.1,0.2C66.5,64.6,66.1,64.6,65.8,64.7C65.8,64.7,65.8,64.7,65.8,64.7z
			"/>
		<path class="st1" d="M45.1,67.4c-0.5-0.1-0.8-0.8-0.7-1.2c0.4-1.5,1.3-2.6,2.6-3.3c0.3-0.2,0.7-0.3,1.1-0.4c0,0,0.1,0,0.1,0
			c0.2,0.2,0.4,0.2,0.6,0.2c0.1,0,0.1,0.1,0.2,0.2c-0.5,0.3-0.9,0.6-1.4,1c-0.9,0.7-1.8,1.5-2.4,2.6c-0.1,0.2-0.1,0.5-0.2,0.7
			C45.1,67.3,45.1,67.3,45.1,67.4z"/>
		<path class="st1" d="M50.3,63.7c-0.3,0.3-0.5,0.6-0.8,0.9c-0.9,1.1-1.7,2.2-2.2,3.6c-0.1,0.4-0.2,0.7-0.3,1.1
			c-0.1,0.2-0.1,0.3-0.3,0.2c-0.1-0.1-0.3-0.1-0.4-0.2c-0.4-0.3-0.4-0.6-0.3-1c0.2-1,0.7-1.8,1.4-2.6c0.6-0.7,1.3-1.3,2.1-1.9
			C49.8,63.4,50,63.4,50.3,63.7z"/>
		<path class="st2" d="M40.5,69c-0.1-0.1-0.2-0.1-0.2-0.2c-1.3-1.4-2.7-2.7-4-4.1c-0.2-0.2-0.3-0.4-0.1-0.6c0.1-0.2,0.3-0.3,0.6-0.2
			c0.3,0.1,0.6,0.2,0.7,0.6c0,0.1,0.2,0.2,0.3,0.3c1,0.9,2,1.7,2.9,2.6c0,0,0.1,0.2,0,0.2c-0.4,0.4-0.4,0.9-0.2,1.4
			C40.5,68.9,40.5,69,40.5,69z"/>
		<path class="st1" d="M57,60c0,0.7,0,1.3-0.5,1.8c0.3,0.1,0.6,0.1,0.9,0.2c0.9,0.3,1.6,0.8,2.2,1.5c0.3,0.4,0.6,0.8,0.8,1.3
			c0.2,0.4,0.1,0.8-0.2,1.1c-0.1,0.1-0.2,0.2-0.3,0.3c0-0.1-0.1-0.2-0.1-0.3c-0.4-1.2-1-2.2-2.1-2.9c-0.5-0.3-1-0.4-1.5-0.5
			c-0.1,0-0.1,0-0.2,0c0,0,0,0,0-0.1c0.4-0.5,0.4-1,0.3-1.5c-0.1-0.2,0-0.3,0.1-0.4c0.2-0.1,0.3-0.3,0.5-0.4
			C56.8,60.1,56.9,60.1,57,60z"/>
		<path class="st1" d="M54.2,63.5c0.2-0.4,0.2-0.4,0.7-0.3c1.6,0.5,2.7,1.5,3.5,3c0.2,0.4,0.3,0.8,0.5,1.2c0.1,0.4,0,0.9-0.3,1.1
			c-0.2,0.1-0.3,0.1-0.3-0.1c-0.5-1-1-2-1.7-3c-0.5-0.7-1-1.3-1.8-1.7C54.6,63.6,54.4,63.6,54.2,63.5z"/>
		<path class="st1" d="M53.8,63.7c0.3-0.1,0.6,0,0.9,0.1c0.7,0.3,1.2,0.9,1.6,1.5c0.8,1,1.3,2.1,1.8,3.2c0,0.1,0,0.2,0,0.3
			c-0.1,0.3-0.4,0.5-0.7,0.6c-0.2,0.1-0.3,0-0.3-0.2c-0.1-0.9-0.4-1.6-0.9-2.4c-0.6-1.1-1.5-2.1-2.3-3
			C53.9,63.8,53.8,63.7,53.8,63.7z"/>
		<path class="st1" d="M44.2,66.1c-0.4-0.2-0.7-0.8-0.5-1.3c0.6-1.6,1.7-2.5,3.3-2.9c0,0,0.1,0,0.1,0c0.3-0.1,0.3-0.1,0.2-0.4
			c-0.2-0.4-0.3-0.9-0.3-1.4c0.3,0.3,0.5,0.5,0.8,0.7c0,0,0,0.1,0,0.1c-0.1,0.5-0.1,0.9,0.1,1.4c0.1,0.2-0.1,0.1-0.2,0.2
			c-0.5,0.2-1,0.4-1.4,0.7c-1,0.6-1.7,1.6-2.1,2.7C44.3,65.9,44.3,66,44.2,66.1z"/>
		<path class="st1" d="M45.9,68.5c-0.4-0.1-0.6-0.4-0.6-0.8c-0.1-0.8,0.2-1.4,0.6-2c0.6-0.8,1.5-1.5,2.3-2.1
			c0.2-0.1,0.4-0.2,0.6-0.4c0.3-0.3,0.6-0.2,0.9-0.1c0.1,0,0.1,0.1,0.1,0.2c0,0-0.1,0.1-0.1,0.2c-0.8,0.6-1.6,1.2-2.3,2
			c-0.7,0.8-1.3,1.7-1.5,2.8C45.9,68.4,45.9,68.4,45.9,68.5z"/>
		<path class="st1" d="M30.1,46.2c0.6,0.1,1.2,0.2,1.8,0.2c0.6,0,1.2,0.1,1.8-0.1c0.1,0,0.2-0.1,0.4-0.2c0.1-0.1,0.2-0.1,0.3,0.1
			c0.1,0.2,0.1,0.4,0.2,0.6c0,0.1,0,0.2-0.1,0.2c-1,1-2.3,1.4-3.6,0.4C30.5,47.1,30.3,46.7,30.1,46.2z"/>
		<path class="st1" d="M74,46.3c-0.2,0.8-1.1,1.6-1.9,1.7c-1,0.2-1.7-0.2-2.4-0.8c-0.1-0.1-0.2-0.3-0.1-0.5c0.1-0.1,0.1-0.3,0.1-0.5
			c0-0.2,0.2-0.2,0.3-0.1c0.4,0.4,0.9,0.4,1.3,0.4c0.7,0,1.4-0.1,2.1-0.2C73.7,46.3,73.8,46.3,74,46.3z"/>
		<path class="st1" d="M45.7,34.9c0-0.6,0.8-1.4,1.7-1.5c0.4,0.4,0.6,0.8,1.1,1c0.3,0.2,0.6,0.4,0.9,0.6c0.3,0.2,0.2,0.4,0,0.6
			c-0.4,0.3-0.8,0.3-1.3,0.1c-0.3-0.2-0.7-0.4-1-0.7c-0.4-0.3-0.8-0.4-1.2-0.2C45.9,34.8,45.8,34.9,45.7,34.9z"/>
		<path class="st1" d="M67.8,48.1c0.7-0.1,1.3-0.4,1.7-0.9c0.4,0.3,0.8,0.5,1.2,0.8c0.2,0.1,0.3,0.2,0.2,0.4
			c-0.1,0.3-0.1,0.6-0.2,0.9c-0.2,0.4-0.5,0.4-0.9,0.2c-0.6-0.4-1.2-0.8-1.8-1.2C67.9,48.2,67.9,48.2,67.8,48.1
			C67.8,48.1,67.8,48.1,67.8,48.1z"/>
		<path class="st1" d="M34.6,47c0.4,0.6,1,0.9,1.7,1c-0.3,0.2-0.5,0.3-0.8,0.5c-0.4,0.3-0.9,0.5-1.3,0.8c-0.3,0.2-0.7,0.1-0.8-0.2
			c-0.2-0.3-0.3-0.7-0.2-1.1c0-0.1,0.1-0.1,0.2-0.2C33.8,47.7,34.3,47.4,34.6,47z"/>
		<path class="st2" d="M40.9,69.5c-0.3-0.4-0.5-0.9-0.4-1.4c0.1-0.4,0.4-0.6,0.8-0.6c0.5,0.1,0.8,0.2,1.2,0.6
			C42,68.6,41.5,69,40.9,69.5z"/>
		<path class="st1" d="M51.4,63c0.2,0.1,0.4,0.2,0.6,0.2c0.2,0,0.4-0.2,0.6-0.3c0.2,0.4,0,1.3-0.6,1.5c-0.2,0.1-0.5-0.1-0.6-0.4
			C51.3,63.7,51.3,63.4,51.4,63z"/>
		<path class="st3" d="M63.1,72.2c0.1-0.5,0.3-0.9,0.4-1.4c0-0.1,0.2-0.1,0.3-0.1c0.1,0,0.2,0.1,0.2,0.1c0.1,0.2,0.3,0.5,0.4,0.8
			c0,0.1,0,0.2,0,0.2C64,71.9,63.6,72.1,63.1,72.2C63.2,72.2,63.2,72.2,63.1,72.2z"/>
		<path class="st1" d="M48,60.9c0.3,0.2,0.5,0.4,0.7,0.5c0,0,0.1,0.1,0.1,0.1c0,0.4,0,0.7,0,1.1c-0.3,0-0.6-0.1-0.7-0.5
			C47.9,61.7,47.9,61.3,48,60.9z"/>
		<path class="st1" d="M49.8,33.3c0.3,0.1,0.6,0.1,0.8,0.2c0.3,0.1,0.5,0.2,0.7,0.3c0.1,0.1,0.2,0.2,0,0.3c-0.3,0.2-0.7,0.3-1.1,0.1
			C50.1,34.1,49.8,33.7,49.8,33.3z"/>
		<path class="st1" d="M54.5,62.4c0,0.6-0.2,1-0.7,1.2c-0.2,0.1-0.2,0-0.2-0.2c0-0.2,0-0.5-0.1-0.7c0-0.1,0-0.2,0.1-0.3
			c0.2-0.1,0.4-0.3,0.6-0.4c0.2-0.1,0.2-0.1,0.2,0.1C54.5,62.2,54.5,62.3,54.5,62.4z"/>
		<path class="st1" d="M50.5,63.5c-0.8,0-1.1-0.7-0.8-1.5c0.2,0.1,0.4,0.3,0.7,0.4c0,0,0,0.1,0,0.1C50.4,62.9,50.5,63.2,50.5,63.5z"
			/>
		<path class="st1" d="M50.6,62.5c0.2,0.1,0.5,0.2,0.7,0.4c0,0,0.1,0.1,0.1,0.1c0,0.3,0,0.7-0.1,1C50.9,64,50.4,63.2,50.6,62.5z"/>
		<path class="st1" d="M49.5,63c-0.2,0-0.5-0.1-0.5-0.4c-0.1-0.3-0.1-0.7-0.1-1c0,0,0.1,0,0.1,0c0.2,0.1,0.4,0.3,0.6,0.4
			c0,0,0,0.1,0,0.1C49.5,62.4,49.5,62.7,49.5,63z"/>
		<path class="st1" d="M54.6,63c0-0.3,0-0.7,0-1c0,0,0-0.1,0.1-0.1c0.2-0.1,0.4-0.2,0.5-0.4C55.4,62,55.1,62.8,54.6,63z"/>
		<path class="st3" d="M62.6,68.3c0-0.3,0-0.5,0-0.8c0,0,0-0.1,0-0.1c0.3-0.3,0.6-0.5,0.9-0.8c0,0,0.1,0,0.1,0.1
			C63.4,67.2,63.1,67.8,62.6,68.3C62.7,68.3,62.7,68.3,62.6,68.3z"/>
		<path class="st3" d="M9.5,44.2c1.6,0,3.1,0,4.6,0C14,44.4,14,44.5,14,44.6c-0.1,0.2-0.2,0.3-0.2,0.5c0,0.1,0,0.3,0,0.4
			c0.3,1.1,0.6,2.2,0.9,3.4c0.3,1,0.5,2,0.8,3c0.1,0.6,0.3,1.1,0.4,1.7c0,0,0,0,0.1,0.1c0.1-0.4,0.2-0.7,0.3-1c0.3-1,0.6-2.1,1-3.1
			c0.3-0.8,0.5-1.7,0.8-2.5c0.2-0.5,0.3-1,0.5-1.5c0.1-0.2,0.1-0.3-0.1-0.4c-0.2-0.2-0.4-0.5-0.6-0.8c0,0,0-0.1-0.1-0.2
			c1.6,0,3.1,0,4.7,0c0,0.1-0.1,0.1-0.1,0.2c-0.1,0.2-0.3,0.3-0.4,0.5c-0.4,0.3-0.5,0.7-0.7,1.1c-0.4,1.1-0.8,2.2-1.1,3.3
			c-0.4,1.3-0.9,2.5-1.3,3.8c-0.3,0.9-0.6,1.8-0.9,2.7c-0.2,0.5-0.3,0.9-0.5,1.4c-0.1,0.2,0,0.3,0.1,0.4c0.2,0.3,0.5,0.7,0.7,1
			c0,0.1,0.1,0.2,0.2,0.3c-1.5,0-3.1,0-4.6,0c0.1-0.1,0.1-0.2,0.2-0.3c0.3-0.4,0.5-0.7,0.7-1.1c0-0.1,0.1-0.2,0-0.3
			c-0.4-1.3-0.9-2.7-1.4-4c-0.4-1.1-0.8-2.3-1.2-3.4c-0.4-1.3-0.9-2.5-1.3-3.8c-0.2-0.6-0.6-1.1-1.1-1.5C9.6,44.4,9.6,44.3,9.5,44.2
			z"/>
		<path class="st3" d="M88.6,58.7c-1.5,0-3,0-4.6,0c0.1-0.2,0.2-0.3,0.2-0.4c0.2-0.2,0.3-0.4,0.5-0.6c0.1-0.1,0.1-0.2,0.1-0.4
			c0-2.8,0-5.5,0-8.3c0-1.1,0-2.2,0-3.3c0-0.3-0.1-0.5-0.3-0.7c-0.2-0.2-0.4-0.4-0.6-0.6c1.5,0,2.9,0,4.4,0
			c-0.2,0.3-0.4,0.5-0.5,0.8c-0.1,0.1-0.1,0.2-0.1,0.4c0,1.1,0,2.2,0,3.3c0,1.6,0,3.3,0,4.9c0,1.2,0,2.4,0,3.5
			c0,0.2,0.1,0.4,0.2,0.5c0.2,0.2,0.4,0.4,0.6,0.6C88.5,58.6,88.5,58.6,88.6,58.7z"/>
		<path d="M68.6,37.9c0,0-0.1,0-0.1,0.1c-0.9,0.3-1.3,0.9-1.5,1.8c-0.1,0.4-0.1,0.9-0.1,1.3c0,0.1,0,0.1,0,0.2
			c0-0.1-0.1-0.1-0.1-0.1c-0.1-0.8,0-1.5,0.4-2.2C67.4,38.4,67.9,38,68.6,37.9C68.5,37.9,68.5,37.9,68.6,37.9
			C68.6,37.9,68.6,37.9,68.6,37.9z"/>
		<path d="M35.5,37.8c0.7,0.2,1.2,0.5,1.5,1.1c0.4,0.7,0.4,1.5,0.4,2.3c0,0-0.1,0-0.1,0c0-0.1,0-0.1,0-0.2c0-0.5,0-1-0.2-1.5
			c-0.2-0.7-0.7-1.3-1.5-1.5c0,0,0,0-0.1,0C35.6,37.9,35.6,37.9,35.5,37.8z"/>
		<path d="M28.4,37.8c-0.1,0.1-0.2,0.1-0.3,0.1c-0.5,0-1,0.1-1.4,0.1c-0.9-0.1-1.8-0.2-2.7-0.3c-0.8-0.1-1.5-0.3-2.3-0.4
			c-0.8-0.2-1.6-0.3-2.5-0.5c-0.3-0.1-0.7-0.1-1-0.2c-0.1,0-0.1,0-0.2-0.1c0,0,0,0,0-0.1c0.3,0.1,0.5,0.1,0.8,0.2
			c1.4,0.3,2.8,0.6,4.2,0.8c1.4,0.2,2.7,0.5,4.1,0.5C27.6,37.9,27.9,37.8,28.4,37.8z"/>
		<path d="M26.3,36.1c-0.1,0-0.2,0.1-0.4,0.1c-0.6,0-1.3-0.1-1.9-0.2c-0.9-0.2-1.9-0.4-2.8-0.7c-1.1-0.3-2.1-0.6-3.2-0.9
			c-0.4-0.1-0.8-0.3-1.2-0.4c0,0,0,0,0-0.1c0.1,0,0.1,0,0.2,0c0.9,0.3,1.8,0.6,2.7,0.8c0.8,0.2,1.7,0.5,2.5,0.7
			c0.7,0.2,1.4,0.4,2.1,0.5c0.5,0.1,1,0.1,1.4,0.2C26,36.1,26.2,36,26.3,36.1C26.3,36,26.3,36.1,26.3,36.1z"/>
		<path d="M86.2,36.6c-0.3,0.1-0.6,0.1-0.9,0.2c-0.7,0.1-1.4,0.3-2.1,0.4c-0.7,0.1-1.4,0.3-2.1,0.4c-0.8,0.1-1.5,0.3-2.3,0.3
			c-0.7,0.1-1.5,0.1-2.3,0.1c-0.3,0-0.5,0-0.7-0.2c0.2,0,0.4,0.1,0.5,0.1c0.8,0.1,1.6,0,2.3-0.1c0.7-0.1,1.4-0.2,2.1-0.3
			c0.9-0.1,1.7-0.3,2.5-0.5c0.9-0.2,1.7-0.4,2.6-0.5C86,36.5,86.1,36.5,86.2,36.6C86.1,36.6,86.1,36.6,86.2,36.6z"/>
		<path d="M87.3,34c-0.5,0.1-0.9,0.3-1.4,0.4c-0.8,0.2-1.6,0.5-2.3,0.7c-1,0.3-2,0.5-3,0.8c-0.6,0.1-1.3,0.2-1.9,0.3
			c-0.2,0-0.5,0-0.7,0c-0.1,0-0.1-0.1-0.2-0.1c0.2,0,0.4,0.1,0.7,0c0.5-0.1,1-0.1,1.5-0.2c1.6-0.4,3.1-0.8,4.7-1.2
			c0.8-0.2,1.5-0.5,2.2-0.7C87.1,34,87.2,34,87.3,34C87.3,34,87.3,34,87.3,34z"/>
		<path d="M27.7,51c-0.2-0.2-0.4-0.3-0.5-0.5c-0.4-0.6-0.6-1.2-0.7-1.9c0-0.3-0.1-0.6-0.1-0.9c0-0.1,0-0.2,0-0.2c0,0,0,0,0.1,0
			c0,0.1,0,0.2,0,0.2c0,0.8,0.1,1.5,0.4,2.2c0.2,0.4,0.4,0.7,0.7,0.9C27.7,50.8,27.7,50.9,27.7,51C27.7,50.9,27.7,50.9,27.7,51z"/>
		<path d="M24.6,50.4C24.6,50.5,24.7,50.5,24.6,50.4c0.3,0.9,0.7,1.2,1.6,1.3c0.3,0,0.6,0.1,0.9,0.1c0,0,0.1,0,0.2,0
			c0,0-0.1,0.1-0.1,0.1c-0.7,0-1.4,0-2-0.4c-0.3-0.2-0.6-0.5-0.6-1C24.6,50.5,24.6,50.5,24.6,50.4C24.6,50.5,24.6,50.5,24.6,50.4z"
			/>
		<path d="M28.1,54.8c-0.2,0-0.3,0-0.5-0.1c-0.8-0.2-1.4-0.6-2.1-1c0,0,0,0,0-0.1C26.4,54,27.1,54.6,28.1,54.8
			C28.1,54.7,28.1,54.7,28.1,54.8z"/>
		<path d="M31.1,61c-0.7,0.5-2,0.8-2.5,0.3C29.5,61.7,30.3,61.4,31.1,61z"/>
		<path d="M27.3,58.9c0.4,0.3,0.8,0.5,1.2,0.5c0.4,0,0.8,0,1.3-0.1C29.3,59.8,27.5,59.5,27.3,58.9z"/>
		<path d="M34.7,61.5c1.1,0.1,1.6-0.6,2-1.5c0.1,0.3-0.3,0.9-0.7,1.2C35.6,61.5,35.2,61.7,34.7,61.5z"/>
		<path d="M25.9,56.4c0.7,0.6,1.5,0.8,2.4,0.7C27.8,57.4,26.3,56.9,25.9,56.4z"/>
		<path d="M31.1,55.9c1.1,0,1.2-0.7,1.2-1.6c0.2,0.2,0.1,0.9-0.1,1.2C32,55.8,31.4,56,31.1,55.9z"/>
		<path d="M32.1,62.9c-0.5,0.4-1.7,0.5-2,0.1C30.8,63.4,31.4,63.1,32.1,62.9z"/>
		<path d="M29.8,52.9c0.3-0.1,0.7-0.2,0.9-0.4c0.3-0.2,0.4-0.5,0.7-0.7c-0.1,0.4-0.3,0.6-0.5,0.8C30.6,52.8,30.2,52.9,29.8,52.9z"/>
		<path d="M34,60c0.3-0.1,0.5-0.3,0.7-0.6c0.1-0.3,0.2-0.5,0.4-0.9C35,59.1,34.5,60.2,34,60z"/>
		<path d="M32.4,58.1c0.5-0.2,0.7-0.6,0.9-1.1C33.4,57.4,32.8,58.1,32.4,58.1z"/>
		<path d="M66.9,65.7c-0.9,1.6-1.8,3.2-2.7,4.8c0,0-0.1,0-0.1,0C65,68.8,65.9,67.2,66.9,65.7C66.8,65.7,66.8,65.7,66.9,65.7z"/>
		<path d="M42.5,58.1c-0.5,0.2-0.9,0.4-1.4,0.6c0,0,0,0-0.1-0.1c0.2-0.4,0.4-0.7,0.6-1.1c0,0,0,0,0.1,0c-0.2,0.3-0.3,0.5-0.5,0.8
			c0,0,0,0,0,0.1C41.7,58.4,42.1,58.2,42.5,58.1C42.5,58.1,42.5,58.1,42.5,58.1z"/>
		<path d="M42.9,59c0-0.3,0.1-0.7,0.1-1c0,0,0.1,0,0.1,0c0,0.3,0,0.6-0.1,0.9c0.5-0.2,0.9-0.5,1.3-0.7c0,0,0,0,0,0.1
			C43.9,58.6,43.4,58.8,42.9,59C42.9,59,42.9,59,42.9,59z"/>
		<path d="M42.5,56.5c-0.4,0.2-0.8,0.3-1.2,0.5c0,0,0,0-0.1-0.1c0.1-0.3,0.3-0.6,0.4-0.8c0,0,0,0,0.1,0c-0.1,0.2-0.2,0.4-0.3,0.6
			c0,0,0,0,0,0C41.9,56.7,42.2,56.5,42.5,56.5C42.5,56.4,42.5,56.5,42.5,56.5z"/>
		<path d="M61.7,56.4c0.3,0.2,0.6,0.3,0.9,0.5c0,0,0,0,0.1,0c-0.1-0.3-0.3-0.7-0.4-1c0,0,0.1,0,0.1,0c0.2,0.4,0.4,0.8,0.6,1.2
			c0,0,0,0-0.1,0.1C62.5,56.9,62.1,56.7,61.7,56.4C61.7,56.5,61.7,56.5,61.7,56.4z"/>
		<path d="M61.1,57.8c0,0.4,0.1,0.7,0.1,1.2c-0.5-0.2-0.9-0.4-1.4-0.6c0,0,0-0.1,0-0.1c0.4,0.2,0.8,0.3,1.2,0.5
			C61,58.4,61,58.1,61.1,57.8C61,57.8,61,57.8,61.1,57.8z"/>
		<path d="M61.8,58.1c0.3,0.1,0.6,0.3,0.9,0.4c0,0,0,0,0,0c-0.1-0.2-0.2-0.5-0.3-0.7c0,0,0,0,0.1,0c0.2,0.3,0.3,0.7,0.5,1
			c0,0,0,0,0,0C62.5,58.6,62.1,58.4,61.8,58.1C61.7,58.1,61.8,58.1,61.8,58.1z"/>
	</g>
</g>
<g>
	<path class="st4" d="M47.2,48.3c-0.9,0-1.8,0-2.7,0v8.7c0,0,0,0,0,0c0.6,0.7,1.1,1.4,1.7,2c0.3,0.3,0.6,0.6,0.9,0.9V48.3z"/>
	<path class="st4" d="M42.7,48.3c-0.5,0-1.1,0-1.6,0c0.1,0.7,0.2,1.3,0.4,2c0.3,1.2,0.7,2.4,1.2,3.6V48.3z"/>
	<path class="st4" d="M50.9,48.3c-0.6,0-1.2,0-1.8,0v13.1h0c0.2,0.1,0.3,0.3,0.5,0.4c0.4,0.3,0.9,0.6,1.3,0.8V48.3z"/>
	<path class="st4" d="M59.5,48.3c-0.7,0-1.4,0-2,0v11c0.4-0.4,0.7-0.7,1-1.1c0.4-0.4,0.7-0.8,1-1.3V48.3z"/>
	<path class="st4" d="M55.6,48.3c-0.9,0-1.9,0-2.8,0v14.5c0.1,0,0.1-0.1,0.2-0.1c0.6-0.4,1.2-0.7,1.8-1.1c0.3-0.2,0.6-0.4,0.9-0.6
		V48.3z"/>
	<path class="st4" d="M61.4,48.3v5.3c0.2-0.4,0.4-0.9,0.5-1.3c0.4-1.3,0.7-2.6,0.9-3.9C62.4,48.3,61.9,48.3,61.4,48.3z"/>
</g>
</svg>
