<?xml version="1.0" encoding="utf-8"?>
<!-- Generator: Adobe Illustrator 22.1.0, SVG Export Plug-In . SVG Version: 6.00 Build 0)  -->
<svg version="1.1" id="Layer_1" xmlns="http://www.w3.org/2000/svg" xmlns:xlink="http://www.w3.org/1999/xlink" x="0px" y="0px"
	 viewBox="0 0 45 45" style="enable-background:new 0 0 45 45;" xml:space="preserve">
<style type="text/css">
	.st0{fill:#FFFFFF;}
	.st1{fill:#BF0A30;}
	.st2{fill:#002868;}
</style>
<g>
	<g>
		<g>
			<g>
				<path class="st0" d="M0,34.6H45c0-1,0-2.2,0-3.5H0C0,32.4,0,33.6,0,34.6z"/>
				<path class="st1" d="M0,30.9c0,0.1,0,0.1,0,0.2h45c0-0.1,0-0.1,0-0.2v-3.2H0V30.9z"/>
				<path class="st0" d="M2.2,41.5h40.6c0.9-1.1,1.4-2.2,1.8-3.5H0.5C0.8,39.4,1.3,40.5,2.2,41.5z"/>
				<path class="st1" d="M42.8,41.5H2.2c0.2,0.2,0.4,0.4,0.6,0.7C5.6,45,8.4,45,14.1,45h16.9c5.6,0,8.4,0,11.3-2.8
					C42.4,42,42.6,41.8,42.8,41.5z"/>
				<path class="st1" d="M0.5,38.1h44.1c0.2-1,0.4-2.1,0.4-3.5H0C0.1,35.9,0.2,37.1,0.5,38.1z"/>
				<rect y="24.2" class="st0" width="45" height="3.5"/>
				<path class="st1" d="M0,14.1v3.2h45v-3.2c0-0.1,0-0.1,0-0.2H0C0,13.9,0,14,0,14.1z"/>
				<path class="st0" d="M0.5,6.9h44.1c-0.3-1.3-0.9-2.4-1.8-3.5H2.2C1.3,4.5,0.8,5.6,0.5,6.9z"/>
				<path class="st1" d="M0,10.4H45c-0.1-1.3-0.2-2.4-0.4-3.5H0.5C0.2,7.9,0.1,9.1,0,10.4z"/>
				<rect y="20.8" class="st1" width="45" height="3.5"/>
				<path class="st1" d="M2.2,3.5h40.6c-0.2-0.2-0.4-0.4-0.6-0.6C39.4,0,36.6,0,30.9,0H14.1C8.4,0,5.6,0,2.8,2.8
					C2.6,3,2.4,3.2,2.2,3.5z"/>
				<path class="st0" d="M0,13.8h45c0-1.3,0-2.4,0-3.5H0C0,11.4,0,12.6,0,13.8z"/>
				<rect y="17.3" class="st0" width="45" height="3.5"/>
			</g>
			<path class="st2" d="M22.5,0h-8.4C8.4,0,5.6,0,2.8,2.8S0,8.4,0,14.1v10.2h22.5V0z"/>
		</g>
		<g>
			<polygon class="st0" points="15.8,1.3 15.6,1.9 15,1.9 15.5,2.2 15.3,2.8 15.8,2.4 16.3,2.8 16.1,2.2 16.6,1.9 16,1.9 			"/>
			<polygon class="st0" points="15.8,6.3 15.6,6.9 15,6.9 15.5,7.3 15.3,7.8 15.8,7.5 16.3,7.8 16.1,7.3 16.6,6.9 16,6.9 			"/>
			<polygon class="st0" points="15.8,11.4 15.6,12 15,12 15.5,12.3 15.3,12.9 15.8,12.5 16.3,12.9 16.1,12.3 16.6,12 16,12 			"/>
			<polygon class="st0" points="15.8,16.5 15.6,17.1 15,17.1 15.5,17.5 15.3,18 15.8,17.7 16.3,18 16.1,17.5 16.6,17.1 16,17.1 			
				"/>
			<polygon class="st0" points="16,22 15.8,21.5 15.6,22 15,22 15.5,22.4 15.3,23 15.8,22.6 16.3,23 16.1,22.4 16.6,22 			"/>
			<polygon class="st0" points="11.3,1.3 11.1,1.9 10.5,1.9 11,2.2 10.8,2.8 11.3,2.4 11.7,2.8 11.6,2.2 12.1,1.9 11.4,1.9 			"/>
			<polygon class="st0" points="11.3,6.3 11.1,6.9 10.5,6.9 11,7.3 10.8,7.8 11.3,7.5 11.7,7.8 11.6,7.3 12.1,6.9 11.4,6.9 			"/>
			<polygon class="st0" points="11.3,11.4 11.1,12 10.5,12 11,12.3 10.8,12.9 11.3,12.5 11.7,12.9 11.6,12.3 12.1,12 11.4,12 			"/>
			<polygon class="st0" points="11.3,16.5 11.1,17.1 10.5,17.1 11,17.5 10.8,18 11.3,17.7 11.7,18 11.6,17.5 12.1,17.1 11.4,17.1 
							"/>
			<polygon class="st0" points="11.4,22 11.3,21.5 11.1,22 10.5,22 11,22.4 10.8,23 11.3,22.6 11.7,23 11.6,22.4 12.1,22 			"/>
			<polygon class="st0" points="6.7,1.3 6.6,1.9 6,1.9 6.4,2.2 6.3,2.8 6.7,2.4 7.2,2.8 7,2.2 7.5,1.9 6.9,1.9 			"/>
			<polygon class="st0" points="6.7,6.3 6.6,6.9 6,6.9 6.4,7.3 6.3,7.8 6.7,7.5 7.2,7.8 7,7.3 7.5,6.9 6.9,6.9 			"/>
			<polygon class="st0" points="6.7,11.4 6.6,12 6,12 6.4,12.3 6.3,12.9 6.7,12.5 7.2,12.9 7,12.3 7.5,12 6.9,12 			"/>
			<polygon class="st0" points="6.7,16.5 6.6,17.1 6,17.1 6.4,17.5 6.3,18 6.7,17.7 7.2,18 7,17.5 7.5,17.1 6.9,17.1 			"/>
			<polygon class="st0" points="6.9,22 6.7,21.5 6.6,22 6,22 6.4,22.4 6.3,23 6.7,22.6 7.2,23 7,22.4 7.5,22 			"/>
			<polygon class="st0" points="2.2,6.3 2,6.9 1.4,6.9 1.9,7.3 1.7,7.8 2.2,7.5 2.7,7.8 2.5,7.3 3,6.9 2.4,6.9 			"/>
			<polygon class="st0" points="2.2,11.4 2,12 1.4,12 1.9,12.3 1.7,12.9 2.2,12.5 2.7,12.9 2.5,12.3 3,12 2.4,12 			"/>
			<polygon class="st0" points="2.2,16.5 2,17.1 1.4,17.1 1.9,17.5 1.7,18 2.2,17.7 2.7,18 2.5,17.5 3,17.1 2.4,17.1 			"/>
			<polygon class="st0" points="2.2,21.5 2,22 1.4,22 1.9,22.4 1.7,23 2.2,22.6 2.7,23 2.5,22.4 3,22 2.4,22 			"/>
			<polygon class="st0" points="18.1,3.8 17.9,4.4 17.3,4.4 17.8,4.7 17.6,5.3 18.1,5 18.6,5.3 18.4,4.7 18.9,4.4 18.3,4.4 			"/>
			<polygon class="st0" points="18.1,9 17.9,9.6 17.3,9.6 17.8,9.9 17.6,10.5 18.1,10.2 18.6,10.5 18.4,9.9 18.9,9.6 18.3,9.6 			
				"/>
			<polygon class="st0" points="18,14.1 17.9,14.7 17.2,14.7 17.7,15 17.5,15.6 18,15.3 18.5,15.6 18.3,15 18.8,14.7 18.2,14.7 			
				"/>
			<polygon class="st0" points="18.2,19.7 18,19.2 17.8,19.7 17.2,19.7 17.7,20.1 17.5,20.7 18,20.3 18.5,20.7 18.3,20.1 18.8,19.7 
							"/>
			<polygon class="st0" points="13.6,3.8 13.4,4.4 12.8,4.4 13.3,4.7 13.1,5.3 13.6,5 14.1,5.3 13.9,4.7 14.4,4.4 13.8,4.4 			"/>
			<polygon class="st0" points="13.6,9 13.4,9.6 12.8,9.6 13.3,9.9 13.1,10.5 13.6,10.2 14.1,10.5 13.9,9.9 14.4,9.6 13.8,9.6 			
				"/>
			<polygon class="st0" points="13.5,14.1 13.3,14.7 12.7,14.7 13.2,15 13,15.6 13.5,15.3 14,15.6 13.8,15 14.3,14.7 13.7,14.7 			
				"/>
			<polygon class="st0" points="13.5,19.2 13.3,19.7 12.7,19.7 13.2,20.1 13,20.7 13.5,20.3 14,20.7 13.8,20.1 14.3,19.7 13.7,19.7 
							"/>
			<polygon class="st0" points="9,3.6 8.9,4.2 8.3,4.2 8.7,4.6 8.6,5.1 9,4.8 9.5,5.1 9.3,4.6 9.8,4.2 9.2,4.2 			"/>
			<polygon class="st0" points="9,8.8 8.9,9.4 8.3,9.4 8.7,9.8 8.6,10.3 9,10 9.5,10.3 9.3,9.8 9.8,9.4 9.2,9.4 			"/>
			<polygon class="st0" points="9,13.9 8.8,14.5 8.2,14.5 8.7,14.9 8.5,15.4 9,15.1 9.5,15.4 9.3,14.9 9.8,14.5 9.2,14.5 			"/>
			<polygon class="st0" points="9.1,19.6 9,19 8.8,19.6 8.2,19.6 8.7,19.9 8.5,20.5 9,20.1 9.4,20.5 9.3,19.9 9.7,19.6 			"/>
			<polygon class="st0" points="4.5,3.6 4.3,4.2 3.7,4.2 4.2,4.5 4,5.1 4.5,4.7 5,5.1 4.8,4.5 5.3,4.2 4.7,4.2 			"/>
			<polygon class="st0" points="4.5,8.8 4.3,9.4 3.7,9.4 4.2,9.7 4,10.3 4.5,9.9 5,10.3 4.8,9.7 5.3,9.4 4.7,9.4 			"/>
			<polygon class="st0" points="4.5,13.9 4.3,14.5 3.7,14.5 4.2,14.8 4,15.4 4.5,15 5,15.4 4.8,14.8 5.3,14.5 4.7,14.5 			"/>
			<polygon class="st0" points="4.6,19.5 4.4,18.9 4.2,19.5 3.6,19.5 4.1,19.9 3.9,20.4 4.4,20.1 4.9,20.4 4.7,19.9 5.2,19.5 			"/>
			<path class="st0" d="M0.3,9.6l0.5-0.4H0.2L0.1,9.1c0,0.3,0,0.5-0.1,0.8l0.4,0.3L0.3,9.6z"/>
			<path class="st0" d="M0.3,14.7l0.5-0.4H0.1L0,13.9c0,0,0,0.1,0,0.1V15l0.4,0.3L0.3,14.7z"/>
			<polygon class="st0" points="0.2,19.8 0.7,19.4 0.1,19.4 0,19.1 0,20 0.4,20.3 			"/>
			<polygon class="st0" points="20.3,1.3 20.1,1.9 19.5,1.9 20,2.2 19.8,2.8 20.3,2.4 20.8,2.8 20.6,2.2 21.1,1.9 20.5,1.9 			"/>
			<polygon class="st0" points="20.3,6.3 20.1,6.9 19.5,6.9 20,7.3 19.8,7.8 20.3,7.5 20.8,7.8 20.6,7.3 21.1,6.9 20.5,6.9 			"/>
			<polygon class="st0" points="20.3,11.4 20.1,12 19.5,12 20,12.3 19.8,12.9 20.3,12.5 20.8,12.9 20.6,12.3 21.1,12 20.5,12 			"/>
			<polygon class="st0" points="20.3,16.5 20.1,17.1 19.5,17.1 20,17.5 19.8,18 20.3,17.7 20.8,18 20.6,17.5 21.1,17.1 20.5,17.1 
							"/>
			<polygon class="st0" points="20.5,22 20.3,21.5 20.1,22 19.5,22 20,22.4 19.8,23 20.3,22.6 20.8,23 20.6,22.4 21.1,22 			"/>
		</g>
	</g>
</g>
</svg>
