<svg xmlns="http://www.w3.org/2000/svg" width="61.31" height="51.27" viewBox="0 0 61.31 51.27"><defs><style>.a{fill:#183f74;}</style></defs><path class="a" d="M46.44,38.06,36.58,33a3.27,3.27,0,0,0-4,.9l-3.61,4.64a34.07,34.07,0,0,1-9.27-6.83,36.07,36.07,0,0,1-6.9-9.46l4.58-3.54a3.28,3.28,0,0,0,.9-4.06L13.14,4.83a3.28,3.28,0,0,0-4.7-1.22L2.19,7.79A5,5,0,0,0,0,12.17a30.25,30.25,0,0,0,.78,5.6C2.58,24.79,7,32,13.14,38.12s13.4,10.5,20.35,12.37a36.55,36.55,0,0,0,5.6.77A4.85,4.85,0,0,0,43.54,49l4.05-6.31A3.19,3.19,0,0,0,46.44,38.06Z"/><path class="a" d="M58.67,0h-31a2.59,2.59,0,0,0-2.58,2.58V4.25l18.1,7.6,18.1-7.6V2.58A2.59,2.59,0,0,0,58.67,0Z"/><path class="a" d="M43.15,16a4.37,4.37,0,0,1-1.61-.33L25.05,8.82V23.7a2.58,2.58,0,0,0,2.58,2.57H58.74a2.58,2.58,0,0,0,2.57-2.57V8.82L44.76,15.71A4.33,4.33,0,0,1,43.15,16Z"/></svg>