<svg xmlns="http://www.w3.org/2000/svg" width="63.35mm" height="16.19mm" viewBox="0 0 179.58 45.9"><defs><style>.a{fill:#0ab7ec;}.b{fill:#fff;}</style></defs><rect class="a" x="134.74" y="15.98" width="3.66" height="20.19"/><path class="a" d="M160.75,16V19a7.75,7.75,0,0,0-3.05-2.42,9.73,9.73,0,0,0-4-.82,10.54,10.54,0,0,0-5.25,1.3,9.31,9.31,0,0,0-3.64,3.62,10.68,10.68,0,0,0-1.31,5.37,10.79,10.79,0,0,0,1.31,5.39,9.27,9.27,0,0,0,3.64,3.63,10.54,10.54,0,0,0,5.25,1.3,9.52,9.52,0,0,0,4.12-.88A7.85,7.85,0,0,0,160.9,33v3.2h3.51V16Zm-.84,13.81a6.27,6.27,0,0,1-2.43,2.52,7.25,7.25,0,0,1-7,0,6.48,6.48,0,0,1-2.43-2.52,7.52,7.52,0,0,1-.9-3.71,7.53,7.53,0,0,1,.9-3.72,6.26,6.26,0,0,1,2.43-2.49,7.32,7.32,0,0,1,7,0,6.07,6.07,0,0,1,2.43,2.49,7.63,7.63,0,0,1,.88,3.72,7.62,7.62,0,0,1-.88,3.71"/><path class="b" d="M153.18,0A2.8,2.8,0,1,0,156,2.8a2.8,2.8,0,0,0-2.8-2.8"/><path class="b" d="M169.87,6.91a2.81,2.81,0,1,0,2.8,2.8,2.8,2.8,0,0,0-2.8-2.8"/><path class="b" d="M179.58,26.4a2.8,2.8,0,1,0-2.8,2.81,2.8,2.8,0,0,0,2.8-2.81"/><path class="b" d="M171.85,45.08a2.8,2.8,0,1,0-4,0,2.82,2.82,0,0,0,4,0"/><path class="a" d="M136.49,6.91a2.81,2.81,0,1,0,2.8,2.81,2.8,2.8,0,0,0-2.8-2.81"/><rect class="b" x="0.97" y="15.98" width="3.66" height="20.19"/><path class="b" d="M22.38,15.79a10.38,10.38,0,0,0-4.28.84,7.07,7.07,0,0,0-3,2.4V16H11.6V36.17h3.66V25.77a6.78,6.78,0,0,1,1.71-5,6.32,6.32,0,0,1,4.69-1.73,5.27,5.27,0,0,1,4,1.48A6.21,6.21,0,0,1,27.1,25v11.2h3.66V24.55c0-2.87-.75-5-2.27-6.53a8.35,8.35,0,0,0-6.11-2.23"/><path class="b" d="M48.42,25.6a30.83,30.83,0,0,0-4-.89c-1.21-.23-2.16-.44-2.83-.61a4.37,4.37,0,0,1-1.7-.84,1.91,1.91,0,0,1-.68-1.56,2.3,2.3,0,0,1,1.21-2A6.76,6.76,0,0,1,44,18.92a10.45,10.45,0,0,1,5.82,1.6l1.57-2.9a10.89,10.89,0,0,0-3.32-1.33,16.86,16.86,0,0,0-4-.5,10.21,10.21,0,0,0-6.13,1.66,5.17,5.17,0,0,0-2.28,4.4,4.63,4.63,0,0,0,1.1,3.31,6.14,6.14,0,0,0,2.65,1.68,27.72,27.72,0,0,0,4,.88c1.19.2,2.11.38,2.76.55a4,4,0,0,1,1.62.78,1.78,1.78,0,0,1,.65,1.45c0,1.82-1.6,2.74-4.8,2.74a13.35,13.35,0,0,1-3.85-.57,10.82,10.82,0,0,1-3.24-1.53L35,34a10.48,10.48,0,0,0,3.58,1.69,16.69,16.69,0,0,0,4.76.67,11.06,11.06,0,0,0,6.38-1.62,5,5,0,0,0,2.34-4.36A4.51,4.51,0,0,0,51,27.22a5.94,5.94,0,0,0-2.57-1.62"/><rect class="b" x="56.62" y="15.98" width="3.66" height="20.19"/><path class="b" d="M83.1,19.11a7.92,7.92,0,0,0-3.22-2.48,10.67,10.67,0,0,0-4.25-.84A11.24,11.24,0,0,0,70.39,17a9,9,0,0,0-3.67,3.45,9.68,9.68,0,0,0-1.33,5.08,9.71,9.71,0,0,0,1.33,5.09,9.29,9.29,0,0,0,3.67,3.47,11.13,11.13,0,0,0,5.24,1.23,10.65,10.65,0,0,0,4.1-.78,8.19,8.19,0,0,0,3.18-2.34v1.6a6.87,6.87,0,0,1-1.7,5.1C80.08,40,78.34,40.59,76,40.59a13.47,13.47,0,0,1-4.28-.7A10.46,10.46,0,0,1,68.2,38l-1.75,2.82A10.71,10.71,0,0,0,70.64,43a18.8,18.8,0,0,0,5.45.78c3.48,0,6.09-.85,7.85-2.53s2.62-4.3,2.62-7.83V16H83.1Zm-1,9.84a6.17,6.17,0,0,1-2.48,2.35,7.57,7.57,0,0,1-3.56.83,7.7,7.7,0,0,1-3.6-.83A6.15,6.15,0,0,1,70,29a6.51,6.51,0,0,1-.9-3.41A6.2,6.2,0,0,1,71,20.8a7.84,7.84,0,0,1,10,0A6.17,6.17,0,0,1,83,25.54,6.5,6.5,0,0,1,82.09,29"/><path class="b" d="M104.31,15.79a10.35,10.35,0,0,0-4.13.8,7.66,7.66,0,0,0-3,2.25V7.91H93.54V36.17h3.65V25.77a6.75,6.75,0,0,1,1.72-5,6.3,6.3,0,0,1,4.68-1.73,5.31,5.31,0,0,1,4,1.48A6.21,6.21,0,0,1,109,25v11.2h3.66V24.55c0-2.87-.76-5-2.27-6.53a8.37,8.37,0,0,0-6.12-2.23"/><path class="b" d="M126.1,33.31a3.07,3.07,0,0,1-2.34-.87,3.54,3.54,0,0,1-.82-2.52V19h5.79V16h-5.79V11.56h-3.65V30.08A6.23,6.23,0,0,0,121,34.76a6.48,6.48,0,0,0,4.72,1.64,8.33,8.33,0,0,0,2.44-.36,5.35,5.35,0,0,0,2-1L129,32.36a4.39,4.39,0,0,1-2.86,1"/><path class="b" d="M58.45,6.91a2.81,2.81,0,1,0,2.8,2.81,2.81,2.81,0,0,0-2.8-2.81"/><path class="b" d="M2.8,6.91A2.81,2.81,0,1,0,5.6,9.72,2.8,2.8,0,0,0,2.8,6.91"/><rect class="b" x="90.25" y="43.2" width="0.5" height="2.7"/><polygon class="b" points="94.44 45.02 92.95 43.2 92.54 43.2 92.54 45.9 93.04 45.9 93.04 44.07 94.52 45.9 94.94 45.9 94.94 43.2 94.44 43.2 94.44 45.02"/><polygon class="b" points="96.38 43.62 97.27 43.62 97.27 45.9 97.77 45.9 97.77 43.62 98.67 43.62 98.67 43.2 96.38 43.2 96.38 43.62"/><polygon class="b" points="100.61 44.73 101.91 44.73 101.91 44.32 100.61 44.32 100.61 43.62 102.07 43.62 102.07 43.2 100.1 43.2 100.1 45.9 102.13 45.9 102.13 45.48 100.61 45.48 100.61 44.73"/><polygon class="b" points="104.25 43.2 103.75 43.2 103.75 45.9 105.66 45.9 105.66 45.47 104.25 45.47 104.25 43.2"/><polygon class="b" points="107.62 43.2 107.12 43.2 107.12 45.9 109.03 45.9 109.03 45.47 107.62 45.47 107.62 43.2"/><rect class="b" x="110.49" y="43.2" width="0.5" height="2.7"/><path class="b" d="M113.56,43.68a1.07,1.07,0,0,1,.51-.12,1,1,0,0,1,.74.31l.32-.31a1.33,1.33,0,0,0-.47-.33,1.7,1.7,0,0,0-.61-.11,1.54,1.54,0,0,0-.75.18,1.28,1.28,0,0,0-.53.5,1.39,1.39,0,0,0-.18.71,1.41,1.41,0,0,0,.18.71,1.39,1.39,0,0,0,.52.5,1.57,1.57,0,0,0,.75.18,1.88,1.88,0,0,0,.57-.09,1.48,1.48,0,0,0,.48-.26V44.48h-.47v.84a1.1,1.1,0,0,1-.55.14,1,1,0,0,1-.51-.13.8.8,0,0,1-.34-.34.86.86,0,0,1-.13-.48.93.93,0,0,1,.13-.5.83.83,0,0,1,.34-.33"/><polygon class="b" points="117.32 44.73 118.62 44.73 118.62 44.32 117.32 44.32 117.32 43.62 118.78 43.62 118.78 43.2 116.81 43.2 116.81 45.9 118.84 45.9 118.84 45.48 117.32 45.48 117.32 44.73"/><polygon class="b" points="122.36 45.02 120.87 43.2 120.46 43.2 120.46 45.9 120.96 45.9 120.96 44.07 122.44 45.9 122.86 45.9 122.86 43.2 122.36 43.2 122.36 45.02"/><polygon class="b" points="124.3 43.62 125.19 43.62 125.19 45.9 125.69 45.9 125.69 43.62 126.58 43.62 126.58 43.2 124.3 43.2 124.3 43.62"/><path class="b" d="M131.77,43.2l-1.21,2.7h.51l.27-.63h1.35l.27.63h.52l-1.22-2.7Zm-.26,1.68.5-1.18.51,1.18Z"/><polygon class="b" points="136.78 45.02 135.3 43.2 134.88 43.2 134.88 45.9 135.38 45.9 135.38 44.07 136.87 45.9 137.28 45.9 137.28 43.2 136.78 43.2 136.78 45.02"/><path class="b" d="M139.9,43.2l-1.21,2.7h.51l.27-.63h1.35l.27.63h.52l-1.22-2.7Zm-.26,1.68.5-1.18.51,1.18Z"/><polygon class="b" points="143.52 43.2 143.02 43.2 143.02 45.9 144.93 45.9 144.93 45.47 143.52 45.47 143.52 43.2"/><polygon class="b" points="147.03 44.51 146.24 43.2 145.71 43.2 146.77 44.95 146.77 45.9 147.27 45.9 147.27 44.94 148.32 43.2 147.83 43.2 147.03 44.51"/><polygon class="b" points="149.33 43.62 150.22 43.62 150.22 45.9 150.72 45.9 150.72 43.62 151.62 43.62 151.62 43.2 149.33 43.2 149.33 43.62"/><rect class="b" x="153.06" y="43.2" width="0.5" height="2.7"/><path class="b" d="M156.13,43.68a1,1,0,0,1,.49-.12.93.93,0,0,1,.72.32l.33-.31a1.22,1.22,0,0,0-.47-.33,1.46,1.46,0,0,0-.6-.12,1.53,1.53,0,0,0-.74.18,1.32,1.32,0,0,0-.52.5,1.39,1.39,0,0,0-.19.71,1.42,1.42,0,0,0,.19.71,1.39,1.39,0,0,0,.52.5,1.5,1.5,0,0,0,.74.18,1.46,1.46,0,0,0,.6-.12,1.24,1.24,0,0,0,.47-.34l-.33-.3a.93.93,0,0,1-.72.32.9.9,0,0,1-.49-.13.93.93,0,0,1-.35-.33,1,1,0,0,1-.12-.49,1,1,0,0,1,.12-.49.88.88,0,0,1,.35-.34"/><path class="b" d="M161,44.68a1,1,0,0,0-.33-.23,4.48,4.48,0,0,0-.5-.15l-.34-.09a.53.53,0,0,1-.21-.12.23.23,0,0,1-.09-.19.29.29,0,0,1,.15-.26.73.73,0,0,1,.44-.1,1.64,1.64,0,0,1,.37.05,1.73,1.73,0,0,1,.37.16l.16-.39a1.28,1.28,0,0,0-.41-.18,2,2,0,0,0-.49-.06,1.57,1.57,0,0,0-.6.11.81.81,0,0,0-.36.29.73.73,0,0,0-.12.41.64.64,0,0,0,.13.42.86.86,0,0,0,.33.23,2.85,2.85,0,0,0,.5.14l.35.1a.72.72,0,0,1,.21.12.26.26,0,0,1,.08.19.29.29,0,0,1-.15.25.79.79,0,0,1-.45.1,1.61,1.61,0,0,1-.48-.08,1.45,1.45,0,0,1-.41-.22l-.17.39a1.17,1.17,0,0,0,.46.24,2,2,0,0,0,.6.09,1.5,1.5,0,0,0,.6-.11.79.79,0,0,0,.37-.29.73.73,0,0,0,.12-.41.59.59,0,0,0-.13-.41"/></svg>