<?xml version="1.0" encoding="utf-8"?>
<!-- Generator: Adobe Illustrator 24.0.2, SVG Export Plug-In . SVG Version: 6.00 Build 0)  -->
<svg version="1.1" id="Layer_1" xmlns="http://www.w3.org/2000/svg" xmlns:xlink="http://www.w3.org/1999/xlink" x="0px" y="0px"
	 viewBox="0 0 1087.66 356.94" style="enable-background:new 0 0 1087.66 356.94;" xml:space="preserve">
<style type="text/css">
	.Arched_x0020_Green{fill:url(#SVGID_1_);stroke:#FFFFFF;stroke-width:0.25;stroke-miterlimit:1;}
	.st0{fill:#FFFFFF;}
	.st1{fill:#D23D39;}
	.st2{fill:#AF2A3C;}
	.st3{fill:#901E27;}
	.st4{fill:#00B8ED;}

</style>
<linearGradient id="SVGID_1_" gradientUnits="userSpaceOnUse" x1="39.0851" y1="324.5532" x2="39.7922" y2="323.8461">
	<stop  offset="0" style="stop-color:#1EAB4B"/>
	<stop  offset="0.9831" style="stop-color:#19361A"/>
</linearGradient>
<rect x="788.51" y="109.4" class="st4" width="20.29" height="112.04"/>
<path class="st4" d="M932.9,109.4v16.91c-4.51-5.92-10.15-10.39-16.91-13.42c-6.76-3.03-14.16-4.54-22.2-4.54
	c-10.85,0-20.58,2.4-29.17,7.19c-8.6,4.79-15.33,11.49-20.19,20.08c-4.86,8.6-7.29,18.53-7.29,29.81c0,11.28,2.43,21.25,7.29,29.91
	c4.86,8.67,11.59,15.4,20.19,20.19c8.59,4.79,18.32,7.19,29.17,7.19c8.32,0,15.92-1.62,22.83-4.86c6.9-3.24,12.61-7.96,17.12-14.16
	v17.76h19.45V109.4H932.9z M928.25,186.03c-3.24,5.99-7.75,10.64-13.53,13.95c-5.78,3.31-12.19,4.97-19.24,4.97
	c-7.19,0-13.64-1.65-19.34-4.97c-5.71-3.31-10.22-7.96-13.53-13.95c-3.31-5.99-4.97-12.86-4.97-20.61c0-7.75,1.65-14.62,4.97-20.61
	c3.31-5.99,7.82-10.6,13.53-13.85c5.71-3.24,12.15-4.86,19.34-4.86c7.05,0,13.46,1.62,19.24,4.86c5.78,3.24,10.29,7.86,13.53,13.85
	c3.24,5.99,4.86,12.86,4.86,20.61C933.11,173.17,931.49,180.04,928.25,186.03z"/>
<path class="st0" d="M890.88,20.69c-8.59,0-15.55,6.96-15.55,15.55c0,8.59,6.96,15.55,15.55,15.55c8.59,0,15.55-6.96,15.55-15.55
	C906.43,27.66,899.46,20.69,890.88,20.69z"/>
<path class="st0" d="M983.5,59.06c-8.59,0-15.55,6.96-15.55,15.55c0,8.59,6.96,15.55,15.55,15.55c8.59,0,15.55-6.96,15.55-15.55
	S992.09,59.06,983.5,59.06z"/>
<g>
	<g>
		<path class="st0" d="M1037.42,167.23c0-8.59-6.96-15.55-15.55-15.55c-8.59,0-15.55,6.96-15.55,15.55
			c0,8.59,6.96,15.55,15.55,15.55C1030.45,182.79,1037.42,175.82,1037.42,167.23z"/>
	</g>
</g>
<path class="st0" d="M994.5,270.85c6.07-6.07,6.07-15.92,0-21.99c-6.07-6.07-15.92-6.07-21.99,0c-6.07,6.07-6.07,15.92,0,21.99
	C978.58,276.93,988.42,276.93,994.5,270.85z"/>
<path class="st4" d="M798.26,59.06c-8.59,0-15.55,6.96-15.55,15.55c0,8.59,6.96,15.55,15.55,15.55c8.59,0,15.55-6.96,15.55-15.55
	C813.8,66.02,806.84,59.06,798.26,59.06z"/>
<g>
	<rect x="46.15" y="109.4" class="st0" width="20.29" height="112.04"/>
	<path class="st0" d="M164.96,108.34c-8.88,0-16.81,1.55-23.78,4.65c-6.98,3.1-12.51,7.54-16.59,13.32V109.4h-19.45v112.04h20.29
		v-57.71c0-11.98,3.17-21.17,9.51-27.59c6.34-6.41,15.01-9.62,26-9.62c9.72,0,17.19,2.75,22.41,8.25c5.21,5.5,7.82,13.67,7.82,24.52
		v62.15h20.29v-64.48c0-15.92-4.19-28.01-12.58-36.25C190.5,112.46,179.19,108.34,164.96,108.34z"/>
	<path class="st0" d="M309.46,162.78c-5.57-1.76-12.86-3.42-21.88-4.97c-6.76-1.27-12.02-2.39-15.75-3.38
		c-3.74-0.98-6.87-2.54-9.41-4.65c-2.54-2.11-3.8-5-3.8-8.67c0-4.65,2.25-8.38,6.76-11.21c4.51-2.82,11.06-4.23,19.66-4.23
		c12.4,0,23.18,2.96,32.34,8.88l8.67-16.07c-4.79-3.1-10.93-5.57-18.39-7.4c-7.47-1.83-14.94-2.75-22.41-2.75
		c-14.24,0-25.58,3.07-34.04,9.2c-8.46,6.13-12.69,14.27-12.69,24.42c0,7.9,2.04,14.03,6.13,18.39c4.09,4.37,8.98,7.47,14.69,9.3
		c5.71,1.83,13.07,3.46,22.09,4.86c6.62,1.13,11.73,2.15,15.33,3.06c3.59,0.92,6.59,2.36,8.98,4.33c2.39,1.98,3.59,4.65,3.59,8.03
		c0,10.15-8.88,15.22-26.64,15.22c-7.19,0-14.3-1.06-21.35-3.17c-7.05-2.11-13.04-4.93-17.97-8.45l-8.46,16.07
		c4.79,3.8,11.42,6.94,19.87,9.41c8.46,2.46,17.26,3.7,26.43,3.7c14.94,0,26.74-2.99,35.41-8.99c8.67-5.99,13-14.06,13-24.2
		c0-7.61-1.97-13.53-5.92-17.76C319.78,167.53,315.02,164.54,309.46,162.78z"/>
	<rect x="355.01" y="109.4" class="st0" width="20.29" height="112.04"/>
	<path class="st0" d="M501.93,126.73c-4.65-6.06-10.61-10.64-17.86-13.74c-7.26-3.1-15.12-4.65-23.57-4.65
		c-10.71,0-20.4,2.26-29.07,6.76c-8.67,4.51-15.47,10.89-20.4,19.13c-4.93,8.25-7.4,17.65-7.4,28.22c0,10.57,2.46,19.98,7.4,28.22
		c4.93,8.25,11.73,14.66,20.4,19.24c8.67,4.58,18.36,6.87,29.07,6.87c8.17,0,15.75-1.44,22.72-4.33c6.98-2.89,12.86-7.22,17.65-13
		v8.88c0,12.68-3.14,22.12-9.41,28.33c-6.27,6.2-15.96,9.3-29.07,9.3c-8.17,0-16.1-1.31-23.78-3.91
		c-7.68-2.61-14.13-6.17-19.34-10.67l-9.73,15.64c5.92,5.36,13.67,9.48,23.25,12.37c9.58,2.89,19.66,4.34,30.23,4.34
		c19.31,0,33.82-4.69,43.55-14.06c9.72-9.37,14.59-23.85,14.59-43.44V109.4h-19.24V126.73z M496.33,181.38
		c-3.31,5.57-7.89,9.9-13.74,13c-5.85,3.1-12.44,4.65-19.77,4.65c-7.47,0-14.13-1.55-19.98-4.65c-5.85-3.1-10.43-7.43-13.74-13
		c-3.31-5.57-4.97-11.87-4.97-18.92c0-10.85,3.59-19.62,10.78-26.32c7.19-6.69,16.49-10.04,27.91-10.04
		c11.27,0,20.5,3.35,27.69,10.04c7.19,6.7,10.78,15.47,10.78,26.32C501.3,169.51,499.64,175.81,496.33,181.38z"/>
	<path class="st0" d="M619.68,108.34c-8.45,0-16.1,1.48-22.94,4.44c-6.84,2.96-12.37,7.12-16.59,12.47V64.58h-20.29v156.86h20.29
		v-57.71c0-11.98,3.17-21.17,9.51-27.59c6.34-6.41,15.01-9.62,26-9.62c9.72,0,17.19,2.75,22.41,8.25c5.21,5.5,7.82,13.67,7.82,24.52
		v62.15h20.29v-64.48c0-15.92-4.19-28.01-12.58-36.25C645.23,112.46,633.92,108.34,619.68,108.34z"/>
	<path class="st0" d="M740.61,205.59c-5.64,0-9.97-1.62-13-4.86c-3.03-3.24-4.55-7.89-4.55-13.95V126.1h32.13v-16.7h-32.13V84.87
		h-20.29v102.74c0,11.28,3.1,19.94,9.3,26c6.2,6.06,14.94,9.09,26.21,9.09c4.65,0,9.16-0.67,13.53-2.01
		c4.37-1.34,8.03-3.28,10.99-5.82l-6.34-14.59C752.09,203.83,746.81,205.59,740.61,205.59z"/>
	<path class="st0" d="M365.16,59.06c-8.59,0-15.55,6.96-15.55,15.55s6.96,15.55,15.55,15.55c8.59,0,15.55-6.96,15.55-15.55
		C380.71,66.02,373.75,59.06,365.16,59.06z"/>
	<path class="st0" d="M56.3,59.06c-8.59,0-15.55,6.96-15.55,15.55c0,8.59,6.96,15.55,15.55,15.55c8.59,0,15.55-6.96,15.55-15.55
		C71.85,66.02,64.89,59.06,56.3,59.06z"/>
</g>
<rect x="507.65" y="339.7" class="st1" width="148.45" height="12.64"/>
<rect x="656.13" y="339.7" class="st2" width="148.44" height="12.64"/>
<rect x="804.57" y="339.7" class="st3" width="148.45" height="12.64"/>
<g>
	<g>
		<path class="st0" d="M529.01,305.39v-5.99c-1.88-2.54-5.21-3.84-8.6-3.84c-4.63,0-7.81,2.86-7.81,6.84c0,4.04,3.18,6.9,7.81,6.9
			C523.8,309.3,527.13,308,529.01,305.39 M529.01,312.04v-3.59c-2.54,2.87-6.19,4.37-10.42,4.37c-5.27,0-10.94-3.59-10.94-10.42
			c0-7.1,5.6-10.36,10.94-10.36c4.3,0,7.88,1.37,10.42,4.24v-5.67c0-4.17-3.38-6.58-7.95-6.58c-3.78,0-6.84,1.3-9.64,4.37
			l-2.28-3.39c3.38-3.51,7.42-5.2,12.56-5.2c6.71,0,12.18,2.99,12.18,10.61v21.62H529.01z"/>
		<path class="st0" d="M592.32,290.35c0-9.38-5.93-16.93-16.68-16.93h-9.45v33.8h9.45C586.19,307.22,592.32,299.67,592.32,290.35
			 M560.8,312.04V268.6h14.85c13.55,0,22.27,9.45,22.27,21.75c0,12.37-8.72,21.69-22.27,21.69H560.8z"/>
		<path class="st0" d="M606.2,280.59h4.89v31.46h-4.89V280.59z M605.34,272.83c0-1.83,1.5-3.32,3.32-3.32
			c1.83,0,3.26,1.49,3.26,3.32s-1.43,3.26-3.26,3.26C606.85,276.09,605.34,274.66,605.34,272.83"/>
	</g>
</g>
<rect x="620.84" y="268.6" class="st0" width="4.89" height="43.44"/>
<g>
	<g>
		<path class="st0" d="M635.5,280.59h4.89v31.46h-4.89V280.59z M634.65,272.83c0-1.83,1.5-3.32,3.32-3.32
			c1.83,0,3.26,1.49,3.26,3.32s-1.43,3.26-3.26,3.26C636.15,276.09,634.65,274.66,634.65,272.83"/>
		<path class="st0" d="M672.95,302.98v-13.81c-1.76-2.67-5.54-5.01-9.38-5.01c-6.39,0-10.16,5.01-10.16,11.98
			c0,6.9,3.78,11.92,10.16,11.92C667.41,308.07,671.19,305.73,672.95,302.98 M650.09,320.05l2.48-3.52
			c2.6,3.06,5.73,4.24,10.22,4.24c5.21,0,10.16-2.54,10.16-9.18v-4.76c-2.34,3.19-6.19,5.6-10.61,5.6
			c-8.21,0-14.01-6.12-14.01-16.28c0-10.09,5.73-16.34,14.01-16.34c4.23,0,8.07,2.08,10.61,5.54v-4.76h4.89v31.01
			c0,9.96-7.36,13.21-15.05,13.21C657.51,324.8,653.86,323.76,650.09,320.05"/>
		<path class="st0" d="M701.21,283.84c-6.7,0-10.03,5.67-10.29,10.42h20.64C711.5,289.63,708.37,283.84,701.21,283.84
			 M685.78,296.28c0-9.12,6.51-16.48,15.5-16.48c9.51,0,15.11,7.42,15.11,16.87v1.23h-25.4c0.39,5.93,4.49,10.88,11.26,10.88
			c3.65,0,7.23-1.43,9.77-4.04l2.34,3.19c-3.19,3.13-7.42,4.89-12.51,4.89C692.49,312.82,685.78,306.11,685.78,296.28"/>
		<path class="st0" d="M745.57,312.04v-20.58c0-5.6-2.87-7.3-7.1-7.3c-3.84,0-7.43,2.34-9.31,4.89v22.99h-4.89v-31.46h4.89v4.56
			c2.21-2.67,6.51-5.34,11.26-5.34c6.51,0,9.96,3.32,9.96,10.15v22.08H745.57z"/>
		<path class="st0" d="M761.2,305.46v-20.58h-5.21v-4.3h5.21v-8.6h4.95v8.6h6.38v4.3h-6.38v19.54c0,2.34,1.04,4.04,3.13,4.04
			c1.42,0,2.67-0.65,3.32-1.37l1.43,3.72c-1.24,1.17-2.99,2.02-5.79,2.02C763.54,312.82,761.2,310.15,761.2,305.46"/>
		<path class="st0" d="M810.56,308.45c6.32,0,10.1-5.14,10.1-12.11c0-6.97-3.78-12.18-10.1-12.18c-3.9,0-7.75,2.34-9.44,5.08v14.27
			C802.81,306.24,806.66,308.45,810.56,308.45 M796.23,312.04V268.6h4.89v16.73c2.53-3.45,6.38-5.53,10.61-5.53
			c8.27,0,14,6.44,14,16.54c0,10.22-5.79,16.48-14,16.48c-4.43,0-8.27-2.29-10.61-5.47v4.69H796.23z"/>
		<path class="st0" d="M833.68,312.04v-31.46h4.89v5.02c2.53-3.26,6.19-5.74,10.48-5.74v5.02c-0.58-0.07-1.17-0.13-1.88-0.13
			c-3.06,0-7.16,2.48-8.6,5.02v22.27H833.68z"/>
		<path class="st0" d="M874.84,305.39v-5.99c-1.89-2.54-5.21-3.84-8.6-3.84c-4.63,0-7.81,2.86-7.81,6.84c0,4.04,3.18,6.9,7.81,6.9
			C869.63,309.3,872.95,308,874.84,305.39 M874.84,312.04v-3.59c-2.54,2.87-6.19,4.37-10.42,4.37c-5.27,0-10.94-3.59-10.94-10.42
			c0-7.1,5.6-10.36,10.94-10.36c4.3,0,7.88,1.37,10.42,4.24v-5.67c0-4.17-3.38-6.58-7.95-6.58c-3.78,0-6.84,1.3-9.64,4.37
			l-2.28-3.39c3.39-3.51,7.42-5.2,12.56-5.2c6.71,0,12.18,2.99,12.18,10.61v21.62H874.84z"/>
		<path class="st0" d="M910.86,312.04v-20.58c0-5.6-2.87-7.3-7.1-7.3c-3.84,0-7.43,2.34-9.31,4.89v22.99h-4.89v-31.46h4.89v4.56
			c2.21-2.67,6.51-5.34,11.26-5.34c6.51,0,9.96,3.32,9.96,10.15v22.08H910.86z"/>
		<path class="st0" d="M948.31,303.44v-14.2c-1.69-2.73-5.54-5.08-9.38-5.08c-6.38,0-10.15,5.21-10.15,12.18
			c0,6.96,3.78,12.11,10.15,12.11C942.77,308.45,946.62,306.18,948.31,303.44 M948.31,312.04v-4.69c-2.34,3.18-6.19,5.47-10.61,5.47
			c-8.2,0-14.01-6.25-14.01-16.48c0-10.1,5.8-16.54,14.01-16.54c4.24,0,8.07,2.07,10.61,5.53V268.6h4.89v43.44H948.31z"/>
	</g>
</g>
</svg>
