<svg xmlns="http://www.w3.org/2000/svg" width="51.74" height="51.74" viewBox="0 0 51.74 51.74"><defs><style>.a{fill:#00a9d9;fill-rule:evenodd;}</style></defs><path class="a" d="M25.87,0A25.87,25.87,0,1,1,0,25.87,25.86,25.86,0,0,1,25.87,0ZM15.14,31.1l4.35-.68c.47,3.8,3.05,5.36,6.72,5.36,2.58,0,6-1,6-4.07,0-2.78-3.73-3.33-5.83-3.87-4.49-1.09-10.46-2.17-10.46-8,0-4.55,3.73-6.86,7.81-7.34V9.71h4.41v2.85c4.35.68,6.79,2.65,7.54,7.13l-4.28.61C30.89,17.18,28.65,16,25.73,16c-2.1,0-5.63.54-5.63,3.32s4.14,3.33,6.11,3.87c4.62,1.23,10.46,2.18,10.46,8.08,0,4.83-4.21,7.54-8.56,8.08V42.1H23.7V39.25C18.81,38.64,16,36,15.14,31.1Z"/></svg>