<svg xmlns="http://www.w3.org/2000/svg" width="47.74" height="47.74" viewBox="0 0 47.74 47.74"><defs><style>.a{fill:#00a9d9;fill-rule:evenodd;}</style></defs><path class="a" d="M4.48,47.74A4.47,4.47,0,0,1,0,43.26V4.48A4.47,4.47,0,0,1,4.48,0H43.26a4.47,4.47,0,0,1,4.48,4.48V43.26a4.47,4.47,0,0,1-4.48,4.48ZM19,12.37a1.5,1.5,0,0,1,0,2.11l-5.6,5.6a1.51,1.51,0,0,1-2.11,0L7.9,16.72a1.48,1.48,0,0,1,0-2.11,1.5,1.5,0,0,1,2.11,0l2.3,2.3,4.54-4.54A1.5,1.5,0,0,1,19,12.37Zm4.91,2.55a1.49,1.49,0,0,0,0,3H38.79a1.49,1.49,0,0,0,0-3ZM22.38,31.33a1.49,1.49,0,0,1,1.49-1.49H38.79a1.49,1.49,0,1,1,0,3H23.87A1.49,1.49,0,0,1,22.38,31.33ZM19,29.4a1.49,1.49,0,0,0-2.11-2.11l-4.54,4.54L10,29.53a1.5,1.5,0,0,0-2.11,0,1.48,1.48,0,0,0,0,2.11L11.25,35a1.48,1.48,0,0,0,2.11,0Z"/></svg>