<svg xmlns="http://www.w3.org/2000/svg" width="61.7" height="50.13" viewBox="0 0 61.7 50.13"><defs><style>.a{fill:#00a9d9;}</style></defs><path class="a" d="M61.69,36.92,52.13.76A1,1,0,0,0,50.57.15L.5,30.05a.89.89,0,0,0-.43,1.13l2.78,11.3A1,1,0,0,0,4,43.27l10.34-1a1,1,0,0,1,1,.61,10.69,10.69,0,0,0,3.05,4.34A11,11,0,0,0,26,50.13h.69a11.6,11.6,0,0,0,7.91-3.82,11.82,11.82,0,0,0,2.7-5.39,1,1,0,0,1,.95-.78l22.6-2A1,1,0,0,0,61.69,36.92ZM31.88,44.13a8.05,8.05,0,0,1-5.48,2.7,7.72,7.72,0,0,1-6.86-3.3,1.09,1.09,0,0,1,.78-1.66l11.73-1.12a1,1,0,0,1,1.05,1.47A6.32,6.32,0,0,1,31.88,44.13Z"/></svg>