<svg xmlns="http://www.w3.org/2000/svg" width="61.74" height="58.95" viewBox="0 0 61.74 58.95"><defs><style>.a{fill:#183f74;fill-rule:evenodd;}</style></defs><path class="a" d="M45.83,32.69C42.35,30.26,41.23,27,42.44,23s-.25-5.72-4.43-5-7.26-.74-9.27-4.48-4.23-3.86-6.66-.38-5.66,4.61-9.72,3.39-5.72.25-5,4.43S6.63,28.2,2.9,30.21-1,34.44,2.52,36.86s4.6,5.67,3.38,9.73.26,5.72,4.44,5,7.26.75,9.27,4.48,4.23,3.86,6.65.39,5.67-4.61,9.73-3.39,5.72-.26,5-4.44.75-7.26,4.48-9.27S49.31,35.12,45.83,32.69ZM29.11,40.32a7.43,7.43,0,1,1,.61-10.48A7.42,7.42,0,0,1,29.11,40.32Z"/><path class="a" d="M60.09,6.43a9,9,0,0,1-4-4.53q-1.23-3-4-1.32A9,9,0,0,1,46.16,1.8C44,1.53,43,2.45,43,4.59a9,9,0,0,1-1.91,5.74c-1.3,1.7-1,3.07.85,4.11A9,9,0,0,1,46,19c.82,2,2.14,2.41,4,1.32a9,9,0,0,1,5.93-1.22c2.11.28,3.16-.65,3.13-2.79a9,9,0,0,1,1.91-5.74Q62.88,8,60.09,6.43Zm-9.28,7.83a3.83,3.83,0,1,1,4-3.6A3.83,3.83,0,0,1,50.81,14.26Z"/></svg>