<svg xmlns="http://www.w3.org/2000/svg" width="59.93" height="59.93" viewBox="0 0 59.93 59.93"><defs><style>.a{fill:#00a9d9;fill-rule:evenodd;}</style></defs><path class="a" d="M50.25,9.67A33.46,33.46,0,0,0,29.76,0a.92.92,0,0,0-.69.23.88.88,0,0,0-.29.66v28A2.24,2.24,0,0,0,31,31.15H59a.84.84,0,0,0,.66-.3.82.82,0,0,0,.23-.68A33.43,33.43,0,0,0,50.25,9.67Zm2.67,25.07h-17a.9.9,0,0,0-.5,1.65l14.17,9.38a.92.92,0,0,0,.72.12.85.85,0,0,0,.57-.46,26.77,26.77,0,0,0,2.92-9.7.91.91,0,0,0-.9-1ZM24.39,6.09a27,27,0,1,0,24,43.21L26.09,34.51a1.8,1.8,0,0,1-.91-1.57V6.8A.7.7,0,0,0,25,6.27.72.72,0,0,0,24.39,6.09Z"/></svg>