<svg xmlns="http://www.w3.org/2000/svg" width="61.26" height="55.58" viewBox="0 0 61.26 55.58"><defs><style>.a{fill:#00a9d9;}</style></defs><path class="a" d="M38.21,10.23a1,1,0,0,1-.05,1.18c-.29.39-.53.83-.8,1.27l5.74,4.78c1.78-1.7,2.4-2,3.45-1.22s1.17,1.62.39,3.16c1.43,1.14,2.82,2.28,4.22,3.4,1.09.86,1.73.79,2.68-.24l4.27-4.63c.36-.4.74-.79,1.06-1.22l.07-.08A1.55,1.55,0,0,0,59,14.45c-1.52-1.34-3.08-2.64-4.61-3.94-1.77,1.12-3.1.59-3.6-1.41A4.92,4.92,0,0,0,50.45,8a5.38,5.38,0,0,0-.9-1.46,23.85,23.85,0,0,0-2.17-1.83,3.74,3.74,0,0,0-2.7-.9,2.56,2.56,0,0,1-1.22-.3,10.62,10.62,0,0,1-1.62-1,9.06,9.06,0,0,0-7-1.64,11.4,11.4,0,0,0-6,2.82c-.28.28-.5.61-.81,1h.91A9.38,9.38,0,0,1,38.21,10.23Z"/><path class="a" d="M42,19.24l-6.18-5.12-.19.14Q20.85,30.58,6.11,46.92a2.92,2.92,0,0,0-.28.32,3,3,0,0,0,.6,4.17c1.14,1,2.3,1.9,3.45,2.85a2.44,2.44,0,0,0,.4.32,3.11,3.11,0,0,0,4.33-.82l24.64-31.1Z"/><path class="a" d="M61.09,42.85a2.86,2.86,0,0,1-.07-.28,12.34,12.34,0,0,0-1.5-3.75A10.79,10.79,0,0,0,45.69,35a.56.56,0,0,1-.44,0c-2-1.27-4-2.49-5.9-3.83-.62-.43-1.23-.88-1.83-1.34l-4.88,5.86c.93.82,1.83,1.66,2.72,2.54,1.47,1.44,2.83,3,4.22,4.51a.84.84,0,0,1,.19.61,10.44,10.44,0,0,0,.33,4.27,10.59,10.59,0,0,0,6,7,10.31,10.31,0,0,0,8.27.2,1.87,1.87,0,0,0,.29-.2l-.2-.21-6.1-5a.76.76,0,0,1-.29-.45c-.08-1.32-.13-2.65-.17-4a.76.76,0,0,1,.15-.4c.58-.73,1.18-1.46,1.78-2.18a.72.72,0,0,1,.38-.19c1.27-.2,2.53-.41,3.8-.57a.88.88,0,0,1,.61.18c1.56,1.27,3.09,2.56,4.63,3.85.56.47,1.11,1,1.73,1.49l.08-.48c.07-.65.15-1.3.22-1.94Z"/><path class="a" d="M14.19,21.07a.68.68,0,0,1,.56,0c.77.49,1.55,1,2.27,1.52,1.3,1,2.61,2,3.9,3.05L26,19.9c-1.53-1.46-3-3-4.37-4.61-.47-.55-.77-1-.37-1.71a.66.66,0,0,0,.06-.2,10.8,10.8,0,0,0-4.73-11.7A10.57,10.57,0,0,0,7.51.55C7.33.6,7.15.7,6.9.8l.8.7,5.42,4.81a.65.65,0,0,1,.21.41c0,1.31.05,2.63.05,3.94a.73.73,0,0,1-.16.43c-.61.68-1.18,1.37-1.79,2a.92.92,0,0,1-.5.28l-3.69.46a.82.82,0,0,1-.7-.23l-5-4.45c-.37-.31-.76-.65-1.2-1L0,10.52l.12,1.89c0,.09,0,.18.09.27A27.12,27.12,0,0,0,1,15.33,10.24,10.24,0,0,0,7.14,21,10.18,10.18,0,0,0,14.19,21.07Z"/></svg>